#N canvas 450 485 450 300 10;
#X obj 222 179 osc~ 880;
#X obj 224 259 dac~;
#X obj 259 6 loadbang;
#X msg 326 34 \; pd dsp 1;
#X obj 259 45 metro 100;
#X obj 222 90 snapshot~;
#X obj 222 147 + 800;
#X obj 222 119 * 50;
#X obj 141 19 osc~ 0.1;
#X obj 223 221 *~ 0.2;
#X connect 0 0 9 0;
#X connect 2 0 3 0;
#X connect 2 0 4 0;
#X connect 4 0 5 0;
#X connect 5 0 7 0;
#X connect 6 0 0 0;
#X connect 7 0 6 0;
#X connect 8 0 5 0;
#X connect 9 0 1 1;
#X connect 9 0 1 0;
