#N canvas 98 158 485 400 10;
#X obj 101 101 cnv 15 138 30 empty empty REVERB 20 12 0 18 -4032 -66577
0;
#X obj 217 216 vu 20 80 empty empty -1 -8 0 10 -66577 -1 0 0;
#X msg 299 231 set \$1;
#X obj 100 134 cnv 15 138 23 empty empty room 3 9 0 14 -33289 -262144
0;
#X obj 106 161 hsl 128 15 0 100 0 0 empty empty empty -2 -8 0 10 -128992
-262144 -1 4699 1;
#X obj 100 184 cnv 15 138 23 empty empty Dry/Wet 3 9 0 14 -33289 -262144
0;
#X msg -16 285 set \$1;
#X obj 298 196 extra/sv reverb_room;
#X obj 106 212 hsl 100 15 0 100 0 0 empty empty empty -2 -8 0 10 -128992
-262144 -1 6400 1;
#X obj -39 249 extra/sv reverb_drywet;
#X connect 2 0 4 0;
#X connect 4 0 7 1;
#X connect 6 0 8 0;
#X connect 7 0 2 0;
#X connect 8 0 9 1;
#X connect 9 0 6 0;
#X coords 0 -1 1 1 140 200 2 100 100;
