#N canvas 28 74 625 681 10;
#X obj 101 132 cnv 15 148 298 empty empty empty 20 12 0 14 -261279
-66577 0;
#X obj 101 101 cnv 15 148 30 empty \$1_syncloopname batterie 30 12
0 22 -253822 -157856 0;
#N canvas 642 256 1038 529 play 0;
#X text 434 10 label-color;
#X text 449 35 label-color;
#X obj 507 84 pack 22 0 0 \$0;
#X obj 349 7 t b f;
#X obj 331 91 pack 22 0 0 \$0;
#X obj 523 -84 loadbang;
#X obj 100 101 hradio 30 1 0 4 empty empty empty 0 -8 0 10 -262144
-1 -1 0;
#X obj 105 214 bang;
#X obj 101 260 outlet;
#X msg 335 -27 13;
#X msg 372 -27 41;
#X obj 101 100 cnv 15 118 30 empty \$0_offcnv OFF 35 15 0 19 -1 -258699
0;
#X obj 109 106 cnv 15 20 20 empty \$0_offsquare empty 6 9 0 14 -258699
-262144 0;
#X msg 328 122 \; \$4_offsquare color \$1 \$2 \$3;
#X msg 508 117 \; \$4_offcnv color \$1 \$2 \$3;
#X obj 136 -98 tgl 15 0 empty empty empty 17 7 0 10 -262144 -1 -1 1
1;
#X obj 137 -69 sel 1;
#X msg 112 -168 bang;
#X obj 128 -242 inlet;
#X obj 136 -127 metro 100;
#X obj 336 -240 inlet;
#X obj 396 -240 inlet;
#X obj 335 -199 t b b;
#X msg 328 -156 stop;
#X obj 395 -198 t b b;
#X connect 2 0 14 0;
#X connect 3 0 2 0;
#X connect 3 1 2 2;
#X connect 3 1 4 0;
#X connect 4 0 13 0;
#X connect 5 0 10 0;
#X connect 6 0 7 0;
#X connect 7 0 8 0;
#X connect 9 0 3 0;
#X connect 10 0 3 0;
#X connect 15 0 16 0;
#X connect 16 0 9 0;
#X connect 16 1 10 0;
#X connect 17 0 19 0;
#X connect 18 0 17 0;
#X connect 19 0 15 0;
#X connect 20 0 22 0;
#X connect 21 0 24 0;
#X connect 22 0 9 0;
#X connect 22 1 23 0;
#X connect 23 0 19 0;
#X connect 24 0 10 0;
#X connect 24 1 23 0;
#X coords 0 -1 1 1 120 32 2 100 100;
#X restore 118 415 pd play;
#X obj 234 627 s \$1_5_click_fromUI;
#X obj -107 524 r syncloop\$1_5_readloop_wait_ui;
#X obj 360 484 r \$1_play5;
#X obj 364 518 sel 1 0;
#X obj 141 205 UI/ui_syncloop \$1 2;
#X obj 141 135 UI/ui_syncloop \$1 1;
#X obj 141 275 UI/ui_syncloop \$1 3;
#X obj 141 345 UI/ui_syncloop \$1 4;
#X connect 2 0 3 0;
#X connect 4 0 2 0;
#X connect 5 0 6 0;
#X connect 6 0 2 1;
#X connect 6 1 2 2;
#X coords 0 -1 1 1 150 350 2 100 100;
