#N canvas 163 37 798 460 10;
#X msg 105 156 0;
#X msg 260 156 1;
#X msg 416 156 2;
#X msg 578 156 3;
#X obj 168 359 pack 22 0 0 0;
#X obj 577 266 bang;
#X msg 168 331 12;
#X obj 105 101 hradio 33 1 0 4 empty empty empty 0 -8 0 10 -262144
-1 -1 2;
#X obj 260 101 hradio 33 1 0 4 empty empty empty 0 -8 0 10 -262144
-1 -1 2;
#X obj 416 101 hradio 33 1 0 4 empty empty empty 0 -8 0 10 -262144
-1 -1 2;
#X obj 578 101 hradio 33 1 0 4 empty empty empty 0 -8 0 10 -262144
-1 -1 1;
#X obj 101 100 cnv 15 140 34 empty empty empty 20 12 0 14 -128992 -262144
0;
#X obj 112 109 cnv 15 110 15 empty col_selected_0 empty 20 12 0 14
-33289 -262144 0;
#X obj 259 101 cnv 15 140 33 empty empty empty 20 12 0 14 -128992 -262144
0;
#X obj 271 109 cnv 15 110 15 empty col_selected_1 empty 20 12 0 14
-128992 -262144 0;
#X obj 414 101 cnv 15 140 33 empty empty empty 20 12 0 14 -128992 -262144
0;
#X obj 426 109 cnv 15 110 15 empty col_selected_2 empty 20 12 0 14
-128992 -262144 0;
#X obj 570 101 cnv 15 140 33 empty empty empty 20 12 0 14 -128992 -262144
0;
#X obj 582 109 cnv 15 110 15 empty col_selected_3 empty 20 12 0 14
-128992 -262144 0;
#X obj 135 223 extra/sv col_selected;
#X msg 168 390 \; col_selected_\$4 color \$1 \$2 \$3;
#X msg 414 292 \; col_selected_0 color 11 0 0;
#X msg 594 292 \; col_selected_1 color 11 0 0;
#X msg 414 332 \; col_selected_2 color 11 0 0;
#X msg 594 332 \; col_selected_3 color 11 0 0;
#X obj 168 303 t b f;
#X obj 135 249 t f b;
#X obj 135 275 sel -1;
#X connect 0 0 19 1;
#X connect 1 0 19 1;
#X connect 2 0 19 1;
#X connect 3 0 19 1;
#X connect 4 0 20 0;
#X connect 5 0 22 0;
#X connect 5 0 24 0;
#X connect 5 0 23 0;
#X connect 5 0 21 0;
#X connect 6 0 4 0;
#X connect 7 0 0 0;
#X connect 8 0 1 0;
#X connect 9 0 2 0;
#X connect 10 0 3 0;
#X connect 19 0 26 0;
#X connect 25 0 6 0;
#X connect 25 1 4 3;
#X connect 26 0 27 0;
#X connect 26 1 5 0;
#X connect 27 1 25 0;
#X coords 0 -1 1 1 611 35 2 100 100;
