#N canvas 520 132 920 617 10;
#X obj 55 235 cnv 15 98 78 empty empty empty 20 12 0 14 -233017 -66577
0;
#X obj 147 60 bng 15 250 50 0 empty empty empty 17 7 0 10 -262144 -1
-1;
#X obj 194 60 bng 15 250 50 0 empty empty empty 17 7 0 10 -262144 -1
-1;
#X obj 203 291 s \$1_\$2_readloop_volume_fromUI;
#N canvas 402 255 1038 529 play 0;
#X text 434 10 label-color;
#X text 449 35 label-color;
#X obj 507 84 pack 22 0 0 \$0;
#X obj 349 7 t b f;
#X msg 372 -27 2;
#X msg 508 117 \; \$4_playcnv color \$1 \$2 \$3;
#X obj 523 -84 loadbang;
#X obj 106 104 hradio 20 0 0 3 empty empty empty 0 -8 0 10 -262144
-1 -1 2;
#X obj 101 101 cnv 15 74 27 empty \$0_playcnv PLAY 22 11 0 14 -1 -66577
0;
#X obj 105 107 cnv 15 15 14 empty \$0_playsquare empty 6 9 0 14 -24198
-262144 0;
#X obj 105 214 bang;
#X obj 101 260 outlet;
#X obj 28 -228 inlet;
#X obj 336 -240 inlet;
#X obj 396 -240 inlet;
#X obj 335 -199 t b b;
#X obj 395 -198 t b b;
#X obj 92 -79 pack 22 0 0 \$0;
#X msg 92 -53 \; \$4_playsquare color \$1 \$2 \$3;
#X msg 86 -147 46;
#X msg 123 -147 13;
#X obj 27 -191 sel 0 1;
#X msg -43 -86 \; \$2_playcnv label \$1;
#X obj -43 -115 pack s \$0;
#X msg -43 -138 PLAY;
#X msg 3 -138 REC;
#X msg 335 -27 30;
#X connect 2 0 5 0;
#X connect 3 0 2 0;
#X connect 3 1 2 2;
#X connect 4 0 3 0;
#X connect 6 0 4 0;
#X connect 7 0 10 0;
#X connect 10 0 11 0;
#X connect 12 0 21 0;
#X connect 13 0 15 0;
#X connect 14 0 16 0;
#X connect 15 0 26 0;
#X connect 16 0 4 0;
#X connect 17 0 18 0;
#X connect 19 0 17 0;
#X connect 20 0 17 0;
#X connect 21 0 19 0;
#X connect 21 0 24 0;
#X connect 21 1 20 0;
#X connect 21 1 25 0;
#X connect 23 0 22 0;
#X connect 24 0 23 0;
#X connect 25 0 23 0;
#X connect 26 0 3 0;
#X coords 0 -1 1 1 76 29 2 100 100;
#X restore 97 97 pd play;
#X obj 99 127 hsl 72 17 0 1 0 0 empty empty empty -2 -8 0 10 -99865
-4034 -1 0 1;
#N canvas 716 201 679 427 volume 0;
#X floatatom 244 309 5 0 0 0 - - -, f 5;
#X obj 85 103 vsl 10 71 0 100 0 0 empty empty empty 0 -9 0 10 -170864
-1 -1 0 0;
#X msg 247 502 \; \$3_slider vis_size \$2 \$1;
#X obj 83 101 cnv 8 14 80 empty empty empty 20 12 0 14 -99865 -66577
0;
#X obj 84 103 cnv 5 12 76 empty empty empty 20 12 0 14 -1375 -66577
0;
#X obj 84 103 cnv 3 12 67 empty \$0_slider empty 20 12 0 14 -170864
-66577 0;
#X obj 246 339 / 100;
#X obj 246 362 * -1;
#X obj 246 390 + 1;
#X obj 357 419 * 255;
#X obj 356 465 outlet;
#X obj 182 70 inlet;
#X obj 180 133 / 200;
#X obj 244 416 * 78;
#X obj 245 448 pack 0 12 \$0;
#X connect 0 0 6 0;
#X connect 1 0 0 0;
#X connect 6 0 7 0;
#X connect 6 0 9 0;
#X connect 7 0 8 0;
#X connect 8 0 13 0;
#X connect 9 0 10 0;
#X connect 11 0 12 0;
#X connect 12 0 13 0;
#X connect 13 0 14 0;
#X connect 14 0 2 0;
#X coords 0 -1 1 1 16 82 2 82 100;
#X restore 227 204 pd volume;
#X obj 552 -91 r \$1_\$2_realtempo_toUI;
#X obj 552 11 makefilename %d;
#X obj 552 37 symbol \$1;
#X obj 553 105 pack \$0 s;
#X obj 552 72 t b s;
#X msg 553 142 \; \$1_tempocnv label \$2;
#X floatatom 487 31 5 0 0 0 - - -, f 5;
#X obj 309 183 cnv 15 35 15 empty \$0_tempocnv 94 15 6 2 10 -1 -241339
0;
#X obj 421 91 print cnvtempo;
#X obj 573 -28 i 0;
#X obj 97 145 cnv 15 76 17 empty empty empty 20 12 0 14 -33289 -66577
0;
#N canvas 447 412 1038 529 open 0;
#X text 462 314 label-color;
#X text 477 339 label-color;
#X obj 377 311 t b f;
#X msg 400 277 2;
#X obj 551 220 loadbang;
#X obj 104 101 hradio 15 1 0 2 empty empty empty 0 -8 0 10 -262144
-1 -1 0;
#X obj 104 166 bang;
#X msg 363 277 43;
#X obj 101 101 cnv 15 38 15 empty \$0_opencnv open 6 8 0 10 -66577
-262144 0;
#X msg 536 421 \; \$4_opencnv color \$1 \$2 \$3;
#X obj 363 197 bang;
#X obj 535 388 pack 43 0 0 \$0;
#X obj 380 239 delay 200;
#X obj 102 208 s \$1_\$2_freesound_open;
#X connect 2 1 11 0;
#X connect 3 0 2 0;
#X connect 4 0 3 0;
#X connect 5 0 6 0;
#X connect 6 0 10 0;
#X connect 6 0 13 0;
#X connect 7 0 2 0;
#X connect 10 0 7 0;
#X connect 10 0 12 0;
#X connect 11 0 9 0;
#X connect 12 0 3 0;
#X coords 0 -1 1 1 40 17 2 100 100;
#X restore 97 145 pd open;
#N canvas 527 215 1038 529 del 0;
#X text 462 314 label-color;
#X text 477 339 label-color;
#X obj 377 311 t b f;
#X msg 400 277 2;
#X obj 551 220 loadbang;
#X obj 116 101 hradio 15 1 0 2 empty empty empty 0 -8 0 10 -262144
-1 -258113 0;
#X obj 104 166 bang;
#X msg 363 277 43;
#X obj 101 101 cnv 15 48 15 empty \$0_delcnv delete 8 8 0 8 -66577
-258699 0;
#X obj 363 197 bang;
#X obj 380 239 delay 200;
#X msg 536 421 \; \$4_delcnv color \$1 \$2 \$3;
#X obj 535 388 pack 43 0 43 \$0;
#X msg 104 209 0;
#X obj 13 241 extra/sv \$1_\$2_is_loop_recorded;
#X connect 2 1 12 0;
#X connect 3 0 2 0;
#X connect 4 0 3 0;
#X connect 5 0 6 0;
#X connect 6 0 9 0;
#X connect 6 0 13 0;
#X connect 7 0 2 0;
#X connect 9 0 7 0;
#X connect 9 0 10 0;
#X connect 10 0 3 0;
#X connect 12 0 11 0;
#X connect 13 0 14 1;
#X coords 0 -1 1 1 50 17 2 100 100;
#X restore 149 191 pd del;
#X obj -58 168 bang;
#X obj -34 203 del 1000;
#X msg -74 210 1;
#X msg -34 227 0;
#X obj -77 338 extra/sv \$1_readsound_\$2_isplaying;
#X obj 145 -20 extra/sv \$1_readsound_\$2_isplaying;
#X obj -88 112 r \$1_readsound_\$2_slider_ui;
#X obj 32 -71 extra/sv \$1_readsound_\$2_recmode;
#X obj 149 23 sel 0;
#X connect 1 0 4 1;
#X connect 2 0 4 2;
#X connect 4 0 20 0;
#X connect 6 0 3 0;
#X connect 7 0 15 0;
#X connect 7 0 16 0;
#X connect 8 0 9 0;
#X connect 9 0 11 0;
#X connect 10 0 12 0;
#X connect 11 0 10 0;
#X connect 11 1 10 1;
#X connect 16 0 8 0;
#X connect 16 0 13 0;
#X connect 20 0 22 0;
#X connect 20 0 21 0;
#X connect 21 0 23 0;
#X connect 22 0 24 1;
#X connect 23 0 24 1;
#X connect 25 0 28 0;
#X connect 26 0 5 0;
#X connect 27 0 4 0;
#X connect 28 0 2 0;
#X connect 28 1 1 0;
#X coords 0 -1 1 1 78 67 2 96 96;
