#N canvas 2088 269 976 643 10;
#X obj 172 60 bng 15 250 50 0 empty empty empty 17 7 0 10 -262144 -1
-1;
#X obj 193 60 bng 15 250 50 0 empty empty empty 17 7 0 10 -262144 -1
-1;
#X obj 220 60 bng 15 250 50 0 empty empty empty 17 7 0 10 -262144 -1
-1;
#X obj 552 -44 r \$1_\$2_realtempo_toUI;
#X obj 552 11 makefilename %d;
#X obj 552 37 symbol \$1;
#X obj 553 105 pack \$0 s;
#X obj 552 72 t b s;
#X obj 552 -14 i 0;
#X obj 356 691 t b f;
#X obj 383 720 pack 22 0 0 \$0;
#X msg 383 751 \; \$4_temposlider color \$1 \$2 \$3;
#X msg 356 660 30;
#X msg 389 661 32;
#X text 550 -75 Display the real tempo of the loop;
#X text 355 384 Display is the loop is active or not;
#X obj 193 37 sel 1 0;
#X obj 88 60 bng 15 250 50 0 empty empty empty 17 7 0 10 -262144 -1
-1;
#X obj 121 61 bng 15 250 50 0 empty empty empty 17 7 0 10 -262144 -1
-1;
#X obj 148 61 bng 15 250 50 0 empty empty empty 17 7 0 10 -262144 -1
-1;
#X obj 121 38 sel 1 0;
#X obj 192 -99 extra/sv \$1_\$2_is_loop_playing;
#X obj -28 -129 extra/sv \$1_\$2_is_loop_recording;
#X obj 36 526 t b f;
#X msg 36 495 30;
#X obj 35 465 sel 0 1;
#X text 26 389 Change background is the loop is selected;
#X msg 63 586 \; \$4_bgcnv color \$1 \$2 \$3;
#X msg 553 142 \; \$1_temposlider label \$2;
#N canvas 430 216 1038 529 play 0;
#X obj 270 -14 t b f;
#X msg 293 -48 2;
#X obj 297 18 pack 22 0 0 \$0;
#X msg 294 49 \; \$4_playsquare color \$1 \$2 \$3;
#X msg 256 -48 46;
#X obj 368 -95 loadbang;
#X obj 105 101 hradio 23 1 0 2 empty empty empty 0 -8 0 10 -262144
-1 -1 1;
#X obj 100 100 cnv 15 59 24 empty \$0_playcnv PLAY 20 12 0 15 -1 -66577
0;
#X obj 104 106 cnv 13 13 13 empty \$0_playsquare empty 6 9 0 14 -66577
-262144 0;
#X obj 105 214 bang;
#X obj 101 260 outlet;
#X obj 256 -110 tgl 15 0 empty empty empty 17 7 0 10 -262144 -1 -1
0 1;
#X obj 256 -83 sel 1;
#X msg 256 -169 bang;
#X obj 256 -243 inlet;
#X obj 336 -240 inlet;
#X obj 396 -240 inlet;
#X obj 335 -199 t b b;
#X msg 328 -156 stop;
#X obj 395 -198 t b b;
#X text 784 10 label-color;
#X text 799 35 label-color;
#X obj 499 14 pack 22 0 0 \$0;
#X obj 499 -13 t b f;
#X msg 522 -47 2;
#X msg 500 47 \; \$4_playcnv color \$1 \$2 \$3;
#X msg 485 -47 46;
#X obj 256 -139 metro 150;
#X connect 0 1 2 0;
#X connect 1 0 0 0;
#X connect 2 0 3 0;
#X connect 4 0 0 0;
#X connect 5 0 1 0;
#X connect 5 0 24 0;
#X connect 6 0 9 0;
#X connect 9 0 10 0;
#X connect 11 0 12 0;
#X connect 12 0 4 0;
#X connect 12 1 1 0;
#X connect 13 0 27 0;
#X connect 14 0 13 0;
#X connect 15 0 17 0;
#X connect 16 0 19 0;
#X connect 17 0 26 0;
#X connect 17 1 18 0;
#X connect 18 0 1 0;
#X connect 18 0 27 0;
#X connect 19 0 24 0;
#X connect 19 1 18 0;
#X connect 22 0 25 0;
#X connect 23 0 22 0;
#X connect 23 1 22 2;
#X connect 24 0 23 0;
#X connect 26 0 23 0;
#X connect 27 0 11 0;
#X coords 0 -1 1 1 60 25 2 100 100;
#X restore 172 135 pd play;
#X obj 113 164 hsl 116 25 0 1 0 0 empty \$0_temposlider 0 85 20 0 10
-66577 -262144 -262144 0 1;
#N canvas 447 412 1038 529 open 0;
#X text 462 314 label-color;
#X text 477 339 label-color;
#X obj 377 311 t b f;
#X msg 400 277 2;
#X obj 551 220 loadbang;
#X obj 104 101 hradio 15 1 0 2 empty empty empty 0 -8 0 10 -262144
-1 -1 0;
#X obj 104 166 bang;
#X msg 363 277 43;
#X obj 101 101 cnv 15 38 15 empty \$0_opencnv open 6 8 0 10 -66577
-262144 0;
#X msg 536 421 \; \$4_opencnv color \$1 \$2 \$3;
#X obj 363 197 bang;
#X obj 535 388 pack 43 0 0 \$0;
#X obj 380 239 delay 200;
#X obj 102 208 s \$1_\$2_loop_open;
#X connect 2 1 11 0;
#X connect 3 0 2 0;
#X connect 4 0 3 0;
#X connect 5 0 6 0;
#X connect 6 0 10 0;
#X connect 6 0 13 0;
#X connect 7 0 2 0;
#X connect 10 0 7 0;
#X connect 10 0 12 0;
#X connect 11 0 9 0;
#X connect 12 0 3 0;
#X coords 0 -1 1 1 40 17 2 100 100;
#X restore 117 250 pd open;
#N canvas 527 215 1038 529 del 0;
#X text 462 314 label-color;
#X text 477 339 label-color;
#X obj 377 311 t b f;
#X msg 400 277 2;
#X obj 551 220 loadbang;
#X obj 116 101 hradio 15 1 0 2 empty empty empty 0 -8 0 10 -262144
-1 -258113 0;
#X obj 104 166 bang;
#X msg 363 277 43;
#X obj 101 101 cnv 15 48 15 empty \$0_delcnv delete 8 8 0 8 -66577
-258699 0;
#X obj 363 197 bang;
#X obj 380 239 delay 200;
#X msg 536 421 \; \$4_delcnv color \$1 \$2 \$3;
#X obj 535 388 pack 43 0 43 \$0;
#X obj 920 70 s \$1_\$2_loop_clear;
#X obj 62 211 s \$1_\$2_loop_clear;
#X connect 2 1 12 0;
#X connect 3 0 2 0;
#X connect 4 0 3 0;
#X connect 5 0 6 0;
#X connect 6 0 9 0;
#X connect 6 0 14 0;
#X connect 7 0 2 0;
#X connect 9 0 7 0;
#X connect 9 0 10 0;
#X connect 10 0 3 0;
#X connect 12 0 11 0;
#X coords 0 -1 1 1 50 17 2 100 100;
#X restore 172 250 pd del;
#X floatatom 267 216 3 0 0 0 - - -;
#X obj 267 240 s \$1_\$2_loop_transpose;
#X obj 553 436 r \$1_\$2_recloop_deleted_ui;
#X msg 356 516 bang;
#X msg 416 517 stop;
#X obj 423 488 t b b;
#X obj 395 582 tgl 15 0 empty empty empty 17 7 0 10 -262144 -1 -1 0
1;
#X obj 395 611 sel 1;
#X obj 449 641 bang;
#X obj 380 557 metro 100;
#X obj -1 -74 r \$1_\$2_recloop_deleted_ui;
#X msg -1 -52 0;
#X obj -124 554 pack \$1 \$2 \$0;
#X obj -124 525 loadbang;
#X obj -144 526 bng 15 250 50 0 empty empty empty 17 7 0 10 -262144
-1 -1;
#X msg -124 587 \; \$3_bgcnv label LOOPER_\$1;
#X obj 63 555 pack 22 2 2 \$0;
#X msg 76 495 77;
#X obj 112 102 hradio 28 1 0 4 empty empty empty 0 -8 0 10 -262144
-1 -1 2;
#X obj -108 123 extra/sv \$1_module_ask_selection;
#X obj 101 101 cnv 15 137 30 empty \$0_bgcnv LOOPER_0 20 12 0 18 -262144
-66577 0;
#X msg -45 101 1;
#X obj 35 410 extra/sv module_selected;
#X obj 35 436 == \$1;
#X obj 704 -43 loadbang;
#N canvas 419 233 1038 529 rec 0;
#X obj 269 7 t b f;
#X msg 292 -27 2;
#X obj 296 31 pack 22 0 0 \$0;
#X obj 348 -85 loadbang;
#X obj 104 101 hradio 23 1 0 2 empty empty empty 0 -8 0 10 -262144
-1 -1 1;
#X obj 100 100 cnv 15 60 25 empty \$0_reccnv REC 20 12 0 15 -1 -66577
0;
#X obj 105 106 cnv 13 13 13 empty \$0_recsquare empty 6 9 0 14 -66577
-262144 0;
#X obj 105 214 bang;
#X obj 101 260 outlet;
#X obj 136 -110 tgl 15 0 empty empty empty 17 7 0 10 -262144 -1 -1
0 1;
#X obj 136 -83 sel 1;
#X msg 136 -173 bang;
#X obj 136 -242 inlet;
#X obj 336 -240 inlet;
#X obj 396 -240 inlet;
#X obj 335 -199 t b b;
#X msg 328 -156 stop;
#X obj 395 -198 t b b;
#X msg 296 61 \; \$4_recsquare color \$1 \$2 \$3;
#X msg 255 -27 43;
#X obj 486 34 pack 22 0 0 \$0;
#X obj 486 7 t b f;
#X msg 509 -27 2;
#X msg 486 59 \; \$4_reccnv color \$1 \$2 \$3;
#X msg 472 -27 43;
#X obj 136 -139 metro 150;
#X connect 0 1 2 0;
#X connect 1 0 0 0;
#X connect 2 0 18 0;
#X connect 3 0 1 0;
#X connect 3 0 22 0;
#X connect 4 0 7 0;
#X connect 7 0 8 0;
#X connect 9 0 10 0;
#X connect 10 0 19 0;
#X connect 10 1 1 0;
#X connect 11 0 25 0;
#X connect 12 0 11 0;
#X connect 13 0 15 0;
#X connect 14 0 17 0;
#X connect 15 0 24 0;
#X connect 15 1 16 0;
#X connect 16 0 1 0;
#X connect 16 0 25 0;
#X connect 17 0 22 0;
#X connect 17 1 16 0;
#X connect 19 0 0 0;
#X connect 20 0 23 0;
#X connect 21 0 20 0;
#X connect 21 1 20 2;
#X connect 22 0 21 0;
#X connect 24 0 21 0;
#X connect 25 0 9 0;
#X coords 0 -1 1 1 60 25 2 100 100;
#X restore 112 135 pd rec;
#X obj -143 148 extra/sv \$1_\$2_recloop_slider;
#X msg -103 174 1;
#X msg 358 132 1;
#X obj 172 -128 extra/sv \$1_\$2_is_loop_waitforplay;
#X obj -92 -159 extra/sv \$1_\$2_is_loop_waitforrec;
#X obj 169 -30 sel 1;
#X obj 40 34 sel 1;
#X obj -160 195 extra/sv \$1_\$2_loop_recbutton;
#X obj 302 211 extra/sv \$1_\$2_loop_playbutton;
#X obj 356 415 r \$1_\$2_loop_clear;
#X obj 366 435 extra/sv \$1_\$2_is_loop_recorded;
#X obj 366 482 t b b;
#X obj 366 460 sel 1 0;
#X obj 55 -105 r \$1_\$2_loop_undo_ui;
#X msg 85 -42 0;
#X obj 403 165 del 200;
#X obj 403 146 bang;
#X msg 403 184 0;
#X obj -161 217 extra/sv \$1_\$2_looper_inverse;
#X obj 110 192 tgl 15 0 empty empty empty 17 7 0 10 -262144 -1 -1 0
1;
#X msg -161 236 set \$1;
#X text 131 191 inverse;
#X obj 111 211 hradio 15 1 0 8 empty empty empty 0 -8 0 10 -262144
-1 -1 0;
#X obj 111 231 hradio 15 1 0 8 empty empty empty 0 -8 0 10 -262144
-1 -1 0;
#X msg -95 290 set \$1;
#X msg -66 356 set \$1;
#X obj -95 269 extra/sv \$1_\$2_looper_slice;
#X obj -66 336 extra/sv \$1_\$2_looper_start;
#X connect 0 0 29 0;
#X connect 1 0 29 1;
#X connect 2 0 29 2;
#X connect 3 0 8 0;
#X connect 4 0 5 0;
#X connect 5 0 7 0;
#X connect 6 0 28 0;
#X connect 7 0 6 0;
#X connect 7 1 6 1;
#X connect 8 0 4 0;
#X connect 9 1 10 0;
#X connect 10 0 11 0;
#X connect 12 0 9 0;
#X connect 13 0 9 0;
#X connect 16 0 1 0;
#X connect 16 1 2 0;
#X connect 17 0 58 0;
#X connect 18 0 58 1;
#X connect 19 0 58 2;
#X connect 20 0 18 0;
#X connect 20 1 19 0;
#X connect 21 0 16 0;
#X connect 22 0 20 0;
#X connect 23 1 49 0;
#X connect 24 0 23 0;
#X connect 25 0 24 0;
#X connect 25 1 50 0;
#X connect 29 0 61 0;
#X connect 33 0 34 0;
#X connect 35 0 38 0;
#X connect 36 0 42 0;
#X connect 37 0 42 0;
#X connect 38 0 37 0;
#X connect 38 1 41 0;
#X connect 39 0 40 0;
#X connect 40 0 12 0;
#X connect 40 1 13 0;
#X connect 41 0 12 0;
#X connect 42 0 39 0;
#X connect 43 0 44 0;
#X connect 44 0 20 0;
#X connect 44 0 16 0;
#X connect 45 0 48 0;
#X connect 46 0 45 0;
#X connect 47 0 45 0;
#X connect 49 0 27 0;
#X connect 50 0 23 0;
#X connect 51 0 54 0;
#X connect 54 0 52 1;
#X connect 55 0 56 0;
#X connect 56 0 25 0;
#X connect 57 0 8 0;
#X connect 58 0 60 0;
#X connect 59 0 30 0;
#X connect 60 0 66 1;
#X connect 61 0 67 1;
#X connect 61 0 75 0;
#X connect 62 0 64 0;
#X connect 63 0 65 0;
#X connect 64 0 0 0;
#X connect 65 0 17 0;
#X connect 68 0 36 0;
#X connect 69 0 71 0;
#X connect 70 0 13 0;
#X connect 70 1 37 0;
#X connect 71 0 70 0;
#X connect 71 1 12 0;
#X connect 72 0 73 0;
#X connect 73 0 20 0;
#X connect 74 0 76 0;
#X connect 75 0 74 0;
#X connect 76 0 67 1;
#X connect 77 0 79 0;
#X connect 78 0 77 1;
#X connect 79 0 78 0;
#X connect 81 0 85 1;
#X connect 82 0 86 1;
#X connect 83 0 81 0;
#X connect 84 0 82 0;
#X connect 85 0 83 0;
#X connect 86 0 84 0;
#X coords 0 -1 1 1 139 170 2 100 100;
