#N canvas 232 119 781 681 10;
#X obj 101 101 cnv 15 298 498 empty empty empty 170 12 0 27 -125547
-66577 0;
#N canvas 541 30 828 533 recordbutton 0;
#X obj 112 -146 tgl 15 0 empty empty empty 17 7 0 10 -262144 -1 -1
0 1;
#X obj 112 -119 sel 1;
#X msg 88 -216 bang;
#X msg 148 -215 stop;
#X obj 104 -290 inlet;
#X obj 104 -265 sel 1;
#X obj 155 -244 t b b;
#X msg 180 -151 1;
#X text 443 7 label-color;
#X text 458 32 label-color;
#X obj 507 84 pack 22 0 0 \$0;
#X obj 358 4 t b f;
#X msg 381 -30 2;
#X msg 322 -22 13;
#X obj 340 88 pack 22 0 0 \$0;
#X obj 309 -285 inlet;
#X obj 419 -272 inlet;
#X msg 508 117 \; \$4_reccnv color \$1 \$2 \$3;
#X msg 337 119 \; \$4_recsquare color \$1 \$2 \$3;
#X obj 112 -175 metro 100;
#X obj 492 -81 loadbang;
#X obj 101 100 hradio 40 1 0 3 empty empty empty 0 -8 0 10 -262144
-1 -1 0;
#X obj 101 100 cnv 15 120 40 empty \$0_reccnv REC 60 17 0 20 -1 -66577
0;
#X obj 114 105 cnv 15 25 25 empty \$0_recsquare empty 20 12 0 14 -66577
-262144 0;
#X obj 118 231 outlet;
#X msg 116 171 1;
#X obj 309 -249 t b b;
#X obj 418 -238 t b b;
#X connect 0 0 1 0;
#X connect 1 0 13 0;
#X connect 1 1 12 0;
#X connect 2 0 19 0;
#X connect 3 0 19 0;
#X connect 4 0 5 0;
#X connect 5 0 2 0;
#X connect 5 1 6 0;
#X connect 6 0 3 0;
#X connect 6 1 7 0;
#X connect 7 0 1 0;
#X connect 10 0 17 0;
#X connect 11 0 10 0;
#X connect 11 1 10 2;
#X connect 11 1 14 0;
#X connect 12 0 11 0;
#X connect 13 0 11 0;
#X connect 14 0 18 0;
#X connect 15 0 26 0;
#X connect 16 0 27 0;
#X connect 19 0 0 0;
#X connect 20 0 12 0;
#X connect 21 0 25 0;
#X connect 25 0 24 0;
#X connect 26 0 13 0;
#X connect 26 1 3 0;
#X connect 27 0 12 0;
#X connect 27 1 3 0;
#X coords 0 -1 1 1 122 40 2 100 100;
#X restore 126 182 pd recordbutton;
#N canvas 328 155 842 365 playbutton 0;
#X obj 112 -146 tgl 15 0 empty empty empty 17 7 0 10 -262144 -1 -1
0 1;
#X obj 112 -119 sel 1;
#X msg 88 -216 bang;
#X msg 148 -215 stop;
#X obj 104 -290 inlet;
#X obj 100 -259 sel 1;
#X obj 154 -235 t b b;
#X msg 180 -151 1;
#X text 443 7 label-color;
#X text 458 32 label-color;
#X obj 507 84 pack 22 0 0 \$0;
#X obj 358 4 t b f;
#X msg 381 -30 2;
#X obj 340 88 pack 22 0 0 \$0;
#X obj 309 -285 inlet;
#X obj 369 -285 inlet;
#X msg 337 119 \; \$4_playsquare color \$1 \$2 \$3;
#X msg 508 117 \; \$4_playcnv color \$1 \$2 \$3;
#X msg 309 -40 46;
#X obj 112 -175 metro 100;
#X obj 523 -84 loadbang;
#X obj 101 100 hradio 40 1 0 3 empty empty empty 0 -8 0 10 -262144
-1 -1 0;
#X obj 128 314 outlet;
#X obj 101 100 cnv 15 120 40 empty \$0_playcnv PLAY 50 17 0 20 -1 -66577
0;
#X obj 114 105 cnv 15 25 25 empty \$0_playsquare empty 20 12 0 14 -66577
-262144 0;
#X msg 127 282 1;
#X obj 309 -247 t b b;
#X obj 369 -247 t b b;
#X obj 372 -159 delay 20;
#X obj 312 -159 delay 20;
#X connect 0 0 1 0;
#X connect 1 0 18 0;
#X connect 1 1 12 0;
#X connect 2 0 19 0;
#X connect 3 0 19 0;
#X connect 4 0 5 0;
#X connect 5 0 2 0;
#X connect 5 1 6 0;
#X connect 6 0 3 0;
#X connect 6 1 7 0;
#X connect 7 0 1 0;
#X connect 10 0 17 0;
#X connect 11 0 10 0;
#X connect 11 1 10 2;
#X connect 11 1 13 0;
#X connect 12 0 11 0;
#X connect 13 0 16 0;
#X connect 14 0 26 0;
#X connect 15 0 27 0;
#X connect 18 0 11 0;
#X connect 19 0 0 0;
#X connect 20 0 12 0;
#X connect 21 0 25 0;
#X connect 25 0 22 0;
#X connect 26 0 29 0;
#X connect 26 1 3 0;
#X connect 27 0 28 0;
#X connect 27 1 3 0;
#X connect 28 0 12 0;
#X connect 29 0 18 0;
#X coords 0 -1 1 1 122 40 2 100 100;
#X restore 251 182 pd playbutton;
#N canvas 1 23 741 379 recmanager 0;
#X obj 105 255 outlet;
#X obj 167 255 outlet;
#X obj 231 255 outlet;
#X text 105 279 blink;
#X text 165 277 on;
#X text 233 279 off;
#X msg 47 153 1;
#X obj 25 70 r \$1_recloop_ui_waitforrec;
#X obj 49 101 r \$1_recloop_ui_waitforclear;
#X obj 156 130 r \$1_recloop_ui_rec;
#X obj 294 106 r \$1_recloop_ui_stoprec;
#X obj 198 178 bng 15 250 50 0 empty empty empty 17 7 0 10 -262144
-1 -1;
#X obj 281 160 bng 15 250 50 0 empty empty empty 17 7 0 10 -262144
-1 -1;
#X obj 443 107 r \$1_recloop_deleted_ui;
#X connect 6 0 0 0;
#X connect 7 0 6 0;
#X connect 8 0 6 0;
#X connect 9 0 11 0;
#X connect 10 0 12 0;
#X connect 11 0 1 0;
#X connect 12 0 2 0;
#X connect 13 0 2 0;
#X restore 142 146 pd recmanager;
#N canvas 234 173 798 421 playmanager 0;
#X obj 109 217 outlet;
#X obj 168 217 outlet;
#X obj 295 217 outlet;
#X text 109 241 blink;
#X text 166 239 on;
#X text 297 241 off;
#X msg 51 115 1;
#X msg -113 113 1;
#X obj 53 63 r \$1_recloop_ui_waitforplay;
#X obj 44 20 r \$1_recloop_ui_waitforclear;
#X obj -127 62 r \$1_recloop_ui_waitforstop;
#X obj 168 84 r \$1_recloop_ui_play;
#X obj 294 85 r \$1_recloop_ui_stop;
#X obj 170 142 bng 15 250 50 0 empty empty empty 17 7 0 10 -262144
-1 -1;
#X obj 298 145 bng 15 250 50 0 empty empty empty 17 7 0 10 -262144
-1 -1;
#X obj 430 85 r \$1_recloop_deleted_ui;
#X connect 6 0 0 0;
#X connect 7 0 0 0;
#X connect 8 0 6 0;
#X connect 9 0 6 0;
#X connect 10 0 7 0;
#X connect 11 0 13 0;
#X connect 12 0 14 0;
#X connect 13 0 1 0;
#X connect 14 0 2 0;
#X connect 15 0 2 0;
#X restore 261 147 pd playmanager;
#X obj -12 231 s \$1_rec_fromUI;
#N canvas 608 166 652 696 bigbutton1 0;
#X obj 104 105 hradio 90 1 0 1 empty empty empty 0 -8 0 10 -262144
-1 -1 0;
#X obj 101 101 cnv 15 98 98 empty empty empty 20 12 0 14 -128992 -66577
0;
#X obj 105 104 cnv 15 90 90 empty \$0_bigb1_cnv RECORD 4 40 0 22 -1
-262144 0;
#X obj 210 283 delay 200;
#X msg 151 356 17;
#X msg 222 355 22;
#X obj 137 240 bang;
#X obj 189 398 t b f;
#X obj 160 432 pack \$0 0 0 0;
#X msg 160 482 \; \$1_bigb1_cnv color \$2 \$3 \$4;
#X msg 56 318 1;
#X obj 54 399 outlet;
#X connect 0 0 6 0;
#X connect 3 0 5 0;
#X connect 4 0 7 0;
#X connect 5 0 7 0;
#X connect 6 0 3 0;
#X connect 6 0 4 0;
#X connect 6 0 10 0;
#X connect 7 0 8 0;
#X connect 7 1 8 1;
#X connect 8 0 9 0;
#X connect 10 0 11 0;
#X coords 0 -1 1 1 100 100 2 100 100;
#X restore 109 486 pd bigbutton1;
#N canvas 0 23 450 300 bigbutton2 0;
#X obj 104 103 hradio 45 1 0 2 empty empty empty 0 -8 0 10 -262144
-1 -1 0;
#X obj 101 101 cnv 15 98 48 empty empty empty 20 12 0 14 -128992 -66577
0;
#X obj 210 283 delay 200;
#X msg 151 356 17;
#X msg 222 355 22;
#X obj 137 240 bang;
#X obj 189 398 t b f;
#X obj 160 432 pack \$0 0 0 0;
#X msg 79 254 1;
#X obj 68 319 outlet;
#X msg 160 482 \; \$1_bigb2_cnv color \$2 \$3 \$4;
#X obj 105 105 cnv 15 90 20 empty \$0_bigb2_cnv PLAY 20 12 0 16 -1
-262144 0;
#X obj 105 125 cnv 15 90 20 empty \$0_bigb2_cnv STOP 20 12 0 16 -1
-262144 0;
#X connect 0 0 5 0;
#X connect 0 0 8 0;
#X connect 2 0 4 0;
#X connect 3 0 6 0;
#X connect 4 0 6 0;
#X connect 5 0 2 0;
#X connect 5 0 3 0;
#X connect 6 0 7 0;
#X connect 6 1 7 1;
#X connect 7 0 10 0;
#X connect 8 0 9 0;
#X coords 0 -1 1 1 100 50 2 100 100;
#X restore 229 486 pd bigbutton2;
#X obj 1 601 s \$1_rec_fromUI;
#X obj 570 188 s \$1_play_fromUI;
#X obj 23 657 s \$1_play_fromUI;
#X obj 126 234 hsl 247 40 0 1 0 0 empty empty empty -2 -8 0 10 -75163
-262144 -1 24600 1;
#N canvas 0 22 450 300 bigbutton3 0;
#X obj 111 101 hradio 38 1 0 2 empty empty empty 0 -8 0 10 -262144
-1 -1 0;
#X obj 101 100 cnv 15 98 40 empty empty empty 20 12 0 14 -128992 -66577
0;
#X obj 105 105 cnv 15 90 30 empty \$0_bigb3_cnv EFFACER 10 15 0 16
-1 -262144 0;
#X obj 210 283 delay 200;
#X msg 151 356 17;
#X msg 222 355 22;
#X obj 137 240 bang;
#X obj 189 398 t b f;
#X obj 160 432 pack \$0 0 0 0;
#X msg 79 254 1;
#X obj 68 319 outlet;
#X msg 160 482 \; \$1_bigb3_cnv color \$2 \$3 \$4;
#X connect 0 0 6 0;
#X connect 0 0 9 0;
#X connect 3 0 5 0;
#X connect 4 0 7 0;
#X connect 5 0 7 0;
#X connect 6 0 3 0;
#X connect 6 0 4 0;
#X connect 7 0 8 0;
#X connect 7 1 8 1;
#X connect 8 0 11 0;
#X connect 9 0 10 0;
#X coords 0 -1 1 1 100 40 2 100 100;
#X restore 229 544 pd bigbutton3;
#X obj 60 621 s \$1_clear_fromUI;
#X obj -303 677 vu 20 200 empty empty -1 -8 0 10 -66577 -1 0 0;
#X floatatom -343 443 5 0 0 0 - - -, f 5;
#X obj -343 418 r \$1_looper_vumetreIN;
#N canvas 75 238 770 517 slider_volume 0;
#X floatatom 244 309 5 0 0 0 - - -, f 5;
#X obj 100 104 vsl 60 290 0 100 0 0 empty empty empty 0 -9 0 10 -170864
-1 -1 0 0;
#X msg 247 502 \; \$3_slider vis_size \$2 \$1;
#X obj 245 448 pack 0 40 \$0;
#X obj 100 100 cnv 15 60 300 empty empty empty 20 12 0 14 -99865 -66577
0;
#X obj 110 105 cnv 15 40 290 empty empty empty 20 12 0 14 -1375 -66577
0;
#X obj 110 105 cnv 15 40 76 empty \$0_slider empty 20 12 0 14 -170864
-66577 0;
#X obj 246 339 / 100;
#X obj 246 362 * -1;
#X obj 246 390 + 1;
#X obj 357 419 * 255;
#X obj 356 465 outlet;
#X obj 182 70 inlet;
#X obj 180 133 / 200;
#X obj 180 155 * -1;
#X obj 180 177 + 1;
#X obj 244 416 * 290;
#X connect 0 0 7 0;
#X connect 1 0 0 0;
#X connect 3 0 2 0;
#X connect 7 0 8 0;
#X connect 7 0 10 0;
#X connect 8 0 9 0;
#X connect 9 0 16 0;
#X connect 10 0 11 0;
#X connect 12 0 13 0;
#X connect 13 0 14 0;
#X connect 14 0 15 0;
#X connect 15 0 16 0;
#X connect 16 0 3 0;
#X coords 0 -1 1 1 60 300 2 100 100;
#X restore 339 300 pd slider_volume;
#X obj 595 524 s \$1_looper_volume_fromUI;
#X floatatom -331 619 5 0 0 0 - - -, f 5;
#X obj -342 467 * 2;
#X obj -340 511 - 210;
#X obj 542 36 r \$1_looper_ui_volume;
#X obj -58 144 r \$1_recloop_slider_ui;
#N canvas 649 119 828 533 recordbutton 0;
#X text 443 7 label-color;
#X text 458 32 label-color;
#X obj 358 4 t b f;
#X msg 381 -30 2;
#X obj 314 -133 inlet;
#X obj 492 -81 loadbang;
#X obj 101 100 cnv 15 250 25 empty \$0_recordcnv ENREGISTREMENT 60
14 0 20 -1109 -66577 0;
#X obj 123 105 cnv 15 15 15 empty \$0_recordsquare empty 20 12 0 14
-66577 -262144 0;
#X msg 369 148 \; \$4_recordsquare color \$1 \$2 \$3;
#X msg 574 139 \; \$4_recordcnv color \$1 \$2 \$3;
#X obj 385 -133 inlet;
#X msg 317 -30 0;
#X floatatom 190 -25 5 0 0 0 - - -, f 5;
#X obj 372 116 pack 27 0 0 \$0;
#X obj 547 105 pack 27 0 0 \$0;
#X connect 2 0 14 0;
#X connect 2 1 13 0;
#X connect 2 1 14 2;
#X connect 3 0 2 0;
#X connect 4 0 11 0;
#X connect 5 0 3 0;
#X connect 10 0 3 0;
#X connect 11 0 2 0;
#X connect 12 0 2 0;
#X connect 13 0 8 0;
#X connect 14 0 9 0;
#X coords 0 -1 1 1 252 26 2 100 100;
#X restore 123 274 pd recordbutton;
#X obj -199 255 r \$1_recloop_recorded_ui;
#X obj -33 257 r \$1_recloop_deleted_ui;
#X obj 101 101 cnv 15 298 38 empty \$1_syncloopname looper 100 12 0
22 -253822 -157856 0;
#X connect 1 0 5 0;
#X connect 2 0 9 0;
#X connect 3 0 1 0;
#X connect 3 1 1 1;
#X connect 3 2 1 2;
#X connect 4 0 2 0;
#X connect 4 1 2 1;
#X connect 4 2 2 2;
#X connect 6 0 8 0;
#X connect 7 0 10 0;
#X connect 12 0 13 0;
#X connect 15 0 20 0;
#X connect 16 0 15 0;
#X connect 17 0 18 0;
#X connect 20 0 21 0;
#X connect 21 0 14 0;
#X connect 21 0 19 0;
#X connect 22 0 17 0;
#X connect 23 0 11 0;
#X connect 25 0 24 0;
#X connect 26 0 24 1;
#X coords 0 -1 1 1 300 500 2 100 100;
