#N canvas 777 252 920 617 10;
#X obj 174 66 bng 15 250 50 0 empty empty empty 17 7 0 10 -262144 -1
-1;
#X obj 139 66 bng 15 250 50 0 empty empty empty 17 7 0 10 -262144 -1
-1;
#X obj 203 291 s \$1_\$2_readloop_volume_fromUI;
#N canvas 402 255 1038 529 play 0;
#X obj 106 104 hradio 20 0 0 3 empty empty empty 0 -8 0 10 -262144
-1 -1 1;
#X obj 101 101 cnv 15 74 27 empty \$0_playcnv PLAY 22 11 0 14 -1 -24198
0;
#X obj 105 107 cnv 15 15 14 empty \$0_playsquare empty 6 9 0 14 -24198
-262144 0;
#X obj 105 214 bang;
#X obj 101 260 outlet;
#X obj 94 -37 tgl 15 0 empty empty empty 17 7 0 10 -262144 -1 -1 1
1;
#X obj 94 -10 sel 1;
#X msg 70 -107 bang;
#X msg 130 -106 stop;
#X obj 86 -181 inlet;
#X obj 82 -150 sel 1;
#X obj 136 -126 t b b;
#X text 425 116 label-color;
#X text 440 141 label-color;
#X obj 489 143 pack 22 0 0 \$0;
#X obj 339 108 t b f;
#X msg 363 69 2;
#X obj 322 147 pack 22 0 0 \$0;
#X obj 291 -176 inlet;
#X obj 351 -176 inlet;
#X msg 319 178 \; \$4_playsquare color \$1 \$2 \$3;
#X msg 490 176 \; \$4_playcnv color \$1 \$2 \$3;
#X msg 291 69 46;
#X obj 94 -66 metro 100;
#X obj 505 25 loadbang;
#X obj 291 -138 t b b;
#X obj 351 -138 t b b;
#X obj 354 -50 delay 20;
#X obj 294 -50 delay 20;
#X msg 253 69 2;
#X msg 181 69 46;
#X msg 162 -42 0;
#X connect 0 0 3 0;
#X connect 3 0 4 0;
#X connect 5 0 6 0;
#X connect 6 0 30 0;
#X connect 6 1 29 0;
#X connect 7 0 23 0;
#X connect 8 0 23 0;
#X connect 9 0 10 0;
#X connect 10 0 7 0;
#X connect 10 1 11 0;
#X connect 11 0 8 0;
#X connect 11 1 31 0;
#X connect 14 0 21 0;
#X connect 15 0 14 0;
#X connect 15 1 14 2;
#X connect 15 1 17 0;
#X connect 16 0 15 0;
#X connect 17 0 20 0;
#X connect 18 0 25 0;
#X connect 19 0 26 0;
#X connect 22 0 15 0;
#X connect 23 0 5 0;
#X connect 24 0 16 0;
#X connect 25 0 28 0;
#X connect 25 1 8 0;
#X connect 26 0 27 0;
#X connect 26 1 8 0;
#X connect 27 0 16 0;
#X connect 28 0 22 0;
#X connect 29 0 17 0;
#X connect 30 0 17 0;
#X connect 31 0 6 0;
#X coords 0 -1 1 1 76 29 2 100 100;
#X restore 97 97 pd play;
#X obj 100 127 hsl 72 17 0 1 0 0 empty empty empty -2 -8 0 10 -99865
-4034 -1 7100 1;
#N canvas 716 201 679 427 volume 0;
#X floatatom 244 309 5 0 0 0 - - -, f 5;
#X obj 85 103 vsl 10 71 0 100 0 0 empty empty empty 0 -9 0 10 -170864
-1 -1 0 0;
#X msg 247 502 \; \$3_slider vis_size \$2 \$1;
#X obj 83 101 cnv 8 14 80 empty empty empty 20 12 0 14 -99865 -66577
0;
#X obj 84 103 cnv 5 12 76 empty empty empty 20 12 0 14 -1375 -66577
0;
#X obj 84 103 cnv 3 12 67 empty \$0_slider empty 20 12 0 14 -170864
-66577 0;
#X obj 246 339 / 100;
#X obj 246 362 * -1;
#X obj 246 390 + 1;
#X obj 357 419 * 255;
#X obj 356 465 outlet;
#X obj 182 70 inlet;
#X obj 180 133 / 200;
#X obj 244 416 * 78;
#X obj 245 448 pack 0 12 \$0;
#X connect 0 0 6 0;
#X connect 1 0 0 0;
#X connect 6 0 7 0;
#X connect 6 0 9 0;
#X connect 7 0 8 0;
#X connect 8 0 13 0;
#X connect 9 0 10 0;
#X connect 11 0 12 0;
#X connect 12 0 13 0;
#X connect 13 0 14 0;
#X connect 14 0 2 0;
#X coords 0 -1 1 1 16 82 2 82 100;
#X restore 227 204 pd volume;
#X obj 552 -91 r \$1_\$2_realtempo_toUI;
#X obj 552 11 makefilename %d;
#X obj 552 37 symbol \$1;
#X obj 553 105 pack \$0 s;
#X obj 552 72 t b s;
#X msg 553 142 \; \$1_tempocnv label \$2;
#X floatatom 487 31 5 0 0 0 - - -, f 5;
#X obj 573 -28 i 0;
#X obj 97 145 cnv 15 76 17 empty empty empty 20 12 0 14 -33289 -66577
0;
#X obj -58 168 bang;
#X obj -34 203 del 1000;
#X msg -74 210 1;
#X msg -34 227 0;
#X obj 137 147 cnv 15 35 15 empty \$0_tempocnv 109 15 6 2 10 -1 -241339
0;
#X obj 145 -20 extra/sv \$1_\$2_readloop_isplaying;
#X obj -101 254 extra/sv \$1_\$2_readloop_askforplay;
#X obj 149 23 sel 1;
#X obj 30 4 extra/sv \$1_\$2_readloop_waitforplay;
#X obj -88 64 r \$1_\$2_readloop_slider_ui;
#X connect 0 0 3 2;
#X connect 1 0 3 1;
#X connect 3 0 15 0;
#X connect 5 0 2 0;
#X connect 6 0 13 0;
#X connect 7 0 8 0;
#X connect 8 0 10 0;
#X connect 9 0 11 0;
#X connect 10 0 9 0;
#X connect 10 1 9 1;
#X connect 13 0 7 0;
#X connect 13 0 12 0;
#X connect 15 0 17 0;
#X connect 15 0 16 0;
#X connect 16 0 18 0;
#X connect 17 0 21 1;
#X connect 18 0 21 1;
#X connect 20 0 22 0;
#X connect 22 0 1 0;
#X connect 22 1 0 0;
#X connect 23 0 3 0;
#X connect 24 0 4 0;
#X coords 0 -1 1 1 78 67 2 96 96;
