#N canvas 160 92 940 708 10;
#X obj 101 99 ui_freesound \$1 1;
#X obj 481 124 extra/sv \$1_module_ask_selection;
#X msg 544 100 1;
#X obj 145 70 hradio 25 0 0 8 empty empty empty 0 -8 0 10 -262144 -1
-1 2;
#X obj 102 69 cnv 15 356 30 empty \$0_bgcnv SAMPLER8 20 12 0 18 -262144
-66577 0;
#X obj -82 186 t b f;
#X msg -82 155 30;
#X obj -83 125 sel 0 1;
#X msg -55 246 \; \$4_bgcnv color \$1 \$2 \$3;
#X obj -55 215 pack 22 2 2 \$0;
#X msg -42 155 77;
#X obj -83 70 extra/sv module_selected;
#X obj -83 96 == \$1;
#X obj 417 99 cnv 15 41 136 empty empty BANK 4 6 0 14 -133153 -262144
0;
#X obj 426 139 cnv 15 22 22 empty \$0_banknum 1 4 10 0 22 -262144 -1
0;
#N canvas 339 147 591 498 load 0;
#X obj 207 271 t b f;
#X msg 230 237 2;
#X obj 273 200 loadbang;
#X obj 103 100 hradio 13 0 0 2 empty empty empty 0 -8 0 10 -262144
-1 -1 0;
#X obj 108 126 bang;
#X msg 193 237 43;
#X obj 193 157 bang;
#X obj 234 308 pack 43 0 0 \$0;
#X obj 210 199 delay 200;
#X msg 235 341 \; \$4_loadcnv color \$1 \$2 \$3;
#X obj 100 101 cnv 12 33 12 empty \$0_loadcnv save 4 4 0 10 -66577
-262144 0;
#X obj 6 187 extra/sv \$1_looper8_saveBank;
#X msg 78 161 1;
#X connect 0 1 7 0;
#X connect 1 0 0 0;
#X connect 2 0 1 0;
#X connect 3 0 4 0;
#X connect 4 0 6 0;
#X connect 4 0 12 0;
#X connect 5 0 0 0;
#X connect 6 0 5 0;
#X connect 6 0 8 0;
#X connect 7 0 9 0;
#X connect 8 0 1 0;
#X connect 12 0 11 1;
#X coords 0 -1 1 1 34 14 2 100 100;
#X restore 420 188 pd load;
#N canvas 402 301 1038 529 save 0;
#X obj 2 205 t b f;
#X msg 25 171 2;
#X obj 68 133 loadbang;
#X obj 1 1 hradio 15 0 0 2 empty empty empty 0 -8 0 10 -262144 -1 -1
0;
#X obj 8 24 bang;
#X msg -12 171 43;
#X obj 0 121 sel 1;
#X obj 29 232 pack 43 2 1 \$0;
#X msg 29 265 \; \$4_recmodecnv color \$1 \$2 \$3;
#X obj 1 1 cnv 12 31 15 empty \$0_recmodecnv REC  6 6 0 10 -66577 -166441
0;
#X obj -26 68 extra/sv \$1_sampler8_recmode;
#X connect 0 1 7 0;
#X connect 1 0 0 0;
#X connect 2 0 1 0;
#X connect 3 0 4 0;
#X connect 4 0 10 0;
#X connect 5 0 0 0;
#X connect 6 0 5 0;
#X connect 6 1 1 0;
#X connect 7 0 8 0;
#X connect 10 0 6 0;
#X coords 0 -1 1 1 33 17 2 0 0;
#X restore 421 210 pd save;
#N canvas 585 246 1038 529 plus 0;
#X text 462 314 label-color;
#X text 477 339 label-color;
#X obj 377 311 t b f;
#X msg 400 277 2;
#X obj 551 220 loadbang;
#X obj 2 1 hradio 19 1 0 1 empty empty empty 0 -8 0 10 -262144 -1 -1
0;
#X obj 104 166 bang;
#X msg 363 277 43;
#X obj 1 1 cnv 15 20 20 empty \$0_pluscnv + 6 8 0 18 -66577 -262144
0;
#X obj 363 197 bang;
#X obj 535 388 pack 43 0 0 \$0;
#X obj 380 239 delay 200;
#X msg 536 421 \; \$4_pluscnv color \$1 \$2 \$3;
#X obj 102 208 s \$0_plusone;
#X connect 2 1 10 0;
#X connect 3 0 2 0;
#X connect 4 0 3 0;
#X connect 5 0 6 0;
#X connect 6 0 9 0;
#X connect 6 0 13 0;
#X connect 7 0 2 0;
#X connect 9 0 7 0;
#X connect 9 0 11 0;
#X connect 10 0 12 0;
#X connect 11 0 3 0;
#X coords 0 -1 1 1 22 22 2 0 0;
#X restore 426 115 pd plus;
#N canvas 585 246 1038 529 minus 0;
#X text 462 314 label-color;
#X text 477 339 label-color;
#X obj 377 311 t b f;
#X msg 400 277 2;
#X obj 551 220 loadbang;
#X obj 1 1 hradio 19 1 0 1 empty empty empty 0 -8 0 10 -262144 -1 -1
0;
#X obj 104 166 bang;
#X msg 363 277 43;
#X obj 1 1 cnv 15 20 20 empty \$0_minuscnv - 6 8 0 18 -66577 -262144
0;
#X obj 363 197 bang;
#X obj 535 388 pack 43 0 0 \$0;
#X obj 380 239 delay 200;
#X obj 102 208 s \$0_minusone;
#X msg 536 421 \; \$4_minuscnv color \$1 \$2 \$3;
#X connect 2 1 10 0;
#X connect 3 0 2 0;
#X connect 4 0 3 0;
#X connect 5 0 6 0;
#X connect 6 0 9 0;
#X connect 6 0 12 0;
#X connect 7 0 2 0;
#X connect 9 0 7 0;
#X connect 9 0 11 0;
#X connect 10 0 13 0;
#X connect 11 0 3 0;
#X coords 0 -1 1 1 22 22 2 0 0;
#X restore 426 162 pd minus;
#X obj 691 275 i 0;
#X obj 666 347 makefilename %d;
#X obj 666 373 symbol \$1;
#X obj 667 441 pack \$0 s;
#X obj 666 408 t b s;
#X obj 543 226 i 0;
#X obj 485 225 i 0;
#X obj 543 255 + 1;
#X obj 484 255 - 1;
#X obj 485 153 r \$0_minusone;
#X obj 543 178 r \$0_plusone;
#X floatatom 620 352 5 0 0 0 - - -, f 5;
#X obj 509 199 extra/sv \$1_sampler8_bank;
#X obj 666 313 extra/sv \$1_sampler8_bank;
#X msg 667 478 \; \$1_banknum label \$2;
#X obj 180 99 ui_freesound \$1 2;
#X obj 259 99 ui_freesound \$1 3;
#X obj 338 99 ui_freesound \$1 4;
#X obj 101 167 UI/ui_freesound \$1 5;
#X obj 180 167 UI/ui_freesound \$1 6;
#X obj 259 167 UI/ui_freesound \$1 7;
#X obj 338 167 UI/ui_freesound \$1 8;
#X connect 2 0 1 1;
#X connect 3 0 2 0;
#X connect 5 1 9 0;
#X connect 6 0 5 0;
#X connect 7 0 6 0;
#X connect 7 1 10 0;
#X connect 9 0 8 0;
#X connect 10 0 5 0;
#X connect 11 0 12 0;
#X connect 12 0 7 0;
#X connect 19 0 32 1;
#X connect 20 0 21 0;
#X connect 21 0 23 0;
#X connect 22 0 33 0;
#X connect 23 0 22 0;
#X connect 23 1 22 1;
#X connect 24 0 26 0;
#X connect 25 0 27 0;
#X connect 26 0 19 0;
#X connect 27 0 19 0;
#X connect 28 0 25 0;
#X connect 29 0 24 0;
#X connect 31 0 25 1;
#X connect 31 0 24 1;
#X connect 32 0 20 0;
#X connect 32 0 30 0;
#X coords 0 -1 1 1 359 168 2 100 67;
