#N canvas 214 340 1156 387 10;
#N canvas 510 23 660 415 play 0;
#X obj 90 8 hradio 37 1 0 2 empty empty empty 0 -8 0 10 -262144 -1
-1 0;
#X text 443 7 label-color;
#X text 458 32 label-color;
#X obj 507 84 pack 22 0 0 \$0;
#X obj 358 4 t b f;
#X msg 381 -30 2;
#X obj 340 88 pack 22 0 0 \$0;
#X obj 354 -122 inlet;
#X obj 89 8 cnv 15 80 38 empty \$0_playcnv PLAY 35 17 0 15 -1 -24198
0;
#X obj 91 18 cnv 15 25 18 empty \$0_playsquare empty 20 12 0 14 -24198
-262144 0;
#X obj 118 231 outlet;
#X msg 337 119 \; \$4_playsquare color \$1 \$2 \$3;
#X msg 508 117 \; \$4_playcnv color \$1 \$2 \$3;
#X msg 419 -31 16;
#X obj 119 165 bang;
#X obj 122 201 tgl 15 0 empty empty empty 17 7 0 10 -262144 -1 -1 0
1;
#X obj 416 -122 inlet;
#X connect 0 0 14 0;
#X connect 3 0 12 0;
#X connect 4 0 3 0;
#X connect 4 1 3 2;
#X connect 4 1 6 0;
#X connect 5 0 4 0;
#X connect 6 0 11 0;
#X connect 7 0 5 0;
#X connect 13 0 4 0;
#X connect 14 0 15 0;
#X connect 15 0 10 0;
#X connect 16 0 13 0;
#X coords 0 -1 1 1 82 40 2 88 7;
#X restore 368 101 pd play;
#N canvas 327 23 1025 451 play 0;
#X obj 101 101 hradio 37 1 0 2 empty empty empty 0 -8 0 10 -262144
-1 -1 0;
#X text 443 7 label-color;
#X text 458 32 label-color;
#X obj 507 84 pack 22 0 0 \$0;
#X obj 358 4 t b f;
#X msg 381 -30 2;
#X obj 340 88 pack 22 0 0 \$0;
#X obj 354 -122 inlet;
#X obj 101 101 cnv 15 80 38 empty \$0_stopcnv STOP 35 19 0 15 -1 -66577
0;
#X obj 105 113 cnv 15 25 18 empty \$0_stopsquare empty 20 12 0 14 -66577
-262144 0;
#X obj 118 231 outlet;
#X obj 119 165 bang;
#X obj 122 201 tgl 15 0 empty empty empty 17 7 0 10 -262144 -1 -1 0
1;
#X msg 337 119 \; \$4_stopsquare color \$1 \$2 \$3;
#X msg 508 117 \; \$4_stopcnv color \$1 \$2 \$3;
#X msg 419 -31 13;
#X obj 423 -121 inlet;
#X connect 0 0 11 0;
#X connect 3 0 14 0;
#X connect 4 0 3 0;
#X connect 4 1 3 2;
#X connect 4 1 6 0;
#X connect 5 0 4 0;
#X connect 6 0 13 0;
#X connect 7 0 5 0;
#X connect 11 0 12 0;
#X connect 12 0 10 0;
#X connect 15 0 4 0;
#X connect 16 0 15 0;
#X coords 0 -1 1 1 82 40 2 100 100;
#X restore 451 101 pd play;
#X obj 378 191 s tempoGoIn;
#X obj 458 195 s tempoStopIn;
#X obj 453 23 r tempoGoOutBang;
#X obj 360 23 r tempoStopOut;
#X obj 142 101 bng 40 250 50 0 empty empty empty 17 7 0 10 -128992
-228856 -1;
#X obj 142 70 r tempo_click_bang;
#X obj 101 101 bng 40 250 50 0 empty empty empty 4 18 0 14 -141278
-262144 -262144;
#X obj 101 6 r tempo_quantif_bang;
#N canvas 586 175 854 398 bank 0;
#X obj 182 235 loadbang;
#X obj 157 271 i 0;
#X obj 132 343 makefilename %d;
#X obj 132 369 symbol \$1;
#X obj 133 437 pack \$0 s;
#X obj 132 404 t b s;
#X msg 133 474 \; \$1_cnv label \$2;
#X obj 101 101 cnv 15 210 38 empty empty SONG 88 17 0 20 -33289 -262144
0;
#X obj 127 107 cnv 15 30 22 empty \$0_cnv 1 4 10 0 22 -262144 -1 0
;
#N canvas 275 123 591 498 load 0;
#X obj 207 271 t b f;
#X msg 230 237 2;
#X obj 273 200 loadbang;
#X obj 108 101 hradio 15 1 0 3 empty empty empty 0 -8 0 10 -262144
-1 -1 1;
#X obj 108 126 bang;
#X msg 193 237 43;
#X obj 101 101 cnv 15 58 15 empty \$0_loadcnv load 16 8 0 10 -66577
-262144 0;
#X obj 193 157 bang;
#X obj 234 308 pack 43 0 0 \$0;
#X obj 210 199 delay 200;
#X msg 235 341 \; \$4_loadcnv color \$1 \$2 \$3;
#X obj 108 168 s loadsong;
#X connect 0 1 8 0;
#X connect 1 0 0 0;
#X connect 2 0 1 0;
#X connect 3 0 4 0;
#X connect 4 0 7 0;
#X connect 4 0 11 0;
#X connect 5 0 0 0;
#X connect 7 0 5 0;
#X connect 7 0 9 0;
#X connect 8 0 10 0;
#X connect 9 0 1 0;
#X coords 0 -1 1 1 60 17 2 100 100;
#X restore 246 103 pd load;
#N canvas 414 252 1038 529 save 0;
#X obj 151 169 t b f;
#X msg 174 135 2;
#X obj 217 97 loadbang;
#X obj 8 1 hradio 15 1 0 3 empty empty empty 0 -8 0 10 -262144 -1 -1
0;
#X obj 8 24 bang;
#X msg 137 135 43;
#X obj 1 1 cnv 15 58 15 empty \$0_savecnv save 16 8 0 10 -66577 -258699
0;
#X obj 137 55 bang;
#X obj 154 97 delay 200;
#X msg 178 229 \; \$4_savecnv color \$1 \$2 \$3;
#X obj 178 196 pack 43 43 43 \$0;
#X obj 8 58 s save_song;
#X connect 0 1 10 0;
#X connect 1 0 0 0;
#X connect 2 0 1 0;
#X connect 3 0 4 0;
#X connect 4 0 7 0;
#X connect 4 0 11 0;
#X connect 5 0 0 0;
#X connect 7 0 5 0;
#X connect 7 0 8 0;
#X connect 8 0 1 0;
#X connect 10 0 9 0;
#X coords 0 -1 1 1 60 17 2 0 0;
#X restore 246 120 pd save;
#N canvas 585 246 1038 529 plus 0;
#X text 462 314 label-color;
#X text 477 339 label-color;
#X obj 377 311 t b f;
#X msg 400 277 2;
#X obj 551 220 loadbang;
#X obj 2 1 hradio 19 1 0 1 empty empty empty 0 -8 0 10 -262144 -1 -1
0;
#X obj 104 166 bang;
#X msg 363 277 43;
#X obj 1 1 cnv 15 20 20 empty \$0_pluscnv + 6 8 0 18 -66577 -262144
0;
#X obj 363 197 bang;
#X obj 535 388 pack 43 0 0 \$0;
#X obj 380 239 delay 200;
#X msg 536 421 \; \$4_pluscnv color \$1 \$2 \$3;
#X obj 102 208 s \$0_plusone;
#X connect 2 1 10 0;
#X connect 3 0 2 0;
#X connect 4 0 3 0;
#X connect 5 0 6 0;
#X connect 6 0 9 0;
#X connect 6 0 13 0;
#X connect 7 0 2 0;
#X connect 9 0 7 0;
#X connect 9 0 11 0;
#X connect 10 0 12 0;
#X connect 11 0 3 0;
#X coords 0 -1 1 1 22 22 2 0 0;
#X restore 158 108 pd plus;
#N canvas 585 246 1038 529 minus 0;
#X text 462 314 label-color;
#X text 477 339 label-color;
#X obj 377 311 t b f;
#X msg 400 277 2;
#X obj 551 220 loadbang;
#X obj 1 1 hradio 19 1 0 1 empty empty empty 0 -8 0 10 -262144 -1 -1
0;
#X obj 104 166 bang;
#X msg 363 277 43;
#X obj 1 1 cnv 15 20 20 empty \$0_minuscnv - 6 8 0 18 -66577 -262144
0;
#X obj 363 197 bang;
#X obj 535 388 pack 43 0 0 \$0;
#X obj 380 239 delay 200;
#X obj 102 208 s \$0_minusone;
#X msg 536 421 \; \$4_minuscnv color \$1 \$2 \$3;
#X connect 2 1 10 0;
#X connect 3 0 2 0;
#X connect 4 0 3 0;
#X connect 5 0 6 0;
#X connect 6 0 9 0;
#X connect 6 0 12 0;
#X connect 7 0 2 0;
#X connect 9 0 7 0;
#X connect 9 0 11 0;
#X connect 10 0 13 0;
#X connect 11 0 3 0;
#X coords 0 -1 1 1 22 22 2 0 0;
#X restore 104 107 pd minus;
#X obj 9 222 i 0;
#X obj -49 221 i 0;
#X obj 9 251 + 1;
#X obj -50 251 - 1;
#X obj -49 149 r \$0_minusone;
#X obj 9 174 r \$0_plusone;
#X obj -25 195 extra/sv song;
#X obj 132 309 extra/sv song;
#X connect 0 0 20 2;
#X connect 1 0 20 1;
#X connect 2 0 3 0;
#X connect 3 0 5 0;
#X connect 4 0 6 0;
#X connect 5 0 4 0;
#X connect 5 1 4 1;
#X connect 13 0 15 0;
#X connect 14 0 16 0;
#X connect 15 0 1 0;
#X connect 16 0 1 0;
#X connect 17 0 14 0;
#X connect 18 0 13 0;
#X connect 19 0 14 1;
#X connect 19 0 13 1;
#X connect 20 0 2 0;
#X connect 20 1 2 0;
#X coords 0 -1 1 1 212 40 2 100 100;
#X restore 677 101 pd bank;
#N canvas 247 345 854 398 bank 1;
#X obj 109 173 i 0;
#X obj 109 241 makefilename %d;
#X obj 109 267 symbol \$1;
#X obj 110 335 pack \$0 s;
#X obj 109 302 t b s;
#X msg 154 58 set \$1;
#X msg 110 372 \; \$1_tempocnv label \$2;
#X obj -2 239 s tempo_fromUI;
#X obj 106 108 nbx 5 23 80 160 0 0 empty empty empty 0 -8 0 10 -262144
-1 -1 144 256;
#X obj 101 101 cnv 15 140 38 empty empty TEMPO 70 17 0 20 -33289 -262144
0;
#X obj 109 109 cnv 15 52 22 empty \$0_tempocnv 144 4 10 0 22 -262144
-1 0;
#X obj 42 17 loadbang;
#X msg 37 48 100;
#X obj 381 43 extra/sv tempo;
#X msg 150 148 110;
#X connect 0 0 1 0;
#X connect 0 0 7 0;
#X connect 1 0 2 0;
#X connect 2 0 4 0;
#X connect 3 0 6 0;
#X connect 4 0 3 0;
#X connect 4 1 3 1;
#X connect 8 0 0 0;
#X connect 11 0 12 0;
#X connect 12 0 8 0;
#X connect 13 0 5 0;
#X connect 13 0 1 0;
#X connect 14 0 0 0;
#X coords 0 -1 1 1 142 40 2 100 100;
#X restore 224 101 pd bank;
#X obj 183 101 tgl 40 0 empty empty empty 17 7 0 10 -128992 -1 -1 0
1;
#X obj 182 165 s metronome;
#N canvas 551 167 834 469 transpose 0;
#X obj 109 173 i 0;
#X obj 109 241 makefilename %d;
#X obj 109 267 symbol \$1;
#X obj 110 335 pack \$0 s;
#X obj 109 302 t b s;
#X msg 107 50 set \$1;
#X obj 104 107 nbx 5 23 -80 80 0 0 empty empty empty 0 -8 0 10 -262144
-1 -1 -24 256;
#X obj 101 101 cnv 15 140 38 empty empty PITCH 70 17 0 20 -33289 -262144
0;
#X obj 112 107 cnv 15 52 22 empty \$0_pitchcnv -24 4 10 0 22 -262144
-1 0;
#X obj 42 17 loadbang;
#X msg 150 148 110;
#X msg 110 372 \; \$1_pitchcnv label \$2;
#X obj -50 239 extra/sv global_transpose;
#X obj 345 45 extra/sv global_transpose;
#X msg 37 48 0;
#X connect 0 0 1 0;
#X connect 0 0 12 1;
#X connect 1 0 2 0;
#X connect 2 0 4 0;
#X connect 3 0 11 0;
#X connect 4 0 3 0;
#X connect 4 1 3 1;
#X connect 5 0 6 0;
#X connect 6 0 0 0;
#X connect 9 0 14 0;
#X connect 10 0 0 0;
#X connect 13 0 5 0;
#X connect 13 0 1 0;
#X connect 14 0 6 0;
#X coords 0 -1 1 1 142 40 1 100 100;
#X restore 534 101 pd transpose;
#X connect 0 0 2 0;
#X connect 1 0 3 0;
#X connect 4 0 0 1;
#X connect 4 0 1 0;
#X connect 5 0 1 1;
#X connect 5 0 0 0;
#X connect 7 0 6 0;
#X connect 9 0 8 0;
#X connect 12 0 13 0;
#X coords 0 -1 1 1 790 42 1 100 100;
