#N canvas 862 132 775 368 10;
#X declare -path ../../patches;
#X obj 5 87 cnv 15 680 230 empty empty empty 20 12 0 14 -233017 -66577
0;
#X obj 7 263 UI/ui_tempo_small;
#X obj 5 3 cnv 15 680 81 empty empty LUCIBOX 20 36 0 45 -21525 -88297
0;
#N canvas 189 329 1067 555 patch 1;
#X obj 101 101 cnv 15 138 40 empty empty PATCH 20 12 0 14 -66577 -262144
0;
#X obj 538 78 audio/mic;
#X obj 538 51 adc~;
#X obj 535 449 dac~;
#X obj 38 100 bng 35 250 50 0 empty empty CLOSE 4 20 0 10 -262144 -1
-1;
#X msg 38 164 \; pd-patch vis 0;
#X obj 320 918 arduino/arduino_out;
#N canvas 447 412 1038 529 open 0;
#X text 462 314 label-color;
#X text 477 339 label-color;
#X obj 377 311 t b f;
#X msg 400 277 2;
#X obj 466 220 loadbang;
#X obj 104 101 hradio 15 1 0 2 empty empty empty 0 -8 0 10 -262144
-1 -1 1;
#X obj 104 166 bang;
#X msg 363 277 43;
#X obj 101 101 cnv 15 38 15 empty \$0_opencnv open 6 8 0 10 -66577
-262144 0;
#X msg 405 398 \; \$4_opencnv color \$1 \$2 \$3;
#X obj 363 197 bang;
#X obj 404 365 pack 43 0 0 \$0;
#X obj 400 220 delay 200;
#X msg 101 247 \; pd-patch vis 1;
#X msg 614 289 \; pd-patch vis 0;
#X connect 2 1 11 0;
#X connect 3 0 2 0;
#X connect 4 0 3 0;
#X connect 4 0 14 0;
#X connect 5 0 6 0;
#X connect 6 0 10 0;
#X connect 6 0 13 0;
#X connect 7 0 2 0;
#X connect 10 0 7 0;
#X connect 10 0 12 0;
#X connect 11 0 9 0;
#X connect 12 0 3 0;
#X coords 0 -1 1 1 40 17 2 100 100;
#X restore 177 107 pd open;
#X obj 20 336 extra/selectionManager;
#X obj 304 348 s ledrec1;
#X obj 367 349 s ledplay1;
#X obj 470 349 s ledrec2;
#X obj 535 350 s ledplay2;
#X text 22 368 Manage Reset when;
#X text 27 433 no module selected and long press;
#X obj 535 415 *~ 1;
#X obj 852 349 s ledplay4;
#X obj 786 350 s ledrec4;
#X obj 694 350 s ledplay3;
#X obj 618 350 s ledrec3;
#N canvas 426 224 784 449 autostop_from_loop 0;
#X obj 155 39 extra/sv 1_1_is_loop_playing;
#X obj 188 62 extra/sv 2_1_is_loop_playing;
#X obj 215 85 extra/sv 3_1_is_loop_playing;
#X obj 232 107 extra/sv 4_1_is_loop_playing;
#X obj 162 195 extra/sv 1_1_is_loop_playing;
#X obj 142 220 extra/sv 2_1_is_loop_playing;
#X obj 122 241 extra/sv 3_1_is_loop_playing;
#X obj 102 264 extra/sv 4_1_is_loop_playing;
#X obj 217 151 bng 15 250 50 0 empty empty empty 17 7 0 10 -262144
-1 -1;
#X obj 230 171 t b b b b;
#X obj 337 241 +;
#X obj 319 266 +;
#X obj 301 289 +;
#X floatatom 301 309 5 0 0 0 - - -;
#X obj 300 326 sel 0;
#X obj 300 352 s tempoStopIn;
#X obj 280 353 bng 15 250 50 0 empty empty empty 17 7 0 10 -262144
-1 -1;
#X text 454 40 This patch stop the global player \, if all looper are
stop;
#X connect 0 0 8 0;
#X connect 1 0 8 0;
#X connect 2 0 8 0;
#X connect 3 0 8 0;
#X connect 4 1 10 1;
#X connect 5 1 10 0;
#X connect 6 1 11 0;
#X connect 7 1 12 0;
#X connect 8 0 9 0;
#X connect 9 0 7 2;
#X connect 9 1 6 2;
#X connect 9 2 5 2;
#X connect 9 3 4 2;
#X connect 10 0 11 1;
#X connect 11 0 12 1;
#X connect 12 0 13 0;
#X connect 13 0 14 0;
#X connect 14 0 15 0;
#X connect 14 0 16 0;
#X restore 22 383 pd autostop_from_loop;
#X obj 35 283 declare -path ../../patches;
#X obj 368 651 r ledrec1;
#X obj 416 671 r ledplay1;
#X obj 440 651 r ledrec2;
#X obj 487 671 r ledplay2;
#X obj 512 651 r ledrec3;
#X obj 561 672 r ledplay3;
#X obj 584 651 r ledrec4;
#X obj 633 671 r ledplay4;
#X obj 247 319 *~ 1;
#X obj 207 716 bang;
#N canvas 385 118 753 535 song_led 0;
#X obj 234 116 inlet;
#X obj 129 203 extra/sv song_mode;
#X obj 234 157 delay 300;
#X obj 234 228 tgl 15 0 empty empty empty 17 7 0 10 -262144 -1 -1 0
1;
#X obj 234 251 sel 1;
#X obj 129 231 tgl 15 0 empty empty empty 17 7 0 10 -262144 -1 -1 0
1;
#X obj 79 267 spigot;
#X obj 23 203 extra/sv song;
#X obj 79 287 - 1;
#X obj 248 494 outlet;
#X obj 434 391 r load_song;
#X obj 386 156 r save_song;
#X obj 407 201 delay 2000;
#X obj 365 271 metro 200;
#X msg 406 226 stop;
#X obj 363 299 tgl 15 0 empty empty empty 17 7 0 10 -262144 -1 -1 0
1;
#X obj 346 224 bng 15 250 50 0 empty empty empty 17 7 0 10 -262144
-1 -1;
#X obj 206 435 i 0;
#X obj 81 335 t b f;
#X floatatom 108 495 5 0 0 0 - - -;
#X obj 281 379 sel 1 0;
#X msg 279 432 -1;
#X obj 406 248 t b a;
#X msg 406 301 1;
#X msg 234 277 0;
#X obj 434 428 delay 1000;
#X obj 381 482 extra/sv song_mode;
#X msg 417 459 0;
#X connect 0 0 2 0;
#X connect 1 0 5 0;
#X connect 1 1 3 0;
#X connect 2 0 1 2;
#X connect 3 0 4 0;
#X connect 4 0 24 0;
#X connect 5 0 6 1;
#X connect 6 0 8 0;
#X connect 7 0 6 0;
#X connect 8 0 18 0;
#X connect 10 0 25 0;
#X connect 11 0 12 0;
#X connect 11 0 13 0;
#X connect 12 0 14 0;
#X connect 13 0 15 0;
#X connect 14 0 22 0;
#X connect 15 0 20 0;
#X connect 16 0 13 0;
#X connect 17 0 19 0;
#X connect 17 0 9 0;
#X connect 18 0 17 0;
#X connect 18 1 17 1;
#X connect 20 0 17 0;
#X connect 20 1 21 0;
#X connect 21 0 9 0;
#X connect 22 0 23 0;
#X connect 22 1 13 0;
#X connect 23 0 20 0;
#X connect 23 0 27 0;
#X connect 24 0 1 1;
#X connect 25 0 27 0;
#X connect 27 0 26 1;
#X restore 212 769 pd song_led;
#N canvas 480 100 725 541 global_play_delete 0;
#N canvas 293 165 623 468 longORshort 0;
#X obj 153 75 inlet;
#X obj 152 180 timer;
#X obj 153 119 sel 0;
#X obj 187 149 bang;
#X obj 151 224 > 500;
#X obj 151 298 bng 15 250 50 0 empty empty empty 17 7 0 10 -262144
-1 -1;
#X obj 151 419 outlet;
#X obj 223 417 outlet;
#X obj 380 102 sel 0;
#X obj 398 239 i 0;
#X obj 398 270 sel 0;
#X obj 431 312 bng 15 250 50 0 empty empty empty 17 7 0 10 -262144
-1 -1;
#X obj 182 296 bng 15 250 50 0 empty empty empty 17 7 0 10 -262144
-1 -1;
#X obj 398 310 bng 15 250 50 0 empty empty empty 17 7 0 10 -262144
-1 -1;
#X obj 151 256 sel 0 1;
#X obj 451 234 bng 15 250 50 0 empty empty empty 17 7 0 10 -262144
-1 -1;
#X obj 458 160 bng 15 250 50 0 empty empty empty 17 7 0 10 -262144
-1 -1;
#X obj 444 196 delay 1000;
#X connect 0 0 2 0;
#X connect 0 0 8 0;
#X connect 0 0 9 1;
#X connect 1 0 4 0;
#X connect 2 0 1 1;
#X connect 2 1 3 0;
#X connect 3 0 1 0;
#X connect 4 0 14 0;
#X connect 5 0 6 0;
#X connect 8 1 16 0;
#X connect 9 0 10 0;
#X connect 10 0 13 0;
#X connect 10 1 11 0;
#X connect 11 0 7 0;
#X connect 14 0 5 0;
#X connect 14 1 12 0;
#X connect 16 0 17 0;
#X connect 17 0 9 0;
#X connect 17 0 15 0;
#X restore 143 115 pd longORshort;
#X obj 176 35 extra/sv module_selected;
#X obj 143 85 spigot;
#X obj 143 15 extra/sv global_play;
#X obj 176 58 == 0;
#X obj 249 214 extra/sv tempo_isplaying;
#X msg 262 153 0;
#X obj 173 168 bang;
#X obj 173 214 s bigReset;
#X obj 217 137 t b b;
#X obj 280 132 bng 15 250 50 0 empty empty empty 17 7 0 10 -262144
-1 -1;
#X obj 196 433 extra/sv tempo_isplaying;
#X obj 460 169 s 1_1_loop_clear;
#X obj 460 190 s 2_1_loop_clear;
#X obj 460 210 s 3_1_loop_clear;
#X obj 460 230 s 4_1_loop_clear;
#X obj 25 240 extra/sv 1_1_is_loop_playing;
#X obj 5 265 extra/sv 2_1_is_loop_playing;
#X obj -15 286 extra/sv 3_1_is_loop_playing;
#X obj -35 309 extra/sv 4_1_is_loop_playing;
#X obj 80 196 bng 15 250 50 0 empty empty empty 17 7 0 10 -262144 -1
-1;
#X obj 93 216 t b b b b;
#X obj 200 286 +;
#X obj 182 311 +;
#X obj 164 334 +;
#X floatatom 164 354 5 0 0 0 - - -;
#X obj 164 376 sel 0;
#X text 397 122 Long press : delete everything;
#X text 397 138 and stop playing;
#X text -24 136 short press : global stop or play;
#X text -24 155 if there is one loop or more playing;
#X text -25 172 else : do nothing;
#X connect 0 0 20 0;
#X connect 0 1 9 0;
#X connect 0 1 10 0;
#X connect 1 0 4 0;
#X connect 2 0 0 0;
#X connect 3 0 2 0;
#X connect 4 0 2 1;
#X connect 6 0 5 1;
#X connect 6 0 12 0;
#X connect 6 0 13 0;
#X connect 6 0 14 0;
#X connect 6 0 15 0;
#X connect 7 0 8 0;
#X connect 9 0 7 0;
#X connect 9 1 6 0;
#X connect 16 1 22 1;
#X connect 17 1 22 0;
#X connect 18 1 23 0;
#X connect 19 1 24 0;
#X connect 20 0 21 0;
#X connect 21 0 19 2;
#X connect 21 1 18 2;
#X connect 21 2 17 2;
#X connect 21 3 16 2;
#X connect 22 0 23 1;
#X connect 23 0 24 1;
#X connect 24 0 25 0;
#X connect 25 0 26 0;
#X connect 26 1 11 0;
#X restore 26 456 pd global_play_delete;
#X obj 160 722 bng 15 250 50 0 empty empty empty 17 7 0 10 -262144
-1 -1;
#X obj 486 871 i 0;
#X obj 461 871 i 0;
#X obj 634 871 i 0;
#X obj 608 871 i 0;
#X obj 583 871 i 0;
#X obj 557 871 i 0;
#X obj 534 871 i 0;
#X obj 510 871 i 0;
#X obj 486 871 i 0;
#X obj 437 871 i 0;
#X obj 415 871 i 0;
#X obj 391 871 i 0;
#X obj 367 871 i 0;
#X obj 744 833 extra/sv song_mode;
#X obj 744 856 sel 0;
#X text 796 861 Reload led after quitting song_mode;
#X obj 21 309 audio/tempo_link machines 2;
#X obj 368 838 * 2;
#X obj 437 838 * 2;
#X obj 512 838 * 2;
#X obj 584 838 * 2;
#X obj 351 461 extra/sv module_selected;
#X obj 780 152 extra/sv song;
#X obj 780 47 loadbang;
#X obj 780 76 delay 2000;
#X msg 803 127 1;
#X obj 710 154 s loadsong;
#X obj 780 97 t b b b;
#X obj 642 134 s tempStopIn;
#X obj 745 130 delay 500;
#X obj 386 500 == 1;
#X obj 458 497 == 2;
#X obj 535 497 == 3;
#X obj 605 497 == 4;
#X obj 771 652 extra/sv 1_1_looper_inverse;
#X obj 771 671 sel 0 1;
#X msg 771 694 7;
#X msg 802 694 5;
#X obj 834 692 sel 0 1;
#X msg 834 715 7;
#X msg 865 715 5;
#X obj 894 712 sel 0 1;
#X msg 894 735 7;
#X msg 925 735 5;
#X obj 954 732 sel 0 1;
#X msg 954 755 7;
#X msg 985 755 5;
#X obj 834 673 extra/sv 2_1_looper_inverse;
#X obj 894 693 extra/sv 3_1_looper_inverse;
#X obj 954 713 extra/sv 4_1_looper_inverse;
#X obj 277 318 audio/loop 1 1 2 0 2 1 0;
#X obj 439 317 audio/loop 2 1 2 0 2 1 0;
#X obj 606 318 audio/loop 3 1 2 0 2 1 0;
#X obj 763 318 audio/loop 4 1 2 0 2 1 0;
#X connect 1 1 30 0;
#X connect 1 1 85 0;
#X connect 1 1 86 0;
#X connect 1 1 87 0;
#X connect 1 1 88 0;
#X connect 2 0 1 0;
#X connect 2 1 1 0;
#X connect 4 0 5 0;
#X connect 15 0 3 1;
#X connect 15 0 3 0;
#X connect 22 0 31 0;
#X connect 22 0 52 0;
#X connect 23 0 31 0;
#X connect 23 0 45 0;
#X connect 24 0 31 0;
#X connect 24 0 53 0;
#X connect 25 0 31 0;
#X connect 25 0 35 0;
#X connect 26 0 31 0;
#X connect 26 0 54 0;
#X connect 27 0 31 0;
#X connect 27 0 40 0;
#X connect 28 0 31 0;
#X connect 28 0 55 0;
#X connect 29 0 31 0;
#X connect 29 0 37 0;
#X connect 30 0 15 0;
#X connect 31 0 32 0;
#X connect 32 0 6 0;
#X connect 34 0 32 0;
#X connect 35 0 6 7;
#X connect 36 0 6 6;
#X connect 37 0 6 13;
#X connect 38 0 6 12;
#X connect 39 0 6 11;
#X connect 40 0 6 10;
#X connect 41 0 6 9;
#X connect 42 0 6 8;
#X connect 44 0 6 5;
#X connect 45 0 6 4;
#X connect 46 0 6 3;
#X connect 47 0 6 2;
#X connect 48 0 49 0;
#X connect 49 0 37 0;
#X connect 49 0 38 0;
#X connect 49 0 39 0;
#X connect 49 0 40 0;
#X connect 49 0 41 0;
#X connect 49 0 42 0;
#X connect 49 0 35 0;
#X connect 49 0 36 0;
#X connect 49 0 44 0;
#X connect 49 0 45 0;
#X connect 49 0 46 0;
#X connect 49 0 47 0;
#X connect 52 0 47 0;
#X connect 53 0 44 0;
#X connect 54 0 42 0;
#X connect 55 0 39 0;
#X connect 56 0 65 0;
#X connect 56 0 66 0;
#X connect 56 0 67 0;
#X connect 56 0 68 0;
#X connect 58 0 59 0;
#X connect 59 0 62 0;
#X connect 60 0 57 1;
#X connect 62 0 63 0;
#X connect 62 1 64 0;
#X connect 62 2 60 0;
#X connect 64 0 61 0;
#X connect 65 0 46 0;
#X connect 66 0 36 0;
#X connect 67 0 41 0;
#X connect 68 0 38 0;
#X connect 69 0 70 0;
#X connect 70 0 71 0;
#X connect 70 1 72 0;
#X connect 71 0 45 0;
#X connect 72 0 45 0;
#X connect 73 0 74 0;
#X connect 73 1 75 0;
#X connect 74 0 35 0;
#X connect 75 0 35 0;
#X connect 76 0 77 0;
#X connect 76 1 78 0;
#X connect 77 0 40 0;
#X connect 78 0 40 0;
#X connect 79 0 80 0;
#X connect 79 1 81 0;
#X connect 80 0 37 0;
#X connect 81 0 37 0;
#X connect 82 0 73 0;
#X connect 83 0 76 0;
#X connect 84 0 79 0;
#X connect 85 0 15 0;
#X connect 85 3 9 0;
#X connect 85 4 10 0;
#X connect 86 0 15 0;
#X connect 86 3 11 0;
#X connect 86 4 12 0;
#X connect 87 0 15 0;
#X connect 87 3 19 0;
#X connect 87 4 18 0;
#X connect 88 0 15 0;
#X connect 88 3 17 0;
#X connect 88 4 16 0;
#X coords 0 -1 1 1 140 42 2 100 100;
#X restore 221 20 pd patch;
#N canvas 74 78 641 356 connect 0;
#X obj 625 97 connect/connect_global_recplay;
#X obj 40 6 cnv 15 996 83 empty empty CONNECT 330 30 0 45 -21525 -88297
0;
#X obj 648 509 s effect_rev_drywet;
#X obj 44 26 cnv 15 138 40 empty empty CONNECT 20 12 0 14 -66577 -262144
0;
#N canvas 402 288 1038 552 open 0;
#X obj 103 102 hradio 15 0 0 3 empty empty empty 0 -8 0 10 -262144
-1 -1 1;
#X text 462 314 label-color;
#X text 477 339 label-color;
#X obj 377 311 t b f;
#X msg 400 277 2;
#X obj 466 220 loadbang;
#X obj 104 166 bang;
#X msg 363 277 43;
#X obj 363 197 bang;
#X obj 404 365 pack 43 0 0 \$0;
#X obj 400 220 delay 200;
#X msg 104 202 \; pd-connect vis 1;
#X msg 405 398 \; \$4_connectcnv color \$1 \$2 \$3;
#X obj 101 101 cnv 15 47 15 empty \$0_connectcnv open 14 6 0 10 -66577
-262144 0;
#X obj 594 296 bang;
#X msg 594 332 \; pd-connect vis 0;
#X connect 0 0 6 0;
#X connect 3 1 9 0;
#X connect 4 0 3 0;
#X connect 5 0 4 0;
#X connect 5 0 14 0;
#X connect 6 0 8 0;
#X connect 6 0 11 0;
#X connect 7 0 3 0;
#X connect 8 0 7 0;
#X connect 8 0 10 0;
#X connect 9 0 12 0;
#X connect 10 0 4 0;
#X connect 14 0 15 0;
#X coords 0 -1 1 1 49 17 2 100 100;
#X restore 127 47 pd open;
#X obj 585 14 arduino/arduino;
#X obj 37 98 connect/connect_recloopsave 1 1;
#X obj 182 98 connect/connect_recloopsave 2 1;
#X obj 37 303 connect/connect_mic;
#X obj 330 98 connect/connect_recloopsave 3 1;
#X obj 475 98 connect/connect_recloopsave 4 1;
#X obj 783 11 hardware/midi;
#X obj 647 488 extra/midiLearn effect_rev_drywet;
#X obj 913 98 connect/connect_song;
#X obj 625 263 connect/connect_global_breakbeat;
#X connect 12 0 2 0;
#X coords 0 -1 1 1 140 42 1 43 25;
#X restore 364 20 pd connect;
#N canvas 2 149 1175 592 volumes 0;
#X obj 24 -13 cnv 15 996 83 empty empty VOLUMES 330 30 0 45 -21525
-88297 0;
#X obj 188 80 volumes/volume_recloopsave 1 1;
#X obj 28 80 volumes/volume_mic;
#X obj 44 26 cnv 15 138 40 empty empty VOLUMES 20 12 0 14 -66577 -262144
0;
#N canvas 285 163 1038 575 open 0;
#X obj 103 102 hradio 15 0 0 3 empty empty empty 0 -8 0 10 -262144
-1 -1 1;
#X text 462 314 label-color;
#X text 477 339 label-color;
#X obj 377 311 t b f;
#X msg 400 277 2;
#X obj 466 220 loadbang;
#X obj 104 166 bang;
#X msg 363 277 43;
#X obj 363 197 bang;
#X obj 404 365 pack 43 0 0 \$0;
#X obj 400 220 delay 200;
#X obj 101 101 cnv 15 47 15 empty \$0_volumescnv open 14 6 0 10 -66577
-262144 0;
#X msg 104 202 \; pd-volumes vis 1;
#X msg 405 398 \; \$4_volumescnv color \$1 \$2 \$3;
#X msg 552 270 \; pd-volumes vis 0;
#X connect 0 0 6 0;
#X connect 3 1 9 0;
#X connect 4 0 3 0;
#X connect 5 0 4 0;
#X connect 5 0 14 0;
#X connect 6 0 8 0;
#X connect 6 0 12 0;
#X connect 7 0 3 0;
#X connect 8 0 7 0;
#X connect 8 0 10 0;
#X connect 9 0 13 0;
#X connect 10 0 4 0;
#X coords 0 -1 1 1 49 17 2 100 100;
#X restore 127 47 pd open;
#X obj 963 80 UI/delay;
#X obj 815 80 UI/reverb;
#X obj 337 81 volumes/volume_recloopsave 2 1;
#X obj 482 80 volumes/volume_recloopsave 3 1;
#X obj 634 80 volumes/volume_recloopsave 4 1;
#X obj 242 9 bng 55 250 50 0 save_all empty SAVE 10 25 0 15 -258113
-1 -1;
#X coords 0 -1 1 1 140 42 1 43 25;
#X restore 507 20 pd volumes;
#X obj 458 89 UI/ui_looper_breakbeat 4 1;
#X obj 311 89 UI/ui_looper_breakbeat 3 1;
#X obj 164 89 UI/ui_looper_breakbeat 2 1;
#X obj 17 89 UI/ui_looper_breakbeat 1 1;
