#N canvas 349 107 1009 675 10;
#X declare -path ../../patches;
#X obj 7 370 cnv 15 980 180 empty empty empty 330 30 0 45 -21525 -88297
0;
#X obj 154 107 cnv 15 834 258 empty empty empty 20 12 0 14 -233017
-66577 0;
#X obj 265 556 UI/ui_tempo_small;
#X obj 7 24 cnv 15 980 81 empty empty LUCIBOX 414 36 0 45 -21525 -88297
0;
#X obj 7 107 cnv 15 144 259 empty empty empty 20 12 0 14 -233017 -66577
0;
#N canvas 396 164 812 500 patch 0;
#X obj 101 101 cnv 15 138 40 empty empty PATCH 20 12 0 14 -66577 -262144
0;
#X obj 235 155 audio/mic;
#X obj 277 108 adc~;
#X obj 254 553 *~ 1;
#X obj 286 585 dac~;
#X obj 38 100 bng 35 250 50 0 empty empty CLOSE 4 20 0 10 -262144 -1
-1;
#X msg 38 164 \; pd-patch vis 0;
#X obj 320 878 arduino/arduino_out;
#N canvas 447 412 1038 529 open 0;
#X text 462 314 label-color;
#X text 477 339 label-color;
#X obj 377 311 t b f;
#X msg 400 277 2;
#X obj 466 220 loadbang;
#X obj 104 101 hradio 15 1 0 2 empty empty empty 0 -8 0 10 -262144
-1 -1 1;
#X obj 104 166 bang;
#X msg 363 277 43;
#X obj 101 101 cnv 15 38 15 empty \$0_opencnv open 6 8 0 10 -66577
-262144 0;
#X msg 405 398 \; \$4_opencnv color \$1 \$2 \$3;
#X obj 363 197 bang;
#X obj 404 365 pack 43 0 0 \$0;
#X obj 400 220 delay 200;
#X msg 101 247 \; pd-patch vis 1;
#X msg 614 289 \; pd-patch vis 0;
#X connect 2 1 11 0;
#X connect 3 0 2 0;
#X connect 4 0 3 0;
#X connect 4 0 14 0;
#X connect 5 0 6 0;
#X connect 6 0 10 0;
#X connect 6 0 13 0;
#X connect 7 0 2 0;
#X connect 10 0 7 0;
#X connect 10 0 12 0;
#X connect 11 0 9 0;
#X connect 12 0 3 0;
#X coords 0 -1 1 1 40 17 2 100 100;
#X restore 177 107 pd open;
#X obj 442 420 effect/reverb;
#X obj 20 336 extra/selectionManager;
#X obj 1284 172 *~ 1;
#X obj 1371 172 *~ 1;
#X obj 715 831 hradio 30 0 0 5 empty empty empty 0 -8 0 10 -262144
-1 -1 1;
#X obj 714 809 extra/sv module_selected;
#X obj 466 271 s ledrec1;
#X obj 499 245 s ledplay1;
#X obj 660 269 s ledrec2;
#X obj 693 245 s ledplay2;
#X obj 660 827 r to14;
#X obj 605 827 r to13;
#N canvas 208 94 612 371 ledmodule0 0;
#X floatatom 68 137 5 -1 11 0 - - -, f 5;
#X obj 68 93 i 0;
#X obj 68 115 moses 13;
#X obj 68 69 * 12;
#X obj 68 46 r global_tempo_slider;
#X obj 194 187 spigot;
#X obj 173 238 s to13;
#X obj 251 75 == 0;
#X obj 210 148 tgl 15 0 empty empty empty 17 7 0 10 -262144 -1 -1 0
1;
#X obj 251 37 extra/sv module_selected;
#X obj 423 39 r bigReset;
#X obj 459 71 del 2000;
#X msg 424 135 2;
#X msg 459 135 0;
#X obj 430 187 s to3;
#X msg 271 170 0;
#X obj 271 201 s to1;
#X obj 271 226 extra/sv tempo_isplaying;
#X obj 479 188 s to1;
#X obj 521 188 s to2;
#X obj 269 125 sel 1;
#X obj 353 300 s to2;
#X connect 0 0 5 0;
#X connect 1 0 2 0;
#X connect 2 0 0 0;
#X connect 3 0 1 0;
#X connect 4 0 3 0;
#X connect 5 0 6 0;
#X connect 7 0 8 0;
#X connect 7 0 20 0;
#X connect 8 0 5 1;
#X connect 9 0 7 0;
#X connect 10 0 11 0;
#X connect 10 0 12 0;
#X connect 11 0 13 0;
#X connect 12 0 14 0;
#X connect 13 0 14 0;
#X connect 13 0 18 0;
#X connect 13 0 19 0;
#X connect 15 0 16 0;
#X connect 17 1 21 0;
#X connect 20 0 15 0;
#X connect 20 0 17 2;
#X restore 248 781 pd ledmodule0;
#N canvas 142 423 694 530 ledmodule1 0;
#X obj 179 5 extra/sv module_selected;
#X obj 190 126 == 1;
#X obj 429 6 extra/sv \$1_\$2_is_loop_recorded;
#X obj 34 256 spigot;
#X obj 67 210 tgl 15 0 empty empty empty 17 7 0 10 -262144 -1 -1 1
1;
#X obj -31 256 spigot;
#X obj 4 210 tgl 15 0 empty empty empty 17 7 0 10 -262144 -1 -1 1 1
;
#X obj -32 61 r ledrec1;
#X obj 34 61 r ledplay1;
#X obj 34 157 f 0;
#X obj -32 156 f 0;
#X obj -31 322 s to1;
#X obj 34 320 s to2;
#X obj 297 243 spigot;
#X obj 321 221 tgl 15 0 empty empty empty 17 7 0 10 -262144 -1 -1 1
1;
#X obj 457 247 spigot;
#X obj 472 219 tgl 15 0 empty empty empty 17 7 0 10 -262144 -1 -1 0
1;
#X floatatom 296 159 5 -1 11 0 - - -, f 5;
#X obj 296 115 i 0;
#X obj 296 137 moses 13;
#X obj 296 91 * 12;
#X obj 296 68 r global_tempo_slider;
#X floatatom 457 165 5 -1 11 0 - - -, f 5;
#X obj 457 88 i 0;
#X obj 457 142 moses 13;
#X obj 457 63 * 12;
#X obj 298 324 spigot;
#X obj 192 309 tgl 15 0 empty empty empty 17 7 0 10 -262144 -1 -1 1
1;
#X obj 322 201 == 0;
#X obj 472 198 == 1;
#X obj 298 355 s to13;
#X obj 103 178 extra/sv 1_1_is_loop_playing;
#X obj 179 63 t f f;
#X obj 109 108 sel 1;
#X obj 455 322 spigot;
#X obj 455 353 s to12;
#X obj 457 113 change;
#X obj 457 39 extra/sv 1_1_recloop_slider;
#X connect 0 0 32 0;
#X connect 1 0 4 0;
#X connect 1 0 6 0;
#X connect 1 0 27 0;
#X connect 1 0 31 2;
#X connect 3 0 12 0;
#X connect 4 0 3 1;
#X connect 5 0 11 0;
#X connect 6 0 5 1;
#X connect 7 0 10 0;
#X connect 8 0 9 0;
#X connect 9 0 3 0;
#X connect 10 0 5 0;
#X connect 13 0 26 0;
#X connect 14 0 13 1;
#X connect 15 0 34 0;
#X connect 16 0 15 1;
#X connect 17 0 13 0;
#X connect 18 0 19 0;
#X connect 19 0 17 0;
#X connect 20 0 18 0;
#X connect 21 0 20 0;
#X connect 22 0 15 0;
#X connect 23 0 36 0;
#X connect 24 0 22 0;
#X connect 25 0 23 0;
#X connect 26 0 30 0;
#X connect 27 0 26 1;
#X connect 27 0 34 1;
#X connect 28 0 14 0;
#X connect 29 0 16 0;
#X connect 31 1 28 0;
#X connect 31 1 29 0;
#X connect 32 0 33 0;
#X connect 32 1 1 0;
#X connect 33 0 9 0;
#X connect 33 0 10 0;
#X connect 34 0 35 0;
#X connect 36 0 24 0;
#X connect 37 0 25 0;
#X restore 354 781 pd ledmodule1;
#X obj 266 827 r to2;
#X obj 328 827 r to1;
#N canvas 383 97 694 553 ledmodule2 0;
#X obj 179 5 extra/sv module_selected;
#X obj 34 256 spigot;
#X obj 67 210 tgl 15 0 empty empty empty 17 7 0 10 -262144 -1 -1 0
1;
#X obj -31 256 spigot;
#X obj 4 210 tgl 15 0 empty empty empty 17 7 0 10 -262144 -1 -1 0 1
;
#X obj 34 157 f 0;
#X obj -32 156 f 0;
#X obj -31 322 s to1;
#X obj 34 320 s to2;
#X obj 297 243 spigot;
#X obj 321 221 tgl 15 0 empty empty empty 17 7 0 10 -262144 -1 -1 1
1;
#X obj 457 247 spigot;
#X obj 472 219 tgl 15 0 empty empty empty 17 7 0 10 -262144 -1 -1 0
1;
#X floatatom 296 159 5 -1 11 0 - - -, f 5;
#X obj 296 115 i 0;
#X obj 296 137 moses 13;
#X obj 296 91 * 12;
#X obj 296 68 r global_tempo_slider;
#X floatatom 457 165 5 -1 11 0 - - -, f 5;
#X obj 457 88 i 0;
#X obj 457 142 moses 13;
#X obj 457 63 * 12;
#X obj 298 324 spigot;
#X obj 192 309 tgl 15 0 empty empty empty 17 7 0 10 -262144 -1 -1 0
1;
#X obj 315 200 == 0;
#X obj 474 195 == 1;
#X obj 298 355 s to13;
#X obj 179 63 t f f;
#X obj 109 108 sel 2;
#X obj 34 61 r ledplay2;
#X obj -32 61 r ledrec2;
#X obj 190 126 == 2;
#X obj 103 178 extra/sv 2_1_is_loop_playing;
#X obj 429 6 extra/sv 2_1_is_loop_recorded;
#X obj 453 324 spigot;
#X obj 453 355 s to12;
#X obj 457 115 change;
#X obj 457 39 extra/sv 2_1_recloop_slider;
#X obj 255 133 bng 15 250 50 0 empty empty empty 17 7 0 10 -262144
-1 -1;
#X connect 0 0 27 0;
#X connect 1 0 8 0;
#X connect 2 0 1 1;
#X connect 3 0 7 0;
#X connect 4 0 3 1;
#X connect 5 0 1 0;
#X connect 6 0 3 0;
#X connect 9 0 22 0;
#X connect 10 0 9 1;
#X connect 11 0 22 0;
#X connect 11 0 34 0;
#X connect 12 0 11 1;
#X connect 13 0 9 0;
#X connect 14 0 15 0;
#X connect 15 0 13 0;
#X connect 16 0 14 0;
#X connect 17 0 16 0;
#X connect 18 0 11 0;
#X connect 19 0 36 0;
#X connect 20 0 18 0;
#X connect 21 0 19 0;
#X connect 22 0 26 0;
#X connect 23 0 22 1;
#X connect 23 0 34 1;
#X connect 24 0 10 0;
#X connect 25 0 12 0;
#X connect 27 0 28 0;
#X connect 27 1 31 0;
#X connect 28 0 5 0;
#X connect 28 0 6 0;
#X connect 29 0 5 0;
#X connect 30 0 6 0;
#X connect 31 0 2 0;
#X connect 31 0 4 0;
#X connect 31 0 23 0;
#X connect 31 0 32 2;
#X connect 32 1 24 0;
#X connect 32 1 25 0;
#X connect 34 0 35 0;
#X connect 36 0 20 0;
#X connect 37 0 21 0;
#X connect 38 0 32 2;
#X restore 453 781 pd ledmodule2;
#N canvas 294 159 623 468 longORshort 0;
#X obj 153 75 inlet;
#X obj 152 180 timer;
#X obj 153 119 sel 0;
#X obj 187 149 bang;
#X obj 151 224 > 500;
#X obj 151 298 bng 15 250 50 0 empty empty empty 17 7 0 10 -262144
-1 -1;
#X obj 151 419 outlet;
#X obj 223 417 outlet;
#X obj 380 102 sel 0;
#X obj 398 239 i 0;
#X obj 398 270 sel 0;
#X obj 431 312 bng 15 250 50 0 empty empty empty 17 7 0 10 -262144
-1 -1;
#X obj 444 196 delay 1000;
#X obj 182 296 bng 15 250 50 0 empty empty empty 17 7 0 10 -262144
-1 -1;
#X obj 398 310 bng 15 250 50 0 empty empty empty 17 7 0 10 -262144
-1 -1;
#X obj 151 256 sel 0 1;
#X connect 0 0 2 0;
#X connect 0 0 8 0;
#X connect 0 0 9 1;
#X connect 1 0 4 0;
#X connect 2 0 1 1;
#X connect 2 1 3 0;
#X connect 3 0 1 0;
#X connect 4 0 15 0;
#X connect 5 0 6 0;
#X connect 8 1 12 0;
#X connect 9 0 10 0;
#X connect 10 0 14 0;
#X connect 10 1 11 0;
#X connect 12 0 9 0;
#X connect 13 0 7 0;
#X connect 15 0 5 0;
#X connect 15 1 13 0;
#X restore 24 527 pd longORshort;
#X obj 57 447 extra/sv module_selected;
#X obj 24 497 spigot;
#X obj 24 427 extra/sv global_play;
#X text 22 376 Manage Reset when;
#X text 22 397 no module selected and long press;
#X obj 57 470 == 0;
#X obj 96 590 extra/sv tempo_isplaying;
#X msg 143 565 0;
#X obj 86 614 extra/sv 1_1_is_loop_recorded;
#X obj 85 642 extra/sv 2_1_is_loop_recorded;
#X obj 54 580 bang;
#X obj 18 627 s bigReset;
#X obj 406 827 r to3;
#X obj 560 827 r to12;
#X obj 98 549 t b b;
#X obj 252 380 *~ 1;
#X obj 331 180 *~ 1;
#X obj 561 172 *~ 1;
#X obj 1202 362 *~ 1;
#X obj 1334 363 *~ 1;
#X obj 334 363 *~ 1;
#X obj 561 363 *~ 1;
#X obj 1248 403 *~ 1;
#X obj 1389 403 *~ 1;
#X obj 367 403 *~ 1;
#X obj 597 403 *~ 1;
#X obj 269 403 *~ 1;
#X obj 502 461 effect/delay;
#X obj 1295 444 *~ 1;
#X obj 1445 444 *~ 1;
#X obj 400 444 *~ 1;
#X obj 627 444 *~ 1;
#X obj 286 444 *~ 1;
#X obj 334 68 r~ toLoop1;
#X obj 334 108 *~ 1;
#X obj 412 68 r~ toLoop2;
#X obj 1202 332 s~ toLoop1;
#X obj 1334 333 s~ toLoop2;
#X obj 161 544 bng 15 250 50 0 empty empty empty 17 7 0 10 -262144
-1 -1;
#X obj -94 590 extra/sv tempo_isplaying;
#N canvas 194 249 694 530 ledmodule3 0;
#X obj 179 5 extra/sv module_selected;
#X obj 34 256 spigot;
#X obj 67 210 tgl 15 0 empty empty empty 17 7 0 10 -262144 -1 -1 0
1;
#X obj -31 256 spigot;
#X obj 4 210 tgl 15 0 empty empty empty 17 7 0 10 -262144 -1 -1 0 1
;
#X obj 34 157 f 0;
#X obj -32 156 f 0;
#X obj -31 322 s to1;
#X obj 34 320 s to2;
#X obj 297 243 spigot;
#X obj 321 221 tgl 15 0 empty empty empty 17 7 0 10 -262144 -1 -1 1
1;
#X obj 457 247 spigot;
#X obj 472 219 tgl 15 0 empty empty empty 17 7 0 10 -262144 -1 -1 0
1;
#X floatatom 296 159 5 -1 11 0 - - -, f 5;
#X obj 296 115 i 0;
#X obj 296 137 moses 13;
#X obj 296 91 * 12;
#X obj 296 68 r global_tempo_slider;
#X floatatom 457 165 5 -1 11 0 - - -, f 5;
#X obj 457 88 i 0;
#X obj 457 142 moses 13;
#X obj 457 63 * 12;
#X obj 298 324 spigot;
#X obj 192 309 tgl 15 0 empty empty empty 17 7 0 10 -262144 -1 -1 0
1;
#X obj 320 202 == 0;
#X obj 472 195 == 1;
#X obj 298 355 s to13;
#X obj 179 63 t f f;
#X obj 455 322 spigot;
#X obj 455 353 s to12;
#X obj 457 113 change;
#X obj 103 178 extra/sv 3_1_is_loop_playing;
#X obj -32 61 r ledrec3;
#X obj 34 61 r ledplay3;
#X obj 190 126 == 3;
#X obj 109 108 sel 3;
#X obj 457 39 extra/sv 3_1_recloop_slider;
#X connect 0 0 27 0;
#X connect 1 0 8 0;
#X connect 2 0 1 1;
#X connect 3 0 7 0;
#X connect 4 0 3 1;
#X connect 5 0 1 0;
#X connect 6 0 3 0;
#X connect 9 0 22 0;
#X connect 10 0 9 1;
#X connect 11 0 28 0;
#X connect 12 0 11 1;
#X connect 13 0 9 0;
#X connect 14 0 15 0;
#X connect 15 0 13 0;
#X connect 16 0 14 0;
#X connect 17 0 16 0;
#X connect 18 0 11 0;
#X connect 19 0 30 0;
#X connect 20 0 18 0;
#X connect 21 0 19 0;
#X connect 22 0 26 0;
#X connect 23 0 22 1;
#X connect 23 0 28 1;
#X connect 24 0 10 0;
#X connect 25 0 12 0;
#X connect 27 0 35 0;
#X connect 27 1 34 0;
#X connect 28 0 29 0;
#X connect 30 0 20 0;
#X connect 31 1 24 0;
#X connect 31 1 25 0;
#X connect 32 0 6 0;
#X connect 33 0 5 0;
#X connect 34 0 2 0;
#X connect 34 0 4 0;
#X connect 34 0 23 0;
#X connect 34 0 31 2;
#X connect 35 0 5 0;
#X connect 35 0 6 0;
#X connect 36 0 21 0;
#X restore 545 781 pd ledmodule3;
#N canvas 225 207 694 553 ledmodule4 0;
#X obj 179 5 extra/sv module_selected;
#X obj 34 256 spigot;
#X obj 67 210 tgl 15 0 empty empty empty 17 7 0 10 -262144 -1 -1 0
1;
#X obj -31 256 spigot;
#X obj 4 210 tgl 15 0 empty empty empty 17 7 0 10 -262144 -1 -1 0 1
;
#X obj 34 157 f 0;
#X obj -32 156 f 0;
#X obj -31 322 s to1;
#X obj 34 320 s to2;
#X obj 297 243 spigot;
#X obj 321 221 tgl 15 0 empty empty empty 17 7 0 10 -262144 -1 -1 1
1;
#X obj 457 247 spigot;
#X obj 472 219 tgl 15 0 empty empty empty 17 7 0 10 -262144 -1 -1 0
1;
#X floatatom 296 159 5 -1 11 0 - - -, f 5;
#X obj 296 115 i 0;
#X obj 296 137 moses 13;
#X obj 296 91 * 12;
#X obj 296 68 r global_tempo_slider;
#X floatatom 457 165 5 -1 11 0 - - -, f 5;
#X obj 457 88 i 0;
#X obj 457 142 moses 13;
#X obj 457 63 * 12;
#X obj 298 324 spigot;
#X obj 192 309 tgl 15 0 empty empty empty 17 7 0 10 -262144 -1 -1 0
1;
#X obj 349 208 == 0;
#X obj 472 197 == 1;
#X obj 298 355 s to13;
#X obj 179 63 t f f;
#X obj 453 324 spigot;
#X obj 453 355 s to12;
#X obj 457 115 change;
#X obj 109 108 sel 4;
#X obj 190 126 == 4;
#X obj 103 178 extra/sv 4_1_is_loop_playing;
#X obj -32 61 r ledrec4;
#X obj 34 61 r ledplay4;
#X obj 457 39 extra/sv 4_1_recloop_slider;
#X connect 0 0 27 0;
#X connect 1 0 8 0;
#X connect 2 0 1 1;
#X connect 3 0 7 0;
#X connect 4 0 3 1;
#X connect 5 0 1 0;
#X connect 6 0 3 0;
#X connect 9 0 22 0;
#X connect 10 0 9 1;
#X connect 11 0 22 0;
#X connect 11 0 28 0;
#X connect 12 0 11 1;
#X connect 13 0 9 0;
#X connect 14 0 15 0;
#X connect 15 0 13 0;
#X connect 16 0 14 0;
#X connect 17 0 16 0;
#X connect 18 0 11 0;
#X connect 19 0 30 0;
#X connect 20 0 18 0;
#X connect 21 0 19 0;
#X connect 22 0 26 0;
#X connect 23 0 22 1;
#X connect 23 0 28 1;
#X connect 24 0 10 0;
#X connect 25 0 12 0;
#X connect 27 0 31 0;
#X connect 27 1 32 0;
#X connect 28 0 29 0;
#X connect 30 0 20 0;
#X connect 31 0 5 0;
#X connect 31 0 6 0;
#X connect 32 0 2 0;
#X connect 32 0 4 0;
#X connect 32 0 23 0;
#X connect 32 0 33 2;
#X connect 33 1 24 0;
#X connect 33 1 25 0;
#X connect 34 0 6 0;
#X connect 35 0 5 0;
#X connect 36 0 21 0;
#X restore 644 781 pd ledmodule4;
#X obj 766 172 *~ 1;
#X obj 990 172 *~ 1;
#X obj 1124 241 s ledplay4;
#X obj 1091 265 s ledrec4;
#X obj 930 241 s ledplay3;
#X obj 768 363 *~ 1;
#X obj 801 403 *~ 1;
#X obj 834 444 *~ 1;
#X obj 992 363 *~ 1;
#X obj 1025 403 *~ 1;
#X obj 1058 444 *~ 1;
#X obj 86 664 extra/sv 3_1_is_loop_recorded;
#X obj 85 692 extra/sv 4_1_is_loop_recorded;
#X obj 1202 204 audio/sampler8 5;
#X obj 1334 205 synth/synth_voice 6;
#X obj 897 267 s ledrec3;
#X obj 119 739 extra/sv nbLoopPlaying;
#X obj 334 208 audio/recloopsavesampler 1 1;
#N canvas 475 180 747 350 autostop_from_loop 0;
#X obj 155 39 extra/sv 1_1_is_loop_playing;
#X obj 188 62 extra/sv 2_1_is_loop_playing;
#X obj 215 85 extra/sv 3_1_is_loop_playing;
#X obj 232 107 extra/sv 4_1_is_loop_playing;
#X obj 162 195 extra/sv 1_1_is_loop_playing;
#X obj 142 220 extra/sv 2_1_is_loop_playing;
#X obj 122 241 extra/sv 3_1_is_loop_playing;
#X obj 102 264 extra/sv 4_1_is_loop_playing;
#X obj 217 151 bng 15 250 50 0 empty empty empty 17 7 0 10 -262144
-1 -1;
#X obj 230 171 t b b b b;
#X obj 337 241 +;
#X obj 319 266 +;
#X obj 301 289 +;
#X floatatom 301 309 5 0 0 0 - - -, f 5;
#X obj 300 326 sel 0;
#X obj 300 352 s tempoStopIn;
#X connect 0 0 8 0;
#X connect 1 0 8 0;
#X connect 2 0 8 0;
#X connect 3 0 8 0;
#X connect 4 1 10 1;
#X connect 5 1 10 0;
#X connect 6 1 11 0;
#X connect 7 1 12 0;
#X connect 8 0 9 0;
#X connect 9 0 7 2;
#X connect 9 1 6 2;
#X connect 9 2 5 2;
#X connect 9 3 4 2;
#X connect 10 0 11 1;
#X connect 11 0 12 1;
#X connect 12 0 13 0;
#X connect 13 0 14 0;
#X connect 14 0 15 0;
#X restore 22 359 pd autostop_from_loop;
#X obj 21 309 audio/tempo machines 2;
#X obj 35 283 declare -path ../../patches;
#X obj 561 204 audio/recloopsavesampler 2 1;
#X obj 765 204 audio/recloopsavesampler 3 1;
#X obj 992 200 audio/recloopsavesampler 4 1;
#X connect 1 1 42 0;
#X connect 1 1 11 0;
#X connect 1 1 12 0;
#X connect 1 1 44 0;
#X connect 1 1 43 0;
#X connect 1 1 69 0;
#X connect 1 1 70 0;
#X connect 1 2 53 0;
#X connect 1 3 59 0;
#X connect 2 0 1 0;
#X connect 2 1 1 0;
#X connect 3 0 4 1;
#X connect 3 0 4 0;
#X connect 5 0 6 0;
#X connect 9 0 3 0;
#X connect 11 0 82 8;
#X connect 12 0 83 1;
#X connect 13 0 7 13;
#X connect 14 0 13 0;
#X connect 19 0 7 13;
#X connect 20 0 7 12;
#X connect 23 0 7 0;
#X connect 24 0 7 1;
#X connect 26 0 66 0;
#X connect 26 1 41 0;
#X connect 26 1 65 0;
#X connect 27 0 32 0;
#X connect 28 0 26 0;
#X connect 29 0 28 0;
#X connect 32 0 28 1;
#X connect 34 0 33 1;
#X connect 34 0 35 1;
#X connect 34 0 36 1;
#X connect 34 0 80 1;
#X connect 34 0 81 1;
#X connect 34 0 85 1;
#X connect 37 0 38 0;
#X connect 39 0 7 2;
#X connect 40 0 7 11;
#X connect 41 0 37 0;
#X connect 41 1 34 0;
#X connect 42 0 3 0;
#X connect 43 0 86 0;
#X connect 44 0 90 0;
#X connect 45 0 42 0;
#X connect 46 0 42 0;
#X connect 47 0 42 0;
#X connect 48 0 42 0;
#X connect 49 0 9 0;
#X connect 50 0 9 0;
#X connect 51 0 9 0;
#X connect 52 0 9 0;
#X connect 53 0 9 0;
#X connect 54 0 3 0;
#X connect 55 0 54 0;
#X connect 56 0 54 0;
#X connect 57 0 54 0;
#X connect 58 0 54 0;
#X connect 59 0 54 0;
#X connect 60 0 61 0;
#X connect 61 0 44 0;
#X connect 61 0 43 0;
#X connect 61 0 69 0;
#X connect 61 0 70 0;
#X connect 62 0 61 0;
#X connect 69 0 91 0;
#X connect 70 0 92 0;
#X connect 74 0 42 0;
#X connect 75 0 9 0;
#X connect 76 0 54 0;
#X connect 77 0 42 0;
#X connect 78 0 9 0;
#X connect 79 0 54 0;
#X connect 82 0 45 0;
#X connect 82 0 63 0;
#X connect 82 1 49 0;
#X connect 82 2 55 0;
#X connect 83 0 46 0;
#X connect 83 0 64 0;
#X connect 83 1 50 0;
#X connect 83 2 56 0;
#X connect 86 0 47 0;
#X connect 86 1 51 0;
#X connect 86 2 57 0;
#X connect 86 3 15 0;
#X connect 86 4 16 0;
#X connect 90 0 48 0;
#X connect 90 1 52 0;
#X connect 90 2 58 0;
#X connect 90 3 17 0;
#X connect 90 4 18 0;
#X connect 91 0 74 0;
#X connect 91 1 75 0;
#X connect 91 2 76 0;
#X connect 91 3 84 0;
#X connect 91 4 73 0;
#X connect 92 0 77 0;
#X connect 92 1 78 0;
#X connect 92 2 79 0;
#X connect 92 3 72 0;
#X connect 92 4 71 0;
#X coords 0 -1 1 1 140 42 2 100 100;
#X restore 7 139 pd patch;
#N canvas 228 212 1009 599 connect 0;
#X obj 625 97 connect/connect_global_recplay;
#X obj 40 6 cnv 15 996 83 empty empty CONNECT 330 30 0 45 -21525 -88297
0;
#X obj 648 509 s effect_rev_drywet;
#X obj 44 26 cnv 15 138 40 empty empty CONNECT 20 12 0 14 -66577 -262144
0;
#N canvas 402 288 1038 552 open 0;
#X obj 103 102 hradio 15 0 0 3 empty empty empty 0 -8 0 10 -262144
-1 -1 1;
#X text 462 314 label-color;
#X text 477 339 label-color;
#X obj 377 311 t b f;
#X msg 400 277 2;
#X obj 466 220 loadbang;
#X obj 104 166 bang;
#X msg 363 277 43;
#X obj 363 197 bang;
#X obj 404 365 pack 43 0 0 \$0;
#X obj 400 220 delay 200;
#X msg 104 202 \; pd-connect vis 1;
#X msg 405 398 \; \$4_connectcnv color \$1 \$2 \$3;
#X obj 101 101 cnv 15 47 15 empty \$0_connectcnv open 14 6 0 10 -66577
-262144 0;
#X obj 594 296 bang;
#X msg 594 332 \; pd-connect vis 0;
#X connect 0 0 6 0;
#X connect 3 1 9 0;
#X connect 4 0 3 0;
#X connect 5 0 4 0;
#X connect 5 0 14 0;
#X connect 6 0 8 0;
#X connect 6 0 11 0;
#X connect 7 0 3 0;
#X connect 8 0 7 0;
#X connect 8 0 10 0;
#X connect 9 0 12 0;
#X connect 10 0 4 0;
#X connect 14 0 15 0;
#X coords 0 -1 1 1 49 17 2 100 100;
#X restore 127 47 pd open;
#X obj 585 14 arduino/arduino;
#X obj 37 98 connect/connect_recloopsave 1 1;
#X obj 647 488 extra/midiLearn effect_rev_drywet;
#X obj 182 98 connect/connect_recloopsave 2 1;
#X obj 623 304 connect/connect_mic;
#X obj 43 305 connect/connect_sampler8 5;
#X obj 780 305 connect/connect_synthvoice 6;
#X obj 330 98 connect/connect_recloopsave 3 1;
#X obj 475 98 connect/connect_recloopsave 4 1;
#X connect 7 0 2 0;
#X coords 0 -1 1 1 140 42 1 43 25;
#X restore 8 191 pd connect;
#X obj 467 372 UI/ui_global_recplay;
#X obj 466 486 hsl 250 60 0 1 0 0 empty global_tempo_slider empty -2
-8 0 10 -33289 -4032 -1 0 1;
#N canvas 2 220 1009 485 volumes 0;
#X obj 24 -13 cnv 15 996 83 empty empty VOLUMES 330 30 0 45 -21525
-88297 0;
#X obj 188 80 volumes/volume_recloopsave 1 1;
#X obj 28 80 volumes/volume_mic;
#X obj 44 26 cnv 15 138 40 empty empty VOLUMES 20 12 0 14 -66577 -262144
0;
#N canvas 285 163 1038 575 open 0;
#X obj 103 102 hradio 15 0 0 3 empty empty empty 0 -8 0 10 -262144
-1 -1 0;
#X text 462 314 label-color;
#X text 477 339 label-color;
#X obj 377 311 t b f;
#X msg 400 277 2;
#X obj 466 220 loadbang;
#X obj 104 166 bang;
#X msg 363 277 43;
#X obj 363 197 bang;
#X obj 404 365 pack 43 0 0 \$0;
#X obj 400 220 delay 200;
#X obj 101 101 cnv 15 47 15 empty \$0_volumescnv open 14 6 0 10 -66577
-262144 0;
#X msg 104 202 \; pd-volumes vis 1;
#X msg 405 398 \; \$4_volumescnv color \$1 \$2 \$3;
#X msg 552 270 \; pd-volumes vis 0;
#X connect 0 0 6 0;
#X connect 3 1 9 0;
#X connect 4 0 3 0;
#X connect 5 0 4 0;
#X connect 5 0 14 0;
#X connect 6 0 8 0;
#X connect 6 0 12 0;
#X connect 7 0 3 0;
#X connect 8 0 7 0;
#X connect 8 0 10 0;
#X connect 9 0 13 0;
#X connect 10 0 4 0;
#X coords 0 -1 1 1 49 17 2 100 100;
#X restore 127 47 pd open;
#X obj 963 80 UI/delay;
#X obj 815 80 UI/reverb;
#X obj 30 292 volumes/volume_sampler 5;
#X obj 184 291 volumes/volume_synth 6;
#X obj 337 81 volumes/volume_recloopsave 2 1;
#X obj 482 80 volumes/volume_recloopsave 3 1;
#X obj 634 80 volumes/volume_recloopsave 4 1;
#X obj 242 9 bng 55 250 50 0 save_all empty SAVE 10 25 0 15 -258113
-1 -1;
#X coords 0 -1 1 1 140 42 1 43 25;
#X restore 9 242 pd volumes;
#X obj 306 139 UI/ui_recloopsave 1 1;
#X obj 18 374 UI/ui_sampler8 5;
#X obj 839 375 UI/ui_synth_voice 6;
#X obj 448 139 UI/ui_recloopsave 2 1;
#X obj 594 139 UI/ui_recloopsave 3 1;
#X obj 742 139 UI/ui_recloopsave 4 1;
