#N canvas 352 265 687 490 10;
#X obj 101 101 cnv 15 138 30 empty \$0_titlecnv SYNTH_6 20 12 0 18
-162280 -66577 0;
#X obj 258 -17 loadbang;
#X obj 238 -16 bng 15 250 50 0 empty empty empty 17 7 0 10 -262144
-1 -1;
#X obj 129 214 vu 20 80 empty empty -1 -8 0 10 -66577 -1 0 0;
#X obj 101 193 vsl 25 100 0 127 0 0 empty empty empty 0 -9 0 10 -58255
-262144 -1 0 1;
#X msg -79 247 set \$1;
#X obj 130 193 extra/saturate;
#X obj 175 214 vu 15 80 empty empty -1 -8 0 10 -66577 -1 0 0;
#X obj 158 214 vsl 15 80 0 127 0 0 empty empty empty 0 -9 0 10 -58255
-262144 -1 0 1;
#X obj 218 214 vu 15 80 empty empty -1 -8 0 10 -66577 -1 0 0;
#X obj 201 214 vsl 15 80 0 127 0 0 empty empty empty 0 -9 0 10 -58255
-262144 -1 0 1;
#X obj 101 166 cnv 15 138 23 empty empty VOLUME 3 9 0 14 -33289 -262144
0;
#X msg 277 217 set \$1;
#X msg 277 272 set \$1;
#X obj 258 12 pack \$1 \$0;
#X obj -29 301 vsl 15 128 0 127 0 0 empty empty empty 0 -9 0 10 -262144
-1 -1 0 1;
#X msg 258 45 \; \$2_titlecnv label SYNTH_\$1;
#X obj -91 133 r \$1_synth_volume_vumetre;
#X obj -79 223 extra/sv \$1_synth_volume;
#X obj 277 193 extra/sv \$1_synth_sendA;
#X obj 277 248 extra/sv \$1_synth_sendB;
#X obj 159 194 cnv 15 35 15 empty empty sendA 2 8 0 10 -66577 -262144
0;
#X obj 201 194 cnv 15 35 15 empty empty sendB 2 8 0 10 -66577 -262144
0;
#X connect 1 0 14 0;
#X connect 2 0 14 0;
#X connect 4 0 18 1;
#X connect 5 0 4 0;
#X connect 8 0 19 1;
#X connect 10 0 20 1;
#X connect 12 0 8 0;
#X connect 13 0 10 0;
#X connect 14 0 16 0;
#X connect 17 0 3 0;
#X connect 17 0 6 0;
#X connect 18 0 5 0;
#X connect 19 0 12 0;
#X connect 20 0 13 0;
#X coords 0 -1 1 1 140 200 2 100 100;
