#N canvas 576 119 998 474 10;
#X obj 48 297 s arduinoIN;
#X obj 29 113 bng 15 250 50 0 empty empty empty 17 7 0 10 -262144 -1
-1;
#X obj 17 221 pack 13 255;
#X obj 212 111 t b f;
#X obj 266 111 t b f;
#X obj 327 111 t b f;
#X obj 385 111 t b f;
#X obj 201 212 pack 0 0;
#X obj 265 212 pack 0 0;
#X obj 334 210 pack 0 0;
#X obj 396 210 pack 0 0;
#X obj 203 -217 inlet;
#X obj 244 -217 inlet;
#X obj 286 -217 inlet;
#X obj 323 -217 inlet;
#X obj 260 -44 cnv 12 148 73 empty empty LUCIBOX_LED 20 60 0 14 -184827
-1 0;
#X obj 261 -46 tgl 15 0 empty empty 1 3 9 0 10 -204786 -1 -1 0 1;
#X obj 277 -46 tgl 15 0 empty empty 2 3 9 0 10 -204786 -1 -1 0 1;
#X obj 294 -46 tgl 15 0 empty empty 3 3 9 0 10 -204786 -1 -1 0 1;
#X obj 311 -46 tgl 15 0 empty empty 4 3 9 0 10 -204786 -1 -1 0 1;
#X obj 328 -46 tgl 15 0 empty empty 5 3 9 0 10 -204786 -1 -1 0 1;
#X obj 345 -46 tgl 15 0 empty empty 6 3 9 0 10 -204786 -1 -1 0 1;
#X obj 362 -46 tgl 15 0 empty empty 7 3 9 0 10 -204786 -1 -1 0 1;
#X obj 378 -46 tgl 15 0 empty empty 8 3 9 0 10 -204786 -1 -1 0 1;
#X obj 363 -217 inlet;
#X obj 404 -217 inlet;
#X obj 440 -217 inlet;
#X obj 476 -217 inlet;
#X obj 212 177 i 20;
#X obj 266 179 i 21;
#X obj 327 171 i 22;
#X obj 385 169 i 23;
#X obj 464 106 t b f;
#X obj 518 106 t b f;
#X obj 579 106 t b f;
#X obj 637 106 t b f;
#X obj 453 207 pack 0 0;
#X obj 517 207 pack 0 0;
#X obj 586 205 pack 0 0;
#X obj 648 205 pack 0 0;
#X obj 463 173 i 24;
#X obj 518 174 i 25;
#X obj 580 167 i 26;
#X obj 637 164 i 27;
#X obj 374 -29 cnv 12 35 12 empty empty midi 4 6 0 12 -204799 -1 0
;
#X obj 519 -216 inlet;
#X obj 394 -47 cnv 12 15 18 empty empty empty 4 6 0 12 -204799 -1 0
;
#X obj 519 -183 route 60 63 65 66 67 70 72 75;
#X obj 628 -96 print;
#X connect 1 0 2 0;
#X connect 2 0 0 0;
#X connect 3 0 28 0;
#X connect 3 1 7 1;
#X connect 4 0 29 0;
#X connect 4 1 8 1;
#X connect 5 0 30 0;
#X connect 5 1 9 1;
#X connect 6 0 31 0;
#X connect 6 1 10 1;
#X connect 7 0 0 0;
#X connect 8 0 0 0;
#X connect 9 0 0 0;
#X connect 10 0 0 0;
#X connect 11 0 16 0;
#X connect 12 0 17 0;
#X connect 13 0 18 0;
#X connect 14 0 19 0;
#X connect 16 0 3 0;
#X connect 17 0 4 0;
#X connect 18 0 5 0;
#X connect 19 0 6 0;
#X connect 20 0 32 0;
#X connect 21 0 33 0;
#X connect 22 0 34 0;
#X connect 23 0 35 0;
#X connect 24 0 20 0;
#X connect 25 0 21 0;
#X connect 26 0 22 0;
#X connect 27 0 23 0;
#X connect 28 0 7 0;
#X connect 29 0 8 0;
#X connect 30 0 9 0;
#X connect 31 0 10 0;
#X connect 32 0 40 0;
#X connect 32 1 36 1;
#X connect 33 0 41 0;
#X connect 33 1 37 1;
#X connect 34 0 42 0;
#X connect 34 1 38 1;
#X connect 35 0 43 0;
#X connect 35 1 39 1;
#X connect 36 0 0 0;
#X connect 37 0 0 0;
#X connect 38 0 0 0;
#X connect 39 0 0 0;
#X connect 40 0 36 0;
#X connect 41 0 37 0;
#X connect 42 0 38 0;
#X connect 43 0 39 0;
#X connect 45 0 47 0;
#X connect 45 0 48 0;
#X connect 47 0 16 0;
#X connect 47 1 17 0;
#X connect 47 2 18 0;
#X connect 47 3 19 0;
#X connect 47 4 20 0;
#X connect 47 5 21 0;
#X connect 47 6 22 0;
#X connect 47 7 23 0;
#X coords 0 -1 1 1 150 80 2 260 -50;
