#N canvas 198 73 928 562 12;
#X declare -path ../;
#X msg 26 275 \$1 \$2 13;
#X obj 26 250 r arduinoIN;
#X obj 18 -34 declare -path ../;
#X obj 501 101 cnv 15 189 51 empty empty ARDUINO 59 6 0 14 -133153
-1 0;
#X obj 620 114 bng 15 250 50 0 empty empty Message 22 -5 0 10 -170864
-1 -1;
#X obj 128 82 bng 15 250 50 0 empty empty empty 17 7 0 10 -262144 -1
-1;
#N canvas 328 344 705 483 read_serial 0;
#X obj 188 177 list prepend;
#X obj 309 176 t l;
#X obj 139 93 t f f;
#X obj 119 187 bng 15 250 50 0 empty empty empty 17 7 0 10 -262144
-1 -1;
#X obj 119 158 sel 1;
#X obj 119 259 list prepend;
#X obj 323 199 bng 15 250 50 0 empty empty empty 17 7 0 10 -262144
-1 -1;
#X obj 140 34 inlet;
#X text -12 9 read String from arduino and print it to console;
#X text 345 201 clear list;
#X text 28 123 end of msg;
#X obj 119 127 == 14;
#X obj 119 291 outlet;
#X obj 341 32 inlet;
#X obj 185 132 f 0;
#X obj 145 186 bng 15 250 50 0 empty empty empty 17 7 0 10 -262144
-1 -1;
#X obj 393 30 loadbang;
#X text 405 68 clear list at beginning;
#X obj 398 91 delay 800;
#X connect 0 0 1 0;
#X connect 0 0 5 1;
#X connect 1 0 0 1;
#X connect 2 0 11 0;
#X connect 2 1 14 1;
#X connect 3 0 5 0;
#X connect 4 0 3 0;
#X connect 4 1 15 0;
#X connect 5 0 6 0;
#X connect 5 0 12 0;
#X connect 6 0 0 1;
#X connect 7 0 2 0;
#X connect 11 0 4 0;
#X connect 13 0 6 0;
#X connect 14 0 0 0;
#X connect 15 0 14 0;
#X connect 16 0 18 0;
#X connect 18 0 6 0;
#X restore 128 340 pd read_serial;
#X obj 282 320 r arduino_reset;
#X floatatom 637 115 3 0 0 0 - - -, f 3;
#X floatatom 664 115 3 0 0 0 - - -, f 3;
#X obj 653 35 unpack f f;
#X obj 128 378 s arduino_msg;
#X obj 289 222 t f b;
#X msg 328 251 close;
#X msg 250 251 open \$1;
#X obj 128 295 externals/comport 5 38400;
#X obj 653 2 r arduino_msg;
#N canvas 632 119 389 266 arduino_config 0;
#X obj 44 111 cnv 15 320 150 empty empty empty 80 -20 0 14 -233017
-66577 0;
#X obj 48 80 vradio 30 1 0 6 serial_choice_in serial_choice_out empty
0 -8 0 10 -262144 -1 -1 1;
#X obj 80 113 cnv 15 280 25 empty serial0_name /dev/tty.Bluetooth-Incoming-Port-(0)
20 12 0 12 -262144 -66577 0;
#X obj 80 143 cnv 15 280 25 empty serial1_name --- 20 12 0 12 -262144
-66577 0;
#X obj 80 173 cnv 15 280 25 empty serial2_name --- 20 12 0 12 -262144
-66577 0;
#X obj 80 203 cnv 15 280 25 empty serial3_name --- 20 12 0 12 -262144
-66577 0;
#X obj 81 83 cnv 15 40 25 empty empty -NO_ARDUINO- 20 12 0 14 -262144
-66577 0;
#X obj 80 232 cnv 15 280 25 empty serial4_name --- 20 12 0 12 -262144
-66577 0;
#X coords 0 266 1 265 40 20 0;
#X restore 710 126 pd arduino_config;
#X msg 504 231 \; pd-arduino_config vis 1;
#X obj 504 115 tgl 15 0 empty empty CONFIGURE 17 7 0 10 -258113 -1
-1 0 1;
#X obj 504 158 sel 1 0;
#N canvas 756 50 665 442 makeDeviceList 0;
#X obj 124 140 symbol;
#X obj 174 50 inlet;
#X text 171 24 comport device list;
#X obj 124 164 t s b;
#X obj 78 116 list split 1;
#N canvas 372 50 450 300 atoi 0;
#X obj 167 86 inlet;
#X obj 144 254 outlet;
#X msg 126 197 0;
#X obj 127 147 sel 0 1 2 3 4 5 6 7;
#X msg 156 197 1;
#X msg 186 197 2;
#X msg 216 197 3;
#X msg 246 197 4;
#X msg 276 197 5;
#X msg 306 197 6;
#X msg 336 197 7;
#X connect 0 0 3 0;
#X connect 2 0 1 0;
#X connect 3 0 2 0;
#X connect 3 1 4 0;
#X connect 3 2 5 0;
#X connect 3 3 6 0;
#X connect 3 4 7 0;
#X connect 3 5 8 0;
#X connect 3 6 9 0;
#X connect 3 7 10 0;
#X connect 4 0 1 0;
#X connect 5 0 1 0;
#X connect 6 0 1 0;
#X connect 7 0 1 0;
#X connect 8 0 1 0;
#X connect 9 0 1 0;
#X connect 10 0 1 0;
#X restore 60 140 pd atoi;
#X obj 269 114 extra/sv nb_serial_device;
#X obj 466 141 + 1;
#X obj 174 81 t l b;
#X obj 63 189 pack f s f;
#X obj 269 139 - 1;
#X msg 63 215 \; serial\$3_name label \$2-(\$1);
#X obj 328 299 route 0 1 2 3 4;
#X obj 328 227 pack f f;
#X text 60 258 final name written on meny;
#X text 335 252 link between port name and position in menu;
#X obj 171 325 extra/sv serial0_num;
#X obj 328 201 i;
#X obj 365 161 t b f;
#X obj 194 355 extra/sv serial1_num;
#X obj 217 385 extra/sv serial2_num;
#X obj 241 415 extra/sv serial3_num;
#X obj 264 444 extra/sv serial4_num;
#X connect 0 0 3 0;
#X connect 1 0 8 0;
#X connect 3 0 9 1;
#X connect 4 0 5 0;
#X connect 4 1 0 0;
#X connect 5 0 9 0;
#X connect 5 0 18 0;
#X connect 6 0 10 0;
#X connect 6 1 7 0;
#X connect 7 0 6 1;
#X connect 8 0 4 0;
#X connect 8 1 6 2;
#X connect 9 0 11 0;
#X connect 10 0 9 2;
#X connect 10 0 17 1;
#X connect 12 0 16 3;
#X connect 12 1 19 3;
#X connect 12 2 20 3;
#X connect 12 3 21 3;
#X connect 12 4 22 3;
#X connect 13 0 12 0;
#X connect 17 0 13 0;
#X connect 18 0 17 0;
#X connect 18 1 13 1;
#X restore 446 358 pd makeDeviceList;
#X obj 412 315 route ports open;
#X msg 436 248 ports;
#X obj 504 270 extra/sv nb_serial_device;
#X msg 700 225 0;
#N canvas 233 69 450 300 clearmenu 0;
#X obj 129 6 inlet;
#X msg 21 59 \; serial0_name label ---;
#X msg 21 109 \; serial1_name label ---;
#X msg 21 159 \; serial2_name label ---;
#X msg 21 201 \; serial3_name label ---;
#X msg 21 241 \; serial4_name label ---;
#X connect 0 0 1 0;
#X connect 0 0 2 0;
#X connect 0 0 3 0;
#X connect 0 0 4 0;
#X connect 0 0 5 0;
#X restore 740 245 pd clearmenu;
#X obj 504 205 t b b b;
#X msg 496 68 0;
#X obj 496 45 delay 1000;
#X obj 495 25 bang;
#X obj 496 2 r serial_choice_in;
#X msg 684 159 \; pd-arduino_config vis 0;
#X msg 168 163 close;
#X obj 289 171 - 1;
#X floatatom 289 198 5 0 0 0 - - -, f 5;
#N canvas 498 297 972 525 save_and_open 0;
#X msg 151 316 clear;
#X obj -59 414 textfile;
#X msg -155 316 write serial_port.txt;
#X obj 101 186 extra/sv serial0_num;
#X obj 221 8 r serial_choice_in;
#X obj 221 44 sel 0;
#X obj -88 249 t b l b;
#X obj 258 70 sel 1 2 3 4 5;
#X msg 258 211 1 \$1;
#X obj 121 165 extra/sv serial1_num;
#X msg 278 190 2 \$1;
#X msg 298 167 3 \$1;
#X msg 318 146 4 \$1;
#X obj 161 121 extra/sv serial3_num;
#X obj 141 142 extra/sv serial2_num;
#X msg 338 121 5 \$1;
#X obj 181 96 extra/sv serial4_num;
#X obj 232 393 s port_to_open;
#X obj 217 292 unpack f f;
#X text -21 85 SAVE;
#X obj 499 73 loadbang;
#X msg 493 236 rewind;
#X obj 513 286 textfile;
#X obj 582 76 bng 15 250 50 0 empty empty empty 17 7 0 10 -262144 -1
-1;
#X text 123 354 and open the righ serial port;
#X text 538 36 OPEN from text file;
#X msg 561 238 read serial_port.txt;
#X obj 513 321 unpack f f;
#X floatatom 512 348 5 0 0 0 - - -, f 5;
#X floatatom 590 348 5 0 0 0 - - -, f 5;
#X obj 499 103 t b b b;
#X msg 451 235 bang;
#X msg 512 408 set \$1;
#X obj 512 433 s serial_choice_out;
#X obj 590 407 s port_to_open;
#X msg 35 316 add2 \$1 \$2;
#X obj 294 323 + 1;
#X obj 590 377 + 1;
#X msg -88 217 0 -1;
#X connect 0 0 1 0;
#X connect 2 0 1 0;
#X connect 3 1 8 0;
#X connect 4 0 5 0;
#X connect 5 0 38 0;
#X connect 5 1 7 0;
#X connect 6 0 2 0;
#X connect 6 1 35 0;
#X connect 6 1 18 0;
#X connect 6 2 0 0;
#X connect 7 0 3 2;
#X connect 7 1 9 2;
#X connect 7 2 14 2;
#X connect 7 3 13 2;
#X connect 7 4 16 2;
#X connect 8 0 6 0;
#X connect 9 1 10 0;
#X connect 10 0 6 0;
#X connect 11 0 6 0;
#X connect 12 0 6 0;
#X connect 13 1 12 0;
#X connect 14 1 11 0;
#X connect 15 0 6 0;
#X connect 16 1 15 0;
#X connect 18 1 36 0;
#X connect 20 0 30 0;
#X connect 21 0 22 0;
#X connect 22 0 27 0;
#X connect 23 0 30 0;
#X connect 26 0 22 0;
#X connect 27 0 28 0;
#X connect 27 1 29 0;
#X connect 28 0 32 0;
#X connect 29 0 37 0;
#X connect 30 0 31 0;
#X connect 30 1 21 0;
#X connect 30 2 26 0;
#X connect 31 0 22 0;
#X connect 32 0 33 0;
#X connect 35 0 1 0;
#X connect 36 0 17 0;
#X connect 37 0 34 0;
#X connect 38 0 6 0;
#X restore 698 379 pd save_and_open;
#N canvas 688 253 450 300 init 0;
#X obj 79 71 extra/sv serial0_num;
#X obj 102 101 extra/sv serial1_num;
#X obj 125 131 extra/sv serial2_num;
#X obj 149 161 extra/sv serial3_num;
#X obj 172 190 extra/sv serial4_num;
#X obj 242 9 loadbang;
#X msg 242 36 0;
#X msg 279 62 1;
#X msg 294 95 2;
#X msg 317 130 3;
#X msg 332 159 4;
#X connect 5 0 6 0;
#X connect 5 0 7 0;
#X connect 5 0 8 0;
#X connect 5 0 9 0;
#X connect 5 0 10 0;
#X connect 6 0 0 3;
#X connect 7 0 1 3;
#X connect 8 0 2 3;
#X connect 9 0 3 3;
#X connect 10 0 4 3;
#X restore 369 68 pd init;
#X obj 168 111 r port_to_open;
#X obj 506 135 cnv 15 180 15 empty current_serial_name connected_port:0
5 10 0 11 -233017 -66577 0;
#N canvas 534 480 543 300 displayport 0;
#X obj 153 27 inlet;
#X msg 82 144 \; current_serial_name label no_arduino_connected;
#X text 239 28 Display name on the small canva;
#X msg 152 104 \; current_serial_name label connected_port:\$1;
#X obj 190 79 - 1;
#X text 245 57 300 means there is no arduino;
#X obj 153 54 sel 0;
#X connect 0 0 6 0;
#X connect 4 0 3 0;
#X connect 6 0 1 0;
#X connect 6 1 4 0;
#X restore 243 136 pd displayport;
#X obj 168 139 sel 0;
#X obj 287 392 print msg_arduino;
#X connect 0 0 15 0;
#X connect 1 0 0 0;
#X connect 5 0 4 0;
#X connect 6 0 11 0;
#X connect 7 0 6 1;
#X connect 10 0 8 0;
#X connect 10 1 9 0;
#X connect 12 0 14 0;
#X connect 12 1 13 0;
#X connect 13 0 15 0;
#X connect 14 0 15 0;
#X connect 15 0 5 0;
#X connect 15 0 6 0;
#X connect 15 0 42 0;
#X connect 15 1 22 0;
#X connect 16 0 10 0;
#X connect 19 0 20 0;
#X connect 20 0 27 0;
#X connect 20 1 32 0;
#X connect 22 0 21 0;
#X connect 23 0 15 0;
#X connect 25 0 24 3;
#X connect 25 0 26 0;
#X connect 27 0 18 0;
#X connect 27 1 23 0;
#X connect 27 2 25 0;
#X connect 28 0 19 0;
#X connect 29 0 28 0;
#X connect 30 0 29 0;
#X connect 31 0 30 0;
#X connect 33 0 15 0;
#X connect 34 0 35 0;
#X connect 35 0 12 0;
#X connect 38 0 40 0;
#X connect 38 0 41 0;
#X connect 41 0 33 0;
#X connect 41 1 34 0;
#X coords 0 -1 1 1 191 53 1 500 100;
