#N canvas 2310 220 682 533 12;
#X obj 80 -107 inlet;
#X obj 80 79 route 1 2 3 4 5 6;
#X obj 80 324 *~ 0.15;
#X obj 80 -58 unpack f f;
#X floatatom 80 -36 5 0 0 0 - - -;
#X floatatom 124 -30 5 0 0 0 - - -;
#X obj 80 -80 pack f f;
#X obj 81 396 outlet~;
#N canvas 1527 100 1142 741 voice1 0;
#X obj 43 6 inlet;
#X obj 43 28 unpack f f;
#X obj 544 71 sel 0;
#X obj 43 94 +~;
#X obj 43 117 mtof~;
#X obj 43 517 outlet~;
#X obj 43 50 sig~;
#X obj 43 72 -~ 24;
#X obj 43 188 tabosc4~ \$0-saw;
#X obj 43 340 vcf~ 1;
#X obj 59 140 r \$0-timbre1-CV;
#X obj 59 161 * 5000;
#X obj 63 233 sig~;
#X obj 118 293 + 1;
#X obj 118 270 * 9;
#X obj 118 248 r \$0-timbre2-CV;
#X obj 717 282 + 1;
#X obj 593 385 vline~;
#X obj 558 269 + 1;
#X obj 593 434 *~;
#X obj 699 308 f;
#X obj 717 259 * 1999;
#X obj 558 247 * 3999;
#X obj 717 228 r \$0-polyfm-attack-s;
#X obj 558 223 r \$0-polyfm-release-s;
#X msg 699 332 1 \$1;
#X msg 524 326 0 \$1;
#X obj 524 275 bang;
#X obj 524 301 f 100;
#X obj 404 124 bng 15 250 50 0 empty empty empty 17 7 0 10 -262144
-1 -1;
#X obj 593 478 *~ 1;
#X obj 43 495 *~;
#X connect 0 0 1 0;
#X connect 1 0 6 0;
#X connect 1 1 2 0;
#X connect 2 0 27 0;
#X connect 2 1 20 0;
#X connect 2 1 29 0;
#X connect 3 0 4 0;
#X connect 4 0 8 0;
#X connect 6 0 7 0;
#X connect 7 0 3 0;
#X connect 8 0 9 0;
#X connect 9 0 31 0;
#X connect 9 1 31 0;
#X connect 10 0 11 0;
#X connect 11 0 12 0;
#X connect 12 0 9 1;
#X connect 13 0 9 2;
#X connect 14 0 13 0;
#X connect 15 0 14 0;
#X connect 16 0 20 1;
#X connect 17 0 19 0;
#X connect 17 0 19 1;
#X connect 18 0 28 1;
#X connect 19 0 30 0;
#X connect 20 0 25 0;
#X connect 21 0 16 0;
#X connect 22 0 18 0;
#X connect 23 0 21 0;
#X connect 24 0 22 0;
#X connect 25 0 17 0;
#X connect 26 0 17 0;
#X connect 27 0 28 0;
#X connect 28 0 26 0;
#X connect 30 0 31 1;
#X connect 31 0 5 0;
#X restore 80 129 pd voice1;
#X obj 384 98 s \$0-timbre2-CV;
#X obj 267 99 s \$0-timbre1-CV;
#X obj 259 51 hsl 128 15 0 1 0 0 empty empty empty -2 -8 0 10 -262144
-1 -1 3810 1;
#X obj 413 50 hsl 128 15 0 2 0 0 empty empty empty -2 -8 0 10 -262144
-1 -1 1905 1;
#X obj 80 17 pack f f f;
#X obj 288 269 s \$0-polyfm-attack-s;
#X obj 448 269 s \$0-polyfm-release-s;
#X obj 450 234 hsl 128 15 0 1 0 0 empty empty 1unit -2 -8 0 10 -262144
-1 -1 127 1;
#X obj 291 239 hsl 128 15 0 1 0 0 empty empty 1unit -2 -8 0 10 -262144
-1 -1 127 1;
#X obj 209 348 loadbang;
#X obj 209 370 f \$0;
#X obj 209 401 t f f;
#X text 267 352 SAW WAVE;
#X msg 208 505 \; \$1-saw normalize 1;
#X obj 206 545 table \$0-saw;
#X msg 236 428 \; \$1-saw sinesum 512 1 0.5 0.33 0.25 0.2 0.16 0.14
0.125 0.111111 0.1 0.090909 0.083333 0.076923 0.0714285 0.066666 0.0625
0.058823 0.055555 0.052631 0.05 0.047619 0.045454 0.043478 0.041666
;
#X obj 181 339 bng 15 250 50 0 empty empty empty 17 7 0 10 -262144
-1 -1;
#N canvas 1527 100 1142 741 voice1 0;
#X obj 43 6 inlet;
#X obj 43 28 unpack f f;
#X obj 544 71 sel 0;
#X obj 43 94 +~;
#X obj 43 117 mtof~;
#X obj 43 517 outlet~;
#X obj 43 50 sig~;
#X obj 43 72 -~ 24;
#X obj 43 188 tabosc4~ \$0-saw;
#X obj 43 340 vcf~ 1;
#X obj 59 140 r \$0-timbre1-CV;
#X obj 59 161 * 5000;
#X obj 63 233 sig~;
#X obj 118 293 + 1;
#X obj 118 270 * 9;
#X obj 118 248 r \$0-timbre2-CV;
#X obj 717 282 + 1;
#X obj 593 385 vline~;
#X obj 558 269 + 1;
#X obj 593 434 *~;
#X obj 699 308 f;
#X obj 717 259 * 1999;
#X obj 558 247 * 3999;
#X obj 717 228 r \$0-polyfm-attack-s;
#X obj 558 223 r \$0-polyfm-release-s;
#X msg 699 332 1 \$1;
#X msg 524 326 0 \$1;
#X obj 524 275 bang;
#X obj 524 301 f 100;
#X obj 404 124 bng 15 250 50 0 empty empty empty 17 7 0 10 -262144
-1 -1;
#X obj 593 478 *~ 1;
#X obj 43 495 *~;
#X connect 0 0 1 0;
#X connect 1 0 6 0;
#X connect 1 1 2 0;
#X connect 2 0 27 0;
#X connect 2 1 20 0;
#X connect 2 1 29 0;
#X connect 3 0 4 0;
#X connect 4 0 8 0;
#X connect 6 0 7 0;
#X connect 7 0 3 0;
#X connect 8 0 9 0;
#X connect 9 0 31 0;
#X connect 9 1 31 0;
#X connect 10 0 11 0;
#X connect 11 0 12 0;
#X connect 12 0 9 1;
#X connect 13 0 9 2;
#X connect 14 0 13 0;
#X connect 15 0 14 0;
#X connect 16 0 20 1;
#X connect 17 0 19 0;
#X connect 17 0 19 1;
#X connect 18 0 28 1;
#X connect 19 0 30 0;
#X connect 20 0 25 0;
#X connect 21 0 16 0;
#X connect 22 0 18 0;
#X connect 23 0 21 0;
#X connect 24 0 22 0;
#X connect 25 0 17 0;
#X connect 26 0 17 0;
#X connect 27 0 28 0;
#X connect 28 0 26 0;
#X connect 30 0 31 1;
#X connect 31 0 5 0;
#X restore 102 154 pd voice1;
#N canvas 1527 100 1142 741 voice1 0;
#X obj 43 6 inlet;
#X obj 43 28 unpack f f;
#X obj 544 71 sel 0;
#X obj 43 94 +~;
#X obj 43 117 mtof~;
#X obj 43 517 outlet~;
#X obj 43 50 sig~;
#X obj 43 72 -~ 24;
#X obj 43 188 tabosc4~ \$0-saw;
#X obj 43 340 vcf~ 1;
#X obj 59 140 r \$0-timbre1-CV;
#X obj 59 161 * 5000;
#X obj 63 233 sig~;
#X obj 118 293 + 1;
#X obj 118 270 * 9;
#X obj 118 248 r \$0-timbre2-CV;
#X obj 717 282 + 1;
#X obj 593 385 vline~;
#X obj 558 269 + 1;
#X obj 593 434 *~;
#X obj 699 308 f;
#X obj 717 259 * 1999;
#X obj 558 247 * 3999;
#X obj 717 228 r \$0-polyfm-attack-s;
#X obj 558 223 r \$0-polyfm-release-s;
#X msg 699 332 1 \$1;
#X msg 524 326 0 \$1;
#X obj 524 275 bang;
#X obj 524 301 f 100;
#X obj 404 124 bng 15 250 50 0 empty empty empty 17 7 0 10 -262144
-1 -1;
#X obj 593 478 *~ 1;
#X obj 43 495 *~;
#X connect 0 0 1 0;
#X connect 1 0 6 0;
#X connect 1 1 2 0;
#X connect 2 0 27 0;
#X connect 2 1 20 0;
#X connect 2 1 29 0;
#X connect 3 0 4 0;
#X connect 4 0 8 0;
#X connect 6 0 7 0;
#X connect 7 0 3 0;
#X connect 8 0 9 0;
#X connect 9 0 31 0;
#X connect 9 1 31 0;
#X connect 10 0 11 0;
#X connect 11 0 12 0;
#X connect 12 0 9 1;
#X connect 13 0 9 2;
#X connect 14 0 13 0;
#X connect 15 0 14 0;
#X connect 16 0 20 1;
#X connect 17 0 19 0;
#X connect 17 0 19 1;
#X connect 18 0 28 1;
#X connect 19 0 30 0;
#X connect 20 0 25 0;
#X connect 21 0 16 0;
#X connect 22 0 18 0;
#X connect 23 0 21 0;
#X connect 24 0 22 0;
#X connect 25 0 17 0;
#X connect 26 0 17 0;
#X connect 27 0 28 0;
#X connect 28 0 26 0;
#X connect 30 0 31 1;
#X connect 31 0 5 0;
#X restore 112 181 pd voice1;
#N canvas 1527 100 1142 741 voice1 0;
#X obj 43 6 inlet;
#X obj 43 28 unpack f f;
#X obj 544 71 sel 0;
#X obj 43 94 +~;
#X obj 43 117 mtof~;
#X obj 43 517 outlet~;
#X obj 43 50 sig~;
#X obj 43 72 -~ 24;
#X obj 43 188 tabosc4~ \$0-saw;
#X obj 43 340 vcf~ 1;
#X obj 59 140 r \$0-timbre1-CV;
#X obj 59 161 * 5000;
#X obj 63 233 sig~;
#X obj 118 293 + 1;
#X obj 118 270 * 9;
#X obj 118 248 r \$0-timbre2-CV;
#X obj 717 282 + 1;
#X obj 593 385 vline~;
#X obj 558 269 + 1;
#X obj 593 434 *~;
#X obj 699 308 f;
#X obj 717 259 * 1999;
#X obj 558 247 * 3999;
#X obj 717 228 r \$0-polyfm-attack-s;
#X obj 558 223 r \$0-polyfm-release-s;
#X msg 699 332 1 \$1;
#X msg 524 326 0 \$1;
#X obj 524 275 bang;
#X obj 524 301 f 100;
#X obj 404 124 bng 15 250 50 0 empty empty empty 17 7 0 10 -262144
-1 -1;
#X obj 593 478 *~ 1;
#X obj 43 495 *~;
#X connect 0 0 1 0;
#X connect 1 0 6 0;
#X connect 1 1 2 0;
#X connect 2 0 27 0;
#X connect 2 1 20 0;
#X connect 2 1 29 0;
#X connect 3 0 4 0;
#X connect 4 0 8 0;
#X connect 6 0 7 0;
#X connect 7 0 3 0;
#X connect 8 0 9 0;
#X connect 9 0 31 0;
#X connect 9 1 31 0;
#X connect 10 0 11 0;
#X connect 11 0 12 0;
#X connect 12 0 9 1;
#X connect 13 0 9 2;
#X connect 14 0 13 0;
#X connect 15 0 14 0;
#X connect 16 0 20 1;
#X connect 17 0 19 0;
#X connect 17 0 19 1;
#X connect 18 0 28 1;
#X connect 19 0 30 0;
#X connect 20 0 25 0;
#X connect 21 0 16 0;
#X connect 22 0 18 0;
#X connect 23 0 21 0;
#X connect 24 0 22 0;
#X connect 25 0 17 0;
#X connect 26 0 17 0;
#X connect 27 0 28 0;
#X connect 28 0 26 0;
#X connect 30 0 31 1;
#X connect 31 0 5 0;
#X restore 135 209 pd voice1;
#N canvas 1527 100 1142 741 voice1 0;
#X obj 43 6 inlet;
#X obj 43 28 unpack f f;
#X obj 544 71 sel 0;
#X obj 43 94 +~;
#X obj 43 117 mtof~;
#X obj 43 517 outlet~;
#X obj 43 50 sig~;
#X obj 43 72 -~ 24;
#X obj 43 188 tabosc4~ \$0-saw;
#X obj 43 340 vcf~ 1;
#X obj 59 140 r \$0-timbre1-CV;
#X obj 59 161 * 5000;
#X obj 63 233 sig~;
#X obj 118 293 + 1;
#X obj 118 270 * 9;
#X obj 118 248 r \$0-timbre2-CV;
#X obj 717 282 + 1;
#X obj 593 385 vline~;
#X obj 558 269 + 1;
#X obj 593 434 *~;
#X obj 699 308 f;
#X obj 717 259 * 1999;
#X obj 558 247 * 3999;
#X obj 717 228 r \$0-polyfm-attack-s;
#X obj 558 223 r \$0-polyfm-release-s;
#X msg 699 332 1 \$1;
#X msg 524 326 0 \$1;
#X obj 524 275 bang;
#X obj 524 301 f 100;
#X obj 404 124 bng 15 250 50 0 empty empty empty 17 7 0 10 -262144
-1 -1;
#X obj 593 478 *~ 1;
#X obj 43 495 *~;
#X connect 0 0 1 0;
#X connect 1 0 6 0;
#X connect 1 1 2 0;
#X connect 2 0 27 0;
#X connect 2 1 20 0;
#X connect 2 1 29 0;
#X connect 3 0 4 0;
#X connect 4 0 8 0;
#X connect 6 0 7 0;
#X connect 7 0 3 0;
#X connect 8 0 9 0;
#X connect 9 0 31 0;
#X connect 9 1 31 0;
#X connect 10 0 11 0;
#X connect 11 0 12 0;
#X connect 12 0 9 1;
#X connect 13 0 9 2;
#X connect 14 0 13 0;
#X connect 15 0 14 0;
#X connect 16 0 20 1;
#X connect 17 0 19 0;
#X connect 17 0 19 1;
#X connect 18 0 28 1;
#X connect 19 0 30 0;
#X connect 20 0 25 0;
#X connect 21 0 16 0;
#X connect 22 0 18 0;
#X connect 23 0 21 0;
#X connect 24 0 22 0;
#X connect 25 0 17 0;
#X connect 26 0 17 0;
#X connect 27 0 28 0;
#X connect 28 0 26 0;
#X connect 30 0 31 1;
#X connect 31 0 5 0;
#X restore 157 234 pd voice1;
#N canvas 1527 100 1142 741 voice1 0;
#X obj 43 6 inlet;
#X obj 43 28 unpack f f;
#X obj 544 71 sel 0;
#X obj 43 94 +~;
#X obj 43 117 mtof~;
#X obj 43 517 outlet~;
#X obj 43 50 sig~;
#X obj 43 72 -~ 24;
#X obj 43 188 tabosc4~ \$0-saw;
#X obj 43 340 vcf~ 1;
#X obj 59 140 r \$0-timbre1-CV;
#X obj 59 161 * 5000;
#X obj 63 233 sig~;
#X obj 118 293 + 1;
#X obj 118 270 * 9;
#X obj 118 248 r \$0-timbre2-CV;
#X obj 717 282 + 1;
#X obj 593 385 vline~;
#X obj 558 269 + 1;
#X obj 593 434 *~;
#X obj 699 308 f;
#X obj 717 259 * 1999;
#X obj 558 247 * 3999;
#X obj 717 228 r \$0-polyfm-attack-s;
#X obj 558 223 r \$0-polyfm-release-s;
#X msg 699 332 1 \$1;
#X msg 524 326 0 \$1;
#X obj 524 275 bang;
#X obj 524 301 f 100;
#X obj 404 124 bng 15 250 50 0 empty empty empty 17 7 0 10 -262144
-1 -1;
#X obj 593 478 *~ 1;
#X obj 43 495 *~;
#X connect 0 0 1 0;
#X connect 1 0 6 0;
#X connect 1 1 2 0;
#X connect 2 0 27 0;
#X connect 2 1 20 0;
#X connect 2 1 29 0;
#X connect 3 0 4 0;
#X connect 4 0 8 0;
#X connect 6 0 7 0;
#X connect 7 0 3 0;
#X connect 8 0 9 0;
#X connect 9 0 31 0;
#X connect 9 1 31 0;
#X connect 10 0 11 0;
#X connect 11 0 12 0;
#X connect 12 0 9 1;
#X connect 13 0 9 2;
#X connect 14 0 13 0;
#X connect 15 0 14 0;
#X connect 16 0 20 1;
#X connect 17 0 19 0;
#X connect 17 0 19 1;
#X connect 18 0 28 1;
#X connect 19 0 30 0;
#X connect 20 0 25 0;
#X connect 21 0 16 0;
#X connect 22 0 18 0;
#X connect 23 0 21 0;
#X connect 24 0 22 0;
#X connect 25 0 17 0;
#X connect 26 0 17 0;
#X connect 27 0 28 0;
#X connect 28 0 26 0;
#X connect 30 0 31 1;
#X connect 31 0 5 0;
#X restore 176 259 pd voice1;
#X obj 80 -8 poly 6 0;
#X obj 335 -24 loadbang;
#X msg 339 10 0.3;
#X obj 381 148 loadbang;
#X msg 385 182 0.01;
#X connect 0 0 6 0;
#X connect 1 0 8 0;
#X connect 1 1 26 0;
#X connect 1 2 27 0;
#X connect 1 3 28 0;
#X connect 1 4 29 0;
#X connect 1 5 30 0;
#X connect 2 0 7 0;
#X connect 3 0 4 0;
#X connect 3 1 5 0;
#X connect 4 0 31 0;
#X connect 5 0 31 1;
#X connect 6 0 3 0;
#X connect 8 0 2 0;
#X connect 11 0 10 0;
#X connect 12 0 9 0;
#X connect 13 0 1 0;
#X connect 16 0 15 0;
#X connect 17 0 14 0;
#X connect 18 0 19 0;
#X connect 19 0 20 0;
#X connect 20 0 22 0;
#X connect 20 1 24 0;
#X connect 25 0 19 0;
#X connect 26 0 2 0;
#X connect 27 0 2 0;
#X connect 28 0 2 0;
#X connect 29 0 2 0;
#X connect 30 0 2 0;
#X connect 31 0 13 0;
#X connect 31 1 13 1;
#X connect 31 2 13 2;
#X connect 32 0 33 0;
#X connect 33 0 12 0;
#X connect 33 0 11 0;
#X connect 34 0 35 0;
#X connect 35 0 16 0;
#X connect 35 0 17 0;
