#N canvas 541 172 682 533 12;
#X obj 80 -117 inlet;
#X obj 80 79 route 1 2 3 4 5 6;
#N canvas 370 30 1053 611 voice1 0;
#X obj 43 6 inlet;
#X obj 43 28 unpack f f;
#X obj 561 52 sel 0;
#X obj 43 94 +~;
#X obj 43 117 mtof~;
#X obj 43 495 *~;
#X obj 43 517 outlet~;
#X obj 717 282 + 1;
#X obj 593 385 vline~;
#X obj 558 269 + 1;
#X obj 593 434 *~;
#X obj 593 478 *~;
#X obj 699 308 f;
#X obj 43 50 sig~;
#X obj 717 259 * 1999;
#X obj 558 247 * 3999;
#X obj 43 210 phasor~;
#X obj 43 248 +~;
#X obj 43 309 cos~;
#X obj 717 228 r \$0-polyfm-attack-s;
#X obj 558 223 r \$0-polyfm-release-s;
#X obj 43 331 *~;
#X obj 43 353 cos~;
#X obj 43 72 -~ 24;
#X obj 294 161 osc~;
#X obj 294 231 *~;
#X obj 294 134 *~ 2;
#X obj 309 184 r \$0-timbre2-CV;
#X obj 111 270 r \$0-timbre1-CV;
#X floatatom 2 55 5 0 0 0 - - -;
#X obj 111 292 * 2;
#X obj 111 314 + 1;
#X obj 309 206 * 0.25;
#X msg 699 332 1 \$1;
#X msg 524 326 0 \$1;
#X obj 524 275 bang;
#X obj 524 301 f 100;
#X connect 0 0 1 0;
#X connect 1 0 13 0;
#X connect 1 0 29 0;
#X connect 1 1 2 0;
#X connect 2 0 35 0;
#X connect 2 1 12 0;
#X connect 3 0 4 0;
#X connect 4 0 16 0;
#X connect 4 0 26 0;
#X connect 5 0 6 0;
#X connect 7 0 12 1;
#X connect 8 0 10 0;
#X connect 8 0 10 1;
#X connect 9 0 36 1;
#X connect 10 0 11 0;
#X connect 11 0 5 1;
#X connect 12 0 33 0;
#X connect 13 0 23 0;
#X connect 14 0 7 0;
#X connect 15 0 9 0;
#X connect 16 0 17 0;
#X connect 17 0 18 0;
#X connect 18 0 21 0;
#X connect 19 0 14 0;
#X connect 20 0 15 0;
#X connect 21 0 22 0;
#X connect 22 0 5 0;
#X connect 23 0 3 0;
#X connect 24 0 25 0;
#X connect 25 0 17 1;
#X connect 26 0 24 0;
#X connect 27 0 32 0;
#X connect 28 0 30 0;
#X connect 30 0 31 0;
#X connect 31 0 21 1;
#X connect 32 0 25 1;
#X connect 33 0 8 0;
#X connect 34 0 8 0;
#X connect 35 0 36 0;
#X connect 36 0 34 0;
#X restore 80 138 pd voice1;
#X obj 80 324 *~ 0.15;
#X obj 80 -68 unpack f f;
#X floatatom 80 -46 5 0 0 0 - - -;
#X floatatom 124 -40 5 0 0 0 - - -;
#X obj 80 -90 pack f f;
#X obj 72 403 outlet~;
#X obj 447 258 s \$0-polyfm-release-s;
#X obj 265 434 s \$0-polyfm-hold-s;
#X obj 298 258 s \$0-polyfm-attack-s;
#X obj 438 93 s \$0-timbre2-CV;
#X obj 322 93 s \$0-timbre1-CV;
#X obj 441 63 hsl 128 15 0 1 0 0 empty empty 1unit -2 -8 0 10 -262144
-1 -1 6350 1;
#X obj 300 63 hsl 128 15 0 1 0 0 empty empty 1unit -2 -8 0 10 -262144
-1 -1 6350 1;
#X obj 80 17 pack f f f;
#X obj 301 235 hsl 128 15 0 1 0 0 empty empty 1unit -2 -8 0 10 -262144
-1 -1 63 1;
#X obj 450 234 hsl 128 15 0 1 0 0 empty empty 1unit -2 -8 0 10 -262144
-1 -1 63 1;
#N canvas 168 23 1053 611 voice1 0;
#X obj 43 6 inlet;
#X obj 43 28 unpack f f;
#X obj 561 52 sel 0;
#X obj 43 94 +~;
#X obj 43 117 mtof~;
#X obj 43 495 *~;
#X obj 43 517 outlet~;
#X obj 717 282 + 1;
#X obj 593 385 vline~;
#X obj 558 269 + 1;
#X obj 593 434 *~;
#X obj 593 478 *~;
#X obj 699 308 f;
#X obj 43 50 sig~;
#X obj 717 259 * 1999;
#X obj 558 247 * 3999;
#X obj 43 210 phasor~;
#X obj 43 248 +~;
#X obj 43 309 cos~;
#X obj 717 228 r \$0-polyfm-attack-s;
#X obj 558 223 r \$0-polyfm-release-s;
#X obj 43 331 *~;
#X obj 43 353 cos~;
#X obj 43 72 -~ 24;
#X obj 294 161 osc~;
#X obj 294 231 *~;
#X obj 294 134 *~ 2;
#X obj 309 184 r \$0-timbre2-CV;
#X obj 111 270 r \$0-timbre1-CV;
#X floatatom 2 55 5 0 0 0 - - -;
#X obj 111 292 * 2;
#X obj 111 314 + 1;
#X obj 309 206 * 0.25;
#X msg 699 332 1 \$1;
#X msg 524 326 0 \$1;
#X obj 524 275 bang;
#X obj 524 301 f 100;
#X connect 0 0 1 0;
#X connect 1 0 13 0;
#X connect 1 0 29 0;
#X connect 1 1 2 0;
#X connect 2 0 35 0;
#X connect 2 1 12 0;
#X connect 3 0 4 0;
#X connect 4 0 16 0;
#X connect 4 0 26 0;
#X connect 5 0 6 0;
#X connect 7 0 12 1;
#X connect 8 0 10 0;
#X connect 8 0 10 1;
#X connect 9 0 36 1;
#X connect 10 0 11 0;
#X connect 10 0 11 1;
#X connect 11 0 5 1;
#X connect 12 0 33 0;
#X connect 13 0 23 0;
#X connect 14 0 7 0;
#X connect 15 0 9 0;
#X connect 16 0 17 0;
#X connect 17 0 18 0;
#X connect 18 0 21 0;
#X connect 19 0 14 0;
#X connect 20 0 15 0;
#X connect 21 0 22 0;
#X connect 22 0 5 0;
#X connect 23 0 3 0;
#X connect 24 0 25 0;
#X connect 25 0 17 1;
#X connect 26 0 24 0;
#X connect 27 0 32 0;
#X connect 28 0 30 0;
#X connect 30 0 31 0;
#X connect 31 0 21 1;
#X connect 32 0 25 1;
#X connect 33 0 8 0;
#X connect 34 0 8 0;
#X connect 35 0 36 0;
#X connect 36 0 34 0;
#X restore 96 160 pd voice1;
#N canvas 168 23 1053 611 voice1 0;
#X obj 43 6 inlet;
#X obj 43 28 unpack f f;
#X obj 561 52 sel 0;
#X obj 43 94 +~;
#X obj 43 117 mtof~;
#X obj 43 495 *~;
#X obj 43 517 outlet~;
#X obj 717 282 + 1;
#X obj 593 385 vline~;
#X obj 558 269 + 1;
#X obj 593 434 *~;
#X obj 593 478 *~;
#X obj 699 308 f;
#X obj 43 50 sig~;
#X obj 717 259 * 1999;
#X obj 558 247 * 3999;
#X obj 43 210 phasor~;
#X obj 43 248 +~;
#X obj 43 309 cos~;
#X obj 717 228 r \$0-polyfm-attack-s;
#X obj 558 223 r \$0-polyfm-release-s;
#X obj 43 331 *~;
#X obj 43 353 cos~;
#X obj 43 72 -~ 24;
#X obj 294 161 osc~;
#X obj 294 231 *~;
#X obj 294 134 *~ 2;
#X obj 309 184 r \$0-timbre2-CV;
#X obj 111 270 r \$0-timbre1-CV;
#X floatatom 2 55 5 0 0 0 - - -;
#X obj 111 292 * 2;
#X obj 111 314 + 1;
#X obj 309 206 * 0.25;
#X msg 699 332 1 \$1;
#X msg 524 326 0 \$1;
#X obj 524 275 bang;
#X obj 524 301 f 100;
#X connect 0 0 1 0;
#X connect 1 0 13 0;
#X connect 1 0 29 0;
#X connect 1 1 2 0;
#X connect 2 0 35 0;
#X connect 2 1 12 0;
#X connect 3 0 4 0;
#X connect 4 0 16 0;
#X connect 4 0 26 0;
#X connect 5 0 6 0;
#X connect 7 0 12 1;
#X connect 8 0 10 0;
#X connect 8 0 10 1;
#X connect 9 0 36 1;
#X connect 10 0 11 0;
#X connect 10 0 11 1;
#X connect 11 0 5 1;
#X connect 12 0 33 0;
#X connect 13 0 23 0;
#X connect 14 0 7 0;
#X connect 15 0 9 0;
#X connect 16 0 17 0;
#X connect 17 0 18 0;
#X connect 18 0 21 0;
#X connect 19 0 14 0;
#X connect 20 0 15 0;
#X connect 21 0 22 0;
#X connect 22 0 5 0;
#X connect 23 0 3 0;
#X connect 24 0 25 0;
#X connect 25 0 17 1;
#X connect 26 0 24 0;
#X connect 27 0 32 0;
#X connect 28 0 30 0;
#X connect 30 0 31 0;
#X connect 31 0 21 1;
#X connect 32 0 25 1;
#X connect 33 0 8 0;
#X connect 34 0 8 0;
#X connect 35 0 36 0;
#X connect 36 0 34 0;
#X restore 113 181 pd voice1;
#N canvas 168 23 1053 611 voice1 0;
#X obj 43 6 inlet;
#X obj 43 28 unpack f f;
#X obj 561 52 sel 0;
#X obj 43 94 +~;
#X obj 43 117 mtof~;
#X obj 43 495 *~;
#X obj 43 517 outlet~;
#X obj 717 282 + 1;
#X obj 593 385 vline~;
#X obj 558 269 + 1;
#X obj 593 434 *~;
#X obj 593 478 *~;
#X obj 699 308 f;
#X obj 43 50 sig~;
#X obj 717 259 * 1999;
#X obj 558 247 * 3999;
#X obj 43 210 phasor~;
#X obj 43 248 +~;
#X obj 43 309 cos~;
#X obj 717 228 r \$0-polyfm-attack-s;
#X obj 558 223 r \$0-polyfm-release-s;
#X obj 43 331 *~;
#X obj 43 353 cos~;
#X obj 43 72 -~ 24;
#X obj 294 161 osc~;
#X obj 294 231 *~;
#X obj 294 134 *~ 2;
#X obj 309 184 r \$0-timbre2-CV;
#X obj 111 270 r \$0-timbre1-CV;
#X floatatom 2 55 5 0 0 0 - - -;
#X obj 111 292 * 2;
#X obj 111 314 + 1;
#X obj 309 206 * 0.25;
#X msg 699 332 1 \$1;
#X msg 524 326 0 \$1;
#X obj 524 275 bang;
#X obj 524 301 f 100;
#X connect 0 0 1 0;
#X connect 1 0 13 0;
#X connect 1 0 29 0;
#X connect 1 1 2 0;
#X connect 2 0 35 0;
#X connect 2 1 12 0;
#X connect 3 0 4 0;
#X connect 4 0 16 0;
#X connect 4 0 26 0;
#X connect 5 0 6 0;
#X connect 7 0 12 1;
#X connect 8 0 10 0;
#X connect 8 0 10 1;
#X connect 9 0 36 1;
#X connect 10 0 11 0;
#X connect 10 0 11 1;
#X connect 11 0 5 1;
#X connect 12 0 33 0;
#X connect 13 0 23 0;
#X connect 14 0 7 0;
#X connect 15 0 9 0;
#X connect 16 0 17 0;
#X connect 17 0 18 0;
#X connect 18 0 21 0;
#X connect 19 0 14 0;
#X connect 20 0 15 0;
#X connect 21 0 22 0;
#X connect 22 0 5 0;
#X connect 23 0 3 0;
#X connect 24 0 25 0;
#X connect 25 0 17 1;
#X connect 26 0 24 0;
#X connect 27 0 32 0;
#X connect 28 0 30 0;
#X connect 30 0 31 0;
#X connect 31 0 21 1;
#X connect 32 0 25 1;
#X connect 33 0 8 0;
#X connect 34 0 8 0;
#X connect 35 0 36 0;
#X connect 36 0 34 0;
#X restore 136 205 pd voice1;
#N canvas 168 23 1053 611 voice1 0;
#X obj 43 6 inlet;
#X obj 43 28 unpack f f;
#X obj 561 52 sel 0;
#X obj 43 94 +~;
#X obj 43 117 mtof~;
#X obj 43 495 *~;
#X obj 43 517 outlet~;
#X obj 717 282 + 1;
#X obj 593 385 vline~;
#X obj 558 269 + 1;
#X obj 593 434 *~;
#X obj 593 478 *~;
#X obj 699 308 f;
#X obj 43 50 sig~;
#X obj 717 259 * 1999;
#X obj 558 247 * 3999;
#X obj 43 210 phasor~;
#X obj 43 248 +~;
#X obj 43 309 cos~;
#X obj 717 228 r \$0-polyfm-attack-s;
#X obj 558 223 r \$0-polyfm-release-s;
#X obj 43 331 *~;
#X obj 43 353 cos~;
#X obj 43 72 -~ 24;
#X obj 294 161 osc~;
#X obj 294 231 *~;
#X obj 294 134 *~ 2;
#X obj 309 184 r \$0-timbre2-CV;
#X obj 111 270 r \$0-timbre1-CV;
#X floatatom 2 55 5 0 0 0 - - -;
#X obj 111 292 * 2;
#X obj 111 314 + 1;
#X obj 309 206 * 0.25;
#X msg 699 332 1 \$1;
#X msg 524 326 0 \$1;
#X obj 524 275 bang;
#X obj 524 301 f 100;
#X connect 0 0 1 0;
#X connect 1 0 13 0;
#X connect 1 0 29 0;
#X connect 1 1 2 0;
#X connect 2 0 35 0;
#X connect 2 1 12 0;
#X connect 3 0 4 0;
#X connect 4 0 16 0;
#X connect 4 0 26 0;
#X connect 5 0 6 0;
#X connect 7 0 12 1;
#X connect 8 0 10 0;
#X connect 8 0 10 1;
#X connect 9 0 36 1;
#X connect 10 0 11 0;
#X connect 10 0 11 1;
#X connect 11 0 5 1;
#X connect 12 0 33 0;
#X connect 13 0 23 0;
#X connect 14 0 7 0;
#X connect 15 0 9 0;
#X connect 16 0 17 0;
#X connect 17 0 18 0;
#X connect 18 0 21 0;
#X connect 19 0 14 0;
#X connect 20 0 15 0;
#X connect 21 0 22 0;
#X connect 22 0 5 0;
#X connect 23 0 3 0;
#X connect 24 0 25 0;
#X connect 25 0 17 1;
#X connect 26 0 24 0;
#X connect 27 0 32 0;
#X connect 28 0 30 0;
#X connect 30 0 31 0;
#X connect 31 0 21 1;
#X connect 32 0 25 1;
#X connect 33 0 8 0;
#X connect 34 0 8 0;
#X connect 35 0 36 0;
#X connect 36 0 34 0;
#X restore 156 227 pd voice1;
#N canvas 168 23 1053 611 voice1 0;
#X obj 43 6 inlet;
#X obj 43 28 unpack f f;
#X obj 561 52 sel 0;
#X obj 43 94 +~;
#X obj 43 117 mtof~;
#X obj 43 495 *~;
#X obj 43 517 outlet~;
#X obj 717 282 + 1;
#X obj 593 385 vline~;
#X obj 558 269 + 1;
#X obj 593 434 *~;
#X obj 593 478 *~;
#X obj 699 308 f;
#X obj 43 50 sig~;
#X obj 717 259 * 1999;
#X obj 558 247 * 3999;
#X obj 43 210 phasor~;
#X obj 43 248 +~;
#X obj 43 309 cos~;
#X obj 717 228 r \$0-polyfm-attack-s;
#X obj 558 223 r \$0-polyfm-release-s;
#X obj 43 331 *~;
#X obj 43 353 cos~;
#X obj 43 72 -~ 24;
#X obj 294 161 osc~;
#X obj 294 231 *~;
#X obj 294 134 *~ 2;
#X obj 309 184 r \$0-timbre2-CV;
#X obj 111 270 r \$0-timbre1-CV;
#X floatatom 2 55 5 0 0 0 - - -;
#X obj 111 292 * 2;
#X obj 111 314 + 1;
#X obj 309 206 * 0.25;
#X msg 699 332 1 \$1;
#X msg 524 326 0 \$1;
#X obj 524 275 bang;
#X obj 524 301 f 100;
#X connect 0 0 1 0;
#X connect 1 0 13 0;
#X connect 1 0 29 0;
#X connect 1 1 2 0;
#X connect 2 0 35 0;
#X connect 2 1 12 0;
#X connect 3 0 4 0;
#X connect 4 0 16 0;
#X connect 4 0 26 0;
#X connect 5 0 6 0;
#X connect 7 0 12 1;
#X connect 8 0 10 0;
#X connect 8 0 10 1;
#X connect 9 0 36 1;
#X connect 10 0 11 0;
#X connect 10 0 11 1;
#X connect 11 0 5 1;
#X connect 12 0 33 0;
#X connect 13 0 23 0;
#X connect 14 0 7 0;
#X connect 15 0 9 0;
#X connect 16 0 17 0;
#X connect 17 0 18 0;
#X connect 18 0 21 0;
#X connect 19 0 14 0;
#X connect 20 0 15 0;
#X connect 21 0 22 0;
#X connect 22 0 5 0;
#X connect 23 0 3 0;
#X connect 24 0 25 0;
#X connect 25 0 17 1;
#X connect 26 0 24 0;
#X connect 27 0 32 0;
#X connect 28 0 30 0;
#X connect 30 0 31 0;
#X connect 31 0 21 1;
#X connect 32 0 25 1;
#X connect 33 0 8 0;
#X connect 34 0 8 0;
#X connect 35 0 36 0;
#X connect 36 0 34 0;
#X restore 173 248 pd voice1;
#X obj 80 -18 poly 6 0;
#X obj 401 -45 loadbang;
#X msg 401 -21 0.5;
#X obj 416 138 loadbang;
#X msg 416 162 0.005;
#X connect 0 0 7 0;
#X connect 1 0 2 0;
#X connect 1 1 19 0;
#X connect 1 2 20 0;
#X connect 1 3 21 0;
#X connect 1 4 22 0;
#X connect 1 5 23 0;
#X connect 2 0 3 0;
#X connect 3 0 8 0;
#X connect 4 0 5 0;
#X connect 4 1 6 0;
#X connect 5 0 24 0;
#X connect 6 0 24 1;
#X connect 7 0 4 0;
#X connect 14 0 12 0;
#X connect 15 0 13 0;
#X connect 16 0 1 0;
#X connect 17 0 11 0;
#X connect 18 0 9 0;
#X connect 19 0 3 0;
#X connect 20 0 3 0;
#X connect 21 0 3 0;
#X connect 22 0 3 0;
#X connect 23 0 3 0;
#X connect 24 0 16 0;
#X connect 24 1 16 1;
#X connect 24 2 16 2;
#X connect 25 0 26 0;
#X connect 26 0 14 0;
#X connect 26 0 15 0;
#X connect 27 0 28 0;
#X connect 28 0 18 0;
#X connect 28 0 17 0;
