#N canvas 245 62 1131 429 10;
#X obj 260 -53 inlet~;
#X obj 543 -52 inlet;
#X obj 598 -53 inlet;
#X obj 598 -28 / 255;
#X obj 598 -2 * 100;
#N canvas 194 89 714 537 read_midi 0;
#X obj -128 59 i 0;
#X obj -157 93 sel 0;
#X obj -182 145 i 0;
#X obj -195 17 t b f;
#X obj -215 219 i 0;
#X obj -78 220 t b f;
#X msg -126 374 1;
#X text -221 201 derniere note jouée;
#X obj -261 146 i 0;
#X obj -130 122 bang;
#X obj -267 279 ==;
#X obj -267 308 sel 1;
#X msg -235 374 0;
#X obj -210 336 bng 15 250 50 0 empty empty empty 17 7 0 10 -262144
-1 -1;
#X obj -262 191 t f b;
#X obj -193 423 outlet;
#X obj -196 -46 inlet;
#X obj -51 423 outlet;
#X obj -195 -14 unpack f f;
#X connect 0 0 1 0;
#X connect 1 0 8 0;
#X connect 1 1 9 0;
#X connect 2 0 4 1;
#X connect 2 0 5 0;
#X connect 3 0 0 0;
#X connect 3 1 2 1;
#X connect 3 1 8 1;
#X connect 4 0 10 1;
#X connect 5 0 6 0;
#X connect 5 1 17 0;
#X connect 6 0 15 0;
#X connect 8 0 14 0;
#X connect 9 0 2 0;
#X connect 10 0 11 0;
#X connect 11 0 12 0;
#X connect 11 0 13 0;
#X connect 12 0 15 0;
#X connect 14 0 10 0;
#X connect 14 1 4 0;
#X connect 16 0 18 0;
#X connect 18 0 3 0;
#X connect 18 1 0 1;
#X restore 518 139 pd read_midi;
#X obj 533 50 extra/sv synth_voice_rec;
#X obj 598 21 s \$0_inlet3;
#X obj 915 -28 extra/sv module_selected;
#X obj 915 -5 == \$1;
#X obj 792 56 spigot;
#X obj 724 -62 notein;
#X obj 501 -52 bng 40 250 50 0 empty empty REC 17 7 0 10 -259608 -1
-1;
#X obj 724 19 pack f f;
#X msg 501 16 1;
#X obj 753 285 synth_voice_1ch;
#X floatatom 512 177 5 0 0 0 - - -, f 5;
#X floatatom 559 179 5 0 0 0 - - -, f 5;
#N canvas 175 143 704 592 8_channel_management 0;
#X obj 90 -5 inlet;
#X obj 90 26 route 0;
#X obj 84 101 synth_midi_1ch 1;
#X obj 130 147 synth_midi_1ch 2;
#X obj 176 193 synth_midi_1ch 3;
#X obj 85 315 outlet;
#X obj 131 315 outlet;
#X obj 176 316 outlet;
#X obj 222 316 outlet;
#X obj 176 129 bng 15 250 50 0 empty empty empty 17 7 0 10 -262144
-1 -1;
#X obj 106 131 bng 15 250 50 0 empty empty empty 17 7 0 10 -262144
-1 -1;
#X floatatom 46 88 5 0 0 0 - - -, f 5;
#X floatatom 194 83 5 0 0 0 - - -, f 5;
#X obj 151 49 unpack f f;
#X obj 222 239 synth_midi_1ch 4;
#X connect 0 0 1 0;
#X connect 1 0 11 0;
#X connect 1 0 2 1;
#X connect 1 1 13 0;
#X connect 2 0 5 0;
#X connect 2 1 3 0;
#X connect 2 1 10 0;
#X connect 2 2 3 1;
#X connect 2 2 9 0;
#X connect 3 0 6 0;
#X connect 3 1 4 0;
#X connect 3 2 4 1;
#X connect 4 0 7 0;
#X connect 4 1 14 0;
#X connect 4 2 14 1;
#X connect 13 1 12 0;
#X connect 13 1 2 0;
#X connect 14 0 8 0;
#X restore 867 113 pd 8_channel_management;
#X obj 724 -7 f 0;
#X obj 724 -36 t b f;
#X obj 853 285 synth_voice_1ch;
#X obj 951 284 synth_voice_1ch;
#X obj 1049 284 synth_voice_1ch;
#X floatatom 768 -31 5 0 0 0 - - -, f 5;
#X obj 687 159 list;
#X obj 833 7 == 1;
#X obj 686 119 extra/sv synth_voice_midiin;
#X obj 774 97 bng 15 250 50 0 empty empty empty 17 7 0 10 -262144 -1
-1;
#N canvas 297 71 537 389 init 0;
#X obj -2 149 extra/sv synth_voice_chunk;
#X msg 49 126 80;
#X obj 176 52 loadbang;
#X obj 251 145 extra/sv synth_voice_rec;
#X msg 298 116 0;
#X obj 245 175 extra/sv synth_voice_midiin;
#X obj 101 271 extra/sv \$4_synth_volume;
#X msg 148 224 100;
#X obj 281 300 extra/sv \$4_synth_sendA;
#X obj 353 279 extra/sv \$4_synth_sendB;
#X msg 254 241 0;
#X connect 1 0 0 1;
#X connect 2 0 1 0;
#X connect 2 0 4 0;
#X connect 2 0 7 0;
#X connect 2 0 10 0;
#X connect 4 0 3 1;
#X connect 4 0 5 1;
#X connect 7 0 6 1;
#X connect 10 0 8 1;
#X connect 10 0 9 1;
#X restore 255 135 pd init;
#N canvas 704 477 660 298 record 0;
#N canvas 0 50 450 300 (subpatch) 0;
#X array synth_voice 44103 float 0;
#X coords 0 1.02 44102 -1.02 200 130 1;
#X restore 442 61 graph;
#X text 444 195 --- 44103 samples ---;
#X obj 45 -136 hip~ 5;
#X msg 240 33 bang;
#X text 282 53 <-- record;
#X obj 45 -161 inlet~;
#X obj 208 -163 inlet;
#X obj 240 -23 bang;
#X obj 277 -22 bng 15 250 50 0 empty empty empty 17 7 0 10 -262144
-1 -1;
#X obj 45 228 tabwrite~ synth_voice;
#X obj 47 306 extra/sv synth_voice_rec;
#X msg 115 277 0;
#X obj 64 -105 env~;
#X floatatom 122 -29 5 0 0 0 - - -, f 5;
#X text 311 -117 WAIT FOR SOUND;
#X obj 65 -52 > 75;
#X obj 65 -79 spigot;
#X obj 65 -29 sel 1;
#X obj 65 12 extra/sv synth_voice_rec;
#X msg 112 -9 2;
#X obj 133 -89 tgl 15 0 empty empty empty 17 7 0 10 -262144 -1 -1 0
1;
#X obj 208 -118 sel 2;
#X msg 180 -88 0;
#X obj 240 56 del 990;
#X obj 75 139 line~;
#X msg 77 98 0 10;
#X msg 116 71 1 10;
#X obj 46 166 *~;
#X connect 2 0 12 0;
#X connect 2 0 27 0;
#X connect 3 0 9 0;
#X connect 3 0 23 0;
#X connect 3 0 26 0;
#X connect 5 0 2 0;
#X connect 6 0 21 0;
#X connect 7 0 3 0;
#X connect 11 0 10 1;
#X connect 12 0 16 0;
#X connect 15 0 17 0;
#X connect 16 0 15 0;
#X connect 17 0 19 0;
#X connect 19 0 18 1;
#X connect 20 0 16 1;
#X connect 21 0 8 0;
#X connect 21 0 7 0;
#X connect 21 0 22 0;
#X connect 21 1 20 0;
#X connect 22 0 20 0;
#X connect 23 0 11 0;
#X connect 23 0 25 0;
#X connect 24 0 27 1;
#X connect 25 0 24 0;
#X connect 26 0 24 0;
#X connect 27 0 9 0;
#X restore 259 89 pd record;
#X floatatom 538 85 5 0 0 0 - - -, f 5;
#X obj 90 292 inlet;
#X obj 133 292 bng 15 250 50 0 empty empty empty 17 7 0 10 -262144
-1 -1;
#X obj 458 -122 extra/sv module_selected;
#X obj 458 -99 == \$1;
#X obj 440 -73 spigot;
#X obj 440 -143 extra/sv global_rec;
#X obj 682 92 unpack f f;
#X obj 754 375 ../audio/mixer \$1_synth;
#X obj 804 408 outlet~;
#X obj 854 408 outlet~;
#X obj 904 408 outlet~;
#X connect 0 0 30 0;
#X connect 1 0 6 1;
#X connect 2 0 3 0;
#X connect 3 0 4 0;
#X connect 4 0 7 0;
#X connect 5 0 16 0;
#X connect 5 1 17 0;
#X connect 6 0 30 1;
#X connect 6 0 31 0;
#X connect 8 0 9 0;
#X connect 10 0 18 0;
#X connect 10 0 28 0;
#X connect 10 0 38 0;
#X connect 11 0 20 0;
#X connect 11 1 19 1;
#X connect 11 2 24 0;
#X connect 12 0 14 0;
#X connect 13 0 10 0;
#X connect 14 0 6 1;
#X connect 15 0 39 0;
#X connect 18 0 15 0;
#X connect 18 1 21 0;
#X connect 18 2 22 0;
#X connect 18 3 23 0;
#X connect 19 0 13 0;
#X connect 20 0 19 0;
#X connect 20 1 13 1;
#X connect 21 0 39 0;
#X connect 22 0 39 0;
#X connect 23 0 39 0;
#X connect 24 0 26 0;
#X connect 26 0 10 1;
#X connect 34 0 35 0;
#X connect 35 0 36 1;
#X connect 36 0 12 0;
#X connect 37 0 36 0;
#X connect 38 1 27 1;
#X connect 39 1 40 0;
#X connect 39 2 41 0;
#X connect 39 3 42 0;
#X coords 0 0 1 1 200 60 0;
