#N canvas 484 23 618 469 10;
#X obj 130 -159 t b f;
#X obj 145 -13 f;
#X obj 175 59 f;
#X obj 116 -48 sel 0;
#X obj 175 29 bang;
#X floatatom 130 -182 5 0 0 0 - - -, f 5;
#X floatatom 271 -186 5 0 0 0 - - -, f 5;
#X obj 262 -20 bng 15 250 50 0 empty empty empty 17 7 0 10 -262144
-1 -1;
#X floatatom 76 -49 5 0 0 0 - - -, f 5;
#X text 28 -181 note is received;
#X obj 271 -156 t b f;
#X obj 275 -67 sel 0;
#X msg 281 -21 0;
#X text 316 -19 OFF;
#X obj 418 -24 f 0;
#X obj 355 -34 bang;
#X obj 130 -211 inlet;
#X obj 271 -209 inlet;
#X obj 23 164 outlet;
#X obj 175 164 outlet;
#X obj 416 161 outlet;
#X obj 15 -108 extra/sv synth_ch\$1;
#X obj 245 -117 extra/sv synth_ch\$1;
#X obj 286 69 extra/sv synth_ch\$1;
#X obj 16 69 extra/sv synth_ch\$1;
#X obj 23 112 list prepend 1;
#X obj 270 104 list prepend 0;
#X obj 18 -12 loadbang;
#X msg 18 18 0;
#X connect 0 0 21 2;
#X connect 0 1 2 1;
#X connect 0 1 1 1;
#X connect 1 0 24 3;
#X connect 1 0 25 0;
#X connect 2 0 19 0;
#X connect 3 0 1 0;
#X connect 3 1 4 0;
#X connect 4 0 2 0;
#X connect 5 0 0 0;
#X connect 6 0 10 0;
#X connect 10 0 22 2;
#X connect 10 1 11 1;
#X connect 10 1 14 1;
#X connect 11 0 12 0;
#X connect 11 1 15 0;
#X connect 12 0 23 3;
#X connect 12 0 26 0;
#X connect 14 0 20 0;
#X connect 15 0 14 0;
#X connect 16 0 5 0;
#X connect 17 0 6 0;
#X connect 21 1 3 0;
#X connect 21 1 8 0;
#X connect 22 1 11 0;
#X connect 25 0 18 0;
#X connect 26 0 18 0;
#X connect 27 0 28 0;
#X connect 28 0 24 3;
