#N canvas 259 130 1054 601 10;
#X obj 28 81 hip~ 5;
#X obj 29 -50 +~ 1;
#X obj 29 28 *~;
#X obj 29 -21 +~;
#X obj 85 -22 samphold~;
#X obj 29 -122 samphold~;
#X obj 29 -75 *~;
#X obj 194 -37 -~ 0.5;
#X obj 194 -13 *~ 0.5;
#X obj 194 10 cos~;
#X obj 283 -39 +~ 1;
#X obj 283 39 *~;
#X obj 283 -10 +~;
#X obj 338 -11 samphold~;
#X obj 283 -111 samphold~;
#X obj 283 -64 *~;
#X obj 448 -26 -~ 0.5;
#X obj 448 -2 *~ 0.5;
#X obj 448 21 cos~;
#X obj 28 57 +~;
#X text 79 -165 copy 1;
#X text 336 -156 copy 2;
#X obj 28 107 outlet~;
#X obj 29 -147 r chunk-size-samples-\$0;
#X obj 283 -136 r chunk-size-samples-\$0;
#X obj 448 -50 r~ phase2-\$0;
#X obj 86 -70 r~ read-pt-\$0;
#X obj 51 -98 r~ phase-\$0;
#X obj 117 -122 r~ phase-\$0;
#X obj 348 -36 r~ phase2-\$0;
#X obj 339 -59 r~ read-pt-\$0;
#X obj 372 -110 r~ phase2-\$0;
#X obj 305 -87 r~ phase2-\$0;
#X obj 194 -61 r~ phase-\$0;
#X obj 105 -47 r~ phase-\$0;
#X floatatom 535 -127 0 0 0 0 - - -;
#X obj 546 -47 t b f;
#X obj 535 -23 /;
#X obj 535 -150 loadbang;
#X obj 535 1 phasor~;
#X obj 622 20 +~ 0.5;
#X obj 623 46 wrap~;
#X text 570 -127 <-- transposition \, halftones/10;
#X text 573 -24 loop frequency;
#X text 683 7 second phase signal;
#X text 683 27 out of phase from;
#X text 682 48 first one;
#X obj 535 -102 expr pow(2 \, $f1/12);
#X obj 623 71 s~ phase2-\$0;
#X obj 535 27 s~ phase-\$0;
#X obj 546 -72 r chunk-size-\$0;
#X msg 842 -17 0;
#X obj 844 -147 sel 0;
#X obj 800 -84 f 0;
#X obj 844 -178 f 0;
#X obj 790 -195 t b f;
#X obj 871 -106 bang;
#X obj 799 -62 - 60;
#X floatatom 991 -161 5 0 0 0 - - -, f 5;
#X floatatom 934 -164 5 0 0 0 - - -, f 5;
#X obj 934 -220 unpack f f;
#X obj 934 -246 inlet;
#X obj 29 4 tabread4~ synth_voice;
#X obj 283 15 tabread4~ synth_voice;
#X floatatom -231 -141 0 0 100 0 - - -;
#X obj -232 -116 * 441;
#X text -188 -144 <-- chunk size (100ths of a second);
#X obj -231 32 line~;
#X obj -231 -18 * 441;
#X floatatom -231 -43 0 0 100 0 - - -;
#X obj -231 7 pack 0 100;
#X text -197 -42 <-- read point in 100ths of a second;
#X obj -180 -122 * 0.01;
#X obj -231 55 s~ read-pt-\$0;
#X obj -232 -69 s chunk-size-samples-\$0;
#X obj -180 -97 s chunk-size-\$0;
#X obj -141 -259 snapshot~;
#X floatatom -141 -237 5 0 0 0 - - -, f 5;
#X msg -66 -392 bang;
#X obj -66 -368 metro 50;
#X obj -141 -215 * 20;
#X obj -141 -323 osc~ 0.4;
#X obj 34 -393 loadbang;
#X obj 860 -46 loadbang;
#X floatatom -115 -377 5 0 0 0 - - -, f 5;
#X obj -140 -350 / 100;
#X obj -141 -291 -~ 0;
#X obj 34 -367 random 100;
#X obj 19 -323 del;
#X msg 16 -297 1;
#X msg -25 -392 stop;
#X obj -140 -191 + 20;
#X obj -306 -252 extra/sv synth_voice_chunk;
#X obj 928 -47 extra/sv synth_voice_panic;
#X connect 0 0 22 0;
#X connect 1 0 3 0;
#X connect 2 0 19 0;
#X connect 3 0 62 0;
#X connect 4 0 3 1;
#X connect 5 0 6 0;
#X connect 6 0 1 0;
#X connect 7 0 8 0;
#X connect 8 0 9 0;
#X connect 9 0 2 1;
#X connect 10 0 12 0;
#X connect 11 0 19 1;
#X connect 12 0 63 0;
#X connect 13 0 12 1;
#X connect 14 0 15 0;
#X connect 15 0 10 0;
#X connect 16 0 17 0;
#X connect 17 0 18 0;
#X connect 18 0 11 1;
#X connect 19 0 0 0;
#X connect 23 0 5 0;
#X connect 24 0 14 0;
#X connect 25 0 16 0;
#X connect 26 0 4 0;
#X connect 27 0 6 1;
#X connect 28 0 5 1;
#X connect 29 0 13 1;
#X connect 30 0 13 0;
#X connect 31 0 14 1;
#X connect 32 0 15 1;
#X connect 33 0 7 0;
#X connect 34 0 4 1;
#X connect 35 0 47 0;
#X connect 36 0 37 0;
#X connect 36 1 37 1;
#X connect 37 0 39 0;
#X connect 38 0 35 0;
#X connect 39 0 40 0;
#X connect 39 0 49 0;
#X connect 40 0 41 0;
#X connect 41 0 48 0;
#X connect 47 0 37 0;
#X connect 50 0 36 0;
#X connect 51 0 39 0;
#X connect 52 0 51 0;
#X connect 52 1 56 0;
#X connect 53 0 57 0;
#X connect 54 0 52 0;
#X connect 55 0 54 0;
#X connect 55 1 53 1;
#X connect 56 0 53 0;
#X connect 57 0 47 0;
#X connect 60 0 59 0;
#X connect 60 0 52 0;
#X connect 60 1 58 0;
#X connect 60 1 55 0;
#X connect 61 0 60 0;
#X connect 62 0 2 0;
#X connect 63 0 11 0;
#X connect 64 0 65 0;
#X connect 64 0 72 0;
#X connect 65 0 74 0;
#X connect 67 0 73 0;
#X connect 68 0 70 0;
#X connect 69 0 68 0;
#X connect 70 0 67 0;
#X connect 72 0 75 0;
#X connect 76 0 77 0;
#X connect 77 0 80 0;
#X connect 78 0 79 0;
#X connect 79 0 76 0;
#X connect 80 0 91 0;
#X connect 81 0 86 0;
#X connect 82 0 79 0;
#X connect 82 0 87 0;
#X connect 82 0 88 0;
#X connect 83 0 51 0;
#X connect 84 0 85 0;
#X connect 85 0 81 0;
#X connect 86 0 76 0;
#X connect 87 0 88 1;
#X connect 88 0 89 0;
#X connect 89 0 81 1;
#X connect 90 0 79 0;
#X connect 91 0 69 0;
#X connect 92 0 64 0;
#X connect 93 0 51 0;
