#N canvas 504 118 753 625 10;
#X obj 65 303 osc~;
#X obj 97 254 *~;
#X obj 115 234 lop~ 1;
#X obj 65 280 +~;
#X obj 65 71 mtof;
#X obj 65 152 / 2;
#X obj 191 394 vcf~ 2;
#X obj 224 83 / 60;
#X obj 65 132 t f f;
#X obj 65 111 line;
#X obj 65 91 pack f 100;
#X obj 122 71 * 1000;
#N canvas 1 85 568 311 fm-osc 0;
#X obj 20 114 * 0.5;
#X obj 20 144 osc~;
#X obj 70 144 osc~;
#X obj 140 144 osc~;
#X obj 180 144 osc~;
#X obj 140 114 * 1;
#X obj 180 114 * 2;
#X obj 220 144 osc~;
#X obj 290 144 osc~;
#X obj 340 144 osc~;
#X obj 410 144 osc~;
#X obj 480 144 osc~;
#X obj 290 114 * 4;
#X obj 480 114 * 8;
#X obj 70 114 * 1.4983;
#X obj 410 114 * 5.9932;
#X obj 340 114 * 5.0397;
#X obj 220 114 * 2.9966;
#X obj 155 32 inlet;
#X obj 220 267 outlet~;
#X obj 340 174 *~ 1;
#X obj 290 174 *~ 1;
#X obj 140 174 *~ 1;
#X obj 180 174 *~ 1;
#X obj 70 174 *~ 2;
#X obj 20 174 *~ 2;
#X obj 220 174 *~ 1;
#X obj 155 53 t f f f f f f f f f;
#X obj 220 224 *~ 0.1;
#X obj 480 174 *~ 0.2;
#X obj 410 174 *~ 0.2;
#X connect 0 0 1 0;
#X connect 1 0 25 0;
#X connect 2 0 24 0;
#X connect 3 0 22 0;
#X connect 4 0 23 0;
#X connect 5 0 3 0;
#X connect 6 0 4 0;
#X connect 7 0 26 0;
#X connect 8 0 21 0;
#X connect 9 0 20 0;
#X connect 10 0 30 0;
#X connect 11 0 29 0;
#X connect 12 0 8 0;
#X connect 13 0 11 0;
#X connect 14 0 2 0;
#X connect 15 0 10 0;
#X connect 16 0 9 0;
#X connect 17 0 7 0;
#X connect 18 0 27 0;
#X connect 20 0 28 0;
#X connect 21 0 28 0;
#X connect 22 0 28 0;
#X connect 23 0 28 0;
#X connect 24 0 28 0;
#X connect 25 0 28 0;
#X connect 26 0 28 0;
#X connect 27 0 0 0;
#X connect 27 1 14 0;
#X connect 27 2 5 0;
#X connect 27 3 6 0;
#X connect 27 4 17 0;
#X connect 27 5 12 0;
#X connect 27 6 16 0;
#X connect 27 7 15 0;
#X connect 27 8 13 0;
#X connect 28 0 19 0;
#X connect 29 0 28 0;
#X connect 30 0 28 0;
#X restore 97 152 pd fm-osc;
#X obj 115 193 * 10000;
#X obj 115 214 + 100;
#X obj 191 464 *~;
#X obj 206 444 lop~ 10;
#X obj 224 214 phasor~;
#X obj 224 235 *~ 2;
#X obj 224 265 max~ 1;
#X obj 274 266 min~ 1;
#X obj 208 162 sig~ 1;
#X obj 208 289 -~;
#X obj 208 310 *~ 2;
#X obj 208 331 -~ 1;
#X obj 208 352 *~ 490;
#X obj 208 373 +~ 490;
#X obj 191 485 outlet~;
#X obj 224 60 expr 60000/$f1;
#X obj 206 423 r \$0-on;
#X obj 141 44 r \$0-glide;
#X text 328 49 Wobble;
#X obj 329 94 t b f;
#X obj 224 111 /;
#X obj 224 133 change -100;
#X obj 224 193 sig~;
#X obj 65 246 sig~;
#X obj 329 69 r \$0-*;
#X floatatom 212 -1 5 0 0 0 - - -, f 5;
#X floatatom 385 57 5 0 0 0 - - -, f 5;
#X msg 115 -61 0.5;
#X msg 122 -11 0.2;
#X msg 206 -56 123;
#X msg 386 -10 1;
#X obj 300 -79 loadbang;
#X obj -47 16 s \$0-on;
#X obj -87 -77 inlet;
#X obj 4 -79 inlet;
#X text 48 6 pitch;
#X obj 60 29 - 12;
#N canvas 1 56 498 367 read_midi 0;
#X obj -195 -14 unpack f f f;
#X obj -128 59 i 0;
#X obj -157 93 sel 0;
#X obj -182 145 i 0;
#X obj -195 17 t b f;
#X obj -215 219 i 0;
#X obj -78 220 t b f;
#X msg -126 374 1;
#X text -221 201 derniere note jouée;
#X obj -261 146 i 0;
#X obj -130 122 bang;
#X obj -267 279 ==;
#X obj -267 308 sel 1;
#X msg -235 374 0;
#X obj -210 336 bng 15 250 50 0 empty empty empty 17 7 0 10 -262144
-1 -1;
#X obj -262 191 t f b;
#X obj -193 423 outlet;
#X obj -196 -46 inlet;
#X obj -51 423 outlet;
#X connect 0 0 4 0;
#X connect 0 1 1 1;
#X connect 1 0 2 0;
#X connect 2 0 9 0;
#X connect 2 1 10 0;
#X connect 3 0 5 1;
#X connect 3 0 6 0;
#X connect 4 0 1 0;
#X connect 4 1 3 1;
#X connect 4 1 9 1;
#X connect 5 0 11 1;
#X connect 6 0 7 0;
#X connect 6 1 18 0;
#X connect 7 0 16 0;
#X connect 9 0 15 0;
#X connect 10 0 3 0;
#X connect 11 0 12 0;
#X connect 12 0 13 0;
#X connect 12 0 14 0;
#X connect 13 0 16 0;
#X connect 15 0 11 0;
#X connect 15 1 5 0;
#X connect 17 0 0 0;
#X restore -87 -43 pd read_midi;
#X obj -79 103 cnv 15 118 53 empty empty WOOBLE 25 20 0 14 -92128 -262144
0;
#X obj -79 143 cnv 12 40 12 empty empty son 10 5 0 12 -4160 -1 0;
#X obj -79 102 cnv 12 40 12 empty empty midi 4 6 0 12 -204799 -1 0
;
#X obj -7 103 cnv 12 46 12 empty empty taille 2 6 0 12 -249508 -1 0
;
#X floatatom -1 139 5 0 0 0 - - -, f 5;
#X obj -101 17 sel 1;
#X obj -77 118 bng 15 250 50 0 empty empty empty 17 7 0 10 -262144
-1 -1;
#X obj 407 -46 bng 15 250 50 0 empty empty empty 17 7 0 10 -262144
-1 -1;
#X connect 0 0 6 0;
#X connect 1 0 3 1;
#X connect 2 0 1 1;
#X connect 3 0 0 0;
#X connect 4 0 10 0;
#X connect 5 0 36 0;
#X connect 6 0 15 0;
#X connect 7 0 33 0;
#X connect 8 0 5 0;
#X connect 8 1 12 0;
#X connect 9 0 8 0;
#X connect 10 0 9 0;
#X connect 11 0 10 1;
#X connect 12 0 1 0;
#X connect 13 0 14 0;
#X connect 14 0 2 0;
#X connect 15 0 27 0;
#X connect 16 0 15 1;
#X connect 17 0 18 0;
#X connect 18 0 19 0;
#X connect 18 0 20 0;
#X connect 19 0 22 1;
#X connect 20 0 23 0;
#X connect 21 0 22 0;
#X connect 22 0 23 0;
#X connect 23 0 24 0;
#X connect 24 0 25 0;
#X connect 25 0 26 0;
#X connect 26 0 6 1;
#X connect 28 0 7 0;
#X connect 29 0 16 0;
#X connect 30 0 11 0;
#X connect 32 0 33 0;
#X connect 32 1 33 1;
#X connect 33 0 34 0;
#X connect 34 0 35 0;
#X connect 35 0 17 0;
#X connect 36 0 3 0;
#X connect 37 0 32 0;
#X connect 38 0 28 0;
#X connect 39 0 32 0;
#X connect 40 0 13 0;
#X connect 41 0 11 0;
#X connect 42 0 38 0;
#X connect 43 0 39 0;
#X connect 44 0 43 0;
#X connect 44 0 42 0;
#X connect 44 0 40 0;
#X connect 44 0 41 0;
#X connect 46 0 50 0;
#X connect 47 0 38 0;
#X connect 47 0 55 0;
#X connect 49 0 4 0;
#X connect 50 0 45 0;
#X connect 50 0 56 0;
#X connect 50 1 49 0;
#X connect 56 0 57 0;
#X connect 58 0 43 0;
#X coords 0 -1 1 1 120 60 1 -80 100;
