#N canvas 207 139 1005 581 10;
#X declare -path ../../patches;
#X obj 7 370 cnv 15 980 70 empty empty empty 330 30 0 45 -21525 -88297
0;
#X obj 154 107 cnv 15 834 258 empty empty empty 20 12 0 14 -233017
-66577 0;
#X obj 220 389 UI/ui_tempo_small;
#X obj 7 24 cnv 15 980 81 empty empty LUCIBOX 414 36 0 45 -21525 -88297
0;
#X obj 7 107 cnv 15 144 259 empty empty empty 20 12 0 14 -233017 -66577
0;
#N canvas 0 97 1280 627 patch 0;
#X obj 101 101 cnv 15 138 40 empty empty PATCH 20 12 0 14 -66577 -262144
0;
#X obj 235 155 audio/mic;
#X obj 277 108 adc~;
#X obj 254 553 *~ 1;
#X obj 284 580 dac~;
#X obj 38 100 bng 35 250 50 0 empty empty CLOSE 4 20 0 10 -262144 -1
-1;
#X msg 38 164 \; pd-patch vis 0;
#X obj 320 878 arduino/arduino_out;
#N canvas 451 388 1038 529 open 0;
#X text 462 314 label-color;
#X text 477 339 label-color;
#X obj 377 311 t b f;
#X msg 400 277 2;
#X obj 466 220 loadbang;
#X obj 104 101 hradio 15 1 0 2 empty empty empty 0 -8 0 10 -262144
-1 -1 1;
#X obj 104 166 bang;
#X msg 363 277 43;
#X obj 101 101 cnv 15 38 15 empty \$0_opencnv open 6 8 0 10 -66577
-262144 0;
#X msg 405 398 \; \$4_opencnv color \$1 \$2 \$3;
#X obj 363 197 bang;
#X obj 404 365 pack 43 0 0 \$0;
#X obj 400 220 delay 200;
#X msg 101 247 \; pd-patch vis 1;
#X msg 614 289 \; pd-patch vis 0;
#X connect 2 1 11 0;
#X connect 3 0 2 0;
#X connect 4 0 3 0;
#X connect 4 0 14 0;
#X connect 5 0 6 0;
#X connect 6 0 10 0;
#X connect 6 0 13 0;
#X connect 7 0 2 0;
#X connect 10 0 7 0;
#X connect 10 0 12 0;
#X connect 11 0 9 0;
#X connect 12 0 3 0;
#X coords 0 -1 1 1 40 17 2 100 100;
#X restore 177 107 pd open;
#X obj 435 420 effect/reverb;
#X obj 40 259 extra/selectionManager;
#X obj 752 204 audio/sampler8 3;
#X obj 834 172 *~ 1;
#X obj 715 831 hradio 30 0 0 5 empty empty empty 0 -8 0 10 -262144
-1 -1 3;
#X obj 409 283 s ledrec1;
#X obj 442 258 s ledplay1;
#X obj 717 728 r to14;
#X obj 605 827 r to13;
#N canvas 358 163 694 530 ledmodule1 0;
#X obj 267 243 spigot;
#X obj 291 221 tgl 15 0 empty empty empty 17 7 0 10 -262144 -1 -1 0
1;
#X obj 457 247 spigot;
#X obj 472 219 tgl 15 0 empty empty empty 17 7 0 10 -262144 -1 -1 0
1;
#X floatatom 266 159 5 -1 11 0 - - -, f 5;
#X obj 266 115 i 0;
#X obj 266 137 moses 13;
#X obj 266 91 * 12;
#X obj 266 68 r global_tempo_slider;
#X floatatom 457 165 5 -1 11 0 - - -, f 5;
#X obj 457 88 i 0;
#X obj 457 142 moses 13;
#X obj 457 63 * 12;
#X obj 472 195 == 1;
#X obj 267 332 s to13;
#X obj 110 13 extra/sv 1_1_is_loop_playing;
#X obj 457 331 s to12;
#X obj 457 113 change;
#X obj 456 37 extra/sv 1_1_recloop_slider;
#X msg -68 99 2, f 4;
#X obj -68 124 s to14;
#X obj 34 144 sel 1;
#X msg 43 201 1;
#X obj -121 1 extra/sv 1_1_is_loop_recording;
#X obj -96 214 metro 1000;
#X obj -93 283 i 0;
#X obj -56 284 + 1;
#X floatatom -93 315 5 0 0 0 - - -, f 5;
#X msg -72 255 0;
#X obj -111 61 t b b b;
#X obj -43 33 bng 15 250 50 0 empty empty empty 17 7 0 10 -262144 -1
-1;
#X obj -93 353 spigot;
#X obj -15 312 extra/sv 1_1_is_loop_recording;
#X obj -95 547 s to12;
#X obj 251 365 extra/sv 1_1_is_loop_recorded;
#X obj 251 395 sel 0;
#X msg 251 426 0;
#X obj 251 458 s to14;
#X obj -121 33 sel 1 0;
#X msg -88 176 stop;
#X obj 297 441 bng 15 250 50 0 empty empty empty 17 7 0 10 -262144
-1 -1;
#X obj 242 289 bng 15 250 50 0 empty empty empty 17 7 0 10 -262144
-1 -1;
#X obj 421 299 bng 15 250 50 0 empty empty empty 17 7 0 10 -262144
-1 -1;
#X obj 291 195 == 1;
#X obj -10 350 tgl 15 0 empty empty empty 17 7 0 10 -262144 -1 -1 0
1;
#X obj 73 146 hradio 15 1 0 2 empty empty empty 0 -8 0 10 -262144 -1
-1 0;
#X obj 43 227 s to14;
#X obj -95 435 spigot;
#X obj -15 385 extra/sv 1_1_is_loop_playing;
#X obj -17 417 == 0;
#X obj 457 289 spigot;
#X obj 503 246 extra/sv song_mode;
#X obj 310 244 extra/sv song_mode;
#X obj 266 302 spigot;
#X obj -23 446 extra/sv song_mode;
#X obj -95 505 spigot;
#X obj 310 263 == 0;
#X obj 503 265 == 0;
#X obj -27 478 == 0;
#X connect 0 0 41 0;
#X connect 0 0 53 0;
#X connect 1 0 0 1;
#X connect 2 0 42 0;
#X connect 2 0 50 0;
#X connect 3 0 2 1;
#X connect 4 0 0 0;
#X connect 5 0 6 0;
#X connect 6 0 4 0;
#X connect 7 0 5 0;
#X connect 8 0 7 0;
#X connect 9 0 2 0;
#X connect 10 0 17 0;
#X connect 11 0 9 0;
#X connect 12 0 10 0;
#X connect 13 0 3 0;
#X connect 15 0 43 0;
#X connect 15 0 21 0;
#X connect 15 0 45 0;
#X connect 15 1 21 0;
#X connect 17 0 11 0;
#X connect 18 0 12 0;
#X connect 19 0 20 0;
#X connect 21 0 22 0;
#X connect 22 0 46 0;
#X connect 23 0 38 0;
#X connect 24 0 25 0;
#X connect 25 0 26 0;
#X connect 25 0 27 0;
#X connect 26 0 25 1;
#X connect 27 0 31 0;
#X connect 28 0 25 1;
#X connect 29 0 24 0;
#X connect 29 1 28 0;
#X connect 29 2 19 0;
#X connect 30 0 29 0;
#X connect 31 0 47 0;
#X connect 32 0 44 0;
#X connect 34 0 35 0;
#X connect 35 0 36 0;
#X connect 35 0 40 0;
#X connect 36 0 37 0;
#X connect 38 0 29 0;
#X connect 38 1 39 0;
#X connect 38 1 15 3;
#X connect 39 0 24 0;
#X connect 43 0 1 0;
#X connect 44 0 31 1;
#X connect 47 0 55 0;
#X connect 48 0 49 0;
#X connect 49 0 47 1;
#X connect 50 0 16 0;
#X connect 51 0 57 0;
#X connect 52 0 56 0;
#X connect 53 0 14 0;
#X connect 54 0 58 0;
#X connect 55 0 33 0;
#X connect 56 0 53 1;
#X connect 57 0 50 1;
#X connect 58 0 55 1;
#X restore 354 781 pd ledmodule1;
#X text 22 376 Manage Reset when;
#X text 22 397 no module selected and long press;
#X obj 406 827 r to3;
#X obj 560 827 r to12;
#X obj 254 380 *~ 1;
#X obj 333 179 *~ 1;
#X obj 561 172 *~ 1;
#X obj 752 363 *~ 1;
#X obj 334 363 *~ 1;
#X obj 798 403 *~ 1;
#X obj 367 403 *~ 1;
#X obj 269 404 *~ 1;
#X obj 514 461 effect/delay;
#X obj 845 444 *~ 1;
#X obj 400 444 *~ 1;
#X obj 286 444 *~ 1;
#X obj 334 68 r~ toLoop1;
#X obj 334 108 *~ 1;
#X obj 751 326 s~ toLoop1;
#X obj 41 208 declare -path ../../patches;
#X obj 266 827 r to1;
#X obj 328 827 r to2;
#N canvas 294 159 623 468 longORshort 0;
#X obj 153 75 inlet;
#X obj 152 180 timer;
#X obj 153 119 sel 0;
#X obj 187 149 bang;
#X obj 151 224 > 500;
#X obj 151 298 bng 15 250 50 0 empty empty empty 17 7 0 10 -262144
-1 -1;
#X obj 151 419 outlet;
#X obj 223 417 outlet;
#X obj 380 102 sel 0;
#X obj 398 239 i 0;
#X obj 398 270 sel 0;
#X obj 431 312 bng 15 250 50 0 empty empty empty 17 7 0 10 -262144
-1 -1;
#X obj 444 196 delay 1000;
#X obj 182 296 bng 15 250 50 0 empty empty empty 17 7 0 10 -262144
-1 -1;
#X obj 398 310 bng 15 250 50 0 empty empty empty 17 7 0 10 -262144
-1 -1;
#X obj 151 256 sel 0 1;
#X connect 0 0 2 0;
#X connect 0 0 8 0;
#X connect 0 0 9 1;
#X connect 1 0 4 0;
#X connect 2 0 1 1;
#X connect 2 1 3 0;
#X connect 3 0 1 0;
#X connect 4 0 15 0;
#X connect 5 0 6 0;
#X connect 8 1 12 0;
#X connect 9 0 10 0;
#X connect 10 0 14 0;
#X connect 10 1 11 0;
#X connect 12 0 9 0;
#X connect 13 0 7 0;
#X connect 15 0 5 0;
#X connect 15 1 13 0;
#X restore 24 527 pd longORshort;
#X obj 24 427 extra/sv global_play;
#X obj 54 580 bang;
#X obj 54 624 s bigReset;
#X obj 98 549 t b b;
#X obj 161 544 bng 15 250 50 0 empty empty empty 17 7 0 10 -262144
-1 -1;
#X obj -25 602 extra/sv tempo_isplaying;
#X obj 139 603 s 1_1_loop_clear;
#X obj 81 774 extra/sv tempo_isplaying;
#N canvas 594 239 450 300 song_mode 0;
#X obj 153 76 extra/sv song;
#X obj 153 107 change;
#X obj 261 76 extra/sv song_mode;
#X msg 261 206 3;
#X obj 154 165 spigot;
#X obj 154 266 s to13;
#X obj 339 102 tgl 15 0 empty empty empty 17 7 0 10 -262144 -1 -1 0
1;
#X floatatom 112 210 5 0 0 0 - - -, f 5;
#X obj 260 126 change;
#X obj 153 239 - 1;
#X text -2 34 Exit song mode without move;
#X msg 80 107 0;
#X obj 24 54 loadbang;
#X obj 3 54 bng 15 250 50 0 empty empty empty 17 7 0 10 -262144 -1
-1;
#X floatatom 23 161 5 0 0 0 - - -, f 5;
#X obj 23 139 i 0;
#X obj 78 141 + 1;
#X obj 12 83 metro 1000;
#X obj 23 214 sel 1;
#X obj 1 293 extra/sv song_mode;
#X msg 23 238 0;
#X obj 261 160 sel 1 0;
#X obj 327 280 outlet;
#X text 391 290 call last color;
#X obj 274 283 outlet;
#X obj 23 190 > 2;
#X connect 0 0 1 0;
#X connect 1 0 4 0;
#X connect 1 0 11 0;
#X connect 2 0 4 1;
#X connect 2 0 6 0;
#X connect 2 0 8 0;
#X connect 3 0 24 0;
#X connect 4 0 7 0;
#X connect 4 0 9 0;
#X connect 8 0 21 0;
#X connect 9 0 5 0;
#X connect 11 0 15 1;
#X connect 12 0 17 0;
#X connect 13 0 17 0;
#X connect 14 0 25 0;
#X connect 15 0 14 0;
#X connect 15 0 16 0;
#X connect 16 0 15 1;
#X connect 17 0 15 0;
#X connect 18 0 20 0;
#X connect 20 0 19 1;
#X connect 21 0 3 0;
#X connect 21 1 22 0;
#X connect 25 0 18 0;
#X restore 698 694 pd song_mode;
#X obj 758 760 i 0;
#X obj 767 729 bang;
#X obj 334 208 audio/loop 1 1 1;
#X obj 42 233 audio/tempo_link machines 5;
#X floatatom 167 651 5 0 0 0 - - -, f 5;
#X obj 167 629 r #abl_link_num_peers;
#X obj 128 672 i 0;
#X obj 128 714 sel 0;
#X msg 128 746 0;
#X obj 52 472 tgl 15 0 empty empty empty 17 7 0 10 -262144 -1 -1 0
1;
#X msg 140 580 1;
#X msg 187 750 1;
#X connect 1 1 23 0;
#X connect 1 1 12 0;
#X connect 1 1 25 0;
#X connect 1 1 24 0;
#X connect 1 2 30 0;
#X connect 1 3 34 0;
#X connect 2 0 1 0;
#X connect 2 1 1 0;
#X connect 3 0 4 1;
#X connect 3 0 4 0;
#X connect 5 0 6 0;
#X connect 9 0 3 0;
#X connect 11 0 26 0;
#X connect 11 0 37 0;
#X connect 11 1 28 0;
#X connect 11 2 32 0;
#X connect 12 0 11 8;
#X connect 13 0 7 13;
#X connect 16 0 51 0;
#X connect 17 0 7 12;
#X connect 21 0 7 2;
#X connect 22 0 7 11;
#X connect 23 0 3 0;
#X connect 24 0 53 0;
#X connect 26 0 23 0;
#X connect 27 0 23 0;
#X connect 28 0 9 0;
#X connect 29 0 9 0;
#X connect 30 0 9 0;
#X connect 31 0 3 0;
#X connect 32 0 31 0;
#X connect 33 0 31 0;
#X connect 34 0 31 0;
#X connect 35 0 36 0;
#X connect 36 0 25 0;
#X connect 36 0 24 0;
#X connect 39 0 7 0;
#X connect 40 0 7 1;
#X connect 41 0 47 0;
#X connect 41 1 45 0;
#X connect 41 1 46 0;
#X connect 42 0 41 0;
#X connect 42 0 60 0;
#X connect 43 0 44 0;
#X connect 45 0 43 0;
#X connect 45 1 61 0;
#X connect 45 1 57 0;
#X connect 50 0 7 13;
#X connect 50 1 52 0;
#X connect 51 0 7 13;
#X connect 52 0 51 0;
#X connect 53 0 27 0;
#X connect 53 1 29 0;
#X connect 53 2 33 0;
#X connect 53 3 14 0;
#X connect 53 4 15 0;
#X connect 55 0 57 1;
#X connect 56 0 55 0;
#X connect 57 0 58 0;
#X connect 58 0 59 0;
#X connect 58 1 62 0;
#X connect 59 0 49 1;
#X connect 61 0 48 0;
#X connect 62 0 49 1;
#X coords 0 -1 1 1 140 42 2 100 100;
#X restore 7 139 pd patch;
#N canvas 2 204 1280 627 connect 0;
#X obj 327 98 connect/connect_sampler8 3;
#X obj 40 6 cnv 15 996 83 empty empty CONNECT 330 30 0 45 -21525 -88297
0;
#X obj 44 26 cnv 15 138 40 empty empty CONNECT 20 12 0 14 -66577 -262144
0;
#N canvas 402 288 1038 552 open 0;
#X obj 103 102 hradio 15 0 0 3 empty empty empty 0 -8 0 10 -262144
-1 -1 1;
#X text 462 314 label-color;
#X text 477 339 label-color;
#X obj 377 311 t b f;
#X msg 400 277 2;
#X obj 466 220 loadbang;
#X obj 104 166 bang;
#X msg 363 277 43;
#X obj 363 197 bang;
#X obj 404 365 pack 43 0 0 \$0;
#X obj 400 220 delay 200;
#X msg 104 202 \; pd-connect vis 1;
#X msg 405 398 \; \$4_connectcnv color \$1 \$2 \$3;
#X obj 101 101 cnv 15 47 15 empty \$0_connectcnv open 14 6 0 10 -66577
-262144 0;
#X obj 594 296 bang;
#X msg 594 332 \; pd-connect vis 0;
#X connect 0 0 6 0;
#X connect 3 1 9 0;
#X connect 4 0 3 0;
#X connect 5 0 4 0;
#X connect 5 0 14 0;
#X connect 6 0 8 0;
#X connect 6 0 11 0;
#X connect 7 0 3 0;
#X connect 8 0 7 0;
#X connect 8 0 10 0;
#X connect 9 0 12 0;
#X connect 10 0 4 0;
#X connect 14 0 15 0;
#X coords 0 -1 1 1 49 17 2 100 100;
#X restore 127 47 pd open;
#X obj 585 14 arduino/arduino;
#X obj 183 99 connect/connect_recloopsave 1 1;
#X obj 37 99 connect/connect_mic;
#X obj 205 55 bng 15 250 50 0 empty empty CLEAR_ALL 17 7 0 10 -4160
-1 -1;
#X obj 896 99 connect/connect_song;
#X obj 50 321 connect/connect_global_recplay;
#X coords 0 -1 1 1 140 42 1 43 25;
#X restore 8 191 pd connect;
#X obj 211 340 hsl 640 30 0 1 0 0 empty global_tempo_slider empty -2
-8 0 10 -33289 -4032 -1 0 1;
#X obj 389 139 UI/ui_sampler8 3 1;
#N canvas 51 262 1126 485 volumes 0;
#X obj 24 -13 cnv 15 996 83 empty empty VOLUMES 330 30 0 45 -21525
-88297 0;
#X obj 188 80 volumes/volume_recloopsave 1 1;
#X obj 334 80 volumes/volume_sampler 3;
#X obj 28 80 volumes/volume_mic;
#X obj 44 26 cnv 15 138 40 empty empty VOLUMES 20 12 0 14 -66577 -262144
0;
#N canvas 285 163 1038 575 open 0;
#X obj 103 102 hradio 15 0 0 3 empty empty empty 0 -8 0 10 -262144
-1 -1 1;
#X text 462 314 label-color;
#X text 477 339 label-color;
#X obj 377 311 t b f;
#X msg 400 277 2;
#X obj 466 220 loadbang;
#X obj 104 166 bang;
#X msg 363 277 43;
#X obj 363 197 bang;
#X obj 404 365 pack 43 0 0 \$0;
#X obj 400 220 delay 200;
#X obj 101 101 cnv 15 47 15 empty \$0_volumescnv open 14 6 0 10 -66577
-262144 0;
#X msg 104 202 \; pd-volumes vis 1;
#X msg 405 398 \; \$4_volumescnv color \$1 \$2 \$3;
#X msg 552 270 \; pd-volumes vis 0;
#X connect 0 0 6 0;
#X connect 3 1 9 0;
#X connect 4 0 3 0;
#X connect 5 0 4 0;
#X connect 5 0 14 0;
#X connect 6 0 8 0;
#X connect 6 0 12 0;
#X connect 7 0 3 0;
#X connect 8 0 7 0;
#X connect 8 0 10 0;
#X connect 9 0 13 0;
#X connect 10 0 4 0;
#X coords 0 -1 1 1 49 17 2 100 100;
#X restore 127 47 pd open;
#X obj 627 80 UI/delay;
#X obj 479 80 UI/reverb;
#X obj 214 2 bng 55 250 50 0 save_all empty SAVE 10 25 0 15 -258113
-1 -1;
#X coords 0 -1 1 1 140 42 1 43 25;
#X restore 9 242 pd volumes;
#X obj 239 138 UI/ui_looper 1 1;
