#N canvas 65 35 1280 624 10;
#X declare -path ../../patches;
#X obj 4 101 cnv 15 144 259 empty empty empty 20 12 0 14 -233017 -66577
0;
#N canvas 190 112 648 707 patch 0;
#X obj 101 101 cnv 15 138 40 empty empty PATCH 20 12 0 14 -66577 -262144
0;
#X obj 306 125 audio/mic;
#X obj 306 97 adc~;
#X obj 365 370 *~ 1;
#X obj 365 400 dac~;
#X obj 38 100 bng 35 250 50 0 empty empty CLOSE 4 20 0 10 -262144 -1
-1;
#X msg 38 164 \; pd-patch vis 0;
#X obj 230 495 arduino/arduino_out;
#N canvas 447 412 1038 529 open 0;
#X text 462 314 label-color;
#X text 477 339 label-color;
#X obj 377 311 t b f;
#X msg 400 277 2;
#X obj 466 220 loadbang;
#X obj 104 101 hradio 15 1 0 2 empty empty empty 0 -8 0 10 -262144
-1 -1 0;
#X obj 104 166 bang;
#X msg 363 277 43;
#X obj 101 101 cnv 15 38 15 empty \$0_opencnv open 6 8 0 10 -66577
-262144 0;
#X msg 405 398 \; \$4_opencnv color \$1 \$2 \$3;
#X obj 363 197 bang;
#X obj 404 365 pack 43 0 0 \$0;
#X obj 400 220 delay 200;
#X msg 101 247 \; pd-patch vis 1;
#X msg 614 289 \; pd-patch vis 0;
#X connect 2 1 11 0;
#X connect 3 0 2 0;
#X connect 4 0 3 0;
#X connect 4 0 14 0;
#X connect 5 0 6 0;
#X connect 6 0 10 0;
#X connect 6 0 13 0;
#X connect 7 0 2 0;
#X connect 10 0 7 0;
#X connect 10 0 12 0;
#X connect 11 0 9 0;
#X connect 12 0 3 0;
#X coords 0 -1 1 1 40 17 2 100 100;
#X restore 177 107 pd open;
#X obj 324 176 *~ 1;
#X obj 570 294 effect/delay;
#X obj 82 228 loadbang;
#X msg 82 269 127;
#X obj 41 208 declare -path ../../patches;
#X floatatom 257 413 5 0 0 0 - - -;
#N canvas 8 90 1141 556 playWithLed------------------------------ 0
;
#X obj 31 100 sel 0;
#X obj 31 507 outlet;
#X floatatom 31 248 5 0 0 0 - - -;
#X msg 31 175 0;
#X obj 58 153 t b b;
#X msg 85 193 5;
#X msg 58 193 1;
#X obj 121 121 sel 0;
#X obj 121 507 outlet;
#X floatatom 121 269 5 0 0 0 - - -;
#X msg 121 196 0;
#X obj 148 174 t b b;
#X msg 175 214 5;
#X msg 148 214 1;
#X obj 207 140 sel 0;
#X obj 207 507 outlet;
#X floatatom 207 288 5 0 0 0 - - -;
#X msg 207 215 0;
#X obj 234 193 t b b;
#X msg 261 233 5;
#X msg 234 233 1;
#X obj 297 161 sel 0;
#X obj 297 506 outlet;
#X floatatom 297 309 5 0 0 0 - - -;
#X msg 297 236 0;
#X obj 324 214 t b b;
#X msg 351 254 5;
#X msg 324 254 1;
#X obj 378 181 sel 0;
#X obj 378 507 outlet;
#X floatatom 378 329 5 0 0 0 - - -;
#X msg 378 256 0;
#X obj 405 234 t b b;
#X msg 432 274 5;
#X msg 405 274 1;
#X obj 468 202 sel 0;
#X obj 468 507 outlet;
#X floatatom 468 350 5 0 0 0 - - -;
#X msg 468 277 0;
#X obj 495 255 t b b;
#X msg 522 295 5;
#X msg 495 295 1;
#X obj 554 221 sel 0;
#X obj 554 507 outlet;
#X floatatom 554 369 5 0 0 0 - - -;
#X msg 554 296 0;
#X obj 581 274 t b b;
#X msg 608 314 5;
#X msg 581 314 1;
#X obj 644 242 sel 0;
#X obj 644 507 outlet;
#X floatatom 644 390 5 0 0 0 - - -;
#X msg 644 317 0;
#X obj 671 295 t b b;
#X msg 698 335 5;
#X msg 671 335 1;
#X obj 729 263 sel 0;
#X obj 729 507 outlet;
#X floatatom 729 411 5 0 0 0 - - -;
#X msg 729 338 0;
#X obj 756 316 t b b;
#X msg 783 356 5;
#X msg 756 356 1;
#X obj 819 284 sel 0;
#X obj 819 507 outlet;
#X floatatom 819 432 5 0 0 0 - - -;
#X msg 819 359 0;
#X obj 846 337 t b b;
#X msg 873 377 5;
#X msg 846 377 1;
#X obj 905 303 sel 0;
#X obj 905 507 outlet;
#X floatatom 905 451 5 0 0 0 - - -;
#X msg 905 378 0;
#X obj 932 356 t b b;
#X msg 959 396 5;
#X msg 932 396 1;
#X obj 995 324 sel 0;
#X obj 995 507 outlet;
#X floatatom 995 472 5 0 0 0 - - -;
#X msg 995 399 0;
#X obj 1022 377 t b b;
#X msg 1049 417 5;
#X msg 1022 417 1;
#X obj -20 499 outlet;
#X obj -16 466 bang;
#X obj 31 60 extra/sv 1_1_loop_playsampler;
#X obj 121 81 extra/sv 2_1_loop_playsampler;
#X obj 207 100 extra/sv 3_1_loop_playsampler;
#X obj 297 121 extra/sv 4_1_loop_playsampler;
#X obj 378 141 extra/sv 5_1_loop_playsampler;
#X obj 468 162 extra/sv 6_1_loop_playsampler;
#X obj 554 181 extra/sv 7_1_loop_playsampler;
#X obj 644 202 extra/sv 8_1_loop_playsampler;
#X obj 729 223 extra/sv 9_1_loop_playsampler;
#X obj 821 243 extra/sv 10_1_loop_playsampler;
#X obj 905 263 extra/sv 11_1_loop_playsampler;
#X obj 995 284 extra/sv 12_1_loop_playsampler;
#X connect 0 0 3 0;
#X connect 0 1 4 0;
#X connect 2 0 1 0;
#X connect 2 0 85 0;
#X connect 3 0 2 0;
#X connect 4 0 6 0;
#X connect 4 1 5 0;
#X connect 5 0 2 0;
#X connect 6 0 2 0;
#X connect 7 0 10 0;
#X connect 7 1 11 0;
#X connect 9 0 8 0;
#X connect 9 0 85 0;
#X connect 10 0 9 0;
#X connect 11 0 13 0;
#X connect 11 1 12 0;
#X connect 12 0 9 0;
#X connect 13 0 9 0;
#X connect 14 0 17 0;
#X connect 14 1 18 0;
#X connect 16 0 15 0;
#X connect 16 0 85 0;
#X connect 17 0 16 0;
#X connect 18 0 20 0;
#X connect 18 1 19 0;
#X connect 19 0 16 0;
#X connect 20 0 16 0;
#X connect 21 0 24 0;
#X connect 21 1 25 0;
#X connect 23 0 22 0;
#X connect 23 0 85 0;
#X connect 24 0 23 0;
#X connect 25 0 27 0;
#X connect 25 1 26 0;
#X connect 26 0 23 0;
#X connect 27 0 23 0;
#X connect 28 0 31 0;
#X connect 28 1 32 0;
#X connect 30 0 29 0;
#X connect 30 0 85 0;
#X connect 31 0 30 0;
#X connect 32 0 34 0;
#X connect 32 1 33 0;
#X connect 33 0 30 0;
#X connect 34 0 30 0;
#X connect 35 0 38 0;
#X connect 35 1 39 0;
#X connect 37 0 36 0;
#X connect 37 0 85 0;
#X connect 38 0 37 0;
#X connect 39 0 41 0;
#X connect 39 1 40 0;
#X connect 40 0 37 0;
#X connect 41 0 37 0;
#X connect 42 0 45 0;
#X connect 42 1 46 0;
#X connect 44 0 43 0;
#X connect 44 0 85 0;
#X connect 45 0 44 0;
#X connect 46 0 48 0;
#X connect 46 1 47 0;
#X connect 47 0 44 0;
#X connect 48 0 44 0;
#X connect 49 0 52 0;
#X connect 49 1 53 0;
#X connect 51 0 50 0;
#X connect 51 0 85 0;
#X connect 52 0 51 0;
#X connect 53 0 55 0;
#X connect 53 1 54 0;
#X connect 54 0 51 0;
#X connect 55 0 51 0;
#X connect 56 0 59 0;
#X connect 56 1 60 0;
#X connect 58 0 57 0;
#X connect 58 0 85 0;
#X connect 59 0 58 0;
#X connect 60 0 62 0;
#X connect 60 1 61 0;
#X connect 61 0 58 0;
#X connect 62 0 58 0;
#X connect 63 0 66 0;
#X connect 63 1 67 0;
#X connect 65 0 64 0;
#X connect 65 0 85 0;
#X connect 66 0 65 0;
#X connect 67 0 69 0;
#X connect 67 1 68 0;
#X connect 68 0 65 0;
#X connect 69 0 65 0;
#X connect 70 0 73 0;
#X connect 70 1 74 0;
#X connect 72 0 71 0;
#X connect 72 0 85 0;
#X connect 73 0 72 0;
#X connect 74 0 76 0;
#X connect 74 1 75 0;
#X connect 75 0 72 0;
#X connect 76 0 72 0;
#X connect 77 0 80 0;
#X connect 77 1 81 0;
#X connect 79 0 78 0;
#X connect 79 0 85 0;
#X connect 80 0 79 0;
#X connect 81 0 83 0;
#X connect 81 1 82 0;
#X connect 82 0 79 0;
#X connect 83 0 79 0;
#X connect 85 0 84 0;
#X connect 86 0 0 0;
#X connect 87 0 7 0;
#X connect 88 0 14 0;
#X connect 89 0 21 0;
#X connect 90 0 28 0;
#X connect 91 0 35 0;
#X connect 92 0 42 0;
#X connect 93 0 49 0;
#X connect 94 0 56 0;
#X connect 95 0 63 0;
#X connect 96 0 70 0;
#X connect 97 0 77 0;
#X restore 290 433 pd playWithLed------------------------------;
#X text 39 39 comment;
#X text 39 39 comment;
#N canvas 611 69 753 535 song_led 0;
#X obj 234 116 inlet;
#X obj 129 203 extra/sv song_mode;
#X obj 234 157 delay 300;
#X obj 234 228 tgl 15 0 empty empty empty 17 7 0 10 -262144 -1 -1 0
1;
#X obj 234 251 sel 1;
#X obj 129 231 tgl 15 0 empty empty empty 17 7 0 10 -262144 -1 -1 0
1;
#X obj 79 267 spigot;
#X obj 23 203 extra/sv song;
#X obj 79 287 - 1;
#X obj 248 494 outlet;
#X obj 434 391 r load_song;
#X obj 386 156 r save_song;
#X obj 407 201 delay 2000;
#X obj 365 271 metro 200;
#X msg 406 226 stop;
#X obj 363 299 tgl 15 0 empty empty empty 17 7 0 10 -262144 -1 -1 0
1;
#X obj 346 224 bng 15 250 50 0 empty empty empty 17 7 0 10 -262144
-1 -1;
#X obj 206 435 i 0;
#X obj 81 335 t b f;
#X floatatom 108 495 5 0 0 0 - - -;
#X obj 281 379 sel 1 0;
#X msg 279 432 -1;
#X obj 406 248 t b a;
#X msg 406 301 1;
#X msg 234 277 0;
#X obj 434 428 delay 1000;
#X obj 381 482 extra/sv song_mode;
#X msg 417 459 0;
#X connect 0 0 2 0;
#X connect 1 0 5 0;
#X connect 1 1 3 0;
#X connect 2 0 1 2;
#X connect 3 0 4 0;
#X connect 4 0 24 0;
#X connect 5 0 6 1;
#X connect 6 0 8 0;
#X connect 7 0 6 0;
#X connect 8 0 18 0;
#X connect 10 0 25 0;
#X connect 11 0 12 0;
#X connect 11 0 13 0;
#X connect 12 0 14 0;
#X connect 13 0 15 0;
#X connect 14 0 22 0;
#X connect 15 0 20 0;
#X connect 16 0 13 0;
#X connect 17 0 19 0;
#X connect 17 0 9 0;
#X connect 18 0 17 0;
#X connect 18 1 17 1;
#X connect 20 0 17 0;
#X connect 20 1 21 0;
#X connect 21 0 9 0;
#X connect 22 0 23 0;
#X connect 22 1 13 0;
#X connect 23 0 20 0;
#X connect 23 0 27 0;
#X connect 24 0 1 1;
#X connect 25 0 27 0;
#X connect 27 0 26 1;
#X restore 160 456 pd song_led;
#X obj 49 365 r loadsong;
#X obj 49 391 bang;
#X obj 55 442 s tempoGoIn;
#X obj 53 418 delay 300;
#X obj 469 294 effect/reverb2;
#X obj 17 643 extra/multiple_selection_manager;
#X obj 379 234 audio/12loop 0 0 2 0 1 1 0;
#X obj 41 291 audio/tempo_link machines 7;
#X connect 1 1 9 0;
#X connect 2 0 1 0;
#X connect 2 1 1 0;
#X connect 3 0 4 1;
#X connect 3 0 4 0;
#X connect 5 0 6 0;
#X connect 9 0 3 0;
#X connect 9 0 25 0;
#X connect 10 0 3 0;
#X connect 11 0 12 0;
#X connect 12 0 26 1;
#X connect 14 0 7 2;
#X connect 15 1 7 2;
#X connect 15 2 7 3;
#X connect 15 3 7 4;
#X connect 15 4 7 5;
#X connect 15 5 7 6;
#X connect 15 6 7 7;
#X connect 15 7 7 8;
#X connect 15 8 7 9;
#X connect 15 9 7 10;
#X connect 15 10 7 11;
#X connect 15 11 7 12;
#X connect 15 12 7 13;
#X connect 18 0 7 0;
#X connect 19 0 20 0;
#X connect 20 0 22 0;
#X connect 22 0 21 0;
#X connect 23 0 3 0;
#X connect 25 0 3 0;
#X connect 25 1 23 0;
#X connect 25 2 10 0;
#X coords 0 -1 1 1 140 42 2 100 100;
#X restore 6 138 pd patch;
#N canvas 284 300 1248 405 connect 0;
#X obj 40 6 cnv 15 996 83 empty empty CONNECT 330 30 0 45 -21525 -88297
0;
#X obj 44 26 cnv 15 138 40 empty empty CONNECT 20 12 0 14 -66577 -262144
0;
#N canvas 402 288 1038 552 open 0;
#X obj 103 102 hradio 15 0 0 3 empty empty empty 0 -8 0 10 -262144
-1 -1 1;
#X text 462 314 label-color;
#X text 477 339 label-color;
#X obj 377 311 t b f;
#X msg 400 277 2;
#X obj 466 220 loadbang;
#X obj 104 166 bang;
#X msg 363 277 43;
#X obj 363 197 bang;
#X obj 404 365 pack 43 0 0 \$0;
#X obj 400 220 delay 200;
#X msg 104 202 \; pd-connect vis 1;
#X msg 405 398 \; \$4_connectcnv color \$1 \$2 \$3;
#X obj 101 101 cnv 15 47 15 empty \$0_connectcnv open 14 6 0 10 -66577
-262144 0;
#X obj 594 296 bang;
#X msg 594 332 \; pd-connect vis 0;
#X connect 0 0 6 0;
#X connect 3 1 9 0;
#X connect 4 0 3 0;
#X connect 5 0 4 0;
#X connect 5 0 14 0;
#X connect 6 0 8 0;
#X connect 6 0 11 0;
#X connect 7 0 3 0;
#X connect 8 0 7 0;
#X connect 8 0 10 0;
#X connect 9 0 12 0;
#X connect 10 0 4 0;
#X connect 14 0 15 0;
#X coords 0 -1 1 1 49 17 2 100 100;
#X restore 127 47 pd open;
#X obj 40 103 arduino/arduino;
#X obj 236 103 connect/connect_mic;
#X obj 38 159 hardware/midi;
#X obj 37 217 hardware/keyboard;
#X obj 384 111 connect/connect_samplerloop;
#X obj 903 114 connect/connect_song;
#X obj 384 328 connect/connect_12looper;
#X obj 195 329 connect/connect_global_breakbeat;
#X obj 900 327 connect/connect_global_recplay;
#X obj 3 328 connect/connect_global_extra;
#X coords 0 -1 1 1 140 42 1 43 25;
#X restore 6 191 pd connect;
#N canvas 1104 541 721 359 volumes 0;
#X obj 24 -13 cnv 15 650 83 empty empty VOLUMES 330 30 0 45 -21525
-88297 0;
#X obj 28 80 volumes/volume_mic;
#X obj 44 26 cnv 15 138 40 empty empty VOLUMES 20 12 0 14 -66577 -262144
0;
#N canvas 285 163 1038 575 open 0;
#X obj 103 102 hradio 15 0 0 3 empty empty empty 0 -8 0 10 -262144
-1 -1 2;
#X text 462 314 label-color;
#X text 477 339 label-color;
#X obj 377 311 t b f;
#X msg 400 277 2;
#X obj 466 220 loadbang;
#X obj 104 166 bang;
#X msg 363 277 43;
#X obj 363 197 bang;
#X obj 404 365 pack 43 0 0 \$0;
#X obj 400 220 delay 200;
#X obj 101 101 cnv 15 47 15 empty \$0_volumescnv open 14 6 0 10 -66577
-262144 0;
#X msg 104 202 \; pd-volumes vis 1;
#X msg 405 398 \; \$4_volumescnv color \$1 \$2 \$3;
#X msg 552 270 \; pd-volumes vis 0;
#X connect 0 0 6 0;
#X connect 3 1 9 0;
#X connect 4 0 3 0;
#X connect 5 0 4 0;
#X connect 5 0 14 0;
#X connect 6 0 8 0;
#X connect 6 0 12 0;
#X connect 7 0 3 0;
#X connect 8 0 7 0;
#X connect 8 0 10 0;
#X connect 9 0 13 0;
#X connect 10 0 4 0;
#X coords 0 -1 1 1 49 17 2 100 100;
#X restore 127 47 pd open;
#X obj 476 80 UI/delay;
#X obj 332 80 UI/reverb;
#X obj 209 0 bng 55 250 50 0 save_all empty SAVE 10 25 0 15 -258113
-1 -1;
#X obj 188 80 volumes/volume_samplerlooper 1;
#X coords 0 -1 1 1 140 42 1 43 25;
#X restore 8 241 pd volumes;
#X coords 0 -1 1 1 146 260 1 3 100;
