#N canvas 459 86 804 657 10;
#X obj 643 136 hradio 15 1 0 7 empty empty empty 0 -8 0 10 -128992
-262144 -1 3;
#X obj 648 1 vsl 35 100 0 100 0 0 empty empty empty 0 -9 0 10 -228856
-1 -1 7400 0;
#X obj 320 282 delread~ delayMain;
#X floatatom 316 182 5 0 4000 1 ms - -, f 5;
#X obj 362 351 / 100;
#X floatatom 316 62 5 0 0 0 - - -, f 5;
#X obj 316 108 / 60;
#X obj 316 133 pow -1;
#X obj 316 158 * 1000;
#X floatatom 451 352 5 0 0 0 feedback - -, f 5;
#X obj 316 84 * 1;
#X obj 93 419 +~;
#X obj 271 182 t b f;
#X obj 93 455 outlet~;
#X obj 319 239 / 3;
#X obj 269 151 + 1;
#X obj 163 65 *~ 0.9;
#X obj 163 411 delwrite~ delayMain 200;
#X obj 115 -16 inlet~;
#X text 72 41 dry/wet fixed;
#X obj 372 215 s effect_delay_ms;
#X obj 316 38 extra/sv tempo;
#X obj 310 -26 inlet;
#X obj 496 -33 inlet;
#X obj 496 290 f 0;
#X obj 108 371 *~ 0.4;
#X obj 269 7 extra/sv delay_divide;
#X obj 362 322 extra/sv delay_feedback;
#X obj 93 25 *~ 0.01;
#X obj 577 112 extra/svsave delay_feedback;
#X obj 576 158 extra/svsave delay_divide;
#X connect 0 0 30 1;
#X connect 1 0 29 1;
#X connect 2 0 25 0;
#X connect 3 0 14 0;
#X connect 3 0 20 0;
#X connect 4 0 25 1;
#X connect 5 0 10 0;
#X connect 6 0 7 0;
#X connect 7 0 8 0;
#X connect 8 0 3 0;
#X connect 10 0 6 0;
#X connect 11 0 13 0;
#X connect 12 0 14 0;
#X connect 12 1 14 1;
#X connect 14 0 2 0;
#X connect 15 0 12 0;
#X connect 16 0 17 0;
#X connect 18 0 16 0;
#X connect 18 0 28 0;
#X connect 21 0 5 0;
#X connect 22 0 26 1;
#X connect 23 0 24 0;
#X connect 24 0 27 1;
#X connect 25 0 11 1;
#X connect 25 0 17 0;
#X connect 26 0 15 0;
#X connect 27 0 4 0;
#X connect 27 0 9 0;
#X connect 28 0 11 0;
#X coords 0 657 1 656 132 500 0;
