#N canvas 645 208 620 474 10;
#X obj -54 335 lop~;
#X obj 126 -12 inlet~;
#X obj 20 429 outlet~;
#X obj 231 329 hip~;
#X obj 43 250 *~ 1;
#X msg 98 182 0;
#X msg 61 184 1;
#X msg 264 179 0;
#X msg 306 180 1;
#X obj 230 260 *~ 0;
#X obj -88 7 cnv 15 116 82 empty empty FILTRE 25 25 0 14 -234520 -262144
0;
#X obj -49 42 hradio 15 1 0 2 empty empty empty 0 -8 0 10 -262144 -1
-1 0;
#X text -87 41 grave;
#X text -10 40 aigu;
#X text -89 97 son filtré;
#X obj 316 -81 inlet;
#X obj 316 -43 / 255;
#X obj -72 60 hsl 80 15 120 140 0 0 empty empty empty -2 -8 0 10 -232576
-1 -1 268 1;
#X obj 203 -89 loadbang;
#X msg 200 -65 127;
#X obj -28 150 dbtorms;
#X obj -46 204 dbtopow;
#X obj 316 2 + 120;
#X obj 123 -86 r \$0-load;
#X obj 159 144 sel 0;
#X obj -348 39 ../save/save-int-separate \$1-filter-sens;
#X obj -352 69 ../save/save-int-separate \$1-filter-value;
#X obj 316 -24 * 20;
#X obj -89 6 cnv 12 40 12 empty empty son 10 5 0 12 -4160 -1 0;
#X text -84 4;
#X obj -17 6 cnv 12 46 12 empty empty valeur 2 6 0 12 -249508 -1 0
;
#X obj -89 77 cnv 12 40 12 empty empty son 10 5 0 12 -4160 -1 0;
#X connect 0 0 2 0;
#X connect 1 0 4 0;
#X connect 1 0 9 0;
#X connect 3 0 2 0;
#X connect 4 0 0 0;
#X connect 5 0 9 1;
#X connect 6 0 4 1;
#X connect 7 0 4 1;
#X connect 8 0 9 1;
#X connect 9 0 3 0;
#X connect 11 0 24 0;
#X connect 11 0 25 0;
#X connect 15 0 16 0;
#X connect 16 0 27 0;
#X connect 17 0 21 0;
#X connect 17 0 26 0;
#X connect 18 0 19 0;
#X connect 19 0 16 0;
#X connect 21 0 0 1;
#X connect 21 0 3 1;
#X connect 22 0 17 0;
#X connect 23 0 19 0;
#X connect 24 0 5 0;
#X connect 24 0 6 0;
#X connect 24 1 7 0;
#X connect 24 1 8 0;
#X connect 25 0 11 0;
#X connect 26 0 17 0;
#X connect 27 0 22 0;
#X coords 0 -1 1 1 120 90 2 -90 2;
