#N canvas 197 89 804 657 10;
#N canvas 754 174 721 564 delay 0;
#X obj 260 322 delread~ delayMain;
#X floatatom 256 222 5 0 4000 1 ms - -, f 5;
#X obj 302 391 / 100;
#X floatatom 256 102 5 0 0 0 - - -, f 5;
#X obj 256 148 / 60;
#X obj 256 173 pow -1;
#X obj 256 198 * 1000;
#X floatatom 391 392 5 0 0 0 feedback - -, f 5;
#X obj 256 124 * 1;
#X obj 33 459 +~;
#X obj 211 222 t b f;
#X obj 33 495 outlet~;
#X obj 259 279 / 3;
#X obj 209 191 + 1;
#X obj 33 65 *~ 0.05;
#X obj 103 105 *~ 0.9;
#X obj 103 451 delwrite~ delayMain 200;
#X obj 55 24 inlet~;
#X text 12 81 dry/wet fixed;
#X obj 312 255 s effect_delay_ms;
#X obj 256 78 extra/sv tempo;
#X obj 302 362 extra/sv \$1_main_effect_del_feedback;
#X obj 209 47 extra/sv \$1_main_effect_del_divide;
#X obj 276 7 inlet;
#X obj 436 7 inlet;
#X obj 436 330 f 0;
#X obj 48 411 *~ 0.4;
#X connect 0 0 26 0;
#X connect 1 0 12 0;
#X connect 1 0 19 0;
#X connect 2 0 26 1;
#X connect 3 0 8 0;
#X connect 4 0 5 0;
#X connect 5 0 6 0;
#X connect 6 0 1 0;
#X connect 8 0 4 0;
#X connect 9 0 11 0;
#X connect 10 0 12 0;
#X connect 10 1 12 1;
#X connect 12 0 0 0;
#X connect 13 0 10 0;
#X connect 14 0 9 0;
#X connect 15 0 16 0;
#X connect 17 0 14 0;
#X connect 17 0 15 0;
#X connect 20 0 3 0;
#X connect 21 0 2 0;
#X connect 21 0 7 0;
#X connect 22 0 13 0;
#X connect 23 0 22 1;
#X connect 24 0 25 0;
#X connect 25 0 21 1;
#X connect 26 0 9 1;
#X connect 26 0 16 0;
#X restore 162 141 pd delay;
#X obj 36 229 outlet~;
#X obj 13 -23 inlet~;
#X obj 345 18 extra/sv \$1_main_effect_revsend;
#X obj 345 42 extra/sv \$1_main_effect_delsend;
#X obj 345 68 extra/sv \$1_main_effect_volume;
#N canvas 71 215 537 424 reverb 0;
#X obj 141 304 rev2~;
#X text 177 134 level \, dB;
#X floatatom 180 158 0 0 100 0 - - -;
#X text 244 137 liveness \, 0-100;
#X floatatom 199 237 0 0 120 0 - - -;
#X floatatom 219 238 0 0 120 0 - - -;
#X text 246 262 crossover frequency \, Hz.;
#X obj 180 108 * 1.2;
#X msg 199 211 101;
#X msg 219 210 20;
#X obj 222 179 loadbang;
#X obj 180 78 ftom;
#X obj 180 54 * 4;
#X obj 243 -31 loadbang;
#X msg 243 -2 120;
#X obj 141 -89 inlet~;
#X obj 141 357 outlet~;
#X obj 180 21 extra/sv \$1_main_effect_rev_time;
#X obj 160 -59 extra/sv \$1_main_effect_rev_level;
#X connect 0 0 16 0;
#X connect 2 0 0 2;
#X connect 4 0 0 3;
#X connect 5 0 0 4;
#X connect 7 0 2 0;
#X connect 8 0 4 0;
#X connect 9 0 5 0;
#X connect 10 0 8 0;
#X connect 10 0 9 0;
#X connect 11 0 7 0;
#X connect 12 0 11 0;
#X connect 13 0 14 0;
#X connect 14 0 17 1;
#X connect 15 0 0 0;
#X connect 17 0 12 0;
#X connect 18 0 0 1;
#X restore 95 140 pd reverb;
#N canvas 258 261 450 300 mixer 0;
#X obj 125 79 inlet~;
#X obj 125 250 outlet~;
#X obj 125 184 *~ 1;
#X obj 185 110 extra/sv \$1_main_effect_volume;
#X obj 185 148 / 10;
#X connect 0 0 2 0;
#X connect 2 0 1 0;
#X connect 3 0 4 0;
#X connect 4 0 2 1;
#X restore 36 76 pd mixer;
#N canvas 258 261 450 300 mixer2 0;
#X obj 125 79 inlet~;
#X obj 125 250 outlet~;
#X obj 125 184 *~ 1;
#X obj 185 148 / 10;
#X obj 185 110 extra/sv \$1_main_effect_revsend;
#X connect 0 0 2 0;
#X connect 2 0 1 0;
#X connect 3 0 2 1;
#X connect 4 0 3 0;
#X restore 96 76 pd mixer2;
#N canvas 258 261 450 300 mixer3 0;
#X obj 125 79 inlet~;
#X obj 125 250 outlet~;
#X obj 125 184 *~ 1;
#X obj 185 148 / 10;
#X obj 185 110 extra/sv \$1_main_effect_delsend;
#X connect 0 0 2 0;
#X connect 2 0 1 0;
#X connect 3 0 2 1;
#X connect 4 0 3 0;
#X restore 160 76 pd mixer3;
#X text 41 95 Volume;
#X obj 95 229 outlet~;
#X obj 160 229 outlet~;
#X obj 229 76 *~ 1;
#X obj 229 229 outlet~;
#X obj 323 233 extra/sv \$1_main_effect_del_feedback;
#X obj 322 279 extra/sv \$1_main_effect_del_divide;
#X obj 389 257 hradio 15 1 0 7 empty empty empty 0 -8 0 10 -128992
-262144 -1 0;
#X obj 394 122 vsl 35 100 0 100 0 0 empty empty empty 0 -9 0 10 -228856
-1 -1 0 0;
#X text 323 119 DELAY;
#X obj 319 429 extra/sv \$1_main_effect_rev_time;
#X obj 393 322 vsl 35 100 0 150 0 0 empty empty empty 0 -9 0 10 -228856
-1 -1 6550 0;
#X text 317 324 REVERB;
#X text 262 77 RAW;
#X floatatom 399 -18 5 0 0 0 - - -, f 5;
#X connect 0 0 12 0;
#X connect 2 0 7 0;
#X connect 2 0 8 0;
#X connect 2 0 9 0;
#X connect 2 0 13 0;
#X connect 6 0 11 0;
#X connect 7 0 1 0;
#X connect 8 0 6 0;
#X connect 9 0 0 0;
#X connect 13 0 14 0;
#X connect 17 0 16 1;
#X connect 18 0 15 1;
#X connect 21 0 20 1;
#X connect 24 0 3 1;
#X coords 0 657 1 656 132 500 0;
