#N canvas 537 546 714 416 10;
#X obj 52 328 outlet~;
#X obj 549 99 hsl 90 15 2.4 0 0 1 empty empty reflection 20 8 0 10
-262144 -260097 -1 300 0;
#X obj 315 -1 inlet;
#X obj 159 6 inlet~;
#X floatatom 208 77 5 0 0 0 - - -;
#X floatatom 225 50 5 0 0 0 - - -;
#X obj 542 182 hsl 128 15 0 1 0 0 empty empty empty -2 -8 0 10 -262144
-1 -1 10600 1;
#X obj 276 22 extra/sv reverb_room;
#X msg 494 182 set \$1;
#X obj 226 -2 * -1;
#X obj 226 18 + 1;
#X obj 538 28 hsl 128 15 0 100 0 0 empty empty empty -2 -8 0 10 -262144
-1 -1 9000 1;
#X msg 490 29 set \$1;
#X obj 495 9 extra/svsave reverb_drywet;
#X obj 498 163 extra/svsave reverb_room;
#X obj 276 48 / 15;
#X text 516 146 SV_SAVE;
#X text 531 -10 SV_SAVE;
#X obj 226 -64 extra/sv reverb_drywet;
#X obj 226 -44 / 100;
#X floatatom 204 161 0 0 120 0 - - -;
#X text 245 161 level \, dB;
#X floatatom 248 185 0 0 100 0 - - -;
#X text 289 185 liveness \, 0-100;
#X floatatom 292 211 0 0 120 0 - - -;
#X floatatom 336 235 0 0 120 0 - - -;
#X text 323 211 crossover frequency \, Hz.;
#X text 369 236 HF damping \, percent;
#X obj 161 266 rev2~ 100 90 3000 20;
#X connect 2 0 7 1;
#X connect 3 0 28 0;
#X connect 4 0 20 0;
#X connect 6 0 14 1;
#X connect 7 0 15 0;
#X connect 8 0 6 0;
#X connect 9 0 10 0;
#X connect 10 0 5 0;
#X connect 11 0 13 1;
#X connect 12 0 11 0;
#X connect 13 0 12 0;
#X connect 14 0 8 0;
#X connect 15 0 22 0;
#X connect 18 0 19 0;
#X connect 19 0 9 0;
#X connect 19 0 4 0;
#X connect 20 0 28 1;
#X connect 22 0 28 2;
#X connect 24 0 28 3;
#X connect 25 0 28 4;
#X connect 28 0 0 0;
