#N canvas 405 478 859 509 10;
#X obj 101 141 cnv 15 138 23 empty empty SELECT 5 12 0 14 -33289 -262144
0;
#X obj 101 101 cnv 15 138 30 empty \$0_titlecnv LOOPER_1 20 12 0 18
-162280 -66577 0;
#X obj 303 55 pack \$1 \$2 \$0;
#X obj 303 26 loadbang;
#X obj 283 27 bng 15 250 50 0 empty empty empty 17 7 0 10 -262144 -1
-1;
#X msg 303 88 \; \$3_titlecnv label LOOPER_\$1;
#X obj 429 166 sel 0;
#X obj 105 400 s 1_looper_volume_fromUI;
#X obj 102 229 cnv 15 138 23 empty empty VOLUME 5 12 0 14 -33289 -262144
0;
#X obj 101 286 cnv 15 138 23 empty empty SEND_A 5 12 0 14 -33289 -262144
0;
#X obj 164 144 extra/midiLearn \$1_module_ask_selection;
#X obj 101 170 cnv 15 138 23 empty empty REC 5 12 0 14 -33289 -262144
0;
#X obj 101 203 cnv 15 138 23 empty empty PLAY 5 12 0 14 -33289 -262144
0;
#X obj 164 233 extra/midiLearn \$1_\$2_looper_volume;
#X obj 164 205 extra/midiLearn \$1_\$2_looper_waitforplay;
#X obj 164 171 extra/midiLearn \$1_\$2_looper_waitforrec;
#X obj 517 267 extra/sv \$1_\$2_loop_recbutton;
#X obj 294 262 extra/sv \$1_\$2_loop_playbutton;
#X obj 164 289 extra/midiLearn \$1_\$2_looper_sendA;
#X obj 100 315 cnv 15 138 23 empty empty SEND_B 5 12 0 14 -33289 -262144
0;
#X obj 164 318 extra/midiLearn \$1_\$2_looper_sendB;
#X obj 430 215 s ask_selection;
#X obj 429 190 i \$1;
#X obj 376 311 extra/sv \$1_\$2_loop_mute;
#X obj 101 255 cnv 15 138 23 empty empty MUTE 5 12 0 14 -33289 -262144
0;
#X obj 165 258 extra/midiLearn \$1_\$2_loop_mute;
#X obj 383 345 extra/sv \$1_\$2_loop_volume;
#X obj 387 371 extra/sv \$1_\$2_loop_sendA;
#X obj 391 397 extra/sv \$1_\$2_loop_sendB;
#X connect 2 0 5 0;
#X connect 3 0 2 0;
#X connect 4 0 2 0;
#X connect 6 0 22 0;
#X connect 10 0 6 0;
#X connect 13 0 26 1;
#X connect 14 0 17 1;
#X connect 15 0 16 1;
#X connect 18 0 27 1;
#X connect 20 0 28 1;
#X connect 22 0 21 0;
#X connect 25 0 23 1;
#X coords 0 -1 1 1 140 240 2 100 100;
