#N canvas 0 28 822 545 10;
#X obj 101 134 cnv 15 139 23 empty empty PREV 4 7 0 14 -33289 -262144
0;
#X obj 101 101 cnv 15 138 30 empty empty SONG 12 13 0 18 -16662 -228856
0;
#X obj 101 218 cnv 15 138 23 empty empty LOAD/SAVE 5 8 0 14 -33289
-262144 0;
#X obj 101 161 cnv 15 138 23 empty empty NEXT 5 6 0 14 -33289 -262144
0;
#X obj 101 188 cnv 15 138 23 empty empty NUM 5 8 0 14 -33289 -262144
0;
#X obj 167 137 extra/midiLearn global_song_minus;
#X obj 606 309 loadbang;
#X obj 433 296 i 0;
#X obj 375 295 i 0;
#X obj 433 325 + 1;
#X obj 374 325 - 1;
#X obj 399 269 extra/sv song;
#X obj 552 520 extra/sv song;
#X obj 375 223 bang;
#X obj 369 179 sel 0;
#X obj 165 162 extra/midiLearn global_song_plus;
#X obj 451 240 bang;
#X obj 451 210 sel 0;
#X obj 166 190 extra/midiLearn global_song_numsong;
#X floatatom 294 316 5 0 0 0 - - -;
#X obj 170 428 extra/short_or_long;
#X obj 167 221 extra/midiLearn global_song_loadsave;
#X obj 295 489 s save_song;
#X obj 295 466 bng 15 250 50 0 empty empty empty 17 7 0 10 -262144
-1 -1;
#X obj 195 462 bng 15 250 50 0 empty empty empty 17 7 0 10 -262144
-1 -1;
#X floatatom 512 472 5 0 0 0 - - -;
#X obj 565 339 i 0;
#X obj 571 413 moses 1;
#X obj 199 344 extra/sv song_mode;
#X obj 170 400 spigot;
#X obj 199 371 tgl 15 0 empty empty empty 17 7 0 10 -262144 -1 -1 1
1;
#X msg 231 320 1;
#X obj 294 290 change;
#X obj 294 246 i 0;
#X obj 294 224 / 20;
#X obj 195 490 s loadsong;
#X obj 571 439 moses 20;
#X connect 5 0 14 0;
#X connect 6 0 12 2;
#X connect 7 0 9 0;
#X connect 8 0 10 0;
#X connect 9 0 26 0;
#X connect 10 0 26 0;
#X connect 11 0 8 1;
#X connect 11 0 7 1;
#X connect 13 0 8 0;
#X connect 14 1 13 0;
#X connect 15 0 17 0;
#X connect 16 0 7 0;
#X connect 17 1 16 0;
#X connect 18 0 34 0;
#X connect 19 0 27 0;
#X connect 20 0 24 0;
#X connect 20 1 23 0;
#X connect 21 0 29 0;
#X connect 23 0 22 0;
#X connect 24 0 35 0;
#X connect 26 0 27 0;
#X connect 27 1 36 0;
#X connect 28 0 30 0;
#X connect 29 0 20 0;
#X connect 30 0 29 1;
#X connect 31 0 28 1;
#X connect 32 0 19 0;
#X connect 32 0 31 0;
#X connect 33 0 32 0;
#X connect 34 0 33 0;
#X connect 36 0 12 1;
#X connect 36 0 25 0;
#X coords 0 -1 1 1 140 200 2 100 100;
