#N canvas 353 170 641 427 10;
#X obj 19 352 extra/sv global_breakbeat_inverse;
#X obj 217 369 extra/sv global_breakbeat_slice;
#X obj 430 371 extra/sv global_breakbeat_start;
#X obj 101 101 cnv 15 145 30 empty empty global_breakbeat 5 12 0 14
-233017 -66577 0;
#X obj 101 140 cnv 15 145 30 empty empty inverse 5 12 0 14 -33289 -262144
0;
#X obj 101 180 cnv 15 145 30 empty empty slice 5 12 0 14 -33289 -262144
0;
#X obj 101 215 cnv 15 145 30 empty empty start 5 12 0 14 -33289 -262144
0;
#X obj 167 143 extra/midiLearn global_breakbeat_inverse;
#X obj 167 186 extra/midiLearn global_breakbeat_slice;
#X obj 167 220 extra/midiLearn global_breakbeat_start;
#X obj 249 310 * 8;
#X obj 249 340 i 0;
#X obj 489 310 * 8;
#X obj 489 340 i 0;
#X obj 249 281 / 127;
#X obj 489 280 / 127;
#X connect 7 0 0 1;
#X connect 8 0 14 0;
#X connect 9 0 15 0;
#X connect 10 0 11 0;
#X connect 11 0 1 1;
#X connect 12 0 13 0;
#X connect 13 0 2 1;
#X connect 14 0 10 0;
#X connect 15 0 12 0;
#X coords 0 -1 1 1 147 160 2 100 100;
