#N canvas 430 172 1280 627 10;
#X obj 102 100 cnv 15 510 40 empty empty 12_looper 20 12 0 14 -162280
-66577 0;
#X obj 107 152 cnv 15 80 50 empty empty PLAY_1 5 12 0 14 -33289 -262144
0;
#X obj 287 105 cnv 15 138 23 empty empty SELECT 5 12 0 14 -33289 -262144
0;
#X obj 192 152 cnv 15 80 50 empty empty PLAY_2 5 12 0 14 -33289 -262144
0;
#X obj 276 152 cnv 15 80 50 empty empty PLAY_3 5 12 0 14 -33289 -262144
0;
#X obj 359 152 cnv 15 80 50 empty empty PLAY_4 5 12 0 14 -33289 -262144
0;
#X obj 443 152 cnv 15 80 50 empty empty PLAY_5 5 12 0 14 -33289 -262144
0;
#X obj 527 152 cnv 15 80 50 empty empty PLAY_6 5 12 0 14 -33289 -262144
0;
#X obj 108 212 cnv 15 80 50 empty empty PLAY_7 5 12 0 14 -33289 -262144
0;
#X obj 193 212 cnv 15 80 50 empty empty PLAY_8 5 12 0 14 -33289 -262144
0;
#X obj 277 212 cnv 15 80 50 empty empty PLAY_9 5 12 0 14 -33289 -262144
0;
#X obj 360 212 cnv 15 80 50 empty empty PLAY_10 5 12 0 14 -33289 -262144
0;
#X obj 444 212 cnv 15 80 50 empty empty PLAY_11 5 12 0 14 -33289 -262144
0;
#X obj 528 212 cnv 15 80 50 empty empty PLAY_12 5 12 0 14 -33289 -262144
0;
#X obj 111 181 extra/midiLearn 1_module_ask_selection;
#X obj 194 182 extra/midiLearn 2_module_ask_selection;
#X obj 279 181 extra/midiLearn 3_module_ask_selection;
#X obj 362 179 extra/midiLearn 4_module_ask_selection;
#X obj 447 179 extra/midiLearn 5_module_ask_selection;
#X obj 528 179 extra/midiLearn 6_module_ask_selection;
#X obj 110 238 extra/midiLearn 7_module_ask_selection;
#X obj 197 239 extra/midiLearn 8_module_ask_selection;
#X obj 284 241 extra/midiLearn 9_module_ask_selection;
#X obj 363 240 extra/midiLearn 10_module_ask_selection;
#X obj 447 240 extra/midiLearn 11_module_ask_selection;
#X obj 533 242 extra/midiLearn 12_module_ask_selection;
#X msg 108 399 1;
#X msg 179 401 2;
#X msg 275 401 3;
#X msg 372 401 4;
#X msg 453 399 5;
#X msg 538 399 6;
#X msg 81 478 7;
#X msg 193 476 8;
#X msg 293 473 9;
#X msg 365 473 10;
#X msg 460 475 11;
#X msg 526 473 12;
#X obj 256 522 s ask_selection;
#X obj 81 372 sel 0;
#X obj 152 373 sel 0;
#X obj 248 373 sel 0;
#X obj 345 373 sel 0;
#X obj 426 373 sel 0;
#X obj 511 373 sel 0;
#X obj 54 446 sel 0;
#X obj 166 446 sel 0;
#X obj 266 446 sel 0;
#X obj 338 446 sel 0;
#X obj 433 446 sel 0;
#X obj 499 446 sel 0;
#X connect 14 0 39 0;
#X connect 15 0 40 0;
#X connect 16 0 41 0;
#X connect 17 0 42 0;
#X connect 18 0 43 0;
#X connect 19 0 44 0;
#X connect 20 0 45 0;
#X connect 21 0 46 0;
#X connect 22 0 47 0;
#X connect 23 0 48 0;
#X connect 24 0 49 0;
#X connect 25 0 50 0;
#X connect 26 0 38 0;
#X connect 27 0 38 0;
#X connect 28 0 38 0;
#X connect 29 0 38 0;
#X connect 30 0 38 0;
#X connect 31 0 38 0;
#X connect 32 0 38 0;
#X connect 33 0 38 0;
#X connect 34 0 38 0;
#X connect 35 0 38 0;
#X connect 36 0 38 0;
#X connect 37 0 38 0;
#X connect 39 1 26 0;
#X connect 40 1 27 0;
#X connect 41 1 28 0;
#X connect 42 1 29 0;
#X connect 43 1 30 0;
#X connect 44 1 31 0;
#X connect 45 1 32 0;
#X connect 46 1 33 0;
#X connect 47 1 34 0;
#X connect 48 1 35 0;
#X connect 49 1 36 0;
#X connect 50 1 37 0;
#X coords 0 -1 1 1 512 165 2 101 99;
