#N canvas 147 162 1280 627 10;
#X obj 102 100 cnv 15 510 40 empty empty SAMPLER_looper 20 12 0 14
-162280 -66577 0;
#X obj 107 152 cnv 15 80 50 empty empty PLAY_1 5 12 0 14 -33289 -262144
0;
#X obj 368 80 extra/sv \$1_module_ask_selection;
#X obj 431 33 sel 0;
#X msg 431 56 1;
#X obj 247 104 cnv 15 138 23 empty empty SELECT 5 12 0 14 -33289 -262144
0;
#X obj 309 107 extra/midiLearn \$1_module_ask_selection;
#X obj 111 181 extra/midiLearn samplerloop_play1;
#X obj 192 152 cnv 15 80 50 empty empty PLAY_2 5 12 0 14 -33289 -262144
0;
#X obj 276 152 cnv 15 80 50 empty empty PLAY_3 5 12 0 14 -33289 -262144
0;
#X obj 359 152 cnv 15 80 50 empty empty PLAY_4 5 12 0 14 -33289 -262144
0;
#X obj 443 152 cnv 15 80 50 empty empty PLAY_5 5 12 0 14 -33289 -262144
0;
#X obj 527 152 cnv 15 80 50 empty empty PLAY_6 5 12 0 14 -33289 -262144
0;
#X obj 108 212 cnv 15 80 50 empty empty PLAY_7 5 12 0 14 -33289 -262144
0;
#X obj 193 212 cnv 15 80 50 empty empty PLAY_8 5 12 0 14 -33289 -262144
0;
#X obj 277 212 cnv 15 80 50 empty empty PLAY_9 5 12 0 14 -33289 -262144
0;
#X obj 360 212 cnv 15 80 50 empty empty PLAY_10 5 12 0 14 -33289 -262144
0;
#X obj 444 212 cnv 15 80 50 empty empty PLAY_11 5 12 0 14 -33289 -262144
0;
#X obj 528 212 cnv 15 80 50 empty empty PLAY_12 5 12 0 14 -33289 -262144
0;
#X obj 194 182 extra/midiLearn samplerloop_play2;
#X obj 279 181 extra/midiLearn samplerloop_play3;
#X obj 362 179 extra/midiLearn samplerloop_play4;
#X obj 447 179 extra/midiLearn samplerloop_play5;
#X obj 528 179 extra/midiLearn samplerloop_play6;
#X obj 110 238 extra/midiLearn samplerloop_play7;
#X obj 197 239 extra/midiLearn samplerloop_play8;
#X obj 284 241 extra/midiLearn samplerloop_play9;
#X obj 363 240 extra/midiLearn samplerloop_play10;
#X obj 447 240 extra/midiLearn samplerloop_play11;
#X obj 533 242 extra/midiLearn samplerloop_play12;
#X obj -119 115 extra/sv 1_1_loop_playsampler;
#X obj -119 165 extra/sv 2_1_loop_playsampler;
#X obj -120 219 extra/sv 3_1_loop_playsampler;
#X obj -118 277 extra/sv 7_1_loop_playsampler;
#X obj -114 318 extra/sv 8_1_loop_playsampler;
#X obj -115 362 extra/sv 9_1_loop_playsampler;
#X obj 633 90 extra/sv 4_1_loop_playsampler;
#X obj 633 159 extra/sv 5_1_loop_playsampler;
#X obj 633 217 extra/sv 6_1_loop_playsampler;
#X obj 632 288 extra/sv 10_1_loop_playsampler;
#X obj 634 402 extra/sv 12_1_loop_playsampler;
#X obj 630 347 extra/sv 11_1_loop_playsampler;
#X obj -58 340 > 0;
#X obj -57 298 > 0;
#X obj -62 252 > 0;
#X obj -64 197 > 0;
#X obj -62 142 > 0;
#X obj -62 93 > 0;
#X obj 690 68 > 0;
#X obj 690 137 > 0;
#X obj 690 195 > 0;
#X obj 691 266 > 0;
#X obj 689 325 > 0;
#X obj 693 380 > 0;
#X connect 3 0 4 0;
#X connect 4 0 2 1;
#X connect 6 0 3 0;
#X connect 7 0 47 0;
#X connect 19 0 46 0;
#X connect 20 0 45 0;
#X connect 21 0 48 0;
#X connect 22 0 49 0;
#X connect 23 0 50 0;
#X connect 24 0 44 0;
#X connect 25 0 43 0;
#X connect 26 0 42 0;
#X connect 27 0 51 0;
#X connect 28 0 52 0;
#X connect 29 0 53 0;
#X connect 42 0 35 1;
#X connect 43 0 34 1;
#X connect 44 0 33 1;
#X connect 45 0 32 1;
#X connect 46 0 31 1;
#X connect 47 0 30 1;
#X connect 48 0 36 1;
#X connect 49 0 37 1;
#X connect 50 0 38 1;
#X connect 51 0 39 1;
#X connect 52 0 41 1;
#X connect 53 0 40 1;
#X coords 0 -1 1 1 512 211 2 101 99;
