#N canvas 47 181 687 490 10;
#X obj 101 141 cnv 15 138 23 empty empty SELECT 5 12 0 14 -33289 -262144
0;
#X obj 101 101 cnv 15 138 30 empty \$0_titlecnv LOOPER_4 20 12 0 18
-162280 -66577 0;
#X obj 303 55 pack \$1 \$2 \$0;
#X obj 303 26 loadbang;
#X obj 283 27 bng 15 250 50 0 empty empty empty 17 7 0 10 -262144 -1
-1;
#X msg 303 88 \; \$3_titlecnv label LOOPER_\$1;
#X obj 367 213 extra/sv \$1_module_ask_selection;
#X msg 430 191 1;
#X obj 429 166 sel 0;
#X obj 105 400 s 1_looper_volume_fromUI;
#X obj 292 381 extra/midiLearnn 2_looper_volume;
#X obj 355 331 extra/sv \$1_\$2_looper_volume;
#X obj 101 242 cnv 15 138 23 empty empty VOLUME 5 12 0 14 -33289 -262144
0;
#X obj 101 274 cnv 15 138 23 empty empty SENDA 5 12 0 14 -33289 -262144
0;
#X obj 168 144 extra/midiLearn \$1_module_ask_selection;
#X obj 372 280 extra/sv \$1_\$2_is_loop_waitforrec;
#X obj 101 170 cnv 15 138 23 empty empty REC 5 12 0 14 -33289 -262144
0;
#X obj 344 241 sel 0;
#X obj 372 261 bang;
#X obj 101 203 cnv 15 138 23 empty empty PLAY 5 12 0 14 -33289 -262144
0;
#X msg 652 397 0;
#X obj 591 419 extra/sv \$1_\$2_is_loop_recorded;
#N canvas 380 209 623 468 longORshort 0;
#X obj 153 75 inlet;
#X obj 152 180 timer;
#X obj 153 119 sel 0;
#X obj 187 149 bang;
#X obj 151 224 > 500;
#X obj 151 298 bng 15 250 50 0 empty empty empty 17 7 0 10 -262144
-1 -1;
#X obj 181 298 bng 15 250 50 0 empty empty empty 17 7 0 10 -262144
-1 -1;
#X obj 151 256 sel 0;
#X obj 151 419 outlet;
#X obj 223 417 outlet;
#X obj 380 102 sel 0;
#X obj 398 239 i 0;
#X obj 398 270 sel 0;
#X obj 399 311 bng 15 250 50 0 empty empty empty 17 7 0 10 -262144
-1 -1;
#X obj 431 312 bng 15 250 50 0 empty empty empty 17 7 0 10 -262144
-1 -1;
#X obj 432 414 s \$1_recloop_ui_waitforclear;
#X obj 444 196 delay 1000;
#X connect 0 0 2 0;
#X connect 0 0 10 0;
#X connect 0 0 11 1;
#X connect 1 0 4 0;
#X connect 2 0 1 1;
#X connect 2 1 3 0;
#X connect 3 0 1 0;
#X connect 4 0 7 0;
#X connect 5 0 8 0;
#X connect 6 0 9 0;
#X connect 7 0 5 0;
#X connect 7 1 6 0;
#X connect 10 1 16 0;
#X connect 11 0 12 0;
#X connect 12 0 13 0;
#X connect 12 1 14 0;
#X connect 16 0 11 0;
#X restore 574 351 pd longORshort;
#X obj 572 403 bng 15 250 50 0 empty empty empty 17 7 0 10 -262144
-1 -1;
#X obj 573 442 extra/sv \$1_\$2_is_loop_waitforplay;
#X obj 166 245 extra/midiLearn \$1_\$2_looper_volume;
#X obj 167 205 extra/midiLearn \$1_\$2_looper_waitforplay;
#X obj 167 171 extra/midiLearn \$1_\$2_looper_waitforrec;
#X connect 2 0 5 0;
#X connect 3 0 2 0;
#X connect 4 0 2 0;
#X connect 7 0 6 1;
#X connect 8 0 7 0;
#X connect 14 0 8 0;
#X connect 17 1 18 0;
#X connect 18 0 15 0;
#X connect 20 0 21 1;
#X connect 22 0 23 0;
#X connect 22 1 20 0;
#X connect 23 0 24 0;
#X connect 25 0 11 1;
#X connect 26 0 22 0;
#X connect 27 0 17 0;
#X coords 0 -1 1 1 140 200 2 100 100;
