#N canvas 47 181 859 509 10;
#X obj 101 141 cnv 15 138 23 empty empty SELECT 5 12 0 14 -33289 -262144
0;
#X obj 101 101 cnv 15 138 30 empty \$0_titlecnv LOOPER_1 20 12 0 18
-162280 -66577 0;
#X obj 303 55 pack \$1 \$2 \$0;
#X obj 303 26 loadbang;
#X obj 283 27 bng 15 250 50 0 empty empty empty 17 7 0 10 -262144 -1
-1;
#X msg 303 88 \; \$3_titlecnv label LOOPER_\$1;
#X obj 367 213 extra/sv \$1_module_ask_selection;
#X msg 430 191 1;
#X obj 429 166 sel 0;
#X obj 105 400 s 1_looper_volume_fromUI;
#X obj 383 345 extra/sv \$1_\$2_looper_volume;
#X obj 101 242 cnv 15 138 23 empty empty VOLUME 5 12 0 14 -33289 -262144
0;
#X obj 101 274 cnv 15 138 23 empty empty SENDA 5 12 0 14 -33289 -262144
0;
#X obj 168 144 extra/midiLearn \$1_module_ask_selection;
#X obj 101 170 cnv 15 138 23 empty empty REC 5 12 0 14 -33289 -262144
0;
#X obj 101 203 cnv 15 138 23 empty empty PLAY 5 12 0 14 -33289 -262144
0;
#X obj 166 245 extra/midiLearn \$1_\$2_looper_volume;
#X obj 167 205 extra/midiLearn \$1_\$2_looper_waitforplay;
#X obj 167 171 extra/midiLearn \$1_\$2_looper_waitforrec;
#X obj 517 267 extra/sv \$1_\$2_loop_recbutton;
#X obj 294 262 extra/sv \$1_\$2_loop_playbutton;
#X connect 2 0 5 0;
#X connect 3 0 2 0;
#X connect 4 0 2 0;
#X connect 7 0 6 1;
#X connect 8 0 7 0;
#X connect 13 0 8 0;
#X connect 16 0 10 1;
#X connect 17 0 20 1;
#X connect 18 0 19 1;
#X coords 0 -1 1 1 140 200 2 100 100;
