#N canvas 1572 148 1280 627 10;
#X obj 102 100 cnv 15 510 40 empty empty SAMPLER_looper 20 12 0 14
-162280 -66577 0;
#X obj 107 152 cnv 15 80 50 empty empty PLAY_1 5 12 0 14 -33289 -262144
0;
#X obj 45 509 extra/sv \$1_readsound_1_isplaying;
#X obj 44 560 extra/sv \$1_readsound_5_isplaying;
#X obj 768 130 extra/sv \$1_module_ask_selection;
#X obj 831 83 sel 0;
#X msg 831 106 1;
#X obj 247 104 cnv 15 138 23 empty empty SELECT 5 12 0 14 -33289 -262144
0;
#X obj 89 460 cnv 15 138 23 empty empty VOLUME 5 12 0 14 -33289 -262144
0;
#X obj 233 458 cnv 15 138 23 empty empty PITCH 5 12 0 14 -33289 -262144
0;
#X obj 309 107 extra/midiLearn \$1_module_ask_selection;
#X obj 153 462 extra/midiLearn \$1_sampler_volume;
#X obj 290 461 extra/midiLearn globalPitch;
#X obj 375 458 cnv 15 138 23 empty empty REC 5 12 0 14 -33289 -262144
0;
#X obj 427 460 extra/midiLearn sampler8_recmode;
#X obj 515 458 cnv 15 138 23 empty empty BANK 5 12 0 14 -33289 -262144
0;
#X obj 574 461 extra/midiLearn \$1_sampler8_bank;
#X obj 111 181 extra/midiLearn samplerloop_play1;
#X obj 192 152 cnv 15 80 50 empty empty PLAY_2 5 12 0 14 -33289 -262144
0;
#X obj 276 152 cnv 15 80 50 empty empty PLAY_3 5 12 0 14 -33289 -262144
0;
#X obj 359 152 cnv 15 80 50 empty empty PLAY_4 5 12 0 14 -33289 -262144
0;
#X obj 443 152 cnv 15 80 50 empty empty PLAY_5 5 12 0 14 -33289 -262144
0;
#X obj 527 152 cnv 15 80 50 empty empty PLAY_6 5 12 0 14 -33289 -262144
0;
#X obj 108 212 cnv 15 80 50 empty empty PLAY_7 5 12 0 14 -33289 -262144
0;
#X obj 193 212 cnv 15 80 50 empty empty PLAY_8 5 12 0 14 -33289 -262144
0;
#X obj 277 212 cnv 15 80 50 empty empty PLAY_9 5 12 0 14 -33289 -262144
0;
#X obj 360 212 cnv 15 80 50 empty empty PLAY_10 5 12 0 14 -33289 -262144
0;
#X obj 444 212 cnv 15 80 50 empty empty PLAY_11 5 12 0 14 -33289 -262144
0;
#X obj 528 212 cnv 15 80 50 empty empty PLAY_12 5 12 0 14 -33289 -262144
0;
#X obj 194 182 extra/midiLearn samplerloop_play2;
#X obj 279 181 extra/midiLearn samplerloop_play3;
#X obj 362 179 extra/midiLearn samplerloop_play4;
#X obj 447 179 extra/midiLearn samplerloop_play5;
#X obj 528 179 extra/midiLearn samplerloop_play6;
#X obj 110 238 extra/midiLearn samplerloop_play7;
#X obj 197 239 extra/midiLearn samplerloop_play8;
#X obj 284 241 extra/midiLearn samplerloop_play9;
#X obj 364 240 extra/midiLearn samplerloop_play10;
#X obj 447 240 extra/midiLearn samplerloop_play11;
#X obj 533 242 extra/midiLearn samplerloop_play12;
#X obj -121 205 extra/sv 1_1_loop_playbutton;
#X obj -121 229 extra/sv 2_1_loop_playbutton;
#X obj -124 261 extra/sv 3_1_loop_playbutton;
#X obj -127 289 extra/sv 7_1_loop_playbutton;
#X obj -126 321 extra/sv 8_1_loop_playbutton;
#X obj -123 356 extra/sv 9_1_loop_playbutton;
#X obj 727 203 extra/sv 4_1_loop_playbutton;
#X obj 729 225 extra/sv 5_1_loop_playbutton;
#X obj 729 251 extra/sv 6_1_loop_playbutton;
#X obj 729 276 extra/sv 12_1_loop_playbutton;
#X obj 729 302 extra/sv 11_1_loop_playbutton;
#X obj 729 328 extra/sv 10_1_loop_playbutton;
#X connect 5 0 6 0;
#X connect 6 0 4 1;
#X connect 10 0 5 0;
#X connect 17 0 40 1;
#X connect 29 0 41 1;
#X connect 30 0 42 1;
#X connect 31 0 46 1;
#X connect 32 0 47 1;
#X connect 33 0 48 1;
#X connect 34 0 43 1;
#X connect 35 0 44 1;
#X connect 36 0 45 1;
#X connect 37 0 51 1;
#X connect 38 0 50 1;
#X connect 39 0 49 1;
#X coords 0 -1 1 1 512 211 2 101 99;
