#N canvas 356 208 822 545 10;
#X obj 101 134 cnv 15 139 23 empty empty PREV 4 7 0 14 -33289 -262144
0;
#X obj 101 101 cnv 15 138 30 empty empty SONG 12 13 0 18 -16662 -228856
0;
#X obj 101 218 cnv 15 138 23 empty empty LOAD/SAVE 5 8 0 14 -33289
-262144 0;
#X obj 101 161 cnv 15 138 23 empty empty NEXT 5 6 0 14 -33289 -262144
0;
#X obj 101 188 cnv 15 138 23 empty empty NUM 5 8 0 14 -33289 -262144
0;
#X obj 362 21 extra/midiLearnn mic_senda;
#X obj 167 137 extra/midiLearn global_song_minus;
#X obj 606 309 loadbang;
#X obj 433 296 i 0;
#X obj 375 295 i 0;
#X obj 433 325 + 1;
#X obj 374 325 - 1;
#X obj 399 269 extra/sv song;
#X obj 552 520 extra/sv song;
#X obj 375 223 bang;
#X obj 369 179 sel 0;
#X obj 165 162 extra/midiLearn global_song_plus;
#X obj 451 240 bang;
#X obj 451 210 sel 0;
#X obj 166 190 extra/midiLearn global_song_numsong;
#X floatatom 294 316 5 0 0 0 - - -;
#X obj 294 294 / 12;
#X obj 293 388 extra/short_or_long;
#X obj 166 220 extra/midiLearn global_song_loadsave;
#X obj 418 449 s save_song;
#X obj 418 426 bng 15 250 50 0 empty empty empty 17 7 0 10 -262144
-1 -1;
#X obj 318 450 s load_song;
#X obj 318 422 bng 15 250 50 0 empty empty empty 17 7 0 10 -262144
-1 -1;
#X floatatom 512 472 5 0 0 0 - - -;
#X obj 565 339 i 0;
#X obj 571 413 moses 1;
#X obj 571 439 moses 13;
#X connect 6 0 15 0;
#X connect 7 0 13 2;
#X connect 8 0 10 0;
#X connect 9 0 11 0;
#X connect 10 0 29 0;
#X connect 11 0 29 0;
#X connect 12 0 9 1;
#X connect 12 0 8 1;
#X connect 14 0 9 0;
#X connect 15 1 14 0;
#X connect 16 0 18 0;
#X connect 17 0 8 0;
#X connect 18 1 17 0;
#X connect 19 0 21 0;
#X connect 20 0 30 0;
#X connect 21 0 20 0;
#X connect 22 0 27 0;
#X connect 22 1 25 0;
#X connect 23 0 22 0;
#X connect 25 0 24 0;
#X connect 27 0 26 0;
#X connect 29 0 30 0;
#X connect 30 1 31 0;
#X connect 31 0 13 1;
#X connect 31 0 28 0;
#X coords 0 -1 1 1 140 200 2 100 100;
