#N canvas 348 130 1005 581 10;
#X declare -path ../../patches;
#X obj 7 461 cnv 15 980 142 empty empty empty 330 30 0 45 -21525 -88297
0;
#X obj 154 107 cnv 15 834 348 empty empty empty 20 12 0 14 -233017
-66577 0;
#X obj 229 479 UI/ui_tempo_small;
#X obj 7 24 cnv 15 980 81 empty empty LUCIBOX 414 36 0 45 -21525 -88297
0;
#X obj 7 107 cnv 15 144 349 empty empty empty 20 12 0 14 -233017 -66577
0;
#N canvas 587 71 729 555 patch 1;
#X obj 101 101 cnv 15 138 40 empty empty PATCH 20 12 0 14 -66577 -262144
0;
#X obj 365 370 *~ 1;
#X obj 365 400 dac~;
#X obj 38 100 bng 35 250 50 0 empty empty CLOSE 4 20 0 10 -262144 -1
-1;
#X msg 38 164 \; pd-patch vis 0;
#X obj 263 447 arduino/arduino_out;
#N canvas 447 412 1038 529 open 0;
#X text 462 314 label-color;
#X text 477 339 label-color;
#X obj 377 311 t b f;
#X msg 400 277 2;
#X obj 466 220 loadbang;
#X obj 104 101 hradio 15 1 0 2 empty empty empty 0 -8 0 10 -262144
-1 -1 0;
#X obj 104 166 bang;
#X msg 363 277 43;
#X obj 101 101 cnv 15 38 15 empty \$0_opencnv open 6 8 0 10 -66577
-262144 0;
#X msg 405 398 \; \$4_opencnv color \$1 \$2 \$3;
#X obj 363 197 bang;
#X obj 404 365 pack 43 0 0 \$0;
#X obj 400 220 delay 200;
#X msg 101 247 \; pd-patch vis 1;
#X msg 614 289 \; pd-patch vis 0;
#X connect 2 1 11 0;
#X connect 3 0 2 0;
#X connect 4 0 3 0;
#X connect 4 0 14 0;
#X connect 5 0 6 0;
#X connect 6 0 10 0;
#X connect 6 0 13 0;
#X connect 7 0 2 0;
#X connect 10 0 7 0;
#X connect 10 0 12 0;
#X connect 11 0 9 0;
#X connect 12 0 3 0;
#X coords 0 -1 1 1 40 17 2 100 100;
#X restore 177 107 pd open;
#X obj 82 244 loadbang;
#X msg 82 269 127;
#X obj 41 208 declare -path ../../patches;
#X obj 41 291 audio/tempo exemple 3;
#X obj 299 129 audio/4_sync_loop 1;
#X obj 329 159 audio/4_sync_loop 2;
#X obj 359 183 audio/4_sync_loop 3;
#X obj 114 432 extra/sv song;
#X obj 82 380 t b b;
#X obj 82 314 loadbang;
#X msg 139 402 1;
#X obj 28 442 s loadsong;
#X obj 27 412 delay 50;
#X connect 1 0 2 1;
#X connect 1 0 2 0;
#X connect 3 0 4 0;
#X connect 7 0 8 0;
#X connect 8 0 10 1;
#X connect 11 0 1 0;
#X connect 12 0 1 0;
#X connect 13 0 1 0;
#X connect 15 0 19 0;
#X connect 15 1 17 0;
#X connect 16 0 15 0;
#X connect 17 0 14 1;
#X connect 19 0 18 0;
#X coords 0 -1 1 1 140 42 2 100 100;
#X restore 7 139 pd patch;
#N canvas 370 263 1070 501 connect 0;
#X obj 40 6 cnv 15 996 83 empty empty CONNECT 330 30 0 45 -21525 -88297
0;
#X obj 44 26 cnv 15 138 40 empty empty CONNECT 20 12 0 14 -66577 -262144
0;
#N canvas 402 288 1038 552 open 0;
#X obj 103 102 hradio 15 0 0 3 empty empty empty 0 -8 0 10 -262144
-1 -1 1;
#X text 462 314 label-color;
#X text 477 339 label-color;
#X obj 377 311 t b f;
#X msg 400 277 2;
#X obj 466 220 loadbang;
#X obj 104 166 bang;
#X msg 363 277 43;
#X obj 363 197 bang;
#X obj 404 365 pack 43 0 0 \$0;
#X obj 400 220 delay 200;
#X msg 104 202 \; pd-connect vis 1;
#X msg 405 398 \; \$4_connectcnv color \$1 \$2 \$3;
#X obj 101 101 cnv 15 47 15 empty \$0_connectcnv open 14 6 0 10 -66577
-262144 0;
#X obj 594 296 bang;
#X msg 594 332 \; pd-connect vis 0;
#X connect 0 0 6 0;
#X connect 3 1 9 0;
#X connect 4 0 3 0;
#X connect 5 0 4 0;
#X connect 5 0 14 0;
#X connect 6 0 8 0;
#X connect 6 0 11 0;
#X connect 7 0 3 0;
#X connect 8 0 7 0;
#X connect 8 0 10 0;
#X connect 9 0 12 0;
#X connect 10 0 4 0;
#X connect 14 0 15 0;
#X coords 0 -1 1 1 49 17 2 100 100;
#X restore 127 47 pd open;
#X obj 40 103 arduino/arduino;
#X obj 38 159 hardware/midi;
#X obj 37 217 hardware/keyboard;
#X coords 0 -1 1 1 140 42 1 43 25;
#X restore 8 191 pd connect;
#X obj 204 529 hsl 640 30 0 1 0 0 empty global_tempo_slider empty -2
-8 0 10 -33289 -4032 -1 0 1;
#N canvas 531 314 721 359 volumes 0;
#X obj 24 -13 cnv 15 650 83 empty empty VOLUMES 330 30 0 45 -21525
-88297 0;
#X obj 28 80 volumes/volume_mic;
#X obj 44 26 cnv 15 138 40 empty empty VOLUMES 20 12 0 14 -66577 -262144
0;
#N canvas 285 163 1038 575 open 0;
#X obj 103 102 hradio 15 0 0 3 empty empty empty 0 -8 0 10 -262144
-1 -1 2;
#X text 462 314 label-color;
#X text 477 339 label-color;
#X obj 377 311 t b f;
#X msg 400 277 2;
#X obj 466 220 loadbang;
#X obj 104 166 bang;
#X msg 363 277 43;
#X obj 363 197 bang;
#X obj 404 365 pack 43 0 0 \$0;
#X obj 400 220 delay 200;
#X obj 101 101 cnv 15 47 15 empty \$0_volumescnv open 14 6 0 10 -66577
-262144 0;
#X msg 104 202 \; pd-volumes vis 1;
#X msg 405 398 \; \$4_volumescnv color \$1 \$2 \$3;
#X msg 552 270 \; pd-volumes vis 0;
#X connect 0 0 6 0;
#X connect 3 1 9 0;
#X connect 4 0 3 0;
#X connect 5 0 4 0;
#X connect 5 0 14 0;
#X connect 6 0 8 0;
#X connect 6 0 12 0;
#X connect 7 0 3 0;
#X connect 8 0 7 0;
#X connect 8 0 10 0;
#X connect 9 0 13 0;
#X connect 10 0 4 0;
#X coords 0 -1 1 1 49 17 2 100 100;
#X restore 127 47 pd open;
#X obj 536 80 UI/delay;
#X obj 392 80 UI/reverb;
#X obj 209 0 bng 55 250 50 0 save_all empty SAVE 10 25 0 15 -258113
-1 -1;
#X coords 0 -1 1 1 140 42 1 43 25;
#X restore 9 242 pd volumes;
#X obj 325 107 UI/ui_4_sync_loop 1;
#X obj 490 106 UI/ui_4_sync_loop 2;
#X obj 655 107 UI/ui_4_sync_loop 3;
