#N canvas 787 466 450 300 10;
#X obj 176 144 << \$1;
#X obj 176 103 i 1;
#X obj 106 198 &;
#X obj 176 78 loadbang;
#X obj 106 52 inlet;
#X obj 106 248 outlet;
#X connect 0 0 2 1;
#X connect 1 0 0 0;
#X connect 2 0 5 0;
#X connect 3 0 1 0;
#X connect 4 0 2 0;
