#N canvas 247 58 1025 548 10;
#X obj 101 101 cnv 15 208 55 empty empty CLAVIER 20 12 0 14 -170864
-1 0;
#X obj 108 230 outlet;
#X obj 66 230 outlet;
#X obj 150 230 outlet;
#X obj 255 256 outlet;
#X obj 192 230 outlet;
#X obj 297 256 outlet;
#X obj 339 256 outlet;
#X obj 87 -44 i 0;
#X obj 112 -44 i 0;
#X obj 137 -44 i 0;
#X obj 162 -44 i 0;
#X obj 187 -44 i 0;
#X obj 212 -44 i 0;
#X obj 237 -44 i 0;
#X obj 261 -44 i 0;
#X obj 101 142 tgl 15 0 empty empty a 4 7 0 10 -204786 -1 -1 0 1;
#X obj 118 142 tgl 15 0 empty empty b 4 7 0 10 -204786 -1 -1 0 1;
#X obj 135 142 tgl 15 0 empty empty c 4 7 0 10 -204786 -1 -1 0 1;
#X obj 152 142 tgl 15 0 empty empty d 4 7 0 10 -204786 -1 -1 0 1;
#X obj 169 142 tgl 15 0 empty empty u 4 7 0 10 -204786 -1 -1 0 1;
#X obj 186 142 tgl 15 0 empty empty i 4 7 0 10 -204786 -1 -1 0 1;
#X obj 204 142 tgl 15 0 empty empty o 4 7 0 10 -204786 -1 -1 0 1;
#X obj 222 142 tgl 15 0 empty empty p 4 7 0 10 -204786 -1 -1 0 1;
#X obj 383 257 outlet;
#X obj 258 -287 keyname;
#X obj 258 -194 pack s f;
#X obj 258 -223 symbol;
#X obj 258 -245 t b f;
#X msg 258 -167 \$1 \$2;
#X obj 240 142 tgl 15 0 empty empty h 4 7 0 10 -204786 -1 -1 0 1;
#X obj 257 142 tgl 15 0 empty empty j 4 7 0 10 -204786 -1 -1 0 1;
#X obj 275 142 tgl 15 0 empty empty k 4 7 0 10 -204786 -1 -1 0 1;
#X obj 293 142 tgl 15 0 empty empty l 4 7 0 10 -204786 -1 -1 0 1;
#X obj 287 -44 i 0;
#X obj 312 -44 i 0;
#X obj 337 -44 i 0;
#X obj 361 -44 i 0;
#X obj 258 -138 route a b c d u i o p h j k l;
#X obj 427 257 outlet;
#X obj 469 257 outlet;
#X obj 511 257 outlet;
#X obj 554 256 outlet;
#X obj 0 180 sel 0;
#X obj 47 181 sel 0;
#X obj 87 181 sel 0;
#X obj 127 181 sel 0;
#X connect 8 0 16 0;
#X connect 9 0 17 0;
#X connect 10 0 18 0;
#X connect 11 0 19 0;
#X connect 12 0 20 0;
#X connect 13 0 21 0;
#X connect 14 0 22 0;
#X connect 15 0 23 0;
#X connect 16 0 43 0;
#X connect 17 0 44 0;
#X connect 18 0 45 0;
#X connect 19 0 46 0;
#X connect 20 0 4 0;
#X connect 21 0 6 0;
#X connect 22 0 7 0;
#X connect 23 0 24 0;
#X connect 25 0 28 0;
#X connect 25 1 27 1;
#X connect 26 0 29 0;
#X connect 27 0 26 0;
#X connect 28 0 27 0;
#X connect 28 1 26 1;
#X connect 29 0 38 0;
#X connect 30 0 39 0;
#X connect 31 0 40 0;
#X connect 32 0 41 0;
#X connect 33 0 42 0;
#X connect 34 0 30 0;
#X connect 35 0 31 0;
#X connect 36 0 32 0;
#X connect 37 0 33 0;
#X connect 38 0 8 0;
#X connect 38 1 9 0;
#X connect 38 2 10 0;
#X connect 38 3 11 0;
#X connect 38 4 12 0;
#X connect 38 5 13 0;
#X connect 38 6 14 0;
#X connect 38 7 15 0;
#X connect 38 8 34 0;
#X connect 38 9 35 0;
#X connect 38 10 36 0;
#X connect 38 11 37 0;
#X connect 43 1 2 0;
#X connect 44 1 1 0;
#X connect 45 1 3 0;
#X connect 46 1 5 0;
#X coords 0 -1 1 1 210 60 1 100 100;
