#N canvas 83 97 925 667 10;
#X obj 41 84 ctlin;
#X floatatom -118 154 5 0 0 0 - - -, f 5;
#X floatatom 54 152 5 0 0 0 - - -, f 5;
#X obj -80 129 notein;
#X obj 190 422 route 0;
#X obj -118 180 t b f;
#X obj 41 189 t b f;
#X obj 192 295 list;
#X obj 190 475 route 0;
#X obj 190 585 outlet;
#X obj 116 540 s \$0_value;
#X obj 658 134 r \$0_input;
#X msg 658 200 0;
#X obj 190 539 spigot;
#X obj 660 524 tgl 15 0 empty empty empty 17 7 0 10 -262144 -1 -1 1
1;
#X obj 660 489 == 0;
#X obj 189 112 r arduino_msg;
#X obj 657 238 cnv 15 70 16 empty empty empty 20 12 0 14 -228856 -66577
0;
#X obj 658 239 tgl 13 0 empty empty LEARN 14 7 0 10 -258254 -1 -1 0
1;
#X msg 678 379 \; pd-midiLearn_\$1 vis 1;
#N canvas 305 494 388 195 midiLearn_\$0 1;
#X obj 44 61 cnv 15 300 120 empty empty LEARN 80 -50 0 14 -233017 -66577
0;
#X obj 49 31 vradio 30 1 0 5 \$0_input_out \$0_input_in empty 0 -8
0 10 -262144 -1 -1 0;
#X obj 80 63 cnv 15 100 25 empty empty Midi-note 20 12 0 14 -262144
-66577 0;
#X obj 80 93 cnv 15 100 25 empty empty Midi-CC 20 12 0 14 -262144 -66577
0;
#X obj 80 123 cnv 15 100 25 empty empty Arduino 20 12 0 14 -262144
-66577 0;
#X obj 80 153 cnv 15 100 25 empty empty Clavier 20 12 0 14 -262144
-66577 0;
#X obj 181 63 nbx 5 25 0 200 0 0 empty \$0_channel1 empty 0 -8 0 10
-262144 -1 -1 0 10;
#X obj 181 93 nbx 5 25 0 200 0 0 empty \$0_channel2 empty 0 -8 0 10
-262144 -1 -1 0 10;
#X obj 181 123 nbx 5 25 0 200 0 0 empty \$0_channel3 empty 0 -8 0 10
-262144 -1 -1 0 10;
#X obj 181 153 nbx 5 25 0 200 0 0 empty \$0_channel4 empty 0 -8 0 10
-262144 -1 -1 0 10;
#X obj 81 33 cnv 15 40 25 empty empty ---- 20 12 0 14 -262144 -66577
0;
#X coords 0 195 1 194 40 20 0;
#X restore 695 68 pd midiLearn_\$0;
#X obj 678 343 i \$0;
#X obj 511 0 loadbang;
#X obj 511 22 bang;
#X obj 511 45 i \$0;
#X msg 511 69 \; pd-midiLearn_\$1 vis 0;
#X floatatom 703 239 3 0 0 0 - #0_value -, f 3;
#X obj 658 177 delay 1000;
#X obj 678 267 sel 1 0;
#X obj 709 311 i \$0;
#X msg 709 347 \; pd-midiLearn_\$1 vis 0;
#X text -125 106 Message from MIDI NOTE;
#X text 37 54 Message From MIDI CC;
#X text 190 89 Message from Arduino;
#X obj 380 143 key;
#X obj 474 142 keyup;
#X obj 380 165 t b f;
#X obj 474 165 t b f;
#N canvas 4 198 999 468 learn 0;
#X floatatom 304 57 5 0 0 0 - - -, f 5;
#X text 299 32 choose if midi \, ctl \, arduino;
#X floatatom 360 57 5 0 0 0 - - -, f 5;
#X obj 269 208 s \$0_input;
#X obj 193 231 pack 0 0 \$0;
#X obj 303 -184 inlet;
#X obj 438 229 s \$0_channel;
#X obj 358 229 s \$0_index;
#X obj 421 -184 inlet;
#X obj 303 -28 unpack f f f f;
#X obj -89 128 symbol \$1;
#X msg 135 176 clear;
#X obj -75 273 textfile;
#X obj -104 108 t b b l b;
#X msg 42 176 add2 \$1 \$2 \$3;
#X obj -104 87 list;
#X floatatom 422 58 5 0 0 0 - - -, f 5;
#X obj 576 -185 loadbang;
#X obj 576 -163 t b b b b;
#X obj 663 -106 symbol \$1;
#X msg 570 -30 rewind;
#X msg 510 -30 bang;
#X obj 590 20 textfile;
#X obj 659 -184 bng 15 250 50 0 empty empty empty 17 7 0 10 -262144
-1 -1;
#X obj 696 -186 r read_all;
#X obj 303 -161 spigot;
#X obj 590 40 unpack f f f;
#X obj 162 -182 r \$0_input_out;
#X msg 162 -125 0 0 0 0;
#X obj 162 -155 sel 0;
#X text 54 -177 Erase MidiLearn;
#X obj 307 294 s \$0_input_in;
#X msg 307 266 set \$1;
#X msg 192 257 \; \$3_channel1 0 \; \$3_channel2 0 \; \$3_channel3
0 \; \$3_channel4 0 \; \$3_channel\$2 \$1;
#X obj 91 312 nbx 5 25 0 200 0 0 empty \$0_channel0 empty 0 -8 0 10
-262144 -1 -1 0 10;
#X obj 85 71 pack f f f;
#X obj 229 144 t b f;
#X obj 614 -82 pack s s;
#X obj 668 -140 s get_preset_location;
#X obj 612 -126 r preset_location;
#X msg 623 -29 read \$1/midiLearn_\$2.txt;
#X msg -179 226 write \$1/midiLearn_\$2.txt;
#X obj -180 198 pack s s;
#X obj -174 137 s get_preset_location;
#X obj -174 159 r preset_location;
#X connect 0 0 3 0;
#X connect 0 0 32 0;
#X connect 0 0 35 0;
#X connect 0 0 36 0;
#X connect 2 0 4 0;
#X connect 2 0 7 0;
#X connect 2 0 35 1;
#X connect 4 0 33 0;
#X connect 5 0 25 0;
#X connect 8 0 25 1;
#X connect 9 0 0 0;
#X connect 9 1 2 0;
#X connect 9 2 16 0;
#X connect 10 0 42 1;
#X connect 11 0 12 0;
#X connect 13 0 43 0;
#X connect 13 1 10 0;
#X connect 13 2 14 0;
#X connect 13 3 11 0;
#X connect 14 0 12 0;
#X connect 15 0 13 0;
#X connect 16 0 6 0;
#X connect 16 0 35 2;
#X connect 17 0 18 0;
#X connect 18 0 21 0;
#X connect 18 1 20 0;
#X connect 18 2 38 0;
#X connect 18 3 19 0;
#X connect 19 0 37 1;
#X connect 20 0 22 0;
#X connect 21 0 22 0;
#X connect 22 0 26 0;
#X connect 23 0 18 0;
#X connect 24 0 18 0;
#X connect 25 0 9 0;
#X connect 26 0 0 0;
#X connect 26 1 2 0;
#X connect 26 2 16 0;
#X connect 27 0 29 0;
#X connect 28 0 9 0;
#X connect 28 0 15 0;
#X connect 29 0 28 0;
#X connect 32 0 31 0;
#X connect 35 0 15 0;
#X connect 36 0 4 0;
#X connect 36 1 4 1;
#X connect 37 0 40 0;
#X connect 39 0 37 0;
#X connect 40 0 22 0;
#X connect 41 0 12 0;
#X connect 42 0 41 0;
#X connect 44 0 42 0;
#X restore 337 349 pd learn;
#X text 393 114 Keyboard;
#X obj 190 375 route 0;
#X obj 229 354 r \$0_input;
#X obj 229 401 r \$0_index;
#X obj 229 454 r \$0_channel;
#X obj 189 139 unpack f f;
#X obj 189 167 pack f 0 f;
#X obj 189 192 list;
#X text 699 45 GUI-midiLearn;
#X obj -118 232 pack 1 0 0 0;
#X obj 43 229 pack 2 0 0 0;
#X obj 189 215 list prepend 3;
#X obj 379 201 pack 4 0 0 254;
#X obj 473 201 pack 4 0 0 0;
#X obj 657 157 bang;
#X floatatom 243 376 5 0 0 0 - - -, f 5;
#X floatatom 243 424 5 0 0 0 - - -, f 5;
#X floatatom 243 476 5 0 0 0 - - -, f 5;
#X connect 0 0 6 0;
#X connect 0 1 2 0;
#X connect 0 2 49 2;
#X connect 1 0 5 0;
#X connect 2 0 49 1;
#X connect 3 0 1 0;
#X connect 3 1 48 3;
#X connect 3 2 48 2;
#X connect 4 0 8 0;
#X connect 5 0 48 0;
#X connect 5 1 48 1;
#X connect 6 0 49 0;
#X connect 6 1 49 3;
#X connect 7 0 40 0;
#X connect 7 0 38 0;
#X connect 8 0 13 0;
#X connect 8 0 10 0;
#X connect 11 0 53 0;
#X connect 12 0 18 0;
#X connect 13 0 9 0;
#X connect 14 0 13 1;
#X connect 15 0 14 0;
#X connect 16 0 44 0;
#X connect 18 0 15 0;
#X connect 18 0 28 0;
#X connect 18 0 38 1;
#X connect 21 0 19 0;
#X connect 22 0 23 0;
#X connect 23 0 24 0;
#X connect 24 0 25 0;
#X connect 27 0 12 0;
#X connect 28 0 21 0;
#X connect 28 1 29 0;
#X connect 29 0 30 0;
#X connect 34 0 36 0;
#X connect 35 0 37 0;
#X connect 36 0 51 0;
#X connect 36 1 51 1;
#X connect 37 0 52 0;
#X connect 37 1 52 1;
#X connect 40 0 4 0;
#X connect 41 0 40 1;
#X connect 41 0 54 0;
#X connect 42 0 4 1;
#X connect 42 0 55 0;
#X connect 43 0 8 1;
#X connect 43 0 56 0;
#X connect 44 0 45 0;
#X connect 44 1 45 2;
#X connect 45 0 46 0;
#X connect 46 0 50 0;
#X connect 48 0 7 0;
#X connect 49 0 7 0;
#X connect 50 0 7 0;
#X connect 51 0 7 0;
#X connect 52 0 7 0;
#X connect 53 0 27 0;
#X coords 0 -1 1 1 72 18 2 656 237;
