#N canvas 732 284 942 488 10;
#X obj 33 96 extra/sv module_selected;
#X obj 35 29 loadbang;
#X obj 356 190 extra/sv module_selected;
#X floatatom 39 150 5 0 0 0 - - -;
#X msg 35 61 0;
#X msg 133 234 1;
#X obj 69 223 bng 15 250 50 0 empty empty empty 17 7 0 10 -262144 -1
-1;
#X obj 94 157 r loadsong;
#X obj 121 187 delay 400;
#X text 24 -1 Mutiple use bit by bit & method to selec multiple module
for an unique int;
#X obj 457 -25 r ask_selection;
#X obj 457 33 t b f;
#X obj 457 138 t b f;
#X obj 497 213 +;
#X floatatom 356 222 5 0 0 0 - - -;
#X floatatom 501 16 5 0 0 0 - - -;
#X floatatom 501 139 5 0 0 0 - - -;
#X msg 368 108 0;
#X obj 457 109 <<;
#X obj 425 76 i 1;
#X floatatom 498 238 5 0 0 0 - - -;
#X floatatom 316 108 5 0 0 0 - - -;
#X obj 635 23 metro 1000;
#X obj 635 -4 loadbang;
#X obj 701 -2 tgl 15 0 empty empty empty 17 7 0 10 -262144 -1 -1 1
1;
#X obj 635 77 + 1;
#X obj 635 50 i 0;
#X floatatom 635 104 5 0 0 0 - - -;
#X msg 551 35 0;
#X obj 636 190 sel 1;
#X obj 636 163 > 3;
#X msg 636 217 0;
#X connect 0 0 3 0;
#X connect 1 0 4 0;
#X connect 2 0 14 0;
#X connect 2 1 13 0;
#X connect 4 0 0 1;
#X connect 7 0 6 0;
#X connect 7 0 8 0;
#X connect 8 0 5 0;
#X connect 10 0 11 0;
#X connect 10 0 15 0;
#X connect 11 0 19 0;
#X connect 11 0 28 0;
#X connect 11 1 18 1;
#X connect 12 0 2 2;
#X connect 12 1 13 1;
#X connect 13 0 2 1;
#X connect 13 0 20 0;
#X connect 17 0 2 1;
#X connect 18 0 12 0;
#X connect 18 0 16 0;
#X connect 19 0 18 0;
#X connect 21 0 2 1;
#X connect 22 0 26 0;
#X connect 23 0 22 0;
#X connect 24 0 22 0;
#X connect 25 0 26 1;
#X connect 25 0 27 0;
#X connect 26 0 25 0;
#X connect 27 0 30 0;
#X connect 28 0 26 1;
#X connect 29 0 31 0;
#X connect 30 0 29 0;
#X connect 31 0 2 3;
