#N canvas 570 343 450 300 10;
#X obj 22 52 mrpeach/unpackOSC;
#X obj 22 124 s fromOSC;
#X obj 22 19 mrpeach/udpreceive 9999;
#X obj 185 18 r toOSC;
#X obj 185 121 mrpeach/packOSC;
#X obj 185 161 mrpeach/udpsend;
#X msg 352 84 connect 127.0.0.1 9998;
#X obj 185 45 list prepend /ui;
#X msg 185 82 send \$1 \$2 \$3;
#X obj 342 36 inlet;
#X obj 68 171 print;
#X connect 0 0 1 0;
#X connect 0 0 10 0;
#X connect 2 0 0 0;
#X connect 3 0 7 0;
#X connect 4 0 5 0;
#X connect 6 0 5 0;
#X connect 7 0 8 0;
#X connect 8 0 4 0;
#X connect 9 0 6 0;
