#N canvas 933 403 450 300 12;
#X obj 154 73 inlet;
#X obj 153 123 pow -1;
#X obj 154 96 / 60;
#X obj 153 173 outlet;
#X obj 152 149 * 1000;
#X connect 0 0 2 0;
#X connect 1 0 4 0;
#X connect 2 0 1 0;
#X connect 4 0 3 0;
