#N canvas 398 126 696 604 10;
#X obj 90 -217 loadbang;
#X obj 90 -195 t b b b b;
#X floatatom 104 66 5 0 0 0 - - -, f 5;
#X obj 281 -161 symbol \$1;
#X msg 84 -62 rewind;
#X msg 24 -62 bang;
#X obj 104 -12 textfile;
#X obj 104 11 unpack f;
#X obj 104 33 i 0;
#X obj 75 230 i 0;
#X obj 92 314 symbol \$1;
#X msg 223 351 add2 \$1;
#X msg 287 351 clear;
#X obj 75 254 t b b f b;
#X obj 106 398 textfile;
#X obj -76 -29 inlet;
#X obj -61 264 outlet;
#X obj 173 -216 bng 15 250 50 0 empty empty empty 17 7 0 10 -262144
-1 -1;
#X obj 160 157 r save_all;
#X text 190 196 Choose is value is automatically save ... generating
clicking on rpi;
#X obj 210 -218 r read_all;
#X obj 128 -114 pack s s;
#X obj 124 -166 s get_preset_location;
#X obj 124 -146 r preset_location;
#X msg 137 -61 read \$1/int_\$2.txt;
#X obj -8 331 pack s s;
#X obj -8 274 s get_preset_location;
#X obj -8 294 r preset_location;
#X msg 2 371 write \$1/int_\$2.txt;
#X connect 0 0 1 0;
#X connect 1 0 5 0;
#X connect 1 1 4 0;
#X connect 1 2 22 0;
#X connect 1 3 3 0;
#X connect 2 0 16 0;
#X connect 3 0 21 1;
#X connect 4 0 6 0;
#X connect 5 0 6 0;
#X connect 6 0 7 0;
#X connect 7 0 8 0;
#X connect 8 0 2 0;
#X connect 9 0 13 0;
#X connect 10 0 25 1;
#X connect 11 0 14 0;
#X connect 12 0 14 0;
#X connect 13 0 26 0;
#X connect 13 1 10 0;
#X connect 13 2 11 0;
#X connect 13 3 12 0;
#X connect 15 0 9 1;
#X connect 17 0 1 0;
#X connect 18 0 9 0;
#X connect 20 0 1 0;
#X connect 21 0 24 0;
#X connect 23 0 21 0;
#X connect 24 0 6 0;
#X connect 25 0 28 0;
#X connect 27 0 25 0;
#X connect 28 0 14 0;
#X coords 0 604 1 603 32 14 0;
