#N canvas 676 110 696 604 10;
#X obj 90 -217 loadbang;
#X obj 90 -195 t b b b b;
#X floatatom 104 66 5 0 0 0 - - -, f 5;
#X obj 281 -161 symbol \$1;
#X msg 84 -62 rewind;
#X msg 24 -62 bang;
#X obj 104 -12 textfile;
#X obj 104 11 unpack f;
#X obj 104 33 i 0;
#X obj 75 230 i 0;
#X obj 92 354 symbol \$1;
#X msg 223 391 add2 \$1;
#X msg 287 391 clear;
#X obj 106 438 textfile;
#X obj -76 -29 inlet;
#X obj -61 264 outlet;
#X obj 173 -216 bng 15 250 50 0 empty empty empty 17 7 0 10 -262144
-1 -1;
#X obj 160 157 r save_all;
#X text 190 196 Choose is value is automatically save ... generating
clicking on rpi;
#X obj 210 -218 r read_all;
#X obj 137 -65 pack s s;
#X obj 136 -139 s get_preset_location;
#X msg 137 -41 read \$1/int_\$2.txt;
#X obj 65 310 s get_preset_location;
#X obj 74 254 t b b b f b;
#X obj -7 391 pack 0 s s;
#X text 242 308 Do not send a write each time a preset location is
sent. only once thanks the trigger;
#X msg -7 410 write \$2/int_\$3.txt;
#X obj 36 330 r preset_location-\$0;
#X obj 65 290 i \$0;
#X obj 137 -115 r preset_location-\$0;
#X obj 136 -161 i \$0;
#X obj 137 -91 symbol;
#X obj 34 367 symbol;
#X connect 0 0 1 0;
#X connect 1 0 5 0;
#X connect 1 1 4 0;
#X connect 1 2 31 0;
#X connect 1 3 3 0;
#X connect 2 0 15 0;
#X connect 3 0 20 1;
#X connect 4 0 6 0;
#X connect 5 0 6 0;
#X connect 6 0 7 0;
#X connect 7 0 8 0;
#X connect 8 0 2 0;
#X connect 9 0 24 0;
#X connect 10 0 25 2;
#X connect 11 0 13 0;
#X connect 12 0 13 0;
#X connect 14 0 9 1;
#X connect 16 0 1 0;
#X connect 17 0 9 0;
#X connect 19 0 1 0;
#X connect 20 0 22 0;
#X connect 22 0 6 0;
#X connect 24 0 25 0;
#X connect 24 1 29 0;
#X connect 24 2 10 0;
#X connect 24 3 11 0;
#X connect 24 4 12 0;
#X connect 25 0 27 0;
#X connect 27 0 13 0;
#X connect 28 0 33 0;
#X connect 29 0 23 0;
#X connect 30 0 32 0;
#X connect 31 0 21 0;
#X connect 32 0 20 0;
#X connect 33 0 25 1;
#X coords 0 604 1 603 32 14 0;
