#N canvas 84 219 612 417 10;
#X obj 33 96 extra/sv module_selected;
#X obj 35 29 loadbang;
#X obj 239 256 extra/sv module_selected;
#X obj 232 33 extra/sv 1_module_ask_selection;
#X obj 257 170 t f b f;
#X msg 212 100 1;
#X msg 272 81 2;
#X msg 302 104 3;
#X msg 346 125 4;
#X obj 209 58 bng 15 250 50 0 empty empty empty 17 7 0 10 -262144 -1
-1;
#X obj 249 83 bng 15 250 50 0 empty empty empty 17 7 0 10 -262144 -1
-1;
#X obj 277 106 bng 15 250 50 0 empty empty empty 17 7 0 10 -262144
-1 -1;
#X obj 327 127 bng 15 250 50 0 empty empty empty 17 7 0 10 -262144
-1 -1;
#X obj 272 58 extra/sv 2_module_ask_selection;
#X obj 302 82 extra/sv 3_module_ask_selection;
#X obj 346 104 extra/sv 4_module_ask_selection;
#X floatatom 39 150 5 0 0 0 - - -;
#X msg 35 61 0;
#X msg 133 234 1;
#X obj 69 223 bng 15 250 50 0 empty empty empty 17 7 0 10 -262144 -1
-1;
#X obj 94 157 r loadsong;
#X obj 121 187 delay 400;
#X connect 0 0 16 0;
#X connect 1 0 17 0;
#X connect 3 0 9 0;
#X connect 3 0 5 0;
#X connect 4 2 2 1;
#X connect 5 0 4 0;
#X connect 6 0 4 0;
#X connect 7 0 4 0;
#X connect 8 0 4 0;
#X connect 13 0 6 0;
#X connect 13 0 10 0;
#X connect 14 0 7 0;
#X connect 14 0 11 0;
#X connect 15 0 8 0;
#X connect 15 0 12 0;
#X connect 17 0 0 1;
#X connect 18 0 2 1;
#X connect 20 0 19 0;
#X connect 20 0 21 0;
#X connect 21 0 18 0;
