#N canvas 0 23 450 300 10;
#X obj 101 101 bng 35 250 50 0 empty empty empty 17 7 0 10 -228856
-1 -1;
#X obj 137 186 delay 300;
#X msg 96 186 1;
#X msg 141 215 0;
#X obj 112 245 tgl 15 0 empty empty empty 17 7 0 10 -262144 -1 -1 0
1;
#X obj 111 285 outlet;
#X connect 0 0 1 0;
#X connect 0 0 2 0;
#X connect 1 0 3 0;
#X connect 2 0 4 0;
#X connect 3 0 4 0;
#X connect 4 0 5 0;
#X coords 0 -1 1 1 37 37 2 100 100;
