#N canvas 156 104 679 369 10;
#X obj 209 159 v \$1;
#X obj 209 -55 inlet;
#X obj 366 -56 inlet;
#X obj 274 138 bang;
#X obj 209 224 outlet;
#X text 206 -77 set and output;
#X text 325 -77 get the output;
#X obj 209 81 t b a;
#X obj 276 55 r get_\$1;
#X obj 207 109 s get_\$1;
#X obj 364 222 outlet;
#X obj 364 160 v \$1;
#X obj 118 -59 inlet;
#X obj 118 -9 v \$1;
#X obj 118 35 == 0;
#X obj 364 113 bang;
#X obj 118 -33 bang;
#X text 66 -75 switch the toogle;
#X obj 459 -48 inlet;
#X text 451 -74 set without output;
#X connect 0 0 4 0;
#X connect 1 0 7 0;
#X connect 2 0 15 0;
#X connect 3 0 0 0;
#X connect 7 0 9 0;
#X connect 7 1 0 0;
#X connect 8 0 3 0;
#X connect 11 0 10 0;
#X connect 12 0 16 0;
#X connect 13 0 14 0;
#X connect 14 0 7 0;
#X connect 15 0 11 0;
#X connect 16 0 13 0;
#X connect 18 0 0 0;
