#N canvas 38 22 484 579 10;
#X obj 47 66 mrpeach/unpackOSC;
#X obj 47 33 mrpeach/udpreceive 12344;
#X floatatom 46 134 5 0 0 0 - - -, f 5;
#X floatatom 101 134 5 0 0 0 - - -, f 5;
#X obj 45 201 vsl 15 128 0 127 0 0 empty empty empty 0 -9 0 10 -262144
-1 -1 1500 1;
#X obj 110 201 vsl 15 128 0 127 0 0 empty empty empty 0 -9 0 10 -262144
-1 -1 0 1;
#X msg 45 168 set \$1;
#X msg 110 169 set \$1;
#X obj 43 390 prepend /truc;
#X obj 41 442 mrpeach/packOSC;
#X obj 39 504 mrpeach/udpsend;
#X msg 176 469 connect 127.0.0.1 12345;
#X obj 140 390 prepend /machin;
#X obj 46 103 route /truc /machin /slider2;
#X floatatom 171 135 5 0 0 0 - - -, f 5;
#X connect 0 0 13 0;
#X connect 1 0 0 0;
#X connect 2 0 6 0;
#X connect 3 0 7 0;
#X connect 4 0 8 0;
#X connect 5 0 12 0;
#X connect 6 0 4 0;
#X connect 7 0 5 0;
#X connect 8 0 9 0;
#X connect 9 0 10 0;
#X connect 11 0 10 0;
#X connect 12 0 9 0;
#X connect 13 0 2 0;
#X connect 13 1 3 0;
#X connect 13 2 14 0;
