#N canvas 60 148 450 300 10;
#X obj 112 -46 key;
#X obj 206 -47 keyup;
#X obj 112 -24 t b f;
#X obj 206 -24 t b f;
#X obj 111 12 pack 4 0 0 254;
#X obj 205 12 pack 4 0 0 0;
#X obj 101 101 cnv 15 189 51 empty empty KEYBOARD 80 10 0 14 -174713
-66577 0;
#X obj 167 53 unpack f f f f;
#X floatatom 154 134 5 0 0 2 key - -, f 5;
#X obj 220 132 tgl 15 0 empty empty Pressed? 17 7 0 10 -262144 -1 -1
254 1;
#X connect 0 0 2 0;
#X connect 1 0 3 0;
#X connect 2 0 4 0;
#X connect 2 1 4 1;
#X connect 3 0 5 0;
#X connect 3 1 5 1;
#X connect 4 0 7 0;
#X connect 5 0 7 0;
#X connect 7 1 8 0;
#X connect 7 3 9 0;
#X coords 0 -1 1 1 191 53 1 100 100;
