#N canvas 0 22 450 300 10;
#X obj 89 46 notein;
#X obj 113 91 pack f f;
#X obj 89 148 route 44 45 46 47 48 49 50 51;
#X obj 81 225 outlet;
#X obj 123 225 outlet;
#X obj 165 225 outlet;
#X obj 207 225 outlet;
#X obj 249 225 outlet;
#X obj 291 225 outlet;
#X obj 333 225 outlet;
#X obj 375 225 outlet;
#X connect 0 0 1 0;
#X connect 0 1 1 1;
#X connect 1 0 2 0;
#X connect 2 0 3 0;
#X connect 2 1 4 0;
#X connect 2 2 5 0;
#X connect 2 3 6 0;
#X connect 2 4 7 0;
#X connect 2 5 8 0;
#X connect 2 6 9 0;
#X connect 2 7 10 0;
