#N canvas 228 206 718 428 12;
#X obj 512 164 extra/sv synth_key12;
#X obj 11 57 extra/sv synth_key1;
#X obj 50 85 extra/sv synth_key2;
#X obj 91 112 extra/sv synth_key3;
#X obj 130 139 extra/sv synth_key4;
#X obj 170 167 extra/sv synth_key5;
#X obj 210 194 extra/sv synth_key6;
#X obj 253 49 extra/sv synth_key7;
#X obj 299 71 extra/sv synth_key8;
#X obj 353 95 extra/sv synth_key9;
#X obj 420 117 extra/sv synth_key10;
#X obj 469 139 extra/sv synth_key11;
#X msg 11 84 1 \$1;
#X msg 50 111 2 \$1;
#X msg 91 139 3 \$1;
#X msg 130 167 4 \$1;
#X msg 170 195 5 \$1;
#X msg 215 218 6 \$1;
#X msg 255 72 7 \$1;
#X msg 299 95 8 \$1;
#X msg 353 120 9 \$1;
#X msg 420 143 10 \$1;
#X msg 458 169 11 \$1;
#X msg 512 196 12 \$1;
#X obj 302 290 unpack f f;
#X floatatom 371 325 5 0 0 0 - - -;
#X floatatom 304 325 5 0 0 0 - - -;
#X obj 304 364 + 50;
#X obj 584 4 inlet;
#X obj 577 320 i 0;
#X obj 303 400 pack f f;
#X obj 303 438 outlet;
#X connect 0 0 23 0;
#X connect 1 0 12 0;
#X connect 2 0 13 0;
#X connect 3 0 14 0;
#X connect 4 0 15 0;
#X connect 5 0 16 0;
#X connect 6 0 17 0;
#X connect 7 0 18 0;
#X connect 8 0 19 0;
#X connect 9 0 20 0;
#X connect 10 0 21 0;
#X connect 11 0 22 0;
#X connect 12 0 24 0;
#X connect 13 0 24 0;
#X connect 14 0 24 0;
#X connect 15 0 24 0;
#X connect 16 0 24 0;
#X connect 17 0 24 0;
#X connect 18 0 24 0;
#X connect 19 0 24 0;
#X connect 20 0 24 0;
#X connect 21 0 24 0;
#X connect 22 0 24 0;
#X connect 23 0 24 0;
#X connect 24 0 26 0;
#X connect 24 1 25 0;
#X connect 25 0 30 1;
#X connect 26 0 27 0;
#X connect 27 0 30 0;
#X connect 28 0 29 0;
#X connect 29 0 27 1;
#X connect 30 0 31 0;
