#N canvas 558 87 664 477 12;
#N canvas 1579 81 912 480 listOfTables 0;
#X obj 11 17 loadbang;
#X obj 10 156 loadbang;
#X obj 15 269 loadbang;
#X obj 17 383 loadbang;
#X obj 18 503 loadbang;
#X obj 20 598 loadbang;
#X obj 105 58 table \$0-ionian;
#X obj 100 178 table \$0-aeolian;
#X obj 16 361 table \$0-dorian;
#X obj 62 407 table \$0-phrygian;
#X obj 18 692 table \$0-lyd-minor;
#X msg 10 201 \; \$1-aeolian 0 0 2 3 5 7 8 10 12 14 15 17 19 20 22
24 26 27 29 31 32 34 36 38 39 41 43 44 46 48;
#X msg 16 312 \; \$1-dorian 0 0 2 3 5 7 9 10 12 14 15 17 19 21 22 24
26 27 29 31 33 34 36 38 39 41 43 45 46 48;
#X msg 17 432 \; \$1-phrygian 0 0 1 3 5 7 8 10 12 13 15 17 19 20 22
24 25 27 29 31 32 34 36 37 39 41 43 44 46 48;
#X msg 18 549 \; \$1-lydian 0 0 2 4 6 7 9 11 12 14 16 18 19 21 23 24
26 28 30 31 33 35 36 38 40 42 43 45 47 48;
#X msg 19 643 \; \$1-lyd-minor 0 0 2 3 6 7 9 11 12 14 15 18 19 21 23
24 26 27 30 31 33 35 36 38 39 42 43 45 47 48;
#X obj 11 39 f \$0;
#X obj 10 178 f \$0;
#X obj 15 291 f \$0;
#X obj 17 405 f \$0;
#X obj 18 525 f \$0;
#X obj 20 620 f \$0;
#X obj 97 524 table \$0-lydian;
#X obj 78 18 bng 15 250 50 0 empty empty empty 17 7 0 10 -262144 -1
-1;
#X msg 11 81 \; \$1-ionian 0 0 0 2 2 4 5 5 7 7 9 9 11 0;
#X connect 0 0 16 0;
#X connect 1 0 17 0;
#X connect 2 0 18 0;
#X connect 3 0 19 0;
#X connect 4 0 20 0;
#X connect 5 0 21 0;
#X connect 16 0 24 0;
#X connect 17 0 11 0;
#X connect 18 0 12 0;
#X connect 19 0 13 0;
#X connect 20 0 14 0;
#X connect 21 0 15 0;
#X connect 23 0 16 0;
#X restore 21 247 pd listOfTables;
#X obj 206 -13 inlet;
#X obj 240 351 outlet;
#X obj 202 175 tabread \$0-ionian;
#X obj 206 34 unpack f f;
#X floatatom 205 62 5 0 0 0 - - -;
#X floatatom 274 63 5 0 0 0 - - -;
#X obj 202 306 pack f f;
#X floatatom 201 207 5 0 0 0 - - -;
#X obj 173 133 % 12;
#X obj 204 93 t f f;
#X obj 245 131 / 12;
#X obj 202 280 +;
#X obj 253 208 i 0;
#X obj 250 256 * 12;
#X floatatom 162 173 5 0 0 0 - - -;
#X obj 386 91 makefilename;
#X obj 388 66 i \$0;
#X msg 385 118 set \$1;
#X msg 436 65 set %d-\$1;
#X obj 388 43 t b s;
#X msg 442 -18 dorian;
#X obj 388 14 symbol;
#X msg 499 -18 aeolian;
#X msg 560 -18 phrygian;
#X msg 631 -18 lydian;
#X msg 691 -18 lyd-minor;
#X msg 388 -18 ionian;
#X obj 388 -73 inlet;
#X obj 388 -49 sel 0 1 2 3 4 5 6;
#X connect 1 0 4 0;
#X connect 3 0 8 0;
#X connect 4 0 5 0;
#X connect 4 1 6 0;
#X connect 5 0 10 0;
#X connect 6 0 7 1;
#X connect 7 0 2 0;
#X connect 8 0 12 0;
#X connect 9 0 3 0;
#X connect 9 0 15 0;
#X connect 10 0 9 0;
#X connect 10 1 11 0;
#X connect 11 0 13 0;
#X connect 12 0 7 0;
#X connect 13 0 14 0;
#X connect 14 0 12 1;
#X connect 16 0 18 0;
#X connect 17 0 16 0;
#X connect 18 0 3 0;
#X connect 19 0 16 0;
#X connect 20 0 17 0;
#X connect 20 1 19 0;
#X connect 21 0 22 0;
#X connect 22 0 20 0;
#X connect 23 0 22 0;
#X connect 24 0 22 0;
#X connect 25 0 22 0;
#X connect 26 0 22 0;
#X connect 27 0 22 0;
#X connect 28 0 29 0;
#X connect 29 0 27 0;
#X connect 29 1 21 0;
#X connect 29 2 23 0;
#X connect 29 3 24 0;
#X connect 29 4 25 0;
#X connect 29 5 26 0;
