#N canvas 491 102 1035 640 10;
#X declare -path ../../patches;
#X obj 7 370 cnv 15 980 180 empty empty empty 330 30 0 45 -21525 -88297
0;
#X obj 154 107 cnv 15 834 258 empty empty empty 20 12 0 14 -233017
-66577 0;
#X obj 265 556 UI/ui_tempo_small;
#X obj 7 24 cnv 15 980 81 empty empty LUCIBOX 414 36 0 45 -21525 -88297
0;
#X obj 7 107 cnv 15 144 259 empty empty empty 20 12 0 14 -233017 -66577
0;
#N canvas 23 111 1440 640 patch 0;
#X obj 101 101 cnv 15 138 40 empty empty PATCH 20 12 0 14 -66577 -262144
0;
#X obj 235 155 audio/mic;
#X obj 277 108 adc~;
#X obj 254 553 *~ 1;
#X obj 286 585 dac~;
#X obj 38 100 bng 35 250 50 0 empty empty CLOSE 4 20 0 10 -262144 -1
-1;
#X msg 38 164 \; pd-patch vis 0;
#X obj 534 660 arduino/arduino_out;
#N canvas 447 412 1038 529 open 0;
#X text 462 314 label-color;
#X text 477 339 label-color;
#X obj 377 311 t b f;
#X msg 400 277 2;
#X obj 466 220 loadbang;
#X obj 104 101 hradio 15 1 0 2 empty empty empty 0 -8 0 10 -262144
-1 -1 0;
#X obj 104 166 bang;
#X msg 363 277 43;
#X obj 101 101 cnv 15 38 15 empty \$0_opencnv open 6 8 0 10 -66577
-262144 0;
#X msg 405 398 \; \$4_opencnv color \$1 \$2 \$3;
#X obj 363 197 bang;
#X obj 404 365 pack 43 0 0 \$0;
#X obj 400 220 delay 200;
#X msg 101 247 \; pd-patch vis 1;
#X msg 614 289 \; pd-patch vis 0;
#X connect 2 1 11 0;
#X connect 3 0 2 0;
#X connect 4 0 3 0;
#X connect 4 0 14 0;
#X connect 5 0 6 0;
#X connect 6 0 10 0;
#X connect 6 0 13 0;
#X connect 7 0 2 0;
#X connect 10 0 7 0;
#X connect 10 0 12 0;
#X connect 11 0 9 0;
#X connect 12 0 3 0;
#X coords 0 -1 1 1 40 17 2 100 100;
#X restore 177 107 pd open;
#X obj 442 420 effect/reverb;
#X obj 20 336 extra/selectionManager;
#X obj 466 271 s ledrec1;
#X obj 499 245 s ledplay1;
#X obj 660 269 s ledrec2;
#X obj 693 245 s ledplay2;
#N canvas 294 159 623 468 longORshort 0;
#X obj 153 75 inlet;
#X obj 152 180 timer;
#X obj 153 119 sel 0;
#X obj 187 149 bang;
#X obj 151 224 > 500;
#X obj 151 298 bng 15 250 50 0 empty empty empty 17 7 0 10 -262144
-1 -1;
#X obj 151 419 outlet;
#X obj 223 417 outlet;
#X obj 380 102 sel 0;
#X obj 398 239 i 0;
#X obj 398 270 sel 0;
#X obj 431 312 bng 15 250 50 0 empty empty empty 17 7 0 10 -262144
-1 -1;
#X obj 444 196 delay 1000;
#X obj 182 296 bng 15 250 50 0 empty empty empty 17 7 0 10 -262144
-1 -1;
#X obj 398 310 bng 15 250 50 0 empty empty empty 17 7 0 10 -262144
-1 -1;
#X obj 151 256 sel 0 1;
#X connect 0 0 2 0;
#X connect 0 0 8 0;
#X connect 0 0 9 1;
#X connect 1 0 4 0;
#X connect 2 0 1 1;
#X connect 2 1 3 0;
#X connect 3 0 1 0;
#X connect 4 0 15 0;
#X connect 5 0 6 0;
#X connect 8 1 12 0;
#X connect 9 0 10 0;
#X connect 10 0 14 0;
#X connect 10 1 11 0;
#X connect 12 0 9 0;
#X connect 13 0 7 0;
#X connect 15 0 5 0;
#X connect 15 1 13 0;
#X restore 24 527 pd longORshort;
#X obj 57 447 extra/sv module_selected;
#X obj 24 497 spigot;
#X obj 24 427 extra/sv global_play;
#X text 22 376 Manage Reset when;
#X text 22 397 no module selected and long press;
#X obj 57 470 == 0;
#X obj 96 590 extra/sv tempo_isplaying;
#X msg 143 565 0;
#X obj 86 614 extra/sv 1_1_is_loop_recorded;
#X obj 85 642 extra/sv 2_1_is_loop_recorded;
#X obj 54 580 bang;
#X obj 18 627 s bigReset;
#X obj 98 549 t b b;
#X obj 252 380 *~ 1;
#X obj 331 180 *~ 1;
#X obj 561 172 *~ 1;
#X obj 334 363 *~ 1;
#X obj 561 363 *~ 1;
#X obj 367 403 *~ 1;
#X obj 597 403 *~ 1;
#X obj 269 403 *~ 1;
#X obj 502 461 effect/delay;
#X obj 400 444 *~ 1;
#X obj 627 444 *~ 1;
#X obj 286 444 *~ 1;
#X obj 161 544 bng 15 250 50 0 empty empty empty 17 7 0 10 -262144
-1 -1;
#X obj -94 590 extra/sv tempo_isplaying;
#X obj 766 172 *~ 1;
#X obj 990 172 *~ 1;
#X obj 1124 241 s ledplay4;
#X obj 1091 265 s ledrec4;
#X obj 930 241 s ledplay3;
#X obj 768 363 *~ 1;
#X obj 801 403 *~ 1;
#X obj 834 444 *~ 1;
#X obj 992 363 *~ 1;
#X obj 1025 403 *~ 1;
#X obj 1058 444 *~ 1;
#X obj 86 664 extra/sv 3_1_is_loop_recorded;
#X obj 85 692 extra/sv 4_1_is_loop_recorded;
#X obj 897 267 s ledrec3;
#X obj 334 208 audio/recloopsavesampler 1 1;
#X obj 765 204 audio/recloopsavesampler 3 1;
#X obj 561 204 audio/recloopsavesampler 2 1;
#X obj 992 200 audio/recloopsavesampler 4 1;
#X obj 86 723 extra/sv nbLoopPlaying;
#X obj 35 283 declare -path ../../patches;
#X obj 21 309 audio/tempo exemple 5;
#X connect 1 1 29 0;
#X connect 1 1 31 0;
#X connect 1 1 30 0;
#X connect 1 1 43 0;
#X connect 1 1 44 0;
#X connect 1 2 36 0;
#X connect 1 3 40 0;
#X connect 2 0 1 0;
#X connect 2 1 1 0;
#X connect 3 0 4 1;
#X connect 3 0 4 0;
#X connect 5 0 6 0;
#X connect 9 0 3 0;
#X connect 15 0 42 0;
#X connect 15 1 28 0;
#X connect 15 1 41 0;
#X connect 16 0 21 0;
#X connect 17 0 15 0;
#X connect 18 0 17 0;
#X connect 21 0 17 1;
#X connect 23 0 22 1;
#X connect 23 0 24 1;
#X connect 23 0 25 1;
#X connect 23 0 54 1;
#X connect 23 0 55 1;
#X connect 23 0 61 1;
#X connect 26 0 27 0;
#X connect 28 0 26 0;
#X connect 28 1 23 0;
#X connect 29 0 3 0;
#X connect 30 0 57 0;
#X connect 31 0 59 0;
#X connect 32 0 29 0;
#X connect 33 0 29 0;
#X connect 34 0 9 0;
#X connect 35 0 9 0;
#X connect 36 0 9 0;
#X connect 37 0 3 0;
#X connect 38 0 37 0;
#X connect 39 0 37 0;
#X connect 40 0 37 0;
#X connect 43 0 58 0;
#X connect 44 0 60 0;
#X connect 48 0 29 0;
#X connect 49 0 9 0;
#X connect 50 0 37 0;
#X connect 51 0 29 0;
#X connect 52 0 9 0;
#X connect 53 0 37 0;
#X connect 57 0 32 0;
#X connect 57 1 34 0;
#X connect 57 2 38 0;
#X connect 57 3 11 0;
#X connect 57 4 12 0;
#X connect 58 0 48 0;
#X connect 58 1 49 0;
#X connect 58 2 50 0;
#X connect 58 3 56 0;
#X connect 58 4 47 0;
#X connect 59 0 33 0;
#X connect 59 1 35 0;
#X connect 59 2 39 0;
#X connect 59 3 13 0;
#X connect 59 4 14 0;
#X connect 60 0 51 0;
#X connect 60 1 52 0;
#X connect 60 2 53 0;
#X connect 60 3 46 0;
#X connect 60 4 45 0;
#X coords 0 -1 1 1 140 42 2 100 100;
#X restore 7 139 pd patch;
#N canvas 2 161 1009 599 connect 0;
#X obj 625 97 connect/connect_global_recplay;
#X obj 40 6 cnv 15 996 83 empty empty CONNECT 330 30 0 45 -21525 -88297
0;
#X obj 648 509 s effect_rev_drywet;
#X obj 44 26 cnv 15 138 40 empty empty CONNECT 20 12 0 14 -66577 -262144
0;
#N canvas 402 288 1038 552 open 0;
#X obj 103 102 hradio 15 0 0 3 empty empty empty 0 -8 0 10 -262144
-1 -1 0;
#X text 462 314 label-color;
#X text 477 339 label-color;
#X obj 377 311 t b f;
#X msg 400 277 2;
#X obj 466 220 loadbang;
#X obj 104 166 bang;
#X msg 363 277 43;
#X obj 363 197 bang;
#X obj 404 365 pack 43 0 0 \$0;
#X obj 400 220 delay 200;
#X msg 104 202 \; pd-connect vis 1;
#X msg 405 398 \; \$4_connectcnv color \$1 \$2 \$3;
#X obj 101 101 cnv 15 47 15 empty \$0_connectcnv open 14 6 0 10 -66577
-262144 0;
#X obj 594 296 bang;
#X msg 594 332 \; pd-connect vis 0;
#X connect 0 0 6 0;
#X connect 3 1 9 0;
#X connect 4 0 3 0;
#X connect 5 0 4 0;
#X connect 5 0 14 0;
#X connect 6 0 8 0;
#X connect 6 0 11 0;
#X connect 7 0 3 0;
#X connect 8 0 7 0;
#X connect 8 0 10 0;
#X connect 9 0 12 0;
#X connect 10 0 4 0;
#X connect 14 0 15 0;
#X coords 0 -1 1 1 49 17 2 100 100;
#X restore 127 47 pd open;
#X obj 585 14 arduino/arduino;
#X obj 37 98 connect/connect_recloopsave 1 1;
#X obj 647 488 extra/midiLearn effect_rev_drywet;
#X obj 182 98 connect/connect_recloopsave 2 1;
#X obj 623 304 connect/connect_mic;
#X obj 222 19 bng 55 250 50 0 save_all empty SAVE 10 25 0 15 -258113
-1 -1;
#X obj 43 305 connect/connect_sampler8 5;
#X obj 780 305 connect/connect_synthvoice 6;
#X obj 330 98 connect/connect_recloopsave 3 1;
#X obj 475 98 connect/connect_recloopsave 4 1;
#X connect 7 0 2 0;
#X coords 0 -1 1 1 140 42 1 43 25;
#X restore 8 191 pd connect;
#X obj 467 372 UI/ui_global_recplay;
#X obj 448 139 UI/ui_recloopsave 2 1;
#X obj 315 488 hsl 550 60 0 1 0 0 empty global_tempo_slider empty -2
-8 0 10 -33289 -4032 -1 0 1;
#N canvas 26 274 1194 381 volumes 0;
#X obj 24 -13 cnv 15 996 83 empty empty VOLUMES 330 30 0 45 -21525
-88297 0;
#X obj 188 80 volumes/volume_recloopsave 1 1;
#X obj 28 80 volumes/volume_mic;
#X obj 44 26 cnv 15 138 40 empty empty VOLUMES 20 12 0 14 -66577 -262144
0;
#N canvas 285 163 1038 575 open 0;
#X obj 103 102 hradio 15 0 0 3 empty empty empty 0 -8 0 10 -262144
-1 -1 1;
#X text 462 314 label-color;
#X text 477 339 label-color;
#X obj 377 311 t b f;
#X msg 400 277 2;
#X obj 466 220 loadbang;
#X obj 104 166 bang;
#X msg 363 277 43;
#X obj 363 197 bang;
#X obj 404 365 pack 43 0 0 \$0;
#X obj 400 220 delay 200;
#X obj 101 101 cnv 15 47 15 empty \$0_volumescnv open 14 6 0 10 -66577
-262144 0;
#X msg 104 202 \; pd-volumes vis 1;
#X msg 405 398 \; \$4_volumescnv color \$1 \$2 \$3;
#X msg 552 270 \; pd-volumes vis 0;
#X connect 0 0 6 0;
#X connect 3 1 9 0;
#X connect 4 0 3 0;
#X connect 5 0 4 0;
#X connect 5 0 14 0;
#X connect 6 0 8 0;
#X connect 6 0 12 0;
#X connect 7 0 3 0;
#X connect 8 0 7 0;
#X connect 8 0 10 0;
#X connect 9 0 13 0;
#X connect 10 0 4 0;
#X coords 0 -1 1 1 49 17 2 100 100;
#X restore 127 47 pd open;
#X obj 963 80 UI/delay;
#X obj 815 80 UI/reverb;
#X obj 337 81 volumes/volume_recloopsave 2 1;
#X obj 482 80 volumes/volume_recloopsave 3 1;
#X obj 634 80 volumes/volume_recloopsave 4 1;
#X obj 229 9 bng 55 250 50 0 save_all empty SAVE 10 25 0 15 -258113
-1 -1;
#X coords 0 -1 1 1 140 42 1 43 25;
#X restore 9 242 pd volumes;
#X obj 306 139 UI/ui_recloopsave 1 1;
#X obj 594 139 UI/ui_recloopsave 3 1;
#X obj 742 139 UI/ui_recloopsave 4 1;
