#N canvas 533 106 463 464 10;
#X obj 114 78 metro 500;
#X obj 114 38 bng 15 250 50 0 empty empty empty 17 7 0 10 -262144 -1
-1;
#X msg 147 8 stop;
#X obj 114 108 bng 15 250 50 0 empty empty empty 17 7 0 10 -262144
-1 -1;
#X obj 114 139 tgl 15 0 empty empty empty 17 7 0 10 -262144 -1 -1 1
1;
#X obj 114 166 sel 0 1;
#X obj 89 229 timer;
#X obj 169 229 realtime;
#X floatatom 98 279 5 0 0 0 - - -, f 5;
#X floatatom 180 278 10 0 0 0 - - -, f 10;
#X floatatom 249 6 7 0 0 0 - - -, f 7;
#X obj 274 78 metro 500;
#X obj 274 108 bng 15 250 50 0 empty empty empty 17 7 0 10 -262144
-1 -1;
#X obj 274 139 tgl 15 0 empty empty empty 17 7 0 10 -262144 -1 -1 1
1;
#X obj 274 166 sel 0 1;
#X obj 249 229 timer;
#X obj 329 229 realtime;
#X floatatom 258 279 5 0 0 0 - - -, f 5;
#X floatatom 340 278 10 0 0 0 - - -, f 10;
#X obj 204 35 * 0.92;
#X floatatom 187 62 5 0 0 0 - - -, f 5;
#X text 33 59 tempo;
#X obj 107 339 /;
#X floatatom 107 369 5 0 0 0 - - -, f 5;
#X obj 107 398 s rt-mean;
#X obj 310 3 r rt-mean;
#X connect 0 0 3 0;
#X connect 1 0 0 0;
#X connect 1 0 11 0;
#X connect 2 0 0 0;
#X connect 2 0 11 0;
#X connect 3 0 4 0;
#X connect 4 0 5 0;
#X connect 5 0 6 0;
#X connect 5 0 7 0;
#X connect 5 1 6 1;
#X connect 5 1 7 1;
#X connect 6 0 8 0;
#X connect 7 0 9 0;
#X connect 8 0 22 1;
#X connect 9 0 22 0;
#X connect 10 0 19 0;
#X connect 10 0 11 1;
#X connect 11 0 12 0;
#X connect 12 0 13 0;
#X connect 13 0 14 0;
#X connect 14 0 15 0;
#X connect 14 0 16 0;
#X connect 14 1 15 1;
#X connect 14 1 16 1;
#X connect 15 0 17 0;
#X connect 16 0 18 0;
#X connect 19 0 20 0;
#X connect 20 0 0 1;
#X connect 22 0 23 0;
#X connect 23 0 24 0;
#X connect 25 0 19 1;
