#N canvas 523 440 1111 310 10;
#X obj 1027 -5 inlet~;
#X obj 692 225 outlet~;
#X obj 919 226 outlet~;
#X obj 1414 226 outlet~;
#X obj -22 53 audio/loop 1 1 \$3 \$4 \$5 \$6 \$7;
#X obj 164 54 audio/loop 2 1 \$3 \$4 \$5 \$6 \$7;
#X obj 348 54 audio/loop 3 1 \$3 \$4 \$5 \$6 \$7;
#X obj 530 55 audio/loop 4 1 \$3 \$4 \$5 \$6 \$7;
#X obj 713 56 audio/loop 5 1 \$3 \$4 \$5 \$6 \$7;
#X obj 897 56 audio/loop 6 1 \$3 \$4 \$5 \$6 \$7;
#X obj 1077 56 audio/loop 7 1 \$3 \$4 \$5 \$6 \$7;
#X obj 1260 56 audio/loop 8 1 \$3 \$4 \$5 \$6 \$7;
#X obj 1443 56 audio/loop 9 1 \$3 \$4 \$5 \$6 \$7;
#X obj 1626 56 audio/loop 10 1 \$3 \$4 \$5 \$6 \$7;
#X obj 1819 56 audio/loop 11 1 \$3 \$4 \$5 \$6 \$7;
#X obj 2009 56 audio/loop 12 1 \$3 \$4 \$5 \$6 \$7;
#X connect 0 0 4 0;
#X connect 0 0 5 0;
#X connect 0 0 6 0;
#X connect 0 0 7 0;
#X connect 0 0 8 0;
#X connect 0 0 9 0;
#X connect 0 0 10 0;
#X connect 0 0 11 0;
#X connect 0 0 12 0;
#X connect 0 0 13 0;
#X connect 0 0 14 0;
#X connect 0 0 15 0;
#X connect 4 0 1 0;
#X connect 4 1 2 0;
#X connect 4 2 3 0;
#X connect 5 0 1 0;
#X connect 5 1 2 0;
#X connect 5 2 3 0;
#X connect 6 0 1 0;
#X connect 6 1 2 0;
#X connect 6 2 3 0;
#X connect 7 0 1 0;
#X connect 7 1 2 0;
#X connect 7 2 3 0;
#X connect 8 0 1 0;
#X connect 8 1 2 0;
#X connect 8 2 3 0;
#X connect 9 0 1 0;
#X connect 9 1 2 0;
#X connect 9 2 3 0;
#X connect 10 0 1 0;
#X connect 10 1 2 0;
#X connect 10 2 3 0;
#X connect 11 0 1 0;
#X connect 11 1 2 0;
#X connect 11 2 3 0;
#X connect 12 0 1 0;
#X connect 12 1 2 0;
#X connect 12 2 3 0;
#X connect 13 0 1 0;
#X connect 13 1 2 0;
#X connect 13 2 3 0;
#X connect 14 0 1 0;
#X connect 14 1 2 0;
#X connect 14 2 3 0;
#X connect 15 0 1 0;
#X connect 15 1 2 0;
#X connect 15 2 3 0;
