#N canvas 157 155 1235 676 10;
#X obj 164 245 audio/readloop freeloop\$1 1;
#X obj 434 245 audio/readloop freeloop\$1 2;
#X obj 674 245 audio/readloop freeloop\$1 3;
#X obj 943 245 audio/readloop freeloop\$1 4;
#X obj 425 466 outlet~;
#X obj 164 147 r \$0_path1;
#X obj 433 156 r \$0_path2;
#X obj 674 150 r \$0_path3;
#X obj 674 150 r \$0_path3;
#X obj 943 155 r \$0_path4;
#X obj 203 181 r \$0_play1;
#X obj 473 184 r \$0_play2;
#X obj 713 183 r \$0_play3;
#X obj 982 185 r \$0_play4;
#N canvas 593 325 997 416 files_path 0;
#X obj 157 59 pack f \$1;
#X obj 157 133 s \$0_path1;
#X obj 341 134 s \$0_path2;
#X obj 527 133 s \$0_path3;
#X obj 711 134 s \$0_path4;
#X obj 258 4 loadbang;
#X msg 258 30 1;
#X msg 156 97 samples/\$1/OneLoop/\$2/1.wav;
#X msg 341 98 samples/\$1/OneLoop/\$2/2.wav;
#X msg 527 97 samples/\$1/OneLoop/\$2/3.wav;
#X msg 711 98 samples/\$1/OneLoop/\$2/4.wav;
#X obj 156 10 r tempo_style;
#X connect 0 0 7 0;
#X connect 0 0 8 0;
#X connect 0 0 9 0;
#X connect 0 0 10 0;
#X connect 5 0 6 0;
#X connect 6 0 0 0;
#X connect 7 0 1 0;
#X connect 8 0 2 0;
#X connect 9 0 3 0;
#X connect 10 0 4 0;
#X connect 11 0 0 0;
#X restore 916 42 pd files_path;
#N canvas 558 23 882 487 play 1;
#X obj 116 -4 inlet;
#X obj 111 159 s \$0_play1;
#X obj 181 159 s \$0_play2;
#X obj 251 159 s \$0_play3;
#X obj 321 159 s \$0_play4;
#X obj 170 97 sel 0 1 2 3;
#X obj 351 37 r \$0_click1;
#X obj 423 37 r \$0_click2;
#X obj 497 37 r \$0_click3;
#X obj 569 37 r \$0_click4;
#X msg 351 59 0;
#X msg 423 59 1;
#X msg 497 59 2;
#X msg 569 59 3;
#X obj 672 87 loadbang;
#X msg 672 109 0;
#X text 672 56 stop clip at beggining;
#X obj 672 138 s \$0_loadbangstop;
#X obj 165 -4 inlet;
#X obj 214 -4 inlet;
#X obj 263 -4 inlet;
#X msg 116 57 0;
#X msg 165 57 1;
#X msg 214 57 2;
#X msg 263 57 3;
#X obj 116 20 sel 0;
#X obj 165 20 sel 0;
#X obj 214 20 sel 0;
#X obj 263 20 sel 0;
#X connect 0 0 25 0;
#X connect 5 0 1 0;
#X connect 5 1 2 0;
#X connect 5 2 3 0;
#X connect 5 3 4 0;
#X connect 6 0 10 0;
#X connect 7 0 11 0;
#X connect 8 0 12 0;
#X connect 9 0 13 0;
#X connect 10 0 5 0;
#X connect 11 0 5 0;
#X connect 12 0 5 0;
#X connect 13 0 5 0;
#X connect 14 0 15 0;
#X connect 15 0 17 0;
#X connect 18 0 26 0;
#X connect 19 0 27 0;
#X connect 20 0 28 0;
#X connect 21 0 5 0;
#X connect 22 0 5 0;
#X connect 23 0 5 0;
#X connect 24 0 5 0;
#X connect 25 1 21 0;
#X connect 26 1 22 0;
#X connect 27 1 23 0;
#X connect 28 1 24 0;
#X restore 499 59 pd play;
#X obj 499 0 inlet;
#X obj 323 276 s \$0_click1;
#X obj 594 276 s \$0_click2;
#X obj 833 276 s \$0_click3;
#X obj 1104 276 s \$0_click4;
#X obj 283 211 r \$0_loadbangstop;
#X obj 554 212 r \$0_loadbangstop;
#X obj 793 211 r \$0_loadbangstop;
#X obj 1064 212 r \$0_loadbangstop;
#X obj 544 -1 inlet;
#X obj 587 -2 inlet;
#X obj 632 -3 inlet;
#X connect 0 0 4 0;
#X connect 0 2 17 0;
#X connect 1 0 4 0;
#X connect 1 2 18 0;
#X connect 2 0 4 0;
#X connect 2 2 19 0;
#X connect 3 0 4 0;
#X connect 3 2 20 0;
#X connect 5 0 0 0;
#X connect 6 0 1 0;
#X connect 7 0 2 0;
#X connect 9 0 3 0;
#X connect 10 0 0 1;
#X connect 11 0 1 1;
#X connect 12 0 2 1;
#X connect 13 0 3 1;
#X connect 16 0 15 0;
#X connect 21 0 0 3;
#X connect 22 0 1 3;
#X connect 23 0 2 3;
#X connect 24 0 3 3;
#X connect 25 0 15 1;
#X connect 26 0 15 2;
#X connect 27 0 15 3;
