#N canvas 193 23 1164 828 10;
#X obj 513 69 bng 15 250 50 0 empty empty empty 17 7 0 10 -262144 -1
-1;
#X obj 513 33 r tempo_click_bang;
#X obj 164 207 r \$0_path1;
#X obj 433 207 r \$0_path2;
#N canvas 275 194 997 416 files_path 1;
#X obj 157 173 s \$0_path1;
#X obj 341 174 s \$0_path2;
#X obj 527 173 s \$0_path3;
#X obj 711 174 s \$0_path4;
#X obj 157 2 extra/sv song;
#X obj 157 100 pack \$1 s f;
#X obj 157 29 t b b f;
#X obj 236 48 s get_samples_location;
#X obj 236 67 r samples_location;
#X msg 157 137 \$2/\$3/\$1/1.wav;
#X msg 341 138 \$2/\$3/\$1/2.wav;
#X msg 527 137 \$2/\$3/\$1/3.wav;
#X msg 711 138 \$2/\$3/\$1/4.wav;
#X connect 4 0 6 0;
#X connect 5 0 9 0;
#X connect 5 0 10 0;
#X connect 5 0 11 0;
#X connect 5 0 12 0;
#X connect 6 0 5 0;
#X connect 6 1 7 0;
#X connect 6 2 5 2;
#X connect 8 0 5 1;
#X connect 9 0 0 0;
#X connect 10 0 1 0;
#X connect 11 0 2 0;
#X connect 12 0 3 0;
#X restore 535 -31 pd files_path;
#X obj 674 207 r \$0_path3;
#X obj 674 207 r \$0_path3;
#X obj 943 207 r \$0_path4;
#X obj 283 207 r \$0_play1;
#X obj 553 207 r \$0_play2;
#X obj 793 207 r \$0_play3;
#X obj 1062 207 r \$0_play4;
#N canvas 476 23 1104 518 changeloop 0;
#X obj 374 16 sel 0;
#X msg 401 59 0;
#X msg 373 59 1;
#X obj 460 -22 hradio 15 1 0 5 empty empty empty 0 -8 0 10 -262144
-1 -1 4;
#X obj 348 -132 r tempo_quantif_bang;
#X obj 471 -98 i 0;
#X obj 471 -76 change;
#X obj 763 13 sel 0 1 2 3;
#X obj 763 54 bng 15 250 50 0 empty empty empty 17 7 0 10 -262144 -1
-1;
#X obj 793 54 bng 15 250 50 0 empty empty empty 17 7 0 10 -262144 -1
-1;
#X obj 845 54 bng 15 250 50 0 empty empty empty 17 7 0 10 -262144 -1
-1;
#X obj 880 54 bng 15 250 50 0 empty empty empty 17 7 0 10 -262144 -1
-1;
#X obj 531 -179 vradio 15 1 0 5 empty empty empty 0 -8 0 10 -262144
-1 -1 4;
#X obj 531 -203 inlet;
#X msg 461 59 0;
#X msg 433 59 1;
#X msg 521 59 0;
#X msg 493 59 1;
#X msg 581 59 0;
#X msg 554 59 1;
#X msg 641 59 0;
#X msg 613 59 1;
#X obj 434 16 sel 1;
#X obj 494 16 sel 2;
#X obj 554 16 sel 3;
#X obj 614 16 sel 4;
#X obj 373 133 s \$0_play1;
#X obj 443 133 s \$0_play2;
#X obj 513 133 s \$0_play3;
#X obj 583 133 s \$0_play4;
#X obj 762 151 s syncloop\$1_1_readloop_wait_ui;
#X obj 792 132 s syncloop\$1_2_readloop_wait_ui;
#X obj 845 114 s syncloop\$1_3_readloop_wait_ui;
#X obj 880 96 s syncloop\$1_4_readloop_wait_ui;
#X obj 639 -241 r \$0_click1;
#X obj 718 -241 r \$0_click2;
#X obj 799 -241 r \$0_click3;
#X obj 879 -241 r \$0_click4;
#X msg 639 -219 0;
#X msg 718 -219 1;
#X msg 799 -219 2;
#X msg 879 -219 3;
#X obj 361 -252 loadbang;
#X msg 361 -230 4;
#X obj 983 -239 r \$1_5_click_fromUI;
#X msg 983 -217 4;
#X obj 910 54 bng 15 250 50 0 empty empty empty 17 7 0 10 -262144 -1
-1;
#X obj 910 78 s syncloop\$1_5_readloop_wait_ui;
#X obj 685 -92 change;
#X obj 663 133 s \$1_play5;
#X obj 675 13 loadbang;
#X obj 1151 140 s syncloop\$1_1_readloop_stopwait_ui;
#X obj 1164 121 s syncloop\$1_2_readloop_stopwait_ui;
#X obj 1184 101 s syncloop\$1_3_readloop_stopwait_ui;
#X obj 1197 82 s syncloop\$1_4_readloop_stopwait_ui;
#X obj 1213 63 s syncloop\$1_5_readloop_stopwait_ui;
#X obj 1134 24 bang;
#X obj 720 -54 t f b;
#X connect 0 0 2 0;
#X connect 0 1 1 0;
#X connect 1 0 26 0;
#X connect 2 0 26 0;
#X connect 3 0 0 0;
#X connect 3 0 22 0;
#X connect 3 0 23 0;
#X connect 3 0 24 0;
#X connect 3 0 25 0;
#X connect 4 0 5 0;
#X connect 5 0 6 0;
#X connect 6 0 3 0;
#X connect 7 0 8 0;
#X connect 7 1 9 0;
#X connect 7 2 10 0;
#X connect 7 3 11 0;
#X connect 7 4 46 0;
#X connect 8 0 30 0;
#X connect 9 0 31 0;
#X connect 10 0 32 0;
#X connect 11 0 33 0;
#X connect 12 0 5 1;
#X connect 12 0 48 0;
#X connect 13 0 12 0;
#X connect 14 0 27 0;
#X connect 15 0 27 0;
#X connect 16 0 28 0;
#X connect 17 0 28 0;
#X connect 18 0 29 0;
#X connect 19 0 29 0;
#X connect 20 0 49 0;
#X connect 21 0 49 0;
#X connect 22 0 15 0;
#X connect 22 1 14 0;
#X connect 23 0 17 0;
#X connect 23 1 16 0;
#X connect 24 0 19 0;
#X connect 24 1 18 0;
#X connect 25 0 21 0;
#X connect 25 1 20 0;
#X connect 34 0 38 0;
#X connect 35 0 39 0;
#X connect 36 0 40 0;
#X connect 37 0 41 0;
#X connect 38 0 12 0;
#X connect 39 0 12 0;
#X connect 40 0 12 0;
#X connect 41 0 12 0;
#X connect 42 0 43 0;
#X connect 43 0 12 0;
#X connect 44 0 45 0;
#X connect 45 0 12 0;
#X connect 46 0 47 0;
#X connect 48 0 57 0;
#X connect 50 0 21 0;
#X connect 56 0 55 0;
#X connect 56 0 54 0;
#X connect 56 0 53 0;
#X connect 56 0 52 0;
#X connect 56 0 51 0;
#X connect 57 0 7 0;
#X connect 57 1 56 0;
#X restore 648 -31 pd changeloop;
#X obj 648 -116 vradio 15 1 0 5 empty empty empty 0 -8 0 10 -262144
-1 -1 0;
#X obj 164 245 audio/readloop syncloop\$1 1;
#X obj 648 -155 inlet;
#X obj 323 282 s \$0_click1;
#X obj 564 282 s \$0_click2;
#X obj 805 282 s \$0_click3;
#X obj 1046 282 s \$0_click4;
#X obj 674 245 audio/readloop syncloop\$1 3;
#X obj 434 245 audio/readloop syncloop\$1 2;
#X obj 943 245 audio/readloop syncloop\$1 4;
#N canvas 1102 256 450 300 load_UI 0;
#X obj 132 20 loadbang;
#X obj 132 51 i \$1;
#X obj 132 85 sel 1 2 3;
#X msg 116 117 batterie;
#X msg 191 116 accords;
#X msg 258 116 melodies;
#X obj 143 150 symbol;
#X msg 140 185 label \$1;
#X obj 143 222 s \$1_syncloopname;
#X obj 102 278 print labelname;
#X connect 0 0 1 0;
#X connect 1 0 2 0;
#X connect 2 0 3 0;
#X connect 2 1 4 0;
#X connect 2 2 5 0;
#X connect 3 0 6 0;
#X connect 4 0 6 0;
#X connect 5 0 6 0;
#X connect 6 0 7 0;
#X connect 7 0 8 0;
#X restore 389 -31 pd load_UI;
#X obj 430 451 *~ 1;
#X obj 427 594 outlet~;
#X obj 865 -151 inlet;
#X obj 865 -123 / 255;
#X obj 865 -63 s \$1_syncloop_volume;
#X obj 865 -89 * 2;
#X obj 655 391 r \$1_syncloop_volume;
#X obj 539 559 r syncloop\$1_1_readloop_wait_ui;
#X obj 652 611 r syncloop\$1_2_readloop_wait_ui;
#X obj 590 584 r syncloop\$1_3_readloop_wait_ui;
#N canvas 361 23 772 522 ledout 0;
#X obj 136 -98 tgl 15 0 empty empty empty 17 7 0 10 -262144 -1 -1 1
1;
#X obj 136 -71 sel 1;
#X msg 112 -168 bang;
#X obj 114 -277 inlet;
#X obj 334 -275 inlet;
#X obj 335 -199 t b b;
#X msg 328 -156 stop;
#X obj 395 -198 t b b;
#X obj 336 -240 sel 1;
#X msg 335 -27 1;
#X msg 372 -27 0;
#X obj 136 -127 metro 200;
#X obj 421 395 outlet;
#X obj 264 113 r tempo_quantif_bang;
#X obj 227 170 i 0;
#X obj 269 160 bng 15 250 50 0 empty empty empty 17 7 0 10 -262144
-1 -1;
#X obj 315 343 bng 15 250 50 0 empty empty empty 17 7 0 10 -262144
-1 -1;
#X obj 245 318 bng 15 250 50 0 empty empty empty 17 7 0 10 -262144
-1 -1;
#X obj 299 291 delay 100;
#X obj 225 290 delay 100;
#X obj 227 231 sel 0 1;
#N canvas 133 247 562 463 istempoplaying 0;
#X obj 134 114 tgl 15 0 empty empty empty 17 7 0 10 -262144 -1 -1 0
1;
#X obj 113 323 outlet;
#X obj 188 324 outlet;
#X obj 165 8 inlet;
#X obj 23 24 r tempoGoOutBang;
#X msg 22 65 1;
#X msg 52 65 0;
#X obj 68 44 r tempoStopOut;
#X obj 205 90 t b f;
#X obj 167 189 sel 1 0;
#X obj 233 250 i -1;
#X obj 272 250 i -1;
#X obj 163 159 i -1;
#X connect 0 0 12 1;
#X connect 3 0 8 0;
#X connect 4 0 5 0;
#X connect 5 0 0 0;
#X connect 6 0 0 0;
#X connect 7 0 6 0;
#X connect 8 0 12 0;
#X connect 8 1 10 1;
#X connect 8 1 11 1;
#X connect 9 0 10 0;
#X connect 9 1 11 0;
#X connect 10 0 1 0;
#X connect 11 0 2 0;
#X connect 12 0 9 0;
#X coords 0 -1 1 1 85 30 1 100 100;
#X restore 422 42 pd istempoplaying;
#X obj 187 111 == 0;
#X obj 161 339 i 0;
#X msg 223 340 1;
#X msg 270 340 0;
#X connect 0 0 1 0;
#X connect 1 0 9 0;
#X connect 1 1 10 0;
#X connect 2 0 11 0;
#X connect 3 0 2 0;
#X connect 4 0 8 0;
#X connect 5 0 9 0;
#X connect 5 1 6 0;
#X connect 6 0 11 0;
#X connect 7 0 10 0;
#X connect 7 1 6 0;
#X connect 8 0 5 0;
#X connect 8 1 7 0;
#X connect 9 0 21 0;
#X connect 10 0 21 0;
#X connect 11 0 0 0;
#X connect 13 0 14 0;
#X connect 13 0 15 0;
#X connect 14 0 20 0;
#X connect 14 0 23 0;
#X connect 18 0 25 0;
#X connect 18 0 16 0;
#X connect 19 0 24 0;
#X connect 19 0 17 0;
#X connect 20 0 19 0;
#X connect 20 1 18 0;
#X connect 21 0 22 0;
#X connect 21 1 12 0;
#X connect 22 0 14 0;
#X connect 23 0 12 0;
#X connect 24 0 12 0;
#X connect 25 0 12 0;
#X restore 827 700 pd ledout;
#X obj 1010 528 r \$0_play1;
#X msg 1013 666 1;
#X obj 1010 550 r \$0_play2;
#X obj 1010 572 r \$0_play3;
#X msg 1138 665 0;
#X obj 1138 601 r \$1_play5;
#X obj 1014 634 sel 1;
#X obj 828 739 outlet;
#X obj 774 730 tgl 15 0 empty empty empty 17 7 0 10 -262144 -1 -1 0
1;
#X obj 1138 636 sel 1;
#X obj 1010 594 r \$0_play4;
#X obj 730 -153 inlet;
#X obj 730 -124 / 255;
#X obj 730 -103 * 5;
#X obj 730 -58 change;
#X obj 1011 -146 inlet;
#X text 1054 -145 MUTE;
#X obj 1011 -112 sel 0;
#X obj 1011 -37 s \$0_mute;
#X obj 426 512 *~ 1;
#X obj 573 457 r \$0_mute;
#X msg 1061 -78 0;
#X msg 1011 -78 1;
#X obj 699 637 r syncloop\$1_4_readloop_wait_ui;
#X obj 749 659 r syncloop\$1_5_readloop_wait_ui;
#X obj 730 -81 i 0;
#X connect 0 0 14 2;
#X connect 0 0 20 2;
#X connect 0 0 21 2;
#X connect 0 0 22 2;
#X connect 1 0 0 0;
#X connect 2 0 14 0;
#X connect 3 0 21 0;
#X connect 5 0 20 0;
#X connect 7 0 22 0;
#X connect 8 0 14 3;
#X connect 9 0 21 3;
#X connect 10 0 20 3;
#X connect 11 0 22 3;
#X connect 13 0 12 0;
#X connect 14 0 24 0;
#X connect 14 2 16 0;
#X connect 15 0 13 0;
#X connect 20 0 24 0;
#X connect 20 2 18 0;
#X connect 21 0 24 0;
#X connect 21 2 17 0;
#X connect 22 0 24 0;
#X connect 22 2 19 0;
#X connect 24 0 54 0;
#X connect 26 0 27 0;
#X connect 27 0 29 0;
#X connect 29 0 28 0;
#X connect 30 0 24 1;
#X connect 31 0 34 0;
#X connect 32 0 34 0;
#X connect 33 0 34 0;
#X connect 34 0 42 0;
#X connect 35 0 41 0;
#X connect 36 0 34 1;
#X connect 37 0 41 0;
#X connect 38 0 41 0;
#X connect 39 0 34 1;
#X connect 40 0 44 0;
#X connect 41 0 36 0;
#X connect 44 0 39 0;
#X connect 45 0 41 0;
#X connect 46 0 47 0;
#X connect 47 0 48 0;
#X connect 48 0 60 0;
#X connect 49 0 12 0;
#X connect 50 0 52 0;
#X connect 52 0 57 0;
#X connect 52 1 56 0;
#X connect 54 0 25 0;
#X connect 55 0 54 1;
#X connect 56 0 53 0;
#X connect 57 0 53 0;
#X connect 58 0 34 0;
#X connect 59 0 34 0;
#X connect 60 0 49 0;
