#N canvas 27 95 934 544 10;
#X obj 513 69 bng 15 250 50 0 empty empty empty 17 7 0 10 -262144 -1
-1;
#X obj 513 33 r tempo_click_bang;
#X obj 164 207 r \$0_path1;
#X obj 363 207 r \$0_path2;
#N canvas 369 22 997 416 files_path 0;
#X obj 157 323 s \$0_path1;
#X obj 341 324 s \$0_path2;
#X obj 527 323 s \$0_path3;
#X obj 711 324 s \$0_path4;
#X obj 157 250 pack \$1 s f;
#X obj 157 129 t b b f;
#X obj 235 172 s get_samples_location;
#X msg 157 287 \$2/\$3/\$1/1.wav;
#X msg 341 288 \$2/\$3/\$1/2.wav;
#X msg 527 287 \$2/\$3/\$1/3.wav;
#X msg 711 288 \$2/\$3/\$1/4.wav;
#X obj 235 192 r samples_location-\$0;
#X obj 177 155 i \$0;
#X obj 38 42 inlet;
#X obj 235 213 symbol;
#X obj 122 40 r loadsong;
#X obj 199 40 extra/sv song;
#X obj 122 66 t b b;
#X obj 168 92 i 1;
#X connect 4 0 7 0;
#X connect 4 0 8 0;
#X connect 4 0 9 0;
#X connect 4 0 10 0;
#X connect 5 0 4 0;
#X connect 5 1 12 0;
#X connect 5 2 4 2;
#X connect 7 0 0 0;
#X connect 8 0 1 0;
#X connect 9 0 2 0;
#X connect 10 0 3 0;
#X connect 11 0 14 0;
#X connect 12 0 6 0;
#X connect 13 0 5 0;
#X connect 14 0 4 1;
#X connect 15 0 17 0;
#X connect 16 0 18 1;
#X connect 17 0 18 0;
#X connect 18 0 5 0;
#X restore 535 -31 pd files_path;
#X obj 554 207 r \$0_path3;
#X obj 554 207 r \$0_path3;
#X obj 753 207 r \$0_path4;
#X obj 283 207 r \$0_play1;
#X obj 447 207 r \$0_play2;
#X obj 673 207 r \$0_play3;
#X obj 836 207 r \$0_play4;
#N canvas 305 151 1104 518 changeloop 0;
#X obj 531 -179 vradio 15 1 0 5 empty empty empty 0 -8 0 10 -262144
-1 -1 2;
#X obj 531 -203 inlet;
#X obj 244 -215 loadbang;
#X msg 244 -193 4;
#X obj 246 -290 extra/sv \$1_1_readloop_askforplay;
#X obj 454 -289 extra/sv \$1_2_readloop_askforplay;
#X obj 661 -289 extra/sv \$1_3_readloop_askforplay;
#X obj 868 -291 extra/sv \$1_4_readloop_askforplay;
#X obj 246 -267 sel 1;
#X obj 454 -265 sel 1;
#X obj 661 -269 sel 1;
#X obj 868 -270 sel 1;
#X msg 246 -244 0;
#X msg 454 -243 1;
#X msg 662 -244 2;
#X msg 868 -249 3;
#X obj 409 6 sel 0;
#X msg 436 49 0;
#X msg 408 49 1;
#X msg 496 49 0;
#X msg 468 49 1;
#X msg 556 49 0;
#X msg 528 49 1;
#X msg 616 49 0;
#X msg 589 49 1;
#X msg 676 49 0;
#X msg 648 49 1;
#X obj 469 6 sel 1;
#X obj 529 6 sel 2;
#X obj 589 6 sel 3;
#X obj 649 6 sel 4;
#X obj 710 3 loadbang;
#X obj 408 152 extra/sv \$1_1_readloop_waitforplay;
#X obj 478 172 extra/sv \$1_2_readloop_waitforplay;
#X obj 558 193 extra/sv \$1_3_readloop_waitforplay;
#X obj 628 213 extra/sv \$1_4_readloop_waitforplay;
#X obj 531 -92 change;
#X obj 531 -46 extra/sv \$1_4syncloop_num;
#X obj 842 -227 extra/sv \$1_readloop_askforstop;
#X obj 844 -198 sel 1;
#X msg 844 -177 4;
#X obj 698 173 extra/sv \$1_readloop_waitforstop;
#X connect 0 0 36 0;
#X connect 1 0 0 0;
#X connect 2 0 3 0;
#X connect 3 0 0 0;
#X connect 4 0 8 0;
#X connect 5 0 9 0;
#X connect 6 0 10 0;
#X connect 7 0 11 0;
#X connect 8 0 12 0;
#X connect 9 0 13 0;
#X connect 10 0 14 0;
#X connect 11 0 15 0;
#X connect 12 0 0 0;
#X connect 13 0 0 0;
#X connect 14 0 0 0;
#X connect 15 0 0 0;
#X connect 16 0 18 0;
#X connect 16 1 17 0;
#X connect 17 0 32 1;
#X connect 18 0 32 1;
#X connect 19 0 33 1;
#X connect 20 0 33 1;
#X connect 21 0 34 1;
#X connect 22 0 34 1;
#X connect 23 0 35 1;
#X connect 24 0 35 1;
#X connect 25 0 41 1;
#X connect 26 0 41 1;
#X connect 27 0 20 0;
#X connect 27 1 19 0;
#X connect 28 0 22 0;
#X connect 28 1 21 0;
#X connect 29 0 24 0;
#X connect 29 1 23 0;
#X connect 30 0 26 0;
#X connect 30 1 25 0;
#X connect 31 0 26 0;
#X connect 36 0 37 1;
#X connect 37 0 16 0;
#X connect 37 0 27 0;
#X connect 37 0 28 0;
#X connect 37 0 29 0;
#X connect 37 0 30 0;
#X connect 38 0 39 0;
#X connect 39 0 40 0;
#X connect 40 0 0 0;
#X restore 648 -31 pd changeloop;
#X obj 648 -116 vradio 15 1 0 5 empty empty empty 0 -8 0 10 -262144
-1 -1 2;
#X obj 648 -155 inlet;
#X obj 275 271 s \$0_click1;
#X obj 475 269 s \$0_click2;
#X obj 664 269 s \$0_click3;
#X obj 864 270 s \$0_click4;
#N canvas 1102 256 450 300 load_UI 0;
#X obj 132 20 loadbang;
#X obj 132 51 i \$1;
#X obj 132 85 sel 1 2 3;
#X msg 116 117 batterie;
#X msg 191 116 accords;
#X msg 258 116 melodies;
#X obj 143 150 symbol;
#X msg 140 185 label \$1;
#X obj 143 222 s \$1_syncloopname;
#X obj 102 278 print labelname;
#X connect 0 0 1 0;
#X connect 1 0 2 0;
#X connect 2 0 3 0;
#X connect 2 1 4 0;
#X connect 2 2 5 0;
#X connect 3 0 6 0;
#X connect 4 0 6 0;
#X connect 5 0 6 0;
#X connect 6 0 7 0;
#X connect 7 0 8 0;
#X restore 389 -31 pd load_UI;
#X obj 430 451 *~ 1;
#X obj 426 628 outlet~;
#X obj 865 -151 inlet;
#X obj 865 -123 / 255;
#X obj 865 -63 s \$1_syncloop_volume;
#X obj 865 -89 * 2;
#X obj 539 559 r syncloop\$1_1_readloop_wait_ui;
#X obj 652 611 r syncloop\$1_2_readloop_wait_ui;
#X obj 590 584 r syncloop\$1_3_readloop_wait_ui;
#N canvas 361 23 772 522 ledout 0;
#X obj 136 -98 tgl 15 0 empty empty empty 17 7 0 10 -262144 -1 -1 0
1;
#X obj 136 -71 sel 1;
#X msg 112 -168 bang;
#X obj 114 -277 inlet;
#X obj 334 -275 inlet;
#X obj 335 -199 t b b;
#X msg 328 -156 stop;
#X obj 395 -198 t b b;
#X obj 336 -240 sel 1;
#X msg 335 -27 1;
#X msg 372 -27 0;
#X obj 136 -127 metro 200;
#X obj 421 395 outlet;
#X obj 264 113 r tempo_quantif_bang;
#X obj 227 170 i 0;
#X obj 269 160 bng 15 250 50 0 empty empty empty 17 7 0 10 -262144
-1 -1;
#X obj 315 343 bng 15 250 50 0 empty empty empty 17 7 0 10 -262144
-1 -1;
#X obj 245 318 bng 15 250 50 0 empty empty empty 17 7 0 10 -262144
-1 -1;
#X obj 299 291 delay 100;
#X obj 225 290 delay 100;
#X obj 227 231 sel 0 1;
#N canvas 133 247 562 463 istempoplaying 0;
#X obj 134 114 tgl 15 0 empty empty empty 17 7 0 10 -262144 -1 -1 1
1;
#X obj 113 323 outlet;
#X obj 188 324 outlet;
#X obj 165 8 inlet;
#X obj 23 24 r tempoGoOutBang;
#X msg 22 65 1;
#X msg 52 65 0;
#X obj 68 44 r tempoStopOut;
#X obj 205 90 t b f;
#X obj 167 189 sel 1 0;
#X obj 233 250 i -1;
#X obj 272 250 i -1;
#X obj 163 159 i -1;
#X connect 0 0 12 1;
#X connect 3 0 8 0;
#X connect 4 0 5 0;
#X connect 5 0 0 0;
#X connect 6 0 0 0;
#X connect 7 0 6 0;
#X connect 8 0 12 0;
#X connect 8 1 10 1;
#X connect 8 1 11 1;
#X connect 9 0 10 0;
#X connect 9 1 11 0;
#X connect 10 0 1 0;
#X connect 11 0 2 0;
#X connect 12 0 9 0;
#X coords 0 -1 1 1 85 30 1 100 100;
#X restore 422 42 pd istempoplaying;
#X obj 187 111 == 0;
#X obj 161 339 i 0;
#X msg 223 340 1;
#X msg 270 340 0;
#X connect 0 0 1 0;
#X connect 1 0 9 0;
#X connect 1 1 10 0;
#X connect 2 0 11 0;
#X connect 3 0 2 0;
#X connect 4 0 8 0;
#X connect 5 0 9 0;
#X connect 5 1 6 0;
#X connect 6 0 11 0;
#X connect 7 0 10 0;
#X connect 7 1 6 0;
#X connect 8 0 5 0;
#X connect 8 1 7 0;
#X connect 9 0 21 0;
#X connect 10 0 21 0;
#X connect 11 0 0 0;
#X connect 13 0 14 0;
#X connect 13 0 15 0;
#X connect 14 0 20 0;
#X connect 14 0 23 0;
#X connect 18 0 25 0;
#X connect 18 0 16 0;
#X connect 19 0 24 0;
#X connect 19 0 17 0;
#X connect 20 0 19 0;
#X connect 20 1 18 0;
#X connect 21 0 22 0;
#X connect 21 1 12 0;
#X connect 22 0 14 0;
#X connect 23 0 12 0;
#X connect 24 0 12 0;
#X connect 25 0 12 0;
#X restore 827 700 pd ledout;
#X obj 1010 528 r \$0_play1;
#X msg 1013 666 1;
#X obj 1010 550 r \$0_play2;
#X obj 1010 572 r \$0_play3;
#X msg 1138 665 0;
#X obj 1138 601 r \$1_play5;
#X obj 1014 634 sel 1;
#X obj 828 739 outlet;
#X obj 774 730 tgl 15 0 empty empty empty 17 7 0 10 -262144 -1 -1 0
1;
#X obj 1138 636 sel 1;
#X obj 1010 594 r \$0_play4;
#X obj 730 -153 inlet;
#X obj 730 -124 / 255;
#X obj 730 -103 * 5;
#X obj 730 -58 change;
#X obj 1011 -146 inlet;
#X text 1054 -145 MUTE;
#X obj 1011 -112 sel 0;
#X obj 1011 -37 s \$0_mute;
#X obj 426 512 *~ 1;
#X obj 573 457 r \$0_mute;
#X msg 1061 -78 0;
#X msg 1011 -78 1;
#X obj 699 637 r syncloop\$1_4_readloop_wait_ui;
#X obj 749 659 r syncloop\$1_5_readloop_wait_ui;
#X obj 730 -81 i 0;
#X obj 528 -116 vradio 15 1 0 5 empty empty empty 0 -8 0 10 -262144
-1 -1 1;
#X obj 554 245 audio/readloop \$1 3;
#X obj 364 245 audio/readloop \$1 2;
#X obj 164 245 audio/readloop \$1 1;
#X obj 753 245 audio/readloop \$1 4;
#X obj 426 538 audio/mixer \$1_4syncloop;
#X connect 0 0 57 2;
#X connect 0 0 60 2;
#X connect 0 0 58 2;
#X connect 0 0 59 2;
#X connect 1 0 0 0;
#X connect 2 0 59 0;
#X connect 3 0 58 0;
#X connect 5 0 57 0;
#X connect 7 0 60 0;
#X connect 8 0 59 3;
#X connect 9 0 58 3;
#X connect 10 0 57 3;
#X connect 11 0 60 3;
#X connect 13 0 12 0;
#X connect 14 0 13 0;
#X connect 20 0 49 0;
#X connect 22 0 23 0;
#X connect 23 0 25 0;
#X connect 25 0 24 0;
#X connect 26 0 29 0;
#X connect 27 0 29 0;
#X connect 28 0 29 0;
#X connect 29 0 37 0;
#X connect 30 0 36 0;
#X connect 31 0 29 1;
#X connect 32 0 36 0;
#X connect 33 0 36 0;
#X connect 34 0 29 1;
#X connect 35 0 39 0;
#X connect 36 0 31 0;
#X connect 39 0 34 0;
#X connect 40 0 36 0;
#X connect 41 0 42 0;
#X connect 42 0 43 0;
#X connect 43 0 55 0;
#X connect 44 0 12 0;
#X connect 45 0 47 0;
#X connect 47 0 52 0;
#X connect 47 1 51 0;
#X connect 49 0 61 0;
#X connect 50 0 49 1;
#X connect 51 0 48 0;
#X connect 52 0 48 0;
#X connect 53 0 29 0;
#X connect 54 0 29 0;
#X connect 55 0 44 0;
#X connect 56 0 4 0;
#X connect 57 0 20 0;
#X connect 57 2 17 0;
#X connect 58 0 20 0;
#X connect 58 2 16 0;
#X connect 59 0 20 0;
#X connect 59 2 15 0;
#X connect 60 0 20 0;
#X connect 60 2 18 0;
#X connect 61 1 21 0;
