#N canvas 1943 107 834 660 10;
#X text 8 4 harmv2~;
#X obj 42 153 clip -2400 2400;
#X obj 42 174 + 6000;
#X obj 42 195 * 0.01;
#X obj 42 216 mtof;
#X obj 42 237 - 261.626;
#X obj 42 132 inlet;
#X obj 42 316 clip -40 40;
#X obj 42 339 sig~ 1.3e-05;
#X obj 42 360 phasor~;
#X obj 42 503 *~ 128;
#X obj 42 564 vd~ \$1-del;
#X obj 42 601 *~;
#X obj 441 760 outlet~;
#X obj 250 89 inlet;
#X obj 250 145 clip 1 1e+08;
#X obj 113 259 t b f;
#X text 38 78 transp. in cents;
#X text 37 92 (-2400 : 2400);
#X text 248 60 (1 : 100000000);
#X obj 461 89 inlet;
#X obj 298 402 +~ 0.5;
#X obj 298 507 *~ 128;
#X obj 298 568 vd~ \$1-del;
#X obj 298 605 *~;
#X text 456 60 (2 : 100000000);
#X floatatom 289 112 5 0 0 0 - - -;
#X obj 42 295 * -0.0296484;
#X obj 461 115 line~;
#X obj 298 534 +~;
#X obj 42 530 +~;
#X obj 461 136 +~ 2;
#X text 458 46 delay ms <optional ramptime>;
#X obj 503 760 outlet~;
#X text 249 46 window size ms;
#X text 39 105 < default: 0 >;
#X text 249 74 < default: 128ms >;
#X text 460 74 < default: 2ms >;
#X obj 674 241 inlet;
#X obj 525 651 loadbang;
#X msg 524 700 0;
#X text 673 225 < default: 0db >;
#X text 451 777 Left;
#X text 513 777 Right;
#X text 673 198 gain;
#X text 672 212 (-127db : 18db);
#X obj 298 427 wrap~;
#X obj 141 554 cos~;
#X obj 141 500 -~ 0.5;
#X obj 141 528 *~ 0.5;
#X obj 441 704 hip~ 5;
#X obj 380 568 cos~;
#X obj 380 507 -~ 0.5;
#X obj 380 540 *~ 0.5;
#X text 27 676 xjimmies lib. z. settel/jm dumas 2003-2006;
#X text 7 19 arg1: delayName;
#X obj 100 187 t b f;
#X obj 113 234 /;
#X msg 100 209 -3.795;
#X obj 441 669 *~ 1;
#X connect 1 0 2 0;
#X connect 2 0 3 0;
#X connect 3 0 4 0;
#X connect 4 0 5 0;
#X connect 5 0 27 0;
#X connect 6 0 1 0;
#X connect 7 0 8 0;
#X connect 8 0 9 0;
#X connect 9 0 10 0;
#X connect 9 0 21 0;
#X connect 9 0 48 0;
#X connect 10 0 30 0;
#X connect 11 0 12 0;
#X connect 12 0 59 0;
#X connect 14 0 15 0;
#X connect 15 0 10 1;
#X connect 15 0 22 1;
#X connect 15 0 56 0;
#X connect 16 0 27 0;
#X connect 16 1 27 1;
#X connect 20 0 28 0;
#X connect 21 0 46 0;
#X connect 22 0 29 0;
#X connect 23 0 24 0;
#X connect 24 0 59 0;
#X connect 26 0 15 0;
#X connect 27 0 7 0;
#X connect 28 0 31 0;
#X connect 29 0 23 0;
#X connect 30 0 11 0;
#X connect 31 0 29 1;
#X connect 31 0 30 1;
#X connect 38 0 59 1;
#X connect 46 0 22 0;
#X connect 46 0 52 0;
#X connect 47 0 12 1;
#X connect 48 0 49 0;
#X connect 49 0 47 0;
#X connect 50 0 13 0;
#X connect 50 0 33 0;
#X connect 51 0 24 1;
#X connect 52 0 53 0;
#X connect 53 0 51 0;
#X connect 56 0 58 0;
#X connect 56 1 57 1;
#X connect 57 0 16 0;
#X connect 58 0 57 0;
#X connect 59 0 50 0;
