#N canvas 166 115 949 642 10;
#X declare -path ../;
#X obj -179 33 cnv 15 1200 70 empty empty FROM::INLET 20 12 0 14 -204217
-66577 0;
#X obj 142 35 inlet;
#X obj 101 465 cnv 15 280 350 empty empty write_first_loop_with_tempo
20 12 0 9 -212539 -66577 0;
#X msg 184 571 stop;
#X msg 128 595 start;
#X text 118 730 TEMPO;
#X obj 109 687 bng 15 250 50 0 empty empty empty 17 7 0 10 -262144
-1 -1;
#X obj 184 687 bng 15 250 50 0 empty empty empty 17 7 0 10 -262144
-1 -1;
#X obj 244 646 r~ \$0-input;
#X obj 68 35 inlet~;
#X obj 388 465 cnv 15 210 350 empty empty write_other_loop 20 12 0
9 -204217 -66577 0;
#X msg 444 684 stop;
#X obj 542 712 r~ \$0-input;
#X obj 542 738 +~;
#N canvas 97 110 450 300 ui 0;
#X obj 126 93 inlet;
#X obj 174 92 inlet;
#X obj 126 120 bang;
#X obj 174 120 bang;
#X msg 126 174 1;
#X msg 174 175 0;
#X obj 66 229 extra/sv \$1_\$2_is_loop_recording;
#X connect 0 0 2 0;
#X connect 1 0 3 0;
#X connect 2 0 4 0;
#X connect 3 0 5 0;
#X connect 4 0 6 1;
#X connect 5 0 6 1;
#X restore 398 759 pd ui;
#X obj 639 467 cnv 15 210 350 empty empty play! 20 12 0 9 -204217 -66577
0;
#X obj 518 44 inlet;
#X obj 184 549 bng 15 250 50 0 empty empty empty 17 7 0 10 -262144
-1 -1;
#X obj 129 550 bng 15 250 50 0 empty empty empty 17 7 0 10 -262144
-1 -1;
#X obj 149 520 sel 1 0;
#X obj 821 155 cnv 15 430 260 empty empty Control_panel 20 12 0 14
-237308 -66577 0;
#N canvas 545 163 595 445 (subpatch) 0;
#X array \$0_loop1 1.2e+06 float 0;
#X coords 0 -1 1.2e+06 1 200 30 1 0 0;
#X restore 1039 395 graph;
#X obj 1041 278 hsl 170 15 0 1 0 0 empty empty empty -2 -8 0 10 -262144
-1 -1 0 1;
#X obj 142 293 sel 0;
#X text 555 249 clear_with_longpress;
#X obj 184 591 t b b a;
#X msg 203 747 1;
#X obj 825 181 extra/sv \$1_\$2_is_loop_waitforrec;
#X obj 142 786 extra/sv \$1_\$2_is_loop_recorded;
#X obj 1305 465 cnv 15 400 350 empty empty CLEAR 20 12 0 9 -204217
-66577 0;
#X obj 169 327 bng 35 250 50 0 empty empty rec 11 7 0 10 -258113 -1
-1;
#X obj 826 259 extra/sv \$1_\$2_is_loop_recorded;
#X obj 863 467 cnv 15 210 350 empty empty SAMPLER 20 12 0 9 -204217
-66577 0;
#X obj 1401 486 bng 15 250 50 0 empty empty empty 17 7 0 10 -258113
-1 -1;
#X obj 1432 649 delay 1000;
#X obj 1323 801 outlet;
#X msg 1463 526 0;
#X obj 1432 674 s \$1_\$2_recloop_deleted_ui;
#X obj 1487 552 extra/sv \$1_\$2_is_loop_recorded;
#X text 209 229 record;
#X obj 662 802 mixer \$1_\$2_looper;
#X obj 693 848 outlet~;
#X obj 743 848 outlet~;
#X obj 793 848 outlet~;
#X obj -186 465 cnv 15 280 350 empty empty write_first_loop 20 12 0
9 -212539 -66577 0;
#X msg -103 571 stop;
#X msg -157 592 start;
#X text -169 730 TEMPO;
#X obj -178 687 bng 15 250 50 0 empty empty empty 17 7 0 10 -262144
-1 -1;
#X obj -84 688 bng 15 250 50 0 empty empty empty 17 7 0 10 -262144
-1 -1;
#X obj -19 620 r~ \$0-input;
#X obj -103 549 bng 15 250 50 0 empty empty empty 17 7 0 10 -262144
-1 -1;
#X obj -158 550 bng 15 250 50 0 empty empty empty 17 7 0 10 -262144
-1 -1;
#X obj -138 520 sel 1 0;
#X obj -103 591 t b b a;
#X msg -106 747 1;
#X obj -167 786 extra/sv \$1_\$2_is_loop_recorded;
#X obj 455 515 sel 1 0;
#X obj 394 553 bng 15 250 50 0 empty empty empty 17 7 0 10 -262144
-1 -1;
#X obj 444 555 bng 15 250 50 0 empty empty empty 17 7 0 10 -262144
-1 -1;
#X obj 581 551 tgl 15 0 empty empty empty 17 7 0 10 -262144 -1 -1 0
1;
#X obj 542 584 spigot;
#X msg 506 683 start;
#X msg 558 684 stop;
#X obj 1038 258 extra/sv \$1_\$2_recloop_slider;
#X obj 1036 298 r \$0_loop_tempo;
#X floatatom 1133 319 5 0 0 0 - - -;
#X floatatom 1036 321 5 0 0 0 - - -;
#X floatatom 825 202 5 0 0 0 - - -;
#X floatatom 826 283 5 0 0 0 - - -;
#X obj 825 219 extra/sv \$1_\$2_is_loop_recording;
#X obj 825 301 extra/sv \$1_\$2_is_loop_playing;
#X obj 824 342 extra/sv \$1_\$2_is_loop_waitforplay;
#X floatatom 825 241 5 0 0 0 - - -;
#X floatatom 825 323 5 0 0 0 - - -;
#X floatatom 824 363 5 0 0 0 - - -;
#X obj 520 334 bng 35 250 50 0 empty empty play 11 7 0 10 -4034 -1
-1;
#N canvas 454 127 923 612 managePlaying 0;
#X obj 400 7 inlet;
#X text 860 361 YES;
#X obj 400 37 bang;
#X obj 393 160 bng 40 1000 500 0 empty empty empty 17 7 0 10 -4034
-1 -1;
#X obj 323 125 tgl 15 0 empty empty empty 17 7 0 10 -262144 -1 -1 0
1;
#X obj 276 108 extra/sv \$1_\$2_is_loop_recorded;
#X obj 273 160 bng 40 1000 500 0 empty empty empty 17 7 0 10 -258113
-1 -1;
#X text 380 281 NO;
#X text 446 160 YES;
#X obj 323 143 sel 0 1;
#X obj 681 347 extra/sv \$1_\$2_is_loop_playing;
#X obj 816 390 bng 40 1000 500 0 empty empty empty 17 7 0 10 -4034
-1 -1;
#X obj 688 390 bng 40 1000 500 0 empty empty empty 17 7 0 10 -258113
-1 -1;
#X text 664 389 NO;
#X obj 755 373 sel 0 1;
#X obj 531 280 bng 40 1000 500 0 empty empty empty 17 7 0 10 -4034
-1 -1;
#X obj 404 280 bng 40 1000 500 0 empty empty empty 17 7 0 10 -258113
-1 -1;
#X text 572 283 YES;
#X obj 470 263 sel 0 1;
#X obj 403 231 extra/sv tempo_isplaying;
#X text 252 159 NO;
#X text 401 327 start ?;
#X text 861 416 stop loop;
#X obj 539 430 r tempo_quantif_bang;
#X msg 726 457 -1;
#X obj 668 457 i -1;
#X msg 689 432 1;
#X obj 668 542 s \$0_playstop_loop;
#X msg 815 433 0;
#X obj 886 512 extra/sv \$1_\$2_is_loop_waitforplay;
#X text 90 281 NO;
#X obj 222 288 bng 40 1000 500 0 empty empty empty 17 7 0 10 -4034
-1 -1;
#X obj 98 291 bng 40 1000 500 0 empty empty empty 17 7 0 10 -258113
-1 -1;
#X text 282 283 YES;
#X obj 180 263 sel 0 1;
#X obj 113 231 extra/sv \$1_\$2_is_loop_recording;
#X obj 190 509 r tempo_quantif_bang;
#X msg 360 536 -1;
#X obj 302 536 i -1;
#X msg 323 511 1;
#X obj 302 641 s \$0_playstop_loop;
#X msg 302 608 1;
#X obj 668 481 sel -1;
#X obj 302 574 sel -1;
#X text 140 421 NO;
#X obj 211 420 bng 40 1000 500 0 empty empty empty 17 7 0 10 -4034
-1 -1;
#X obj 84 420 bng 40 1000 500 0 empty empty empty 17 7 0 10 -258113
-1 -1;
#X text 332 423 YES;
#X obj 195 395 sel 0 1;
#X obj 130 372 extra/sv tempo_isplaying;
#X obj 66 513 s \$0_playstop_loop;
#X msg 66 480 1;
#X obj 405 344 t b b;
#X msg 432 369 1;
#X obj 432 396 s \$0_playstop_loop;
#X obj 397 413 s tempoGoIn;
#X text 861 436 afer quantif;
#X msg 952 482 1;
#X connect 0 0 2 0;
#X connect 2 0 5 2;
#X connect 3 0 19 2;
#X connect 4 0 9 0;
#X connect 5 1 4 0;
#X connect 6 0 35 2;
#X connect 9 0 6 0;
#X connect 9 1 3 0;
#X connect 10 1 14 0;
#X connect 11 0 28 0;
#X connect 11 0 57 0;
#X connect 12 0 26 0;
#X connect 12 0 57 0;
#X connect 14 0 12 0;
#X connect 14 1 11 0;
#X connect 15 0 10 2;
#X connect 16 0 52 0;
#X connect 18 0 16 0;
#X connect 18 1 15 0;
#X connect 19 1 18 0;
#X connect 23 0 25 0;
#X connect 24 0 25 1;
#X connect 25 0 24 0;
#X connect 25 0 42 0;
#X connect 26 0 25 1;
#X connect 28 0 25 1;
#X connect 31 0 49 2;
#X connect 34 0 32 0;
#X connect 34 1 31 0;
#X connect 35 1 34 0;
#X connect 36 0 38 0;
#X connect 37 0 38 1;
#X connect 38 0 37 0;
#X connect 38 0 43 0;
#X connect 39 0 38 1;
#X connect 41 0 40 0;
#X connect 42 1 27 0;
#X connect 43 1 41 0;
#X connect 45 0 39 0;
#X connect 46 0 51 0;
#X connect 48 0 46 0;
#X connect 48 1 45 0;
#X connect 49 1 48 0;
#X connect 51 0 50 0;
#X connect 52 0 55 0;
#X connect 52 1 53 0;
#X connect 53 0 54 0;
#X connect 57 0 29 1;
#X restore 520 383 pd managePlaying;
#N canvas 1190 190 662 391 manage 0;
#X obj 64 187 f;
#X obj 98 188 + 1;
#X obj 64 58 bng 15 250 50 0 empty empty empty 17 7 0 10 -262144 -1
-1;
#X floatatom 64 216 5 0 0 0 - - -;
#X obj 64 239 mod 1;
#X msg 197 152 0;
#X obj 64 262 select 0;
#X obj 382 131 r tempoStopOut;
#X obj 170 314 extra/sv \$1_\$2_is_loop_playing;
#X obj 64 18 r tempo_click_bang;
#X obj 200 18 inlet;
#X obj 64 100 spigot;
#X obj 118 63 tgl 15 0 empty empty empty 17 7 0 10 -262144 -1 -1 0
1;
#X obj 64 308 outlet;
#X obj 334 81 extra/sv \$1_\$2_is_loop_waitforplay;
#X msg 297 55 0;
#X obj 476 131 r \$1_\$2_loop_clear;
#X obj 146 108 extra/sv \$1_\$2_is_loop_playing;
#X msg 205 83 0;
#X obj 189 47 sel 1 0;
#X text 236 154 Reset counter;
#X obj 347 335 sel 1;
#X msg 374 357 1;
#X text 332 278 The loop play to 1 if was not;
#X floatatom 160 210 5 0 0 0 - - -;
#X obj 141 311 bng 15 250 50 0 empty empty empty 17 7 0 10 -262144
-1 -1;
#X obj 192 188 r \$1_\$2_loop_size;
#X connect 0 0 1 0;
#X connect 0 0 3 0;
#X connect 1 0 0 1;
#X connect 2 0 11 0;
#X connect 3 0 4 0;
#X connect 4 0 6 0;
#X connect 5 0 0 1;
#X connect 6 0 13 0;
#X connect 6 0 8 2;
#X connect 6 0 25 0;
#X connect 7 0 5 0;
#X connect 8 1 21 0;
#X connect 9 0 2 0;
#X connect 10 0 12 0;
#X connect 10 0 15 0;
#X connect 10 0 19 0;
#X connect 11 0 0 0;
#X connect 12 0 11 1;
#X connect 15 0 14 1;
#X connect 16 0 5 0;
#X connect 18 0 17 1;
#X connect 19 0 5 0;
#X connect 19 1 18 0;
#X connect 21 1 22 0;
#X connect 22 0 8 1;
#X connect 24 0 4 1;
#X connect 26 0 24 0;
#X restore 660 516 pd manage start;
#X obj 660 484 r \$0_playstop_loop;
#X obj 1401 465 r \$1_\$2_loop_clear;
#N canvas 56 163 741 457 config 0;
#X floatatom 69 444 5 0 0 0 - - -;
#X obj 42 785 /;
#X obj 123 462 log;
#X obj 123 551 i;
#X obj 123 501 / 0.693147;
#X floatatom 123 528 5 0 0 0 - - -;
#X floatatom 123 582 5 0 0 0 - - -;
#X obj 114 668 pow;
#X msg 102 640 2;
#X floatatom 114 693 5 0 0 0 - - -;
#X obj 102 607 t b f;
#X obj 8 869 s tempoValue;
#X obj 56 37 inlet;
#X obj 386 47 inlet;
#X obj 69 415 / 380;
#X obj 102 869 s \$0_loop_tempo;
#X text 113 829 non \, la fausse valeur;
#X obj 317 709 cnv 15 100 60 empty empty empty 20 12 0 14 -233017 -66577
0;
#X text 323 714 really important;
#X text 322 734 set qantif from 1s loop;
#X msg 165 54 1;
#X msg 199 56 0;
#X obj 123 98 extra/sv \$1_\$2_is_loop_recording;
#X obj 42 378 t f f f;
#X obj 145 721 extra/sv quantif_global;
#X obj 42 828 t f b b f;
#X msg 62 936 0;
#X obj -4 955 extra/sv \$1_\$2_is_loop_recording;
#X obj 0 207 bang;
#X obj 103 206 bang;
#X text 137 274 This is the real tempo;
#X obj 46 230 bng 15 250 50 0 empty empty empty 17 7 0 10 -262144 -1
-1;
#X obj 131 238 bng 15 250 50 0 empty empty empty 17 7 0 10 -262144
-1 -1;
#X obj 68 298 bng 15 250 50 0 empty empty empty 17 7 0 10 -262144 -1
-1;
#X floatatom 124 420 10 0 0 0 - - -;
#X text 92 261 Previously on realtime;
#X obj 42 266 timer;
#X obj 220 414 s \$1_\$2_timer;
#X obj 115 741 s \$1_\$2_loop_size;
#X obj 85 914 s \$1_\$2_loop_play;
#X connect 0 0 2 0;
#X connect 1 0 25 0;
#X connect 2 0 4 0;
#X connect 3 0 6 0;
#X connect 4 0 5 0;
#X connect 5 0 3 0;
#X connect 6 0 10 0;
#X connect 7 0 9 0;
#X connect 8 0 7 0;
#X connect 9 0 1 1;
#X connect 9 0 24 1;
#X connect 9 0 38 0;
#X connect 10 0 8 0;
#X connect 10 1 7 1;
#X connect 12 0 20 0;
#X connect 12 0 28 0;
#X connect 13 0 29 0;
#X connect 14 0 0 0;
#X connect 20 0 22 1;
#X connect 21 0 22 1;
#X connect 23 0 1 0;
#X connect 23 1 14 0;
#X connect 23 2 34 0;
#X connect 23 2 37 0;
#X connect 25 0 11 0;
#X connect 25 1 26 0;
#X connect 25 2 39 0;
#X connect 25 3 15 0;
#X connect 26 0 27 1;
#X connect 28 0 31 0;
#X connect 28 0 36 0;
#X connect 29 0 32 0;
#X connect 29 0 36 1;
#X connect 36 0 23 0;
#X connect 36 0 33 0;
#X restore -178 707 pd config;
#N canvas 1242 136 641 356 config 0;
#X floatatom 114 353 5 0 0 0 - - -;
#X floatatom 296 334 10 0 0 0 - - -;
#X obj 212 99 inlet;
#X obj 237 117 inlet;
#X obj 88 471 s \$0_loop_tempo;
#X text 99 489 non \, la fausse valeur;
#X msg 344 241 1;
#X msg 383 224 0;
#X obj 290 270 extra/sv \$1_\$2_is_loop_recording;
#X obj 64 231 f;
#X obj 98 232 + 1;
#X obj 64 202 bng 15 250 50 0 empty empty empty 17 7 0 10 -262144 -1
-1;
#X floatatom 64 260 5 0 0 0 - - -;
#X obj 64 168 r tempo_click_bang;
#X obj 114 324 i 0;
#X obj 7 353 extra/sv tempo;
#X floatatom 37 475 5 0 0 0 - - -;
#X obj 61 326 bng 15 250 50 0 empty empty empty 17 7 0 10 -262144 -1
-1;
#X obj 88 396 / 60;
#X obj 88 422 pow -1;
#X obj 88 446 * 1000;
#X msg 144 199 1;
#X obj 246 191 t b b b;
#X obj 206 301 timer;
#X obj 155 370 s \$1_\$2_loop_size;
#X obj 206 333 s \$1_\$2_timer;
#X connect 0 0 24 0;
#X connect 2 0 6 0;
#X connect 2 0 21 0;
#X connect 2 0 23 0;
#X connect 3 0 22 0;
#X connect 3 0 23 1;
#X connect 6 0 8 1;
#X connect 7 0 8 1;
#X connect 9 0 10 0;
#X connect 9 0 12 0;
#X connect 10 0 9 1;
#X connect 11 0 9 0;
#X connect 12 0 14 1;
#X connect 13 0 11 0;
#X connect 14 0 0 0;
#X connect 15 1 18 0;
#X connect 17 0 15 2;
#X connect 18 0 19 0;
#X connect 19 0 20 0;
#X connect 20 0 4 0;
#X connect 20 0 16 0;
#X connect 21 0 9 1;
#X connect 22 0 14 0;
#X connect 22 0 17 0;
#X connect 22 1 7 0;
#X connect 23 0 1 0;
#X connect 23 0 25 0;
#X restore 109 707 pd config;
#X obj 1448 628 s \$0_playstop_loop;
#X obj 1401 504 t b b b b b;
#X msg 1448 595 0;
#X obj 1487 569 extra/sv \$1_\$2_is_loop_waitforrec;
#X obj 168 138 extra/sv \$1_\$2_loop_recbutton;
#X obj 549 136 extra/sv \$1_\$2_loop_playbutton;
#X obj 1487 586 extra/sv \$1_\$2_is_loop_playing;
#X obj 1487 603 extra/sv \$1_\$2_is_loop_waitforplay;
#X obj 1527 700 extra/sv \$1_\$2_is_loop_recording;
#X obj 68 74 s~ \$0-input;
#N canvas 545 163 595 445 (subpatch) 0;
#X array \$0_loop0 1.2e+06 float 0;
#X coords 0 -1 1.2e+06 1 200 30 1 0 0;
#X restore 1038 351 graph;
#X obj 454 795 tabwrite~ \$0_loop0;
#X obj 223 670 tabwrite~ \$0_loop0;
#X obj -64 670 tabwrite~ \$0_loop0;
#X obj 1047 181 extra/sv \$1_\$2_looper_arrayindex;
#X obj 1079 465 cnv 15 210 350 empty empty OUTLET 20 12 0 9 -204217
-66577 0;
#N canvas 74 50 761 687 ledoutrec 0;
#X msg 102 285 1;
#X obj 102 447 tgl 15 0 empty empty empty 17 7 0 10 -262144 -1 -1 0
1;
#X obj 102 474 sel 1;
#X msg 102 377 bang;
#X msg 146 377 stop;
#X obj 102 328 sel 1;
#X obj 153 349 t b b;
#X msg 178 447 1;
#X msg 284 572 1;
#X msg 312 572 0;
#X obj 284 616 outlet;
#X obj 284 212 extra/sv \$1_\$2_is_loop_recording;
#X obj 284 469 sel 1 0;
#X obj 284 242 t f b;
#X obj 491 181 r \$1_\$2_recloop_deleted_ui;
#X text 499 155 Animation on delete over;
#X text 49 152 Begin animation on delete;
#X msg 485 231 0;
#X obj 102 418 metro 100;
#X obj 86 194 extra/sv \$1_\$2_is_loop_waitforrec;
#X obj 50 171 r \$1_\$2_loop_clear;
#X obj 15 136 r \$1_\$2_loop_undo;
#X obj 501 210 r \$1_\$2_loop_undo_ui;
#X obj 40 248 bng 15 250 50 0 empty empty empty 17 7 0 10 -262144 -1
-1;
#X obj 434 358 bng 15 250 50 0 empty empty empty 17 7 0 10 -262144
-1 -1;
#X connect 0 0 5 0;
#X connect 1 0 2 0;
#X connect 2 0 8 0;
#X connect 2 1 9 0;
#X connect 3 0 18 0;
#X connect 4 0 18 0;
#X connect 5 0 3 0;
#X connect 5 1 6 0;
#X connect 6 0 4 0;
#X connect 6 1 7 0;
#X connect 7 0 2 0;
#X connect 8 0 10 0;
#X connect 9 0 10 0;
#X connect 11 0 13 0;
#X connect 11 0 24 0;
#X connect 12 0 8 0;
#X connect 12 1 9 0;
#X connect 13 0 12 0;
#X connect 13 1 4 0;
#X connect 14 0 17 0;
#X connect 17 0 13 0;
#X connect 18 0 1 0;
#X connect 19 0 0 0;
#X connect 20 0 0 0;
#X connect 20 0 23 0;
#X connect 21 0 0 0;
#X connect 22 0 17 0;
#X restore 1082 738 pd ledoutrec;
#X obj 1082 773 outlet;
#X obj 1176 773 outlet;
#N canvas 316 155 881 687 ledoutplay 0;
#X obj 251 433 tgl 15 0 empty empty empty 17 7 0 10 -262144 -1 -1 0
1;
#X obj 251 460 sel 1;
#X msg 227 363 bang;
#X msg 287 364 stop;
#X obj 243 314 sel 1;
#X obj 294 335 t b b;
#X msg 319 428 1;
#X obj 407 585 outlet;
#X msg 407 522 1;
#X msg 469 522 0;
#X obj 407 434 sel 1 0;
#X obj 407 170 extra/sv \$1_\$2_is_loop_playing;
#N canvas 692 208 450 300 waitforplay 0;
#X obj 71 166 != -1;
#X obj 71 197 sel 1;
#X obj 71 242 outlet;
#X obj 65 -62 extra/sv \$1_\$2_is_loop_waitforplay;
#X obj 118 96 extra/sv \$1_\$2_is_loop_playing;
#X obj 71 67 t f b;
#X obj -112 -2 extra/sv \$1_\$2_is_loop_recorded;
#X obj 65 -26 t b f;
#X obj 71 42 i -1;
#X obj 71 18 sel 1;
#X floatatom 171 184 5 0 0 0 - - -;
#X floatatom -14 130 5 0 0 0 - - -;
#X connect 0 0 1 0;
#X connect 1 0 2 0;
#X connect 3 0 7 0;
#X connect 4 1 0 1;
#X connect 4 1 10 0;
#X connect 5 0 0 0;
#X connect 5 0 11 0;
#X connect 5 1 4 2;
#X connect 6 1 9 0;
#X connect 7 0 6 2;
#X connect 7 1 8 1;
#X connect 8 0 5 0;
#X connect 9 0 8 0;
#X restore 267 196 pd waitforplay;
#X obj 407 294 t f b;
#X obj 52 246 r \$1_\$2_recloop_deleted_ui;
#X text 608 110 Animation on delete over;
#X msg 52 272 0;
#X obj 251 404 metro 100;
#X obj 93 274 bng 15 250 50 0 empty empty empty 17 7 0 10 -262144 -1
-1;
#X msg 13 271 1;
#X obj 21 433 tgl 15 0 empty empty empty 17 7 0 10 -262144 -1 -1 0
1;
#X obj 21 460 sel 1;
#X msg -3 363 bang;
#X msg 57 364 stop;
#X obj 13 314 sel 1;
#X obj 64 335 t b b;
#X obj 13 244 bng 15 250 50 0 empty empty empty 17 7 0 10 -262144 -1
-1;
#X obj 21 404 metro 100;
#X msg 89 428 0;
#X obj 13 196 r \$1_\$2_loop_clear;
#X obj 298 238 bng 15 250 50 0 empty empty empty 17 7 0 10 -262144
-1 -1;
#X obj 238 127 extra/sv \$1_\$2_is_loop_waitforplay;
#X connect 0 0 1 0;
#X connect 1 0 8 0;
#X connect 1 1 9 0;
#X connect 2 0 17 0;
#X connect 3 0 17 0;
#X connect 4 0 2 0;
#X connect 4 1 5 0;
#X connect 5 0 3 0;
#X connect 5 1 6 0;
#X connect 6 0 1 0;
#X connect 8 0 7 0;
#X connect 9 0 7 0;
#X connect 10 0 8 0;
#X connect 10 1 9 0;
#X connect 11 0 13 0;
#X connect 12 0 30 0;
#X connect 13 0 10 0;
#X connect 13 1 3 0;
#X connect 14 0 16 0;
#X connect 14 0 18 0;
#X connect 16 0 24 0;
#X connect 17 0 0 0;
#X connect 19 0 24 0;
#X connect 20 0 21 0;
#X connect 21 0 8 0;
#X connect 21 1 9 0;
#X connect 22 0 27 0;
#X connect 23 0 27 0;
#X connect 24 0 22 0;
#X connect 24 1 25 0;
#X connect 25 0 23 0;
#X connect 25 1 28 0;
#X connect 26 0 19 0;
#X connect 27 0 20 0;
#X connect 28 0 21 0;
#X connect 29 0 26 0;
#X connect 31 0 4 0;
#X restore 1176 738 pd ledoutplay;
#X obj 1128 775 bng 15 250 50 0 empty empty empty 17 7 0 10 -258113
-1 -1;
#X obj 1227 777 bng 15 250 50 0 empty empty empty 17 7 0 10 -4034 -1
-1;
#X obj 1146 775 tgl 15 0 empty empty empty 17 7 0 10 -262144 -1 -1
0 1;
#X obj 1249 778 tgl 15 0 empty empty empty 17 7 0 10 -262144 -1 -1
0 1;
#X obj 678 640 r \$0_arrayindexplay;
#X obj 514 772 r \$0_arrayindexrec;
#X obj 1332 738 extra/sv \$1_\$2_looper_arrayindex;
#X msg 395 684 start;
#X obj 542 608 t b b b;
#X obj 602 299 bng 15 250 50 0 empty empty empty 17 7 0 10 -262144
-1 -1;
#X obj 68 54 hip~ 5;
#N canvas 979 341 552 563 manageLongPress 0;
#X obj 132 11 inlet;
#X obj 127 112 bng 40 1000 500 0 empty empty empty 17 7 0 10 -4034
-1 -1;
#X obj 57 77 tgl 15 0 empty empty empty 17 7 0 10 -262144 -1 -1 0 1
;
#X obj 10 60 extra/sv \$1_\$2_is_loop_recorded;
#X obj 7 112 bng 40 1000 500 0 empty empty empty 17 7 0 10 -258113
-1 -1;
#X text 180 112 YES;
#X obj 132 34 bang;
#X obj 57 95 sel 0 1;
#X text -14 111 NO;
#X obj 9 178 extra/sv \$1_\$2_is_loop_playing;
#X obj 144 221 bng 40 1000 500 0 empty empty empty 17 7 0 10 -4034
-1 -1;
#X obj 16 221 bng 40 1000 500 0 empty empty empty 17 7 0 10 -258113
-1 -1;
#X text -8 220 NO;
#X text 185 224 YES;
#X obj 83 204 sel 0 1;
#X text 0 336 NO;
#X obj 132 343 bng 40 1000 500 0 empty empty empty 17 7 0 10 -4034
-1 -1;
#X obj 8 346 bng 40 1000 500 0 empty empty empty 17 7 0 10 -258113
-1 -1;
#X text 192 338 YES;
#X obj 90 318 sel 0 1;
#X obj 23 286 extra/sv \$1_\$2_is_loop_recording;
#X obj 74 436 r \$0_realstart_overdub;
#X obj 74 482 i 0;
#X obj 74 511 + 1;
#X obj 8 525 i 0;
#X obj 8 549 sel 0;
#X obj 159 580 bang;
#X obj 163 625 s \$1_\$2_loop_undo;
#X obj 236 454 r \$1_\$2_loop_clear;
#X obj -8 628 s \$1_\$2_loop_clear;
#X msg 163 468 -1;
#X obj 132 388 s \$1_\$2_loop_clear;
#X obj -31 270 s \$1_\$2_loop_clear;
#X obj 88 600 bng 15 250 50 0 empty empty empty 17 7 0 10 -262144 -1
-1;
#X obj 74 461 sel 1;
#X connect 0 0 6 0;
#X connect 1 0 9 2;
#X connect 2 0 7 0;
#X connect 3 1 2 0;
#X connect 4 0 32 0;
#X connect 6 0 3 2;
#X connect 7 0 4 0;
#X connect 7 1 1 0;
#X connect 9 1 14 0;
#X connect 10 0 20 2;
#X connect 11 0 32 0;
#X connect 14 0 11 0;
#X connect 14 1 10 0;
#X connect 16 0 31 0;
#X connect 17 0 24 0;
#X connect 19 0 17 0;
#X connect 19 1 16 0;
#X connect 20 1 19 0;
#X connect 21 0 34 0;
#X connect 22 0 23 0;
#X connect 23 0 22 1;
#X connect 23 0 24 1;
#X connect 24 0 25 0;
#X connect 25 0 29 0;
#X connect 25 1 26 0;
#X connect 25 1 33 0;
#X connect 26 0 30 0;
#X connect 26 0 27 0;
#X connect 28 0 30 0;
#X connect 30 0 22 0;
#X connect 34 0 22 0;
#X restore 636 394 pd manageLongPress;
#X text 371 245 shortcut for starting play;
#X msg 1395 584 1;
#X msg 1601 673 0;
#N canvas 1152 485 641 356 slider_ui 0;
#X obj 31 53 inlet~;
#X obj 241 250 snapshot~;
#X obj 262 187 loadbang;
#X obj 284 138 bng 15 250 50 0 empty empty empty 17 7 0 10 -262144
-1 -1;
#X floatatom 384 326 5 0 0 0 - - -;
#X obj 384 374 change;
#X obj 407 428 s \$1_recloop_ui_play;
#X obj 384 403 sel 1 0;
#X obj 384 454 s \$1_recloop_ui_stop;
#X obj 384 349 >= 1;
#X obj 199 200 /~ 44.1;
#X floatatom 248 77 10 0 0 0 - - -;
#X obj 248 98 * 44.1;
#X obj 384 289 extra/sv \$1_\$2_recloop_slider;
#X floatatom 252 276 5 0 0 0 - - -;
#X obj 163 112 r tempoStopIn;
#X obj 72 112 r tempoGoIn;
#X msg 164 134 0;
#X msg 88 133 1;
#X obj 30 112 *~ 1;
#X obj 30 151 *~ 1;
#X obj 55 83 extra/sv \$1_\$2_is_loop_playing;
#X obj 248 52 r \$1_\$2_timer;
#X obj 267 220 metro 20;
#X connect 0 0 19 0;
#X connect 1 0 13 1;
#X connect 1 0 14 0;
#X connect 2 0 23 0;
#X connect 3 0 23 0;
#X connect 4 0 9 0;
#X connect 5 0 7 0;
#X connect 7 1 6 0;
#X connect 9 0 5 0;
#X connect 10 0 1 0;
#X connect 11 0 12 0;
#X connect 12 0 10 1;
#X connect 13 0 4 0;
#X connect 15 0 17 0;
#X connect 16 0 18 0;
#X connect 17 0 20 1;
#X connect 18 0 20 1;
#X connect 19 0 20 0;
#X connect 20 0 10 0;
#X connect 21 0 19 1;
#X connect 22 0 11 0;
#X connect 23 0 1 0;
#X restore 689 617 pd slider_ui;
#X floatatom 1047 202 5 0 0 0 - - -;
#X obj 1259 155 cnv 15 210 260 empty empty Breakbeat_mode 20 12 0 14
-237308 -66577 0;
#X obj 1280 184 extra/sv \$1_\$2_looper_inverse;
#X obj 1279 230 extra/sv \$1_\$2_looper_slice;
#X obj 1279 272 extra/sv \$1_\$2_looper_start;
#X floatatom 1280 207 5 0 0 0 - - -;
#X floatatom 1279 251 5 0 0 0 - - -;
#X floatatom 1279 294 5 0 0 0 - - -;
#N canvas 386 241 450 300 managePlayPress 0;
#X obj 197 19 inlet;
#X obj 131 148 spigot;
#X obj 209 148 spigot;
#X obj 269 148 spigot;
#X obj 302 122 == 3;
#X obj 242 122 == 2;
#X obj 164 122 == 1;
#X obj 325 35 loadbang;
#X obj 324 76 i \$3;
#X obj 131 250 outlet;
#X text 443 42 Manage action on play button;
#X text 445 62 according to the 3rd arg aka mode arg;
#X text 447 95 1 Classic;
#X text 467 115 overdub;
#X text 445 135 2 breakbeat;
#X text 468 153 no overdub;
#X text 443 175 3 Sampler;
#X text 466 193 countdown \, size fixed ?;
#X obj 264 248 outlet;
#X connect 0 0 1 0;
#X connect 0 0 2 0;
#X connect 0 0 3 0;
#X connect 1 0 9 0;
#X connect 2 0 9 0;
#X connect 3 0 18 0;
#X connect 4 0 3 1;
#X connect 5 0 2 1;
#X connect 6 0 1 1;
#X connect 7 0 8 0;
#X connect 8 0 4 0;
#X connect 8 0 5 0;
#X connect 8 0 6 0;
#X restore 519 209 pd managePlayPress;
#N canvas 867 195 450 300 managePlayingSampler 0;
#X obj 201 28 inlet;
#X obj 180 133 s \$0_playsampler_loop;
#X text 276 99 Easy as it is;
#X obj 144 52 tgl 15 0 empty empty empty 17 7 0 10 -262144 -1 -1 0
1;
#X connect 0 0 1 0;
#X connect 3 0 1 0;
#X restore 664 309 pd managePlayingSampler;
#X text 635 211 according to \$3;
#X obj 662 772 hip~ 5;
#X obj 661 670 tabread4~ \$0_loop0;
#X obj 484 228 tgl 15 0 empty empty empty 17 7 0 10 -262144 -1 -1 0
1;
#X obj 517 233 extra/short_or_long;
#N canvas 335 133 450 300 release_sound 0;
#X obj 102 71 inlet~;
#X obj 97 236 outlet~;
#X obj 209 7 extra/sv \$1_\$2_is_loop_playing;
#X obj 172 141 line~;
#X obj 209 28 sel 0 1;
#X msg 196 83 0 1;
#X obj 237 81 1 1;
#X obj 102 157 *~;
#X obj 387 120 r tempoStopIn;
#X obj 296 120 r tempoGoIn;
#X obj 101 195 *~;
#X msg 297 147 1 1;
#X msg 388 142 0 1;
#X obj 174 184 line~;
#X connect 0 0 7 0;
#X connect 2 0 4 0;
#X connect 3 0 7 1;
#X connect 4 0 5 0;
#X connect 4 1 6 0;
#X connect 4 2 6 0;
#X connect 5 0 3 0;
#X connect 6 0 3 0;
#X connect 7 0 10 0;
#X connect 8 0 12 0;
#X connect 9 0 11 0;
#X connect 10 0 1 0;
#X connect 11 0 13 0;
#X connect 12 0 13 0;
#X connect 13 0 10 1;
#X restore 661 693 pd release_sound;
#X obj 766 693 r \$0_loop_tempo;
#X obj -185 111 cnv 15 280 350 empty empty LOOP 20 12 0 9 -212539 -66577
0;
#N canvas 911 140 1009 300 init 0;
#X obj 279 -39 loadbang;
#X obj 10 46 pack \$0;
#X obj 391 -21 delay 200;
#X msg 600 -20 0;
#X msg 422 37 0;
#X obj 148 88 i 0;
#X obj 184 2 t b b;
#X text 540 19 manque le slider;
#X obj 419 199 extra/svsave \$1_\$2_looper_volume;
#X obj 420 156 extra/svsave \$1_\$2_looper_sendA;
#X obj 420 176 extra/svsave \$1_\$2_looper_sendB;
#X msg 148 64 1.2e+06;
#X obj 148 136 array size \$0_loop1;
#X obj 148 112 array size \$0_loop0;
#X msg 25 74 \; \$1_loop0 const 0;
#X msg 10 110 \; \$1_loop1 const 0;
#X obj 642 129 extra/sv \$1_\$2_looper_arrayindex;
#X obj 642 18 extra/svosc \$1_\$2_is_loop_recording;
#X obj 642 47 extra/svosc \$1_\$2_is_loop_playing;
#X obj 642 76 extra/svosc \$1_\$2_is_loop_waitforrec;
#X obj 641 105 extra/svosc \$1_\$2_is_loop_waitforplay;
#X obj 420 114 extra/svosc \$1_\$2_loop_recbutton;
#X obj 420 136 extra/svosc \$1_\$2_loop_playbutton;
#X obj 424 88 extra/svosc \$1_\$2_is_loop_recorded;
#X obj 918 15 extra/sv \$1_\$2_looper_inverse;
#X obj 915 41 extra/sv \$1_\$2_looper_slice;
#X obj 916 70 extra/sv \$1_\$2_looper_start;
#X msg 910 -20 0;
#X text 968 -10 Breakbeat mode;
#X obj 661 183 extra/sv \$1_\$2_loop_playsampler;
#X obj 36 -11 bng 15 250 50 0 empty empty empty 17 7 0 10 -262144 -1
-1;
#X connect 0 0 2 0;
#X connect 0 0 3 0;
#X connect 0 0 6 0;
#X connect 0 0 27 0;
#X connect 1 0 15 0;
#X connect 1 0 14 0;
#X connect 2 0 4 0;
#X connect 3 0 16 3;
#X connect 3 0 17 3;
#X connect 3 0 18 3;
#X connect 3 0 19 3;
#X connect 3 0 20 3;
#X connect 3 0 29 1;
#X connect 4 0 23 3;
#X connect 5 0 12 0;
#X connect 5 0 13 0;
#X connect 6 0 1 0;
#X connect 6 1 11 0;
#X connect 11 0 5 0;
#X connect 27 0 24 1;
#X connect 27 0 25 1;
#X connect 27 0 26 1;
#X connect 30 0 1 0;
#X restore -176 147 pd init;
#N canvas 441 169 776 489 save 0;
#X obj -565 234 soundfiler;
#X obj 126 17 t b b;
#X obj 126 -17 inlet;
#X obj 26 -8 bang;
#X obj -53 139 i 0;
#X msg 340 286 clear;
#X obj 10 354 textfile;
#X obj -180 208 extra/sv song;
#X obj -236 45 extra/sv \$1_\$2_is_loop_recorded;
#X msg 15 286 add exist \$1;
#X text -208 104 Save info file into text;
#X obj 26 -31 r save_song;
#X obj -76 208 s get_samples_location;
#X obj -475 62 extra/sv song;
#X obj -238 283 pack \$1 \$2 1 s;
#X msg -238 320 write \$4/\$3/loop\$1_\$2_info.txt;
#X obj -438 147 * 44.1;
#X obj -53 161 t b b f b b b;
#X obj 225 262 i 0;
#X msg 225 286 add duration \$1;
#X obj 112 262 i 0;
#X obj 150 228 r \$0_loop_tempo;
#X msg 116 283 add tempo \$1;
#X obj -48 185 i \$0;
#X obj -130 252 symbol;
#X obj -445 103 symbol;
#X obj -130 228 r samples_location-\$0;
#X obj -445 82 r samples_location-\$0;
#X obj -565 191 pack \$0 \$1 \$2 1 s 1000 0;
#X msg -565 212 write -wave -nframes \$6 \$5/\$4/loop\$2_\$3.wav \$1_loop\$7
;
#X obj -345 133 r \$0_index_save;
#X obj -438 124 r \$1_\$2_timer;
#X obj 263 228 r \$1_\$2_loop_size;
#X connect 1 0 8 2;
#X connect 2 0 1 0;
#X connect 3 0 1 0;
#X connect 4 0 17 0;
#X connect 5 0 6 0;
#X connect 7 0 14 2;
#X connect 8 1 4 0;
#X connect 9 0 6 0;
#X connect 11 0 3 0;
#X connect 13 0 28 3;
#X connect 14 0 15 0;
#X connect 15 0 6 0;
#X connect 16 0 28 5;
#X connect 17 0 14 0;
#X connect 17 0 28 0;
#X connect 17 1 23 0;
#X connect 17 2 9 0;
#X connect 17 3 20 0;
#X connect 17 4 18 0;
#X connect 17 5 5 0;
#X connect 18 0 19 0;
#X connect 19 0 6 0;
#X connect 20 0 22 0;
#X connect 21 0 20 1;
#X connect 22 0 6 0;
#X connect 23 0 12 0;
#X connect 24 0 14 3;
#X connect 25 0 28 4;
#X connect 26 0 24 0;
#X connect 27 0 25 0;
#X connect 28 0 29 0;
#X connect 29 0 0 0;
#X connect 30 0 28 6;
#X connect 31 0 16 0;
#X connect 32 0 18 1;
#X restore -61 189 pd save;
#X obj -61 168 bng 15 250 50 0 empty empty empty 17 7 0 10 -262144
-1 -1;
#N canvas 2038 345 670 562 open 0;
#X obj 144 249 soundfiler;
#X obj 176 328 / 44.1;
#X floatatom 176 358 10 0 0 0 - - -;
#X obj 134 2 inlet;
#X obj 480 82 openpanel;
#X obj 480 114 pack s \$0;
#X obj 480 61 bang;
#X obj 480 41 inlet;
#X obj 550 81 r \$1_\$2_loop_open;
#X text 244 3 Open from saved song;
#X text 654 50 open from file;
#X obj 357 168 extra/sv song;
#X obj 43 -4 r loadsong;
#X text 144 445 TODO : save a txt file associated to each samples (
exist ? \, volume \, reversed ? );
#X obj 43 18 bng 15 250 50 0 empty empty empty 17 7 0 10 -262144 -1
-1;
#X obj 144 276 sel 0;
#N canvas 566 153 630 509 checkinfofile 0;
#X obj 157 -16 inlet;
#X obj 259 137 extra/sv song;
#X obj 196 220 textfile;
#X msg 127 138 rewind;
#X obj 88 138 bang;
#X obj 171 12 bng 15 250 50 0 empty empty empty 17 7 0 10 -262144 -1
-1;
#X obj 48 138 bang;
#X obj 8 138 bang;
#X obj 57 310 sel 1 0;
#X obj 80 357 extra/sv \$1_\$2_is_loop_recorded;
#X obj 57 451 outlet;
#X obj 107 34 t b b b b b b b b b;
#X obj 196 160 pack \$1 \$2 1 s;
#X obj 237 78 s get_samples_location;
#X msg 196 185 read \$4/\$3/loop\$1_\$2_info.txt;
#X obj 190 267 route exist tempo duration;
#X obj 309 292 s \$0_loop_size;
#X obj 249 313 s \$0_loop_tempo;
#X obj 70 381 s \$1_\$2_loop_clear;
#X obj 237 57 i \$0;
#X obj 398 137 symbol;
#X obj 398 116 r samples_location-\$0;
#X floatatom 215 329 5 0 0 0 - - -;
#X connect 0 0 5 0;
#X connect 0 0 11 0;
#X connect 1 0 12 2;
#X connect 2 0 15 0;
#X connect 3 0 2 0;
#X connect 4 0 2 0;
#X connect 6 0 2 0;
#X connect 7 0 2 0;
#X connect 8 0 10 0;
#X connect 8 1 18 0;
#X connect 11 2 7 0;
#X connect 11 3 6 0;
#X connect 11 4 4 0;
#X connect 11 5 3 0;
#X connect 11 6 12 0;
#X connect 11 8 19 0;
#X connect 12 0 14 0;
#X connect 14 0 2 0;
#X connect 15 0 8 0;
#X connect 15 0 9 1;
#X connect 15 1 17 0;
#X connect 15 1 22 0;
#X connect 15 2 16 0;
#X connect 19 0 13 0;
#X connect 20 0 12 3;
#X connect 21 0 20 0;
#X restore 141 42 pd checkinfofile;
#X obj 176 302 f 0;
#X obj 480 165 soundfiler;
#X obj 512 293 / 44.1;
#X floatatom 512 317 10 0 0 0 - - -;
#N canvas 679 177 509 628 tempoCalculation 0;
#X floatatom 69 134 5 0 0 0 - - -;
#X obj 42 505 /;
#X obj 123 182 log;
#X obj 123 271 i;
#X obj 123 221 / 0.693147;
#X floatatom 123 248 5 0 0 0 - - -;
#X floatatom 123 302 5 0 0 0 - - -;
#X obj 114 388 pow;
#X msg 102 360 2;
#X floatatom 114 413 5 0 0 0 - - -;
#X obj 102 327 t b f;
#X obj 42 68 t f f;
#X obj 69 105 / 380;
#X obj 59 1 inlet;
#X obj 42 545 t b b f;
#X obj 88 581 s \$0_loop_tempo;
#X obj 61 604 s \$0_begin;
#X obj 41 646 outlet;
#X floatatom 203 584 5 0 0 0 - - -;
#X obj 203 608 extra/period_to_tempo;
#X floatatom 203 630 5 0 0 0 - - -;
#X obj 115 461 s \$1_\$2_loop_size;
#X obj 135 61 s \$1_\$2_timer;
#X connect 0 0 2 0;
#X connect 1 0 14 0;
#X connect 2 0 4 0;
#X connect 3 0 6 0;
#X connect 4 0 5 0;
#X connect 5 0 3 0;
#X connect 6 0 10 0;
#X connect 7 0 9 0;
#X connect 8 0 7 0;
#X connect 9 0 1 1;
#X connect 9 0 21 0;
#X connect 10 0 8 0;
#X connect 10 1 7 1;
#X connect 11 0 1 0;
#X connect 11 1 12 0;
#X connect 12 0 0 0;
#X connect 13 0 11 0;
#X connect 13 0 22 0;
#X connect 14 0 17 0;
#X connect 14 2 15 0;
#X connect 14 2 18 0;
#X connect 18 0 19 0;
#X connect 19 0 20 0;
#X restore 512 339 pd tempoCalculation;
#X text 156 22 Be sure there is a loop saved with this looper;
#X obj 480 196 sel 0;
#X text 515 269 From a file \, open the file only;
#X obj 163 122 s get_samples_location;
#X obj 144 201 pack \$0 \$1 \$2 1 s;
#N canvas 837 205 509 452 config 0;
#X obj 59 1 inlet;
#X msg 134 101 1;
#X obj 73 126 extra/sv \$1_\$2_is_loop_recorded;
#X obj 119 169 s \$0_playstop_loop;
#X msg 103 189 0;
#X obj 112 232 extra/sv \$1_\$2_is_loop_waitforrec;
#X obj 113 256 extra/sv \$1_\$2_is_loop_waitforplay;
#X obj 114 308 extra/sv \$1_\$2_is_loop_recording;
#X obj 112 282 s \$0_realstart_overdub;
#X msg 119 147 0;
#X obj 59 82 t b b b b b b;
#X msg 54 188 1;
#X obj 20 354 extra/sv \$1_\$2_looper_arrayindex;
#X obj 114 332 extra/sv \$1_\$2_is_loop_playing;
#X obj 334 228 extra/sv \$1_\$2_looper_inverse;
#X obj 333 274 extra/sv \$1_\$2_looper_slice;
#X obj 333 316 extra/sv \$1_\$2_looper_start;
#X obj 133 46 s \$1_\$2_timer;
#X connect 0 0 10 0;
#X connect 0 0 17 0;
#X connect 1 0 2 1;
#X connect 4 0 5 1;
#X connect 4 0 6 1;
#X connect 4 0 7 1;
#X connect 4 0 8 0;
#X connect 4 0 13 1;
#X connect 4 0 14 1;
#X connect 4 0 15 1;
#X connect 4 0 16 1;
#X connect 9 0 3 0;
#X connect 10 2 11 0;
#X connect 10 3 4 0;
#X connect 10 4 9 0;
#X connect 10 5 1 0;
#X connect 11 0 12 1;
#X restore 176 399 pd config;
#X obj 144 75 t b b b b;
#X obj 164 98 i \$0;
#X obj 260 167 symbol;
#X obj 260 141 r samples_location-\$0;
#N canvas 390 171 509 452 config 0;
#X obj 59 1 inlet;
#X obj 78 148 s \$0_begin;
#X msg 46 147 1;
#X obj 40 182 extra/sv \$1_\$2_is_loop_recorded;
#X text 152 152 Toujours d'actualité?;
#X obj -100 176 s \$0_playstop_loop;
#X msg -146 172 0;
#X obj -137 215 extra/sv \$1_\$2_is_loop_waitforrec;
#X obj -125 239 extra/sv \$1_\$2_is_loop_waitforplay;
#X obj -128 291 extra/sv \$1_\$2_is_loop_recording;
#X obj -130 267 s \$0_realstart_overdub;
#X obj 59 82 t b b b b b f;
#X msg -39 154 0;
#X connect 0 0 11 0;
#X connect 2 0 3 1;
#X connect 6 0 7 1;
#X connect 6 0 8 1;
#X connect 6 0 9 1;
#X connect 6 0 10 0;
#X connect 11 0 6 0;
#X connect 11 1 12 0;
#X connect 11 3 2 0;
#X connect 12 0 5 0;
#X restore 512 383 pd config;
#X msg 144 227 read \$5/\$4/loop\$2_\$3.wav \$1_loop0;
#X msg 480 142 read \$1 \$2_loop0;
#X obj 541 16 r \$1_\$2_loop_open_browser;
#X connect 0 0 15 0;
#X connect 1 0 2 0;
#X connect 2 0 27 0;
#X connect 3 0 16 0;
#X connect 4 0 5 0;
#X connect 5 0 34 0;
#X connect 6 0 4 0;
#X connect 7 0 6 0;
#X connect 8 0 5 0;
#X connect 11 1 26 3;
#X connect 12 0 14 0;
#X connect 14 0 16 0;
#X connect 15 1 17 0;
#X connect 16 0 28 0;
#X connect 17 0 1 0;
#X connect 18 0 23 0;
#X connect 19 0 20 0;
#X connect 20 0 21 0;
#X connect 21 0 32 0;
#X connect 23 1 19 0;
#X connect 26 0 33 0;
#X connect 28 0 26 0;
#X connect 28 1 29 0;
#X connect 28 2 11 2;
#X connect 29 0 25 0;
#X connect 30 0 26 4;
#X connect 31 0 30 0;
#X connect 33 0 0 0;
#X connect 34 0 18 0;
#X connect 35 0 6 0;
#X restore -7 190 pd open;
#X obj -7 168 bng 15 250 50 0 empty empty empty 17 7 0 10 -262144 -1
-1;
#X obj 31 169 bng 15 250 50 0 empty empty empty 17 7 0 10 -262144 -1
-1;
#X obj -177 168 declare -path ../;
#N canvas 2007 312 763 409 manage_global 0;
#X obj 47 132 hradio 15 1 0 8 empty empty empty 0 -8 0 10 -262144 -1
-1 0;
#X obj 14 161 extra/sv \$1_\$2_looper_slice;
#X obj 68 38 extra/sv module_selected;
#X obj 68 61 == \$1;
#X obj 35 88 spigot;
#X obj 35 18 extra/sv global_breakbeat_slice;
#X obj 194 140 hradio 15 1 0 8 empty empty empty 0 -8 0 10 -262144
-1 -1 4;
#X text 204 107 set the start of reading;
#X obj 195 164 extra/sv \$1_\$2_looper_start;
#X obj 286 81 spigot;
#X obj 286 11 extra/sv global_breakbeat_start;
#X obj 507 84 spigot;
#X obj 507 14 extra/sv global_rec;
#X obj 446 160 extra/sv \$1_\$2_loop_recbutton;
#X obj 72 275 spigot;
#X obj 72 205 extra/sv global_play;
#X obj 13 301 extra/sv \$1_\$2_loop_playbutton;
#X obj 278 275 spigot;
#X obj 278 205 extra/sv global_volume;
#X floatatom 404 301 5 0 0 0 - - -;
#X obj 219 301 extra/sv \$1_\$2_looper_volume;
#X text 512 326 Invert reading;
#X obj 517 348 extra/sv \$1_\$2_looper_inverse;
#X obj 489 280 spigot;
#X obj 489 210 extra/sv global_breakbeat_inverse;
#X obj 489 303 sel 0;
#X connect 0 0 1 1;
#X connect 2 0 3 0;
#X connect 3 0 4 1;
#X connect 3 0 9 1;
#X connect 3 0 11 1;
#X connect 3 0 14 1;
#X connect 3 0 17 1;
#X connect 3 0 23 1;
#X connect 4 0 0 0;
#X connect 5 0 4 0;
#X connect 6 0 8 1;
#X connect 9 0 6 0;
#X connect 10 0 9 0;
#X connect 11 0 13 1;
#X connect 12 0 11 0;
#X connect 14 0 16 1;
#X connect 15 0 14 0;
#X connect 17 0 19 0;
#X connect 17 0 20 1;
#X connect 18 0 17 0;
#X connect 23 0 25 0;
#X connect 24 0 23 0;
#X connect 25 1 22 0;
#X restore -107 148 pd manage_global;
#X text -163 237 \$1 : index of the column;
#X text -164 261 \$2 : index of the raw;
#X text -165 282 \$3 : index of rampgenerator;
#X text -121 296 1 . Line;
#X text -66 296 2 Breakbeat;
#X text -166 317 \$4 : timecompression;
#X text -123 331 0 . No;
#X text -75 333 1 . Yes;
#X text -163 357 \$5 : manage the Recording;
#X text -164 398 \$6 : manage the Playing;
#X text -126 374 1 . Classic;
#X text -48 374 2 No Overdub;
#X text -162 419 \$7 : sampler;
#X text -124 435 0 . No;
#X text -77 436 1 . Yes;
#N canvas 557 41 496 329 switch_array 0;
#X obj 150 200 pack 0 \$0;
#X obj 150 158 tgl 15 0 empty empty empty 17 7 0 10 -262144 -1 -1 1
1;
#X msg 150 221 set \$2_loop\$1;
#X obj 153 112 extra/sv \$1_\$2_looper_arrayindex;
#X obj 252 175 == 0;
#X obj 251 201 pack 0 \$0;
#X msg 251 222 set \$2_loop\$1;
#X obj 199 153 bng 15 250 50 0 empty empty empty 17 7 0 10 -262144
-1 -1;
#X obj 251 272 s \$0_arrayindexplay;
#X obj 150 246 s \$0_arrayindexrec;
#X obj 153 44 bng 15 250 50 0 empty empty empty 17 7 0 10 -262144 -1
-1;
#X obj 153 23 r \$1_\$2_loop_undo;
#X obj 192 85 s \$1_\$2_loop_undo_ui;
#X obj 192 60 delay 400;
#X obj 264 246 s \$0_index_save;
#X obj 92 23 inlet;
#X obj 83 293 outlet;
#X connect 0 0 2 0;
#X connect 1 0 0 0;
#X connect 1 0 4 0;
#X connect 1 0 16 0;
#X connect 2 0 9 0;
#X connect 3 0 1 0;
#X connect 3 0 7 0;
#X connect 4 0 5 0;
#X connect 4 0 14 0;
#X connect 5 0 6 0;
#X connect 6 0 8 0;
#X connect 10 0 3 0;
#X connect 10 0 13 0;
#X connect 11 0 10 0;
#X connect 13 0 12 0;
#X connect 15 0 3 0;
#X restore 461 649 pd switch_array;
#X text -161 296 0 . No;
#X text -24 436 2 Toogle;
#X obj 884 644 sampler_rampgenerator_\$7 \$1 \$2;
#X obj 1132 297 r \$1_\$2_loop_size;
#X obj 661 721 timecompression_\$4 \$1 \$2;
#X obj 660 596 rampgenerator_\$3 \$1 \$2;
#X text 706 545 Loop start here;
#X text 720 502 manage cycle;
#X obj 1437 797 extra/sv \$1_\$2_looper_inverse;
#X obj 1434 823 extra/sv \$1_\$2_looper_slice;
#X obj 1435 852 extra/sv \$1_\$2_looper_start;
#X msg 1429 762 0;
#X text 1487 772 Breakbeat mode;
#X obj -137 497 r \$1_\$2_realstart_first;
#X obj 149 497 r \$1_\$2_realstart_first_with_tempo;
#X obj 455 493 r \$1_\$2_realstart_overdub;
#X obj 728 566 s \$1_\$2_loop_start;
#X obj 384 263 r \$1_\$2_loop_play;
#X obj 169 400 managerecording_\$5 \$1 \$2;
#X obj 660 542 t b b b;
#X obj 483 671 tgl 15 0 empty empty empty 17 7 0 10 -262144 -1 -1 1
1;
#X obj 1536 750 s \$1_\$2_realstart_overdub;
#X connect 1 0 23 0;
#X connect 3 0 25 0;
#X connect 4 0 6 0;
#X connect 4 0 95 0;
#X connect 6 0 82 0;
#X connect 7 0 82 1;
#X connect 8 0 95 0;
#X connect 9 0 113 0;
#X connect 11 0 14 1;
#X connect 11 0 94 0;
#X connect 12 0 13 0;
#X connect 13 0 94 0;
#X connect 16 0 127 0;
#X connect 17 0 3 0;
#X connect 18 0 4 0;
#X connect 19 0 18 0;
#X connect 19 1 17 0;
#X connect 23 1 30 0;
#X connect 25 0 7 0;
#X connect 25 1 26 0;
#X connect 25 2 95 0;
#X connect 26 0 28 1;
#X connect 27 0 68 0;
#X connect 30 0 179 0;
#X connect 31 0 69 0;
#X connect 33 0 84 0;
#X connect 34 0 37 0;
#X connect 34 0 117 0;
#X connect 36 0 38 1;
#X connect 36 0 86 1;
#X connect 36 0 90 1;
#X connect 36 0 89 1;
#X connect 40 1 41 0;
#X connect 40 2 42 0;
#X connect 40 3 43 0;
#X connect 45 0 54 0;
#X connect 46 0 48 0;
#X connect 46 0 96 0;
#X connect 48 0 81 0;
#X connect 49 0 81 1;
#X connect 50 0 96 0;
#X connect 51 0 45 0;
#X connect 52 0 46 0;
#X connect 53 0 52 0;
#X connect 53 1 51 0;
#X connect 54 0 55 0;
#X connect 54 1 49 0;
#X connect 54 2 96 0;
#X connect 55 0 56 1;
#X connect 57 0 58 0;
#X connect 57 1 59 0;
#X connect 58 0 110 0;
#X connect 59 0 11 0;
#X connect 60 0 61 1;
#X connect 61 0 111 0;
#X connect 62 0 94 0;
#X connect 63 0 94 0;
#X connect 64 0 22 0;
#X connect 65 0 67 0;
#X connect 70 0 73 0;
#X connect 71 0 74 0;
#X connect 72 0 75 0;
#X connect 76 0 77 0;
#X connect 78 0 180 0;
#X connect 79 0 78 0;
#X connect 80 0 33 0;
#X connect 84 0 35 0;
#X connect 84 1 116 0;
#X connect 84 2 34 0;
#X connect 84 3 85 0;
#X connect 84 4 36 0;
#X connect 85 0 83 0;
#X connect 87 0 23 0;
#X connect 88 0 127 0;
#X connect 97 0 119 0;
#X connect 99 0 100 0;
#X connect 99 0 103 0;
#X connect 99 0 105 0;
#X connect 102 0 101 0;
#X connect 102 0 104 0;
#X connect 102 0 106 0;
#X connect 107 0 131 0;
#X connect 108 0 94 0;
#X connect 110 0 14 0;
#X connect 110 0 94 0;
#X connect 111 0 62 0;
#X connect 111 1 160 0;
#X connect 111 2 63 0;
#X connect 112 0 114 0;
#X connect 113 0 92 0;
#X connect 116 0 109 1;
#X connect 116 0 172 0;
#X connect 117 0 91 1;
#X connect 117 0 182 0;
#X connect 121 0 124 0;
#X connect 122 0 125 0;
#X connect 123 0 126 0;
#X connect 127 0 132 0;
#X connect 127 0 133 0;
#X connect 127 1 128 0;
#X connect 130 0 40 0;
#X connect 131 0 134 0;
#X connect 133 0 76 0;
#X connect 133 1 112 0;
#X connect 134 0 165 0;
#X connect 135 0 165 1;
#X connect 139 0 138 0;
#X connect 141 0 140 0;
#X connect 142 0 140 1;
#X connect 160 0 181 0;
#X connect 163 0 131 0;
#X connect 164 0 66 0;
#X connect 165 0 13 1;
#X connect 165 0 130 0;
#X connect 166 0 118 0;
#X connect 166 0 131 0;
#X connect 172 0 169 1;
#X connect 172 0 170 1;
#X connect 172 0 171 1;
#X connect 174 0 53 0;
#X connect 175 0 19 0;
#X connect 176 0 57 0;
#X connect 176 0 60 0;
#X connect 178 0 76 0;
#X connect 180 0 166 0;
#X connect 180 1 177 0;
#X connect 180 2 61 0;
