#N canvas 1440 32 949 642 10;
#X declare -path ../;
#X obj -44 20 cnv 15 1200 70 empty empty FROM::INLET 20 12 0 14 -204217
-66577 0;
#X obj 142 35 inlet;
#X obj 101 465 cnv 15 280 350 empty empty write_first_loop_with_tempo
20 12 0 9 -212539 -66577 0;
#X msg 184 571 stop;
#X msg 128 595 start;
#X text 118 730 TEMPO;
#X obj 109 687 bng 15 250 50 0 empty empty empty 17 7 0 10 -262144
-1 -1;
#X obj 184 687 bng 15 250 50 0 empty empty empty 17 7 0 10 -262144
-1 -1;
#X obj 244 646 r~ \$0-input;
#X obj 68 35 inlet~;
#X obj 388 465 cnv 15 210 350 empty empty write_other_loop 20 12 0
9 -204217 -66577 0;
#X msg 453 647 stop;
#X obj 541 694 r~ \$0-input;
#X obj 507 737 +~;
#N canvas 97 110 450 300 ui 0;
#X obj 126 93 inlet;
#X obj 174 92 inlet;
#X obj 126 120 bang;
#X obj 174 120 bang;
#X msg 126 174 1;
#X msg 174 175 0;
#X obj 66 229 extra/sv \$1_\$2_is_loop_recording;
#X connect 0 0 2 0;
#X connect 1 0 3 0;
#X connect 2 0 4 0;
#X connect 3 0 5 0;
#X connect 4 0 6 1;
#X connect 5 0 6 1;
#X restore 398 759 pd ui;
#X obj 455 493 r \$0_realstart_overdub;
#X obj 639 467 cnv 15 210 350 empty empty play! 20 12 0 9 -204217 -66577
0;
#X obj 518 44 inlet;
#X obj 184 549 bng 15 250 50 0 empty empty empty 17 7 0 10 -262144
-1 -1;
#X obj 129 550 bng 15 250 50 0 empty empty empty 17 7 0 10 -262144
-1 -1;
#X obj 660 587 bng 15 250 50 0 empty empty empty 17 7 0 10 -262144
-1 -1;
#X obj 149 520 sel 1 0;
#N canvas 26 78 568 276 manageRecording 0;
#X obj 208 7 inlet;
#X obj 208 30 bang;
#N canvas 495 167 450 300 classic 0;
#X obj 655 483 s \$0_realstart_overdub;
#X obj 401 7 inlet;
#X obj 404 128 bng 40 1000 500 0 empty empty empty 17 7 0 10 -4034
-1 -1;
#X obj 326 93 tgl 15 0 empty empty empty 17 7 0 10 -262144 -1 -1 0
1;
#X obj 279 76 extra/sv \$1_\$2_is_loop_recorded;
#X obj 276 128 bng 40 1000 500 0 empty empty empty 17 7 0 10 -258113
-1 -1;
#X text 255 127 NO;
#X text 449 128 YES;
#X obj 114 210 extra/sv tempo_isplaying;
#X obj 401 50 bang;
#X obj 326 111 sel 0 1;
#X obj 214 263 bng 40 1000 500 0 empty empty empty 17 7 0 10 -4034
-1 -1;
#X obj 86 263 bng 40 1000 500 0 empty empty empty 17 7 0 10 -258113
-1 -1;
#X text 62 262 NO;
#X text 255 266 YES;
#X obj 153 246 sel 0 1;
#X obj -40 317 extra/sv \$1_\$2_is_loop_recording;
#X obj 37 342 sel 0 1;
#X obj -35 436 s \$0_realstart_first;
#X msg -35 406 1;
#X msg 21 407 0;
#X text 79 405 start loop auto;
#X obj 200 317 extra/sv \$1_\$2_is_loop_recording;
#X obj 345 342 sel 0 1;
#X obj 165 455 s \$0_realstart_first_with_tempo;
#X obj 200 343 r tempo_quantif_bang;
#X msg 258 396 -1;
#X obj 200 396 i -1;
#X msg 297 363 1;
#X msg 337 363 0;
#X obj -38 474 bng 40 1000 500 0 empty empty 1 17 7 0 10 -258113 -1
-1;
#X obj 12 474 bng 40 1000 500 0 empty empty 0 17 7 0 10 -4034 -1 -1
;
#X obj 200 474 bng 40 1000 500 0 empty empty 1 17 7 0 10 -258113 -1
-1;
#X obj 250 474 bng 40 1000 500 0 empty empty 0 17 7 0 10 -4034 -1 -1
;
#X obj 210 432 sel 1 0;
#X obj 490 215 extra/sv \$1_\$2_is_loop_playing;
#X obj 625 258 bng 40 1000 500 0 empty empty empty 17 7 0 10 -4034
-1 -1;
#X obj 497 258 bng 40 1000 500 0 empty empty empty 17 7 0 10 -258113
-1 -1;
#X text 473 257 NO;
#X text 666 261 YES;
#X obj 564 241 sel 0 1;
#X obj 627 344 r \$0_loop_start;
#X msg 667 380 -1;
#X obj 621 381 i -1;
#X obj 620 317 extra/sv \$1_\$2_is_loop_recording;
#X obj 735 342 sel 0 1;
#X msg 711 364 1;
#X msg 750 364 0;
#X obj 625 420 sel 1 0;
#X obj 613 524 bng 40 1000 500 0 empty empty 1 17 7 0 10 -258113 -1
-1;
#X obj 663 524 bng 40 1000 500 0 empty empty 0 17 7 0 10 -4034 -1 -1
;
#X obj 69 385 bng 15 250 50 0 empty empty empty 17 7 0 10 -262144 -1
-1;
#X obj 280 427 extra/sv \$1_\$2_is_loop_waitforrec;
#X msg 345 406 1;
#X obj 167 434 sel -1;
#X obj 580 420 sel -1;
#X obj 735 436 extra/sv \$1_\$2_is_loop_waitforrec;
#X msg 798 401 1;
#X text 786 367 Squeeze the wait for rec process;
#X obj 635 442 t f b;
#X obj 382 368 s \$0_loop_play;
#X connect 1 0 9 0;
#X connect 2 0 35 2;
#X connect 3 0 10 0;
#X connect 4 1 3 0;
#X connect 5 0 8 2;
#X connect 8 1 15 0;
#X connect 9 0 4 2;
#X connect 10 0 5 0;
#X connect 10 1 2 0;
#X connect 11 0 22 2;
#X connect 12 0 16 2;
#X connect 15 0 12 0;
#X connect 15 1 11 0;
#X connect 16 1 17 0;
#X connect 17 0 19 0;
#X connect 17 1 20 0;
#X connect 17 1 51 0;
#X connect 19 0 18 0;
#X connect 19 0 30 0;
#X connect 20 0 18 0;
#X connect 20 0 31 0;
#X connect 22 1 23 0;
#X connect 22 1 53 0;
#X connect 23 0 28 0;
#X connect 23 1 29 0;
#X connect 23 1 60 0;
#X connect 25 0 27 0;
#X connect 26 0 27 1;
#X connect 27 0 26 0;
#X connect 27 0 34 0;
#X connect 27 0 54 0;
#X connect 28 0 27 1;
#X connect 29 0 27 1;
#X connect 34 0 32 0;
#X connect 34 1 33 0;
#X connect 35 1 40 0;
#X connect 36 0 44 2;
#X connect 40 0 37 0;
#X connect 40 1 36 0;
#X connect 41 0 43 0;
#X connect 42 0 43 1;
#X connect 43 0 42 0;
#X connect 43 0 48 0;
#X connect 43 0 55 0;
#X connect 44 1 45 0;
#X connect 44 1 57 0;
#X connect 45 0 46 0;
#X connect 45 1 47 0;
#X connect 46 0 43 1;
#X connect 47 0 43 1;
#X connect 48 0 49 0;
#X connect 48 1 50 0;
#X connect 53 0 52 1;
#X connect 54 1 24 0;
#X connect 55 1 59 0;
#X connect 57 0 56 1;
#X connect 59 0 0 0;
#X restore 109 150 pd classic;
#X obj 208 50 i \$3;
#X obj 208 93 sel 1 2 3;
#N canvas 495 167 658 572 breakbeat 0;
#X obj 401 7 inlet;
#X obj 404 128 bng 40 1000 500 0 empty empty empty 17 7 0 10 -4034
-1 -1;
#X obj 326 93 tgl 15 0 empty empty empty 17 7 0 10 -262144 -1 -1 0
1;
#X obj 279 76 extra/sv \$1_\$2_is_loop_recorded;
#X obj 276 128 bng 40 1000 500 0 empty empty empty 17 7 0 10 -258113
-1 -1;
#X text 255 127 NO;
#X text 449 128 YES;
#X obj 114 210 extra/sv tempo_isplaying;
#X obj 401 50 bang;
#X obj 326 111 sel 0 1;
#X obj 214 263 bng 40 1000 500 0 empty empty empty 17 7 0 10 -4034
-1 -1;
#X obj 86 263 bng 40 1000 500 0 empty empty empty 17 7 0 10 -258113
-1 -1;
#X text 62 262 NO;
#X text 255 266 YES;
#X obj 153 246 sel 0 1;
#X obj -40 317 extra/sv \$1_\$2_is_loop_recording;
#X obj 37 342 sel 0 1;
#X obj -35 436 s \$0_realstart_first;
#X msg -35 406 1;
#X msg 21 407 0;
#X text 79 405 start loop auto;
#X obj 200 317 extra/sv \$1_\$2_is_loop_recording;
#X obj 345 342 sel 0 1;
#X obj 165 455 s \$0_realstart_first_with_tempo;
#X obj 200 343 r tempo_quantif_bang;
#X msg 258 396 -1;
#X obj 200 396 i -1;
#X msg 297 363 1;
#X msg 337 363 0;
#X obj -38 474 bng 40 1000 500 0 empty empty 1 17 7 0 10 -258113 -1
-1;
#X obj 12 474 bng 40 1000 500 0 empty empty 0 17 7 0 10 -4034 -1 -1
;
#X obj 200 474 bng 40 1000 500 0 empty empty 1 17 7 0 10 -258113 -1
-1;
#X obj 250 474 bng 40 1000 500 0 empty empty 0 17 7 0 10 -4034 -1 -1
;
#X obj 210 432 sel 1 0;
#X obj 69 385 bng 15 250 50 0 empty empty empty 17 7 0 10 -262144 -1
-1;
#X obj 280 427 extra/sv \$1_\$2_is_loop_waitforrec;
#X msg 345 406 1;
#X obj 167 434 sel -1;
#X obj 382 368 s \$0_loop_play;
#X connect 0 0 8 0;
#X connect 2 0 9 0;
#X connect 3 1 2 0;
#X connect 4 0 7 2;
#X connect 7 1 14 0;
#X connect 8 0 3 2;
#X connect 9 0 4 0;
#X connect 9 1 1 0;
#X connect 10 0 21 2;
#X connect 11 0 15 2;
#X connect 14 0 11 0;
#X connect 14 1 10 0;
#X connect 15 1 16 0;
#X connect 16 0 18 0;
#X connect 16 1 19 0;
#X connect 16 1 34 0;
#X connect 18 0 17 0;
#X connect 18 0 29 0;
#X connect 19 0 17 0;
#X connect 19 0 30 0;
#X connect 21 1 22 0;
#X connect 21 1 36 0;
#X connect 22 0 27 0;
#X connect 22 1 28 0;
#X connect 22 1 38 0;
#X connect 24 0 26 0;
#X connect 25 0 26 1;
#X connect 26 0 25 0;
#X connect 26 0 33 0;
#X connect 26 0 37 0;
#X connect 27 0 26 1;
#X connect 28 0 26 1;
#X connect 33 0 31 0;
#X connect 33 1 32 0;
#X connect 36 0 35 1;
#X connect 37 1 23 0;
#X restore 199 150 pd breakbeat;
#X text 313 19 Manage action on play button;
#X text 315 39 according to the 3rd arg aka mode arg;
#X text 317 72 1 Classic;
#X text 337 92 overdub;
#X text 315 112 2 breakbeat;
#X text 338 130 no overdub;
#X text 313 152 3 Sampler;
#X text 336 170 countdown \, size fixed ?;
#X connect 0 0 1 0;
#X connect 1 0 3 0;
#X connect 3 0 4 0;
#X connect 4 0 2 0;
#X connect 4 1 5 0;
#X restore 169 400 pd manageRecording;
#X obj 821 155 cnv 15 430 260 empty empty Control_panel 20 12 0 14
-237308 -66577 0;
#N canvas 545 163 595 445 (subpatch) 0;
#X array \$0_loop1 1.2e+06 float 0;
#X coords 0 -1 1.2e+06 1 200 30 1 0 0;
#X restore 1039 395 graph;
#N canvas 14 66 1009 300 init 0;
#X floatatom 279 45 4 0 100 0 - - -;
#X obj 279 65 * 0.001;
#X text 314 45 msec;
#X obj 279 -9 bang;
#X obj 279 -39 loadbang;
#X obj 279 88 s \$0_chunk-size;
#X obj 10 46 pack \$0;
#X obj 391 -21 delay 200;
#X msg 600 -20 0;
#X msg 279 23 25;
#X msg 422 37 0;
#X obj 148 88 i 0;
#X obj 184 2 t b b;
#X text 584 18 manque le slider;
#X obj 419 199 extra/svsave \$1_\$2_looper_volume;
#X obj 420 156 extra/svsave \$1_\$2_looper_sendA;
#X obj 420 176 extra/svsave \$1_\$2_looper_sendB;
#X msg 148 64 1.2e+06;
#X obj 148 136 array size \$0_loop1;
#X obj 148 112 array size \$0_loop0;
#X msg 10 68 \; \$1_loop0 const 0;
#X msg 10 110 \; \$1_loop1 const 0;
#X obj 642 129 extra/sv \$1_\$2_looper_arrayindex;
#X obj 642 18 extra/svosc \$1_\$2_is_loop_recording;
#X obj 642 47 extra/svosc \$1_\$2_is_loop_playing;
#X obj 642 76 extra/svosc \$1_\$2_is_loop_waitforrec;
#X obj 641 105 extra/svosc \$1_\$2_is_loop_waitforplay;
#X obj 420 114 extra/svosc \$1_\$2_loop_recbutton;
#X obj 420 136 extra/svosc \$1_\$2_loop_playbutton;
#X obj 424 88 extra/svosc \$1_\$2_is_loop_recorded;
#X obj 918 15 extra/sv \$1_\$2_looper_inverse;
#X obj 915 41 extra/sv \$1_\$2_looper_slice;
#X obj 916 70 extra/sv \$1_\$2_looper_start;
#X msg 910 -20 0;
#X text 968 -10 Breakbeat mode;
#X connect 0 0 1 0;
#X connect 1 0 5 0;
#X connect 3 0 9 0;
#X connect 4 0 3 0;
#X connect 4 0 7 0;
#X connect 4 0 8 0;
#X connect 4 0 12 0;
#X connect 4 0 33 0;
#X connect 6 0 21 0;
#X connect 7 0 10 0;
#X connect 8 0 22 3;
#X connect 8 0 23 3;
#X connect 8 0 24 3;
#X connect 8 0 25 3;
#X connect 8 0 26 3;
#X connect 9 0 0 0;
#X connect 10 0 29 3;
#X connect 11 0 18 0;
#X connect 11 0 19 0;
#X connect 12 0 6 0;
#X connect 12 1 17 0;
#X connect 17 0 11 0;
#X connect 33 0 30 1;
#X connect 33 0 31 1;
#X connect 33 0 32 1;
#X restore 17 126 pd init;
#X obj 1041 278 hsl 170 15 0 1 0 0 empty empty empty -2 -8 0 10 -262144
-1 -1 1796 1;
#X obj 142 293 sel 0;
#N canvas 441 169 776 489 save 0;
#X obj -565 234 soundfiler;
#X obj 126 17 t b b;
#X obj 126 -17 inlet;
#X obj 26 -8 bang;
#X obj -53 139 i 0;
#X msg 340 286 clear;
#X obj 10 354 textfile;
#X obj -180 208 extra/sv song;
#X obj -236 45 extra/sv \$1_\$2_is_loop_recorded;
#X msg 15 286 add exist \$1;
#X text -208 104 Save info file into text;
#X obj 26 -31 r save_song;
#X obj -76 208 s get_samples_location;
#X obj -475 62 extra/sv song;
#X obj -238 283 pack \$1 \$2 1 s;
#X msg -238 320 write \$4/\$3/loop\$1_\$2_info.txt;
#X obj -438 124 r \$0_timer;
#X obj -438 147 * 44.1;
#X obj 263 228 r \$0_loop_size;
#X obj -53 161 t b b f b b b;
#X obj 225 262 i 0;
#X msg 225 286 add duration \$1;
#X obj 112 262 i 0;
#X obj 150 228 r \$0_loop_tempo;
#X msg 116 283 add tempo \$1;
#X obj -48 185 i \$0;
#X obj -130 252 symbol;
#X obj -445 103 symbol;
#X obj -130 228 r samples_location-\$0;
#X obj -445 82 r samples_location-\$0;
#X obj -565 191 pack \$0 \$1 \$2 1 s 1000 0;
#X msg -565 212 write -wave -nframes \$6 \$5/\$4/loop\$2_\$3.wav \$1_loop\$7
;
#X obj -345 133 r \$0_index_save;
#X connect 1 0 8 2;
#X connect 2 0 1 0;
#X connect 3 0 1 0;
#X connect 4 0 19 0;
#X connect 5 0 6 0;
#X connect 7 0 14 2;
#X connect 8 1 4 0;
#X connect 9 0 6 0;
#X connect 11 0 3 0;
#X connect 13 0 30 3;
#X connect 14 0 15 0;
#X connect 15 0 6 0;
#X connect 16 0 17 0;
#X connect 17 0 30 5;
#X connect 18 0 20 1;
#X connect 19 0 14 0;
#X connect 19 0 30 0;
#X connect 19 1 25 0;
#X connect 19 2 9 0;
#X connect 19 3 22 0;
#X connect 19 4 20 0;
#X connect 19 5 5 0;
#X connect 20 0 21 0;
#X connect 21 0 6 0;
#X connect 22 0 24 0;
#X connect 23 0 22 1;
#X connect 24 0 6 0;
#X connect 25 0 12 0;
#X connect 26 0 14 3;
#X connect 27 0 30 4;
#X connect 28 0 26 0;
#X connect 29 0 27 0;
#X connect 30 0 31 0;
#X connect 31 0 0 0;
#X connect 32 0 30 6;
#X restore 8 288 pd save;
#X obj 8 256 bng 15 250 50 0 empty empty empty 17 7 0 10 -262144 -1
-1;
#N canvas 47 99 670 562 open 0;
#X obj 144 249 soundfiler;
#X obj 176 328 / 44.1;
#X floatatom 176 358 10 0 0 0 - - -;
#X obj 134 2 inlet;
#X obj 480 82 openpanel;
#X obj 480 114 pack s \$0;
#X obj 480 61 bang;
#X obj 480 41 inlet;
#X obj 550 81 r \$1_\$2_loop_open;
#X text 244 3 Open from saved song;
#X text 654 50 open from file;
#X obj 357 168 extra/sv song;
#X obj 43 -4 r loadsong;
#X text 144 445 TODO : save a txt file associated to each samples (
exist ? \, volume \, reversed ? );
#X obj 43 18 bng 15 250 50 0 empty empty empty 17 7 0 10 -262144 -1
-1;
#X obj 144 276 sel 0;
#N canvas 566 153 630 509 checkinfofile 0;
#X obj 157 -16 inlet;
#X obj 259 137 extra/sv song;
#X obj 196 220 textfile;
#X msg 127 138 rewind;
#X obj 88 138 bang;
#X obj 171 12 bng 15 250 50 0 empty empty empty 17 7 0 10 -262144 -1
-1;
#X obj 48 138 bang;
#X obj 8 138 bang;
#X obj 57 310 sel 1 0;
#X obj 80 357 extra/sv \$1_\$2_is_loop_recorded;
#X obj 57 451 outlet;
#X obj 107 34 t b b b b b b b b b;
#X obj 196 160 pack \$1 \$2 1 s;
#X obj 237 78 s get_samples_location;
#X msg 196 185 read \$4/\$3/loop\$1_\$2_info.txt;
#X obj 190 267 route exist tempo duration;
#X obj 309 292 s \$0_loop_size;
#X obj 249 313 s \$0_loop_tempo;
#X obj 70 381 s \$1_\$2_loop_clear;
#X obj 237 57 i \$0;
#X obj 398 137 symbol;
#X obj 398 116 r samples_location-\$0;
#X floatatom 215 329 5 0 0 0 - - -;
#X connect 0 0 5 0;
#X connect 0 0 11 0;
#X connect 1 0 12 2;
#X connect 2 0 15 0;
#X connect 3 0 2 0;
#X connect 4 0 2 0;
#X connect 6 0 2 0;
#X connect 7 0 2 0;
#X connect 8 0 10 0;
#X connect 8 1 18 0;
#X connect 11 2 7 0;
#X connect 11 3 6 0;
#X connect 11 4 4 0;
#X connect 11 5 3 0;
#X connect 11 6 12 0;
#X connect 11 8 19 0;
#X connect 12 0 14 0;
#X connect 14 0 2 0;
#X connect 15 0 8 0;
#X connect 15 0 9 1;
#X connect 15 1 17 0;
#X connect 15 1 22 0;
#X connect 15 2 16 0;
#X connect 19 0 13 0;
#X connect 20 0 12 3;
#X connect 21 0 20 0;
#X restore 141 42 pd checkinfofile;
#X obj 176 302 f 0;
#X obj 480 165 soundfiler;
#X obj 512 293 / 44.1;
#X floatatom 512 317 10 0 0 0 - - -;
#N canvas 337 105 509 628 tempoCalculation 0;
#X obj 135 61 s \$0_timer;
#X floatatom 69 134 5 0 0 0 - - -;
#X obj 42 505 /;
#X obj 123 182 log;
#X obj 123 271 i;
#X obj 123 221 / 0.693147;
#X floatatom 123 248 5 0 0 0 - - -;
#X floatatom 123 302 5 0 0 0 - - -;
#X obj 114 388 pow;
#X msg 102 360 2;
#X floatatom 114 413 5 0 0 0 - - -;
#X obj 115 461 s \$0_loop_size;
#X obj 102 327 t b f;
#X obj 42 68 t f f;
#X obj 69 105 / 380;
#X obj 59 1 inlet;
#X obj 42 545 t b b f;
#X obj 88 581 s \$0_loop_tempo;
#X obj 61 604 s \$0_begin;
#X obj 41 646 outlet;
#X obj 135 24 / 1;
#X connect 1 0 3 0;
#X connect 2 0 16 0;
#X connect 3 0 5 0;
#X connect 4 0 7 0;
#X connect 5 0 6 0;
#X connect 6 0 4 0;
#X connect 7 0 12 0;
#X connect 8 0 10 0;
#X connect 9 0 8 0;
#X connect 10 0 2 1;
#X connect 10 0 11 0;
#X connect 12 0 9 0;
#X connect 12 1 8 1;
#X connect 13 0 2 0;
#X connect 13 1 14 0;
#X connect 14 0 1 0;
#X connect 15 0 13 0;
#X connect 15 0 20 0;
#X connect 16 0 19 0;
#X connect 16 2 17 0;
#X connect 20 0 0 0;
#X restore 512 339 pd tempoCalculation;
#X text 156 22 Be sure there is a loop saved with this looper;
#X obj 480 196 sel 0;
#X text 515 269 From a file \, open the file only;
#X obj 163 122 s get_samples_location;
#X obj 144 201 pack \$0 \$1 \$2 1 s;
#N canvas 88 186 509 452 config 0;
#X obj 59 1 inlet;
#X msg 134 101 1;
#X obj 73 126 extra/sv \$1_\$2_is_loop_recorded;
#X obj 133 46 s \$0_timer;
#X obj 119 169 s \$0_playstop_loop;
#X msg 103 189 0;
#X obj 112 232 extra/sv \$1_\$2_is_loop_waitforrec;
#X obj 113 256 extra/sv \$1_\$2_is_loop_waitforplay;
#X obj 114 308 extra/sv \$1_\$2_is_loop_recording;
#X obj 112 282 s \$0_realstart_overdub;
#X msg 119 147 0;
#X obj 59 82 t b b b b b b;
#X msg 54 188 1;
#X obj 20 354 extra/sv \$1_\$2_looper_arrayindex;
#X obj 114 332 extra/sv \$1_\$2_is_loop_playing;
#X obj 334 228 extra/sv \$1_\$2_looper_inverse;
#X obj 333 274 extra/sv \$1_\$2_looper_slice;
#X obj 333 316 extra/sv \$1_\$2_looper_start;
#X connect 0 0 3 0;
#X connect 0 0 11 0;
#X connect 1 0 2 1;
#X connect 5 0 6 1;
#X connect 5 0 7 1;
#X connect 5 0 8 1;
#X connect 5 0 9 0;
#X connect 5 0 14 1;
#X connect 5 0 15 1;
#X connect 5 0 16 1;
#X connect 5 0 17 1;
#X connect 10 0 4 0;
#X connect 11 2 12 0;
#X connect 11 3 5 0;
#X connect 11 4 10 0;
#X connect 11 5 1 0;
#X connect 12 0 13 1;
#X restore 176 399 pd config;
#X obj 144 75 t b b b b;
#X obj 164 98 i \$0;
#X obj 260 167 symbol;
#X obj 260 141 r samples_location-\$0;
#N canvas 390 171 509 452 config 0;
#X obj 59 1 inlet;
#X obj 78 148 s \$0_begin;
#X msg 46 147 1;
#X obj 40 182 extra/sv \$1_\$2_is_loop_recorded;
#X text 152 152 Toujours d'actualité?;
#X obj -100 176 s \$0_playstop_loop;
#X msg -146 172 0;
#X obj -137 215 extra/sv \$1_\$2_is_loop_waitforrec;
#X obj -125 239 extra/sv \$1_\$2_is_loop_waitforplay;
#X obj -128 291 extra/sv \$1_\$2_is_loop_recording;
#X obj -130 267 s \$0_realstart_overdub;
#X obj 59 82 t b b b b b f;
#X msg -39 154 0;
#X connect 0 0 11 0;
#X connect 2 0 3 1;
#X connect 6 0 7 1;
#X connect 6 0 8 1;
#X connect 6 0 9 1;
#X connect 6 0 10 0;
#X connect 11 0 6 0;
#X connect 11 1 12 0;
#X connect 11 3 2 0;
#X connect 12 0 5 0;
#X restore 512 383 pd config;
#X msg 144 227 read \$5/\$4/loop\$2_\$3.wav \$1_loop0;
#X msg 480 142 read \$1 \$2_loop0;
#X obj 541 16 r \$1_\$2_loop_open_browser;
#X connect 0 0 15 0;
#X connect 1 0 2 0;
#X connect 2 0 27 0;
#X connect 3 0 16 0;
#X connect 4 0 5 0;
#X connect 5 0 34 0;
#X connect 6 0 4 0;
#X connect 7 0 6 0;
#X connect 8 0 5 0;
#X connect 11 1 26 3;
#X connect 12 0 14 0;
#X connect 14 0 16 0;
#X connect 15 1 17 0;
#X connect 16 0 28 0;
#X connect 17 0 1 0;
#X connect 18 0 23 0;
#X connect 19 0 20 0;
#X connect 20 0 21 0;
#X connect 21 0 32 0;
#X connect 23 1 19 0;
#X connect 26 0 33 0;
#X connect 28 0 26 0;
#X connect 28 1 29 0;
#X connect 28 2 11 2;
#X connect 29 0 25 0;
#X connect 30 0 26 4;
#X connect 31 0 30 0;
#X connect 33 0 0 0;
#X connect 34 0 18 0;
#X connect 35 0 6 0;
#X restore 9 335 pd open;
#X obj 9 313 bng 15 250 50 0 empty empty empty 17 7 0 10 -262144 -1
-1;
#X text 555 249 clear_with_longpress;
#X obj 184 591 t b b a;
#X obj 47 314 bng 15 250 50 0 empty empty empty 17 7 0 10 -262144 -1
-1;
#X msg 203 747 1;
#X obj 825 181 extra/sv \$1_\$2_is_loop_waitforrec;
#X obj 142 786 extra/sv \$1_\$2_is_loop_recorded;
#X obj 1305 465 cnv 15 400 350 empty empty CLEAR 20 12 0 9 -204217
-66577 0;
#X obj 169 327 bng 35 250 50 0 empty empty rec 11 7 0 10 -258113 -1
-1;
#X obj 826 259 extra/sv \$1_\$2_is_loop_recorded;
#X obj 863 467 cnv 15 210 350 empty empty ARRAY_INDEX 20 12 0 9 -204217
-66577 0;
#X obj 1401 486 bng 15 250 50 0 empty empty empty 17 7 0 10 -258113
-1 -1;
#X obj 1432 649 delay 1000;
#X obj 1323 801 outlet;
#X msg 1463 526 0;
#X obj 1432 674 s \$1_\$2_recloop_deleted_ui;
#X obj 1487 552 extra/sv \$1_\$2_is_loop_recorded;
#X text 209 229 record;
#X obj 230 143 extra/sv module_selected;
#X obj 230 166 == \$1;
#X obj 197 193 spigot;
#X obj 197 123 extra/sv global_rec;
#X obj 615 140 extra/sv module_selected;
#X obj 615 163 == \$1;
#X obj 582 190 spigot;
#X obj 582 120 extra/sv global_play;
#X obj 1 154 declare -path ../;
#X obj 662 802 mixer \$1_\$2_looper;
#X obj 693 848 outlet~;
#X obj 743 848 outlet~;
#X obj 793 845 outlet~;
#X obj -186 465 cnv 15 280 350 empty empty write_first_loop 20 12 0
9 -212539 -66577 0;
#X msg -103 571 stop;
#X msg -157 592 start;
#X text -169 730 TEMPO;
#X obj -178 687 bng 15 250 50 0 empty empty empty 17 7 0 10 -262144
-1 -1;
#X obj -84 688 bng 15 250 50 0 empty empty empty 17 7 0 10 -262144
-1 -1;
#X obj -19 620 r~ \$0-input;
#X obj -137 497 r \$0_realstart_first;
#X obj -103 549 bng 15 250 50 0 empty empty empty 17 7 0 10 -262144
-1 -1;
#X obj -158 550 bng 15 250 50 0 empty empty empty 17 7 0 10 -262144
-1 -1;
#X obj -138 520 sel 1 0;
#X obj -103 591 t b b a;
#X msg -106 747 1;
#X obj -167 786 extra/sv \$1_\$2_is_loop_recorded;
#X obj 149 497 r \$0_realstart_first_with_tempo;
#X obj 455 515 sel 1 0;
#X obj 394 553 bng 15 250 50 0 empty empty empty 17 7 0 10 -262144
-1 -1;
#X obj 442 553 bng 15 250 50 0 empty empty empty 17 7 0 10 -262144
-1 -1;
#X obj 581 551 tgl 15 0 empty empty empty 17 7 0 10 -262144 -1 -1 0
1;
#X obj 469 551 r \$0_loop_start;
#X obj 542 584 spigot;
#X msg 510 647 start;
#X msg 558 647 stop;
#X obj 1038 258 extra/sv \$1_\$2_recloop_slider;
#X obj 1441 694 r bigReset;
#X obj 1441 715 t b b;
#X obj 1133 297 r \$0_loop_size;
#X obj 1036 298 r \$0_loop_tempo;
#X floatatom 1133 319 5 0 0 0 - - -;
#X floatatom 1036 321 5 0 0 0 - - -;
#X floatatom 825 202 5 0 0 0 - - -;
#X floatatom 826 283 5 0 0 0 - - -;
#X obj 825 219 extra/sv \$1_\$2_is_loop_recording;
#X obj 825 301 extra/sv \$1_\$2_is_loop_playing;
#X obj 824 342 extra/sv \$1_\$2_is_loop_waitforplay;
#X floatatom 825 241 5 0 0 0 - - -;
#X floatatom 825 323 5 0 0 0 - - -;
#X floatatom 824 363 5 0 0 0 - - -;
#X obj 520 334 bng 35 250 50 0 empty empty play 11 7 0 10 -4034 -1
-1;
#N canvas 271 74 923 612 managePlaying 0;
#X obj 400 7 inlet;
#X text 860 361 YES;
#X obj 400 37 bang;
#X obj 393 160 bng 40 1000 500 0 empty empty empty 17 7 0 10 -4034
-1 -1;
#X obj 323 125 tgl 15 0 empty empty empty 17 7 0 10 -262144 -1 -1 1
1;
#X obj 276 108 extra/sv \$1_\$2_is_loop_recorded;
#X obj 273 160 bng 40 1000 500 0 empty empty empty 17 7 0 10 -258113
-1 -1;
#X text 380 281 NO;
#X text 446 160 YES;
#X obj 323 143 sel 0 1;
#X obj 681 347 extra/sv \$1_\$2_is_loop_playing;
#X obj 816 390 bng 40 1000 500 0 empty empty empty 17 7 0 10 -4034
-1 -1;
#X obj 688 390 bng 40 1000 500 0 empty empty empty 17 7 0 10 -258113
-1 -1;
#X text 664 389 NO;
#X obj 755 373 sel 0 1;
#X obj 531 280 bng 40 1000 500 0 empty empty empty 17 7 0 10 -4034
-1 -1;
#X obj 404 280 bng 40 1000 500 0 empty empty empty 17 7 0 10 -258113
-1 -1;
#X text 572 283 YES;
#X obj 470 263 sel 0 1;
#X obj 403 231 extra/sv tempo_isplaying;
#X text 252 159 NO;
#X text 401 327 start ?;
#X text 861 416 stop loop;
#X obj 539 430 r tempo_quantif_bang;
#X msg 726 457 -1;
#X obj 668 457 i -1;
#X msg 689 432 1;
#X obj 668 542 s \$0_playstop_loop;
#X msg 815 433 0;
#X obj 886 512 extra/sv \$1_\$2_is_loop_waitforplay;
#X text 90 281 NO;
#X obj 222 288 bng 40 1000 500 0 empty empty empty 17 7 0 10 -4034
-1 -1;
#X obj 98 291 bng 40 1000 500 0 empty empty empty 17 7 0 10 -258113
-1 -1;
#X text 282 283 YES;
#X obj 180 263 sel 0 1;
#X obj 113 231 extra/sv \$1_\$2_is_loop_recording;
#X obj 190 509 r tempo_quantif_bang;
#X msg 360 536 -1;
#X obj 302 536 i -1;
#X msg 323 511 1;
#X obj 302 641 s \$0_playstop_loop;
#X msg 302 608 1;
#X obj 668 481 sel -1;
#X obj 302 574 sel -1;
#X text 140 421 NO;
#X obj 211 420 bng 40 1000 500 0 empty empty empty 17 7 0 10 -4034
-1 -1;
#X obj 84 420 bng 40 1000 500 0 empty empty empty 17 7 0 10 -258113
-1 -1;
#X text 332 423 YES;
#X obj 195 395 sel 0 1;
#X obj 130 372 extra/sv tempo_isplaying;
#X obj 66 513 s \$0_playstop_loop;
#X msg 66 480 1;
#X obj 405 344 t b b;
#X msg 432 369 1;
#X obj 432 396 s \$0_playstop_loop;
#X obj 397 413 s tempoGoIn;
#X text 861 436 afer quantif;
#X msg 952 482 1;
#X connect 0 0 2 0;
#X connect 2 0 5 2;
#X connect 3 0 19 2;
#X connect 4 0 9 0;
#X connect 5 1 4 0;
#X connect 6 0 35 2;
#X connect 9 0 6 0;
#X connect 9 1 3 0;
#X connect 10 1 14 0;
#X connect 11 0 28 0;
#X connect 11 0 57 0;
#X connect 12 0 26 0;
#X connect 12 0 57 0;
#X connect 14 0 12 0;
#X connect 14 1 11 0;
#X connect 15 0 10 2;
#X connect 16 0 52 0;
#X connect 18 0 16 0;
#X connect 18 1 15 0;
#X connect 19 1 18 0;
#X connect 23 0 25 0;
#X connect 24 0 25 1;
#X connect 25 0 24 0;
#X connect 25 0 42 0;
#X connect 26 0 25 1;
#X connect 28 0 25 1;
#X connect 31 0 49 2;
#X connect 34 0 32 0;
#X connect 34 1 31 0;
#X connect 35 1 34 0;
#X connect 36 0 38 0;
#X connect 37 0 38 1;
#X connect 38 0 37 0;
#X connect 38 0 43 0;
#X connect 39 0 38 1;
#X connect 41 0 40 0;
#X connect 42 1 27 0;
#X connect 43 1 41 0;
#X connect 45 0 39 0;
#X connect 46 0 51 0;
#X connect 48 0 46 0;
#X connect 48 1 45 0;
#X connect 49 1 48 0;
#X connect 51 0 50 0;
#X connect 52 0 55 0;
#X connect 52 1 53 0;
#X connect 53 0 54 0;
#X connect 57 0 29 1;
#X restore 520 383 pd managePlaying;
#N canvas 1786 193 662 391 manage 0;
#X obj 64 187 f;
#X obj 98 188 + 1;
#X obj 64 58 bng 15 250 50 0 empty empty empty 17 7 0 10 -262144 -1
-1;
#X floatatom 64 216 5 0 0 0 - - -;
#X obj 192 188 r \$0_loop_size;
#X obj 64 239 mod 1;
#X msg 197 152 0;
#X obj 64 262 select 0;
#X obj 382 131 r tempoStopOut;
#X obj 170 314 extra/sv \$1_\$2_is_loop_playing;
#X obj 64 18 r tempo_click_bang;
#X obj 200 18 inlet;
#X obj 64 100 spigot;
#X obj 118 63 tgl 15 0 empty empty empty 17 7 0 10 -262144 -1 -1 1
1;
#X obj 64 308 outlet;
#X obj 334 81 extra/sv \$1_\$2_is_loop_waitforplay;
#X msg 297 55 0;
#X obj 476 131 r \$1_\$2_loop_clear;
#X obj 146 109 extra/sv \$1_\$2_is_loop_playing;
#X msg 205 83 0;
#X obj 189 47 sel 1 0;
#X text 236 154 Reset counter;
#X obj 347 329 sel 1;
#X msg 374 357 1;
#X text 332 278 The loop play to 1 if was not;
#X floatatom 160 210 5 0 0 0 - - -;
#X connect 0 0 1 0;
#X connect 0 0 3 0;
#X connect 1 0 0 1;
#X connect 2 0 12 0;
#X connect 3 0 5 0;
#X connect 4 0 25 0;
#X connect 5 0 7 0;
#X connect 6 0 0 1;
#X connect 7 0 14 0;
#X connect 8 0 6 0;
#X connect 9 1 22 0;
#X connect 10 0 2 0;
#X connect 11 0 13 0;
#X connect 11 0 16 0;
#X connect 11 0 20 0;
#X connect 12 0 0 0;
#X connect 13 0 12 1;
#X connect 16 0 15 1;
#X connect 17 0 6 0;
#X connect 19 0 18 1;
#X connect 20 0 6 0;
#X connect 20 1 19 0;
#X connect 22 1 23 0;
#X connect 23 0 9 1;
#X connect 25 0 5 1;
#X restore 660 567 pd manage start;
#X obj 660 491 r \$0_playstop_loop;
#X obj 712 522 sel 1 0;
#X obj 709 550 bng 15 250 50 0 empty empty empty 17 7 0 10 -262144
-1 -1;
#X obj 727 550 bng 15 250 50 0 empty empty empty 17 7 0 10 -262144
-1 -1;
#X obj 1401 465 r \$1_\$2_loop_clear;
#N canvas 56 163 741 457 config 0;
#X obj 220 414 s \$0_timer;
#X floatatom 69 444 5 0 0 0 - - -;
#X obj 42 785 /;
#X obj 123 462 log;
#X obj 123 551 i;
#X obj 123 501 / 0.693147;
#X floatatom 123 528 5 0 0 0 - - -;
#X floatatom 123 582 5 0 0 0 - - -;
#X obj 114 668 pow;
#X msg 102 640 2;
#X floatatom 114 693 5 0 0 0 - - -;
#X obj 115 741 s \$0_loop_size;
#X obj 102 607 t b f;
#X obj 8 869 s tempoValue;
#X obj 56 37 inlet;
#X obj 386 47 inlet;
#X obj 69 415 / 380;
#X obj 102 869 s \$0_loop_tempo;
#X text 113 829 non \, la fausse valeur;
#X obj 317 709 cnv 15 100 60 empty empty empty 20 12 0 14 -233017 -66577
0;
#X text 323 714 really important;
#X text 322 734 set qantif from 1s loop;
#X msg 165 54 1;
#X msg 199 56 0;
#X obj 123 98 extra/sv \$1_\$2_is_loop_recording;
#X obj 42 378 t f f f;
#X obj 145 721 extra/sv quantif_global;
#X obj 42 828 t f b b f;
#X msg 62 936 0;
#X obj -4 955 extra/sv \$1_\$2_is_loop_recording;
#X obj 0 207 bang;
#X obj 103 206 bang;
#X text 137 274 This is the real tempo;
#X obj 46 230 bng 15 250 50 0 empty empty empty 17 7 0 10 -262144 -1
-1;
#X obj 131 238 bng 15 250 50 0 empty empty empty 17 7 0 10 -262144
-1 -1;
#X obj 68 298 bng 15 250 50 0 empty empty empty 17 7 0 10 -262144 -1
-1;
#X floatatom 124 420 10 0 0 0 - - -;
#X text 92 261 Previously on realtime;
#X obj 85 914 s \$0_loop_play;
#X obj 42 266 timer;
#X connect 1 0 3 0;
#X connect 2 0 27 0;
#X connect 3 0 5 0;
#X connect 4 0 7 0;
#X connect 5 0 6 0;
#X connect 6 0 4 0;
#X connect 7 0 12 0;
#X connect 8 0 10 0;
#X connect 9 0 8 0;
#X connect 10 0 2 1;
#X connect 10 0 11 0;
#X connect 10 0 26 1;
#X connect 12 0 9 0;
#X connect 12 1 8 1;
#X connect 14 0 22 0;
#X connect 14 0 30 0;
#X connect 15 0 31 0;
#X connect 16 0 1 0;
#X connect 22 0 24 1;
#X connect 23 0 24 1;
#X connect 25 0 2 0;
#X connect 25 1 16 0;
#X connect 25 2 36 0;
#X connect 25 2 0 0;
#X connect 27 0 13 0;
#X connect 27 1 28 0;
#X connect 27 2 38 0;
#X connect 27 3 17 0;
#X connect 28 0 29 1;
#X connect 30 0 33 0;
#X connect 30 0 39 0;
#X connect 31 0 34 0;
#X connect 31 0 39 1;
#X connect 39 0 25 0;
#X connect 39 0 35 0;
#X restore -178 707 pd config;
#N canvas 12 68 641 356 config 0;
#X obj 206 333 s \$0_timer;
#X floatatom 114 353 5 0 0 0 - - -;
#X obj 155 370 s \$0_loop_size;
#X floatatom 296 334 10 0 0 0 - - -;
#X obj 206 167 inlet;
#X obj 301 154 inlet;
#X obj 102 471 s \$0_loop_tempo;
#X text 113 489 non \, la fausse valeur;
#X msg 364 184 1;
#X msg 385 240 0;
#X obj 290 270 extra/sv \$1_\$2_is_loop_recording;
#X obj 64 231 f;
#X obj 98 232 + 1;
#X obj 64 202 bng 15 250 50 0 empty empty empty 17 7 0 10 -262144 -1
-1;
#X floatatom 64 260 5 0 0 0 - - -;
#X obj 64 168 r tempo_click_bang;
#X obj 63 306 i 0;
#X obj 7 353 extra/sv tempo;
#X floatatom 51 475 5 0 0 0 - - -;
#X obj 35 307 bng 15 250 50 0 empty empty empty 17 7 0 10 -262144 -1
-1;
#X obj 102 396 / 60;
#X obj 102 422 pow -1;
#X obj 102 446 * 1000;
#X msg 144 199 1;
#X obj 396 210 t b b b;
#X obj 206 301 timer;
#X connect 1 0 2 0;
#X connect 4 0 8 0;
#X connect 4 0 23 0;
#X connect 4 0 25 0;
#X connect 5 0 24 0;
#X connect 5 0 25 1;
#X connect 8 0 10 1;
#X connect 9 0 10 1;
#X connect 11 0 12 0;
#X connect 11 0 14 0;
#X connect 12 0 11 1;
#X connect 13 0 11 0;
#X connect 14 0 16 1;
#X connect 15 0 13 0;
#X connect 16 0 1 0;
#X connect 17 1 20 0;
#X connect 19 0 17 2;
#X connect 20 0 21 0;
#X connect 21 0 22 0;
#X connect 22 0 6 0;
#X connect 22 0 18 0;
#X connect 23 0 11 1;
#X connect 24 0 16 0;
#X connect 24 0 19 0;
#X connect 24 1 9 0;
#X connect 25 0 0 0;
#X connect 25 0 3 0;
#X restore 109 707 pd config;
#X obj 1448 628 s \$0_playstop_loop;
#X obj 1401 504 t b b b b b;
#X msg 1448 595 0;
#X obj 1487 569 extra/sv \$1_\$2_is_loop_waitforrec;
#X obj 278 188 extra/sv \$1_\$2_loop_recbutton;
#X obj 559 74 extra/sv \$1_\$2_loop_playbutton;
#X obj 1487 586 extra/sv \$1_\$2_is_loop_playing;
#X obj 1487 603 extra/sv \$1_\$2_is_loop_waitforplay;
#X obj 1527 700 extra/sv \$1_\$2_is_loop_recording;
#X obj 169 372 t b b;
#X obj 68 90 s~ \$0-input;
#X obj 519 670 bng 15 250 50 0 empty empty empty 17 7 0 10 -262144
-1 -1;
#X obj 1525 719 s \$0_realstart_overdub;
#X obj 558 670 bng 15 250 50 0 empty empty empty 17 7 0 10 -262144
-1 -1;
#X obj 1420 694 bng 15 250 50 0 empty empty empty 17 7 0 10 -262144
-1 -1;
#N canvas 545 163 595 445 (subpatch) 0;
#X array \$0_loop0 1.2e+06 float 0;
#X coords 0 -1 1.2e+06 1 200 30 1 0 0;
#X restore 1038 351 graph;
#X obj 454 795 tabwrite~ \$0_loop0;
#X obj 223 670 tabwrite~ \$0_loop0;
#X obj -64 670 tabwrite~ \$0_loop0;
#X obj 1047 181 extra/sv \$1_\$2_looper_arrayindex;
#X obj 1079 465 cnv 15 210 350 empty empty OUTLET 20 12 0 9 -204217
-66577 0;
#N canvas 74 50 761 687 ledoutrec 0;
#X msg 102 285 1;
#X obj 102 447 tgl 15 0 empty empty empty 17 7 0 10 -262144 -1 -1 1
1;
#X obj 102 474 sel 1;
#X msg 102 377 bang;
#X msg 146 377 stop;
#X obj 102 328 sel 1;
#X obj 153 349 t b b;
#X msg 178 447 1;
#X msg 284 572 1;
#X msg 312 572 0;
#X obj 284 616 outlet;
#X obj 284 212 extra/sv \$1_\$2_is_loop_recording;
#X obj 284 469 sel 1 0;
#X obj 284 242 t f b;
#X obj 491 181 r \$1_\$2_recloop_deleted_ui;
#X text 499 155 Animation on delete over;
#X text 49 152 Begin animation on delete;
#X msg 485 231 0;
#X obj 102 418 metro 100;
#X obj 86 194 extra/sv \$1_\$2_is_loop_waitforrec;
#X obj 50 171 r \$1_\$2_loop_clear;
#X obj 15 136 r \$1_\$2_loop_undo;
#X obj 501 210 r \$1_\$2_loop_undo_ui;
#X obj 40 248 bng 15 250 50 0 empty empty empty 17 7 0 10 -262144 -1
-1;
#X obj 434 358 bng 15 250 50 0 empty empty empty 17 7 0 10 -262144
-1 -1;
#X connect 0 0 5 0;
#X connect 1 0 2 0;
#X connect 2 0 8 0;
#X connect 2 1 9 0;
#X connect 3 0 18 0;
#X connect 4 0 18 0;
#X connect 5 0 3 0;
#X connect 5 1 6 0;
#X connect 6 0 4 0;
#X connect 6 1 7 0;
#X connect 7 0 2 0;
#X connect 8 0 10 0;
#X connect 9 0 10 0;
#X connect 11 0 13 0;
#X connect 11 0 24 0;
#X connect 12 0 8 0;
#X connect 12 1 9 0;
#X connect 13 0 12 0;
#X connect 13 1 4 0;
#X connect 14 0 17 0;
#X connect 17 0 13 0;
#X connect 18 0 1 0;
#X connect 19 0 0 0;
#X connect 20 0 0 0;
#X connect 20 0 23 0;
#X connect 21 0 0 0;
#X connect 22 0 17 0;
#X restore 1082 738 pd ledoutrec;
#X obj 1082 773 outlet;
#X obj 1176 773 outlet;
#N canvas 316 155 881 687 ledoutplay 0;
#X obj 251 433 tgl 15 0 empty empty empty 17 7 0 10 -262144 -1 -1 1
1;
#X obj 251 460 sel 1;
#X msg 227 363 bang;
#X msg 287 364 stop;
#X obj 243 314 sel 1;
#X obj 294 335 t b b;
#X msg 319 428 1;
#X obj 407 585 outlet;
#X msg 407 522 1;
#X msg 469 522 0;
#X obj 407 434 sel 1 0;
#X obj 407 170 extra/sv \$1_\$2_is_loop_playing;
#N canvas 692 208 450 300 waitforplay 0;
#X obj 71 166 != -1;
#X obj 71 197 sel 1;
#X obj 71 242 outlet;
#X obj 65 -62 extra/sv \$1_\$2_is_loop_waitforplay;
#X obj 118 96 extra/sv \$1_\$2_is_loop_playing;
#X obj 71 67 t f b;
#X obj -112 -2 extra/sv \$1_\$2_is_loop_recorded;
#X obj 65 -26 t b f;
#X obj 71 42 i -1;
#X obj 71 18 sel 1;
#X floatatom 171 184 5 0 0 0 - - -;
#X floatatom -14 130 5 0 0 0 - - -;
#X connect 0 0 1 0;
#X connect 1 0 2 0;
#X connect 3 0 7 0;
#X connect 4 1 0 1;
#X connect 4 1 10 0;
#X connect 5 0 0 0;
#X connect 5 0 11 0;
#X connect 5 1 4 2;
#X connect 6 1 9 0;
#X connect 7 0 6 2;
#X connect 7 1 8 1;
#X connect 8 0 5 0;
#X connect 9 0 8 0;
#X restore 267 196 pd waitforplay;
#X obj 407 294 t f b;
#X obj 52 246 r \$1_\$2_recloop_deleted_ui;
#X text 608 110 Animation on delete over;
#X msg 52 272 0;
#X obj 251 404 metro 100;
#X obj 93 274 bng 15 250 50 0 empty empty empty 17 7 0 10 -262144 -1
-1;
#X msg 13 271 1;
#X obj 21 433 tgl 15 0 empty empty empty 17 7 0 10 -262144 -1 -1 0
1;
#X obj 21 460 sel 1;
#X msg -3 363 bang;
#X msg 57 364 stop;
#X obj 13 314 sel 1;
#X obj 64 335 t b b;
#X obj 13 244 bng 15 250 50 0 empty empty empty 17 7 0 10 -262144 -1
-1;
#X obj 21 404 metro 100;
#X msg 89 428 0;
#X obj 13 196 r \$1_\$2_loop_clear;
#X obj 298 238 bng 15 250 50 0 empty empty empty 17 7 0 10 -262144
-1 -1;
#X obj 238 127 extra/sv \$1_\$2_is_loop_waitforplay;
#X connect 0 0 1 0;
#X connect 1 0 8 0;
#X connect 1 1 9 0;
#X connect 2 0 17 0;
#X connect 3 0 17 0;
#X connect 4 0 2 0;
#X connect 4 1 5 0;
#X connect 5 0 3 0;
#X connect 5 1 6 0;
#X connect 6 0 1 0;
#X connect 8 0 7 0;
#X connect 9 0 7 0;
#X connect 10 0 8 0;
#X connect 10 1 9 0;
#X connect 11 0 13 0;
#X connect 12 0 30 0;
#X connect 13 0 10 0;
#X connect 13 1 3 0;
#X connect 14 0 16 0;
#X connect 14 0 18 0;
#X connect 16 0 24 0;
#X connect 17 0 0 0;
#X connect 19 0 24 0;
#X connect 20 0 21 0;
#X connect 21 0 8 0;
#X connect 21 1 9 0;
#X connect 22 0 27 0;
#X connect 23 0 27 0;
#X connect 24 0 22 0;
#X connect 24 1 25 0;
#X connect 25 0 23 0;
#X connect 25 1 28 0;
#X connect 26 0 19 0;
#X connect 27 0 20 0;
#X connect 28 0 21 0;
#X connect 29 0 26 0;
#X connect 31 0 4 0;
#X restore 1176 738 pd ledoutplay;
#X obj 1128 775 bng 15 250 50 0 empty empty empty 17 7 0 10 -258113
-1 -1;
#X obj 1227 777 bng 15 250 50 0 empty empty empty 17 7 0 10 -4034 -1
-1;
#X obj 1146 775 tgl 15 0 empty empty empty 17 7 0 10 -262144 -1 -1
0 1;
#X obj 1249 778 tgl 15 0 empty empty empty 17 7 0 10 -262144 -1 -1
1 1;
#X obj 869 714 pack 0 \$0;
#X obj 869 674 tgl 15 0 empty empty empty 17 7 0 10 -262144 -1 -1 1
1;
#X msg 869 735 set \$2_loop\$1;
#X obj 872 625 extra/sv \$1_\$2_looper_arrayindex;
#X obj 781 651 r \$0_arrayindexplay;
#X obj 521 764 r \$0_arrayindexrec;
#X obj 971 691 == 0;
#X obj 970 717 pack 0 \$0;
#X msg 970 738 set \$2_loop\$1;
#X obj 1248 628 extra/sv \$1_\$2_looper_arrayindex;
#X obj 918 669 bng 15 250 50 0 empty empty empty 17 7 0 10 -262144
-1 -1;
#X obj 970 788 s \$0_arrayindexplay;
#X obj 869 762 s \$0_arrayindexrec;
#X msg 393 646 start;
#X obj 872 560 bng 15 250 50 0 empty empty empty 17 7 0 10 -262144
-1 -1;
#X obj 542 608 t b b b;
#X obj 462 618 print start;
#X obj 872 539 r \$1_\$2_loop_undo;
#X obj 602 299 bng 15 250 50 0 empty empty empty 17 7 0 10 -262144
-1 -1;
#X obj 911 601 s \$1_\$2_loop_undo_ui;
#X obj 911 576 delay 400;
#X obj 748 774 tabplay~ \$0_loop0;
#X msg 787 752 44100;
#X obj 67 68 hip~ 5;
#N canvas 517 95 552 563 manageLongPress 0;
#X obj 132 11 inlet;
#N canvas 0 22 450 300 undoORclear 0;
#X obj 137 35 inlet;
#X obj 137 99 i 0;
#X obj 137 145 + 1;
#X obj 137 178 sel 0 1;
#X obj 137 251 outlet;
#X obj 218 254 outlet;
#X obj 204 214 bang;
#X obj 197 37 r \$1_\$2_loop_clear;
#X msg 197 67 0;
#X obj 322 37 r bigReset;
#X text 24 242 Undo first time;
#X text 275 238 then clear;
#X connect 0 0 1 0;
#X connect 1 0 2 0;
#X connect 2 0 1 1;
#X connect 2 0 3 0;
#X connect 3 0 4 0;
#X connect 3 1 6 0;
#X connect 3 2 6 0;
#X connect 6 0 5 0;
#X connect 7 0 8 0;
#X connect 8 0 1 1;
#X connect 9 0 8 0;
#X restore 343 12 pd undoORclear;
#X obj 445 13 bng 15 250 50 0 empty empty empty 17 7 0 10 -262144 -1
-1;
#X obj 343 60 s \$1_\$2_loop_undo;
#X obj 127 112 bng 40 1000 500 0 empty empty empty 17 7 0 10 -4034
-1 -1;
#X obj 57 77 tgl 15 0 empty empty empty 17 7 0 10 -262144 -1 -1 0 1
;
#X obj 10 60 extra/sv \$1_\$2_is_loop_recorded;
#X obj 7 112 bng 40 1000 500 0 empty empty empty 17 7 0 10 -258113
-1 -1;
#X text 180 112 YES;
#X obj 132 34 bang;
#X obj 57 95 sel 0 1;
#X text -14 111 NO;
#X obj 9 178 extra/sv \$1_\$2_is_loop_playing;
#X obj 144 221 bng 40 1000 500 0 empty empty empty 17 7 0 10 -4034
-1 -1;
#X obj 16 221 bng 40 1000 500 0 empty empty empty 17 7 0 10 -258113
-1 -1;
#X text -8 220 NO;
#X text 185 224 YES;
#X obj 83 204 sel 0 1;
#X text 0 336 NO;
#X obj 132 343 bng 40 1000 500 0 empty empty empty 17 7 0 10 -4034
-1 -1;
#X obj 8 346 bng 40 1000 500 0 empty empty empty 17 7 0 10 -258113
-1 -1;
#X text 192 338 YES;
#X obj 90 318 sel 0 1;
#X obj 23 286 extra/sv \$1_\$2_is_loop_recording;
#X obj 74 436 r \$0_realstart_overdub;
#X obj 74 482 i 0;
#X obj 74 511 + 1;
#X obj 8 525 i 0;
#X obj 8 549 sel 0;
#X obj 163 601 bang;
#X obj 163 625 s \$1_\$2_loop_undo;
#X obj 236 454 r \$1_\$2_loop_clear;
#X obj -8 628 s \$1_\$2_loop_clear;
#X msg 163 468 -1;
#X obj 132 388 s \$1_\$2_loop_clear;
#X obj -31 270 s \$1_\$2_loop_clear;
#X obj 88 600 bng 15 250 50 0 empty empty empty 17 7 0 10 -262144 -1
-1;
#X obj 74 461 sel 1;
#X connect 0 0 9 0;
#X connect 1 0 3 0;
#X connect 1 1 2 0;
#X connect 4 0 12 2;
#X connect 5 0 10 0;
#X connect 6 1 5 0;
#X connect 7 0 35 0;
#X connect 9 0 6 2;
#X connect 10 0 7 0;
#X connect 10 1 4 0;
#X connect 12 1 17 0;
#X connect 13 0 23 2;
#X connect 14 0 35 0;
#X connect 17 0 14 0;
#X connect 17 1 13 0;
#X connect 19 0 34 0;
#X connect 20 0 27 0;
#X connect 22 0 20 0;
#X connect 22 1 19 0;
#X connect 23 1 22 0;
#X connect 24 0 37 0;
#X connect 25 0 26 0;
#X connect 26 0 25 1;
#X connect 26 0 27 1;
#X connect 27 0 28 0;
#X connect 28 0 32 0;
#X connect 28 1 29 0;
#X connect 28 1 36 0;
#X connect 29 0 33 0;
#X connect 29 0 30 0;
#X connect 31 0 33 0;
#X connect 33 0 25 0;
#X connect 37 0 25 0;
#X restore 636 394 pd manageLongPress;
#X obj 384 263 r \$0_loop_play;
#X text 371 245 shortcut for starting play;
#X msg 1395 584 1;
#X msg 1601 673 0;
#X obj 1040 716 s \$0_index_save;
#N canvas 45 243 958 566 rampgenerator 0;
#X obj 163 54 inlet;
#X obj 151 146 sel 1 2 3;
#X obj 163 78 bang;
#X obj 163 101 i \$3;
#N canvas 683 99 703 566 classic 0;
#X obj 104 473 outlet~;
#X text 184 407 2 = nbbar*1/tempofinal;
#X floatatom 172 71 5 0 0 0 - - -;
#X obj 375 144 pow -1;
#X obj 375 117 / 60;
#X obj 172 118 * 1;
#X floatatom 450 123 5 0 0 0 - - -;
#X text 185 424 1 = nbbar*1/tempo;
#X obj 74 132 s \$0_loop_start;
#X obj 533 336 s \$0_loop_precession;
#X obj -161 293 r tempoStopOut;
#X msg 103 209 0;
#X obj 535 126 / 1000;
#X obj 535 157 pow -1;
#X obj 535 183 * 60;
#X floatatom 534 220 5 0 0 0 - - -;
#X obj 533 299 / 1;
#X obj 535 87 r \$0_loop_tempo;
#X obj 450 145 i 0;
#X obj 533 266 t b f;
#X obj 172 91 t b f;
#X obj 103 365 line~;
#X obj 47 182 t b b;
#X obj 47 241 f 0;
#X obj 46 19 inlet;
#X msg -161 340 300;
#X obj 351 22 extra/sv tempo;
#X text 419 -7 TODO : get global tempo when loop_tempo changed;
#X obj 574 221 s \$1_\$2_realtempo_toUI;
#X obj 172 49 r \$0_loop_size;
#X obj -186 264 r \$1_\$2_loop_clear;
#X obj -164 187 r \$0_playstop_loop;
#X obj -163 217 sel 0;
#X floatatom 172 193 8 0 0 0 - - -;
#X obj 233 177 r \$0_timer;
#X text 89 157 this change pitch;
#X text 222 197 this don't change pitch;
#X obj 467 23 r realtime-correction;
#X floatatom 375 283 5 0 0 0 - - -;
#X obj 172 141 * 1000;
#X obj 375 247 * 1;
#X obj 47 107 t b b;
#X obj 142 234 r \$0_timer;
#X floatatom 142 259 10 0 0 0 - - -;
#X obj 142 280 * 44.1;
#X obj 47 294 pack f f;
#X msg 47 327 \$2 \$1;
#X obj 375 76 / 1;
#X obj 13 331 bng 15 250 50 0 empty empty empty 17 7 0 10 -262144 -1
-1;
#X connect 2 0 20 0;
#X connect 3 0 40 0;
#X connect 4 0 3 0;
#X connect 5 0 39 0;
#X connect 6 0 18 0;
#X connect 10 0 25 0;
#X connect 11 0 21 0;
#X connect 12 0 13 0;
#X connect 13 0 14 0;
#X connect 14 0 15 0;
#X connect 15 0 19 0;
#X connect 16 0 9 0;
#X connect 17 0 12 0;
#X connect 17 0 28 0;
#X connect 18 0 16 0;
#X connect 19 0 16 0;
#X connect 19 1 16 1;
#X connect 20 0 5 0;
#X connect 20 1 5 1;
#X connect 21 0 0 0;
#X connect 22 0 23 0;
#X connect 22 1 11 0;
#X connect 23 0 45 0;
#X connect 24 0 41 0;
#X connect 25 0 21 0;
#X connect 26 0 47 0;
#X connect 29 0 2 0;
#X connect 30 0 25 0;
#X connect 31 0 32 0;
#X connect 32 0 25 0;
#X connect 33 0 23 1;
#X connect 37 0 47 1;
#X connect 39 0 33 0;
#X connect 40 0 5 0;
#X connect 40 0 38 0;
#X connect 41 0 22 0;
#X connect 41 1 8 0;
#X connect 42 0 43 0;
#X connect 43 0 44 0;
#X connect 44 0 45 1;
#X connect 45 0 46 0;
#X connect 45 0 48 0;
#X connect 46 0 21 0;
#X connect 47 0 6 0;
#X connect 47 0 4 0;
#X restore 51 227 pd classic;
#N canvas 306 129 1011 568 breakbeat 0;
#X obj 12 -401 bng 15 250 50 0 empty empty empty 17 7 0 10 -262144
-1 -1;
#X obj 227 -420 r \$0_loop_size;
#X floatatom 227 -393 5 0 0 0 - - -;
#X obj 318 -368 pow -1;
#X obj 319 -395 / 60;
#X obj 227 -308 * 1;
#X obj 318 -342 * 1;
#X obj 227 -357 t b f;
#X obj 11 -440 inlet;
#X obj 227 -243 * 1000;
#X floatatom 252 -206 5 0 0 0 - - -;
#X obj 542 93 hradio 15 1 0 8 empty empty empty 0 -8 0 10 -262144 -1
-1 0;
#X obj 223 398 phasor~;
#X obj 223 370 sig~;
#X obj 386 254 f 0;
#X obj 223 344 pow -1;
#X obj 209 674 outlet~;
#X obj 223 320 /;
#X floatatom 428 300 5 0 0 0 - - -;
#X obj 208 537 *~;
#X obj 387 324 f 0;
#X obj 392 388 / 1;
#X obj 428 273 pow 2;
#X msg 428 252 2;
#X obj 421 217 t b b f;
#X obj 654 540 * 1;
#X obj 653 229 hradio 15 1 0 8 empty empty empty 0 -8 0 10 -262144
-1 -1 4;
#X obj 654 564 sig~;
#X obj 29 472 sig~ 1;
#X obj 227 449 *~ 1;
#X obj 39 326 tgl 15 0 empty empty empty 17 7 0 10 -262144 -1 -1 0
1;
#X obj 39 352 sel 0 1;
#X msg 90 400 1;
#X msg 21 400 0;
#X msg 60 400 1;
#X msg 121 400 -1;
#X obj 653 281 / 8;
#X obj 653 485 * 1;
#X obj 223 269 / 1000;
#X obj 223 243 f 0;
#X obj 209 583 +~;
#X obj 653 512 i 0;
#X obj 401 437 t b f;
#X obj 372 72 r tempo_click_bang;
#X text 663 196 set the start of reading;
#X text 341 47 set the portion of reading;
#X text 235 -273 duration in msec of reading;
#X text -13 273 Invert reading;
#X text 202 294 set phasor frequency;
#X obj 209 503 +~;
#X obj 460 158 change;
#X obj 319 -419 extra/sv tempo;
#X obj 12 -363 t b b;
#X obj -37 297 extra/sv \$1_\$2_looper_inverse;
#X obj 509 122 extra/sv \$1_\$2_looper_slice;
#X obj 654 253 extra/sv \$1_\$2_looper_start;
#X floatatom 294 205 10 0 0 0 - - -;
#X obj 258 124 r \$0_timer;
#X floatatom 261 144 10 0 0 0 - - -;
#X obj 258 168 * 44.1;
#X obj 563 -1 extra/sv module_selected;
#X obj 563 22 == \$1;
#X obj 530 49 spigot;
#X obj 530 -21 extra/sv global_breakbeat_slice;
#X obj 778 120 extra/sv module_selected;
#X obj 778 143 == \$1;
#X obj 745 170 spigot;
#X obj 745 100 extra/sv global_breakbeat_start;
#X obj -3 177 extra/sv module_selected;
#X obj -3 200 == \$1;
#X obj -36 227 spigot;
#X obj -36 157 extra/sv global_breakbeat_inverse;
#X obj -36 250 sel 0;
#X obj 460 139 i 0;
#X obj 375 159 loadbang;
#X msg 381 192 0;
#X obj 257 204 - 2;
#X obj 278 344 r \$0_loop_phase;
#X msg 41 -319 0;
#X obj 39 -271 s \$0_loop_phase;
#X obj 682 -337 s \$0_loop_start;
#X obj 590 -413 sel 0 1;
#X obj 511 -205 timer;
#X obj 466 -421 r tempo_click_bang;
#X floatatom 512 -152 5 0 0 0 - - -;
#X obj 668 -309 extra/sv tempo;
#X obj 668 -269 pow -1;
#X obj 668 -289 / 60;
#X obj 668 -249 * 1000;
#X obj 670 -213 / 1;
#X obj 630 -307 bang;
#X obj 630 -351 bng 35 250 50 0 empty empty empty 17 7 0 10 -4034 -1
-1;
#X floatatom 671 -189 5 0 0 0 - - -;
#X obj 512 -178 % 500;
#X obj 512 -118 / 500;
#X text 75 -428 comment;
#X obj 561 -86 s \$0_loop_phase;
#X floatatom 517 -83 5 0 0 0 - - -;
#X obj 790 -338 extra/sv \$1_\$2_is_loop_playing;
#X obj 630 -389 t b b b;
#X msg 848 -365 1;
#X msg 798 -364 0;
#X obj 807 -431 tgl 15 0 empty empty empty 17 7 0 10 -262144 -1 -1
0 1;
#X obj -12 -236 extra/sv \$1_\$2_is_loop_playing;
#X msg -2 -298 1;
#X obj 590 -434 extra/sv \$1_\$2_loop_playsampler;
#X connect 0 0 52 0;
#X connect 1 0 2 0;
#X connect 2 0 7 0;
#X connect 3 0 6 0;
#X connect 4 0 3 0;
#X connect 5 0 9 0;
#X connect 6 0 5 0;
#X connect 7 0 5 0;
#X connect 7 1 5 1;
#X connect 8 0 0 0;
#X connect 9 0 10 0;
#X connect 9 0 39 0;
#X connect 10 0 94 1;
#X connect 11 0 54 1;
#X connect 12 0 29 0;
#X connect 13 0 12 0;
#X connect 14 0 20 0;
#X connect 15 0 13 0;
#X connect 17 0 15 0;
#X connect 18 0 17 1;
#X connect 18 0 37 1;
#X connect 18 0 21 1;
#X connect 19 0 40 0;
#X connect 20 0 21 0;
#X connect 21 0 19 1;
#X connect 21 0 42 0;
#X connect 22 0 18 0;
#X connect 23 0 22 0;
#X connect 24 0 14 0;
#X connect 24 0 39 0;
#X connect 24 1 23 0;
#X connect 24 2 22 1;
#X connect 25 0 27 0;
#X connect 26 0 55 1;
#X connect 27 0 40 1;
#X connect 28 0 49 1;
#X connect 29 0 49 0;
#X connect 30 0 31 0;
#X connect 31 0 32 0;
#X connect 31 0 33 0;
#X connect 31 1 35 0;
#X connect 31 1 34 0;
#X connect 32 0 29 1;
#X connect 33 0 28 0;
#X connect 34 0 28 0;
#X connect 35 0 29 1;
#X connect 36 0 37 0;
#X connect 37 0 41 0;
#X connect 38 0 17 0;
#X connect 39 0 38 0;
#X connect 40 0 16 0;
#X connect 41 0 25 0;
#X connect 42 0 37 0;
#X connect 42 1 25 1;
#X connect 43 0 73 0;
#X connect 49 0 19 0;
#X connect 50 0 24 0;
#X connect 51 0 4 0;
#X connect 52 0 104 0;
#X connect 52 1 78 0;
#X connect 53 0 30 0;
#X connect 54 0 73 1;
#X connect 55 0 36 0;
#X connect 57 0 58 0;
#X connect 58 0 59 0;
#X connect 59 0 76 0;
#X connect 60 0 61 0;
#X connect 61 0 62 1;
#X connect 62 0 11 0;
#X connect 63 0 62 0;
#X connect 64 0 65 0;
#X connect 65 0 66 1;
#X connect 66 0 26 0;
#X connect 67 0 66 0;
#X connect 68 0 69 0;
#X connect 69 0 70 1;
#X connect 70 0 72 0;
#X connect 71 0 70 0;
#X connect 72 1 53 0;
#X connect 73 0 50 0;
#X connect 74 0 75 0;
#X connect 75 0 24 0;
#X connect 76 0 14 0;
#X connect 77 0 12 1;
#X connect 78 0 79 0;
#X connect 81 0 101 0;
#X connect 81 1 99 0;
#X connect 81 2 99 0;
#X connect 82 0 93 0;
#X connect 83 0 82 0;
#X connect 84 0 94 0;
#X connect 85 0 87 0;
#X connect 86 0 88 0;
#X connect 87 0 86 0;
#X connect 88 0 89 0;
#X connect 89 0 92 0;
#X connect 89 0 93 1;
#X connect 90 0 82 1;
#X connect 91 0 90 0;
#X connect 93 0 84 0;
#X connect 94 0 97 0;
#X connect 94 0 96 0;
#X connect 99 0 91 0;
#X connect 99 1 80 0;
#X connect 99 2 100 0;
#X connect 100 0 98 1;
#X connect 101 0 98 1;
#X connect 102 0 81 0;
#X connect 104 0 103 1;
#X connect 105 0 81 0;
#X restore 150 229 pd breakbeat;
#X obj 154 470 outlet~;
#X text 229 50 create a ramp to read array;
#X text 231 73 chose method according to the 3nd arg;
#X text 226 101 aka the mode arg;
#X obj 316 242 loadbang;
#X obj 316 297 i \$3;
#X obj 66 319 == 1;
#X obj 176 319 == 2;
#X obj 51 347 *~ 0;
#X obj 148 343 *~ 0;
#X text 358 205 1 Classic :;
#X text 383 225 Create ramp with line objet;
#X text 385 239 According to global tempo and tempo of the sample;
#X text 356 299 2 BreakBeat :;
#X text 394 329 Create phasor object \, able to break \, reverse the
sample;
#X text 397 401 Use it as a sampler from audio loop file;
#X text 354 374 3 Sampler :;
#N canvas 342 24 1034 568 sampler 0;
#X obj 104 473 outlet~;
#X text 184 407 2 = nbbar*1/tempofinal;
#X floatatom 172 71 5 0 0 0 - - -;
#X obj 375 144 pow -1;
#X obj 375 117 / 60;
#X obj 172 118 * 1;
#X floatatom 450 123 5 0 0 0 - - -;
#X text 185 424 1 = nbbar*1/tempo;
#X obj 74 132 s \$0_loop_start;
#X obj 533 336 s \$0_loop_precession;
#X obj -203 289 r tempoStopOut;
#X obj 535 126 / 1000;
#X obj 535 157 pow -1;
#X obj 535 183 * 60;
#X floatatom 534 220 5 0 0 0 - - -;
#X obj 533 299 / 1;
#X obj 535 87 r \$0_loop_tempo;
#X obj 450 145 i 0;
#X obj 533 266 t b f;
#X obj 172 91 t b f;
#X obj 103 365 line~;
#X msg -58 347 300;
#X obj 351 22 extra/sv tempo;
#X text 419 -7 TODO : get global tempo when loop_tempo changed;
#X obj 574 221 s \$1_\$2_realtempo_toUI;
#X obj 172 49 r \$0_loop_size;
#X obj -226 265 r \$1_\$2_loop_clear;
#X obj -206 200 r \$0_playstop_loop;
#X obj -205 230 sel 0;
#X floatatom 172 193 8 0 0 0 - - -;
#X obj 233 177 r \$0_timer;
#X text 89 157 this change pitch;
#X text 222 197 this don't change pitch;
#X obj 467 23 r realtime-correction;
#X floatatom 375 283 5 0 0 0 - - -;
#X obj 172 141 * 1000;
#X obj 375 247 * 1;
#X obj 47 107 t b b;
#X obj 375 76 / 1;
#X obj -61 -5 r \$0_playsampler_loop;
#X obj -58 49 sel 0 1;
#X obj -124 466 extra/sv \$1_\$2_is_loop_playing;
#X msg -17 428 1;
#X msg -59 427 0;
#X floatatom -126 119 5 0 0 0 - - -;
#N canvas 81 47 972 722 computteDelay 0;
#X obj 124 -37 inlet;
#X obj 8 67 timer;
#X obj 8 -35 r tempo_click_bang;
#X floatatom 9 120 5 0 0 0 - - -;
#X obj 212 -35 extra/sv tempo;
#X obj 214 142 / 2;
#X obj 183 175 < 1.2;
#X floatatom 227 174 5 0 0 0 - - -;
#X msg 285 349 0;
#X obj 9 94 % 1.4;
#X obj 155 356 i 0;
#X obj 184 257 t b b;
#X obj 260 328 t b b;
#X obj 183 228 bng 15 250 50 0 empty empty empty 17 7 0 10 -262144
-1 -1;
#X obj 249 235 bng 15 250 50 0 empty empty empty 17 7 0 10 -262144
-1 -1;
#X floatatom 39 370 5 0 0 0 - - -;
#X obj 11 142 t f f;
#X obj 51 203 -;
#X obj 264 296 delay;
#X floatatom 57 268 5 0 0 0 - - -;
#X obj 52 226 * -1;
#X obj 39 341 * 44.1;
#X obj 183 195 sel 1 0;
#X floatatom 374 80 5 0 0 0 - - -;
#X obj 212 5 pow -1;
#X obj 212 -15 / 60;
#X obj 212 25 * 1000;
#X obj 421 299 inlet;
#X obj 214 61 / 1;
#X obj 265 482 r \$0_timer;
#X floatatom 265 507 10 0 0 0 - - -;
#X obj 265 527 * 44.1;
#X obj 189 592 pack f f;
#X msg 197 618 \$2 \$1;
#X obj 187 514 f 0;
#X obj 187 468 bang;
#X obj 197 652 outlet;
#X obj 479 374 i 0;
#X text 315 188 If : inside the first half part of the period of tempo
( time between 2 clicks ) then : start the sample with some late. Else
: create a delay \, and wait for the next click;
#X text 315 -22 This part is a live quantize : whenever you press the
button \, the samples is always sinc with the tempo;
#X obj 475 651 outlet;
#X obj 15 500 i 0;
#X floatatom 18 537 5 0 0 0 - - -;
#X obj 186 547 - 0;
#X text 484 280 issue with delay. If delay is bigger than the press
time the press is sent after the release \, and keeps on;
#X obj 74 654 outlet;
#X text 26 674 In order to solve it \, with delay the release too Send
here the delay time;
#X connect 0 0 1 1;
#X connect 1 0 9 0;
#X connect 2 0 1 0;
#X connect 3 0 16 0;
#X connect 4 0 25 0;
#X connect 5 0 6 1;
#X connect 5 0 7 0;
#X connect 6 0 22 0;
#X connect 8 0 37 0;
#X connect 8 0 41 0;
#X connect 9 0 3 0;
#X connect 10 0 37 0;
#X connect 11 0 35 0;
#X connect 11 1 10 0;
#X connect 12 0 35 0;
#X connect 12 1 8 0;
#X connect 13 0 11 0;
#X connect 14 0 18 0;
#X connect 16 0 6 0;
#X connect 16 1 21 0;
#X connect 16 1 17 0;
#X connect 16 1 41 0;
#X connect 17 0 20 0;
#X connect 18 0 12 0;
#X connect 19 0 18 1;
#X connect 19 0 45 0;
#X connect 20 0 19 0;
#X connect 21 0 10 1;
#X connect 21 0 15 0;
#X connect 22 0 13 0;
#X connect 22 1 14 0;
#X connect 24 0 26 0;
#X connect 25 0 24 0;
#X connect 26 0 23 0;
#X connect 26 0 28 0;
#X connect 27 0 34 1;
#X connect 28 0 5 0;
#X connect 28 0 9 1;
#X connect 28 0 17 1;
#X connect 29 0 30 0;
#X connect 30 0 31 0;
#X connect 31 0 32 1;
#X connect 32 0 33 0;
#X connect 33 0 36 0;
#X connect 34 0 43 0;
#X connect 35 0 34 0;
#X connect 37 0 40 0;
#X connect 41 0 42 0;
#X connect 41 0 43 1;
#X connect 43 0 32 0;
#X restore 51 250 pd computteDelay;
#X obj -56 307 delay;
#X obj -3 266 + 1;
#X text 176 283 Better to use phaser instead of line ramp;
#X text -60 21 Deactivated for dev needs;
#X connect 2 0 19 0;
#X connect 3 0 36 0;
#X connect 4 0 3 0;
#X connect 5 0 35 0;
#X connect 6 0 17 0;
#X connect 10 0 21 0;
#X connect 11 0 12 0;
#X connect 12 0 13 0;
#X connect 13 0 14 0;
#X connect 14 0 18 0;
#X connect 15 0 9 0;
#X connect 16 0 11 0;
#X connect 16 0 24 0;
#X connect 17 0 15 0;
#X connect 18 0 15 0;
#X connect 18 1 15 1;
#X connect 19 0 5 0;
#X connect 19 1 5 1;
#X connect 20 0 0 0;
#X connect 21 0 43 0;
#X connect 21 0 20 0;
#X connect 22 0 38 0;
#X connect 25 0 2 0;
#X connect 26 0 21 0;
#X connect 27 0 28 0;
#X connect 28 0 21 0;
#X connect 29 0 45 1;
#X connect 33 0 38 1;
#X connect 35 0 29 0;
#X connect 36 0 5 0;
#X connect 36 0 34 0;
#X connect 37 0 45 0;
#X connect 37 1 8 0;
#X connect 38 0 6 0;
#X connect 38 0 4 0;
#X connect 40 0 46 0;
#X connect 40 1 37 0;
#X connect 40 2 37 0;
#X connect 42 0 41 1;
#X connect 43 0 41 1;
#X connect 45 0 47 0;
#X connect 45 1 20 0;
#X connect 45 1 42 0;
#X connect 45 2 20 0;
#X connect 46 0 21 0;
#X connect 47 0 46 1;
#X restore 239 229 pd sampler;
#X obj 235 345 *~ 0;
#X obj 259 319 == 3;
#X connect 0 0 2 0;
#X connect 1 0 4 0;
#X connect 1 1 5 0;
#X connect 2 0 3 0;
#X connect 3 0 1 0;
#X connect 4 0 14 0;
#X connect 5 0 15 0;
#X connect 10 0 11 0;
#X connect 11 0 12 0;
#X connect 11 0 13 0;
#X connect 11 0 25 0;
#X connect 12 0 14 1;
#X connect 13 0 15 1;
#X connect 14 0 6 0;
#X connect 15 0 6 0;
#X connect 23 0 24 0;
#X connect 24 0 6 0;
#X connect 25 0 24 1;
#X restore 660 606 pd rampgenerator;
#N canvas 0 63 641 356 slider_ui 0;
#X obj 31 53 inlet~;
#X obj 241 250 snapshot~;
#X obj 262 187 loadbang;
#X obj 284 138 bng 15 250 50 0 empty empty empty 17 7 0 10 -262144
-1 -1;
#X floatatom 384 326 5 0 0 0 - - -;
#X obj 384 374 change;
#X obj 407 428 s \$1_recloop_ui_play;
#X obj 384 403 sel 1 0;
#X obj 384 454 s \$1_recloop_ui_stop;
#X obj 384 349 >= 1;
#X floatatom 267 534 5 0 0 0 - - -;
#X obj 267 220 metro 10;
#X obj 293 391 tgl 15 0 empty empty empty 17 7 0 10 -262144 -1 -1 0
1;
#X obj 269 446 tgl 15 0 empty empty empty 17 7 0 10 -262144 -1 -1 0
1;
#X obj 293 411 sel 1;
#X obj 270 475 sel 1 0;
#X obj 267 511 realtime;
#X obj 199 200 /~ 44.1;
#X obj 248 52 r \$0_timer;
#X floatatom 248 77 10 0 0 0 - - -;
#X obj 248 98 * 44.1;
#X obj 384 289 extra/sv \$1_\$2_recloop_slider;
#X floatatom 252 276 5 0 0 0 - - -;
#X obj 163 112 r tempoStopIn;
#X obj 72 112 r tempoGoIn;
#X msg 164 134 0;
#X msg 88 133 1;
#X obj 30 112 *~ 1;
#X obj 30 151 *~ 1;
#X obj 55 83 extra/sv \$1_\$2_is_loop_playing;
#X connect 0 0 27 0;
#X connect 1 0 21 1;
#X connect 1 0 22 0;
#X connect 2 0 11 0;
#X connect 3 0 11 0;
#X connect 4 0 9 0;
#X connect 5 0 7 0;
#X connect 5 0 12 0;
#X connect 7 1 6 0;
#X connect 9 0 5 0;
#X connect 11 0 1 0;
#X connect 12 0 14 0;
#X connect 13 0 15 0;
#X connect 14 0 13 0;
#X connect 15 0 16 0;
#X connect 15 1 16 1;
#X connect 16 0 10 0;
#X connect 17 0 1 0;
#X connect 18 0 19 0;
#X connect 19 0 20 0;
#X connect 20 0 17 1;
#X connect 21 0 4 0;
#X connect 23 0 25 0;
#X connect 24 0 26 0;
#X connect 25 0 28 1;
#X connect 26 0 28 1;
#X connect 27 0 28 0;
#X connect 28 0 17 0;
#X connect 29 0 27 1;
#X restore 705 638 pd slider_ui;
#X floatatom 1047 202 5 0 0 0 - - -;
#X obj 1259 155 cnv 15 210 260 empty empty Breakbeat_mode 20 12 0 14
-237308 -66577 0;
#X obj 1280 184 extra/sv \$1_\$2_looper_inverse;
#X obj 1279 230 extra/sv \$1_\$2_looper_slice;
#X obj 1279 272 extra/sv \$1_\$2_looper_start;
#X floatatom 1280 207 5 0 0 0 - - -;
#X floatatom 1279 251 5 0 0 0 - - -;
#X floatatom 1279 294 5 0 0 0 - - -;
#N canvas 386 241 450 300 managePlayPress 0;
#X obj 197 19 inlet;
#X obj 131 148 spigot;
#X obj 209 148 spigot;
#X obj 269 148 spigot;
#X obj 302 122 == 3;
#X obj 242 122 == 2;
#X obj 164 122 == 1;
#X obj 325 35 loadbang;
#X obj 324 76 i \$3;
#X obj 131 250 outlet;
#X text 443 42 Manage action on play button;
#X text 445 62 according to the 3rd arg aka mode arg;
#X text 447 95 1 Classic;
#X text 467 115 overdub;
#X text 445 135 2 breakbeat;
#X text 468 153 no overdub;
#X text 443 175 3 Sampler;
#X text 466 193 countdown \, size fixed ?;
#X obj 264 248 outlet;
#X connect 0 0 1 0;
#X connect 0 0 2 0;
#X connect 0 0 3 0;
#X connect 1 0 9 0;
#X connect 2 0 9 0;
#X connect 3 0 18 0;
#X connect 4 0 3 1;
#X connect 5 0 2 1;
#X connect 6 0 1 1;
#X connect 7 0 8 0;
#X connect 8 0 4 0;
#X connect 8 0 5 0;
#X connect 8 0 6 0;
#X restore 519 209 pd managePlayPress;
#N canvas 1710 41 450 300 managePlayingSampler 0;
#X obj 201 28 inlet;
#X obj 180 133 s \$0_playsampler_loop;
#X text 276 99 Easy as it is;
#X obj 144 52 tgl 15 0 empty empty empty 17 7 0 10 -262144 -1 -1 0
1;
#X connect 0 0 1 0;
#X connect 3 0 1 0;
#X restore 664 309 pd managePlayingSampler;
#X text 635 211 according to \$3;
#X obj 662 772 hip~ 5;
#X obj 661 670 tabread4~ \$0_loop0;
#N canvas 2118 0 1242 661 timecompression 0;
#X obj 23 352 outlet~;
#X obj 15 -57 inlet~;
#X obj 93 79 t f b;
#X floatatom 53 52 5 0 0 0 - - -;
#X floatatom 93 123 6 0 0 1 cents - -;
#X obj 252 106 loadbang;
#X obj 155 172 harmv2~ \$0-harm;
#X msg 256 150 1;
#X obj 68 -35 delwrite~ \$0-harm-del 500;
#X msg 168 146 64;
#X msg 194 147 0;
#X floatatom 604 146 10 0 0 0 - - -;
#X obj 515 37 / 1000;
#X obj 515 68 pow -1;
#X obj 515 94 * 60;
#X floatatom 386 133 10 0 0 0 - - -;
#X obj 417 -1 r \$0_loop_tempo;
#X obj 473 166 t b f;
#X obj 603 103 extra/sv tempo;
#X obj 456 133 s \$1_\$2_realtempo_toUI;
#X floatatom 415 317 10 0 0 0 - - -;
#X floatatom 418 502 10 0 0 0 - - -;
#X obj 386 229 - 1;
#X obj 415 288 / 1;
#X obj 386 160 t f f;
#X obj 403 410 f 0;
#X obj 441 409 f 0;
#X obj 415 337 t f f;
#X obj 414 359 > 0;
#X obj 413 380 sel 1 0;
#X floatatom 413 258 10 0 0 0 - - -;
#X obj 15 311 *~ 1;
#X obj 77 311 *~ 0;
#X obj 51 193 tgl 30 0 empty empty empty 17 7 0 10 -262144 -1 -1 0
1;
#X obj 72 252 == 0;
#X text 122 312 by pass timecompression =if transpose=0;
#X obj 52 123 == 0;
#X obj 93 104 * 10;
#X obj 386 188 i 0;
#X floatatom 136 80 10 0 0 0 - - -;
#X obj 128 12 extra/sv global_transpose;
#X obj 93 51 + 0;
#X obj 415 528 s \$0_loop_transpose;
#X obj 88 -7 r \$0_loop_transpose;
#X msg 681 43 160;
#X msg 632 45 120;
#X obj 441 432 * 150;
#X msg 721 50 80;
#X msg 772 56 100;
#X obj 402 432 * 205;
#X connect 1 0 8 0;
#X connect 1 0 31 0;
#X connect 2 0 37 0;
#X connect 3 0 2 0;
#X connect 4 0 6 0;
#X connect 5 0 7 0;
#X connect 5 0 9 0;
#X connect 5 0 10 0;
#X connect 6 0 32 0;
#X connect 7 0 6 3;
#X connect 9 0 6 1;
#X connect 10 0 6 2;
#X connect 11 0 17 0;
#X connect 12 0 13 0;
#X connect 13 0 14 0;
#X connect 15 0 24 0;
#X connect 16 0 19 0;
#X connect 16 0 15 0;
#X connect 17 0 22 0;
#X connect 17 1 22 1;
#X connect 18 0 11 0;
#X connect 20 0 27 0;
#X connect 21 0 42 0;
#X connect 22 0 30 0;
#X connect 23 0 20 0;
#X connect 24 0 38 0;
#X connect 24 1 23 1;
#X connect 25 0 49 0;
#X connect 26 0 46 0;
#X connect 27 0 28 0;
#X connect 27 1 26 1;
#X connect 27 1 25 1;
#X connect 28 0 29 0;
#X connect 29 0 25 0;
#X connect 29 1 26 0;
#X connect 30 0 23 0;
#X connect 31 0 0 0;
#X connect 32 0 0 0;
#X connect 33 0 34 0;
#X connect 33 0 31 1;
#X connect 34 0 32 1;
#X connect 36 0 33 0;
#X connect 37 0 4 0;
#X connect 38 0 22 0;
#X connect 41 0 2 0;
#X connect 41 0 36 0;
#X connect 41 0 39 0;
#X connect 43 0 41 0;
#X connect 44 0 18 1;
#X connect 45 0 18 1;
#X connect 46 0 21 0;
#X connect 47 0 18 1;
#X connect 48 0 18 1;
#X connect 49 0 21 0;
#X restore 654 721 pd timecompression;
#X obj 338 374 i \$0;
#X obj 338 327 bng 15 250 50 0 empty empty empty 17 7 0 10 -262144
-1 -1;
#X obj 336 419 print;
#X obj 484 228 tgl 15 0 empty empty empty 17 7 0 10 -262144 -1 -1 0
1;
#X obj 517 233 extra/short_or_long;
#N canvas 335 133 450 300 release_sound 0;
#X obj 102 71 inlet~;
#X obj 97 236 outlet~;
#X obj 209 7 extra/sv \$1_\$2_is_loop_playing;
#X obj 172 141 line~;
#X obj 209 28 sel 0 1;
#X msg 196 83 0 1;
#X obj 237 81 1 1;
#X obj 102 157 *~;
#X obj 387 120 r tempoStopIn;
#X obj 296 120 r tempoGoIn;
#X obj 101 195 *~;
#X msg 297 147 1 1;
#X msg 388 142 0 1;
#X obj 174 184 line~;
#X connect 0 0 7 0;
#X connect 2 0 4 0;
#X connect 3 0 7 1;
#X connect 4 0 5 0;
#X connect 4 1 6 0;
#X connect 4 2 6 0;
#X connect 5 0 3 0;
#X connect 6 0 3 0;
#X connect 7 0 10 0;
#X connect 8 0 12 0;
#X connect 9 0 11 0;
#X connect 10 0 1 0;
#X connect 11 0 13 0;
#X connect 12 0 13 0;
#X connect 13 0 10 1;
#X restore 661 693 pd release_sound;
#X connect 1 0 27 0;
#X connect 3 0 33 0;
#X connect 4 0 6 0;
#X connect 4 0 127 0;
#X connect 6 0 109 0;
#X connect 7 0 109 1;
#X connect 8 0 127 0;
#X connect 9 0 162 0;
#X connect 11 0 14 1;
#X connect 11 0 126 0;
#X connect 12 0 13 0;
#X connect 13 0 126 0;
#X connect 15 0 77 0;
#X connect 15 0 80 0;
#X connect 17 0 179 0;
#X connect 18 0 3 0;
#X connect 19 0 4 0;
#X connect 20 0 169 0;
#X connect 21 0 19 0;
#X connect 21 1 18 0;
#X connect 27 1 39 0;
#X connect 29 0 28 0;
#X connect 31 0 30 0;
#X connect 33 0 7 0;
#X connect 33 1 35 0;
#X connect 33 2 127 0;
#X connect 34 0 30 1;
#X connect 35 0 37 1;
#X connect 36 0 92 0;
#X connect 39 0 119 0;
#X connect 40 0 93 0;
#X connect 42 0 111 0;
#X connect 43 0 46 0;
#X connect 43 0 167 0;
#X connect 45 0 47 1;
#X connect 45 0 113 1;
#X connect 45 0 117 1;
#X connect 45 0 116 1;
#X connect 49 0 50 0;
#X connect 50 0 51 1;
#X connect 51 0 27 0;
#X connect 52 0 51 0;
#X connect 53 0 54 0;
#X connect 54 0 55 1;
#X connect 55 0 179 0;
#X connect 56 0 55 0;
#X connect 58 1 59 0;
#X connect 58 2 60 0;
#X connect 58 3 61 0;
#X connect 63 0 73 0;
#X connect 64 0 66 0;
#X connect 64 0 128 0;
#X connect 66 0 108 0;
#X connect 67 0 108 1;
#X connect 68 0 128 0;
#X connect 69 0 72 0;
#X connect 70 0 63 0;
#X connect 71 0 64 0;
#X connect 72 0 71 0;
#X connect 72 1 70 0;
#X connect 73 0 74 0;
#X connect 73 1 67 0;
#X connect 73 2 128 0;
#X connect 74 0 75 1;
#X connect 76 0 21 0;
#X connect 77 0 78 0;
#X connect 77 1 79 0;
#X connect 78 0 152 0;
#X connect 79 0 11 0;
#X connect 80 0 82 1;
#X connect 81 0 82 0;
#X connect 82 0 154 0;
#X connect 82 0 155 0;
#X connect 83 0 121 0;
#X connect 83 0 126 0;
#X connect 84 0 123 0;
#X connect 84 0 126 0;
#X connect 85 0 26 0;
#X connect 86 0 87 0;
#X connect 88 0 90 0;
#X connect 89 0 91 0;
#X connect 94 0 97 0;
#X connect 95 0 98 0;
#X connect 96 0 99 0;
#X connect 100 0 101 0;
#X connect 102 0 20 0;
#X connect 103 0 104 0;
#X connect 103 0 102 0;
#X connect 104 0 105 0;
#X connect 104 1 106 0;
#X connect 107 0 42 0;
#X connect 111 0 44 0;
#X connect 111 1 166 0;
#X connect 111 2 43 0;
#X connect 111 3 112 0;
#X connect 111 4 45 0;
#X connect 112 0 110 0;
#X connect 114 0 27 0;
#X connect 115 0 179 0;
#X connect 119 0 22 0;
#X connect 124 0 87 0;
#X connect 129 0 171 0;
#X connect 131 0 132 0;
#X connect 131 0 135 0;
#X connect 131 0 137 0;
#X connect 134 0 133 0;
#X connect 134 0 136 0;
#X connect 134 0 138 0;
#X connect 139 0 141 0;
#X connect 140 0 139 0;
#X connect 140 0 145 0;
#X connect 141 0 151 0;
#X connect 142 0 140 0;
#X connect 142 0 149 0;
#X connect 143 0 183 0;
#X connect 144 0 126 0;
#X connect 145 0 146 0;
#X connect 145 0 168 0;
#X connect 146 0 147 0;
#X connect 147 0 150 0;
#X connect 152 0 14 0;
#X connect 152 0 126 0;
#X connect 153 0 142 0;
#X connect 153 0 159 0;
#X connect 154 0 83 0;
#X connect 154 1 142 0;
#X connect 154 2 84 0;
#X connect 156 0 153 0;
#X connect 157 0 163 0;
#X connect 159 0 158 0;
#X connect 160 0 58 0;
#X connect 161 0 160 0;
#X connect 162 0 120 0;
#X connect 164 0 100 0;
#X connect 166 0 148 1;
#X connect 167 0 118 1;
#X connect 167 0 122 0;
#X connect 169 0 170 0;
#X connect 169 0 183 0;
#X connect 173 0 176 0;
#X connect 174 0 177 0;
#X connect 175 0 178 0;
#X connect 179 0 188 0;
#X connect 179 0 189 0;
#X connect 179 1 180 0;
#X connect 182 0 58 0;
#X connect 183 0 190 0;
#X connect 184 0 13 1;
#X connect 184 0 182 0;
#X connect 185 0 187 0;
#X connect 186 0 185 0;
#X connect 189 0 100 0;
#X connect 189 1 157 0;
#X connect 190 0 184 0;
