#N canvas 2 107 641 356 10;
#X obj 5 -432 cnv 15 123 20 empty empty MICROPHONE 3 9 0 20 -170675
-66577 0;
#X obj 15 -374 vu 15 120 empty empty -1 -8 0 10 -66577 -1 1 0;
#X obj 237 -406 cnv 15 200 350 empty empty Threshold 20 12 0 14 -233017
-66577 0;
#X obj 165 12 vsl 15 128 0 127 0 0 empty empty empty 0 -9 0 10 -262144
-1 -1 0 1;
#X obj 250 30 outlet~;
#X obj 301 30 outlet~;
#X floatatom 295 -295 5 0 0 0 - - -, f 5;
#X obj 295 -149 line~;
#X msg 295 -183 1 10;
#X obj 239 -115 *~;
#X obj 295 -236 sel 1;
#X msg 331 -183 0 100;
#X obj 295 -336 env~ 1024;
#X obj 295 -260 > 40;
#X obj 464 -412 cnv 15 200 350 empty empty Setting-Threshold 20 12
0 14 -233017 -66577 0;
#X obj 146 -307 env~ 4096 4096;
#X obj 146 -247 s mic_prevumetre;
#X obj 47 -3 vu 15 120 empty empty -1 -8 0 10 -66577 -1 1 0;
#X obj 14 -397 r mic_prevumetre;
#N canvas 579 250 641 372 init 1;
#X obj 175 44 loadbang;
#X msg 222 99 0;
#X obj 269 107 extra/sv mic_threshold;
#X msg 312 79 40;
#X msg 452 83 100;
#X floatatom 453 160 5 0 0 0 - - -, f 5;
#X floatatom 363 160 5 0 0 0 - - -, f 5;
#X obj 434 111 extra/svsave mic_gain;
#X obj 141 166 extra/svsave mic_volume;
#X obj 141 196 extra/svsave mic_sendA;
#X obj 141 226 extra/svsave mic_sendB;
#X connect 0 0 1 0;
#X connect 0 0 3 0;
#X connect 2 0 6 0;
#X connect 3 0 2 1;
#X connect 4 0 7 1;
#X connect 7 0 5 0;
#X restore 496 -130 pd init;
#X obj 474 -371 extra/sv mic_threshold;
#X obj 499 53 rmstodb;
#X obj 146 -281 - 100;
#X obj 44 -26 r mic_volume_vumetre;
#X obj 127 147 extra/sv mic_volume;
#X obj 360 30 outlet~;
#X obj 411 30 outlet~;
#X obj 237 -532 cnv 15 200 120 empty empty Setting-GAIN 20 12 0 14
-233017 -66577 0;
#X obj 294 -511 extra/sv mic_gain;
#X obj 237 -464 inlet~;
#X obj 238 -442 *~ 1;
#X obj 292 -490 f 0;
#X obj 292 -466 / 100;
#X obj 250 -43 mixer mic;
#X connect 3 0 24 1;
#X connect 6 0 13 0;
#X connect 7 0 9 1;
#X connect 8 0 7 0;
#X connect 9 0 33 0;
#X connect 10 0 8 0;
#X connect 10 1 11 0;
#X connect 11 0 7 0;
#X connect 12 0 6 0;
#X connect 13 0 10 0;
#X connect 15 0 22 0;
#X connect 18 0 1 0;
#X connect 20 0 13 1;
#X connect 22 0 16 0;
#X connect 23 0 17 0;
#X connect 28 0 31 0;
#X connect 29 0 30 0;
#X connect 30 0 12 0;
#X connect 30 0 15 0;
#X connect 30 0 9 0;
#X connect 31 0 32 0;
#X connect 32 0 30 1;
#X connect 33 0 4 0;
#X connect 33 1 5 0;
#X connect 33 2 25 0;
#X connect 33 3 26 0;
#X coords 0 356 1 355 132 500 0;
