#N canvas 34 129 775 424 10;
#X obj 5 -364 cnv 15 123 20 empty empty MICROPHONE 3 9 0 20 -170675
-66577 0;
#X obj 15 -306 vu 15 120 empty empty -1 -8 0 10 -66577 -1 1 0;
#X obj 237 -338 cnv 15 200 350 empty empty Threshold 20 12 0 14 -233017
-66577 0;
#X obj 250 98 outlet~;
#X obj 301 98 outlet~;
#X floatatom 365 -227 5 0 0 0 - - -;
#X obj 365 -81 line~;
#X msg 365 -115 1 10;
#X obj 309 -47 *~;
#X obj 365 -168 sel 1;
#X msg 401 -115 0 100;
#X obj 365 -268 env~ 1024;
#X obj 365 -192 > 40;
#X obj 464 -344 cnv 15 200 350 empty empty Setting-Threshold 20 12
0 14 -233017 -66577 0;
#X obj 245 -199 env~ 4096 4096;
#X obj 245 -139 s mic_prevumetre;
#X obj 121 -307 vu 15 120 empty empty -1 -8 0 10 -66577 -1 1 0;
#X obj 14 -329 r mic_prevumetre;
#N canvas 579 250 641 372 init 0;
#X obj 175 44 loadbang;
#X msg 222 99 0;
#X obj 269 107 extra/sv mic_threshold;
#X msg 312 79 40;
#X msg 452 83 100;
#X floatatom 453 160 5 0 0 0 - - -;
#X floatatom 363 160 5 0 0 0 - - -;
#X obj 434 111 extra/svsave mic_gain;
#X obj 141 166 extra/svsave mic_volume;
#X obj 141 196 extra/svsave mic_sendA;
#X obj 141 226 extra/svsave mic_sendB;
#X connect 0 0 1 0;
#X connect 0 0 3 0;
#X connect 2 0 6 0;
#X connect 3 0 2 1;
#X connect 4 0 7 1;
#X connect 7 0 5 0;
#X restore 164 -365 pd init;
#X obj 474 -303 extra/sv mic_threshold;
#X obj 118 -330 r mic_volume_vumetre;
#X obj 360 98 outlet~;
#X obj 411 98 outlet~;
#X obj 237 -464 cnv 15 200 120 empty empty Setting-GAIN 20 12 0 14
-233017 -66577 0;
#X obj 294 -443 extra/sv mic_gain;
#X obj 237 -396 inlet~;
#X obj 245 -365 *~ 1;
#X obj 292 -422 f 0;
#X obj 292 -398 / 100;
#X obj 250 25 mixer mic;
#X obj 245 -286 hip~ 8;
#X obj 245 -173 - 90;
#X connect 5 0 12 0;
#X connect 6 0 8 1;
#X connect 7 0 6 0;
#X connect 8 0 29 0;
#X connect 9 0 7 0;
#X connect 9 1 10 0;
#X connect 10 0 6 0;
#X connect 11 0 5 0;
#X connect 12 0 9 0;
#X connect 14 0 31 0;
#X connect 17 0 1 0;
#X connect 19 0 12 1;
#X connect 20 0 16 0;
#X connect 24 0 27 0;
#X connect 25 0 26 0;
#X connect 26 0 30 0;
#X connect 27 0 28 0;
#X connect 28 0 26 1;
#X connect 29 0 3 0;
#X connect 29 1 4 0;
#X connect 29 2 21 0;
#X connect 29 3 22 0;
#X connect 30 0 14 0;
#X connect 30 0 8 0;
#X connect 30 0 11 0;
#X connect 31 0 15 0;
#X coords 0 424 1 423 132 500 0;
