#N canvas 88 112 640 426 10;
#X obj 35 33 inlet~;
#X obj 31 154 outlet~;
#X obj 183 154 outlet~;
#X obj 320 154 outlet~;
#X obj 474 154 outlet~;
#X text 31 175 RAW;
#X text 184 175 VOLUME;
#X obj 184 50 *~ 1;
#X obj 205 -107 extra/sv \$1_volume;
#X obj 322 50 *~ 1;
#X obj 343 23 / 127;
#X obj 343 -5 extra/sv \$1_sendA;
#X obj 479 50 *~ 1;
#X obj 500 26 / 127;
#X obj 500 -2 extra/sv \$1_sendB;
#X obj 165 200 env~ 4096 4096;
#X obj 165 251 s \$1_volume_vumetre;
#X floatatom 222 23 10 0 0 0 - - -, f 10;
#X floatatom 260 -60 5 0 0 0 - - -, f 5;
#X text 322 173 SEND A;
#X text 477 174 send B;
#X floatatom 158 -5 5 0 0 0 - - -, f 5;
#X obj 205 -34 dbtopow;
#X obj 204 -84 / 4;
#X obj 208 -58 + 80;
#X obj 165 226 - 95;
#X connect 0 0 1 0;
#X connect 0 0 7 0;
#X connect 0 0 9 0;
#X connect 0 0 12 0;
#X connect 7 0 2 0;
#X connect 7 0 15 0;
#X connect 8 0 23 0;
#X connect 9 0 3 0;
#X connect 10 0 9 1;
#X connect 11 0 10 0;
#X connect 12 0 4 0;
#X connect 13 0 12 1;
#X connect 14 0 13 0;
#X connect 15 0 25 0;
#X connect 17 0 7 1;
#X connect 18 0 22 0;
#X connect 22 0 17 0;
#X connect 23 0 24 0;
#X connect 24 0 21 0;
#X connect 24 0 22 0;
#X connect 25 0 16 0;
