#N canvas 24 77 640 426 10;
#X obj 35 33 inlet~;
#X obj 31 154 outlet~;
#X obj 183 154 outlet~;
#X obj 320 154 outlet~;
#X obj 474 154 outlet~;
#X text 31 175 RAW;
#X text 184 175 VOLUME;
#X obj 184 50 *~ 1;
#X obj 205 -107 extra/sv \$1_volume;
#X obj 343 -45 extra/sv \$1_sendA;
#X obj 500 -47 extra/sv \$1_sendB;
#X obj 165 200 env~ 4096 4096;
#X obj 165 251 s \$1_volume_vumetre;
#X floatatom 205 -12 10 0 0 0 - - -;
#X floatatom 260 -60 5 0 0 0 - - -;
#X text 322 173 SEND A;
#X text 477 174 send B;
#X floatatom 158 -5 5 0 0 0 - - -;
#X obj 205 -34 dbtopow;
#X obj 204 -84 / 4;
#X obj 208 -58 + 80;
#X obj 165 226 - 90;
#X floatatom 389 39 5 0 0 0 - - -;
#X floatatom 382 68 5 0 0 0 - - -;
#X obj 500 5 t b f;
#X obj 344 3 t b f;
#X obj 343 25 * 0;
#X obj 499 25 * 0;
#X obj 323 64 *~ 0;
#X obj 474 108 *~ 0;
#X obj 343 -17 / 90;
#X obj 500 -19 / 90;
#X obj 206 7 - 0.01;
#X connect 0 0 1 0;
#X connect 0 0 7 0;
#X connect 0 0 28 0;
#X connect 0 0 29 0;
#X connect 7 0 2 0;
#X connect 7 0 11 0;
#X connect 8 0 19 0;
#X connect 9 0 30 0;
#X connect 10 0 31 0;
#X connect 11 0 21 0;
#X connect 13 0 32 0;
#X connect 14 0 18 0;
#X connect 18 0 13 0;
#X connect 19 0 20 0;
#X connect 20 0 17 0;
#X connect 20 0 18 0;
#X connect 21 0 12 0;
#X connect 24 0 27 0;
#X connect 24 1 27 1;
#X connect 25 0 26 0;
#X connect 25 1 26 1;
#X connect 25 1 22 0;
#X connect 26 0 28 1;
#X connect 26 0 23 0;
#X connect 27 0 29 1;
#X connect 28 0 3 0;
#X connect 29 0 4 0;
#X connect 30 0 25 0;
#X connect 31 0 24 0;
#X connect 32 0 7 1;
#X connect 32 0 26 0;
#X connect 32 0 27 0;
