#N canvas 402 135 640 426 10;
#X obj 35 33 inlet~;
#X obj 31 154 outlet~;
#X obj 183 154 outlet~;
#X obj 320 154 outlet~;
#X obj 474 154 outlet~;
#X text 31 175 RAW;
#X text 184 175 VOLUME;
#X obj 184 50 *~ 1;
#X obj 205 -331 extra/sv \$1_volume;
#X obj 343 -45 extra/sv \$1_sendA;
#X obj 500 -47 extra/sv \$1_sendB;
#X obj 165 200 env~ 4096 4096;
#X obj 165 251 s \$1_volume_vumetre;
#X text 322 173 SEND A;
#X text 477 174 send B;
#X obj 165 226 - 90;
#X floatatom 389 39 5 0 0 0 - - -;
#X floatatom 382 68 5 0 0 0 - - -;
#X obj 500 5 t b f;
#X obj 344 3 t b f;
#X obj 343 25 * 0;
#X obj 499 25 * 0;
#X obj 323 64 *~ 0;
#X obj 474 108 *~ 0;
#X obj 343 -17 / 90;
#X obj 500 -19 / 90;
#X obj 206 7 * 1;
#X obj 205 -237 / 127;
#X floatatom 205 -55 10 0 0 0 - - -;
#X connect 0 0 1 0;
#X connect 0 0 7 0;
#X connect 0 0 22 0;
#X connect 0 0 23 0;
#X connect 7 0 2 0;
#X connect 7 0 11 0;
#X connect 8 0 27 0;
#X connect 9 0 24 0;
#X connect 10 0 25 0;
#X connect 11 0 15 0;
#X connect 15 0 12 0;
#X connect 18 0 21 0;
#X connect 18 1 21 1;
#X connect 19 0 20 0;
#X connect 19 1 20 1;
#X connect 19 1 16 0;
#X connect 20 0 22 1;
#X connect 20 0 17 0;
#X connect 21 0 23 1;
#X connect 22 0 3 0;
#X connect 23 0 4 0;
#X connect 24 0 19 0;
#X connect 25 0 18 0;
#X connect 26 0 7 1;
#X connect 26 0 20 0;
#X connect 26 0 21 0;
#X connect 27 0 28 0;
#X connect 28 0 26 0;
