#N canvas 128 58 882 522 10;
#X obj 12 -401 bng 15 250 50 0 empty empty empty 17 7 0 10 -262144
-1 -1;
#X floatatom 223 -393 5 0 0 0 - - -;
#X obj 223 -308 * 1;
#X obj 223 -357 t b f;
#X obj 11 -440 inlet;
#X obj 223 -243 * 1000;
#X obj 562 -202 hradio 15 1 0 8 empty empty empty 0 -8 0 10 -262144
-1 -1 0;
#X obj 223 98 phasor~;
#X obj 223 72 sig~;
#X obj 386 -46 f 0;
#X obj 223 46 pow -1;
#X obj 222 321 outlet~;
#X obj 223 20 /;
#X floatatom 428 0 5 0 0 0 - - -;
#X obj 222 237 *~;
#X obj 387 24 f 0;
#X obj 392 88 / 1;
#X obj 428 -27 pow 2;
#X msg 428 -48 2;
#X obj 421 -83 t b b f;
#X obj 654 240 * 1;
#X obj 653 -71 hradio 15 1 0 8 empty empty empty 0 -8 0 10 -262144
-1 -1 0;
#X obj 654 264 sig~;
#X obj 29 172 sig~ 1;
#X obj 223 149 *~ 1;
#X obj 39 26 tgl 15 0 empty empty empty 17 7 0 10 -262144 -1 -1 0 1
;
#X obj 39 52 sel 0 1;
#X msg 90 100 1;
#X msg 21 100 0;
#X msg 60 100 1;
#X msg 121 100 -1;
#X obj 653 -19 / 8;
#X obj 653 185 * 1;
#X obj 223 -31 / 1000;
#X obj 223 -57 f 0;
#X obj 222 283 +~;
#X obj 653 212 i 0;
#X obj 401 137 t b f;
#X obj 372 -228 r tempo_click_bang;
#X text 341 -253 set the portion of reading;
#X text 231 -273 duration in msec of reading;
#X text -13 -27 Invert reading;
#X text 202 -6 set phasor frequency;
#X obj 223 203 +~;
#X obj 460 -142 change;
#X obj 335 -437 extra/sv tempo;
#X obj 12 -363 t b b;
#X floatatom 294 -95 10 0 0 0 - - -;
#X floatatom 258 -156 10 0 0 0 - - -;
#X obj 258 -137 * 44.1;
#X obj 460 -161 i 0;
#X obj 375 -141 loadbang;
#X msg 381 -108 0;
#X obj 257 -96 - 2;
#X obj 278 44 r \$0_loop_phase;
#X obj 41 -270 s \$0_loop_phase;
#X text 38 -416 comment;
#X obj -46 -214 extra/sv \$1_\$2_is_loop_playing;
#X msg 12 -321 1;
#X obj -37 -39 bng 15 250 50 0 empty empty empty 17 7 0 10 -262144
-1 -1;
#X obj 257 -176 r \$1_\$2_timer;
#X obj 223 -437 r \$1_\$2_loop_size;
#X obj -37 -3 extra/sv \$1_\$2_loop_inverse;
#X obj 509 -178 extra/sv \$1_\$2_loop_slice;
#X obj 654 -47 extra/sv \$1_\$2_loop_start;
#X obj 334 -360 / 1000;
#X msg 96 -317 0;
#X msg 39 -320 0.9;
#X msg 130 -317 0.02;
#X obj 124 -442 r \$1_\$2_timer;
#X obj 95 -439 f 0;
#X obj 100 -390 /;
#X floatatom 101 -365 10 0 0 0 - - -;
#X floatatom 95 -462 10 0 0 0 - - -;
#X obj 77 -340 f 0;
#X obj 95 -507 loadbang;
#X obj 106 -413 t b f;
#X msg 95 -487 0;
#X msg 134 -489 100;
#X connect 0 0 46 0;
#X connect 1 0 3 0;
#X connect 2 0 5 0;
#X connect 3 0 2 0;
#X connect 3 1 2 1;
#X connect 4 0 0 0;
#X connect 5 0 34 0;
#X connect 6 0 63 1;
#X connect 7 0 24 0;
#X connect 8 0 7 0;
#X connect 9 0 15 0;
#X connect 10 0 8 0;
#X connect 12 0 10 0;
#X connect 13 0 12 1;
#X connect 13 0 32 1;
#X connect 13 0 16 1;
#X connect 14 0 35 0;
#X connect 15 0 16 0;
#X connect 16 0 14 1;
#X connect 16 0 37 0;
#X connect 17 0 13 0;
#X connect 18 0 17 0;
#X connect 19 0 9 0;
#X connect 19 0 34 0;
#X connect 19 1 18 0;
#X connect 19 2 17 1;
#X connect 20 0 22 0;
#X connect 21 0 64 1;
#X connect 22 0 35 1;
#X connect 23 0 43 1;
#X connect 24 0 43 0;
#X connect 25 0 26 0;
#X connect 26 0 27 0;
#X connect 26 0 28 0;
#X connect 26 1 30 0;
#X connect 26 1 29 0;
#X connect 27 0 24 1;
#X connect 28 0 23 0;
#X connect 29 0 23 0;
#X connect 30 0 24 1;
#X connect 31 0 32 0;
#X connect 32 0 36 0;
#X connect 33 0 12 0;
#X connect 34 0 33 0;
#X connect 35 0 11 0;
#X connect 36 0 20 0;
#X connect 37 0 32 0;
#X connect 37 1 20 1;
#X connect 38 0 50 0;
#X connect 43 0 14 0;
#X connect 44 0 19 0;
#X connect 45 0 65 0;
#X connect 46 0 58 0;
#X connect 46 1 74 0;
#X connect 48 0 49 0;
#X connect 49 0 53 0;
#X connect 50 0 44 0;
#X connect 51 0 52 0;
#X connect 52 0 19 0;
#X connect 53 0 9 0;
#X connect 54 0 7 1;
#X connect 58 0 57 1;
#X connect 59 0 62 0;
#X connect 60 0 48 0;
#X connect 61 0 1 0;
#X connect 62 0 25 0;
#X connect 63 0 50 1;
#X connect 64 0 31 0;
#X connect 65 0 2 0;
#X connect 66 0 55 0;
#X connect 67 0 55 0;
#X connect 68 0 55 0;
#X connect 69 0 76 0;
#X connect 70 0 71 0;
#X connect 71 0 72 0;
#X connect 72 0 74 1;
#X connect 73 0 70 0;
#X connect 74 0 55 0;
#X connect 75 0 77 0;
#X connect 76 0 71 0;
#X connect 76 1 71 1;
#X connect 77 0 73 0;
#X connect 78 0 73 0;
