#N canvas 811 332 759 569 10;
#X obj 104 473 outlet~;
#X text 184 407 2 = nbbar*1/tempofinal;
#X floatatom 172 71 5 0 0 0 - - -;
#X obj 375 144 pow -1;
#X obj 375 117 / 60;
#X obj 172 118 * 1;
#X floatatom 450 123 5 0 0 0 - - -;
#X text 185 424 1 = nbbar*1/tempo;
#X obj 533 336 s \$0_loop_precession;
#X obj -161 293 r tempoStopOut;
#X msg 103 209 0;
#X obj 535 126 / 1000;
#X obj 535 157 pow -1;
#X obj 535 183 * 60;
#X floatatom 534 220 5 0 0 0 - - -;
#X obj 533 299 / 1;
#X obj 535 87 r \$0_loop_tempo;
#X obj 450 145 i 0;
#X obj 533 266 t b f;
#X obj 172 91 t b f;
#X obj 47 182 t b b;
#X obj 47 241 f 0;
#X obj 47 44 inlet;
#X msg -161 340 300;
#X obj 351 22 extra/sv tempo;
#X text 419 -7 TODO : get global tempo when loop_tempo changed;
#X obj 574 221 s \$1_\$2_realtempo_toUI;
#X obj -186 264 r \$1_\$2_loop_clear;
#X obj -164 187 r \$0_playstop_loop;
#X obj -163 217 sel 0;
#X floatatom 172 193 8 0 0 0 - - -;
#X text 89 157 this change pitch;
#X text 222 197 this don't change pitch;
#X obj 467 23 r realtime-correction;
#X floatatom 375 283 5 0 0 0 - - -;
#X obj 172 141 * 1000;
#X obj 375 247 * 1;
#X floatatom 142 259 10 0 0 0 - - -;
#X obj 142 280 * 44.1;
#X obj 47 294 pack f f;
#X msg 47 327 \$2 \$1;
#X obj 375 76 / 1;
#X obj 13 331 bng 15 250 50 0 empty empty empty 17 7 0 10 -262144 -1
-1;
#X obj 47 73 bng 15 250 50 0 empty empty empty 17 7 0 10 -262144 -1
-1;
#X obj 142 234 r \$1_\$2_timer;
#X obj 172 49 r \$1_\$2_loop_size;
#X obj 103 365 vline~;
#X connect 2 0 19 0;
#X connect 3 0 36 0;
#X connect 4 0 3 0;
#X connect 5 0 35 0;
#X connect 6 0 17 0;
#X connect 9 0 23 0;
#X connect 10 0 46 0;
#X connect 11 0 12 0;
#X connect 12 0 13 0;
#X connect 13 0 14 0;
#X connect 14 0 18 0;
#X connect 15 0 8 0;
#X connect 16 0 11 0;
#X connect 16 0 26 0;
#X connect 17 0 15 0;
#X connect 18 0 15 0;
#X connect 18 1 15 1;
#X connect 19 0 5 0;
#X connect 19 1 5 1;
#X connect 20 0 21 0;
#X connect 20 1 10 0;
#X connect 21 0 39 0;
#X connect 22 0 43 0;
#X connect 23 0 46 0;
#X connect 24 0 41 0;
#X connect 27 0 23 0;
#X connect 28 0 29 0;
#X connect 29 0 23 0;
#X connect 30 0 21 1;
#X connect 33 0 41 1;
#X connect 35 0 30 0;
#X connect 36 0 5 0;
#X connect 36 0 34 0;
#X connect 37 0 38 0;
#X connect 38 0 39 1;
#X connect 39 0 40 0;
#X connect 39 0 42 0;
#X connect 40 0 46 0;
#X connect 41 0 6 0;
#X connect 41 0 4 0;
#X connect 43 0 20 0;
#X connect 44 0 37 0;
#X connect 45 0 2 0;
#X connect 46 0 0 0;
