#N canvas 189 108 1006 635 12;
#N canvas 578 435 401 202 table 0;
#N canvas 0 50 450 300 (subpatch) 0;
#X array readsound_\$1_\$2 66000 float 0;
#X coords 0 -1 65999 1 300 130 1;
#X restore 46 193 graph;
#X obj 54 57 sel 1;
#X msg 54 86 66000;
#X obj 54 29 extra/sv \$1_readsound_\$2_recmode;
#X obj 54 113 array size readsound_\$1_\$2;
#X connect 1 0 2 0;
#X connect 2 0 4 0;
#X connect 3 0 1 0;
#X restore 124 -35 pd table;
#N canvas 972 164 728 558 ouput-effect 0;
#X obj 181 191 *~ 1;
#X obj -90 113 inlet~;
#X obj -89 260 outlet~;
#X obj 172 244 outlet~;
#X obj -89 211 *~ 1;
#X obj -4 111 r \$0_volume;
#X obj -4 136 / 255;
#X obj -4 161 * 2;
#X obj 131 109 r \$1_\$2_readloop_volume_fromUI;
#X connect 0 0 3 0;
#X connect 1 0 0 0;
#X connect 1 0 4 0;
#X connect 4 0 2 0;
#X connect 5 0 6 0;
#X connect 6 0 7 0;
#X connect 7 0 4 1;
#X connect 8 0 6 0;
#X restore 515 297 pd ouput-effect;
#X obj 237 59 vsl 50 95 0 200 0 0 \$1_loop_volumeOUT \$1_loop_volumeIN
volume 5 12 0 10 -86735 -262144 -262144 0 0;
#X obj 292 104 vsl 36 50 0 120 0 0 \$1_loop_effect1OUT \$1_loop_effect1IN
delay 3 14 0 10 -86735 -262144 -262144 0 0;
#X obj 222 59 vsl 8 95 0 127 0 0 empty \$1_loop_vumetreIN empty 0 -9
0 10 -228856 -159808 -1 0 1;
#N canvas 411 392 703 360 init 0;
#X floatatom 279 45 4 0 100 0 - - -, f 4;
#X obj 279 65 * 0.001;
#X text 314 45 msec;
#X obj 279 -9 bang;
#X obj 279 -39 loadbang;
#X obj 279 88 s \$0_chunk-size;
#X msg 279 23 40;
#X msg 395 -11 0;
#X obj 436 19 extra/sv \$1_readsound_\$2_isplaying;
#X obj 437 63 extra/sv \$1_readsound_\$2_recmode;
#X connect 0 0 1 0;
#X connect 1 0 5 0;
#X connect 3 0 6 0;
#X connect 4 0 3 0;
#X connect 4 0 7 0;
#X connect 6 0 0 0;
#X connect 7 0 8 1;
#X connect 7 0 9 1;
#X restore 123 -6 pd init;
#X obj 196 253 tgl 15 0 empty empty empty 17 7 0 10 -262144 -1 -1 0
1;
#X obj 258 282 hsl 128 15 0 1 0 0 empty empty empty -2 -8 0 10 -262144
-1 -1 0 1;
#X obj 484 325 cnv 15 650 70 empty empty TO::OUTLET 20 12 0 14 -261682
-66577 0;
#X obj 386 -238 cnv 15 650 70 empty empty FROM::INLET 20 12 0 14 -261682
-66577 0;
#X text 38 -255 RECEIVE FROM SENSOR;
#X obj 876 -235 inlet;
#X obj 632 355 outlet~;
#X obj 515 357 outlet~;
#X obj 515 258 *~ 1;
#X obj 1089 -237 cnv 15 300 100 empty empty empty 20 12 0 14 -233017
-66577 0;
#X obj 1029 339 outlet;
#X obj 1191 -225 r \$1_\$2_click_fromUI;
#X obj 876 -200 change;
#X obj 876 -175 s \$0_volume;
#X obj 515 -235 inlet;
#X obj 398 -48 tgl 45 0 empty empty simply-read 0 -14 0 10 -244370
-1 -1 0 1;
#N canvas 217 77 1011 666 simply-read 0;
#X obj 195 177 bng 15 250 50 0 empty empty empty 17 7 0 10 -262144
-1 -1;
#X msg 149 317 0 \$1;
#X obj 151 443 outlet~;
#X obj 149 346 line~ 0 100;
#X obj 151 406 *~;
#X obj 146 147 sel 0;
#X obj 146 51 route float bang;
#X obj 646 457 line;
#X msg 876 421 0;
#X obj 874 374 r \$0_end;
#X obj 116 316 f 1;
#X obj 186 255 r \$1_\$2_readloop_release_fromUI;
#X obj 149 292 i 500;
#X obj 646 355 i 0;
#X obj 664 329 r \$0_loop_duration;
#X msg 646 414 1 \$1;
#X obj 646 386 / 44;
#X obj 669 242 t b b b;
#X obj 145 1 inlet;
#X obj 387 288 line~;
#X msg 582 260 0;
#X obj 460 227 t b b;
#N canvas 641 348 450 291 createRamp 0;
#X obj 117 58 inlet;
#X text 170 60 bang the ramp;
#X obj 155 85 r \$0_loop_duration;
#X obj 155 161 t f f;
#X floatatom 330 57 5 0 0 0 - - -, f 5;
#X obj 117 219 pack 1 f f;
#X msg 117 247 \$2 \$3;
#X obj 117 280 outlet;
#X obj 155 119 f 0;
#X obj 330 86 t b f;
#X obj 330 21 inlet;
#X msg 383 53 44;
#X obj 383 20 r \$0_resetPitch;
#X obj 194 191 / 44;
#X connect 0 0 5 0;
#X connect 2 0 8 0;
#X connect 3 0 5 1;
#X connect 3 1 13 0;
#X connect 4 0 9 0;
#X connect 5 0 6 0;
#X connect 6 0 7 0;
#X connect 8 0 3 0;
#X connect 9 0 8 0;
#X connect 9 1 13 1;
#X connect 10 0 4 0;
#X connect 11 0 9 0;
#X connect 12 0 11 0;
#X connect 13 0 5 2;
#X restore 455 258 pd createRamp;
#X obj 543 2 inlet;
#X text 612 5 Pitch;
#X obj 646 489 s \$1_readsound_\$2_slider_ui;
#X obj 387 316 tabread4~ readsound_\$1_\$2;
#X obj 61 178 s \$0_end;
#X connect 0 0 10 0;
#X connect 0 0 17 0;
#X connect 0 0 21 0;
#X connect 1 0 3 0;
#X connect 3 0 4 1;
#X connect 4 0 2 0;
#X connect 5 0 12 0;
#X connect 5 0 27 0;
#X connect 5 1 0 0;
#X connect 6 0 5 0;
#X connect 6 1 0 0;
#X connect 7 0 25 0;
#X connect 8 0 7 0;
#X connect 9 0 8 0;
#X connect 10 0 3 0;
#X connect 11 0 12 1;
#X connect 12 0 1 0;
#X connect 13 0 16 0;
#X connect 14 0 13 1;
#X connect 15 0 7 0;
#X connect 16 0 15 0;
#X connect 17 1 13 0;
#X connect 17 2 8 0;
#X connect 18 0 6 0;
#X connect 19 0 26 0;
#X connect 20 0 19 0;
#X connect 21 0 22 0;
#X connect 21 1 20 0;
#X connect 22 0 19 0;
#X connect 23 0 22 1;
#X connect 26 0 4 0;
#X restore 515 229 pd simply-read;
#X obj 705 -234 inlet;
#N canvas 376 143 868 514 simply-record 0;
#X obj 146 17 inlet;
#X obj 146 90 sel 0;
#X obj 146 51 route float bang;
#X obj 81 313 hip~ 5;
#X msg 368 248 bang;
#X text 210 18 <-- record;
#X msg 367 313 stop;
#X obj 367 284 delay 1500;
#X obj 428 393 s \$0_loop_duration;
#X msg 428 338 1500;
#X obj 365 352 bng 15 250 50 0 empty empty empty 17 7 0 10 -262144
-1 -1;
#X obj 428 367 * 44.1;
#X obj 499 274 s \$0_resetPitch;
#X obj 81 382 tabwrite~ readsound_\$1_\$2;
#X obj 82 19 inlet~;
#X obj 574 351 i 0;
#X obj 178 174 timer;
#X obj 178 123 bang;
#X msg 164 311 stop;
#X obj 178 231 s \$0_loop_duration;
#X obj 178 203 * 44.1;
#X obj 574 316 r \$0_loop_duration;
#X obj 574 378 array size readsound_\$1_\$2;
#X connect 0 0 2 0;
#X connect 1 0 16 1;
#X connect 1 0 18 0;
#X connect 1 1 17 0;
#X connect 2 0 1 0;
#X connect 2 1 4 0;
#X connect 3 0 13 0;
#X connect 4 0 7 0;
#X connect 4 0 12 0;
#X connect 4 0 13 0;
#X connect 6 0 9 0;
#X connect 6 0 10 0;
#X connect 6 0 13 0;
#X connect 7 0 6 0;
#X connect 9 0 11 0;
#X connect 11 0 8 0;
#X connect 14 0 3 0;
#X connect 15 0 22 0;
#X connect 16 0 20 0;
#X connect 17 0 16 0;
#X connect 17 0 13 0;
#X connect 18 0 13 0;
#X connect 20 0 19 0;
#X connect 21 0 15 0;
#X restore 698 296 pd simply-record;
#X obj 744 -139 tgl 45 0 empty empty rec_mode 0 -14 0 10 -258113 -1
-1 0 1;
#X obj 486 -163 route bang float;
#X msg 486 -135 1;
#X obj 614 180 f 0;
#X obj 654 180 f 0;
#X obj 713 122 sel 0 1;
#X obj 618 63 t b f;
#N canvas 304 249 861 374 open 0;
#X obj 234 165 soundfiler;
#X obj 234 59 inlet;
#X obj 47 58 r \$1_\$2_freesound_open;
#X obj 47 87 openpanel;
#X obj 234 108 pack s \$1 \$2;
#X msg 234 139 read -resize \$1 readsound_\$2_\$3;
#X obj 234 197 s \$0_loop_duration;
#X connect 0 0 6 0;
#X connect 1 0 4 0;
#X connect 2 0 3 0;
#X connect 3 0 4 0;
#X connect 4 0 5 0;
#X connect 5 0 0 0;
#X restore 125 -107 pd open;
#X obj 503 115 r globalPitch;
#X floatatom 506 162 5 0 0 0 - - -, f 5;
#X obj 433 -96 extra/sv \$1_readsound_\$2_isplaying;
#X obj 713 94 extra/sv \$1_readsound_\$2_recmode;
#X obj 1113 -172 extra/sv \$1_readsound_\$2_isplaying;
#X obj 196 216 r \$1_readloop_\$2_play_ui;
#X obj 258 249 r \$1_readloop_\$2_slider_ui;
#X obj 961 -237 inlet~;
#X obj 962 -176 s~ \$0_audioin;
#X obj 692 227 r~ \$0_audioin;
#X obj 632 -187 extra/sv \$1_readsound_\$2_recmode;
#N canvas 376 143 662 424 save 0;
#X obj 54 200 soundfiler;
#X obj 54 1 extra/sv \$1_looper8_saveBank;
#X obj 54 33 t b b;
#X obj 54 109 f 0;
#X msg 50 341 write -wave -normalize ../samples/saved/\$4/\$2_\$3.wav
\$1_loop;
#X obj 54 141 pack 0 \$1 \$2;
#X floatatom 310 120 5 0 0 0 - - -, f 5;
#X obj 141 68 extra/sv \$1_sampler8_bank;
#X obj 29 73 bng 15 250 50 0 empty empty empty 17 7 0 10 -262144 -1
-1;
#X msg 54 174 write -wave ../../samples/samplerBank/\$1/\$3.wav readsound_\$2_\$3
;
#X connect 1 0 2 0;
#X connect 2 0 3 0;
#X connect 2 1 7 2;
#X connect 3 0 5 0;
#X connect 5 0 9 0;
#X connect 7 1 3 1;
#X connect 7 1 6 0;
#X connect 8 0 3 0;
#X connect 9 0 0 0;
#X restore 124 -74 pd save;
#X obj 127 -223 inlet;
#X connect 1 0 13 0;
#X connect 1 1 12 0;
#X connect 11 0 18 0;
#X connect 14 0 1 0;
#X connect 17 0 37 1;
#X connect 18 0 19 0;
#X connect 20 0 26 0;
#X connect 21 0 31 0;
#X connect 22 0 14 0;
#X connect 23 0 43 1;
#X connect 26 0 27 0;
#X connect 26 1 35 1;
#X connect 27 0 35 1;
#X connect 28 0 22 0;
#X connect 29 0 24 1;
#X connect 30 0 28 0;
#X connect 30 1 29 0;
#X connect 31 0 36 2;
#X connect 31 1 29 1;
#X connect 31 1 28 1;
#X connect 33 0 22 1;
#X connect 33 0 34 0;
#X connect 35 0 31 0;
#X connect 36 1 30 0;
#X connect 38 0 6 0;
#X connect 39 0 7 0;
#X connect 40 0 41 0;
#X connect 42 0 24 0;
#X connect 43 0 25 0;
#X connect 45 0 32 0;
#X coords 0 635 1 634 132 500 0;
