#N canvas 136 23 1383 799 12;
#N canvas 814 290 401 271 table 0;
#X obj 45 2 adc~ 1;
#X obj 45 69 hip~ 5;
#X msg 60 91 bang;
#X text 101 91 <-- record;
#N canvas 0 50 450 300 (subpatch) 0;
#X array \$0_loop 2.7e+06 float 0;
#X coords 0 300 2.7e+06 299 200 130 0;
#X restore 191 34 graph;
#X obj 45 118 tabwrite~ \$0_loop;
#X connect 1 0 5 0;
#X connect 2 0 5 0;
#X restore 182 305 pd table;
#X obj 467 84 soundfiler;
#N canvas 972 164 728 558 ouput-effect 0;
#X obj 181 191 *~ 1;
#X obj -90 113 inlet~;
#X obj -89 260 outlet~;
#X obj 172 244 outlet~;
#X obj -89 211 *~ 1;
#X obj -4 111 r \$0_volume;
#X obj -4 136 / 255;
#X obj -4 161 * 2;
#X obj 131 109 r \$1_\$2_readloop_volume_fromUI;
#X connect 0 0 3 0;
#X connect 1 0 0 0;
#X connect 1 0 4 0;
#X connect 4 0 2 0;
#X connect 5 0 6 0;
#X connect 6 0 7 0;
#X connect 7 0 4 1;
#X connect 8 0 6 0;
#X restore 605 251 pd ouput-effect;
#X obj 327 223 vsl 50 95 0 200 0 0 \$1_loop_volumeOUT \$1_loop_volumeIN
volume 5 12 0 10 -86735 -262144 -262144 0 0;
#X obj 382 268 vsl 36 50 0 120 0 0 \$1_loop_effect1OUT \$1_loop_effect1IN
delay 3 14 0 10 -86735 -262144 -262144 0 0;
#X obj 312 223 vsl 8 95 0 127 0 0 empty \$1_loop_vumetreIN empty 0
-9 0 10 -228856 -159808 -1 0 1;
#N canvas 652 26 787 713 findtempo 0;
#X obj 205 33 inlet;
#X floatatom 178 223 5 0 0 0 - - -, f 5;
#X obj 151 594 /;
#X obj 232 271 log;
#X obj 232 360 i;
#X obj 232 310 / 0.693147;
#X floatatom 232 337 5 0 0 0 - - -, f 5;
#X floatatom 232 391 5 0 0 0 - - -, f 5;
#X obj 223 477 pow;
#X msg 211 449 2;
#X floatatom 223 502 5 0 0 0 - - -, f 5;
#X obj 224 550 s \$0_loop_size;
#X obj 211 416 t b f;
#X floatatom 206 168 8 0 0 0 - - -, f 8;
#X obj 151 157 t f f;
#X obj 151 637 t b b f;
#X obj 205 110 / 44.1;
#X floatatom 259 69 10 0 0 0 - - -, f 10;
#X obj 204 705 pow -1;
#X obj 204 731 * 60;
#X obj 204 674 / 1000;
#X floatatom 204 790 5 0 0 0 - - -, f 5;
#X obj 49 719 s \$0_loop_tempo;
#X text 238 633 ici la véritable valeur du tempo en duree;
#X text 265 795 ici le tempo en bpm;
#X obj 299 111 s \$0_loop_duration;
#X obj 178 194 / 380;
#X obj 203 822 s \$0_loop_realtempo;
#X obj 374 825 s \$1_\$2_realtempo_toUI;
#X obj 205 765 i 0;
#X connect 0 0 16 0;
#X connect 0 0 17 0;
#X connect 0 0 25 0;
#X connect 1 0 3 0;
#X connect 2 0 15 0;
#X connect 3 0 5 0;
#X connect 4 0 7 0;
#X connect 5 0 6 0;
#X connect 6 0 4 0;
#X connect 7 0 12 0;
#X connect 8 0 10 0;
#X connect 9 0 8 0;
#X connect 10 0 2 1;
#X connect 10 0 11 0;
#X connect 12 0 9 0;
#X connect 12 1 8 1;
#X connect 14 0 2 0;
#X connect 14 1 26 0;
#X connect 15 2 20 0;
#X connect 15 2 22 0;
#X connect 16 0 13 0;
#X connect 16 0 14 0;
#X connect 18 0 19 0;
#X connect 19 0 29 0;
#X connect 20 0 18 0;
#X connect 21 0 27 0;
#X connect 21 0 28 0;
#X connect 26 0 1 0;
#X connect 29 0 21 0;
#X restore 467 113 pd findtempo;
#N canvas 386 143 979 566 timecompression 0;
#X obj 43 208 hip~ 5;
#X obj 44 155 *~;
#X obj 44 57 +~;
#X obj 43 9 samphold~;
#X obj 44 33 *~;
#X obj 209 88 -~ 0.5;
#X obj 209 112 *~ 0.5;
#X obj 209 135 cos~;
#X obj 43 184 +~;
#X obj 44 81 *~ 44100;
#X obj 43 107 +~ 1;
#X obj 295 164 *~;
#X obj 295 66 +~;
#X obj 294 18 samphold~;
#X obj 295 42 *~;
#X obj 460 97 -~ 0.5;
#X obj 460 121 *~ 0.5;
#X obj 460 144 cos~;
#X obj 295 90 *~ 44100;
#X obj 294 116 +~ 1;
#X text 229 -50 TIME COMPRESSION/EXPANSION BY LOOPED SAMPLING;
#X obj 43 249 outlet~;
#X obj 185 -91 inlet~;
#X floatatom 666 -49 0 0 0 0 - - -;
#X obj 677 23 t b f;
#X obj 665 103 phasor~;
#X obj 802 123 +~ 0.5;
#X obj 803 149 wrap~;
#X text 699 -38 <-- transposition \, halftones/10;
#X floatatom 673 80 5 0 0 0 - - -, f 5;
#X obj 790 22 t b f;
#X obj 665 55 expr (pow(2 \, $f1/120)-$f3)/$f2;
#X obj 667 -87 r transpose;
#X obj 186 -53 *~ 1;
#X obj 790 -63 r \$0_loop_precession;
#X obj 79 34 r~ \$0_phase;
#X obj 131 10 r~ \$0_phase;
#X obj 209 64 r~ \$0_phase;
#X obj 330 43 r~ \$0_phase2;
#X obj 382 19 r~ \$0_phase2;
#X obj 460 74 r~ \$0_phase2;
#X obj 665 129 s~ \$0_phase;
#X obj 803 174 s~ \$0_phase2;
#X obj 43 -16 r \$0_chunk-size;
#X obj 294 -7 r \$0_chunk-size;
#X obj 677 -2 r \$0_chunk-size;
#X obj 44 131 tabread4~ \$0_loop;
#X obj 295 140 tabread4~ \$0_loop;
#X connect 0 0 21 0;
#X connect 1 0 8 0;
#X connect 2 0 9 0;
#X connect 3 0 4 0;
#X connect 4 0 2 0;
#X connect 5 0 6 0;
#X connect 6 0 7 0;
#X connect 7 0 1 1;
#X connect 8 0 0 0;
#X connect 9 0 10 0;
#X connect 10 0 46 0;
#X connect 11 0 8 1;
#X connect 12 0 18 0;
#X connect 13 0 14 0;
#X connect 14 0 12 0;
#X connect 15 0 16 0;
#X connect 16 0 17 0;
#X connect 17 0 11 1;
#X connect 18 0 19 0;
#X connect 19 0 47 0;
#X connect 22 0 33 0;
#X connect 23 0 31 0;
#X connect 24 0 31 0;
#X connect 24 1 31 1;
#X connect 25 0 26 0;
#X connect 25 0 41 0;
#X connect 26 0 27 0;
#X connect 27 0 42 0;
#X connect 30 0 31 0;
#X connect 30 1 31 2;
#X connect 31 0 25 0;
#X connect 31 0 29 0;
#X connect 32 0 23 0;
#X connect 33 0 2 1;
#X connect 33 0 12 1;
#X connect 34 0 30 0;
#X connect 35 0 4 1;
#X connect 36 0 3 1;
#X connect 37 0 5 0;
#X connect 38 0 14 1;
#X connect 39 0 13 1;
#X connect 40 0 15 0;
#X connect 43 0 3 0;
#X connect 44 0 13 0;
#X connect 45 0 24 0;
#X connect 46 0 1 0;
#X connect 47 0 11 0;
#X restore 604 184 pd timecompression;
#N canvas 411 392 703 360 init 1;
#X floatatom 279 45 4 0 100 0 - - -, f 4;
#X obj 279 65 * 0.001;
#X text 314 45 msec;
#X obj 279 -9 bang;
#X obj 279 -39 loadbang;
#X obj 279 88 s \$0_chunk-size;
#X msg 279 23 0;
#X connect 0 0 1 0;
#X connect 1 0 5 0;
#X connect 3 0 6 0;
#X connect 4 0 3 0;
#X connect 6 0 0 0;
#X restore 110 304 pd init;
#N canvas 295 191 1130 685 rampgenerator 0;
#X obj 137 211 outlet~;
#X text 217 145 2 = nbbar*1/tempofinal;
#X obj 81 -271 f;
#X obj 115 -270 + 1;
#X obj 81 -400 bng 15 250 50 0 empty empty empty 17 7 0 10 -262144
-1 -1;
#X floatatom 81 -242 5 0 0 0 - - -, f 5;
#X obj 81 -196 select 0;
#X obj 209 -270 r \$0_loop_size;
#X msg 214 -306 0;
#X obj 81 -219 mod 1;
#X floatatom 209 -243 5 0 0 0 - - -, f 5;
#X obj 80 -157 bng 15 250 50 0 empty empty empty 17 7 0 10 -262144
-1 -1;
#X obj 418 -298 pow -1;
#X obj 419 -325 / 60;
#X obj 418 -434 r tempo_valueOUT;
#X obj 206 -158 * 1;
#X obj 230 72 r \$0_loop_duration;
#X text 218 162 1 = nbbar*1/tempo;
#X obj 230 117 / 44100;
#X obj 27 -116 s \$0_loop_start;
#X obj 136 137 *~;
#X obj 576 -106 s \$0_loop_precession;
#X obj -128 31 r tempoStopOut;
#X obj 418 -272 * 1;
#X msg 112 -53 0;
#X obj 578 -316 / 1000;
#X obj 578 -285 pow -1;
#X obj 578 -259 * 60;
#X floatatom 577 -222 5 0 0 0 - - -, f 5;
#X obj 576 -143 / 1;
#X obj 578 -355 r \$0_loop_tempo;
#X obj 494 -289 i 0;
#X obj 576 -176 t b f;
#X obj 212 -207 t b f;
#N canvas 753 310 609 499 slider_ui 0;
#X obj 196 169 inlet~;
#X obj 200 227 snapshot~;
#X obj 311 139 loadbang;
#X obj 284 138 bng 15 250 50 0 empty empty empty 17 7 0 10 -262144
-1 -1;
#X obj 211 287 s \$1_\$2_readloop_slider_ui;
#X floatatom -22 198 5 0 0 0 - - -, f 5;
#X obj -22 251 change;
#X obj -22 284 s \$1_\$2_readloop_play_ui;
#X obj 316 172 metro 100;
#X obj -22 226 != 1;
#X obj -22 153 r \$1_\$2_readloop_slider_ui;
#X connect 0 0 1 0;
#X connect 1 0 4 0;
#X connect 2 0 8 0;
#X connect 3 0 8 0;
#X connect 5 0 9 0;
#X connect 6 0 7 0;
#X connect 8 0 1 0;
#X connect 9 0 6 0;
#X connect 10 0 5 0;
#X restore 21 142 pd slider_ui;
#X obj 80 -439 inlet;
#X obj 136 103 line~;
#X obj 75 -80 t b b;
#X obj 76 -21 f 0;
#X msg 75 15 1 \$1;
#X obj 205 -121 * 1000;
#X floatatom 215 -79 5 0 0 0 - - -, f 5;
#X obj 214 -353 r tempoGoOutBang;
#X obj -24 -434 inlet;
#X obj -263 56 sel 0;
#X obj -264 32 r \$1_\$2_readloop;
#X obj 155 -384 r \$1_\$2_readloop;
#X obj 156 -360 sel 1;
#X obj 268 -314 bng 15 250 50 0 empty empty empty 17 7 0 10 -262144
-1 -1;
#X msg -128 78 1;
#X obj 56 69 bng 15 250 50 0 empty empty empty 17 7 0 10 -262144 -1
-1;
#X obj 495 -401 r tempo_quantif_bang;
#X connect 2 0 3 0;
#X connect 2 0 5 0;
#X connect 3 0 2 1;
#X connect 4 0 2 0;
#X connect 5 0 9 0;
#X connect 6 0 11 0;
#X connect 7 0 9 1;
#X connect 7 0 10 0;
#X connect 8 0 2 1;
#X connect 9 0 6 0;
#X connect 10 0 33 0;
#X connect 11 0 19 0;
#X connect 11 0 37 0;
#X connect 12 0 23 0;
#X connect 13 0 12 0;
#X connect 14 0 13 0;
#X connect 14 0 31 1;
#X connect 15 0 40 0;
#X connect 16 0 18 0;
#X connect 18 0 20 1;
#X connect 20 0 0 0;
#X connect 22 0 49 0;
#X connect 23 0 15 0;
#X connect 24 0 36 0;
#X connect 25 0 26 0;
#X connect 26 0 27 0;
#X connect 27 0 28 0;
#X connect 28 0 32 0;
#X connect 29 0 21 0;
#X connect 30 0 25 0;
#X connect 31 0 29 0;
#X connect 32 0 29 0;
#X connect 32 1 29 1;
#X connect 33 0 15 0;
#X connect 33 1 15 1;
#X connect 35 0 4 0;
#X connect 36 0 20 0;
#X connect 36 0 34 0;
#X connect 37 0 38 0;
#X connect 37 1 24 0;
#X connect 38 0 39 0;
#X connect 39 0 36 0;
#X connect 39 0 50 0;
#X connect 40 0 41 0;
#X connect 40 0 38 1;
#X connect 42 0 8 0;
#X connect 42 0 48 0;
#X connect 43 0 11 0;
#X connect 44 0 49 0;
#X connect 45 0 44 0;
#X connect 46 0 47 0;
#X connect 47 0 8 0;
#X connect 49 0 36 0;
#X connect 51 0 31 0;
#X restore 602 112 pd rampgenerator;
#X obj -84 410 cnv 15 650 70 empty empty TO::UI 20 12 0 14 -261682
-66577 0;
#X obj -34 448 tgl 15 0 empty empty empty 17 7 0 10 -262144 -1 -1 1
1;
#X obj 348 446 hsl 128 15 0 1 0 0 empty empty empty -2 -8 0 10 -262144
-1 -1 11339 1;
#X floatatom 167 443 5 0 0 0 - - -, f 5;
#X obj 574 409 cnv 15 650 70 empty empty TO::OUTLET 20 12 0 14 -261682
-66577 0;
#X obj 455 -74 cnv 15 650 70 empty empty FROM::INLET 20 12 0 14 -261682
-66577 0;
#X obj 722 -83 inlet;
#X text 128 -91 RECEIVE FROM SENSOR;
#X obj 1032 -85 inlet;
#X text 618 84 start;
#X obj 722 439 outlet~;
#X obj 605 441 outlet~;
#X obj 345 413 r \$1_\$2_readloop_slider_ui;
#X obj 467 -22 inlet;
#X text 721 -108 start from click;
#X obj 601 -76 inlet;
#X text 550 -106 start directly;
#X obj 602 -45 bng 45 250 50 0 empty empty empty 17 7 0 10 -258113
-1 -1;
#X obj 604 212 *~ 1;
#X obj 848 -20 tgl 45 0 empty empty empty 17 7 0 10 -4034 -1 -1 1 1
;
#X obj 885 -80 inlet;
#X obj 848 41 sel 0;
#X msg 842 70 0;
#X msg 886 70 1;
#X obj 848 106 s \$1_\$2_readloop;
#X obj 759 48 spigot;
#X obj 939 -80 loadbang;
#X msg 928 -45 1;
#X obj 396 89 print;
#X obj 467 27 pack s \$0;
#X msg 467 58 read \$1 \$2_loop;
#X obj -34 411 r \$1_\$2_readloop_play_ui;
#X obj 1099 292 cnv 15 300 100 empty empty empty 20 12 0 14 -233017
-66577 0;
#X obj 1119 349 bng 15 250 50 0 empty empty empty 17 7 0 10 -262144
-1 -1;
#X obj 1119 423 outlet;
#X obj 1119 317 r \$1_\$2_click_fromUI;
#X obj 1032 -50 change;
#X obj 1032 -25 s \$0_volume;
#X obj 168 412 r \$1_\$2_readloop_wait_ui;
#X obj 930 46 value \$0_is_playing;
#X connect 1 0 6 0;
#X connect 2 0 21 0;
#X connect 2 1 20 0;
#X connect 7 0 28 0;
#X connect 9 0 7 0;
#X connect 16 0 35 0;
#X connect 18 0 46 0;
#X connect 22 0 12 0;
#X connect 23 0 39 0;
#X connect 25 0 27 0;
#X connect 27 0 9 0;
#X connect 28 0 2 0;
#X connect 29 0 31 0;
#X connect 29 0 35 1;
#X connect 29 0 49 0;
#X connect 30 0 29 0;
#X connect 31 0 32 0;
#X connect 31 1 33 0;
#X connect 32 0 34 0;
#X connect 33 0 34 0;
#X connect 35 0 9 1;
#X connect 36 0 37 0;
#X connect 37 0 29 0;
#X connect 39 0 40 0;
#X connect 40 0 1 0;
#X connect 40 0 38 0;
#X connect 41 0 11 0;
#X connect 43 0 44 0;
#X connect 45 0 43 0;
#X connect 46 0 47 0;
#X connect 48 0 13 0;
#X coords 0 799 1 798 132 500 0;
