#N canvas 152 23 1019 828 10;
#X obj 85 19 cnv 15 650 70 empty empty FROM::INLET 20 12 0 14 -261682
-66577 0;
#X obj 253 -3 inlet;
#X text 298 56 rec;
#X obj 101 465 cnv 15 280 350 empty empty write_first_loop 20 12 0
9 -212539 -66577 0;
#X msg 206 592 stop;
#X msg 100 595 start;
#X msg 159 699 1;
#X obj 158 727 s \$0_is_loop_recorded;
#X obj 159 653 t b a;
#X text 306 584 TEMPO;
#X obj 285 617 bng 15 250 50 0 empty empty empty 17 7 0 10 -262144
-1 -1;
#X obj 361 614 bng 15 250 50 0 empty empty empty 17 7 0 10 -262144
-1 -1;
#X obj 220 655 r~ \$0-input;
#N canvas 822 23 649 663 toTempo-ui 0;
#X obj 96 301 timer;
#X obj 133 326 s \$0_timer;
#X floatatom 69 414 5 0 0 0 - - -, f 5;
#X obj 42 785 /;
#X obj 123 462 log;
#X obj 123 551 i;
#X obj 123 501 / 0.693147;
#X floatatom 123 528 5 0 0 0 - - -, f 5;
#X floatatom 123 582 5 0 0 0 - - -, f 5;
#X obj 114 668 pow;
#X msg 102 640 2;
#X floatatom 114 693 5 0 0 0 - - -, f 5;
#X obj 115 741 s \$0_loop_size;
#X obj 102 607 t b f;
#X obj 81 915 s tempoValue;
#X floatatom 97 359 10 0 0 0 - - -, f 10;
#X obj 42 348 t f f;
#X obj 42 965 s tempoGoIn;
#X obj 94 167 inlet;
#X obj 123 189 inlet;
#X obj 42 828 t b b f;
#X obj 69 385 / 380;
#X obj 202 873 s \$0_loop_tempo;
#X text 113 829 non \, la fausse valeur;
#X text 125 967 pas besoin de Go In \, si le tempo est dejq en place
;
#X obj 61 941 s \$0_begin;
#X obj -49 253 s \$1_recloop_ui_rec;
#X obj 151 254 s \$1_recloop_ui_stoprec;
#N canvas 56 477 562 440 istempoplaying 0;
#X obj 134 114 tgl 15 0 empty empty empty 17 7 0 10 -262144 -1 -1 1
1;
#X obj 113 323 outlet;
#X obj 188 324 outlet;
#X obj 165 8 inlet;
#X obj 23 24 r tempoGoOutBang;
#X msg 22 65 1;
#X msg 52 65 0;
#X obj 68 44 r tempoStopOut;
#X obj 205 90 t b f;
#X obj 167 189 sel 1 0;
#X obj 233 250 i -1;
#X obj 272 250 i -1;
#X obj 163 159 i -1;
#X connect 0 0 12 1;
#X connect 3 0 8 0;
#X connect 4 0 5 0;
#X connect 5 0 0 0;
#X connect 6 0 0 0;
#X connect 7 0 6 0;
#X connect 8 0 12 0;
#X connect 8 1 10 1;
#X connect 8 1 11 1;
#X connect 9 0 10 0;
#X connect 9 1 11 0;
#X connect 10 0 1 0;
#X connect 11 0 2 0;
#X connect 12 0 9 0;
#X coords 0 -1 1 1 85 30 1 100 100;
#X restore 240 737 pd istempoplaying;
#X obj 338 788 s quantif_global;
#X obj 352 720 cnv 15 100 60 empty empty empty 20 12 0 14 -233017 -66577
0;
#X text 360 732 really important;
#X text 357 754 set qantif from 1s loop;
#N canvas 56 477 562 440 istempoplaying 0;
#X obj 134 114 tgl 15 0 empty empty empty 17 7 0 10 -262144 -1 -1 1
1;
#X obj 113 323 outlet;
#X obj 188 324 outlet;
#X obj 165 8 inlet;
#X obj 23 24 r tempoGoOutBang;
#X msg 22 65 1;
#X msg 52 65 0;
#X obj 68 44 r tempoStopOut;
#X obj 205 90 t b f;
#X obj 167 189 sel 1 0;
#X obj 233 250 i -1;
#X obj 272 250 i -1;
#X obj 163 159 i -1;
#X connect 0 0 12 1;
#X connect 3 0 8 0;
#X connect 4 0 5 0;
#X connect 5 0 0 0;
#X connect 6 0 0 0;
#X connect 7 0 6 0;
#X connect 8 0 12 0;
#X connect 8 1 10 1;
#X connect 8 1 11 1;
#X connect 9 0 10 0;
#X connect 9 1 11 0;
#X connect 10 0 1 0;
#X connect 11 0 2 0;
#X connect 12 0 9 0;
#X coords 0 -1 1 1 85 30 1 100 100;
#X restore 80 868 pd istempoplaying;
#X connect 0 0 1 0;
#X connect 0 0 15 0;
#X connect 0 0 16 0;
#X connect 2 0 4 0;
#X connect 3 0 20 0;
#X connect 4 0 6 0;
#X connect 5 0 8 0;
#X connect 6 0 7 0;
#X connect 7 0 5 0;
#X connect 8 0 13 0;
#X connect 9 0 11 0;
#X connect 10 0 9 0;
#X connect 11 0 3 1;
#X connect 11 0 12 0;
#X connect 11 0 28 0;
#X connect 13 0 10 0;
#X connect 13 1 9 1;
#X connect 16 0 3 0;
#X connect 16 1 21 0;
#X connect 18 0 0 0;
#X connect 18 0 26 0;
#X connect 19 0 0 1;
#X connect 19 0 27 0;
#X connect 20 1 25 0;
#X connect 20 2 22 0;
#X connect 20 2 33 0;
#X connect 21 0 2 0;
#X connect 28 1 29 0;
#X connect 33 1 14 0;
#X restore 285 637 pd toTempo-ui;
#X obj 150 497 r \$0_realstart_first;
#X obj 186 701 tabwrite~ \$0_loop;
#X obj 118 60 inlet~;
#X obj 118 94 s~ \$0-input;
#X obj 388 465 cnv 15 210 350 empty empty write_other_loop 20 12 0
9 -204217 -66577 0;
#X msg 414 615 start;
#X msg 455 615 stop;
#X msg 480 656 0;
#X obj 480 691 s \$0-force-stop;
#X obj 455 591 del;
#X obj 470 568 r \$0_timer;
#X obj 455 546 bng 15 250 50 0 empty empty empty 17 7 0 10 -262144
-1 -1;
#X obj 475 711 r~ \$0-input;
#X obj 475 735 +~;
#N canvas 731 287 450 300 ui 0;
#X obj 37 37 inlet;
#X obj 120 39 inlet;
#X obj 20 120 bang;
#X obj 140 120 bang;
#X obj -29 215 s \$1_recloop_ui_rec;
#X obj 172 215 s \$1_recloop_ui_stoprec;
#X connect 0 0 2 0;
#X connect 1 0 3 0;
#X connect 2 0 4 0;
#X connect 3 0 5 0;
#X restore 395 682 pd ui;
#X obj 527 663 bng 15 250 50 0 empty empty empty 17 7 0 10 -262144
-1 -1;
#X obj 454 515 bang;
#X obj 443 493 r \$0_realstart_overdub;
#X obj 437 767 tabwrite~ \$0_loop;
#X obj 1087 540 bng 35 250 50 0 empty empty empty 17 7 0 10 -258113
-1 -1;
#X obj 1093 596 s \$0_is_loop_deleted;
#X obj 273 63 bng 15 250 50 0 empty empty empty 17 7 0 10 -262144 -1
-1;
#X obj 257 106 tgl 35 0 empty empty empty 17 7 0 10 -4032 -1 -1 0 1
;
#X obj 766 465 cnv 15 210 320 empty empty play! 20 12 0 9 -204217 -66577
0;
#N canvas 161 136 979 612 timecompression 1;
#X obj 43 208 hip~ 5;
#X obj 44 155 *~;
#X obj 44 57 +~;
#X obj 43 9 samphold~;
#X obj 44 33 *~;
#X obj 209 88 -~ 0.5;
#X obj 209 112 *~ 0.5;
#X obj 209 135 cos~;
#X obj 43 184 +~;
#X obj 44 81 *~ 44100;
#X obj 43 107 +~ 1;
#X obj 295 164 *~;
#X obj 295 66 +~;
#X obj 294 18 samphold~;
#X obj 295 42 *~;
#X obj 460 97 -~ 0.5;
#X obj 460 121 *~ 0.5;
#X obj 460 144 cos~;
#X obj 295 90 *~ 44100;
#X obj 294 116 +~ 1;
#X text 229 -50 TIME COMPRESSION/EXPANSION BY LOOPED SAMPLING;
#X obj 43 249 outlet~;
#X obj 185 -91 inlet~;
#X floatatom 646 0 0 0 0 0 - - -;
#X obj 677 23 t b f;
#X obj 665 103 phasor~;
#X obj 802 123 +~ 0.5;
#X obj 803 149 wrap~;
#X text 699 -38 <-- transposition \, halftones/10;
#X floatatom 673 80 5 0 0 0 - - -, f 5;
#X obj 790 22 t b f;
#X obj 665 55 expr (pow(2 \, $f1/120)-$f3)/$f2;
#X obj 186 -53 *~ 1;
#X obj 790 -63 r \$0_loop_precession;
#X obj 79 34 r~ \$0_phase;
#X obj 131 10 r~ \$0_phase;
#X obj 209 64 r~ \$0_phase;
#X obj 330 43 r~ \$0_phase2;
#X obj 382 19 r~ \$0_phase2;
#X obj 460 74 r~ \$0_phase2;
#X obj 665 129 s~ \$0_phase;
#X obj 803 174 s~ \$0_phase2;
#X obj 43 -16 r \$0_chunk-size;
#X obj 294 -7 r \$0_chunk-size;
#X obj 677 -2 r \$0_chunk-size;
#X obj 44 131 tabread4~ \$0_loop;
#X obj 295 140 tabread4~ \$0_loop;
#X floatatom 817 -4 5 0 0 0 - - -, f 5;
#X obj 289 322 snapshot~;
#X obj 383 300 metro 200;
#X msg 371 267 1;
#X floatatom 293 353 5 0 0 0 - - -, f 5;
#X obj 646 -155 r transpose;
#X obj 686 -80 * 0.001;
#X obj 646 -128 t f b;
#X msg 686 -106 40;
#X text 699 -127 force chunck size with transpose;
#X obj 686 -58 s \$0_chunk-size;
#X connect 0 0 21 0;
#X connect 0 0 48 0;
#X connect 1 0 8 0;
#X connect 2 0 9 0;
#X connect 3 0 4 0;
#X connect 4 0 2 0;
#X connect 5 0 6 0;
#X connect 6 0 7 0;
#X connect 7 0 1 1;
#X connect 8 0 0 0;
#X connect 9 0 10 0;
#X connect 10 0 45 0;
#X connect 11 0 8 1;
#X connect 12 0 18 0;
#X connect 13 0 14 0;
#X connect 14 0 12 0;
#X connect 15 0 16 0;
#X connect 16 0 17 0;
#X connect 17 0 11 1;
#X connect 18 0 19 0;
#X connect 19 0 46 0;
#X connect 22 0 32 0;
#X connect 23 0 31 0;
#X connect 24 0 31 0;
#X connect 24 1 31 1;
#X connect 25 0 26 0;
#X connect 25 0 40 0;
#X connect 26 0 27 0;
#X connect 27 0 41 0;
#X connect 30 0 31 0;
#X connect 30 1 31 2;
#X connect 31 0 25 0;
#X connect 31 0 29 0;
#X connect 32 0 2 1;
#X connect 32 0 12 1;
#X connect 33 0 30 0;
#X connect 33 0 47 0;
#X connect 34 0 4 1;
#X connect 35 0 3 1;
#X connect 36 0 5 0;
#X connect 37 0 14 1;
#X connect 38 0 13 1;
#X connect 39 0 15 0;
#X connect 42 0 3 0;
#X connect 43 0 13 0;
#X connect 44 0 24 0;
#X connect 45 0 1 0;
#X connect 46 0 11 0;
#X connect 48 0 51 0;
#X connect 49 0 48 0;
#X connect 50 0 49 0;
#X connect 52 0 54 0;
#X connect 53 0 57 0;
#X connect 54 0 23 0;
#X connect 54 1 55 0;
#X connect 55 0 53 0;
#X restore 792 585 pd timecompression;
#N canvas 185 62 847 721 rampgenerator 0;
#X obj 137 651 outlet~;
#X text 217 585 2 = nbbar*1/tempofinal;
#X obj 81 169 f;
#X obj 115 170 + 1;
#X obj 81 40 bng 15 250 50 0 empty empty empty 17 7 0 10 -262144 -1
-1;
#X floatatom 81 198 5 0 0 0 - - -, f 5;
#X obj 209 170 r \$0_loop_size;
#X obj 81 221 mod 1;
#X floatatom 209 197 5 0 0 0 - - -, f 5;
#X obj 80 283 bng 15 250 50 0 empty empty empty 17 7 0 10 -262144 -1
-1;
#X obj 418 142 pow -1;
#X obj 419 115 / 60;
#X obj 419 85 r tempo_valueOUT;
#X obj 206 282 * 1;
#X floatatom 494 121 5 0 0 0 - - -, f 5;
#X text 218 602 1 = nbbar*1/tempo;
#X obj 27 324 s \$0_loop_start;
#X obj 136 577 *~;
#X obj 576 334 s \$0_loop_precession;
#X obj -128 471 r tempoStopOut;
#X obj 418 168 * 1;
#X msg 112 387 0;
#X obj 578 124 / 1000;
#X obj 578 155 pow -1;
#X obj 578 181 * 60;
#X floatatom 577 218 5 0 0 0 - - -, f 5;
#X obj 576 297 / 1;
#X obj 578 85 r \$0_loop_tempo;
#X obj 494 151 i 0;
#X obj 576 264 t b f;
#X obj 212 233 t b f;
#N canvas 154 399 673 546 slider_ui 0;
#X obj 196 169 inlet~;
#X obj 200 227 snapshot~;
#X obj 311 139 loadbang;
#X obj 284 138 bng 15 250 50 0 empty empty empty 17 7 0 10 -262144
-1 -1;
#X floatatom -22 194 5 0 0 0 - - -, f 5;
#X obj -22 251 change;
#X obj 316 172 metro 100;
#X obj -22 153 r \$1_recloop_slider_ui;
#X obj 211 287 s \$1_recloop_slider_ui;
#X obj 1 354 s \$1_recloop_ui_play;
#X obj -22 280 sel 1 0;
#X obj -17 399 s \$1_recloop_ui_stop;
#X obj -22 226 >= 1;
#X connect 0 0 1 0;
#X connect 1 0 8 0;
#X connect 2 0 6 0;
#X connect 3 0 6 0;
#X connect 4 0 12 0;
#X connect 5 0 10 0;
#X connect 6 0 1 0;
#X connect 7 0 4 0;
#X connect 10 0 11 0;
#X connect 10 1 9 0;
#X connect 12 0 5 0;
#X restore 21 582 pd slider_ui;
#X obj 80 1 inlet;
#X obj 136 543 line~;
#X obj 75 360 t b b;
#X obj 76 419 f 0;
#X msg 75 455 1 \$1;
#X obj 205 319 * 1000;
#X floatatom 215 361 10 0 0 0 - - -, f 10;
#X obj -24 6 inlet;
#X obj 156 80 sel 1;
#X obj 268 126 bng 15 250 50 0 empty empty empty 17 7 0 10 -262144
-1 -1;
#X obj 155 56 r \$1_looper_play;
#X obj 222 499 r \$0_timer;
#X floatatom 241 571 10 0 0 0 - - -, f 10;
#X obj 222 521 / 1000;
#X msg -128 518 300;
#X obj 191 133 bng 15 250 50 0 empty empty empty 17 7 0 10 -262144
-1 -1;
#X msg 214 134 0;
#X obj 81 244 select 0;
#X obj -262 473 r \$0_is_loop_deleted;
#X obj 214 87 r tempoStopOut;
#X connect 2 0 3 0;
#X connect 2 0 5 0;
#X connect 3 0 2 1;
#X connect 4 0 2 0;
#X connect 5 0 7 0;
#X connect 6 0 7 1;
#X connect 6 0 8 0;
#X connect 7 0 49 0;
#X connect 8 0 30 0;
#X connect 9 0 16 0;
#X connect 9 0 34 0;
#X connect 10 0 20 0;
#X connect 11 0 10 0;
#X connect 12 0 11 0;
#X connect 12 0 14 0;
#X connect 13 0 37 0;
#X connect 14 0 28 0;
#X connect 17 0 0 0;
#X connect 19 0 46 0;
#X connect 20 0 13 0;
#X connect 21 0 33 0;
#X connect 22 0 23 0;
#X connect 23 0 24 0;
#X connect 24 0 25 0;
#X connect 25 0 29 0;
#X connect 26 0 18 0;
#X connect 27 0 22 0;
#X connect 28 0 26 0;
#X connect 29 0 26 0;
#X connect 29 1 26 1;
#X connect 30 0 13 0;
#X connect 30 1 13 1;
#X connect 32 0 4 0;
#X connect 33 0 17 0;
#X connect 33 0 31 0;
#X connect 34 0 35 0;
#X connect 34 1 21 0;
#X connect 35 0 36 0;
#X connect 36 0 33 0;
#X connect 37 0 38 0;
#X connect 37 0 35 1;
#X connect 39 0 9 0;
#X connect 40 0 48 0;
#X connect 40 0 47 0;
#X connect 42 0 40 0;
#X connect 43 0 45 0;
#X connect 45 0 17 1;
#X connect 45 0 44 0;
#X connect 46 0 33 0;
#X connect 48 0 2 1;
#X connect 49 0 9 0;
#X connect 50 0 46 0;
#X connect 51 0 41 0;
#X connect 51 0 48 0;
#X restore 792 528 pd rampgenerator;
#N canvas 108 146 728 558 ouput-effect 0;
#X obj 181 191 *~ 1;
#X obj -90 113 inlet~;
#X obj -89 260 outlet~;
#X obj 172 244 outlet~;
#X obj -4 111 r \$0_volume;
#X obj -4 136 / 255;
#X obj -4 161 * 2;
#X obj -89 211 *~ 1;
#X obj 99 41 r \$1_looper_volume_fromUI;
#X floatatom 107 82 5 0 0 0 - - -, f 5;
#X connect 0 0 3 0;
#X connect 1 0 0 0;
#X connect 1 0 7 0;
#X connect 4 0 5 0;
#X connect 5 0 6 0;
#X connect 6 0 7 1;
#X connect 7 0 2 0;
#X connect 8 0 9 0;
#X connect 9 0 5 0;
#X restore 792 669 pd ouput-effect;
#X obj 792 626 *~ 1;
#X obj 1056 134 tgl 45 0 empty empty empty 17 7 0 10 -4034 -1 -1 1
1;
#X obj 1053 23 inlet;
#X obj 1056 195 sel 0;
#X msg 1050 224 0;
#X msg 1094 224 1;
#X obj 778 342 spigot;
#X obj 792 798 outlet~;
#X obj 1056 260 s \$1_looper_play;
#X obj 776 152 r tempo_click_bang;
#X obj 206 570 bng 15 250 50 0 empty empty empty 17 7 0 10 -262144
-1 -1;
#X obj 101 570 bng 15 250 50 0 empty empty empty 17 7 0 10 -262144
-1 -1;
#X obj 783 436 bng 15 250 50 0 empty empty empty 17 7 0 10 -262144
-1 -1;
#X obj 1204 144 r \$0_is_loop_recorded;
#X msg 1200 170 1;
#X obj 374 63 r \$0-force-stop;
#X msg 376 97 set 0;
#N canvas 633 102 450 300 startAfterQuantif 0;
#X obj 171 125 i 0;
#X obj 208 79 r tempo_quantif_bang;
#X obj 172 47 inlet;
#X obj 195 203 outlet;
#X msg 229 125 -1;
#X obj 171 164 sel -1;
#X connect 0 0 4 0;
#X connect 0 0 5 0;
#X connect 1 0 0 0;
#X connect 2 0 0 1;
#X connect 4 0 0 1;
#X connect 5 1 3 0;
#X restore 810 234 pd startAfterQuantif;
#X obj 149 520 sel 1 0;
#X obj 811 311 tgl 15 0 empty empty empty 17 7 0 10 -262144 -1 -1 1
1;
#X obj 849 257 r \$0_begin;
#X msg 851 291 1;
#N canvas 775 23 865 482 manageRecording 0;
#N canvas 754 297 565 368 islooprecorded 0;
#X obj 110 114 tgl 15 0 empty empty empty 17 7 0 10 -262144 -1 -1 0
1;
#X obj 115 230 spigot;
#X obj 141 147 sel 0 1;
#X msg 143 196 0;
#X msg 176 195 1;
#X msg 210 195 0;
#X msg 242 195 1;
#X obj 190 230 spigot;
#X obj 115 266 outlet;
#X obj 190 267 outlet;
#X obj 165 8 inlet;
#X obj 410 49 r \$0_is_loop_deleted;
#X msg 410 74 0;
#X obj 163 34 t f b;
#X obj 190 64 v \$0_is_loop_recorded;
#X connect 0 0 2 0;
#X connect 1 0 8 0;
#X connect 2 0 3 0;
#X connect 2 0 6 0;
#X connect 2 1 4 0;
#X connect 2 1 5 0;
#X connect 3 0 1 1;
#X connect 4 0 1 1;
#X connect 5 0 7 1;
#X connect 6 0 7 1;
#X connect 7 0 9 0;
#X connect 10 0 13 0;
#X connect 11 0 12 0;
#X connect 13 0 7 0;
#X connect 13 0 1 0;
#X connect 13 1 14 0;
#X connect 14 0 0 0;
#X coords 0 -1 1 1 40 30 1 100 100;
#X restore 304 91 pd islooprecorded;
#X text 275 107 yes;
#X text 418 109 no;
#N canvas 633 102 450 300 startAfterQuantif 0;
#X obj 208 79 r tempo_quantif_bang;
#X obj 172 47 inlet;
#X obj 195 203 outlet;
#X msg 229 125 -1;
#X obj 171 164 sel -1;
#X obj 171 125 i -1;
#X connect 0 0 5 0;
#X connect 1 0 5 1;
#X connect 3 0 5 1;
#X connect 4 1 2 0;
#X connect 5 0 3 0;
#X connect 5 0 4 0;
#X restore 502 378 pd startAfterQuantif;
#N canvas 728 413 450 300 startAfterLoopBegin 0;
#X obj 172 47 inlet;
#X obj 204 201 outlet;
#X obj 209 79 r \$0_loop_start;
#X msg 201 126 -1;
#X obj 171 164 sel -1;
#X obj 171 125 i -1;
#X connect 0 0 5 1;
#X connect 2 0 5 0;
#X connect 3 0 5 1;
#X connect 4 1 1 0;
#X connect 5 0 3 0;
#X connect 5 0 4 0;
#X restore 16 284 pd startAfterLoopBegin;
#X obj 295 280 bng 15 250 50 0 empty empty empty 17 7 0 10 -262144
-1 -1;
#X obj 16 313 s \$0_realstart_overdub;
#X obj 502 405 s \$0_realstart_first;
#X obj 690 298 s \$0_realstart_first;
#X obj 295 309 s \$0_realstart_overdub;
#N canvas 272 294 562 463 istempoplaying 0;
#X obj 134 114 tgl 15 0 empty empty empty 17 7 0 10 -262144 -1 -1 1
1;
#X obj 113 323 outlet;
#X obj 188 324 outlet;
#X obj 165 8 inlet;
#X obj 23 24 r tempoGoOutBang;
#X msg 22 65 1;
#X msg 52 65 0;
#X obj 68 44 r tempoStopOut;
#X obj 205 90 t b f;
#X obj 167 189 sel 1 0;
#X obj 163 159 i -1;
#X obj 233 250 i -1;
#X obj 272 250 i -1;
#X connect 0 0 10 1;
#X connect 3 0 8 0;
#X connect 4 0 5 0;
#X connect 5 0 0 0;
#X connect 6 0 0 0;
#X connect 7 0 6 0;
#X connect 8 0 10 0;
#X connect 8 1 11 1;
#X connect 8 1 12 1;
#X connect 9 0 11 0;
#X connect 9 1 12 0;
#X connect 10 0 9 0;
#X connect 11 0 1 0;
#X connect 12 0 2 0;
#X coords 0 -1 1 1 85 30 1 100 100;
#X restore 543 214 pd istempoplaying;
#N canvas 133 247 562 463 istempoplaying 0;
#X obj 134 114 tgl 15 0 empty empty empty 17 7 0 10 -262144 -1 -1 1
1;
#X obj 113 323 outlet;
#X obj 188 324 outlet;
#X obj 165 8 inlet;
#X obj 23 24 r tempoGoOutBang;
#X msg 22 65 1;
#X msg 52 65 0;
#X obj 68 44 r tempoStopOut;
#X obj 205 90 t b f;
#X obj 167 189 sel 1 0;
#X obj 233 250 i -1;
#X obj 272 250 i -1;
#X obj 163 159 i -1;
#X connect 0 0 12 1;
#X connect 3 0 8 0;
#X connect 4 0 5 0;
#X connect 5 0 0 0;
#X connect 6 0 0 0;
#X connect 7 0 6 0;
#X connect 8 0 12 0;
#X connect 8 1 10 1;
#X connect 8 1 11 1;
#X connect 9 0 10 0;
#X connect 9 1 11 0;
#X connect 10 0 1 0;
#X connect 11 0 2 0;
#X connect 12 0 9 0;
#X coords 0 -1 1 1 85 30 1 100 100;
#X restore 184 213 pd istempoplaying;
#X obj 302 33 inlet;
#X obj 167 172 cnv 15 150 30 empty empty LOOP:RECORDED 20 12 0 14 -228856
-1 0;
#X obj 512 171 cnv 15 150 30 empty empty NO:LOOP:RECORDED 20 12 0 14
-99865 -262144 0;
#X obj 7 243 cnv 15 150 30 empty empty TEMPO:PLAYING 20 12 0 14 -4034
-66577 0;
#X obj 681 252 cnv 15 150 30 empty empty TEMPO:STOP 20 12 0 14 -258113
-66577 0;
#X obj 494 252 cnv 15 150 30 empty empty TEMPO:PLAYING 20 12 0 14 -4034
-66577 0;
#X obj 297 243 cnv 15 150 30 empty empty TEMPO:STOP 20 12 0 14 -258113
-66577 0;
#X obj 535 300 sel 0 1;
#X obj 534 344 s \$1_recloop_ui_waitforrec;
#X obj 28 344 sel 0 1;
#X obj 27 388 s \$1_recloop_ui_waitforrec;
#X obj 651 284 bng 15 250 50 0 empty empty empty 17 7 0 10 -262144
-1 -1;
#X obj 186 271 bng 15 250 50 0 empty empty empty 17 7 0 10 -262144
-1 -1;
#X connect 0 0 11 0;
#X connect 0 1 10 0;
#X connect 3 0 7 0;
#X connect 4 0 6 0;
#X connect 5 0 9 0;
#X connect 10 0 3 0;
#X connect 10 0 19 0;
#X connect 10 1 8 0;
#X connect 10 1 23 0;
#X connect 11 0 4 0;
#X connect 11 0 21 0;
#X connect 11 0 24 0;
#X connect 11 1 5 0;
#X connect 12 0 0 0;
#X connect 19 0 20 0;
#X connect 19 1 20 0;
#X connect 21 0 22 0;
#X connect 21 1 22 0;
#X restore 254 160 pd manageRecording;
#X obj 488 177 cnv 15 200 200 empty empty empty 20 12 0 14 -257983
-66577 0;
#N canvas 1 56 450 250 (subpatch) 0;
#X array \$0_loop 600000 float 2;
#X coords 0 250 1 249 200 140 0;
#X restore 512 242 graph;
#N canvas 43 79 703 360 init 0;
#X floatatom 279 45 4 0 100 0 - - -, f 4;
#X obj 279 65 * 0.001;
#X text 314 45 msec;
#X obj 279 -9 bang;
#X obj 279 -39 loadbang;
#X obj 279 88 s \$0_chunk-size;
#X obj 162 46 pack \$0;
#X msg 162 68 \; \$1_loop const 0;
#X obj 387 86 s \$0_is_loop_deleted;
#X obj 391 -21 delay 200;
#X obj 435 51 s \$1_clear_fromUI;
#X msg 279 23 0;
#X obj 556 89 v \$0_is_loop_recorded;
#X msg 555 58 0;
#X connect 0 0 1 0;
#X connect 1 0 5 0;
#X connect 3 0 11 0;
#X connect 4 0 3 0;
#X connect 4 0 6 0;
#X connect 4 0 8 0;
#X connect 4 0 9 0;
#X connect 4 0 13 0;
#X connect 6 0 7 0;
#X connect 9 0 10 0;
#X connect 11 0 0 0;
#X connect 13 0 12 0;
#X restore 552 241 pd init;
#X obj 541 299 hsl 128 15 0 1 0 0 empty empty empty -2 -8 0 10 -262144
-1 -1 1617 1;
#X obj 538 266 r \$1_recloop_slider_ui;
#X obj 1175 262 s \$1_recloop_ui_waitforplay;
#X obj 1175 233 bang;
#X obj 345 26 r \$1_rec_fromUI;
#X obj 1119 49 r \$1_play_fromUI;
#X obj 1056 98 bng 15 250 50 0 empty empty empty 17 7 0 10 -262144
-1 -1;
#X obj 1082 485 r \$1_clear_fromUI;
#X obj 1043 720 s \$1_recloop_deleted_ui;
#X obj 121 768 s \$1_recloop_recorded_ui;
#X obj 1157 660 s \$1_recloop_ui_waitforclear;
#X obj 1043 626 delay 1000;
#X obj 922 259 r \$0_is_loop_deleted;
#X msg 923 289 0;
#N canvas 422 23 836 696 ledoutrec 0;
#X msg 102 285 1;
#X obj 88 202 r \$1_recloop_ui_waitforrec;
#X obj -96 202 r \$1_recloop_ui_waitforclear;
#X obj 288 202 r \$1_recloop_ui_rec;
#X obj 412 202 r \$1_recloop_ui_stoprec;
#X obj 307 309 bng 15 250 50 0 empty empty empty 17 7 0 10 -262144
-1 -1;
#X obj 417 309 bng 15 250 50 0 empty empty empty 17 7 0 10 -262144
-1 -1;
#X obj 561 202 r \$1_recloop_deleted_ui;
#X obj 102 447 tgl 15 0 empty empty empty 17 7 0 10 -262144 -1 -1 1
1;
#X obj 102 474 sel 1;
#X msg 102 377 bang;
#X msg 146 377 stop;
#X obj 102 328 sel 1;
#X obj 153 349 t b b;
#X msg 178 447 1;
#X obj 307 344 t b b;
#X obj 417 344 t b b;
#X msg 342 572 1;
#X msg 404 572 0;
#X obj 356 642 outlet;
#X obj 102 418 metro 200;
#X connect 0 0 12 0;
#X connect 1 0 0 0;
#X connect 2 0 0 0;
#X connect 3 0 5 0;
#X connect 4 0 6 0;
#X connect 5 0 15 0;
#X connect 6 0 16 0;
#X connect 7 0 6 0;
#X connect 8 0 9 0;
#X connect 9 0 17 0;
#X connect 9 1 18 0;
#X connect 10 0 20 0;
#X connect 11 0 20 0;
#X connect 12 0 10 0;
#X connect 12 1 13 0;
#X connect 13 0 11 0;
#X connect 13 1 14 0;
#X connect 14 0 9 0;
#X connect 15 0 17 0;
#X connect 15 1 11 0;
#X connect 16 0 18 0;
#X connect 16 1 11 0;
#X connect 17 0 19 0;
#X connect 18 0 19 0;
#X connect 20 0 8 0;
#X restore 1009 760 pd ledoutrec;
#X obj 1009 795 outlet;
#X obj 245 37 sel 0;
#N canvas 295 134 623 468 longORshort 0;
#X obj 153 75 inlet;
#X obj 152 180 timer;
#X obj 153 119 sel 0;
#X obj 187 149 bang;
#X obj 151 224 > 500;
#X obj 151 298 bng 15 250 50 0 empty empty empty 17 7 0 10 -262144
-1 -1;
#X obj 181 298 bng 15 250 50 0 empty empty empty 17 7 0 10 -262144
-1 -1;
#X obj 151 256 sel 0;
#X obj 151 332 outlet;
#X obj 208 334 outlet;
#X obj 380 102 sel 0;
#X obj 398 239 i 0;
#X obj 398 270 sel 0;
#X obj 399 311 bng 15 250 50 0 empty empty empty 17 7 0 10 -262144
-1 -1;
#X obj 431 312 bng 15 250 50 0 empty empty empty 17 7 0 10 -262144
-1 -1;
#X obj 444 196 delay 600;
#X obj 433 357 s \$1_recloop_ui_waitforclear;
#X connect 0 0 2 0;
#X connect 0 0 10 0;
#X connect 0 0 11 1;
#X connect 1 0 4 0;
#X connect 2 0 1 1;
#X connect 2 1 3 0;
#X connect 3 0 1 0;
#X connect 4 0 7 0;
#X connect 5 0 8 0;
#X connect 6 0 9 0;
#X connect 7 0 5 0;
#X connect 7 1 6 0;
#X connect 10 1 15 0;
#X connect 11 0 12 0;
#X connect 12 0 13 0;
#X connect 12 1 14 0;
#X connect 14 0 16 0;
#X connect 15 0 11 0;
#X restore 1057 71 pd longORshort;
#X obj 1138 99 s \$0_clear;
#X obj 1038 469 r \$0_clear;
#X obj 1245 589 pack \$0;
#X msg 1245 611 \; \$1_loop const 0;
#X obj 1132 803 outlet;
#N canvas 604 65 836 696 ledoutplay 0;
#X msg 102 285 1;
#X obj 307 309 bng 15 250 50 0 empty empty empty 17 7 0 10 -262144
-1 -1;
#X obj 417 305 bng 15 250 50 0 empty empty empty 17 7 0 10 -262144
-1 -1;
#X obj 110 447 tgl 15 0 empty empty empty 17 7 0 10 -262144 -1 -1 0
1;
#X obj 110 474 sel 1;
#X msg 86 377 bang;
#X msg 146 378 stop;
#X obj 102 328 sel 1;
#X obj 153 349 t b b;
#X msg 178 442 1;
#X obj 307 344 t b b;
#X obj 417 345 t b b;
#X obj 331 988 outlet;
#X obj 110 418 metro 200;
#X obj 235 125 r \$1_recloop_ui_waitforplay;
#X obj 237 91 r \$1_recloop_ui_waitforclear;
#X obj 55 125 r \$1_recloop_ui_waitforstop;
#X obj 350 147 r \$1_recloop_ui_play;
#X obj 476 147 r \$1_recloop_ui_stop;
#X obj 612 147 r \$1_recloop_deleted_ui;
#X obj 174 706 r tempo_quantif_bang;
#X obj 137 763 i 0;
#X obj 179 753 bng 15 250 50 0 empty empty empty 17 7 0 10 -262144
-1 -1;
#X obj 225 936 bng 15 250 50 0 empty empty empty 17 7 0 10 -262144
-1 -1;
#X obj 155 911 bng 15 250 50 0 empty empty empty 17 7 0 10 -262144
-1 -1;
#X obj 209 884 delay 100;
#X obj 135 883 delay 100;
#X obj 137 824 sel 0 1;
#X msg 307 572 1;
#X msg 369 572 0;
#N canvas 133 247 562 463 istempoplaying 0;
#X obj 134 114 tgl 15 0 empty empty empty 17 7 0 10 -262144 -1 -1 1
1;
#X obj 113 323 outlet;
#X obj 188 324 outlet;
#X obj 165 8 inlet;
#X obj 23 24 r tempoGoOutBang;
#X msg 22 65 1;
#X msg 52 65 0;
#X obj 68 44 r tempoStopOut;
#X obj 205 90 t b f;
#X obj 167 189 sel 1 0;
#X obj 233 250 i -1;
#X obj 272 250 i -1;
#X obj 163 159 i -1;
#X connect 0 0 12 1;
#X connect 3 0 8 0;
#X connect 4 0 5 0;
#X connect 5 0 0 0;
#X connect 6 0 0 0;
#X connect 7 0 6 0;
#X connect 8 0 12 0;
#X connect 8 1 10 1;
#X connect 8 1 11 1;
#X connect 9 0 10 0;
#X connect 9 1 11 0;
#X connect 10 0 1 0;
#X connect 11 0 2 0;
#X connect 12 0 9 0;
#X coords 0 -1 1 1 85 30 1 100 100;
#X restore 332 635 pd istempoplaying;
#X obj 97 704 == 0;
#X obj 71 932 i 0;
#X msg 133 933 1;
#X msg 180 933 0;
#X connect 0 0 7 0;
#X connect 1 0 10 0;
#X connect 2 0 11 0;
#X connect 3 0 4 0;
#X connect 4 0 28 0;
#X connect 4 1 29 0;
#X connect 5 0 13 0;
#X connect 6 0 13 0;
#X connect 7 0 5 0;
#X connect 7 1 8 0;
#X connect 8 0 6 0;
#X connect 8 1 9 0;
#X connect 9 0 4 0;
#X connect 10 0 28 0;
#X connect 10 1 6 0;
#X connect 11 0 29 0;
#X connect 11 1 6 0;
#X connect 13 0 3 0;
#X connect 14 0 0 0;
#X connect 15 0 0 0;
#X connect 16 0 0 0;
#X connect 17 0 1 0;
#X connect 18 0 2 0;
#X connect 19 0 2 0;
#X connect 20 0 21 0;
#X connect 20 0 22 0;
#X connect 21 0 27 0;
#X connect 21 0 32 0;
#X connect 25 0 34 0;
#X connect 25 0 23 0;
#X connect 26 0 33 0;
#X connect 26 0 24 0;
#X connect 27 0 26 0;
#X connect 27 1 25 0;
#X connect 28 0 30 0;
#X connect 29 0 30 0;
#X connect 30 0 31 0;
#X connect 30 1 12 0;
#X connect 31 0 21 0;
#X connect 32 0 12 0;
#X connect 33 0 12 0;
#X connect 34 0 12 0;
#X restore 1132 760 pd ledoutplay;
#X obj 1260 801 outlet;
#X obj 283 754 v \$0_is_loop_recorded;
#X msg 1206 688 0;
#X obj 1206 712 v \$0_is_loop_recorded;
#X connect 1 0 83 0;
#X connect 4 0 8 0;
#X connect 4 0 11 0;
#X connect 5 0 10 0;
#X connect 5 0 15 0;
#X connect 6 0 7 0;
#X connect 6 0 92 0;
#X connect 8 0 6 0;
#X connect 8 0 76 0;
#X connect 8 1 15 0;
#X connect 10 0 13 0;
#X connect 11 0 13 1;
#X connect 12 0 15 0;
#X connect 14 0 59 0;
#X connect 16 0 17 0;
#X connect 19 0 28 0;
#X connect 19 0 32 0;
#X connect 20 0 21 0;
#X connect 20 0 28 1;
#X connect 20 0 29 0;
#X connect 20 0 32 0;
#X connect 21 0 22 0;
#X connect 23 0 20 0;
#X connect 24 0 23 1;
#X connect 25 0 23 0;
#X connect 26 0 27 0;
#X connect 27 0 32 0;
#X connect 30 0 19 0;
#X connect 30 0 25 0;
#X connect 31 0 30 0;
#X connect 33 0 34 0;
#X connect 33 0 77 0;
#X connect 33 0 78 0;
#X connect 33 0 87 0;
#X connect 33 0 91 0;
#X connect 33 0 93 0;
#X connect 35 0 36 0;
#X connect 36 0 63 0;
#X connect 38 0 41 0;
#X connect 39 0 38 0;
#X connect 40 0 48 0;
#X connect 41 0 40 0;
#X connect 41 0 27 1;
#X connect 42 0 44 0;
#X connect 42 0 58 0;
#X connect 42 0 70 0;
#X connect 43 0 84 0;
#X connect 44 0 45 0;
#X connect 44 1 46 0;
#X connect 45 0 49 0;
#X connect 46 0 49 0;
#X connect 47 0 39 1;
#X connect 50 0 47 0;
#X connect 51 0 4 0;
#X connect 52 0 5 0;
#X connect 53 0 39 0;
#X connect 54 0 55 0;
#X connect 55 0 42 0;
#X connect 56 0 57 0;
#X connect 57 0 36 0;
#X connect 58 0 60 0;
#X connect 59 0 52 0;
#X connect 59 1 51 0;
#X connect 60 0 47 1;
#X connect 61 0 62 0;
#X connect 62 0 60 0;
#X connect 68 0 67 0;
#X connect 70 0 69 0;
#X connect 71 0 35 0;
#X connect 72 0 73 0;
#X connect 73 0 42 0;
#X connect 74 0 33 0;
#X connect 78 0 75 0;
#X connect 79 0 80 0;
#X connect 80 0 60 0;
#X connect 81 0 82 0;
#X connect 83 1 35 0;
#X connect 84 0 73 0;
#X connect 84 1 85 0;
#X connect 86 0 33 0;
#X connect 87 0 88 0;
#X connect 90 0 89 0;
#X connect 93 0 94 0;
