#N canvas 0 63 641 357 10;
#X declare -path ../;
#X obj -44 20 cnv 15 790 70 empty empty FROM::INLET 20 12 0 14 -204217
-66577 0;
#X obj 142 35 inlet;
#X obj 101 465 cnv 15 280 350 empty empty write_first_loop_with_tempo
20 12 0 9 -212539 -66577 0;
#X msg 184 571 stop;
#X msg 128 595 start;
#X text 118 730 TEMPO;
#X obj 109 687 bng 15 250 50 0 empty empty empty 17 7 0 10 -262144
-1 -1;
#X obj 184 687 bng 15 250 50 0 empty empty empty 17 7 0 10 -262144
-1 -1;
#X obj 244 646 r~ \$0-input;
#X obj 223 670 tabwrite~ \$0_loop;
#X obj 68 35 inlet~;
#X obj 388 465 cnv 15 210 350 empty empty write_other_loop 20 12 0
9 -204217 -66577 0;
#X msg 394 601 start;
#X msg 442 601 stop;
#X obj 468 692 r~ \$0-input;
#X obj 531 744 +~;
#N canvas 379 190 450 300 ui 0;
#X obj 126 93 inlet;
#X obj 174 92 inlet;
#X obj 126 120 bang;
#X obj 174 120 bang;
#X msg 126 174 1;
#X msg 174 175 0;
#X obj 66 229 extra/sv \$1_\$2_is_loop_recording;
#X connect 0 0 2 0;
#X connect 1 0 3 0;
#X connect 2 0 4 0;
#X connect 3 0 5 0;
#X connect 4 0 6 1;
#X connect 5 0 6 1;
#X restore 395 682 pd ui;
#X obj 455 493 r \$0_realstart_overdub;
#X obj 455 772 tabwrite~ \$0_loop;
#X obj 639 467 cnv 15 210 350 empty empty play! 20 12 0 9 -204217 -66577
0;
#N canvas 0 63 641 357 rampgenerator 1;
#X obj 137 651 outlet~;
#X text 217 585 2 = nbbar*1/tempofinal;
#X floatatom 205 249 5 0 0 0 - - -, f 5;
#X obj 408 322 pow -1;
#X obj 409 295 / 60;
#X obj 205 296 * 1;
#X floatatom 484 301 5 0 0 0 - - -, f 5;
#X text 218 602 1 = nbbar*1/tempo;
#X obj -39 335 s \$0_loop_start;
#X obj 136 577 *~;
#X obj 566 514 s \$0_loop_precession;
#X obj -128 471 r tempoStopOut;
#X obj 408 348 * 1;
#X msg 112 387 0;
#X obj 568 304 / 1000;
#X obj 568 335 pow -1;
#X obj 568 361 * 60;
#X floatatom 567 398 5 0 0 0 - - -, f 5;
#X obj 566 477 / 1;
#X obj 568 265 r \$0_loop_tempo;
#X obj 484 331 i 0;
#X obj 566 444 t b f;
#X obj 205 269 t b f;
#N canvas 0 59 641 356 slider_ui 1;
#X obj 196 169 inlet~;
#X obj 200 227 snapshot~;
#X obj 311 139 loadbang;
#X obj 284 138 bng 15 250 50 0 empty empty empty 17 7 0 10 -262144
-1 -1;
#X floatatom 384 326 5 0 0 0 - - -, f 5;
#X obj 384 374 change;
#X obj 407 428 s \$1_recloop_ui_play;
#X obj 384 403 sel 1 0;
#X obj 384 454 s \$1_recloop_ui_stop;
#X obj 384 349 >= 1;
#X obj 384 289 extra/svosc \$1_\$2_recloop_slider;
#X floatatom 267 534 5 0 0 0 - - -, f 5;
#X obj 316 172 metro 10;
#X obj 293 391 tgl 15 0 empty empty empty 17 7 0 10 -262144 -1 -1 0
1;
#X obj 269 446 tgl 15 0 empty empty empty 17 7 0 10 -262144 -1 -1 1
1;
#X obj 293 411 sel 1;
#X obj 270 475 sel 1 0;
#X obj 267 511 realtime;
#X connect 0 0 1 0;
#X connect 1 0 10 1;
#X connect 2 0 12 0;
#X connect 3 0 12 0;
#X connect 4 0 9 0;
#X connect 5 0 7 0;
#X connect 5 0 13 0;
#X connect 7 1 6 0;
#X connect 9 0 5 0;
#X connect 10 0 4 0;
#X connect 12 0 1 0;
#X connect 13 0 15 0;
#X connect 14 0 16 0;
#X connect 15 0 14 0;
#X connect 16 0 17 0;
#X connect 16 1 17 1;
#X connect 17 0 11 0;
#X restore 21 582 pd slider_ui;
#X obj 136 543 line~;
#X obj 80 360 t b b;
#X obj 80 419 f 0;
#X msg 80 448 1 \$1;
#X obj 205 319 * 1000;
#X obj 79 197 inlet;
#X obj 222 469 r \$0_timer;
#X floatatom 235 494 10 0 0 0 - - -, f 10;
#X obj 222 521 / 1000;
#X msg -128 518 300;
#X obj 409 265 extra/sv tempo;
#X text 411 222 TODO : get global tempo when loop_tempo changed;
#X obj 607 399 s \$1_\$2_realtempo_toUI;
#X obj 205 227 r \$0_loop_size;
#X obj -153 442 r \$1_\$2_loop_clear;
#X obj -131 365 r \$0_playstop_loop;
#X obj -130 395 sel 0;
#X obj 80 285 bang;
#X text -50 292 Avoid strange noise;
#X obj -110 312 realtime;
#X floatatom -94 336 5 0 0 0 - - -, f 5;
#X obj 4 314 delay 1 1 samp;
#X floatatom 206 351 5 0 0 0 - - -, f 5;
#X connect 2 0 22 0;
#X connect 3 0 12 0;
#X connect 4 0 3 0;
#X connect 5 0 28 0;
#X connect 6 0 20 0;
#X connect 9 0 0 0;
#X connect 11 0 33 0;
#X connect 12 0 5 0;
#X connect 13 0 24 0;
#X connect 14 0 15 0;
#X connect 15 0 16 0;
#X connect 16 0 17 0;
#X connect 16 0 36 0;
#X connect 17 0 21 0;
#X connect 18 0 10 0;
#X connect 19 0 14 0;
#X connect 20 0 18 0;
#X connect 21 0 18 0;
#X connect 21 1 18 1;
#X connect 22 0 5 0;
#X connect 22 1 5 1;
#X connect 24 0 9 0;
#X connect 24 0 23 0;
#X connect 25 0 26 0;
#X connect 25 1 13 0;
#X connect 26 0 27 0;
#X connect 27 0 24 0;
#X connect 28 0 46 0;
#X connect 29 0 41 0;
#X connect 30 0 31 0;
#X connect 31 0 32 0;
#X connect 32 0 9 1;
#X connect 33 0 24 0;
#X connect 34 0 4 0;
#X connect 34 0 6 0;
#X connect 37 0 2 0;
#X connect 38 0 33 0;
#X connect 39 0 40 0;
#X connect 40 0 33 0;
#X connect 41 0 25 0;
#X connect 41 0 43 0;
#X connect 41 0 45 0;
#X connect 43 0 44 0;
#X connect 45 0 8 0;
#X connect 45 0 43 1;
#X connect 46 0 26 1;
#X restore 662 628 pd rampgenerator;
#X obj 662 716 *~ 1;
#X obj 518 44 inlet;
#X obj 184 549 bng 15 250 50 0 empty empty empty 17 7 0 10 -262144
-1 -1;
#X obj 129 550 bng 15 250 50 0 empty empty empty 17 7 0 10 -262144
-1 -1;
#X obj 662 596 bng 15 250 50 0 empty empty empty 17 7 0 10 -262144
-1 -1;
#X obj 149 520 sel 1 0;
#N canvas 11 68 641 356 manageRecording 0;
#X obj 612 455 s \$0_realstart_overdub;
#X obj 401 7 inlet;
#X obj 404 128 bng 40 1000 500 0 empty empty empty 17 7 0 10 -4034
-1 -1;
#X obj 326 93 tgl 15 0 empty empty empty 17 7 0 10 -262144 -1 -1 0
1;
#X obj 279 76 extra/sv \$1_\$2_is_loop_recorded;
#X obj 276 128 bng 40 1000 500 0 empty empty empty 17 7 0 10 -258113
-1 -1;
#X text 255 127 NO;
#X text 449 128 YES;
#X obj 114 210 extra/sv tempo_isplaying;
#X obj 401 50 bang;
#X obj 326 111 sel 0 1;
#X obj 214 263 bng 40 1000 500 0 empty empty empty 17 7 0 10 -4034
-1 -1;
#X obj 86 263 bng 40 1000 500 0 empty empty empty 17 7 0 10 -258113
-1 -1;
#X text 62 262 NO;
#X text 255 266 YES;
#X obj 153 246 sel 0 1;
#X obj -40 317 extra/sv \$1_\$2_is_loop_recording;
#X obj 37 342 sel 0 1;
#X obj -35 436 s \$0_realstart_first;
#X msg -35 406 1;
#X msg 21 407 0;
#X text 79 405 start loop auto;
#X obj 200 317 extra/sv \$1_\$2_is_loop_recording;
#X obj 345 342 sel 0 1;
#X obj 165 455 s \$0_realstart_first_with_tempo;
#X obj 200 343 r tempo_quantif_bang;
#X msg 258 396 -1;
#X obj 200 396 i -1;
#X msg 297 363 1;
#X msg 337 363 0;
#X obj -38 474 bng 40 1000 500 0 empty empty 1 17 7 0 10 -258113 -1
-1;
#X obj 12 474 bng 40 1000 500 0 empty empty 0 17 7 0 10 -4034 -1 -1
;
#X obj 200 474 bng 40 1000 500 0 empty empty 1 17 7 0 10 -258113 -1
-1;
#X obj 250 474 bng 40 1000 500 0 empty empty 0 17 7 0 10 -4034 -1 -1
;
#X obj 210 432 sel 1 0;
#X obj 490 215 extra/sv \$1_\$2_is_loop_playing;
#X obj 625 258 bng 40 1000 500 0 empty empty empty 17 7 0 10 -4034
-1 -1;
#X obj 497 258 bng 40 1000 500 0 empty empty empty 17 7 0 10 -258113
-1 -1;
#X text 473 257 NO;
#X text 666 261 YES;
#X obj 564 241 sel 0 1;
#X obj 627 344 r \$0_loop_start;
#X msg 673 392 -1;
#X obj 627 393 i -1;
#X obj 620 317 extra/sv \$1_\$2_is_loop_recording;
#X obj 735 342 sel 0 1;
#X msg 711 364 1;
#X msg 751 364 0;
#X obj 631 432 sel 1 0;
#X obj 611 476 bng 40 1000 500 0 empty empty 1 17 7 0 10 -258113 -1
-1;
#X obj 661 476 bng 40 1000 500 0 empty empty 0 17 7 0 10 -4034 -1 -1
;
#X obj 69 385 bng 15 250 50 0 empty empty empty 17 7 0 10 -262144 -1
-1;
#X obj 280 427 extra/sv \$1_\$2_is_loop_waitforrec;
#X msg 345 406 1;
#X msg 382 372 1;
#X obj 167 434 sel -1;
#X obj 586 432 sel -1;
#X obj 736 393 extra/sv \$1_\$2_is_loop_waitforrec;
#X msg 801 372 1;
#X obj 382 406 extra/sv \$1_\$2_loop_playbutton;
#X obj 114 107 timer;
#X floatatom 114 133 5 0 0 0 - - -, f 5;
#X msg 136 81 start;
#X obj -38 521 outlet;
#X connect 1 0 9 0;
#X connect 1 0 62 0;
#X connect 2 0 35 2;
#X connect 3 0 10 0;
#X connect 4 1 3 0;
#X connect 5 0 8 2;
#X connect 8 1 15 0;
#X connect 9 0 4 2;
#X connect 10 0 5 0;
#X connect 10 1 2 0;
#X connect 11 0 22 2;
#X connect 12 0 16 2;
#X connect 15 0 12 0;
#X connect 15 1 11 0;
#X connect 16 1 17 0;
#X connect 17 0 19 0;
#X connect 17 1 20 0;
#X connect 17 1 51 0;
#X connect 19 0 18 0;
#X connect 19 0 30 0;
#X connect 20 0 18 0;
#X connect 20 0 31 0;
#X connect 22 1 23 0;
#X connect 22 1 53 0;
#X connect 23 0 28 0;
#X connect 23 1 29 0;
#X connect 23 1 54 0;
#X connect 25 0 27 0;
#X connect 26 0 27 1;
#X connect 27 0 26 0;
#X connect 27 0 34 0;
#X connect 27 0 55 0;
#X connect 28 0 27 1;
#X connect 29 0 27 1;
#X connect 30 0 63 0;
#X connect 34 0 32 0;
#X connect 34 1 33 0;
#X connect 35 1 40 0;
#X connect 36 0 44 2;
#X connect 40 0 37 0;
#X connect 40 1 36 0;
#X connect 41 0 43 0;
#X connect 42 0 43 1;
#X connect 43 0 42 0;
#X connect 43 0 48 0;
#X connect 43 0 56 0;
#X connect 44 1 45 0;
#X connect 44 1 58 0;
#X connect 45 0 46 0;
#X connect 45 1 47 0;
#X connect 46 0 43 1;
#X connect 47 0 43 1;
#X connect 48 0 49 0;
#X connect 48 1 50 0;
#X connect 53 0 52 1;
#X connect 54 0 59 1;
#X connect 55 1 24 0;
#X connect 56 1 0 0;
#X connect 58 0 57 1;
#X connect 60 0 61 0;
#X restore 164 400 pd manageRecording;
#X obj 821 155 cnv 15 430 260 empty empty Control_panel 20 12 0 14
-237308 -66577 0;
#N canvas 545 163 595 445 (subpatch) 0;
#X array \$0_loop 1.2e+06 float 0;
#X coords 0 -1 1.2e+06 1 200 60 1 0 0;
#X restore 1038 351 graph;
#N canvas 208 310 1009 300 init 0;
#X floatatom 279 45 4 0 100 0 - - -, f 4;
#X obj 279 65 * 0.001;
#X text 314 45 msec;
#X obj 279 -9 bang;
#X obj 279 -39 loadbang;
#X obj 279 88 s \$0_chunk-size;
#X obj 162 46 pack \$0;
#X msg 162 68 \; \$1_loop const 0;
#X obj 391 -21 delay 200;
#X msg 700 -20 0;
#X obj 424 88 extra/sv \$1_\$2_is_loop_recorded;
#X obj 742 18 extra/sv \$1_\$2_is_loop_recording;
#X obj 749 47 extra/sv \$1_\$2_is_loop_playing;
#X msg 279 23 25;
#X obj 754 77 extra/sv \$1_\$2_is_loop_waitforrec;
#X obj 748 115 extra/sv \$1_\$2_is_loop_waitforplay;
#X msg 422 37 0;
#X obj 278 135 bang;
#X obj 98 111 array size \$0_loop;
#X obj 98 87 i 0;
#X obj 184 2 t b b;
#X text 751 149 manque le slider;
#X obj 193 -33 bng 15 250 50 0 empty empty empty 17 7 0 10 -262144
-1 -1;
#X obj 215 201 extra/svsave \$1_\$2_looper_volume;
#X obj 451 200 extra/svsave \$1_\$2_looper_sendA;
#X obj 657 201 extra/svsave \$1_\$2_looper_sendB;
#X msg 97 63 1.2e+06;
#X connect 0 0 1 0;
#X connect 1 0 5 0;
#X connect 3 0 13 0;
#X connect 4 0 3 0;
#X connect 4 0 8 0;
#X connect 4 0 9 0;
#X connect 4 0 17 0;
#X connect 4 0 20 0;
#X connect 6 0 7 0;
#X connect 8 0 16 0;
#X connect 9 0 11 3;
#X connect 9 0 12 3;
#X connect 9 0 14 3;
#X connect 9 0 15 3;
#X connect 13 0 0 0;
#X connect 16 0 10 3;
#X connect 19 0 18 0;
#X connect 20 0 6 0;
#X connect 20 1 26 0;
#X connect 22 0 20 0;
#X connect 26 0 19 0;
#X restore 17 126 pd init;
#X obj 1041 278 hsl 170 15 0 1 0 0 empty empty empty -2 -8 0 10 -262144
-1 -1 14687 1;
#X obj 142 293 sel 0;
#N canvas 379 215 623 468 longORshort 0;
#X obj 153 75 inlet;
#X obj 152 180 timer;
#X obj 153 119 sel 0;
#X obj 187 149 bang;
#X obj 151 224 > 500;
#X obj 151 298 bng 15 250 50 0 empty empty empty 17 7 0 10 -262144
-1 -1;
#X obj 181 298 bng 15 250 50 0 empty empty empty 17 7 0 10 -262144
-1 -1;
#X obj 151 256 sel 0;
#X obj 151 419 outlet;
#X obj 223 417 outlet;
#X obj 380 102 sel 0;
#X obj 398 239 i 0;
#X obj 398 270 sel 0;
#X obj 399 311 bng 15 250 50 0 empty empty empty 17 7 0 10 -262144
-1 -1;
#X obj 431 312 bng 15 250 50 0 empty empty empty 17 7 0 10 -262144
-1 -1;
#X obj 432 414 s \$1_recloop_ui_waitforclear;
#X obj 435 162 bng 15 250 50 0 empty empty empty 17 7 0 10 -262144
-1 -1;
#X obj 444 196 delay 1000;
#X connect 0 0 2 0;
#X connect 0 0 10 0;
#X connect 0 0 11 1;
#X connect 1 0 4 0;
#X connect 2 0 1 1;
#X connect 2 1 3 0;
#X connect 3 0 1 0;
#X connect 4 0 7 0;
#X connect 5 0 8 0;
#X connect 7 0 5 0;
#X connect 7 1 6 0;
#X connect 10 1 16 0;
#X connect 11 0 12 0;
#X connect 12 0 13 0;
#X connect 12 1 14 0;
#X connect 14 0 9 0;
#X connect 16 0 17 0;
#X connect 17 0 11 0;
#X restore 518 231 pd longORshort;
#N canvas 59 200 776 489 save 0;
#X obj -565 234 soundfiler;
#X obj 126 17 t b b;
#X obj 126 -17 inlet;
#X obj 26 -8 bang;
#X obj -53 139 i 0;
#X msg 340 286 clear;
#X obj 10 354 textfile;
#X obj -148 244 extra/sv song;
#X obj -236 45 extra/sv \$1_\$2_is_loop_recorded;
#X msg 15 286 add exist \$1;
#X text -208 104 Save info file into text;
#X obj 26 -31 r save_song;
#X obj -76 208 s get_samples_location;
#X obj -137 262 r samples_location;
#X obj -475 102 extra/sv song;
#X obj -445 122 r samples_location;
#X obj -238 283 pack \$1 \$2 1 s;
#X msg -238 320 write \$4/\$3/loop\$1_\$2_info.txt;
#X obj -565 191 pack \$0 \$1 \$2 1 s 1000;
#X obj -414 146 r \$0_timer;
#X obj -414 169 * 44.1;
#X msg -565 212 write -wave -nframes \$6 \$5/\$4/loop\$2_\$3.wav \$1_loop
;
#X obj 263 228 r \$0_loop_size;
#X obj -53 161 t b b f b b b;
#X obj 225 262 i 0;
#X msg 225 286 add duration \$1;
#X obj 112 262 i 0;
#X obj 150 228 r \$0_loop_tempo;
#X msg 116 283 add tempo \$1;
#X connect 1 0 8 2;
#X connect 2 0 1 0;
#X connect 3 0 1 0;
#X connect 4 0 23 0;
#X connect 5 0 6 0;
#X connect 7 0 16 2;
#X connect 8 1 4 0;
#X connect 9 0 6 0;
#X connect 11 0 3 0;
#X connect 13 0 16 3;
#X connect 14 0 18 3;
#X connect 15 0 18 4;
#X connect 16 0 17 0;
#X connect 17 0 6 0;
#X connect 18 0 21 0;
#X connect 19 0 20 0;
#X connect 20 0 18 5;
#X connect 21 0 0 0;
#X connect 22 0 24 1;
#X connect 23 0 16 0;
#X connect 23 0 18 0;
#X connect 23 1 12 0;
#X connect 23 2 9 0;
#X connect 23 3 26 0;
#X connect 23 4 24 0;
#X connect 23 5 5 0;
#X connect 24 0 25 0;
#X connect 25 0 6 0;
#X connect 26 0 28 0;
#X connect 27 0 26 1;
#X connect 28 0 6 0;
#X restore 8 288 pd save;
#X obj 8 256 bng 15 250 50 0 empty empty empty 17 7 0 10 -262144 -1
-1;
#N canvas 56 120 670 562 open 0;
#X obj 144 159 soundfiler;
#X obj 183 319 / 44.1;
#X floatatom 183 349 10 0 0 0 - - -, f 10;
#X obj 144 -8 inlet;
#X obj 480 82 openpanel;
#X obj 480 114 pack s \$0;
#X obj 480 61 bang;
#X obj 480 41 inlet;
#X obj 531 41 r \$1_\$2_loop_open;
#X text 165 -13 Open from saved song;
#X text 654 50 open from file;
#X obj 357 78 extra/sv song;
#X obj 43 -19 r loadsong;
#X text 144 445 TODO : save a txt file associated to each samples (
exist ? \, volume \, reversed ? );
#X obj 43 3 bng 15 250 50 0 empty empty empty 17 7 0 10 -262144 -1
-1;
#X obj 144 186 sel 0;
#N canvas 584 129 630 509 checkinfofile 0;
#X obj 157 14 inlet;
#X obj 250 133 extra/sv song;
#X obj 196 220 textfile;
#X msg 127 138 rewind;
#X obj 88 138 bang;
#X obj 171 42 bng 15 250 50 0 empty empty empty 17 7 0 10 -262144 -1
-1;
#X obj 48 138 bang;
#X obj 8 138 bang;
#X obj 57 310 sel 1 0;
#X obj 80 357 extra/sv \$1_\$2_is_loop_recorded;
#X obj 57 451 outlet;
#X obj 107 64 t b b b b b b b b b;
#X obj 196 160 pack \$1 \$2 1 s;
#X obj 221 88 s get_samples_location;
#X obj 276 109 r samples_location;
#X msg 196 185 read \$4/\$3/loop\$1_\$2_info.txt;
#X obj 190 267 route exist tempo duration;
#X obj 309 292 s \$0_loop_size;
#X obj 249 313 s \$0_loop_tempo;
#X obj 70 381 s \$1_\$2_loop_clear;
#X connect 0 0 5 0;
#X connect 0 0 11 0;
#X connect 1 0 12 2;
#X connect 2 0 16 0;
#X connect 3 0 2 0;
#X connect 4 0 2 0;
#X connect 6 0 2 0;
#X connect 7 0 2 0;
#X connect 8 0 10 0;
#X connect 8 1 19 0;
#X connect 11 2 7 0;
#X connect 11 3 6 0;
#X connect 11 4 4 0;
#X connect 11 5 3 0;
#X connect 11 6 12 0;
#X connect 11 8 13 0;
#X connect 12 0 15 0;
#X connect 14 0 12 3;
#X connect 15 0 2 0;
#X connect 16 0 8 0;
#X connect 16 0 9 1;
#X connect 16 1 18 0;
#X connect 16 2 17 0;
#X restore 92 253 pd checkinfofile;
#X obj 171 215 t b f;
#X obj 183 293 f 0;
#X obj 480 165 soundfiler;
#X obj 507 316 / 44.1;
#X floatatom 507 346 10 0 0 0 - - -, f 10;
#N canvas 890 50 509 628 tempoCalculation 0;
#X obj 133 46 s \$0_timer;
#X floatatom 69 134 5 0 0 0 - - -, f 5;
#X obj 42 505 /;
#X obj 123 182 log;
#X obj 123 271 i;
#X obj 123 221 / 0.693147;
#X floatatom 123 248 5 0 0 0 - - -, f 5;
#X floatatom 123 302 5 0 0 0 - - -, f 5;
#X obj 114 388 pow;
#X msg 102 360 2;
#X floatatom 114 413 5 0 0 0 - - -, f 5;
#X obj 115 461 s \$0_loop_size;
#X obj 102 327 t b f;
#X obj 42 68 t f f;
#X obj 69 105 / 380;
#X obj 59 1 inlet;
#X obj 42 545 t b b f;
#X obj 81 581 s \$0_loop_tempo;
#X obj 61 604 s \$0_begin;
#X msg 29 610 1;
#X obj -22 647 extra/sv \$1_\$2_is_loop_recorded;
#X obj 180 648 extra/sv \$1_\$2_is_loop_waitforplay;
#X connect 1 0 3 0;
#X connect 2 0 16 0;
#X connect 3 0 5 0;
#X connect 4 0 7 0;
#X connect 5 0 6 0;
#X connect 6 0 4 0;
#X connect 7 0 12 0;
#X connect 8 0 10 0;
#X connect 9 0 8 0;
#X connect 10 0 2 1;
#X connect 10 0 11 0;
#X connect 12 0 9 0;
#X connect 12 1 8 1;
#X connect 13 0 2 0;
#X connect 13 1 14 0;
#X connect 14 0 1 0;
#X connect 15 0 0 0;
#X connect 15 0 13 0;
#X connect 16 0 19 0;
#X connect 16 1 18 0;
#X connect 16 2 17 0;
#X connect 19 0 20 1;
#X connect 19 0 21 1;
#X restore 507 369 pd tempoCalculation;
#X text 209 238 Be sure there is a loop saved with this looper;
#X obj 480 196 sel 0;
#X text 515 269 From a file \, open the file only;
#X msg 480 142 read \$1 \$2_loop;
#X obj 163 52 s get_samples_location;
#X obj 144 111 pack \$0 \$1 \$2 1 s;
#X obj 243 78 r samples_location;
#X msg 144 137 read \$5/\$4/loop\$2_\$3.wav \$1_loop;
#N canvas 94 81 509 628 config 0;
#X obj 59 42 /;
#X obj 59 1 inlet;
#X obj 134 118 s \$0_loop_tempo;
#X obj 78 148 s \$0_begin;
#X msg 46 147 1;
#X obj 24 177 extra/sv \$1_\$2_is_loop_recorded;
#X text 152 152 Toujours d'actualité?;
#X obj 133 46 s \$0_timer;
#X obj -100 176 s \$0_playstop_loop;
#X msg -146 172 0;
#X obj -137 215 extra/sv \$1_\$2_is_loop_waitforrec;
#X obj -125 239 extra/sv \$1_\$2_is_loop_waitforplay;
#X obj -128 291 extra/sv \$1_\$2_is_loop_recording;
#X obj -130 267 s \$0_realstart_overdub;
#X obj 59 82 t b b b b b f;
#X msg -39 154 0;
#X connect 0 0 14 0;
#X connect 1 0 7 0;
#X connect 1 0 0 0;
#X connect 4 0 5 1;
#X connect 9 0 10 1;
#X connect 9 0 11 1;
#X connect 9 0 12 1;
#X connect 9 0 13 0;
#X connect 14 0 9 0;
#X connect 14 1 15 0;
#X connect 14 3 4 0;
#X connect 14 5 2 0;
#X connect 15 0 8 0;
#X restore 183 390 pd config;
#X obj 144 15 t b b b b;
#X connect 0 0 15 0;
#X connect 1 0 2 0;
#X connect 2 0 31 0;
#X connect 3 0 32 0;
#X connect 4 0 5 0;
#X connect 5 0 26 0;
#X connect 6 0 4 0;
#X connect 7 0 6 0;
#X connect 8 0 6 0;
#X connect 11 1 28 3;
#X connect 12 0 14 0;
#X connect 14 0 32 0;
#X connect 15 1 17 0;
#X connect 16 0 18 0;
#X connect 17 0 16 0;
#X connect 17 1 18 1;
#X connect 18 0 1 0;
#X connect 19 0 24 0;
#X connect 20 0 21 0;
#X connect 21 0 22 0;
#X connect 24 1 20 0;
#X connect 26 0 19 0;
#X connect 28 0 30 0;
#X connect 29 0 28 4;
#X connect 30 0 0 0;
#X connect 32 0 28 0;
#X connect 32 1 27 0;
#X connect 32 2 11 2;
#X restore 9 335 pd open;
#X obj 9 313 bng 15 250 50 0 empty empty empty 17 7 0 10 -262144 -1
-1;
#X text 612 239 clear_with_longpress;
#X obj 184 591 t b b a;
#X obj 47 314 bng 15 250 50 0 empty empty empty 17 7 0 10 -262144 -1
-1;
#X msg 203 747 1;
#X obj 825 181 extra/sv \$1_\$2_is_loop_waitforrec;
#X obj 142 786 extra/sv \$1_\$2_is_loop_recorded;
#X obj 1075 465 cnv 15 280 350 empty empty CLEAR 20 12 0 9 -204217
-66577 0;
#X obj 169 327 bng 35 250 50 0 empty empty rec 11 7 0 10 -258113 -1
-1;
#X obj 826 259 extra/sv \$1_\$2_is_loop_recorded;
#X obj 854 466 cnv 15 210 350 empty empty OUTLET 20 12 0 9 -204217
-66577 0;
#X obj 1171 486 bng 15 250 50 0 empty empty empty 17 7 0 10 -258113
-1 -1;
#X obj 1202 649 delay 1000;
#X obj 1142 751 pack \$0;
#X msg 1142 773 \; \$1_loop const 0;
#X obj 1093 801 outlet;
#X msg 1233 526 0;
#X obj 1202 674 s \$1_\$2_recloop_deleted_ui;
#X obj 1257 552 extra/sv \$1_\$2_is_loop_recorded;
#N canvas 74 50 761 687 ledoutrec 0;
#X msg 102 285 1;
#X obj 102 447 tgl 15 0 empty empty empty 17 7 0 10 -262144 -1 -1 1
1;
#X obj 102 474 sel 1;
#X msg 102 377 bang;
#X msg 146 377 stop;
#X obj 102 328 sel 1;
#X obj 153 349 t b b;
#X msg 178 447 1;
#X msg 284 572 1;
#X msg 312 572 0;
#X obj 284 616 outlet;
#X obj 284 212 extra/sv \$1_\$2_is_loop_recording;
#X obj 284 469 sel 1 0;
#X obj 284 242 t f b;
#X obj 491 181 r \$1_\$2_recloop_deleted_ui;
#X text 499 155 Animation on delete over;
#X text 49 152 Begin animation on delete;
#X msg 485 231 0;
#X obj 102 418 metro 100;
#X obj 86 194 extra/sv \$1_\$2_is_loop_waitforrec;
#X obj 50 171 r \$1_\$2_loop_clear;
#X connect 0 0 5 0;
#X connect 1 0 2 0;
#X connect 2 0 8 0;
#X connect 2 1 9 0;
#X connect 3 0 18 0;
#X connect 4 0 18 0;
#X connect 5 0 3 0;
#X connect 5 1 6 0;
#X connect 6 0 4 0;
#X connect 6 1 7 0;
#X connect 7 0 2 0;
#X connect 8 0 10 0;
#X connect 9 0 10 0;
#X connect 11 0 13 0;
#X connect 12 0 8 0;
#X connect 12 1 9 0;
#X connect 13 0 12 0;
#X connect 13 1 4 0;
#X connect 14 0 17 0;
#X connect 17 0 13 0;
#X connect 18 0 1 0;
#X connect 19 0 0 0;
#X connect 20 0 0 0;
#X restore 882 738 pd ledoutrec;
#X obj 882 773 outlet;
#X obj 976 773 outlet;
#N canvas 291 59 881 687 ledoutplay 0;
#X msg 243 271 1;
#X obj 251 433 tgl 15 0 empty empty empty 17 7 0 10 -262144 -1 -1 0
1;
#X obj 251 460 sel 1;
#X msg 227 363 bang;
#X msg 287 364 stop;
#X obj 243 314 sel 1;
#X obj 294 335 t b b;
#X msg 319 428 1;
#X obj 407 585 outlet;
#X msg 407 522 1;
#X msg 469 522 0;
#X obj 407 434 sel 1 0;
#X obj 407 170 extra/sv \$1_\$2_is_loop_playing;
#N canvas 172 443 450 300 waitforplay 0;
#X obj 71 166 != -1;
#X obj 71 197 sel 1;
#X obj 71 242 outlet;
#X obj 65 -62 extra/sv \$1_\$2_is_loop_waitforplay;
#X obj 118 96 extra/sv \$1_\$2_is_loop_playing;
#X obj 71 67 t f b;
#X obj -112 -2 extra/sv \$1_\$2_is_loop_recorded;
#X obj 65 -26 t b f;
#X obj 71 42 i -1;
#X obj 71 18 sel 1;
#X connect 0 0 1 0;
#X connect 1 0 2 0;
#X connect 3 0 7 0;
#X connect 4 1 0 1;
#X connect 5 0 0 0;
#X connect 5 1 4 2;
#X connect 6 1 9 0;
#X connect 7 0 6 2;
#X connect 7 1 8 1;
#X connect 8 0 5 0;
#X connect 9 0 8 0;
#X restore 243 196 pd waitforplay;
#X obj 407 294 t f b;
#X obj 52 246 r \$1_\$2_recloop_deleted_ui;
#X text 608 110 Animation on delete over;
#X msg 52 272 0;
#X obj 251 404 metro 100;
#X obj 93 274 bng 15 250 50 0 empty empty empty 17 7 0 10 -262144 -1
-1;
#X msg 13 271 1;
#X obj 21 433 tgl 15 0 empty empty empty 17 7 0 10 -262144 -1 -1 0
1;
#X obj 21 460 sel 1;
#X msg -3 363 bang;
#X msg 57 364 stop;
#X obj 13 314 sel 1;
#X obj 64 335 t b b;
#X obj 13 244 bng 15 250 50 0 empty empty empty 17 7 0 10 -262144 -1
-1;
#X obj 21 404 metro 100;
#X msg 89 428 0;
#X obj 13 196 r \$1_\$2_loop_clear;
#X connect 0 0 5 0;
#X connect 1 0 2 0;
#X connect 2 0 9 0;
#X connect 2 1 10 0;
#X connect 3 0 18 0;
#X connect 4 0 18 0;
#X connect 5 0 3 0;
#X connect 5 1 6 0;
#X connect 6 0 4 0;
#X connect 6 1 7 0;
#X connect 7 0 2 0;
#X connect 9 0 8 0;
#X connect 10 0 8 0;
#X connect 11 0 9 0;
#X connect 11 1 10 0;
#X connect 12 0 14 0;
#X connect 13 0 0 0;
#X connect 14 0 11 0;
#X connect 14 1 4 0;
#X connect 15 0 17 0;
#X connect 15 0 19 0;
#X connect 17 0 25 0;
#X connect 18 0 1 0;
#X connect 20 0 25 0;
#X connect 21 0 22 0;
#X connect 22 0 9 0;
#X connect 22 1 10 0;
#X connect 23 0 28 0;
#X connect 24 0 28 0;
#X connect 25 0 23 0;
#X connect 25 1 26 0;
#X connect 26 0 24 0;
#X connect 26 1 29 0;
#X connect 27 0 20 0;
#X connect 28 0 21 0;
#X connect 29 0 22 0;
#X connect 30 0 27 0;
#X restore 976 738 pd ledoutplay;
#X text 209 229 record;
#X obj 1243 786 array size \$0_loop;
#X obj 1243 763 i 0;
#X obj 662 656 *~ 44100;
#X obj 230 143 extra/sv module_selected;
#X obj 230 166 == \$1;
#X obj 197 193 spigot;
#X obj 197 123 extra/sv global_rec;
#X obj 615 140 extra/sv module_selected;
#X obj 615 163 == \$1;
#X obj 582 190 spigot;
#X obj 582 120 extra/sv global_play;
#X obj 1 154 declare -path ../;
#X obj 662 746 mixer \$1_\$2_looper;
#X obj 693 792 outlet~;
#X obj 743 792 outlet~;
#X obj 793 789 outlet~;
#X obj -186 465 cnv 15 280 350 empty empty write_first_loop 20 12 0
9 -212539 -66577 0;
#X msg -103 571 stop;
#X msg -157 592 start;
#X text -169 730 TEMPO;
#X obj -178 687 bng 15 250 50 0 empty empty empty 17 7 0 10 -262144
-1 -1;
#X obj -84 688 bng 15 250 50 0 empty empty empty 17 7 0 10 -262144
-1 -1;
#X obj -19 620 r~ \$0-input;
#X obj -137 497 r \$0_realstart_first;
#X obj -64 670 tabwrite~ \$0_loop;
#X obj -103 549 bng 15 250 50 0 empty empty empty 17 7 0 10 -262144
-1 -1;
#X obj -158 550 bng 15 250 50 0 empty empty empty 17 7 0 10 -262144
-1 -1;
#X obj -138 520 sel 1 0;
#X obj -103 591 t b b a;
#X msg -106 747 1;
#X obj -167 786 extra/sv \$1_\$2_is_loop_recorded;
#X obj 149 497 r \$0_realstart_first_with_tempo;
#X obj 455 515 sel 1 0;
#X obj 394 553 bng 15 250 50 0 empty empty empty 17 7 0 10 -262144
-1 -1;
#X obj 442 553 bng 15 250 50 0 empty empty empty 17 7 0 10 -262144
-1 -1;
#X obj 581 551 tgl 15 0 empty empty empty 17 7 0 10 -262144 -1 -1 0
1;
#X obj 469 551 r \$0_loop_start;
#X obj 542 584 spigot;
#X obj 542 609 t b b;
#X msg 510 640 start;
#X msg 558 640 stop;
#X obj 1038 258 extra/sv \$1_\$2_recloop_slider;
#X obj 1211 697 r bigReset;
#X obj 1211 718 t b b;
#X obj 1133 297 r \$0_loop_size;
#X obj 1036 298 r \$0_loop_tempo;
#X floatatom 1133 319 5 0 0 0 - - -, f 5;
#X floatatom 1036 321 5 0 0 0 - - -, f 5;
#X msg 1243 742 1.2e+06;
#X floatatom 825 202 5 0 0 0 - - -, f 5;
#X floatatom 826 283 5 0 0 0 - - -, f 5;
#X obj 825 219 extra/sv \$1_\$2_is_loop_recording;
#X obj 825 301 extra/sv \$1_\$2_is_loop_playing;
#X obj 824 342 extra/sv \$1_\$2_is_loop_waitforplay;
#X floatatom 825 241 5 0 0 0 - - -, f 5;
#X floatatom 825 323 5 0 0 0 - - -, f 5;
#X floatatom 824 363 5 0 0 0 - - -, f 5;
#X obj 520 334 bng 35 250 50 0 empty empty play 11 7 0 10 -4034 -1
-1;
#N canvas 21 50 923 612 managePlaying 0;
#X obj 401 7 inlet;
#X obj 396 128 bng 40 1000 500 0 empty empty empty 17 7 0 10 -4034
-1 -1;
#X obj 326 93 tgl 15 0 empty empty empty 17 7 0 10 -262144 -1 -1 0
1;
#X obj 279 76 extra/sv \$1_\$2_is_loop_recorded;
#X obj 276 128 bng 40 1000 500 0 empty empty empty 17 7 0 10 -258113
-1 -1;
#X text 383 249 NO;
#X text 449 128 YES;
#X obj 401 50 bang;
#X obj 326 111 sel 0 1;
#X obj 684 315 extra/sv \$1_\$2_is_loop_playing;
#X obj 819 358 bng 40 1000 500 0 empty empty empty 17 7 0 10 -4034
-1 -1;
#X obj 691 358 bng 40 1000 500 0 empty empty empty 17 7 0 10 -258113
-1 -1;
#X text 667 357 NO;
#X text 860 361 YES;
#X obj 758 341 sel 0 1;
#X obj 534 248 bng 40 1000 500 0 empty empty empty 17 7 0 10 -4034
-1 -1;
#X obj 407 248 bng 40 1000 500 0 empty empty empty 17 7 0 10 -258113
-1 -1;
#X text 575 251 YES;
#X obj 473 231 sel 0 1;
#X obj 406 199 extra/sv tempo_isplaying;
#X text 255 127 NO;
#X text 404 295 start ?;
#X text 864 384 stop loop;
#X obj 560 400 r tempo_quantif_bang;
#X msg 729 425 -1;
#X obj 671 425 i -1;
#X msg 692 400 1;
#X text 864 404 stop directly;
#X obj 671 510 s \$0_playstop_loop;
#X msg 671 477 1;
#X msg 771 477 0;
#X obj 655 532 extra/sv \$1_\$2_is_loop_waitforplay;
#X text 93 249 NO;
#X obj 225 256 bng 40 1000 500 0 empty empty empty 17 7 0 10 -4034
-1 -1;
#X obj 101 259 bng 40 1000 500 0 empty empty empty 17 7 0 10 -258113
-1 -1;
#X text 285 251 YES;
#X obj 183 231 sel 0 1;
#X obj 116 199 extra/sv \$1_\$2_is_loop_recording;
#X obj 193 477 r tempo_quantif_bang;
#X msg 363 504 -1;
#X obj 305 504 i -1;
#X msg 326 479 1;
#X obj 305 609 s \$0_playstop_loop;
#X msg 305 576 1;
#X obj 671 449 sel -1;
#X obj 305 542 sel -1;
#X text 143 389 NO;
#X obj 214 388 bng 40 1000 500 0 empty empty empty 17 7 0 10 -4034
-1 -1;
#X obj 87 388 bng 40 1000 500 0 empty empty empty 17 7 0 10 -258113
-1 -1;
#X text 335 391 YES;
#X obj 198 363 sel 0 1;
#X obj 133 340 extra/sv tempo_isplaying;
#X obj 69 481 s \$0_playstop_loop;
#X msg 69 448 1;
#X obj 408 312 t b b;
#X msg 435 337 1;
#X obj 435 364 s \$0_playstop_loop;
#X obj 400 381 s tempoGoIn;
#X connect 0 0 7 0;
#X connect 1 0 19 2;
#X connect 2 0 8 0;
#X connect 3 1 2 0;
#X connect 4 0 37 2;
#X connect 7 0 3 2;
#X connect 8 0 4 0;
#X connect 8 1 1 0;
#X connect 9 1 14 0;
#X connect 10 0 30 0;
#X connect 11 0 26 0;
#X connect 14 0 11 0;
#X connect 14 1 10 0;
#X connect 15 0 9 2;
#X connect 16 0 54 0;
#X connect 18 0 16 0;
#X connect 18 1 15 0;
#X connect 19 1 18 0;
#X connect 23 0 25 0;
#X connect 24 0 25 1;
#X connect 25 0 24 0;
#X connect 25 0 44 0;
#X connect 26 0 25 1;
#X connect 26 0 31 1;
#X connect 29 0 28 0;
#X connect 30 0 28 0;
#X connect 33 0 51 2;
#X connect 36 0 34 0;
#X connect 36 1 33 0;
#X connect 37 1 36 0;
#X connect 38 0 40 0;
#X connect 39 0 40 1;
#X connect 40 0 39 0;
#X connect 40 0 45 0;
#X connect 41 0 40 1;
#X connect 43 0 42 0;
#X connect 44 1 29 0;
#X connect 45 1 43 0;
#X connect 47 0 41 0;
#X connect 48 0 53 0;
#X connect 50 0 48 0;
#X connect 50 1 47 0;
#X connect 51 1 50 0;
#X connect 53 0 52 0;
#X connect 54 0 57 0;
#X connect 54 1 55 0;
#X connect 55 0 56 0;
#X restore 519 392 pd managePlaying;
#N canvas 0 63 641 357 manage 0;
#X obj 64 187 f;
#X obj 98 188 + 1;
#X obj 64 58 bng 15 250 50 0 empty empty empty 17 7 0 10 -262144 -1
-1;
#X floatatom 64 216 5 0 0 0 - - -, f 5;
#X obj 192 188 r \$0_loop_size;
#X obj 64 239 mod 1;
#X msg 197 152 0;
#X obj 64 262 select 0;
#X obj 382 131 r tempoStopOut;
#X obj 130 294 extra/sv \$1_\$2_is_loop_playing;
#X obj 64 18 r tempo_click_bang;
#X obj 200 18 inlet;
#X obj 64 100 spigot;
#X obj 118 63 tgl 15 0 empty empty empty 17 7 0 10 -262144 -1 -1 1
1;
#X obj 64 308 outlet;
#X obj 334 81 extra/sv \$1_\$2_is_loop_waitforplay;
#X msg 297 55 0;
#X obj 476 131 r \$1_\$2_loop_clear;
#X obj 146 108 extra/sv \$1_\$2_is_loop_playing;
#X msg 205 83 0;
#X obj 189 47 sel 1 0;
#X text 236 154 Reset counter;
#X obj 307 309 sel 1;
#X msg 334 337 1;
#X text 332 278 The loop play to 1 if was not;
#X connect 0 0 1 0;
#X connect 0 0 3 0;
#X connect 1 0 0 1;
#X connect 2 0 12 0;
#X connect 3 0 5 0;
#X connect 4 0 5 1;
#X connect 5 0 7 0;
#X connect 6 0 0 1;
#X connect 7 0 14 0;
#X connect 7 0 9 2;
#X connect 8 0 6 0;
#X connect 9 1 22 0;
#X connect 10 0 2 0;
#X connect 11 0 13 0;
#X connect 11 0 16 0;
#X connect 11 0 20 0;
#X connect 12 0 0 0;
#X connect 13 0 12 1;
#X connect 16 0 15 1;
#X connect 17 0 6 0;
#X connect 19 0 18 1;
#X connect 20 0 6 0;
#X connect 20 1 19 0;
#X connect 22 1 23 0;
#X connect 23 0 9 1;
#X restore 662 571 pd manage start;
#X obj 660 491 r \$0_playstop_loop;
#X obj 712 522 sel 1 0;
#X obj 709 550 bng 15 250 50 0 empty empty empty 17 7 0 10 -262144
-1 -1;
#X obj 727 550 bng 15 250 50 0 empty empty empty 17 7 0 10 -262144
-1 -1;
#X obj 1171 465 r \$1_\$2_loop_clear;
#X obj 640 259 s \$1_\$2_loop_clear;
#N canvas 0 59 641 356 config 0;
#X obj 133 326 s \$0_timer;
#X floatatom 69 414 5 0 0 0 - - -, f 5;
#X obj 42 785 /;
#X obj 123 462 log;
#X obj 123 551 i;
#X obj 123 501 / 0.693147;
#X floatatom 123 528 5 0 0 0 - - -, f 5;
#X floatatom 123 582 5 0 0 0 - - -, f 5;
#X obj 114 668 pow;
#X msg 102 640 2;
#X floatatom 114 693 5 0 0 0 - - -, f 5;
#X obj 115 741 s \$0_loop_size;
#X obj 102 607 t b f;
#X obj 8 869 s tempoValue;
#X floatatom 213 318 10 0 0 0 - - -, f 10;
#X obj 96 167 inlet;
#X obj 310 165 inlet;
#X obj 69 385 / 380;
#X obj 93 869 s \$0_loop_tempo;
#X text 113 829 non \, la fausse valeur;
#X obj 317 709 cnv 15 100 60 empty empty empty 20 12 0 14 -233017 -66577
0;
#X text 323 714 really important;
#X text 322 734 set qantif from 1s loop;
#X msg 264 184 1;
#X msg 279 243 0;
#X obj 201 282 extra/sv \$1_\$2_is_loop_recording;
#X obj 203 445 array size \$0_loop;
#X obj 203 421 i 0;
#X obj 203 401 * 44.1;
#X obj 42 348 t f f f;
#X obj 145 721 extra/sv quantif_global;
#X text 204 382 This create a CLICK on RPI;
#X msg 76 894 1;
#X obj 17 917 extra/sv \$1_\$2_loop_playbutton;
#X obj 42 828 t f b b f;
#X msg 59 936 0;
#X obj -4 955 extra/sv \$1_\$2_is_loop_recording;
#X obj 310 215 bang;
#X obj 96 301 realtime;
#X connect 1 0 3 0;
#X connect 2 0 34 0;
#X connect 3 0 5 0;
#X connect 4 0 7 0;
#X connect 5 0 6 0;
#X connect 6 0 4 0;
#X connect 7 0 12 0;
#X connect 8 0 10 0;
#X connect 9 0 8 0;
#X connect 10 0 2 1;
#X connect 10 0 11 0;
#X connect 10 0 30 1;
#X connect 12 0 9 0;
#X connect 12 1 8 1;
#X connect 15 0 23 0;
#X connect 15 0 38 0;
#X connect 16 0 37 0;
#X connect 17 0 1 0;
#X connect 23 0 25 1;
#X connect 24 0 25 1;
#X connect 27 0 26 0;
#X connect 28 0 27 0;
#X connect 29 0 2 0;
#X connect 29 1 17 0;
#X connect 32 0 33 1;
#X connect 34 0 13 0;
#X connect 34 1 35 0;
#X connect 34 2 32 0;
#X connect 34 3 18 0;
#X connect 35 0 36 1;
#X connect 37 0 38 1;
#X connect 38 0 0 0;
#X connect 38 0 14 0;
#X connect 38 0 29 0;
#X restore -178 707 pd config;
#N canvas 15 64 641 356 config 0;
#X obj 206 333 s \$0_timer;
#X floatatom 114 353 5 0 0 0 - - -, f 5;
#X obj 155 370 s \$0_loop_size;
#X floatatom 296 334 10 0 0 0 - - -, f 10;
#X obj 206 167 inlet;
#X obj 301 154 inlet;
#X obj 102 471 s \$0_loop_tempo;
#X text 113 489 non \, la fausse valeur;
#X msg 364 184 1;
#X msg 385 240 0;
#X obj 290 270 extra/sv \$1_\$2_is_loop_recording;
#X obj 64 231 f;
#X obj 98 232 + 1;
#X obj 64 202 bng 15 250 50 0 empty empty empty 17 7 0 10 -262144 -1
-1;
#X floatatom 64 260 5 0 0 0 - - -, f 5;
#X obj 64 168 r tempo_click_bang;
#X obj 63 306 i 0;
#X obj 7 353 extra/sv tempo;
#X floatatom 51 475 5 0 0 0 - - -, f 5;
#X obj 35 307 bng 15 250 50 0 empty empty empty 17 7 0 10 -262144 -1
-1;
#X obj 102 396 / 60;
#X obj 102 422 pow -1;
#X obj 102 446 * 1000;
#X msg 144 199 1;
#X obj 396 210 t b b b;
#X obj 206 301 realtime;
#X connect 1 0 2 0;
#X connect 4 0 8 0;
#X connect 4 0 23 0;
#X connect 4 0 25 0;
#X connect 5 0 24 0;
#X connect 5 0 25 1;
#X connect 8 0 10 1;
#X connect 9 0 10 1;
#X connect 11 0 12 0;
#X connect 11 0 14 0;
#X connect 12 0 11 1;
#X connect 13 0 11 0;
#X connect 14 0 16 1;
#X connect 15 0 13 0;
#X connect 16 0 1 0;
#X connect 17 1 20 0;
#X connect 19 0 17 2;
#X connect 20 0 21 0;
#X connect 21 0 22 0;
#X connect 22 0 6 0;
#X connect 22 0 18 0;
#X connect 23 0 11 1;
#X connect 24 0 16 0;
#X connect 24 0 19 0;
#X connect 24 1 9 0;
#X connect 25 0 0 0;
#X connect 25 0 3 0;
#X restore 109 707 pd config;
#X obj 928 775 bng 15 250 50 0 empty empty empty 17 7 0 10 -258113
-1 -1;
#X obj 1027 777 bng 15 250 50 0 empty empty empty 17 7 0 10 -4034 -1
-1;
#X obj 1218 628 s \$0_playstop_loop;
#X obj 1171 504 t b b b b b;
#X msg 1218 595 0;
#X obj 1257 569 extra/sv \$1_\$2_is_loop_waitforrec;
#X obj 946 775 tgl 15 0 empty empty empty 17 7 0 10 -262144 -1 -1 0
1;
#X obj 1049 778 tgl 15 0 empty empty empty 17 7 0 10 -262144 -1 -1
1 1;
#X text 761 660 tabread tout court ... source potentiel de son chelou
?;
#X obj 278 188 extra/sv \$1_\$2_loop_recbutton;
#X obj 664 167 extra/sv \$1_\$2_loop_playbutton;
#X obj 1257 586 extra/sv \$1_\$2_is_loop_playing;
#X obj 1257 603 extra/sv \$1_\$2_is_loop_waitforplay;
#X obj 1257 532 extra/sv \$1_\$2_is_loop_recording;
#X floatatom 437 440 20 0 0 0 - - -, f 20;
#X msg 431 359 bang;
#X msg 480 361 bang;
#X obj 168 372 t b b;
#X obj 68 69 s~ \$0-input;
#X obj 519 670 bng 15 250 50 0 empty empty empty 17 7 0 10 -262144
-1 -1;
#X obj 1272 649 s \$0_realstart_overdub;
#X obj 558 670 bng 15 250 50 0 empty empty empty 17 7 0 10 -262144
-1 -1;
#X obj 1190 697 bng 15 250 50 0 empty empty empty 17 7 0 10 -262144
-1 -1;
#X obj 662 684 tabread4~ \$0_loop;
#X obj 442 396 realtime;
#X obj 799 556 tgl 15 0 empty empty empty 17 7 0 10 -262144 -1 -1 0
1;
#X obj 799 576 sel 1 0;
#X floatatom 799 633 5 0 0 0 - - -, f 5;
#X obj 799 607 timer;
#X connect 1 0 32 0;
#X connect 3 0 39 0;
#X connect 4 0 6 0;
#X connect 4 0 9 0;
#X connect 6 0 128 0;
#X connect 7 0 128 1;
#X connect 8 0 9 0;
#X connect 10 0 147 0;
#X connect 12 0 16 0;
#X connect 12 0 18 0;
#X connect 13 0 16 1;
#X connect 13 0 18 0;
#X connect 14 0 15 0;
#X connect 15 0 18 0;
#X connect 17 0 93 0;
#X connect 17 0 96 0;
#X connect 20 0 63 0;
#X connect 21 0 73 0;
#X connect 21 0 15 1;
#X connect 22 0 33 0;
#X connect 23 0 3 0;
#X connect 24 0 4 0;
#X connect 25 0 20 0;
#X connect 25 0 154 0;
#X connect 26 0 24 0;
#X connect 26 1 23 0;
#X connect 32 1 45 0;
#X connect 33 0 118 0;
#X connect 33 1 126 0;
#X connect 35 0 34 0;
#X connect 37 0 36 0;
#X connect 39 0 7 0;
#X connect 39 1 41 0;
#X connect 39 2 9 0;
#X connect 40 0 36 1;
#X connect 41 0 43 1;
#X connect 42 0 110 0;
#X connect 45 0 146 0;
#X connect 46 0 111 0;
#X connect 48 0 132 0;
#X connect 49 0 54 0;
#X connect 50 0 51 0;
#X connect 53 0 55 1;
#X connect 53 0 134 1;
#X connect 53 0 140 1;
#X connect 53 0 141 1;
#X connect 53 0 142 1;
#X connect 56 0 57 0;
#X connect 56 0 129 0;
#X connect 56 0 135 0;
#X connect 59 0 58 0;
#X connect 59 0 130 0;
#X connect 59 0 136 0;
#X connect 62 0 61 0;
#X connect 63 0 152 0;
#X connect 64 0 65 0;
#X connect 65 0 66 1;
#X connect 66 0 32 0;
#X connect 67 0 66 0;
#X connect 68 0 69 0;
#X connect 69 0 70 1;
#X connect 70 0 33 0;
#X connect 71 0 70 0;
#X connect 73 1 74 0;
#X connect 73 2 75 0;
#X connect 73 3 76 0;
#X connect 78 0 89 0;
#X connect 79 0 81 0;
#X connect 79 0 85 0;
#X connect 81 0 127 0;
#X connect 82 0 127 1;
#X connect 83 0 85 0;
#X connect 84 0 88 0;
#X connect 86 0 78 0;
#X connect 87 0 79 0;
#X connect 88 0 87 0;
#X connect 88 1 86 0;
#X connect 89 0 90 0;
#X connect 89 1 82 0;
#X connect 89 2 85 0;
#X connect 90 0 91 1;
#X connect 92 0 26 0;
#X connect 93 0 94 0;
#X connect 93 1 95 0;
#X connect 94 0 12 0;
#X connect 95 0 13 0;
#X connect 96 0 98 1;
#X connect 97 0 98 0;
#X connect 98 0 99 0;
#X connect 99 0 100 0;
#X connect 99 1 101 0;
#X connect 100 0 18 0;
#X connect 100 0 148 0;
#X connect 101 0 18 0;
#X connect 101 0 150 0;
#X connect 102 0 31 0;
#X connect 103 0 104 0;
#X connect 104 0 50 0;
#X connect 104 1 109 0;
#X connect 105 0 107 0;
#X connect 106 0 108 0;
#X connect 109 0 62 0;
#X connect 112 0 115 0;
#X connect 113 0 116 0;
#X connect 114 0 117 0;
#X connect 118 0 119 0;
#X connect 120 0 25 0;
#X connect 121 0 122 0;
#X connect 121 0 120 0;
#X connect 122 0 123 0;
#X connect 122 1 124 0;
#X connect 125 0 48 0;
#X connect 132 0 52 0;
#X connect 132 2 49 0;
#X connect 132 3 133 0;
#X connect 132 4 53 0;
#X connect 133 0 131 0;
#X connect 133 0 149 0;
#X connect 138 0 32 0;
#X connect 139 0 118 0;
#X connect 144 0 153 0;
#X connect 145 0 153 1;
#X connect 146 0 27 0;
#X connect 151 0 104 0;
#X connect 152 0 21 0;
#X connect 153 0 143 0;
#X connect 154 0 155 0;
#X connect 155 0 157 0;
#X connect 155 1 157 1;
#X connect 157 0 156 0;
