#N canvas 66 23 887 684 10;
#X obj 85 19 cnv 15 790 70 empty empty FROM::INLET 20 12 0 14 -204217
-66577 0;
#X obj 391 31 inlet;
#X obj 101 465 cnv 15 280 350 empty empty write_first_loop 20 12 0
9 -212539 -66577 0;
#X msg 184 571 stop;
#X msg 128 595 start;
#X text 118 730 TEMPO;
#X obj 109 687 bng 15 250 50 0 empty empty empty 17 7 0 10 -262144
-1 -1;
#X obj 184 687 bng 15 250 50 0 empty empty empty 17 7 0 10 -262144
-1 -1;
#X obj 244 646 r~ \$0-input;
#N canvas 652 50 649 663 toTempo-ui 0;
#X obj 96 301 timer;
#X obj 133 326 s \$0_timer;
#X floatatom 69 414 5 0 0 0 - - -, f 5;
#X obj 42 785 /;
#X obj 123 462 log;
#X obj 123 551 i;
#X obj 123 501 / 0.693147;
#X floatatom 123 528 5 0 0 0 - - -, f 5;
#X floatatom 123 582 5 0 0 0 - - -, f 5;
#X obj 114 668 pow;
#X msg 102 640 2;
#X floatatom 114 693 5 0 0 0 - - -, f 5;
#X obj 115 741 s \$0_loop_size;
#X obj 102 607 t b f;
#X obj 81 915 s tempoValue;
#X floatatom 213 318 10 0 0 0 - - -, f 10;
#X obj 42 965 s tempoGoIn;
#X obj 94 167 inlet;
#X obj 123 189 inlet;
#X obj 42 828 t b b f;
#X obj 69 385 / 380;
#X obj 202 873 s \$0_loop_tempo;
#X text 113 829 non \, la fausse valeur;
#X text 125 967 pas besoin de Go In \, si le tempo est dejq en place
;
#X obj 61 941 s \$0_begin;
#N canvas 56 477 562 440 istempoplaying 0;
#X obj 134 114 tgl 15 0 empty empty empty 17 7 0 10 -262144 -1 -1 0
1;
#X obj 113 323 outlet;
#X obj 188 324 outlet;
#X obj 165 8 inlet;
#X obj 23 24 r tempoGoOutBang;
#X msg 22 65 1;
#X msg 52 65 0;
#X obj 68 44 r tempoStopOut;
#X obj 205 90 t b f;
#X obj 167 189 sel 1 0;
#X obj 233 250 i -1;
#X obj 272 250 i -1;
#X obj 163 159 i -1;
#X connect 0 0 12 1;
#X connect 3 0 8 0;
#X connect 4 0 5 0;
#X connect 5 0 0 0;
#X connect 6 0 0 0;
#X connect 7 0 6 0;
#X connect 8 0 12 0;
#X connect 8 1 10 1;
#X connect 8 1 11 1;
#X connect 9 0 10 0;
#X connect 9 1 11 0;
#X connect 10 0 1 0;
#X connect 11 0 2 0;
#X connect 12 0 9 0;
#X coords 0 -1 1 1 85 30 1 100 100;
#X restore 240 737 pd istempoplaying;
#X obj 352 720 cnv 15 100 60 empty empty empty 20 12 0 14 -233017 -66577
0;
#X text 360 732 really important;
#X text 357 754 set qantif from 1s loop;
#N canvas 56 477 562 440 istempoplaying 0;
#X obj 134 114 tgl 15 0 empty empty empty 17 7 0 10 -262144 -1 -1 0
1;
#X obj 113 323 outlet;
#X obj 188 324 outlet;
#X obj 165 8 inlet;
#X obj 23 24 r tempoGoOutBang;
#X msg 22 65 1;
#X msg 52 65 0;
#X obj 68 44 r tempoStopOut;
#X obj 205 90 t b f;
#X obj 167 189 sel 1 0;
#X obj 233 250 i -1;
#X obj 272 250 i -1;
#X obj 163 159 i -1;
#X connect 0 0 12 1;
#X connect 3 0 8 0;
#X connect 4 0 5 0;
#X connect 5 0 0 0;
#X connect 6 0 0 0;
#X connect 7 0 6 0;
#X connect 8 0 12 0;
#X connect 8 1 10 1;
#X connect 8 1 11 1;
#X connect 9 0 10 0;
#X connect 9 1 11 0;
#X connect 10 0 1 0;
#X connect 11 0 2 0;
#X connect 12 0 9 0;
#X coords 0 -1 1 1 85 30 1 100 100;
#X restore 80 868 pd istempoplaying;
#X text 134 942 vraiment utile dorenavent ?;
#X msg -19 186 1;
#X msg -45 209 0;
#X obj -104 262 extra/sv \$1_\$2_is_loop_recording;
#X obj 203 425 array size \$0_loop;
#X obj 203 401 i 0;
#X obj 203 381 * 44.1;
#X obj 42 348 t f f f;
#X obj 294 794 extra/sv quantif_global;
#X connect 0 0 1 0;
#X connect 0 0 15 0;
#X connect 0 0 37 0;
#X connect 2 0 4 0;
#X connect 3 0 19 0;
#X connect 4 0 6 0;
#X connect 5 0 8 0;
#X connect 6 0 7 0;
#X connect 7 0 5 0;
#X connect 8 0 13 0;
#X connect 9 0 11 0;
#X connect 10 0 9 0;
#X connect 11 0 3 1;
#X connect 11 0 12 0;
#X connect 11 0 25 0;
#X connect 13 0 10 0;
#X connect 13 1 9 1;
#X connect 17 0 0 0;
#X connect 17 0 31 0;
#X connect 18 0 0 1;
#X connect 18 0 32 0;
#X connect 19 2 21 0;
#X connect 19 2 29 0;
#X connect 20 0 2 0;
#X connect 25 1 38 1;
#X connect 29 1 14 0;
#X connect 31 0 33 1;
#X connect 32 0 33 1;
#X connect 35 0 34 0;
#X connect 36 0 35 0;
#X connect 37 0 3 0;
#X connect 37 1 20 0;
#X connect 37 2 36 0;
#X restore 109 707 pd toTempo-ui;
#X obj 150 497 r \$0_realstart_first;
#X obj 223 670 tabwrite~ \$0_loop;
#X obj 228 31 inlet~;
#X obj 228 65 s~ \$0-input;
#X obj 388 465 cnv 15 210 350 empty empty write_other_loop 20 12 0
9 -204217 -66577 0;
#X msg 414 615 start;
#X msg 455 615 stop;
#X msg 480 656 0;
#X obj 480 691 s \$0-force-stop;
#X obj 455 591 del;
#X obj 470 568 r \$0_timer;
#X obj 455 546 bng 15 250 50 0 empty empty empty 17 7 0 10 -262144
-1 -1;
#X obj 475 711 r~ \$0-input;
#X obj 475 735 +~;
#N canvas 771 92 450 300 ui 0;
#X obj 126 93 inlet;
#X obj 174 92 inlet;
#X obj 126 120 bang;
#X obj 174 120 bang;
#X msg 126 174 1;
#X msg 174 175 0;
#X obj 66 229 extra/sv \$1_\$2_is_loop_recording;
#X connect 0 0 2 0;
#X connect 1 0 3 0;
#X connect 2 0 4 0;
#X connect 3 0 5 0;
#X connect 4 0 6 1;
#X connect 5 0 6 1;
#X restore 395 682 pd ui;
#X obj 527 663 bng 15 250 50 0 empty empty empty 17 7 0 10 -262144
-1 -1;
#X obj 455 515 bang;
#X obj 455 493 r \$0_realstart_overdub;
#X obj 455 772 tabwrite~ \$0_loop;
#X obj 639 467 cnv 15 210 350 empty empty play! 20 12 0 9 -204217 -66577
0;
#N canvas 208 243 979 612 timecompression 0;
#X obj 43 208 hip~ 5;
#X obj 44 155 *~;
#X obj 44 57 +~;
#X obj 43 9 samphold~;
#X obj 44 33 *~;
#X obj 209 88 -~ 0.5;
#X obj 209 112 *~ 0.5;
#X obj 209 135 cos~;
#X obj 43 184 +~;
#X obj 44 81 *~ 44100;
#X obj 43 107 +~ 1;
#X obj 295 164 *~;
#X obj 295 66 +~;
#X obj 294 18 samphold~;
#X obj 295 42 *~;
#X obj 460 97 -~ 0.5;
#X obj 460 121 *~ 0.5;
#X obj 460 144 cos~;
#X obj 295 90 *~ 44100;
#X obj 294 116 +~ 1;
#X text 229 -50 TIME COMPRESSION/EXPANSION BY LOOPED SAMPLING;
#X obj 43 249 outlet~;
#X obj 185 -91 inlet~;
#X floatatom 646 0 0 0 0 0 - - -;
#X obj 677 23 t b f;
#X obj 665 103 phasor~;
#X obj 802 123 +~ 0.5;
#X obj 803 149 wrap~;
#X text 699 -38 <-- transposition \, halftones/10;
#X floatatom 673 80 5 0 0 0 - - -, f 5;
#X obj 790 22 t b f;
#X obj 665 55 expr (pow(2 \, $f1/120)-$f3)/$f2;
#X obj 186 -53 *~ 1;
#X obj 790 -63 r \$0_loop_precession;
#X obj 79 34 r~ \$0_phase;
#X obj 131 10 r~ \$0_phase;
#X obj 209 64 r~ \$0_phase;
#X obj 330 43 r~ \$0_phase2;
#X obj 382 19 r~ \$0_phase2;
#X obj 460 74 r~ \$0_phase2;
#X obj 665 129 s~ \$0_phase;
#X obj 803 174 s~ \$0_phase2;
#X obj 43 -16 r \$0_chunk-size;
#X obj 294 -7 r \$0_chunk-size;
#X obj 677 -2 r \$0_chunk-size;
#X obj 44 131 tabread4~ \$0_loop;
#X obj 295 140 tabread4~ \$0_loop;
#X floatatom 817 -4 5 0 0 0 - - -, f 5;
#X obj 289 322 snapshot~;
#X obj 383 300 metro 200;
#X msg 371 267 1;
#X floatatom 293 353 5 0 0 0 - - -, f 5;
#X obj 686 -80 * 0.001;
#X obj 646 -128 t f b;
#X msg 686 -106 40;
#X text 699 -127 force chunck size with transpose;
#X obj 686 -58 s \$0_chunk-size;
#X obj 646 -155 r \$1_\$2_loop_transpose;
#X connect 0 0 21 0;
#X connect 0 0 48 0;
#X connect 1 0 8 0;
#X connect 2 0 9 0;
#X connect 3 0 4 0;
#X connect 4 0 2 0;
#X connect 5 0 6 0;
#X connect 6 0 7 0;
#X connect 7 0 1 1;
#X connect 8 0 0 0;
#X connect 9 0 10 0;
#X connect 10 0 45 0;
#X connect 11 0 8 1;
#X connect 12 0 18 0;
#X connect 13 0 14 0;
#X connect 14 0 12 0;
#X connect 15 0 16 0;
#X connect 16 0 17 0;
#X connect 17 0 11 1;
#X connect 18 0 19 0;
#X connect 19 0 46 0;
#X connect 22 0 32 0;
#X connect 23 0 31 0;
#X connect 24 0 31 0;
#X connect 24 1 31 1;
#X connect 25 0 26 0;
#X connect 25 0 40 0;
#X connect 26 0 27 0;
#X connect 27 0 41 0;
#X connect 30 0 31 0;
#X connect 30 1 31 2;
#X connect 31 0 25 0;
#X connect 31 0 29 0;
#X connect 32 0 2 1;
#X connect 32 0 12 1;
#X connect 33 0 30 0;
#X connect 33 0 47 0;
#X connect 34 0 4 1;
#X connect 35 0 3 1;
#X connect 36 0 5 0;
#X connect 37 0 14 1;
#X connect 38 0 13 1;
#X connect 39 0 15 0;
#X connect 42 0 3 0;
#X connect 43 0 13 0;
#X connect 44 0 24 0;
#X connect 45 0 1 0;
#X connect 46 0 11 0;
#X connect 48 0 51 0;
#X connect 49 0 48 0;
#X connect 50 0 49 0;
#X connect 52 0 56 0;
#X connect 53 0 23 0;
#X connect 53 1 54 0;
#X connect 54 0 52 0;
#X connect 57 0 53 0;
#X restore 662 685 pd timecompression;
#N canvas 565 249 567 572 rampgenerator 0;
#X obj 137 651 outlet~;
#X text 217 585 2 = nbbar*1/tempofinal;
#X obj 81 169 f;
#X obj 115 170 + 1;
#X obj 81 40 bng 15 250 50 0 empty empty empty 17 7 0 10 -262144 -1
-1;
#X floatatom 81 198 5 0 0 0 - - -, f 5;
#X obj 209 170 r \$0_loop_size;
#X obj 81 221 mod 1;
#X floatatom 209 197 5 0 0 0 - - -, f 5;
#X obj 80 283 bng 15 250 50 0 empty empty empty 17 7 0 10 -262144 -1
-1;
#X obj 418 142 pow -1;
#X obj 419 115 / 60;
#X obj 206 282 * 1;
#X floatatom 494 121 5 0 0 0 - - -, f 5;
#X text 218 602 1 = nbbar*1/tempo;
#X obj 27 324 s \$0_loop_start;
#X obj 136 577 *~;
#X obj 576 334 s \$0_loop_precession;
#X obj -128 471 r tempoStopOut;
#X obj 418 168 * 1;
#X msg 112 387 0;
#X obj 578 124 / 1000;
#X obj 578 155 pow -1;
#X obj 578 181 * 60;
#X floatatom 577 218 5 0 0 0 - - -, f 5;
#X obj 576 297 / 1;
#X obj 578 85 r \$0_loop_tempo;
#X obj 494 151 i 0;
#X obj 576 264 t b f;
#X obj 212 233 t b f;
#N canvas 464 282 673 546 slider_ui 0;
#X obj 196 169 inlet~;
#X obj 200 227 snapshot~;
#X obj 311 139 loadbang;
#X obj 284 138 bng 15 250 50 0 empty empty empty 17 7 0 10 -262144
-1 -1;
#X floatatom -22 194 5 0 0 0 - - -, f 5;
#X obj -22 251 change;
#X obj 316 172 metro 100;
#X obj 1 354 s \$1_recloop_ui_play;
#X obj -22 280 sel 1 0;
#X obj -17 399 s \$1_recloop_ui_stop;
#X obj -22 226 >= 1;
#X obj 211 287 s \$1_\$2_recloop_slider_ui;
#X obj -22 153 r \$1_\$2_recloop_slider_ui;
#X connect 0 0 1 0;
#X connect 1 0 11 0;
#X connect 2 0 6 0;
#X connect 3 0 6 0;
#X connect 4 0 10 0;
#X connect 5 0 8 0;
#X connect 6 0 1 0;
#X connect 8 0 9 0;
#X connect 8 1 7 0;
#X connect 10 0 5 0;
#X connect 12 0 4 0;
#X restore 21 582 pd slider_ui;
#X obj 81 6 inlet;
#X obj 136 543 line~;
#X obj 75 360 t b b;
#X obj 76 419 f 0;
#X msg 75 455 1 \$1;
#X obj 205 319 * 1000;
#X floatatom 215 361 10 0 0 0 - - -, f 10;
#X obj -24 6 inlet;
#X obj 156 80 sel 1;
#X obj 268 126 bng 15 250 50 0 empty empty empty 17 7 0 10 -262144
-1 -1;
#X obj 222 499 r \$0_timer;
#X floatatom 241 571 10 0 0 0 - - -, f 10;
#X obj 222 521 / 1000;
#X msg -128 518 300;
#X obj 191 133 bng 15 250 50 0 empty empty empty 17 7 0 10 -262144
-1 -1;
#X msg 214 134 0;
#X obj 81 244 select 0;
#X obj 214 87 r tempoStopOut;
#X obj -153 442 r \$0_is_loop_deleted;
#X obj 419 85 extra/sv tempo;
#X text 421 42 TODO : get global tempo when loop_tempo changed;
#X obj 642 213 s \$1_\$2_realtempo_toUI;
#X obj 137 28 extra/sv \$1_is_loop_waitforplay;
#X obj 217 53 extra/sv \$1_\$2_is_loop_playing;
#X connect 2 0 3 0;
#X connect 2 0 5 0;
#X connect 3 0 2 1;
#X connect 4 0 2 0;
#X connect 5 0 7 0;
#X connect 6 0 7 1;
#X connect 6 0 8 0;
#X connect 7 0 47 0;
#X connect 8 0 29 0;
#X connect 9 0 15 0;
#X connect 9 0 33 0;
#X connect 10 0 19 0;
#X connect 11 0 10 0;
#X connect 12 0 36 0;
#X connect 13 0 27 0;
#X connect 16 0 0 0;
#X connect 18 0 44 0;
#X connect 19 0 12 0;
#X connect 20 0 32 0;
#X connect 21 0 22 0;
#X connect 22 0 23 0;
#X connect 23 0 24 0;
#X connect 23 0 52 0;
#X connect 24 0 28 0;
#X connect 25 0 17 0;
#X connect 26 0 21 0;
#X connect 27 0 25 0;
#X connect 28 0 25 0;
#X connect 28 1 25 1;
#X connect 29 0 12 0;
#X connect 29 1 12 1;
#X connect 31 0 4 0;
#X connect 32 0 16 0;
#X connect 32 0 30 0;
#X connect 33 0 34 0;
#X connect 33 1 20 0;
#X connect 34 0 35 0;
#X connect 35 0 32 0;
#X connect 36 0 37 0;
#X connect 36 0 34 1;
#X connect 38 0 9 0;
#X connect 39 0 46 0;
#X connect 39 0 45 0;
#X connect 41 0 43 0;
#X connect 43 0 16 1;
#X connect 43 0 42 0;
#X connect 44 0 32 0;
#X connect 46 0 2 1;
#X connect 47 0 9 0;
#X connect 48 0 40 0;
#X connect 48 0 46 0;
#X connect 49 0 44 0;
#X connect 50 0 11 0;
#X connect 50 0 13 0;
#X connect 54 0 39 0;
#X restore 662 628 pd rampgenerator;
#N canvas 108 146 728 558 ouput-effect 0;
#X obj 181 191 *~ 1;
#X obj -90 113 inlet~;
#X obj -89 260 outlet~;
#X obj 172 244 outlet~;
#X obj -4 111 r \$0_volume;
#X obj -4 136 / 255;
#X obj -4 161 * 2;
#X obj -89 211 *~ 1;
#X obj 99 41 r \$1_looper_volume_fromUI;
#X floatatom 107 82 5 0 0 0 - - -, f 5;
#X connect 0 0 3 0;
#X connect 1 0 0 0;
#X connect 1 0 7 0;
#X connect 4 0 5 0;
#X connect 5 0 6 0;
#X connect 6 0 7 1;
#X connect 7 0 2 0;
#X connect 8 0 9 0;
#X connect 9 0 5 0;
#X restore 662 754 pd ouput-effect;
#X obj 662 716 *~ 1;
#X obj 798 21 inlet;
#X obj 755 556 spigot;
#X obj 662 776 outlet~;
#X obj 666 510 r tempo_click_bang;
#X obj 184 549 bng 15 250 50 0 empty empty empty 17 7 0 10 -262144
-1 -1;
#X obj 129 550 bng 15 250 50 0 empty empty empty 17 7 0 10 -262144
-1 -1;
#X obj 662 596 bng 15 250 50 0 empty empty empty 17 7 0 10 -262144
-1 -1;
#X obj 314 169 r \$0-force-stop;
#X obj 149 520 sel 1 0;
#N canvas 145 197 673 584 manageRecording 0;
#N canvas 345 198 565 368 islooprecorded 0;
#X obj 122 106 tgl 15 0 empty empty empty 17 7 0 10 -262144 -1 -1 0
1;
#X obj 115 266 outlet;
#X obj 190 267 outlet;
#X obj 331 29 inlet;
#X obj 114 237 i -1;
#X obj 331 57 t b f b;
#X obj 190 237 i -1;
#X obj 122 153 sel 1 0;
#X obj 122 74 extra/sv \$1_\$2_is_loop_recorded;
#X connect 0 0 7 0;
#X connect 3 0 5 0;
#X connect 4 0 1 0;
#X connect 5 0 8 2;
#X connect 5 1 4 1;
#X connect 5 1 6 1;
#X connect 6 0 2 0;
#X connect 7 0 4 0;
#X connect 7 1 6 0;
#X connect 8 1 0 0;
#X coords 0 -1 1 1 40 30 1 100 100;
#X restore 304 91 pd islooprecorded;
#X text 275 107 yes;
#X text 418 109 no;
#N canvas 633 102 450 300 startAfterQuantif 0;
#X obj 60 88 r tempo_quantif_bang;
#X obj 192 10 inlet;
#X obj 204 201 outlet;
#X msg 229 125 -1;
#X obj 171 164 sel -1;
#X obj 171 125 i -1;
#X obj 288 127 extra/sv \$1_\$2_is_loop_waitforplay;
#X obj 355 62 sel 0;
#X msg 355 92 1;
#X connect 0 0 5 0;
#X connect 1 0 5 1;
#X connect 1 0 7 0;
#X connect 3 0 5 1;
#X connect 4 1 2 0;
#X connect 5 0 3 0;
#X connect 5 0 4 0;
#X connect 7 0 8 0;
#X connect 8 0 6 1;
#X restore 502 378 pd startAfterQuantif;
#N canvas 728 413 450 300 startAfterLoopBegin 0;
#X obj 172 47 inlet;
#X obj 204 201 outlet;
#X obj 209 79 r \$0_loop_start;
#X msg 201 126 -1;
#X obj 171 164 sel -1;
#X obj 171 125 i -1;
#X connect 0 0 5 1;
#X connect 2 0 5 0;
#X connect 3 0 5 1;
#X connect 4 1 1 0;
#X connect 5 0 3 0;
#X connect 5 0 4 0;
#X restore 16 284 pd startAfterLoopBegin;
#X obj 295 280 bng 15 250 50 0 empty empty empty 17 7 0 10 -262144
-1 -1;
#X obj 16 313 s \$0_realstart_overdub;
#X obj 502 405 s \$0_realstart_first;
#X obj 295 309 s \$0_realstart_overdub;
#N canvas 272 294 562 463 istempoplaying 0;
#X obj 134 114 tgl 15 0 empty empty empty 17 7 0 10 -262144 -1 -1 0
1;
#X obj 113 323 outlet;
#X obj 188 324 outlet;
#X obj 165 8 inlet;
#X obj 23 24 r tempoGoOutBang;
#X msg 22 65 1;
#X msg 52 65 0;
#X obj 68 44 r tempoStopOut;
#X obj 205 90 t b f;
#X obj 167 189 sel 1 0;
#X obj 163 159 i -1;
#X obj 233 250 i -1;
#X obj 272 250 i -1;
#X connect 0 0 10 1;
#X connect 3 0 8 0;
#X connect 4 0 5 0;
#X connect 5 0 0 0;
#X connect 6 0 0 0;
#X connect 7 0 6 0;
#X connect 8 0 10 0;
#X connect 8 1 11 1;
#X connect 8 1 12 1;
#X connect 9 0 11 0;
#X connect 9 1 12 0;
#X connect 10 0 9 0;
#X connect 11 0 1 0;
#X connect 12 0 2 0;
#X coords 0 -1 1 1 85 30 1 100 100;
#X restore 543 214 pd istempoplaying;
#N canvas 133 247 562 463 istempoplaying 0;
#X obj 134 114 tgl 15 0 empty empty empty 17 7 0 10 -262144 -1 -1 0
1;
#X obj 113 323 outlet;
#X obj 188 324 outlet;
#X obj 165 8 inlet;
#X obj 23 24 r tempoGoOutBang;
#X msg 22 65 1;
#X msg 52 65 0;
#X obj 68 44 r tempoStopOut;
#X obj 205 90 t b f;
#X obj 167 189 sel 1 0;
#X obj 233 250 i -1;
#X obj 272 250 i -1;
#X obj 163 159 i -1;
#X connect 0 0 12 1;
#X connect 3 0 8 0;
#X connect 4 0 5 0;
#X connect 5 0 0 0;
#X connect 6 0 0 0;
#X connect 7 0 6 0;
#X connect 8 0 12 0;
#X connect 8 1 10 1;
#X connect 8 1 11 1;
#X connect 9 0 10 0;
#X connect 9 1 11 0;
#X connect 10 0 1 0;
#X connect 11 0 2 0;
#X connect 12 0 9 0;
#X coords 0 -1 1 1 85 30 1 100 100;
#X restore 184 213 pd istempoplaying;
#X obj 302 33 inlet;
#X obj 167 172 cnv 15 150 30 empty empty LOOP:RECORDED 20 12 0 14 -228856
-1 0;
#X obj 512 171 cnv 15 150 30 empty empty NO:LOOP:RECORDED 20 12 0 14
-99865 -262144 0;
#X obj 7 243 cnv 15 150 30 empty empty TEMPO:PLAYING 20 12 0 14 -4034
-66577 0;
#X obj 681 252 cnv 15 150 30 empty empty TEMPO:STOP 20 12 0 14 -258113
-66577 0;
#X obj 494 252 cnv 15 150 30 empty empty TEMPO:PLAYING 20 12 0 14 -4034
-66577 0;
#X obj 297 243 cnv 15 150 30 empty empty TEMPO:STOP 20 12 0 14 -258113
-66577 0;
#X obj 575 315 bng 15 250 50 0 empty empty empty 17 7 0 10 -262144
-1 -1;
#X obj 308 135 bng 15 250 50 0 empty empty empty 17 7 0 10 -262144
-1 -1;
#X obj 388 135 bng 15 250 50 0 empty empty empty 17 7 0 10 -262144
-1 -1;
#X obj 343 65 bng 15 250 50 0 empty empty empty 17 7 0 10 -262144 -1
-1;
#N canvas 0 50 450 300 realstart_first 0;
#X obj 135 132 s \$0_realstart_first;
#X obj 211 165 extra/sv \$1_\$2_is_loop_waitforplay;
#X msg 278 134 1;
#X obj 278 103 sel 0;
#X obj 251 28 inlet;
#X obj 251 64 t f f;
#X connect 2 0 1 1;
#X connect 3 0 2 0;
#X connect 4 0 5 0;
#X connect 5 0 0 0;
#X connect 5 1 3 0;
#X restore 686 306 pd realstart_first;
#X connect 0 0 10 0;
#X connect 0 0 19 0;
#X connect 0 1 9 0;
#X connect 0 1 20 0;
#X connect 3 0 7 0;
#X connect 4 0 6 0;
#X connect 5 0 8 0;
#X connect 9 0 3 0;
#X connect 9 0 18 0;
#X connect 9 1 22 0;
#X connect 10 0 4 0;
#X connect 10 1 5 0;
#X connect 11 0 0 0;
#X connect 11 0 21 0;
#X restore 185 283 pd manageRecording;
#X obj 423 177 cnv 15 340 260 empty empty Control_panel 20 12 0 14
-237308 -66577 0;
#N canvas 545 163 595 445 (subpatch) 0;
#X array \$0_loop 126080 float 0 black black;
#X coords 0 -1 126079 1 200 60 1;
#X restore 486 254 graph;
#N canvas 252 195 1099 359 init 0;
#X floatatom 279 45 4 0 100 0 - - -, f 4;
#X obj 279 65 * 0.001;
#X text 314 45 msec;
#X obj 279 -9 bang;
#X obj 279 -39 loadbang;
#X obj 279 88 s \$0_chunk-size;
#X obj 162 46 pack \$0;
#X msg 162 68 \; \$1_loop const 0;
#X obj 391 -21 delay 200;
#X msg 630 37 0;
#X obj 424 65 extra/sv \$1_\$2_is_loop_recorded;
#X obj 742 88 extra/sv \$1_\$2_is_loop_recording;
#X obj 749 117 extra/sv \$1_\$2_is_loop_playing;
#X obj 746 146 extra/sv \$1_\$2_is_loop_recording;
#X msg 279 23 25;
#X obj 754 207 extra/sv \$1_\$2_is_loop_waitforrec;
#X obj 982 125 extra/sv \$1_\$2_is_loop_waitforplay;
#X msg 979 82 1;
#X msg 422 37 0;
#X connect 0 0 1 0;
#X connect 1 0 5 0;
#X connect 3 0 14 0;
#X connect 4 0 3 0;
#X connect 4 0 6 0;
#X connect 4 0 8 0;
#X connect 4 0 9 0;
#X connect 4 0 17 0;
#X connect 6 0 7 0;
#X connect 8 0 18 0;
#X connect 9 0 11 1;
#X connect 9 0 13 1;
#X connect 9 0 15 1;
#X connect 14 0 0 0;
#X connect 17 0 16 1;
#X connect 18 0 10 1;
#X restore 620 182 pd init;
#X obj 487 239 hsl 200 15 0 1 0 0 empty empty empty -2 -8 0 10 -262144
-1 -1 19900 1;
#X obj 798 135 bng 15 250 50 0 empty empty empty 17 7 0 10 -262144
-1 -1;
#X obj 1014 251 r \$0_is_loop_deleted;
#X msg 1015 270 0;
#X obj 391 71 sel 0;
#N canvas 380 209 623 468 longORshort 0;
#X obj 153 75 inlet;
#X obj 152 180 timer;
#X obj 153 119 sel 0;
#X obj 187 149 bang;
#X obj 151 224 > 500;
#X obj 151 298 bng 15 250 50 0 empty empty empty 17 7 0 10 -262144
-1 -1;
#X obj 181 298 bng 15 250 50 0 empty empty empty 17 7 0 10 -262144
-1 -1;
#X obj 151 256 sel 0;
#X obj 151 419 outlet;
#X obj 223 417 outlet;
#X obj 380 102 sel 0;
#X obj 398 239 i 0;
#X obj 398 270 sel 0;
#X obj 399 311 bng 15 250 50 0 empty empty empty 17 7 0 10 -262144
-1 -1;
#X obj 431 312 bng 15 250 50 0 empty empty empty 17 7 0 10 -262144
-1 -1;
#X obj 432 414 s \$1_recloop_ui_waitforclear;
#X obj 444 196 delay 1000;
#X connect 0 0 2 0;
#X connect 0 0 10 0;
#X connect 0 0 11 1;
#X connect 1 0 4 0;
#X connect 2 0 1 1;
#X connect 2 1 3 0;
#X connect 3 0 1 0;
#X connect 4 0 7 0;
#X connect 5 0 8 0;
#X connect 7 0 5 0;
#X connect 7 1 6 0;
#X connect 10 1 16 0;
#X connect 11 0 12 0;
#X connect 12 0 13 0;
#X connect 12 1 14 0;
#X connect 14 0 9 0;
#X connect 16 0 11 0;
#X restore 798 42 pd longORshort;
#X obj 879 64 s \$0_clear;
#N canvas 693 146 450 300 save 0;
#X obj 126 205 soundfiler;
#X obj 126 118 bng 15 250 50 0 empty empty empty 17 7 0 10 -262144
-1 -1;
#X obj 165 80 array size \$0_loop;
#X obj 227 12 r \$0_timer;
#X obj 165 56 i 0;
#X obj 227 36 * 44.1;
#X obj 165 34 bng 15 250 50 0 empty empty empty 17 7 0 10 -262144 -1
-1;
#X obj 126 17 t b b;
#X obj 126 -17 inlet;
#X obj 148 116 extra/sv song;
#X obj 126 156 pack \$0 \$1 \$2 1;
#X msg 126 179 write -wave -normalize ../samples/saved/\$4/\$2_\$3.wav
\$1_loop;
#X obj 26 -17 r save_all;
#X obj 26 6 bang;
#X obj -53 139 i 0;
#X msg 49 201 clear;
#X obj -53 161 t b b f b;
#X obj -68 307 textfile;
#X obj -168 162 extra/sv song;
#X text 286 58 Save the wave file;
#X obj -236 45 extra/sv \$1_\$2_is_loop_recorded;
#X msg -39 200 add exist \$1;
#X obj -237 218 pack \$1 \$2 1;
#X msg -237 243 write ../samples/saved/\$3/\$1_\$2_info.txt;
#X text -201 72 Save info file into text;
#X obj 298 122 print ArraySize;
#X obj 143 58 bng 15 250 50 0 empty empty empty 17 7 0 10 -262144 -1
-1;
#X connect 1 0 10 0;
#X connect 2 0 25 0;
#X connect 3 0 5 0;
#X connect 4 0 2 0;
#X connect 5 0 4 1;
#X connect 6 0 4 0;
#X connect 7 0 1 0;
#X connect 7 1 6 0;
#X connect 8 0 7 0;
#X connect 9 0 10 3;
#X connect 10 0 11 0;
#X connect 11 0 0 0;
#X connect 12 0 13 0;
#X connect 13 0 7 0;
#X connect 13 0 20 2;
#X connect 14 0 16 0;
#X connect 15 0 17 0;
#X connect 16 0 22 0;
#X connect 16 2 21 0;
#X connect 16 3 15 0;
#X connect 18 0 22 2;
#X connect 20 1 14 0;
#X connect 21 0 17 0;
#X connect 22 0 23 0;
#X connect 23 0 17 0;
#X connect 26 0 2 0;
#X restore 703 364 pd save;
#X obj 703 332 bng 15 250 50 0 empty empty empty 17 7 0 10 -262144
-1 -1;
#N canvas 549 327 833 551 open 0;
#X obj 144 159 soundfiler;
#X obj 183 319 / 44.1;
#X floatatom 183 349 10 0 0 0 - - -, f 10;
#N canvas 890 50 509 628 tempoCalculation 0;
#X obj 133 46 s \$0_timer;
#X floatatom 69 134 5 0 0 0 - - -, f 5;
#X obj 42 505 /;
#X obj 123 182 log;
#X obj 123 271 i;
#X obj 123 221 / 0.693147;
#X floatatom 123 248 5 0 0 0 - - -, f 5;
#X floatatom 123 302 5 0 0 0 - - -, f 5;
#X obj 114 388 pow;
#X msg 102 360 2;
#X floatatom 114 413 5 0 0 0 - - -, f 5;
#X obj 115 461 s \$0_loop_size;
#X obj 102 327 t b f;
#X obj 42 68 t f f;
#X obj 69 105 / 380;
#X obj 59 1 inlet;
#X obj 81 581 s \$0_loop_tempo;
#X obj 61 611 s \$0_begin;
#X msg 29 610 1;
#X obj -22 647 extra/sv \$1_\$2_is_loop_recorded;
#X obj -67 691 extra/sv \$1_\$2_is_loop_waitforplay;
#X obj 42 545 t b b b f;
#X text 135 615 Toujours d'actualité?;
#X msg -32 614 1;
#X connect 1 0 3 0;
#X connect 2 0 21 0;
#X connect 3 0 5 0;
#X connect 4 0 7 0;
#X connect 5 0 6 0;
#X connect 6 0 4 0;
#X connect 7 0 12 0;
#X connect 8 0 10 0;
#X connect 9 0 8 0;
#X connect 10 0 2 1;
#X connect 10 0 11 0;
#X connect 12 0 9 0;
#X connect 12 1 8 1;
#X connect 13 0 2 0;
#X connect 13 1 14 0;
#X connect 14 0 1 0;
#X connect 15 0 0 0;
#X connect 15 0 13 0;
#X connect 18 0 19 1;
#X connect 21 0 23 0;
#X connect 21 1 18 0;
#X connect 21 2 17 0;
#X connect 21 3 16 0;
#X connect 23 0 20 1;
#X restore 183 372 pd tempoCalculation;
#X obj 144 6 inlet;
#X obj 480 82 openpanel;
#X obj 480 114 pack s \$0;
#X obj 480 61 bang;
#X obj 480 41 inlet;
#X msg 480 142 read -resize \$1 \$2_loop;
#X obj 531 41 r \$1_\$2_loop_open;
#X text 190 56 Open from saved song;
#X text 654 50 open from file;
#X obj 318 56 extra/sv song;
#X obj 144 86 pack \$0 \$1 \$2 1;
#X msg 144 115 read -resize ../samples/saved/\$4/\$2_\$3.wav \$1_loop
;
#X obj 43 -19 r loadsong;
#X text 144 445 TODO : save a txt file associated to each samples (
exist ? \, volume \, reversed ? );
#X obj 144 29 t b b;
#X obj 43 3 bng 15 250 50 0 empty empty empty 17 7 0 10 -262144 -1
-1;
#X obj 144 186 sel 0;
#N canvas 122 328 517 509 checkinfofile 0;
#X obj 157 14 inlet;
#X obj 232 54 extra/sv song;
#X obj 196 110 pack \$1 \$2 1;
#X msg 196 185 read ../samples/saved/\$3/\$1_\$2_info.txt;
#X obj 196 220 textfile;
#X msg 127 138 rewind;
#X obj 88 138 bang;
#X obj 171 42 bng 15 250 50 0 empty empty empty 17 7 0 10 -262144 -1
-1;
#X obj 48 138 bang;
#X obj 107 64 t b b b b b b b;
#X obj 8 138 bang;
#X obj 190 267 route exist volume pitch;
#X obj 270 292 print volume;
#X obj 350 292 print pitch;
#X obj 189 310 sel 1 0;
#X msg 273 363 0;
#X obj 212 397 extra/sv \$1_\$2_is_loop_recorded;
#X obj 189 451 outlet;
#X obj 243 243 print textefile;
#X connect 0 0 9 0;
#X connect 0 0 7 0;
#X connect 1 0 2 2;
#X connect 2 0 3 0;
#X connect 3 0 4 0;
#X connect 4 0 11 0;
#X connect 4 0 18 0;
#X connect 5 0 4 0;
#X connect 6 0 4 0;
#X connect 8 0 4 0;
#X connect 9 2 10 0;
#X connect 9 3 8 0;
#X connect 9 4 6 0;
#X connect 9 5 5 0;
#X connect 9 6 2 0;
#X connect 10 0 4 0;
#X connect 11 0 14 0;
#X connect 11 1 12 0;
#X connect 11 2 13 0;
#X connect 14 0 17 0;
#X connect 14 1 15 0;
#X connect 15 0 16 1;
#X restore 92 253 pd checkinfofile;
#X obj 171 215 t b f;
#X obj 183 293 f 0;
#X obj 480 165 soundfiler;
#X obj 507 316 / 44.1;
#X floatatom 507 346 10 0 0 0 - - -, f 10;
#N canvas 890 50 509 628 tempoCalculation 0;
#X obj 133 46 s \$0_timer;
#X floatatom 69 134 5 0 0 0 - - -, f 5;
#X obj 42 505 /;
#X obj 123 182 log;
#X obj 123 271 i;
#X obj 123 221 / 0.693147;
#X floatatom 123 248 5 0 0 0 - - -, f 5;
#X floatatom 123 302 5 0 0 0 - - -, f 5;
#X obj 114 388 pow;
#X msg 102 360 2;
#X floatatom 114 413 5 0 0 0 - - -, f 5;
#X obj 115 461 s \$0_loop_size;
#X obj 102 327 t b f;
#X obj 42 68 t f f;
#X obj 69 105 / 380;
#X obj 59 1 inlet;
#X obj 42 545 t b b f;
#X obj 81 581 s \$0_loop_tempo;
#X obj 61 604 s \$0_begin;
#X msg 29 610 1;
#X obj -22 647 extra/sv \$1_\$2_is_loop_recorded;
#X obj 180 648 extra/sv \$1_\$2_is_loop_waitforplay;
#X connect 1 0 3 0;
#X connect 2 0 16 0;
#X connect 3 0 5 0;
#X connect 4 0 7 0;
#X connect 5 0 6 0;
#X connect 6 0 4 0;
#X connect 7 0 12 0;
#X connect 8 0 10 0;
#X connect 9 0 8 0;
#X connect 10 0 2 1;
#X connect 10 0 11 0;
#X connect 12 0 9 0;
#X connect 12 1 8 1;
#X connect 13 0 2 0;
#X connect 13 1 14 0;
#X connect 14 0 1 0;
#X connect 15 0 0 0;
#X connect 15 0 13 0;
#X connect 16 0 19 0;
#X connect 16 1 18 0;
#X connect 16 2 17 0;
#X connect 19 0 20 1;
#X connect 19 0 21 1;
#X restore 507 369 pd tempoCalculation;
#X text 209 238 Be sure there is a loop saved with this looper;
#X obj 480 196 sel 0;
#X text 515 269 From a file \, open the file only;
#X connect 0 0 20 0;
#X connect 1 0 2 0;
#X connect 2 0 3 0;
#X connect 4 0 18 0;
#X connect 5 0 6 0;
#X connect 6 0 9 0;
#X connect 7 0 5 0;
#X connect 8 0 7 0;
#X connect 9 0 24 0;
#X connect 10 0 7 0;
#X connect 13 1 14 3;
#X connect 14 0 15 0;
#X connect 15 0 0 0;
#X connect 16 0 19 0;
#X connect 18 0 14 0;
#X connect 18 1 13 2;
#X connect 19 0 18 0;
#X connect 20 1 22 0;
#X connect 21 0 23 0;
#X connect 22 0 21 0;
#X connect 22 1 23 1;
#X connect 23 0 1 0;
#X connect 24 0 29 0;
#X connect 25 0 26 0;
#X connect 26 0 27 0;
#X connect 29 1 25 0;
#X restore 704 411 pd open;
#X obj 704 389 bng 15 250 50 0 empty empty empty 17 7 0 10 -262144
-1 -1;
#X text 892 50 clear_with_longpress;
#X obj 666 551 bng 15 250 50 0 empty empty empty 17 7 0 10 -262144
-1 -1;
#X obj 184 591 t b b a;
#X obj 743 387 bng 15 250 50 0 empty empty empty 17 7 0 10 -262144
-1 -1;
#X obj 487 215 r \$1_\$2_recloop_slider_ui;
#X msg 203 747 1;
#X obj 185 257 extra/sv \$1_\$2_is_loop_waitforrec;
#X msg 314 203 0;
#X obj 788 347 extra/sv \$1_\$2_is_loop_playing;
#X obj 798 175 extra/sv \$1_\$2_is_loop_waitforplay;
#X obj 142 786 extra/sv \$1_\$2_is_loop_recorded;
#X text 645 581 play directly;
#X obj 1108 471 cnv 15 210 350 empty empty CLEAR 20 12 0 9 -204217
-66577 0;
#X obj 424 274 tgl 35 0 empty empty is_rec 1 7 0 10 -4032 -1 -1 0 1
;
#X obj 423 222 bng 35 250 50 0 empty empty rec 11 7 0 10 -258113 -1
-1;
#X obj 695 192 tgl 45 0 empty empty waitForPlay 1 7 0 10 -204786 -1
-1 1 1;
#X obj 709 287 tgl 35 0 empty empty PLAY 6 7 0 10 -4034 -1 -1 1 1;
#X obj 426 326 bng 35 250 50 0 empty empty CLEAR 4 16 0 10 -228856
-1 -258113;
#X msg 266 361 0;
#X obj 205 383 extra/sv \$1_\$2_is_loop_recorded;
#X obj 424 402 tgl 35 0 empty empty is_rec 1 7 0 10 -191407 -1 -1 1
1;
#X obj 871 468 cnv 15 210 350 empty empty OUTLET 20 12 0 9 -204217
-66577 0;
#X obj 1181 560 bng 15 250 50 0 empty empty empty 17 7 0 10 -258113
-1 -1;
#X obj 1252 717 s \$0_is_loop_deleted;
#X obj 1292 641 delay 1000;
#X obj 1181 539 r \$0_clear;
#X obj 1164 757 pack \$0;
#X msg 1164 779 \; \$1_loop const 0;
#X obj 1117 801 outlet;
#X msg 1181 579 0;
#X obj 1292 671 s \$1_\$2_recloop_deleted_ui;
#X obj 1120 624 sel 0;
#X obj 1120 601 extra/sv \$1_\$2_is_loop_recorded;
#N canvas 644 36 505 699 ledoutrec 0;
#X msg 102 285 1;
#X obj 102 447 tgl 15 0 empty empty empty 17 7 0 10 -262144 -1 -1 0
1;
#X obj 102 474 sel 1;
#X msg 102 377 bang;
#X msg 146 377 stop;
#X obj 102 328 sel 1;
#X obj 153 349 t b b;
#X msg 178 447 1;
#X msg 284 572 1;
#X msg 312 572 0;
#X obj 284 616 outlet;
#X obj 102 418 metro 200;
#N canvas 621 393 450 300 waitforrec 0;
#X obj 71 35 extra/sv \$1_\$2_is_loop_waitforrec;
#X obj 118 96 extra/sv \$1_\$2_is_loop_recording;
#X obj 71 166 != -1;
#X obj 71 197 sel 1;
#X obj 71 242 outlet;
#X obj 71 67 t f b;
#X connect 0 0 5 0;
#X connect 1 0 2 1;
#X connect 2 0 3 0;
#X connect 3 0 4 0;
#X connect 5 0 2 0;
#X connect 5 1 1 2;
#X restore 104 215 pd waitforrec;
#X obj 284 212 extra/sv \$1_\$2_is_loop_recording;
#X obj 284 469 sel 1 0;
#X obj 284 242 t f b;
#X obj 50 171 extra/sv \$1_\$2_is_loop_recorded;
#X obj 50 218 sel 0;
#X obj 491 181 r \$1_\$2_recloop_deleted_ui;
#X text 499 155 Animation on delete over;
#X text 49 152 Begin animation on delete;
#X msg 491 215 0;
#X connect 0 0 5 0;
#X connect 1 0 2 0;
#X connect 2 0 8 0;
#X connect 2 1 9 0;
#X connect 3 0 11 0;
#X connect 4 0 11 0;
#X connect 5 0 3 0;
#X connect 5 1 6 0;
#X connect 6 0 4 0;
#X connect 6 1 7 0;
#X connect 7 0 2 0;
#X connect 8 0 10 0;
#X connect 9 0 10 0;
#X connect 11 0 1 0;
#X connect 12 0 0 0;
#X connect 13 0 15 0;
#X connect 14 0 8 0;
#X connect 14 1 9 0;
#X connect 15 0 14 0;
#X connect 15 1 4 0;
#X connect 16 0 17 0;
#X connect 17 0 0 0;
#X connect 18 0 21 0;
#X connect 21 0 15 0;
#X restore 909 740 pd ledoutrec;
#X obj 909 775 outlet;
#X obj 992 775 outlet;
#N canvas 529 23 691 732 ledoutplay 0;
#X msg 102 285 1;
#X obj 110 447 tgl 15 0 empty empty empty 17 7 0 10 -262144 -1 -1 0
1;
#X obj 110 474 sel 1;
#X msg 86 377 bang;
#X msg 146 378 stop;
#X obj 102 328 sel 1;
#X obj 153 349 t b b;
#X msg 178 442 1;
#X obj 407 585 outlet;
#X msg 407 522 1;
#X msg 469 522 0;
#X obj 407 434 sel 1 0;
#X obj 407 170 extra/sv \$1_\$2_is_loop_playing;
#N canvas 173 437 450 300 waitforplay 0;
#X obj 71 166 != -1;
#X obj 71 197 sel 1;
#X obj 71 242 outlet;
#X obj 65 -62 extra/sv \$1_\$2_is_loop_waitforplay;
#X obj 118 96 extra/sv \$1_\$2_is_loop_playing;
#X obj 71 67 t f b;
#X obj -112 -2 extra/sv \$1_\$2_is_loop_recorded;
#X obj 65 -26 t b f;
#X obj 71 42 i -1;
#X obj 71 18 sel 1;
#X connect 0 0 1 0;
#X connect 1 0 2 0;
#X connect 3 0 7 0;
#X connect 4 1 0 1;
#X connect 5 0 0 0;
#X connect 5 1 4 2;
#X connect 6 1 9 0;
#X connect 7 0 6 2;
#X connect 7 1 8 1;
#X connect 8 0 5 0;
#X connect 9 0 8 0;
#X restore 102 210 pd waitforplay;
#X obj 407 294 t f b;
#X obj 32 207 sel 0;
#X obj 32 184 extra/sv \$1_\$2_is_loop_recorded;
#X obj 600 136 r \$1_\$2_recloop_deleted_ui;
#X text 608 110 Animation on delete over;
#X msg 600 170 0;
#X obj 63 248 bng 15 250 50 0 empty empty empty 17 7 0 10 -262144 -1
-1;
#X obj 110 418 metro 200;
#X connect 0 0 5 0;
#X connect 1 0 2 0;
#X connect 2 0 9 0;
#X connect 2 1 10 0;
#X connect 3 0 21 0;
#X connect 4 0 21 0;
#X connect 5 0 3 0;
#X connect 5 1 6 0;
#X connect 6 0 4 0;
#X connect 6 1 7 0;
#X connect 7 0 2 0;
#X connect 9 0 8 0;
#X connect 10 0 8 0;
#X connect 11 0 9 0;
#X connect 11 1 10 0;
#X connect 12 0 14 0;
#X connect 13 0 0 0;
#X connect 14 0 11 0;
#X connect 14 1 4 0;
#X connect 15 0 20 0;
#X connect 16 0 15 0;
#X connect 17 0 19 0;
#X connect 19 0 14 0;
#X connect 20 0 0 0;
#X connect 21 0 1 0;
#X restore 992 740 pd ledoutplay;
#X text 434 37 record;
#X text 277 31 sound;
#X obj 1166 24 inlet;
#X obj 1166 58 route bang float;
#X obj 1166 152 tgl 35 0 empty empty empty 17 7 0 10 -204800 -1 -1
0 1;
#X msg 1283 58 1;
#X msg 1321 59 0;
#X obj 1166 113 extra/sv \$1_\$2_is_loop_selected;
#X obj 802 388 tgl 15 0 empty empty empty 17 7 0 10 -262144 -1 -1 1
1;
#N canvas 172 465 450 300 startAfterQuantifAndCheckLoop 0;
#X obj 196 175 i 0;
#X obj 50 112 r tempo_quantif_bang;
#X obj 211 113 inlet;
#X obj 227 260 outlet;
#X msg 254 175 -1;
#X obj 196 214 sel -1;
#X obj 70 171 bng 15 250 50 0 empty empty empty 17 7 0 10 -262144 -1
-1;
#X connect 0 0 4 0;
#X connect 0 0 5 0;
#X connect 1 0 0 0;
#X connect 1 0 6 0;
#X connect 2 0 0 1;
#X connect 4 0 0 1;
#X connect 5 1 3 0;
#X restore 798 221 pd startAfterQuantifAndCheckLoop;
#X obj 864 121 r \$0_is_loop_deleted;
#X msg 865 140 0;
#X obj 818 204 bng 15 250 50 0 empty empty empty 17 7 0 10 -262144
-1 -1;
#X obj 1295 796 array size \$0_loop;
#X obj 1295 772 i 0;
#X msg 1294 748 600000;
#X text 495 518 remettre sel 1/0 por garder l'overdub;
#X obj 55 219 extra/sv looper/\$1/\$2/is_loop_waitforrec;
#X obj 751 709 tabread4~ \$0_loop;
#X obj 765 655 *~ 44100;
#X connect 1 0 51 0;
#X connect 3 0 60 0;
#X connect 4 0 6 0;
#X connect 4 0 11 0;
#X connect 6 0 9 0;
#X connect 7 0 9 1;
#X connect 8 0 11 0;
#X connect 10 0 42 0;
#X connect 12 0 13 0;
#X connect 15 0 24 0;
#X connect 15 0 28 0;
#X connect 16 0 17 0;
#X connect 16 0 24 1;
#X connect 16 0 25 0;
#X connect 16 0 28 0;
#X connect 17 0 18 0;
#X connect 19 0 16 0;
#X connect 20 0 19 1;
#X connect 21 0 19 0;
#X connect 22 0 23 0;
#X connect 23 0 28 0;
#X connect 26 0 15 0;
#X connect 26 0 21 0;
#X connect 27 0 26 0;
#X connect 31 0 114 0;
#X connect 32 0 36 0;
#X connect 33 0 32 0;
#X connect 33 0 23 1;
#X connect 34 0 52 0;
#X connect 35 0 31 1;
#X connect 37 0 35 0;
#X connect 37 0 59 0;
#X connect 38 0 3 0;
#X connect 39 0 4 0;
#X connect 40 0 31 0;
#X connect 41 0 65 0;
#X connect 42 0 39 0;
#X connect 42 1 38 0;
#X connect 48 0 67 0;
#X connect 49 0 50 0;
#X connect 50 0 74 0;
#X connect 51 1 72 0;
#X connect 52 0 48 0;
#X connect 52 1 53 0;
#X connect 55 0 54 0;
#X connect 57 0 56 0;
#X connect 60 0 7 0;
#X connect 60 1 63 0;
#X connect 60 2 11 0;
#X connect 61 0 56 1;
#X connect 62 0 47 0;
#X connect 63 0 68 1;
#X connect 64 0 43 0;
#X connect 64 0 71 0;
#X connect 65 0 64 3;
#X connect 66 0 35 1;
#X connect 66 0 103 0;
#X connect 67 0 104 0;
#X connect 67 0 73 0;
#X connect 67 0 107 0;
#X connect 72 0 64 0;
#X connect 74 0 66 1;
#X connect 75 0 76 0;
#X connect 76 0 77 1;
#X connect 77 0 78 0;
#X connect 80 0 87 0;
#X connect 82 0 88 0;
#X connect 83 0 80 0;
#X connect 84 0 85 0;
#X connect 87 0 90 1;
#X connect 89 0 82 0;
#X connect 89 0 81 0;
#X connect 89 0 84 0;
#X connect 89 0 86 0;
#X connect 89 0 110 0;
#X connect 90 0 89 0;
#X connect 91 0 92 0;
#X connect 94 0 93 0;
#X connect 97 0 98 0;
#X connect 98 0 102 0;
#X connect 98 1 102 1;
#X connect 100 0 102 1;
#X connect 101 0 102 1;
#X connect 102 0 99 0;
#X connect 104 0 74 0;
#X connect 105 0 106 0;
#X connect 106 0 67 1;
#X connect 109 0 108 0;
#X connect 110 0 109 0;
#X connect 113 0 33 0;
#X connect 114 0 113 0;
