#N canvas 2 95 1065 627 10;
#X declare -path ../;
#X obj 85 19 cnv 15 790 70 empty empty FROM::INLET 20 12 0 14 -204217
-66577 0;
#X obj 374 -1 inlet;
#X obj 101 465 cnv 15 280 350 empty empty write_first_loop_with_tempo
20 12 0 9 -212539 -66577 0;
#X msg 184 571 stop;
#X msg 128 595 start;
#X text 118 730 TEMPO;
#X obj 109 687 bng 15 250 50 0 empty empty empty 17 7 0 10 -262144
-1 -1;
#X obj 184 687 bng 15 250 50 0 empty empty empty 17 7 0 10 -262144
-1 -1;
#X obj 244 646 r~ \$0-input;
#N canvas 138 131 775 579 toTempo-ui 0;
#X obj 206 301 timer;
#X obj 243 318 s \$0_timer;
#X floatatom 114 353 5 0 0 0 - - -, f 5;
#X obj 155 370 s \$0_loop_size;
#X floatatom 323 318 10 0 0 0 - - -, f 10;
#X obj 206 167 inlet;
#X obj 238 191 inlet;
#X obj 102 471 s \$0_loop_tempo;
#X text 113 489 non \, la fausse valeur;
#X msg 364 184 1;
#X msg 364 206 0;
#X obj 291 253 extra/sv \$1_\$2_is_loop_recording;
#X obj 64 231 f;
#X obj 98 232 + 1;
#X obj 64 202 bng 15 250 50 0 empty empty empty 17 7 0 10 -262144 -1
-1;
#X floatatom 64 260 5 0 0 0 - - -, f 5;
#X obj 64 168 r tempo_click_bang;
#X obj 63 306 i 0;
#X obj 7 353 extra/sv tempo;
#X floatatom 51 475 5 0 0 0 - - -, f 5;
#X obj 35 307 bng 15 250 50 0 empty empty empty 17 7 0 10 -262144 -1
-1;
#X obj 102 396 / 60;
#X obj 102 422 pow -1;
#X obj 102 446 * 1000;
#X msg 144 199 1;
#X connect 0 0 1 0;
#X connect 0 0 4 0;
#X connect 2 0 3 0;
#X connect 5 0 0 0;
#X connect 5 0 9 0;
#X connect 5 0 24 0;
#X connect 6 0 0 1;
#X connect 6 0 10 0;
#X connect 6 0 17 0;
#X connect 6 0 18 2;
#X connect 9 0 11 1;
#X connect 10 0 11 1;
#X connect 12 0 13 0;
#X connect 12 0 15 0;
#X connect 13 0 12 1;
#X connect 14 0 12 0;
#X connect 15 0 17 1;
#X connect 16 0 14 0;
#X connect 17 0 2 0;
#X connect 18 1 21 0;
#X connect 20 0 18 2;
#X connect 21 0 22 0;
#X connect 22 0 23 0;
#X connect 23 0 7 0;
#X connect 23 0 19 0;
#X connect 24 0 12 1;
#X restore 109 707 pd toTempo-ui;
#X obj 223 670 tabwrite~ \$0_loop;
#X obj 228 31 inlet~;
#X obj 228 65 s~ \$0-input;
#X obj 388 465 cnv 15 210 350 empty empty write_other_loop 20 12 0
9 -204217 -66577 0;
#X msg 394 601 start;
#X msg 442 601 stop;
#X obj 475 711 r~ \$0-input;
#X obj 475 735 +~;
#N canvas 379 190 450 300 ui 0;
#X obj 126 93 inlet;
#X obj 174 92 inlet;
#X obj 126 120 bang;
#X obj 174 120 bang;
#X msg 126 174 1;
#X msg 174 175 0;
#X obj 66 229 extra/sv \$1_\$2_is_loop_recording;
#X connect 0 0 2 0;
#X connect 1 0 3 0;
#X connect 2 0 4 0;
#X connect 3 0 5 0;
#X connect 4 0 6 1;
#X connect 5 0 6 1;
#X restore 395 682 pd ui;
#X obj 455 493 r \$0_realstart_overdub;
#X obj 455 772 tabwrite~ \$0_loop;
#X obj 639 467 cnv 15 210 350 empty empty play! 20 12 0 9 -204217 -66577
0;
#N canvas 218 149 567 572 rampgenerator 0;
#X obj 137 651 outlet~;
#X text 217 585 2 = nbbar*1/tempofinal;
#X obj 81 169 f;
#X obj 115 170 + 1;
#X obj 81 40 bng 15 250 50 0 empty empty empty 17 7 0 10 -262144 -1
-1;
#X floatatom 81 198 5 0 0 0 - - -, f 5;
#X obj 209 170 r \$0_loop_size;
#X obj 81 221 mod 1;
#X floatatom 209 197 5 0 0 0 - - -, f 5;
#X obj 80 283 bng 15 250 50 0 empty empty empty 17 7 0 10 -262144 -1
-1;
#X obj 418 142 pow -1;
#X obj 419 115 / 60;
#X obj 206 282 * 1;
#X floatatom 494 121 5 0 0 0 - - -, f 5;
#X text 218 602 1 = nbbar*1/tempo;
#X obj 27 324 s \$0_loop_start;
#X obj 136 577 *~;
#X obj 576 334 s \$0_loop_precession;
#X obj -128 471 r tempoStopOut;
#X obj 418 168 * 1;
#X msg 112 387 0;
#X obj 578 124 / 1000;
#X obj 578 155 pow -1;
#X obj 578 181 * 60;
#X floatatom 577 218 5 0 0 0 - - -, f 5;
#X obj 576 297 / 1;
#X obj 578 85 r \$0_loop_tempo;
#X obj 494 151 i 0;
#X obj 576 264 t b f;
#X obj 212 233 t b f;
#N canvas 110 122 673 569 slider_ui 0;
#X obj 196 169 inlet~;
#X obj 200 227 snapshot~;
#X obj 311 139 loadbang;
#X obj 284 138 bng 15 250 50 0 empty empty empty 17 7 0 10 -262144
-1 -1;
#X floatatom 384 326 5 0 0 0 - - -, f 5;
#X obj 384 374 change;
#X obj 407 428 s \$1_recloop_ui_play;
#X obj 384 403 sel 1 0;
#X obj 384 454 s \$1_recloop_ui_stop;
#X obj 384 349 >= 1;
#X obj 316 172 metro 80;
#X obj 384 289 extra/svosc \$1_\$2_recloop_slider;
#X connect 0 0 1 0;
#X connect 1 0 11 1;
#X connect 2 0 10 0;
#X connect 3 0 10 0;
#X connect 4 0 9 0;
#X connect 5 0 7 0;
#X connect 7 0 8 0;
#X connect 7 1 6 0;
#X connect 9 0 5 0;
#X connect 10 0 1 0;
#X connect 11 0 4 0;
#X restore 21 582 pd slider_ui;
#X obj 81 6 inlet;
#X obj 136 543 line~;
#X obj 80 360 t b b;
#X obj 80 419 f 0;
#X msg 80 448 1 \$1;
#X obj 205 319 * 1000;
#X floatatom 215 361 10 0 0 0 - - -, f 10;
#X obj -24 6 inlet;
#X obj 156 80 sel 1;
#X obj 268 126 bng 15 250 50 0 empty empty empty 17 7 0 10 -262144
-1 -1;
#X obj 222 499 r \$0_timer;
#X floatatom 241 571 10 0 0 0 - - -, f 10;
#X obj 222 521 / 1000;
#X msg -128 518 300;
#X obj 191 133 bng 15 250 50 0 empty empty empty 17 7 0 10 -262144
-1 -1;
#X msg 214 134 0;
#X obj 81 244 select 0;
#X obj 214 87 r tempoStopOut;
#X obj -153 442 r \$0_is_loop_deleted;
#X obj 419 85 extra/sv tempo;
#X text 421 42 TODO : get global tempo when loop_tempo changed;
#X obj 617 219 s \$1_\$2_realtempo_toUI;
#X obj 217 53 extra/sv \$1_\$2_is_loop_playing;
#X connect 2 0 3 0;
#X connect 2 0 5 0;
#X connect 3 0 2 1;
#X connect 4 0 2 0;
#X connect 5 0 7 0;
#X connect 6 0 7 1;
#X connect 6 0 8 0;
#X connect 7 0 47 0;
#X connect 8 0 29 0;
#X connect 9 0 15 0;
#X connect 9 0 33 0;
#X connect 10 0 19 0;
#X connect 11 0 10 0;
#X connect 12 0 36 0;
#X connect 13 0 27 0;
#X connect 16 0 0 0;
#X connect 18 0 44 0;
#X connect 19 0 12 0;
#X connect 20 0 32 0;
#X connect 21 0 22 0;
#X connect 22 0 23 0;
#X connect 23 0 24 0;
#X connect 23 0 52 0;
#X connect 24 0 28 0;
#X connect 25 0 17 0;
#X connect 26 0 21 0;
#X connect 27 0 25 0;
#X connect 28 0 25 0;
#X connect 28 1 25 1;
#X connect 29 0 12 0;
#X connect 29 1 12 1;
#X connect 31 0 4 0;
#X connect 32 0 16 0;
#X connect 32 0 30 0;
#X connect 33 0 34 0;
#X connect 33 1 20 0;
#X connect 34 0 35 0;
#X connect 35 0 32 0;
#X connect 36 0 37 0;
#X connect 36 0 34 1;
#X connect 38 0 9 0;
#X connect 39 0 46 0;
#X connect 39 0 45 0;
#X connect 41 0 43 0;
#X connect 43 0 16 1;
#X connect 43 0 42 0;
#X connect 44 0 32 0;
#X connect 46 0 2 1;
#X connect 47 0 9 0;
#X connect 48 0 40 0;
#X connect 48 0 46 0;
#X connect 49 0 44 0;
#X connect 50 0 11 0;
#X connect 50 0 13 0;
#X connect 53 0 39 0;
#X restore 662 628 pd rampgenerator;
#X obj 662 716 *~ 1;
#X obj 798 21 inlet;
#X obj 755 556 spigot;
#X obj 666 510 r tempo_click_bang;
#X obj 184 549 bng 15 250 50 0 empty empty empty 17 7 0 10 -262144
-1 -1;
#X obj 129 550 bng 15 250 50 0 empty empty empty 17 7 0 10 -262144
-1 -1;
#X obj 662 596 bng 15 250 50 0 empty empty empty 17 7 0 10 -262144
-1 -1;
#X obj 149 520 sel 1 0;
#N canvas 53 158 894 617 manageRecording 0;
#N canvas 170 240 565 368 islooprecorded 0;
#X obj 122 106 tgl 15 0 empty empty empty 17 7 0 10 -262144 -1 -1 0
1;
#X obj 115 266 outlet;
#X obj 190 267 outlet;
#X obj 331 29 inlet;
#X obj 114 237 i -1;
#X obj 331 57 t b f b;
#X obj 190 237 i -1;
#X obj 122 153 sel 1 0;
#X obj 122 74 extra/sv \$1_\$2_is_loop_recorded;
#X connect 0 0 7 0;
#X connect 3 0 5 0;
#X connect 4 0 1 0;
#X connect 5 0 8 2;
#X connect 5 1 4 1;
#X connect 5 1 6 1;
#X connect 6 0 2 0;
#X connect 7 0 4 0;
#X connect 7 1 6 0;
#X connect 8 1 0 0;
#X coords 0 -1 1 1 40 30 1 100 100;
#X restore 304 91 pd islooprecorded;
#X text 275 107 yes;
#X text 418 109 no;
#N canvas 416 140 450 300 startAfterQuantif 0;
#X obj 60 88 r tempo_quantif_bang;
#X obj 192 10 inlet;
#X obj 204 201 outlet;
#X msg 229 125 -1;
#X obj 171 164 sel -1;
#X obj 171 125 i -1;
#X obj 288 127 extra/sv \$1_\$2_is_loop_waitforplay;
#X obj 355 62 sel 0;
#X msg 355 92 1;
#X connect 0 0 5 0;
#X connect 1 0 5 1;
#X connect 1 0 7 0;
#X connect 3 0 5 1;
#X connect 4 1 2 0;
#X connect 5 0 3 0;
#X connect 5 0 4 0;
#X connect 7 0 8 0;
#X connect 8 0 6 1;
#X restore 502 378 pd startAfterQuantif;
#N canvas 487 339 450 300 startAfterLoopBegin 0;
#X obj 172 47 inlet;
#X obj 192 199 outlet;
#X obj 209 79 r \$0_loop_start;
#X msg 201 126 -1;
#X obj 153 164 sel -1;
#X obj 153 128 i -1;
#X connect 0 0 5 1;
#X connect 2 0 5 0;
#X connect 3 0 5 1;
#X connect 4 1 1 0;
#X connect 5 0 3 0;
#X connect 5 0 4 0;
#X restore 16 284 pd startAfterLoopBegin;
#X obj 16 313 s \$0_realstart_overdub;
#X obj 295 318 s \$0_realstart_overdub;
#N canvas 812 218 562 463 istempoplaying 0;
#X obj 124 109 tgl 15 0 empty empty empty 17 7 0 10 -262144 -1 -1 0
1;
#X obj 117 269 outlet;
#X obj 192 270 outlet;
#X obj 333 32 inlet;
#X obj 116 240 i -1;
#X obj 333 60 t b f b;
#X obj 192 240 i -1;
#X obj 124 156 sel 1 0;
#X obj 124 77 extra/sv tempo_isplaying;
#X connect 0 0 7 0;
#X connect 3 0 5 0;
#X connect 4 0 1 0;
#X connect 5 0 8 2;
#X connect 5 1 4 1;
#X connect 5 1 6 1;
#X connect 6 0 2 0;
#X connect 7 0 4 0;
#X connect 7 1 6 0;
#X connect 8 1 0 0;
#X coords 0 -1 1 1 85 30 1 100 100;
#X restore 184 213 pd istempoplaying;
#X obj 304 37 inlet;
#X obj 167 172 cnv 15 150 30 empty empty LOOP:RECORDED 20 12 0 14 -228856
-1 0;
#X obj 512 171 cnv 15 150 30 empty empty NO:LOOP:RECORDED 20 12 0 14
-99865 -262144 0;
#X obj 7 243 cnv 15 150 30 empty empty TEMPO:PLAYING 20 12 0 14 -4034
-66577 0;
#X obj 681 252 cnv 15 150 30 empty empty TEMPO:STOP 20 12 0 14 -258113
-66577 0;
#X obj 494 252 cnv 15 150 30 empty empty TEMPO:PLAYING 20 12 0 14 -4034
-66577 0;
#X obj 326 235 cnv 15 150 30 empty empty TEMPO:STOP 20 12 0 14 -258113
-66577 0;
#X obj 575 315 bng 15 250 50 0 empty empty empty 17 7 0 10 -262144
-1 -1;
#X obj 308 135 bng 15 250 50 0 empty empty empty 17 7 0 10 -262144
-1 -1;
#X obj 388 135 bng 15 250 50 0 empty empty empty 17 7 0 10 -262144
-1 -1;
#X obj 343 65 bng 15 250 50 0 empty empty empty 17 7 0 10 -262144 -1
-1;
#N canvas 0 50 450 300 realstart_first 0;
#X obj 135 132 s \$0_realstart_first;
#X obj 211 165 extra/sv \$1_\$2_is_loop_waitforplay;
#X msg 278 134 1;
#X obj 278 103 sel 0;
#X obj 251 28 inlet;
#X obj 251 64 t f f;
#X connect 2 0 1 1;
#X connect 3 0 2 0;
#X connect 4 0 5 0;
#X connect 5 0 0 0;
#X connect 5 1 3 0;
#X restore 686 306 pd realstart_first;
#N canvas 812 218 562 463 istempoplaying 0;
#X obj 124 109 tgl 15 0 empty empty empty 17 7 0 10 -262144 -1 -1 1
1;
#X obj 117 269 outlet;
#X obj 192 270 outlet;
#X obj 333 32 inlet;
#X obj 116 240 i -1;
#X obj 333 60 t b f b;
#X obj 192 240 i -1;
#X obj 124 156 sel 1 0;
#X obj 124 77 extra/sv tempo_isplaying;
#X connect 0 0 7 0;
#X connect 3 0 5 0;
#X connect 4 0 1 0;
#X connect 5 0 8 2;
#X connect 5 1 4 1;
#X connect 5 1 6 1;
#X connect 6 0 2 0;
#X connect 7 0 4 0;
#X connect 7 1 6 0;
#X connect 8 1 0 0;
#X coords 0 -1 1 1 85 30 1 100 100;
#X restore 564 210 pd istempoplaying;
#X obj 120 62 print \$1_WaitForRec;
#X obj 28 363 print \$1_loop_overdub;
#X obj 296 343 print \$1_loop_start_overdub;
#X obj 531 354 print \$1_startAfterQuantif;
#X obj 662 328 print \$1_startDirectly;
#X obj 502 405 s \$0_realstart_first_with_tempo;
#X obj 300 266 bng 15 250 50 0 empty empty empty 17 7 0 10 -262144
-1 -1;
#X connect 0 0 16 0;
#X connect 0 0 7 0;
#X connect 0 1 17 0;
#X connect 0 1 20 0;
#X connect 3 0 26 0;
#X connect 4 0 5 0;
#X connect 7 0 4 0;
#X connect 7 1 27 0;
#X connect 8 0 0 0;
#X connect 8 0 18 0;
#X connect 20 0 3 0;
#X connect 20 0 15 0;
#X connect 20 1 19 0;
#X restore 185 283 pd manageRecording;
#X obj 423 177 cnv 15 340 260 empty empty Control_panel 20 12 0 14
-237308 -66577 0;
#N canvas 545 163 595 445 (subpatch) 0;
#X array \$0_loop 600000 float 0;
#X coords 0 -1 599999 1 200 60 1;
#X restore 483 256 graph;
#N canvas 2 224 1009 300 init 0;
#X floatatom 279 45 4 0 100 0 - - -, f 4;
#X obj 279 65 * 0.001;
#X text 314 45 msec;
#X obj 279 -9 bang;
#X obj 279 -39 loadbang;
#X obj 279 88 s \$0_chunk-size;
#X obj 162 46 pack \$0;
#X msg 162 68 \; \$1_loop const 0;
#X obj 391 -21 delay 200;
#X msg 700 -20 0;
#X obj 424 88 extra/sv \$1_\$2_is_loop_recorded;
#X obj 742 18 extra/sv \$1_\$2_is_loop_recording;
#X obj 749 47 extra/sv \$1_\$2_is_loop_playing;
#X msg 279 23 25;
#X obj 754 77 extra/sv \$1_\$2_is_loop_waitforrec;
#X obj 748 115 extra/sv \$1_\$2_is_loop_waitforplay;
#X msg 422 37 0;
#X obj 278 135 bang;
#X obj 98 111 array size \$0_loop;
#X obj 98 87 i 0;
#X msg 97 63 600000;
#X obj 184 2 t b b;
#X text 751 149 manque le slider;
#X obj 193 -33 bng 15 250 50 0 empty empty empty 17 7 0 10 -262144
-1 -1;
#X obj 215 201 extra/svsave \$1_\$2_looper_volume;
#X obj 451 200 extra/svsave \$1_\$2_looper_sendA;
#X obj 657 201 extra/svsave \$1_\$2_looper_sendB;
#X connect 0 0 1 0;
#X connect 1 0 5 0;
#X connect 3 0 13 0;
#X connect 4 0 3 0;
#X connect 4 0 8 0;
#X connect 4 0 9 0;
#X connect 4 0 17 0;
#X connect 4 0 21 0;
#X connect 6 0 7 0;
#X connect 8 0 16 0;
#X connect 9 0 11 3;
#X connect 9 0 12 3;
#X connect 9 0 14 3;
#X connect 9 0 15 3;
#X connect 13 0 0 0;
#X connect 16 0 10 3;
#X connect 19 0 18 0;
#X connect 20 0 19 0;
#X connect 21 0 6 0;
#X connect 21 1 20 0;
#X connect 23 0 21 0;
#X restore 620 182 pd init;
#X obj 487 239 hsl 200 15 0 1 0 0 empty empty empty -2 -8 0 10 -262144
-1 -1 19900 1;
#X obj 797 136 bng 15 250 50 0 empty empty empty 17 7 0 10 -262144
-1 -1;
#X obj 1014 251 r \$0_is_loop_deleted;
#X msg 1015 270 0;
#X obj 391 71 sel 0;
#N canvas 379 215 623 468 longORshort 0;
#X obj 153 75 inlet;
#X obj 152 180 timer;
#X obj 153 119 sel 0;
#X obj 187 149 bang;
#X obj 151 224 > 500;
#X obj 151 298 bng 15 250 50 0 empty empty empty 17 7 0 10 -262144
-1 -1;
#X obj 181 298 bng 15 250 50 0 empty empty empty 17 7 0 10 -262144
-1 -1;
#X obj 151 256 sel 0;
#X obj 151 419 outlet;
#X obj 223 417 outlet;
#X obj 380 102 sel 0;
#X obj 398 239 i 0;
#X obj 398 270 sel 0;
#X obj 399 311 bng 15 250 50 0 empty empty empty 17 7 0 10 -262144
-1 -1;
#X obj 431 312 bng 15 250 50 0 empty empty empty 17 7 0 10 -262144
-1 -1;
#X obj 432 414 s \$1_recloop_ui_waitforclear;
#X obj 435 162 bng 15 250 50 0 empty empty empty 17 7 0 10 -262144
-1 -1;
#X obj 444 196 delay 1000;
#X connect 0 0 2 0;
#X connect 0 0 10 0;
#X connect 0 0 11 1;
#X connect 1 0 4 0;
#X connect 2 0 1 1;
#X connect 2 1 3 0;
#X connect 3 0 1 0;
#X connect 4 0 7 0;
#X connect 5 0 8 0;
#X connect 7 0 5 0;
#X connect 7 1 6 0;
#X connect 10 1 16 0;
#X connect 11 0 12 0;
#X connect 12 0 13 0;
#X connect 12 1 14 0;
#X connect 14 0 9 0;
#X connect 16 0 17 0;
#X connect 17 0 11 0;
#X restore 798 42 pd longORshort;
#X obj 879 64 s \$0_clear;
#N canvas 59 200 776 489 save 0;
#X obj -565 234 soundfiler;
#X obj 126 17 t b b;
#X obj 126 -17 inlet;
#X obj 26 -8 bang;
#X obj -53 139 i 0;
#X msg 340 286 clear;
#X obj 10 354 textfile;
#X obj -148 244 extra/sv song;
#X obj -236 45 extra/sv \$1_\$2_is_loop_recorded;
#X msg 15 286 add exist \$1;
#X text -208 104 Save info file into text;
#X obj 26 -31 r save_song;
#X obj -76 208 s get_samples_location;
#X obj -137 262 r samples_location;
#X obj -475 102 extra/sv song;
#X obj -445 122 r samples_location;
#X obj -238 283 pack \$1 \$2 1 s;
#X msg -238 320 write \$4/\$3/loop\$1_\$2_info.txt;
#X obj -565 191 pack \$0 \$1 \$2 1 s 1000;
#X obj -414 146 r \$0_timer;
#X obj -414 169 * 44.1;
#X msg -565 212 write -wave -nframes \$6 \$5/\$4/loop\$2_\$3.wav \$1_loop
;
#X obj 263 228 r \$0_loop_size;
#X obj -53 161 t b b f b b b;
#X obj 225 262 i 0;
#X msg 225 286 add duration \$1;
#X obj 112 262 i 0;
#X obj 150 228 r \$0_loop_tempo;
#X msg 116 283 add tempo \$1;
#X connect 1 0 8 2;
#X connect 2 0 1 0;
#X connect 3 0 1 0;
#X connect 4 0 23 0;
#X connect 5 0 6 0;
#X connect 7 0 16 2;
#X connect 8 1 4 0;
#X connect 9 0 6 0;
#X connect 11 0 3 0;
#X connect 13 0 16 3;
#X connect 14 0 18 3;
#X connect 15 0 18 4;
#X connect 16 0 17 0;
#X connect 17 0 6 0;
#X connect 18 0 21 0;
#X connect 19 0 20 0;
#X connect 20 0 18 5;
#X connect 21 0 0 0;
#X connect 22 0 24 1;
#X connect 23 0 16 0;
#X connect 23 0 18 0;
#X connect 23 1 12 0;
#X connect 23 2 9 0;
#X connect 23 3 26 0;
#X connect 23 4 24 0;
#X connect 23 5 5 0;
#X connect 24 0 25 0;
#X connect 25 0 6 0;
#X connect 26 0 28 0;
#X connect 27 0 26 1;
#X connect 28 0 6 0;
#X restore 703 364 pd save;
#X obj 703 332 bng 15 250 50 0 empty empty empty 17 7 0 10 -262144
-1 -1;
#N canvas 56 120 670 562 open 1;
#X obj 144 159 soundfiler;
#X obj 183 319 / 44.1;
#X floatatom 183 349 10 0 0 0 - - -, f 10;
#N canvas 356 71 509 628 tempoCalculation 0;
#X floatatom 69 134 5 0 0 0 - - -, f 5;
#X obj 42 505 /;
#X obj 123 182 log;
#X obj 123 271 i;
#X obj 123 221 / 0.693147;
#X floatatom 123 248 5 0 0 0 - - -, f 5;
#X floatatom 123 302 5 0 0 0 - - -, f 5;
#X obj 114 388 pow;
#X msg 102 360 2;
#X floatatom 114 413 5 0 0 0 - - -, f 5;
#X obj 115 461 s \$0_loop_size;
#X obj 102 327 t b f;
#X obj 42 68 t f f;
#X obj 69 105 / 380;
#X obj 59 1 inlet;
#X obj 81 581 s \$0_loop_tempo;
#X obj 61 611 s \$0_begin;
#X msg 29 610 1;
#X obj -22 647 extra/sv \$1_\$2_is_loop_recorded;
#X obj -67 691 extra/sv \$1_\$2_is_loop_waitforplay;
#X obj 42 545 t b b b f;
#X text 135 615 Toujours d'actualité?;
#X msg -32 614 1;
#X obj 133 46 s \$0_timer;
#X connect 0 0 2 0;
#X connect 1 0 20 0;
#X connect 2 0 4 0;
#X connect 3 0 6 0;
#X connect 4 0 5 0;
#X connect 5 0 3 0;
#X connect 6 0 11 0;
#X connect 7 0 9 0;
#X connect 8 0 7 0;
#X connect 9 0 1 1;
#X connect 9 0 10 0;
#X connect 11 0 8 0;
#X connect 11 1 7 1;
#X connect 12 0 1 0;
#X connect 12 1 13 0;
#X connect 13 0 0 0;
#X connect 14 0 12 0;
#X connect 14 0 23 0;
#X connect 17 0 18 1;
#X connect 20 0 22 0;
#X connect 20 1 17 0;
#X connect 20 2 16 0;
#X connect 20 3 15 0;
#X connect 22 0 19 1;
#X restore 183 390 pd tempoCalculation;
#X obj 144 6 inlet;
#X obj 480 82 openpanel;
#X obj 480 114 pack s \$0;
#X obj 480 61 bang;
#X obj 480 41 inlet;
#X obj 531 41 r \$1_\$2_loop_open;
#X text 308 37 Open from saved song;
#X text 654 50 open from file;
#X obj 357 78 extra/sv song;
#X obj 43 -19 r loadsong;
#X text 144 445 TODO : save a txt file associated to each samples (
exist ? \, volume \, reversed ? );
#X obj 43 3 bng 15 250 50 0 empty empty empty 17 7 0 10 -262144 -1
-1;
#X obj 144 186 sel 0;
#N canvas 385 184 630 509 checkinfofile 1;
#X obj 157 14 inlet;
#X obj 250 133 extra/sv song;
#X obj 196 220 textfile;
#X msg 127 138 rewind;
#X obj 88 138 bang;
#X obj 171 42 bng 15 250 50 0 empty empty empty 17 7 0 10 -262144 -1
-1;
#X obj 48 138 bang;
#X obj 8 138 bang;
#X obj 57 310 sel 1 0;
#X obj 80 357 extra/sv \$1_\$2_is_loop_recorded;
#X obj 57 451 outlet;
#X obj 107 64 t b b b b b b b b b;
#X obj 196 160 pack \$1 \$2 1 s;
#X obj 221 88 s get_samples_location;
#X obj 276 109 r samples_location;
#X msg 196 185 read \$4/\$3/loop\$1_\$2_info.txt;
#X obj 190 267 route exist tempo duration;
#X obj 309 292 s \$0_loop_size;
#X obj 249 313 s \$0_loop_tempo;
#X obj 115 449 extra/sv \$1_\$2_is_loop_waitforplay;
#X msg 178 410 1;
#X text 228 418 autostart from load;
#X connect 0 0 5 0;
#X connect 0 0 11 0;
#X connect 1 0 12 2;
#X connect 2 0 16 0;
#X connect 3 0 2 0;
#X connect 4 0 2 0;
#X connect 6 0 2 0;
#X connect 7 0 2 0;
#X connect 8 0 10 0;
#X connect 8 0 20 0;
#X connect 11 2 7 0;
#X connect 11 3 6 0;
#X connect 11 4 4 0;
#X connect 11 5 3 0;
#X connect 11 6 12 0;
#X connect 11 8 13 0;
#X connect 12 0 15 0;
#X connect 14 0 12 3;
#X connect 15 0 2 0;
#X connect 16 0 8 0;
#X connect 16 0 9 1;
#X connect 16 1 18 0;
#X connect 16 2 17 0;
#X connect 20 0 19 1;
#X restore 92 253 pd checkinfofile;
#X obj 171 215 t b f;
#X obj 183 293 f 0;
#X obj 480 165 soundfiler;
#X obj 507 316 / 44.1;
#X floatatom 507 346 10 0 0 0 - - -, f 10;
#N canvas 890 50 509 628 tempoCalculation 0;
#X obj 133 46 s \$0_timer;
#X floatatom 69 134 5 0 0 0 - - -, f 5;
#X obj 42 505 /;
#X obj 123 182 log;
#X obj 123 271 i;
#X obj 123 221 / 0.693147;
#X floatatom 123 248 5 0 0 0 - - -, f 5;
#X floatatom 123 302 5 0 0 0 - - -, f 5;
#X obj 114 388 pow;
#X msg 102 360 2;
#X floatatom 114 413 5 0 0 0 - - -, f 5;
#X obj 115 461 s \$0_loop_size;
#X obj 102 327 t b f;
#X obj 42 68 t f f;
#X obj 69 105 / 380;
#X obj 59 1 inlet;
#X obj 42 545 t b b f;
#X obj 81 581 s \$0_loop_tempo;
#X obj 61 604 s \$0_begin;
#X msg 29 610 1;
#X obj -22 647 extra/sv \$1_\$2_is_loop_recorded;
#X obj 180 648 extra/sv \$1_\$2_is_loop_waitforplay;
#X connect 1 0 3 0;
#X connect 2 0 16 0;
#X connect 3 0 5 0;
#X connect 4 0 7 0;
#X connect 5 0 6 0;
#X connect 6 0 4 0;
#X connect 7 0 12 0;
#X connect 8 0 10 0;
#X connect 9 0 8 0;
#X connect 10 0 2 1;
#X connect 10 0 11 0;
#X connect 12 0 9 0;
#X connect 12 1 8 1;
#X connect 13 0 2 0;
#X connect 13 1 14 0;
#X connect 14 0 1 0;
#X connect 15 0 0 0;
#X connect 15 0 13 0;
#X connect 16 0 19 0;
#X connect 16 1 18 0;
#X connect 16 2 17 0;
#X connect 19 0 20 1;
#X connect 19 0 21 1;
#X restore 507 369 pd tempoCalculation;
#X text 209 238 Be sure there is a loop saved with this looper;
#X obj 480 196 sel 0;
#X text 515 269 From a file \, open the file only;
#X msg 480 142 read \$1 \$2_loop;
#X obj 163 52 s get_samples_location;
#X obj 144 29 t b b b;
#X obj 144 111 pack \$0 \$1 \$2 1 s;
#X obj 243 78 r samples_location;
#X msg 144 137 read \$5/\$4/loop\$2_\$3.wav \$1_loop;
#X obj 104 373 s \$0_timer;
#X connect 0 0 16 0;
#X connect 1 0 2 0;
#X connect 2 0 33 0;
#X connect 4 0 29 0;
#X connect 5 0 6 0;
#X connect 6 0 27 0;
#X connect 7 0 5 0;
#X connect 8 0 7 0;
#X connect 9 0 7 0;
#X connect 12 1 30 3;
#X connect 13 0 15 0;
#X connect 15 0 29 0;
#X connect 16 1 18 0;
#X connect 17 0 19 0;
#X connect 18 0 17 0;
#X connect 18 1 19 1;
#X connect 19 0 1 0;
#X connect 20 0 25 0;
#X connect 21 0 22 0;
#X connect 22 0 23 0;
#X connect 25 1 21 0;
#X connect 27 0 20 0;
#X connect 29 0 30 0;
#X connect 29 1 28 0;
#X connect 29 2 12 2;
#X connect 30 0 32 0;
#X connect 31 0 30 4;
#X connect 32 0 0 0;
#X restore 704 411 pd open;
#X obj 704 389 bng 15 250 50 0 empty empty empty 17 7 0 10 -262144
-1 -1;
#X text 892 50 clear_with_longpress;
#X obj 666 551 bng 15 250 50 0 empty empty empty 17 7 0 10 -262144
-1 -1;
#X obj 184 591 t b b a;
#X obj 743 387 bng 15 250 50 0 empty empty empty 17 7 0 10 -262144
-1 -1;
#X msg 203 747 1;
#X obj 185 257 extra/sv \$1_\$2_is_loop_waitforrec;
#X obj 788 347 extra/sv \$1_\$2_is_loop_playing;
#X obj 798 175 extra/sv \$1_\$2_is_loop_waitforplay;
#X obj 142 786 extra/sv \$1_\$2_is_loop_recorded;
#X text 645 581 play directly;
#X obj 1318 471 cnv 15 210 350 empty empty CLEAR 20 12 0 9 -204217
-66577 0;
#X obj 424 274 tgl 35 0 empty empty is_rec 1 7 0 10 -4032 -1 -1 0 1
;
#X obj 423 222 bng 35 250 50 0 empty empty rec 11 7 0 10 -258113 -1
-1;
#X obj 695 192 tgl 45 0 empty empty waitForPlay 1 7 0 10 -204786 -1
-1 1 1;
#X obj 709 287 tgl 35 0 empty empty PLAY 6 7 0 10 -4034 -1 -1 1 1;
#X obj 426 326 bng 35 250 50 0 empty empty CLEAR 4 16 0 10 -228856
-1 -258113;
#X msg 266 361 0;
#X obj 205 383 extra/sv \$1_\$2_is_loop_recorded;
#X obj 424 402 tgl 35 0 empty empty is_rec 1 7 0 10 -191407 -1 -1 1
1;
#X obj 1081 468 cnv 15 210 350 empty empty OUTLET 20 12 0 9 -204217
-66577 0;
#X obj 1381 560 bng 15 250 50 0 empty empty empty 17 7 0 10 -258113
-1 -1;
#X obj 1345 700 s \$0_is_loop_deleted;
#X obj 1363 651 delay 1000;
#X obj 1381 539 r \$0_clear;
#X obj 1418 754 pack \$0;
#X msg 1418 776 \; \$1_loop const 0;
#X obj 1320 803 outlet;
#X msg 1381 579 0;
#X obj 1363 676 s \$1_\$2_recloop_deleted_ui;
#X obj 1320 624 sel 0;
#X obj 1320 601 extra/sv \$1_\$2_is_loop_recorded;
#N canvas 142 73 761 687 ledoutrec 0;
#X msg 102 285 1;
#X obj 102 447 tgl 15 0 empty empty empty 17 7 0 10 -262144 -1 -1 1
1;
#X obj 102 474 sel 1;
#X msg 102 377 bang;
#X msg 146 377 stop;
#X obj 102 328 sel 1;
#X obj 153 349 t b b;
#X msg 178 447 1;
#X msg 284 572 1;
#X msg 312 572 0;
#X obj 284 616 outlet;
#N canvas 621 393 450 300 waitforrec 0;
#X obj 71 35 extra/sv \$1_\$2_is_loop_waitforrec;
#X obj 118 96 extra/sv \$1_\$2_is_loop_recording;
#X obj 71 166 != -1;
#X obj 71 197 sel 1;
#X obj 71 242 outlet;
#X obj 71 67 t f b;
#X connect 0 0 5 0;
#X connect 1 0 2 1;
#X connect 2 0 3 0;
#X connect 3 0 4 0;
#X connect 5 0 2 0;
#X connect 5 1 1 2;
#X restore 104 215 pd waitforrec;
#X obj 284 212 extra/sv \$1_\$2_is_loop_recording;
#X obj 284 469 sel 1 0;
#X obj 284 242 t f b;
#X obj 50 171 extra/sv \$1_\$2_is_loop_recorded;
#X obj 50 218 sel 0;
#X obj 491 181 r \$1_\$2_recloop_deleted_ui;
#X text 499 155 Animation on delete over;
#X text 49 152 Begin animation on delete;
#X msg 485 231 0;
#X obj 102 418 metro 100;
#X connect 0 0 5 0;
#X connect 1 0 2 0;
#X connect 2 0 8 0;
#X connect 2 1 9 0;
#X connect 3 0 21 0;
#X connect 4 0 21 0;
#X connect 5 0 3 0;
#X connect 5 1 6 0;
#X connect 6 0 4 0;
#X connect 6 1 7 0;
#X connect 7 0 2 0;
#X connect 8 0 10 0;
#X connect 9 0 10 0;
#X connect 11 0 0 0;
#X connect 12 0 14 0;
#X connect 13 0 8 0;
#X connect 13 1 9 0;
#X connect 14 0 13 0;
#X connect 14 1 4 0;
#X connect 15 0 16 0;
#X connect 16 0 0 0;
#X connect 17 0 20 0;
#X connect 20 0 14 0;
#X connect 21 0 1 0;
#X restore 1109 740 pd ledoutrec;
#X obj 1109 775 outlet;
#X obj 1203 775 outlet;
#N canvas 291 59 881 687 ledoutplay 0;
#X msg 243 271 1;
#X obj 251 433 tgl 15 0 empty empty empty 17 7 0 10 -262144 -1 -1 1
1;
#X obj 251 460 sel 1;
#X msg 227 363 bang;
#X msg 287 364 stop;
#X obj 243 314 sel 1;
#X obj 294 335 t b b;
#X msg 319 428 1;
#X obj 407 585 outlet;
#X msg 407 522 1;
#X msg 469 522 0;
#X obj 407 434 sel 1 0;
#X obj 407 170 extra/sv \$1_\$2_is_loop_playing;
#N canvas 172 443 450 300 waitforplay 0;
#X obj 71 166 != -1;
#X obj 71 197 sel 1;
#X obj 71 242 outlet;
#X obj 65 -62 extra/sv \$1_\$2_is_loop_waitforplay;
#X obj 118 96 extra/sv \$1_\$2_is_loop_playing;
#X obj 71 67 t f b;
#X obj -112 -2 extra/sv \$1_\$2_is_loop_recorded;
#X obj 65 -26 t b f;
#X obj 71 42 i -1;
#X obj 71 18 sel 1;
#X connect 0 0 1 0;
#X connect 1 0 2 0;
#X connect 3 0 7 0;
#X connect 4 1 0 1;
#X connect 5 0 0 0;
#X connect 5 1 4 2;
#X connect 6 1 9 0;
#X connect 7 0 6 2;
#X connect 7 1 8 1;
#X connect 8 0 5 0;
#X connect 9 0 8 0;
#X restore 243 196 pd waitforplay;
#X obj 407 294 t f b;
#X obj 52 246 r \$1_\$2_recloop_deleted_ui;
#X text 608 110 Animation on delete over;
#X msg 52 272 0;
#X obj 251 404 metro 100;
#X obj 93 274 bng 15 250 50 0 empty empty empty 17 7 0 10 -262144 -1
-1;
#X msg 13 271 1;
#X obj 21 433 tgl 15 0 empty empty empty 17 7 0 10 -262144 -1 -1 0
1;
#X obj 21 460 sel 1;
#X msg -3 363 bang;
#X msg 57 364 stop;
#X obj 13 314 sel 1;
#X obj 64 335 t b b;
#X obj 13 219 sel 0;
#X obj 13 196 extra/sv \$1_\$2_is_loop_recorded;
#X obj 13 244 bng 15 250 50 0 empty empty empty 17 7 0 10 -262144 -1
-1;
#X obj 21 404 metro 100;
#X msg 89 428 0;
#X connect 0 0 5 0;
#X connect 1 0 2 0;
#X connect 2 0 9 0;
#X connect 2 1 10 0;
#X connect 3 0 18 0;
#X connect 4 0 18 0;
#X connect 5 0 3 0;
#X connect 5 1 6 0;
#X connect 6 0 4 0;
#X connect 6 1 7 0;
#X connect 7 0 2 0;
#X connect 9 0 8 0;
#X connect 10 0 8 0;
#X connect 11 0 9 0;
#X connect 11 1 10 0;
#X connect 12 0 14 0;
#X connect 13 0 0 0;
#X connect 14 0 11 0;
#X connect 14 1 4 0;
#X connect 15 0 17 0;
#X connect 15 0 19 0;
#X connect 17 0 25 0;
#X connect 18 0 1 0;
#X connect 20 0 25 0;
#X connect 21 0 22 0;
#X connect 22 0 9 0;
#X connect 22 1 10 0;
#X connect 23 0 30 0;
#X connect 24 0 30 0;
#X connect 25 0 23 0;
#X connect 25 1 26 0;
#X connect 26 0 24 0;
#X connect 26 1 31 0;
#X connect 27 0 29 0;
#X connect 28 0 27 0;
#X connect 29 0 20 0;
#X connect 30 0 21 0;
#X connect 31 0 22 0;
#X restore 1203 740 pd ledoutplay;
#X text 434 37 record;
#X text 277 31 sound;
#X obj 802 388 tgl 15 0 empty empty empty 17 7 0 10 -262144 -1 -1 0
1;
#N canvas 258 222 729 400 startAfterQuantifAndCheckLoop 0;
#X obj 50 112 r tempo_quantif_bang;
#X obj 211 5 inlet;
#X obj 286 258 outlet;
#X msg 254 175 -1;
#X obj 196 214 sel -1;
#X obj 52 142 bng 15 250 50 0 empty empty empty 17 7 0 10 -262144 -1
-1;
#X obj 362 150 extra/sv tempo_isplaying;
#X obj 456 127 bang;
#X obj 503 178 sel 0;
#X text 497 125 Auto Play if stop;
#X obj 503 204 s tempoGoIn;
#X obj 472 208 bng 15 250 50 0 empty empty empty 17 7 0 10 -262144
-1 -1;
#X obj 307 70 extra/sv \$1_\$2_is_loop_recorded;
#X obj 490 94 sel 1;
#X obj 429 38 sel 1;
#X obj 196 175 i -1;
#X obj 315 109 sel 0;
#X text 236 94 nothing is sent at start;
#X floatatom 151 214 5 0 0 0 - - -, f 5;
#X obj 297 176 bng 15 250 50 0 empty empty empty 17 7 0 10 -262144
-1 -1;
#X obj 228 279 print startafterquantif;
#X obj 211 27 t f f;
#X connect 0 0 15 0;
#X connect 0 0 5 0;
#X connect 1 0 21 0;
#X connect 3 0 15 1;
#X connect 4 1 2 0;
#X connect 4 1 20 0;
#X connect 6 1 8 0;
#X connect 7 0 6 2;
#X connect 8 0 10 0;
#X connect 8 0 11 0;
#X connect 12 0 16 0;
#X connect 12 1 13 0;
#X connect 13 0 7 0;
#X connect 14 0 12 2;
#X connect 15 0 3 0;
#X connect 15 0 4 0;
#X connect 15 0 18 0;
#X connect 16 0 3 0;
#X connect 16 0 19 0;
#X connect 21 0 14 0;
#X connect 21 1 15 1;
#X restore 798 221 pd startAfterQuantifAndCheckLoop;
#X obj 1032 129 r \$0_is_loop_deleted;
#X msg 1033 148 0;
#X obj 818 204 bng 15 250 50 0 empty empty empty 17 7 0 10 -262144
-1 -1;
#X obj 1532 789 array size \$0_loop;
#X obj 1532 766 i 0;
#X msg 1532 745 600000;
#X obj 662 683 tabread4~ \$0_loop;
#X obj 662 656 *~ 44100;
#X obj 861 465 cnv 15 210 350 empty empty SAMPLER 20 12 0 9 -204217
-66577 0;
#N canvas 113 201 640 321 samplerfromloop 0;
#N canvas 495 50 774 619 samplefromloop 0;
#X obj 519 136 r \$0_loop_size;
#X floatatom 519 163 5 0 0 0 - - -, f 5;
#X obj 325 284 bng 15 250 50 0 empty empty empty 17 7 0 10 -262144
-1 -1;
#X obj 423 195 pow -1;
#X obj 424 168 / 60;
#X obj 516 248 * 1;
#X obj 386 603 *~;
#X obj 423 221 * 1;
#X msg 370 363 0;
#X obj 522 199 t b f;
#X obj 386 519 line~;
#X obj 325 326 t b b;
#X obj 455 285 * 1000;
#X floatatom 455 323 10 0 0 0 - - -, f 10;
#X obj 542 555 r \$0_timer;
#X floatatom 561 627 10 0 0 0 - - -, f 10;
#X obj 542 577 / 1000;
#X obj 424 138 extra/sv tempo;
#X obj 636 121 hradio 15 1 0 8 empty empty empty 0 -8 0 10 -262144
-1 -1 0;
#X obj 328 457 f 0;
#X obj 386 559 +~ 0;
#X msg 328 493 1 \$1;
#X obj 288 285 bng 15 250 50 0 empty empty empty 17 7 0 10 -262144
-1 -1;
#X obj 325 137 sel 0;
#X obj 629 515 * 0.125;
#X obj 386 647 *~ 44100;
#X obj 380 317 del 20;
#X floatatom 594 250 5 0 0 0 - - -, f 5;
#X obj 593 272 * 50;
#X obj 386 681 tabread4~ \$0_loop;
#X obj 207 621 line~;
#X obj 371 716 *~;
#X obj 371 763 outlet~;
#X msg 207 588 1 6;
#X msg 249 589 0 6;
#X text 169 570 start;
#X text 260 568 stop;
#X obj 410 50 unpack 0 0;
#X obj 410 22 inlet;
#X obj 594 223 r \$0_pitch_samplerfromloop;
#X connect 0 0 1 0;
#X connect 1 0 9 0;
#X connect 2 0 11 0;
#X connect 2 0 33 0;
#X connect 3 0 7 0;
#X connect 4 0 3 0;
#X connect 5 0 12 0;
#X connect 6 0 25 0;
#X connect 7 0 5 0;
#X connect 8 0 10 0;
#X connect 9 0 5 0;
#X connect 9 1 5 1;
#X connect 10 0 20 0;
#X connect 11 0 19 0;
#X connect 11 1 8 0;
#X connect 12 0 13 0;
#X connect 13 0 19 1;
#X connect 14 0 16 0;
#X connect 16 0 6 1;
#X connect 16 0 15 0;
#X connect 17 0 4 0;
#X connect 18 0 24 0;
#X connect 19 0 21 0;
#X connect 20 0 6 0;
#X connect 21 0 10 0;
#X connect 22 0 26 0;
#X connect 22 0 34 0;
#X connect 23 0 22 0;
#X connect 23 1 2 0;
#X connect 24 0 20 1;
#X connect 25 0 29 0;
#X connect 26 0 8 0;
#X connect 27 0 28 0;
#X connect 28 0 13 0;
#X connect 29 0 31 1;
#X connect 30 0 31 0;
#X connect 31 0 32 0;
#X connect 33 0 30 0;
#X connect 34 0 30 0;
#X connect 37 0 23 0;
#X connect 37 1 18 0;
#X connect 38 0 37 0;
#X connect 39 0 27 0;
#X restore 22 184 pd samplefromloop;
#X obj 269 15 notein;
#X obj 233 110 route 44 45 46 47 48 49 50 51;
#X obj 436 273 outlet~;
#X obj 265 66 pack 0 0;
#X obj 23 147 pack 0 0;
#X obj 136 150 pack 0 1;
#X obj 251 147 pack 0 2;
#X obj 368 147 pack 0 3;
#X obj 481 147 pack 0 4;
#X obj 609 76 s \$0_pitch_samplerfromloop;
#N canvas 495 50 774 619 samplefromloop 0;
#X obj 519 136 r \$0_loop_size;
#X floatatom 519 163 5 0 0 0 - - -, f 5;
#X obj 325 284 bng 15 250 50 0 empty empty empty 17 7 0 10 -262144
-1 -1;
#X obj 423 195 pow -1;
#X obj 424 168 / 60;
#X obj 516 248 * 1;
#X obj 386 603 *~;
#X obj 423 221 * 1;
#X msg 370 363 0;
#X obj 522 199 t b f;
#X obj 386 519 line~;
#X obj 325 326 t b b;
#X obj 455 285 * 1000;
#X floatatom 455 323 10 0 0 0 - - -, f 10;
#X obj 542 555 r \$0_timer;
#X floatatom 561 627 10 0 0 0 - - -, f 10;
#X obj 542 577 / 1000;
#X obj 424 138 extra/sv tempo;
#X obj 636 121 hradio 15 1 0 8 empty empty empty 0 -8 0 10 -262144
-1 -1 0;
#X obj 328 457 f 0;
#X obj 386 559 +~ 0;
#X msg 328 493 1 \$1;
#X obj 288 285 bng 15 250 50 0 empty empty empty 17 7 0 10 -262144
-1 -1;
#X obj 325 137 sel 0;
#X obj 629 515 * 0.125;
#X obj 386 647 *~ 44100;
#X obj 380 317 del 20;
#X floatatom 594 250 5 0 0 0 - - -, f 5;
#X obj 593 272 * 50;
#X obj 386 681 tabread4~ \$0_loop;
#X obj 207 621 line~;
#X obj 371 716 *~;
#X obj 371 763 outlet~;
#X msg 207 588 1 6;
#X msg 249 589 0 6;
#X text 169 570 start;
#X text 260 568 stop;
#X obj 410 50 unpack 0 0;
#X obj 410 22 inlet;
#X obj 594 223 r \$0_pitch_samplerfromloop;
#X connect 0 0 1 0;
#X connect 1 0 9 0;
#X connect 2 0 11 0;
#X connect 2 0 33 0;
#X connect 3 0 7 0;
#X connect 4 0 3 0;
#X connect 5 0 12 0;
#X connect 6 0 25 0;
#X connect 7 0 5 0;
#X connect 8 0 10 0;
#X connect 9 0 5 0;
#X connect 9 1 5 1;
#X connect 10 0 20 0;
#X connect 11 0 19 0;
#X connect 11 1 8 0;
#X connect 12 0 13 0;
#X connect 13 0 19 1;
#X connect 14 0 16 0;
#X connect 16 0 6 1;
#X connect 16 0 15 0;
#X connect 17 0 4 0;
#X connect 18 0 24 0;
#X connect 19 0 21 0;
#X connect 20 0 6 0;
#X connect 21 0 10 0;
#X connect 22 0 26 0;
#X connect 22 0 34 0;
#X connect 23 0 22 0;
#X connect 23 1 2 0;
#X connect 24 0 20 1;
#X connect 25 0 29 0;
#X connect 26 0 8 0;
#X connect 27 0 28 0;
#X connect 28 0 13 0;
#X connect 29 0 31 1;
#X connect 30 0 31 0;
#X connect 31 0 32 0;
#X connect 33 0 30 0;
#X connect 34 0 30 0;
#X connect 37 0 23 0;
#X connect 37 1 18 0;
#X connect 38 0 37 0;
#X connect 39 0 27 0;
#X restore 134 184 pd samplefromloop;
#N canvas 495 50 774 619 samplefromloop 0;
#X obj 519 136 r \$0_loop_size;
#X floatatom 519 163 5 0 0 0 - - -, f 5;
#X obj 325 284 bng 15 250 50 0 empty empty empty 17 7 0 10 -262144
-1 -1;
#X obj 423 195 pow -1;
#X obj 424 168 / 60;
#X obj 516 248 * 1;
#X obj 386 603 *~;
#X obj 423 221 * 1;
#X msg 370 363 0;
#X obj 522 199 t b f;
#X obj 386 519 line~;
#X obj 325 326 t b b;
#X obj 455 285 * 1000;
#X floatatom 455 323 10 0 0 0 - - -, f 10;
#X obj 542 555 r \$0_timer;
#X floatatom 561 627 10 0 0 0 - - -, f 10;
#X obj 542 577 / 1000;
#X obj 424 138 extra/sv tempo;
#X obj 636 121 hradio 15 1 0 8 empty empty empty 0 -8 0 10 -262144
-1 -1 0;
#X obj 328 457 f 0;
#X obj 386 559 +~ 0;
#X msg 328 493 1 \$1;
#X obj 288 285 bng 15 250 50 0 empty empty empty 17 7 0 10 -262144
-1 -1;
#X obj 325 137 sel 0;
#X obj 629 515 * 0.125;
#X obj 386 647 *~ 44100;
#X obj 380 317 del 20;
#X floatatom 594 250 5 0 0 0 - - -, f 5;
#X obj 593 272 * 50;
#X obj 386 681 tabread4~ \$0_loop;
#X obj 207 621 line~;
#X obj 371 716 *~;
#X obj 371 763 outlet~;
#X msg 207 588 1 6;
#X msg 249 589 0 6;
#X text 169 570 start;
#X text 260 568 stop;
#X obj 410 50 unpack 0 0;
#X obj 410 22 inlet;
#X obj 594 223 r \$0_pitch_samplerfromloop;
#X connect 0 0 1 0;
#X connect 1 0 9 0;
#X connect 2 0 11 0;
#X connect 2 0 33 0;
#X connect 3 0 7 0;
#X connect 4 0 3 0;
#X connect 5 0 12 0;
#X connect 6 0 25 0;
#X connect 7 0 5 0;
#X connect 8 0 10 0;
#X connect 9 0 5 0;
#X connect 9 1 5 1;
#X connect 10 0 20 0;
#X connect 11 0 19 0;
#X connect 11 1 8 0;
#X connect 12 0 13 0;
#X connect 13 0 19 1;
#X connect 14 0 16 0;
#X connect 16 0 6 1;
#X connect 16 0 15 0;
#X connect 17 0 4 0;
#X connect 18 0 24 0;
#X connect 19 0 21 0;
#X connect 20 0 6 0;
#X connect 21 0 10 0;
#X connect 22 0 26 0;
#X connect 22 0 34 0;
#X connect 23 0 22 0;
#X connect 23 1 2 0;
#X connect 24 0 20 1;
#X connect 25 0 29 0;
#X connect 26 0 8 0;
#X connect 27 0 28 0;
#X connect 28 0 13 0;
#X connect 29 0 31 1;
#X connect 30 0 31 0;
#X connect 31 0 32 0;
#X connect 33 0 30 0;
#X connect 34 0 30 0;
#X connect 37 0 23 0;
#X connect 37 1 18 0;
#X connect 38 0 37 0;
#X connect 39 0 27 0;
#X restore 247 185 pd samplefromloop;
#N canvas 495 50 774 619 samplefromloop 0;
#X obj 519 136 r \$0_loop_size;
#X floatatom 519 163 5 0 0 0 - - -, f 5;
#X obj 325 284 bng 15 250 50 0 empty empty empty 17 7 0 10 -262144
-1 -1;
#X obj 423 195 pow -1;
#X obj 424 168 / 60;
#X obj 516 248 * 1;
#X obj 386 603 *~;
#X obj 423 221 * 1;
#X msg 370 363 0;
#X obj 522 199 t b f;
#X obj 386 519 line~;
#X obj 325 326 t b b;
#X obj 455 285 * 1000;
#X floatatom 455 323 10 0 0 0 - - -, f 10;
#X obj 542 555 r \$0_timer;
#X floatatom 561 627 10 0 0 0 - - -, f 10;
#X obj 542 577 / 1000;
#X obj 424 138 extra/sv tempo;
#X obj 636 121 hradio 15 1 0 8 empty empty empty 0 -8 0 10 -262144
-1 -1 0;
#X obj 328 457 f 0;
#X obj 386 559 +~ 0;
#X msg 328 493 1 \$1;
#X obj 288 285 bng 15 250 50 0 empty empty empty 17 7 0 10 -262144
-1 -1;
#X obj 325 137 sel 0;
#X obj 629 515 * 0.125;
#X obj 386 647 *~ 44100;
#X obj 380 317 del 20;
#X floatatom 594 250 5 0 0 0 - - -, f 5;
#X obj 593 272 * 50;
#X obj 386 681 tabread4~ \$0_loop;
#X obj 207 621 line~;
#X obj 371 716 *~;
#X obj 371 763 outlet~;
#X msg 207 588 1 6;
#X msg 249 589 0 6;
#X text 169 570 start;
#X text 260 568 stop;
#X obj 410 50 unpack 0 0;
#X obj 410 22 inlet;
#X obj 594 223 r \$0_pitch_samplerfromloop;
#X connect 0 0 1 0;
#X connect 1 0 9 0;
#X connect 2 0 11 0;
#X connect 2 0 33 0;
#X connect 3 0 7 0;
#X connect 4 0 3 0;
#X connect 5 0 12 0;
#X connect 6 0 25 0;
#X connect 7 0 5 0;
#X connect 8 0 10 0;
#X connect 9 0 5 0;
#X connect 9 1 5 1;
#X connect 10 0 20 0;
#X connect 11 0 19 0;
#X connect 11 1 8 0;
#X connect 12 0 13 0;
#X connect 13 0 19 1;
#X connect 14 0 16 0;
#X connect 16 0 6 1;
#X connect 16 0 15 0;
#X connect 17 0 4 0;
#X connect 18 0 24 0;
#X connect 19 0 21 0;
#X connect 20 0 6 0;
#X connect 21 0 10 0;
#X connect 22 0 26 0;
#X connect 22 0 34 0;
#X connect 23 0 22 0;
#X connect 23 1 2 0;
#X connect 24 0 20 1;
#X connect 25 0 29 0;
#X connect 26 0 8 0;
#X connect 27 0 28 0;
#X connect 28 0 13 0;
#X connect 29 0 31 1;
#X connect 30 0 31 0;
#X connect 31 0 32 0;
#X connect 33 0 30 0;
#X connect 34 0 30 0;
#X connect 37 0 23 0;
#X connect 37 1 18 0;
#X connect 38 0 37 0;
#X connect 39 0 27 0;
#X restore 363 184 pd samplefromloop;
#N canvas 495 50 774 619 samplefromloop 0;
#X obj 519 136 r \$0_loop_size;
#X floatatom 519 163 5 0 0 0 - - -, f 5;
#X obj 325 284 bng 15 250 50 0 empty empty empty 17 7 0 10 -262144
-1 -1;
#X obj 423 195 pow -1;
#X obj 424 168 / 60;
#X obj 516 248 * 1;
#X obj 386 603 *~;
#X obj 423 221 * 1;
#X msg 370 363 0;
#X obj 522 199 t b f;
#X obj 386 519 line~;
#X obj 325 326 t b b;
#X obj 455 285 * 1000;
#X floatatom 455 323 10 0 0 0 - - -, f 10;
#X obj 542 555 r \$0_timer;
#X floatatom 561 627 10 0 0 0 - - -, f 10;
#X obj 542 577 / 1000;
#X obj 424 138 extra/sv tempo;
#X obj 636 121 hradio 15 1 0 8 empty empty empty 0 -8 0 10 -262144
-1 -1 0;
#X obj 328 457 f 0;
#X obj 386 559 +~ 0;
#X msg 328 493 1 \$1;
#X obj 288 285 bng 15 250 50 0 empty empty empty 17 7 0 10 -262144
-1 -1;
#X obj 325 137 sel 0;
#X obj 629 515 * 0.125;
#X obj 386 647 *~ 44100;
#X obj 380 317 del 20;
#X floatatom 594 250 5 0 0 0 - - -, f 5;
#X obj 593 272 * 50;
#X obj 386 681 tabread4~ \$0_loop;
#X obj 207 621 line~;
#X obj 371 716 *~;
#X obj 371 763 outlet~;
#X msg 207 588 1 6;
#X msg 249 589 0 6;
#X text 169 570 start;
#X text 260 568 stop;
#X obj 410 50 unpack 0 0;
#X obj 410 22 inlet;
#X obj 594 223 r \$0_pitch_samplerfromloop;
#X connect 0 0 1 0;
#X connect 1 0 9 0;
#X connect 2 0 11 0;
#X connect 2 0 33 0;
#X connect 3 0 7 0;
#X connect 4 0 3 0;
#X connect 5 0 12 0;
#X connect 6 0 25 0;
#X connect 7 0 5 0;
#X connect 8 0 10 0;
#X connect 9 0 5 0;
#X connect 9 1 5 1;
#X connect 10 0 20 0;
#X connect 11 0 19 0;
#X connect 11 1 8 0;
#X connect 12 0 13 0;
#X connect 13 0 19 1;
#X connect 14 0 16 0;
#X connect 16 0 6 1;
#X connect 16 0 15 0;
#X connect 17 0 4 0;
#X connect 18 0 24 0;
#X connect 19 0 21 0;
#X connect 20 0 6 0;
#X connect 21 0 10 0;
#X connect 22 0 26 0;
#X connect 22 0 34 0;
#X connect 23 0 22 0;
#X connect 23 1 2 0;
#X connect 24 0 20 1;
#X connect 25 0 29 0;
#X connect 26 0 8 0;
#X connect 27 0 28 0;
#X connect 28 0 13 0;
#X connect 29 0 31 1;
#X connect 30 0 31 0;
#X connect 31 0 32 0;
#X connect 33 0 30 0;
#X connect 34 0 30 0;
#X connect 37 0 23 0;
#X connect 37 1 18 0;
#X connect 38 0 37 0;
#X connect 39 0 27 0;
#X restore 475 184 pd samplefromloop;
#N canvas 495 50 774 619 samplefromloop 0;
#X obj 519 136 r \$0_loop_size;
#X floatatom 519 163 5 0 0 0 - - -, f 5;
#X obj 325 284 bng 15 250 50 0 empty empty empty 17 7 0 10 -262144
-1 -1;
#X obj 423 195 pow -1;
#X obj 424 168 / 60;
#X obj 516 248 * 1;
#X obj 386 603 *~;
#X obj 423 221 * 1;
#X msg 370 363 0;
#X obj 522 199 t b f;
#X obj 386 519 line~;
#X obj 325 326 t b b;
#X obj 455 285 * 1000;
#X floatatom 455 323 10 0 0 0 - - -, f 10;
#X obj 542 555 r \$0_timer;
#X floatatom 561 627 10 0 0 0 - - -, f 10;
#X obj 542 577 / 1000;
#X obj 424 138 extra/sv tempo;
#X obj 636 121 hradio 15 1 0 8 empty empty empty 0 -8 0 10 -262144
-1 -1 0;
#X obj 328 457 f 0;
#X obj 386 559 +~ 0;
#X msg 328 493 1 \$1;
#X obj 288 285 bng 15 250 50 0 empty empty empty 17 7 0 10 -262144
-1 -1;
#X obj 325 137 sel 0;
#X obj 629 515 * 0.125;
#X obj 386 647 *~ 44100;
#X obj 380 317 del 20;
#X floatatom 594 250 5 0 0 0 - - -, f 5;
#X obj 593 272 * 50;
#X obj 386 681 tabread4~ \$0_loop;
#X obj 207 621 line~;
#X obj 371 716 *~;
#X obj 371 763 outlet~;
#X msg 207 588 1 6;
#X msg 249 589 0 6;
#X text 169 570 start;
#X text 260 568 stop;
#X obj 410 50 unpack 0 0;
#X obj 410 22 inlet;
#X obj 594 223 r \$0_pitch_samplerfromloop;
#X connect 0 0 1 0;
#X connect 1 0 9 0;
#X connect 2 0 11 0;
#X connect 2 0 33 0;
#X connect 3 0 7 0;
#X connect 4 0 3 0;
#X connect 5 0 12 0;
#X connect 6 0 25 0;
#X connect 7 0 5 0;
#X connect 8 0 10 0;
#X connect 9 0 5 0;
#X connect 9 1 5 1;
#X connect 10 0 20 0;
#X connect 11 0 19 0;
#X connect 11 1 8 0;
#X connect 12 0 13 0;
#X connect 13 0 19 1;
#X connect 14 0 16 0;
#X connect 16 0 6 1;
#X connect 16 0 15 0;
#X connect 17 0 4 0;
#X connect 18 0 24 0;
#X connect 19 0 21 0;
#X connect 20 0 6 0;
#X connect 21 0 10 0;
#X connect 22 0 26 0;
#X connect 22 0 34 0;
#X connect 23 0 22 0;
#X connect 23 1 2 0;
#X connect 24 0 20 1;
#X connect 25 0 29 0;
#X connect 26 0 8 0;
#X connect 27 0 28 0;
#X connect 28 0 13 0;
#X connect 29 0 31 1;
#X connect 30 0 31 0;
#X connect 31 0 32 0;
#X connect 33 0 30 0;
#X connect 34 0 30 0;
#X connect 37 0 23 0;
#X connect 37 1 18 0;
#X connect 38 0 37 0;
#X connect 39 0 27 0;
#X restore 588 185 pd samplefromloop;
#N canvas 495 50 774 619 samplefromloop 0;
#X obj 519 136 r \$0_loop_size;
#X floatatom 519 163 5 0 0 0 - - -, f 5;
#X obj 325 284 bng 15 250 50 0 empty empty empty 17 7 0 10 -262144
-1 -1;
#X obj 423 195 pow -1;
#X obj 424 168 / 60;
#X obj 516 248 * 1;
#X obj 386 603 *~;
#X obj 423 221 * 1;
#X msg 370 363 0;
#X obj 522 199 t b f;
#X obj 386 519 line~;
#X obj 325 326 t b b;
#X obj 455 285 * 1000;
#X floatatom 455 323 10 0 0 0 - - -, f 10;
#X obj 542 555 r \$0_timer;
#X floatatom 561 627 10 0 0 0 - - -, f 10;
#X obj 542 577 / 1000;
#X obj 424 138 extra/sv tempo;
#X obj 636 121 hradio 15 1 0 8 empty empty empty 0 -8 0 10 -262144
-1 -1 0;
#X obj 328 457 f 0;
#X obj 386 559 +~ 0;
#X msg 328 493 1 \$1;
#X obj 288 285 bng 15 250 50 0 empty empty empty 17 7 0 10 -262144
-1 -1;
#X obj 325 137 sel 0;
#X obj 629 515 * 0.125;
#X obj 386 647 *~ 44100;
#X obj 380 317 del 20;
#X floatatom 594 250 5 0 0 0 - - -, f 5;
#X obj 593 272 * 50;
#X obj 386 681 tabread4~ \$0_loop;
#X obj 207 621 line~;
#X obj 371 716 *~;
#X obj 371 763 outlet~;
#X msg 207 588 1 6;
#X msg 249 589 0 6;
#X text 169 570 start;
#X text 260 568 stop;
#X obj 410 50 unpack 0 0;
#X obj 410 22 inlet;
#X obj 594 223 r \$0_pitch_samplerfromloop;
#X connect 0 0 1 0;
#X connect 1 0 9 0;
#X connect 2 0 11 0;
#X connect 2 0 33 0;
#X connect 3 0 7 0;
#X connect 4 0 3 0;
#X connect 5 0 12 0;
#X connect 6 0 25 0;
#X connect 7 0 5 0;
#X connect 8 0 10 0;
#X connect 9 0 5 0;
#X connect 9 1 5 1;
#X connect 10 0 20 0;
#X connect 11 0 19 0;
#X connect 11 1 8 0;
#X connect 12 0 13 0;
#X connect 13 0 19 1;
#X connect 14 0 16 0;
#X connect 16 0 6 1;
#X connect 16 0 15 0;
#X connect 17 0 4 0;
#X connect 18 0 24 0;
#X connect 19 0 21 0;
#X connect 20 0 6 0;
#X connect 21 0 10 0;
#X connect 22 0 26 0;
#X connect 22 0 34 0;
#X connect 23 0 22 0;
#X connect 23 1 2 0;
#X connect 24 0 20 1;
#X connect 25 0 29 0;
#X connect 26 0 8 0;
#X connect 27 0 28 0;
#X connect 28 0 13 0;
#X connect 29 0 31 1;
#X connect 30 0 31 0;
#X connect 31 0 32 0;
#X connect 33 0 30 0;
#X connect 34 0 30 0;
#X connect 37 0 23 0;
#X connect 37 1 18 0;
#X connect 38 0 37 0;
#X connect 39 0 27 0;
#X restore 705 185 pd samplefromloop;
#N canvas 495 50 774 619 samplefromloop 0;
#X obj 519 136 r \$0_loop_size;
#X floatatom 519 163 5 0 0 0 - - -, f 5;
#X obj 325 284 bng 15 250 50 0 empty empty empty 17 7 0 10 -262144
-1 -1;
#X obj 423 195 pow -1;
#X obj 424 168 / 60;
#X obj 516 248 * 1;
#X obj 386 603 *~;
#X obj 423 221 * 1;
#X msg 370 363 0;
#X obj 522 199 t b f;
#X obj 386 519 line~;
#X obj 325 326 t b b;
#X obj 455 285 * 1000;
#X floatatom 455 323 10 0 0 0 - - -, f 10;
#X obj 542 555 r \$0_timer;
#X floatatom 561 627 10 0 0 0 - - -, f 10;
#X obj 542 577 / 1000;
#X obj 424 138 extra/sv tempo;
#X obj 636 121 hradio 15 1 0 8 empty empty empty 0 -8 0 10 -262144
-1 -1 0;
#X obj 328 457 f 0;
#X obj 386 559 +~ 0;
#X msg 328 493 1 \$1;
#X obj 288 285 bng 15 250 50 0 empty empty empty 17 7 0 10 -262144
-1 -1;
#X obj 325 137 sel 0;
#X obj 629 515 * 0.125;
#X obj 386 647 *~ 44100;
#X obj 380 317 del 20;
#X floatatom 594 250 5 0 0 0 - - -, f 5;
#X obj 593 272 * 50;
#X obj 386 681 tabread4~ \$0_loop;
#X obj 207 621 line~;
#X obj 371 716 *~;
#X obj 371 763 outlet~;
#X msg 207 588 1 6;
#X msg 249 589 0 6;
#X text 169 570 start;
#X text 260 568 stop;
#X obj 410 50 unpack 0 0;
#X obj 410 22 inlet;
#X obj 594 223 r \$0_pitch_samplerfromloop;
#X connect 0 0 1 0;
#X connect 1 0 9 0;
#X connect 2 0 11 0;
#X connect 2 0 33 0;
#X connect 3 0 7 0;
#X connect 4 0 3 0;
#X connect 5 0 12 0;
#X connect 6 0 25 0;
#X connect 7 0 5 0;
#X connect 8 0 10 0;
#X connect 9 0 5 0;
#X connect 9 1 5 1;
#X connect 10 0 20 0;
#X connect 11 0 19 0;
#X connect 11 1 8 0;
#X connect 12 0 13 0;
#X connect 13 0 19 1;
#X connect 14 0 16 0;
#X connect 16 0 6 1;
#X connect 16 0 15 0;
#X connect 17 0 4 0;
#X connect 18 0 24 0;
#X connect 19 0 21 0;
#X connect 20 0 6 0;
#X connect 21 0 10 0;
#X connect 22 0 26 0;
#X connect 22 0 34 0;
#X connect 23 0 22 0;
#X connect 23 1 2 0;
#X connect 24 0 20 1;
#X connect 25 0 29 0;
#X connect 26 0 8 0;
#X connect 27 0 28 0;
#X connect 28 0 13 0;
#X connect 29 0 31 1;
#X connect 30 0 31 0;
#X connect 31 0 32 0;
#X connect 33 0 30 0;
#X connect 34 0 30 0;
#X connect 37 0 23 0;
#X connect 37 1 18 0;
#X connect 38 0 37 0;
#X connect 39 0 27 0;
#X restore 818 186 pd samplefromloop;
#X obj 596 147 pack 0 5;
#X obj 705 147 pack 0 6;
#X obj 822 148 pack 0 7;
#X obj 612 11 ctlin;
#X floatatom 633 52 5 0 0 0 - - -, f 5;
#X connect 0 0 3 0;
#X connect 1 0 4 0;
#X connect 1 1 4 1;
#X connect 2 0 5 0;
#X connect 2 1 6 0;
#X connect 2 2 7 0;
#X connect 2 3 8 0;
#X connect 2 4 9 0;
#X connect 2 5 18 0;
#X connect 2 6 19 0;
#X connect 2 7 20 0;
#X connect 4 0 2 0;
#X connect 5 0 0 0;
#X connect 6 0 11 0;
#X connect 7 0 12 0;
#X connect 8 0 13 0;
#X connect 9 0 14 0;
#X connect 11 0 3 0;
#X connect 12 0 3 0;
#X connect 13 0 3 0;
#X connect 14 0 3 0;
#X connect 15 0 3 0;
#X connect 16 0 3 0;
#X connect 17 0 3 0;
#X connect 18 0 15 0;
#X connect 19 0 16 0;
#X connect 20 0 17 0;
#X connect 21 0 22 0;
#X connect 22 0 10 0;
#X restore 879 678 pd samplerfromloop;
#X obj 455 -49 extra/sv module_selected;
#X obj 455 -26 == \$1;
#X obj 422 1 spigot;
#X obj 422 -69 extra/sv global_rec;
#X obj 895 -49 extra/sv module_selected;
#X obj 895 -26 == \$1;
#X obj 862 1 spigot;
#X obj 862 -69 extra/sv global_play;
#X obj 217 -8 declare -path ../;
#X obj 662 746 mixer \$1_\$2_looper;
#X obj 693 774 outlet~;
#X obj 743 774 outlet~;
#X obj 793 774 outlet~;
#X obj -186 465 cnv 15 280 350 empty empty write_first_loop 20 12 0
9 -212539 -66577 0;
#X msg -103 571 stop;
#X msg -159 595 start;
#X text -169 730 TEMPO;
#X obj -178 687 bng 15 250 50 0 empty empty empty 17 7 0 10 -262144
-1 -1;
#X obj -103 687 bng 15 250 50 0 empty empty empty 17 7 0 10 -262144
-1 -1;
#X obj -43 646 r~ \$0-input;
#N canvas 198 131 775 579 toTempo-ui 0;
#X obj 96 301 timer;
#X obj 133 326 s \$0_timer;
#X floatatom 69 414 5 0 0 0 - - -, f 5;
#X obj 42 785 /;
#X obj 123 462 log;
#X obj 123 551 i;
#X obj 123 501 / 0.693147;
#X floatatom 123 528 5 0 0 0 - - -, f 5;
#X floatatom 123 582 5 0 0 0 - - -, f 5;
#X obj 114 668 pow;
#X msg 102 640 2;
#X floatatom 114 693 5 0 0 0 - - -, f 5;
#X obj 115 741 s \$0_loop_size;
#X obj 102 607 t b f;
#X obj 65 852 s tempoValue;
#X floatatom 213 318 10 0 0 0 - - -, f 10;
#X obj 96 167 inlet;
#X obj 128 189 inlet;
#X obj 69 385 / 380;
#X obj 257 845 s \$0_loop_tempo;
#X text 113 829 non \, la fausse valeur;
#X obj 317 709 cnv 15 100 60 empty empty empty 20 12 0 14 -233017 -66577
0;
#X text 323 714 really important;
#X text 322 734 set qantif from 1s loop;
#X msg 254 184 1;
#X msg 254 206 0;
#X obj 181 253 extra/sv \$1_\$2_is_loop_recording;
#X obj 203 445 array size \$0_loop;
#X obj 203 421 i 0;
#X obj 203 401 * 44.1;
#X obj 42 348 t f f f;
#X obj 145 721 extra/sv quantif_global;
#X text 204 382 This create a CLICK on RPI;
#X obj 42 828 t b f f;
#X connect 0 0 1 0;
#X connect 0 0 15 0;
#X connect 0 0 30 0;
#X connect 2 0 4 0;
#X connect 3 0 33 0;
#X connect 4 0 6 0;
#X connect 5 0 8 0;
#X connect 6 0 7 0;
#X connect 7 0 5 0;
#X connect 8 0 13 0;
#X connect 9 0 11 0;
#X connect 10 0 9 0;
#X connect 11 0 3 1;
#X connect 11 0 12 0;
#X connect 11 0 31 1;
#X connect 13 0 10 0;
#X connect 13 1 9 1;
#X connect 16 0 0 0;
#X connect 16 0 24 0;
#X connect 17 0 0 1;
#X connect 17 0 25 0;
#X connect 18 0 2 0;
#X connect 24 0 26 1;
#X connect 25 0 26 1;
#X connect 28 0 27 0;
#X connect 29 0 28 0;
#X connect 30 0 3 0;
#X connect 30 1 18 0;
#X connect 33 1 14 0;
#X connect 33 2 19 0;
#X restore -178 707 pd toTempo-ui;
#X obj -137 497 r \$0_realstart_first;
#X obj -64 670 tabwrite~ \$0_loop;
#X obj -103 549 bng 15 250 50 0 empty empty empty 17 7 0 10 -262144
-1 -1;
#X obj -158 550 bng 15 250 50 0 empty empty empty 17 7 0 10 -262144
-1 -1;
#X obj -138 520 sel 1 0;
#X obj -103 591 t b b a;
#X msg -84 747 1;
#X obj -145 786 extra/sv \$1_\$2_is_loop_recorded;
#X obj 149 497 r \$0_realstart_first_with_tempo;
#X obj 455 515 sel 1 0;
#X obj 394 553 bng 15 250 50 0 empty empty empty 17 7 0 10 -262144
-1 -1;
#X obj 442 553 bng 15 250 50 0 empty empty empty 17 7 0 10 -262144
-1 -1;
#X obj 581 551 tgl 15 0 empty empty empty 17 7 0 10 -262144 -1 -1 0
1;
#X obj 469 551 r \$0_loop_start;
#X obj 542 584 spigot;
#X obj 542 609 t b b;
#X msg 510 640 start;
#X msg 558 640 stop;
#X obj 484 219 extra/sv \$1_\$2_recloop_slider;
#X obj 1500 700 r bigReset;
#X obj 1500 721 t b b;
#X obj 592 362 r \$0_loop_size;
#X obj 479 362 r \$0_loop_tempo;
#X floatatom 593 391 5 0 0 0 - - -, f 5;
#X floatatom 477 391 5 0 0 0 - - -, f 5;
#X connect 1 0 39 0;
#X connect 3 0 48 0;
#X connect 4 0 6 0;
#X connect 4 0 10 0;
#X connect 6 0 9 0;
#X connect 7 0 9 1;
#X connect 8 0 10 0;
#X connect 11 0 12 0;
#X connect 14 0 18 0;
#X connect 14 0 20 0;
#X connect 15 0 18 1;
#X connect 15 0 20 0;
#X connect 16 0 17 0;
#X connect 17 0 20 0;
#X connect 19 0 125 0;
#X connect 19 0 128 0;
#X connect 22 0 92 0;
#X connect 23 0 17 1;
#X connect 23 0 104 0;
#X connect 24 0 40 0;
#X connect 25 0 22 1;
#X connect 26 0 25 0;
#X connect 26 0 47 0;
#X connect 27 0 3 0;
#X connect 28 0 4 0;
#X connect 29 0 22 0;
#X connect 30 0 28 0;
#X connect 30 1 27 0;
#X connect 36 0 53 0;
#X connect 37 0 38 0;
#X connect 38 0 52 1;
#X connect 39 1 58 0;
#X connect 40 0 36 0;
#X connect 40 1 41 0;
#X connect 43 0 42 0;
#X connect 45 0 44 0;
#X connect 48 0 7 0;
#X connect 48 1 50 0;
#X connect 48 2 10 0;
#X connect 49 0 44 1;
#X connect 50 0 54 1;
#X connect 51 0 31 0;
#X connect 51 0 57 0;
#X connect 52 0 25 1;
#X connect 52 0 83 0;
#X connect 53 0 84 0;
#X connect 53 0 59 0;
#X connect 53 0 87 0;
#X connect 58 0 51 0;
#X connect 60 0 52 1;
#X connect 61 0 62 0;
#X connect 62 0 63 1;
#X connect 63 0 64 0;
#X connect 66 0 73 0;
#X connect 68 0 74 0;
#X connect 69 0 66 0;
#X connect 70 0 71 0;
#X connect 73 0 76 1;
#X connect 75 0 67 0;
#X connect 75 0 72 0;
#X connect 75 0 68 0;
#X connect 76 0 75 0;
#X connect 77 0 78 0;
#X connect 80 0 79 0;
#X connect 84 0 60 0;
#X connect 85 0 86 0;
#X connect 86 0 53 3;
#X connect 89 0 88 0;
#X connect 90 0 89 0;
#X connect 91 0 23 0;
#X connect 92 0 91 0;
#X connect 95 0 96 0;
#X connect 96 0 97 1;
#X connect 97 0 39 0;
#X connect 98 0 97 0;
#X connect 99 0 100 0;
#X connect 100 0 101 1;
#X connect 101 0 40 0;
#X connect 102 0 101 0;
#X connect 104 1 105 0;
#X connect 104 2 106 0;
#X connect 104 3 107 0;
#X connect 109 0 121 0;
#X connect 110 0 112 0;
#X connect 110 0 117 0;
#X connect 112 0 115 0;
#X connect 113 0 115 1;
#X connect 114 0 117 0;
#X connect 116 0 120 0;
#X connect 118 0 109 0;
#X connect 119 0 110 0;
#X connect 120 0 119 0;
#X connect 120 1 118 0;
#X connect 121 0 113 0;
#X connect 121 1 122 0;
#X connect 121 2 117 0;
#X connect 122 0 123 1;
#X connect 124 0 30 0;
#X connect 125 0 126 0;
#X connect 125 1 127 0;
#X connect 126 0 14 0;
#X connect 127 0 15 0;
#X connect 128 0 130 1;
#X connect 129 0 130 0;
#X connect 130 0 131 0;
#X connect 131 0 132 0;
#X connect 131 1 133 0;
#X connect 132 0 20 0;
#X connect 133 0 20 0;
#X connect 134 0 35 0;
#X connect 135 0 136 0;
#X connect 136 0 70 0;
#X connect 136 1 90 0;
#X connect 137 0 139 0;
#X connect 138 0 140 0;
