#N canvas 2210 260 1032 645 10;
#X obj 163 54 inlet;
#X obj 203 54 inlet;
#X obj 243 54 inlet;
#X obj 283 54 inlet;
#X obj 703 -172 inlet;
#X obj 932 -192 loadbang;
#X msg 932 -171 0;
#X obj 7 59 inlet~;
#X text -7 29 sound input for recording;
#N canvas 431 60 610 360 recmode 0;
#X obj 364 14 inlet;
#X obj 566 118 extra/sv \$1_readsound_1_recmode;
#X obj 493 137 extra/sv \$1_readsound_2_recmode;
#X obj 420 156 extra/sv \$1_readsound_3_recmode;
#X obj 347 175 extra/sv \$1_readsound_4_recmode;
#X obj 276 195 extra/sv \$1_readsound_5_recmode;
#X obj 203 214 extra/sv \$1_readsound_6_recmode;
#X obj 130 233 extra/sv \$1_readsound_7_recmode;
#X obj 57 252 extra/sv \$1_readsound_8_recmode;
#X connect 0 0 8 1;
#X connect 0 0 7 1;
#X connect 0 0 6 1;
#X connect 0 0 5 1;
#X connect 0 0 4 1;
#X connect 0 0 3 1;
#X connect 0 0 2 1;
#X connect 0 0 1 1;
#X restore 703 -108 pd recmode;
#X obj 327 54 inlet;
#X obj 367 54 inlet;
#X obj 407 54 inlet;
#X obj 447 54 inlet;
#N canvas 2052 277 1048 526 filesManagement 0;
#X obj 75 98 extra/sv \$1_sampler8_bank;
#X text 369 152 LOAD FILES FROM A BANK;
#X obj 164 260 s 1_1_loop_open;
#X obj 380 257 s 2_1_loop_open;
#X obj 590 262 s 3_1_loop_open;
#X obj 808 256 s 4_1_loop_open;
#X obj 170 335 s 5_1_loop_open;
#X obj 385 334 s 6_1_loop_open;
#X obj 599 333 s 7_1_loop_open;
#X obj 814 329 s 8_1_loop_open;
#X obj 174 44 inlet;
#X obj 230 68 s get_samples_location;
#X obj 258 45 i \$0;
#X obj 240 99 r samples_location-\$0;
#X obj 108 266 print;
#X obj 330 48 bng 15 250 50 0 empty empty empty 17 7 0 10 -262144 -1
-1;
#X obj 256 18 bng 15 250 50 0 empty empty empty 17 7 0 10 -262144 -1
-1;
#X obj 164 186 pack f s;
#X msg 164 224 \$2/\$1/1.wav;
#X msg 97 44 1;
#X obj 250 139 symbol;
#X msg 170 299 \$2/\$1/5.wav;
#X msg 379 223 \$2/\$1/2.wav;
#X msg 589 224 \$2/\$1/3.wav;
#X msg 809 224 \$2/\$1/4.wav;
#X msg 383 298 \$2/\$1/6.wav;
#X msg 594 298 \$2/\$1/7.wav;
#X msg 814 299 \$2/\$1/8.wav;
#X connect 0 0 17 0;
#X connect 10 0 0 1;
#X connect 12 0 11 0;
#X connect 13 0 20 0;
#X connect 16 0 12 0;
#X connect 17 0 18 0;
#X connect 17 0 25 0;
#X connect 17 0 26 0;
#X connect 17 0 27 0;
#X connect 17 0 22 0;
#X connect 17 0 23 0;
#X connect 17 0 24 0;
#X connect 17 0 21 0;
#X connect 18 0 2 0;
#X connect 18 0 14 0;
#X connect 19 0 0 1;
#X connect 20 0 17 1;
#X connect 21 0 6 0;
#X connect 22 0 3 0;
#X connect 23 0 4 0;
#X connect 24 0 5 0;
#X connect 25 0 7 0;
#X connect 26 0 8 0;
#X connect 27 0 9 0;
#X restore 810 -11 pd filesManagement;
#N canvas 209 168 728 500 init 0;
#X obj 77 104 extra/sv \$1_sampler8_recmode;
#X obj 149 4 loadbang;
#X obj 271 103 extra/sv \$1_sampler8_bank;
#X floatatom 259 207 5 0 0 0 - - -;
#X obj 278 129 bng 15 250 50 0 empty empty empty 17 7 0 10 -262144
-1 -1;
#X msg 155 47 0;
#X obj 635 104 s globalPitch;
#X floatatom 635 79 5 0 0 0 - - -;
#X msg 641 49 44;
#X msg 457 55 123;
#X obj 440 104 extra/svsave \$1_sampler_volume;
#X obj 72 148 extra/svsave \$1_sampler_sendB;
#X obj 66 193 extra/svsave \$1_sampler_sendA;
#X msg 297 43 1;
#X connect 1 0 13 0;
#X connect 1 0 9 0;
#X connect 1 0 5 0;
#X connect 1 0 8 0;
#X connect 4 0 11 2;
#X connect 5 0 0 1;
#X connect 7 0 6 0;
#X connect 8 0 7 0;
#X connect 11 1 3 0;
#X connect 13 0 2 1;
#X restore 35 -22 pd init;
#X obj 703 -133 extra/sv \$1_sampler8_recmode;
#X obj 764 -287 extra/sv module_selected;
#X obj 764 -264 == \$1;
#X obj 746 -238 spigot;
#X obj 746 -308 extra/sv global_rec;
#X obj 935 -289 extra/sv module_selected;
#X obj 935 -266 == \$1;
#X obj 917 -240 spigot;
#X obj 917 -214 sel 0;
#X obj 917 -310 extra/sv global_play;
#X msg 767 -168 1;
#X msg 827 -168 0;
#X text 806 -262 Force play when switch;
#X obj 177 370 outlet~;
#X obj 227 370 outlet~;
#X obj 277 370 outlet~;
#X obj 828 -228 tgl 15 0 empty empty empty 17 7 0 10 -262144 -1 -1
0 1;
#X obj 745 -214 sel 1;
#X obj -8 142 loop 1 \$1 3;
#X obj 71 142 loop 2 \$1 3;
#X obj 145 142 loop 3 \$1 3;
#X obj 227 142 loop 4 \$1 3;
#X obj 327 142 loop 5 \$1 3;
#X obj 414 142 loop 6 \$1 3;
#X obj 496 142 loop 7 \$1 3;
#X obj 577 142 loop 8 \$1 3;
#X msg 799 -73 1;
#X obj 653 142 loop 9 \$1 3;
#X obj 740 142 loop 10 \$1 3;
#X obj 822 142 loop 11 \$1 3;
#X obj 903 142 loop 12 \$1 3;
#X obj 503 54 inlet;
#X obj 543 54 inlet;
#X obj 583 54 inlet;
#X obj 623 54 inlet;
#X obj 188 323 mixer \$1_samplerlooper;
#N canvas 2128 366 654 440 volumeManagement 0;
#X obj 68 148 extra/sv 1_1_looper_volume;
#X obj 68 173 extra/sv 2_1_looper_volume;
#X obj 68 198 extra/sv 3_1_looper_volume;
#X obj 68 223 extra/sv 4_1_looper_volume;
#X obj 68 248 extra/sv 5_1_looper_volume;
#X obj 68 273 extra/sv 6_1_looper_volume;
#X obj 245 146 extra/sv 7_1_looper_volume;
#X obj 245 171 extra/sv 8_1_looper_volume;
#X obj 245 196 extra/sv 9_1_looper_volume;
#X obj 245 221 extra/sv 10_1_looper_volume;
#X obj 245 246 extra/sv 11_1_looper_volume;
#X obj 245 271 extra/sv 12_1_looper_volume;
#X obj 239 51 loadbang;
#X msg 244 81 40;
#X connect 12 0 13 0;
#X connect 13 0 0 1;
#X connect 13 0 1 1;
#X connect 13 0 2 1;
#X connect 13 0 3 1;
#X connect 13 0 4 1;
#X connect 13 0 5 1;
#X connect 13 0 6 1;
#X connect 13 0 7 1;
#X connect 13 0 8 1;
#X connect 13 0 9 1;
#X connect 13 0 10 1;
#X connect 13 0 11 1;
#X restore 500 -45 pd volumeManagement;
#X connect 0 0 34 2;
#X connect 1 0 35 2;
#X connect 2 0 36 2;
#X connect 3 0 37 2;
#X connect 4 0 16 0;
#X connect 5 0 6 0;
#X connect 6 0 16 1;
#X connect 7 0 34 0;
#X connect 7 0 35 0;
#X connect 7 0 36 0;
#X connect 7 0 37 0;
#X connect 7 0 38 0;
#X connect 7 0 39 0;
#X connect 7 0 40 0;
#X connect 7 0 41 0;
#X connect 7 0 43 0;
#X connect 7 0 44 0;
#X connect 7 0 45 0;
#X connect 7 0 46 0;
#X connect 10 0 38 2;
#X connect 11 0 39 2;
#X connect 12 0 40 2;
#X connect 13 0 41 2;
#X connect 16 0 9 0;
#X connect 17 0 18 0;
#X connect 18 0 19 1;
#X connect 18 0 27 0;
#X connect 18 0 32 0;
#X connect 19 0 33 0;
#X connect 20 0 19 0;
#X connect 21 0 22 0;
#X connect 22 0 23 1;
#X connect 23 0 24 0;
#X connect 24 0 27 0;
#X connect 25 0 23 0;
#X connect 26 0 16 1;
#X connect 27 0 16 1;
#X connect 33 0 26 0;
#X connect 34 0 51 0;
#X connect 35 0 51 0;
#X connect 36 0 51 0;
#X connect 37 0 51 0;
#X connect 38 0 51 0;
#X connect 39 0 51 0;
#X connect 40 0 51 0;
#X connect 41 0 51 0;
#X connect 42 0 14 0;
#X connect 43 0 51 0;
#X connect 44 0 51 0;
#X connect 45 0 51 0;
#X connect 46 0 51 0;
#X connect 47 0 43 2;
#X connect 48 0 44 2;
#X connect 49 0 45 2;
#X connect 50 0 46 2;
#X connect 51 1 29 0;
#X connect 51 2 30 0;
#X connect 51 3 31 0;
