#N canvas 50 98 1032 645 10;
#X obj -8 116 r \$0_path1;
#X obj 212 112 r \$0_path2;
#X obj 432 113 r \$0_path3;
#X obj 666 114 r \$0_path4;
#N canvas 484 87 628 391 play 0;
#X obj 58 -13 inlet;
#X obj 104 -13 inlet;
#X obj 149 -13 inlet;
#X obj 195 -13 inlet;
#X obj 15 196 extra/sv \$1_readsound_1_isplaying;
#X obj 273 136 extra/sv \$1_readsound_4_isplaying;
#X obj 186 155 extra/sv \$1_readsound_3_isplaying;
#X obj 102 175 extra/sv \$1_readsound_2_isplaying;
#X obj 359 115 extra/sv \$1_readsound_5_isplaying;
#X obj 446 94 extra/sv \$1_readsound_6_isplaying;
#X obj 530 74 extra/sv \$1_readsound_7_isplaying;
#X obj 617 55 extra/sv \$1_readsound_8_isplaying;
#X obj 249 -13 inlet;
#X obj 295 -13 inlet;
#X obj 344 -14 inlet;
#X obj 386 -13 inlet;
#X connect 0 0 4 1;
#X connect 1 0 7 1;
#X connect 2 0 6 1;
#X connect 3 0 5 1;
#X connect 12 0 8 1;
#X connect 13 0 9 1;
#X connect 14 0 10 1;
#X connect 15 0 11 1;
#X restore 194 -108 pd play;
#X obj 180 -173 inlet;
#X obj 220 -172 inlet;
#X obj 260 -172 inlet;
#X obj 300 -173 inlet;
#X obj 703 -172 inlet;
#X obj 932 -192 loadbang;
#X msg 932 -171 0;
#X obj 541 -174 inlet~;
#X text 540 -195 sound input for recording;
#N canvas 579 316 450 323 open 0;
#X text 107 107 Open from saved song;
#X obj 283 105 extra/sv song;
#X obj 61 38 r loadsong;
#X obj 61 80 t b b;
#X obj 61 60 bng 15 250 50 0 empty empty empty 17 7 0 10 -262144 -1
-1;
#X obj 61 137 pack \$1 1;
#X obj 61 241 s \$0_path1;
#X msg 61 192 ../samples/saved/\$2/freesound\$2_1.wav;
#X connect 1 1 5 1;
#X connect 2 0 4 0;
#X connect 3 0 5 0;
#X connect 3 1 1 2;
#X connect 4 0 3 0;
#X connect 5 0 7 0;
#X connect 7 0 6 0;
#X restore 946 90 pd open;
#N canvas 431 60 610 360 recmode 0;
#X obj 364 14 inlet;
#X obj 566 118 extra/sv \$1_readsound_1_recmode;
#X obj 493 137 extra/sv \$1_readsound_2_recmode;
#X obj 420 156 extra/sv \$1_readsound_3_recmode;
#X obj 347 175 extra/sv \$1_readsound_4_recmode;
#X obj 276 195 extra/sv \$1_readsound_5_recmode;
#X obj 203 214 extra/sv \$1_readsound_6_recmode;
#X obj 130 233 extra/sv \$1_readsound_7_recmode;
#X obj 57 252 extra/sv \$1_readsound_8_recmode;
#X connect 0 0 8 1;
#X connect 0 0 7 1;
#X connect 0 0 6 1;
#X connect 0 0 5 1;
#X connect 0 0 4 1;
#X connect 0 0 3 1;
#X connect 0 0 2 1;
#X connect 0 0 1 1;
#X restore 703 -108 pd recmode;
#X obj 344 -173 inlet;
#X obj 384 -172 inlet;
#X obj 424 -172 inlet;
#X obj 464 -173 inlet;
#X obj 108 113 r \$0_path5;
#X obj 328 109 r \$0_path6;
#X obj 548 110 r \$0_path7;
#X obj 772 115 r \$0_path8;
#N canvas 331 227 1021 511 filesManagement 0;
#X obj 164 152 extra/sv \$1_sampler8_bank;
#X obj 164 260 s \$0_path1;
#X obj 380 257 s \$0_path2;
#X obj 590 262 s \$0_path3;
#X obj 808 256 s \$0_path4;
#X obj 164 186 pack f;
#X obj 170 335 s \$0_path5;
#X obj 385 334 s \$0_path6;
#X obj 599 333 s \$0_path7;
#X obj 814 329 s \$0_path8;
#X text 369 152 LOAD FILES FROM A BANK;
#X msg 164 224 ../../samples/samplerBank/\$1/1.wav;
#X msg 379 223 ../../samples/samplerBank/\$1/2.wav;
#X msg 589 224 ../../samples/samplerBank/\$1/3.wav;
#X msg 809 224 ../../samples/samplerBank/\$1/4.wav;
#X msg 814 299 ../../samples/samplerBank/\$1/8.wav;
#X msg 594 298 ../../samples/samplerBank/\$1/7.wav;
#X msg 383 298 ../../samples/samplerBank/\$1/6.wav;
#X msg 170 299 ../../samples/samplerBank/\$1/5.wav;
#X connect 0 0 5 0;
#X connect 5 0 11 0;
#X connect 5 0 18 0;
#X connect 5 0 17 0;
#X connect 5 0 16 0;
#X connect 5 0 15 0;
#X connect 5 0 12 0;
#X connect 5 0 13 0;
#X connect 5 0 14 0;
#X connect 11 0 1 0;
#X connect 12 0 2 0;
#X connect 13 0 3 0;
#X connect 14 0 4 0;
#X connect 15 0 9 0;
#X connect 16 0 8 0;
#X connect 17 0 7 0;
#X connect 18 0 6 0;
#X restore 945 152 pd filesManagement;
#N canvas 1 123 728 500 init 0;
#X obj 77 104 extra/sv \$1_sampler8_recmode;
#X obj 149 4 loadbang;
#X obj 271 103 extra/sv \$1_sampler8_bank;
#X floatatom 259 207 5 0 0 0 - - -, f 5;
#X obj 278 129 bng 15 250 50 0 empty empty empty 17 7 0 10 -262144
-1 -1;
#X msg 155 47 0;
#X obj 635 104 s globalPitch;
#X floatatom 635 79 5 0 0 0 - - -, f 5;
#X msg 641 49 44;
#X msg 457 55 123;
#X obj 440 104 extra/svsave \$1_sampler_volume;
#X obj 72 148 extra/svsave \$1_sampler_sendB;
#X obj 66 193 extra/svsave \$1_sampler_sendA;
#X msg 297 43 1;
#X connect 1 0 13 0;
#X connect 1 0 9 0;
#X connect 1 0 5 0;
#X connect 1 0 8 0;
#X connect 4 0 11 2;
#X connect 5 0 0 1;
#X connect 7 0 6 0;
#X connect 8 0 7 0;
#X connect 11 1 3 0;
#X connect 13 0 2 1;
#X restore 35 -22 pd init;
#X obj 703 -133 extra/sv \$1_sampler8_recmode;
#X obj 764 -287 extra/sv module_selected;
#X obj 764 -264 == \$1;
#X obj 746 -238 spigot;
#X obj 746 -308 extra/sv global_rec;
#X obj 935 -289 extra/sv module_selected;
#X obj 935 -266 == \$1;
#X obj 917 -240 spigot;
#X obj 917 -214 sel 0;
#X obj 917 -310 extra/sv global_play;
#X msg 767 -168 1;
#X msg 827 -168 0;
#X text 806 -262 Force play when switch;
#X obj 533 302 mixer \$1_sampler;
#X obj 522 349 outlet~;
#X obj 572 349 outlet~;
#X obj 622 349 outlet~;
#X obj 828 -228 tgl 15 0 empty empty empty 17 7 0 10 -262144 -1 -1
0 1;
#X obj 745 -214 sel 1;
#X obj 772 142 readsound \$1 8;
#X obj -8 142 readsound \$1 1;
#X obj 212 142 readsound \$1 2;
#X obj 432 141 readsound \$1 3;
#X obj 666 141 readsound \$1 4;
#X obj 108 139 readsound \$1 5;
#X obj 328 139 readsound \$1 6;
#X obj 548 138 readsound \$1 7;
#X connect 0 0 46 0;
#X connect 1 0 47 0;
#X connect 2 0 48 0;
#X connect 3 0 49 0;
#X connect 5 0 4 0;
#X connect 6 0 4 1;
#X connect 7 0 4 2;
#X connect 8 0 4 3;
#X connect 9 0 26 0;
#X connect 10 0 11 0;
#X connect 11 0 26 1;
#X connect 12 0 45 4;
#X connect 12 0 46 4;
#X connect 12 0 47 4;
#X connect 12 0 48 4;
#X connect 12 0 49 4;
#X connect 12 0 50 4;
#X connect 12 0 51 4;
#X connect 12 0 52 4;
#X connect 16 0 4 4;
#X connect 17 0 4 5;
#X connect 18 0 4 6;
#X connect 19 0 4 7;
#X connect 20 0 50 0;
#X connect 21 0 51 0;
#X connect 22 0 52 0;
#X connect 23 0 45 0;
#X connect 26 0 15 0;
#X connect 27 0 28 0;
#X connect 28 0 29 1;
#X connect 28 0 37 0;
#X connect 28 0 43 0;
#X connect 29 0 44 0;
#X connect 30 0 29 0;
#X connect 31 0 32 0;
#X connect 32 0 33 1;
#X connect 33 0 34 0;
#X connect 34 0 37 0;
#X connect 35 0 33 0;
#X connect 36 0 26 1;
#X connect 37 0 26 1;
#X connect 39 1 40 0;
#X connect 39 2 41 0;
#X connect 39 3 42 0;
#X connect 44 0 36 0;
#X connect 45 0 39 0;
#X connect 46 0 39 0;
#X connect 47 0 39 0;
#X connect 48 0 39 0;
#X connect 49 0 39 0;
#X connect 50 0 39 0;
#X connect 51 0 39 0;
#X connect 52 0 39 0;
