#N canvas 716 150 630 573 10;
#X obj 149 473 outlet~;
#X text 438 374 2 = nbbar*1/tempofinal;
#X obj 88 67 bng 15 250 50 0 empty empty empty 17 7 0 10 -262144 -1
-1;
#X text 446 394 1 = nbbar*1/tempo;
#X obj 149 386 *~;
#X msg 133 146 0;
#X obj 149 302 line~;
#X obj 88 109 t b b;
#X floatatom 215 68 10 0 0 0 - - -, f 10;
#X obj 305 338 r \$0_timer;
#X floatatom 324 410 10 0 0 0 - - -, f 10;
#X obj 305 360 / 1000;
#X obj 91 240 f 0;
#X obj 149 342 +~ 0;
#X msg 91 276 1 \$1;
#X obj 51 66 bng 15 250 50 0 empty empty empty 17 7 0 10 -262144 -1
-1;
#X obj 392 298 * 0.125;
#X obj 149 430 *~ 44100;
#X obj 275 471 outlet;
#X obj 391 473 outlet;
#X obj 143 100 del 20;
#X obj 47 19 inlet;
#X obj 88 19 inlet;
#X obj 215 22 inlet;
#X connect 2 0 7 0;
#X connect 2 0 18 0;
#X connect 4 0 17 0;
#X connect 5 0 6 0;
#X connect 6 0 13 0;
#X connect 7 0 12 0;
#X connect 7 1 5 0;
#X connect 8 0 12 1;
#X connect 9 0 11 0;
#X connect 11 0 4 1;
#X connect 11 0 10 0;
#X connect 12 0 14 0;
#X connect 13 0 4 0;
#X connect 14 0 6 0;
#X connect 15 0 19 0;
#X connect 15 0 20 0;
#X connect 16 0 13 1;
#X connect 17 0 0 0;
#X connect 20 0 5 0;
#X connect 21 0 15 0;
#X connect 22 0 2 0;
#X connect 23 0 8 0;
