#N canvas 174 86 1032 645 10;
#X obj 163 54 inlet;
#X obj 203 55 inlet;
#X obj 243 55 inlet;
#X obj 283 54 inlet;
#X obj 703 -172 inlet;
#X obj 932 -192 loadbang;
#X msg 932 -171 0;
#X obj -6 50 inlet~;
#X text -7 29 sound input for recording;
#N canvas 431 60 610 360 recmode 0;
#X obj 364 14 inlet;
#X obj 566 118 extra/sv \$1_readsound_1_recmode;
#X obj 493 137 extra/sv \$1_readsound_2_recmode;
#X obj 420 156 extra/sv \$1_readsound_3_recmode;
#X obj 347 175 extra/sv \$1_readsound_4_recmode;
#X obj 276 195 extra/sv \$1_readsound_5_recmode;
#X obj 203 214 extra/sv \$1_readsound_6_recmode;
#X obj 130 233 extra/sv \$1_readsound_7_recmode;
#X obj 57 252 extra/sv \$1_readsound_8_recmode;
#X connect 0 0 8 1;
#X connect 0 0 7 1;
#X connect 0 0 6 1;
#X connect 0 0 5 1;
#X connect 0 0 4 1;
#X connect 0 0 3 1;
#X connect 0 0 2 1;
#X connect 0 0 1 1;
#X restore 703 -108 pd recmode;
#X obj 327 54 inlet;
#X obj 367 55 inlet;
#X obj 407 55 inlet;
#X obj 447 54 inlet;
#N canvas 336 109 1021 511 filesManagement 0;
#X obj 164 152 extra/sv \$1_sampler8_bank;
#X obj 164 186 pack f;
#X text 369 152 LOAD FILES FROM A BANK;
#X msg 164 224 ../../samples/samplerBank/\$1/1.wav;
#X msg 379 223 ../../samples/samplerBank/\$1/2.wav;
#X msg 589 224 ../../samples/samplerBank/\$1/3.wav;
#X msg 809 224 ../../samples/samplerBank/\$1/4.wav;
#X msg 814 299 ../../samples/samplerBank/\$1/8.wav;
#X msg 594 298 ../../samples/samplerBank/\$1/7.wav;
#X msg 383 298 ../../samples/samplerBank/\$1/6.wav;
#X msg 170 299 ../../samples/samplerBank/\$1/5.wav;
#X obj 164 260 s 1_1_loop_open;
#X obj 380 257 s 2_1_loop_open;
#X obj 590 262 s 3_1_loop_open;
#X obj 808 256 s 4_1_loop_open;
#X obj 170 335 s 5_1_loop_open;
#X obj 385 334 s 6_1_loop_open;
#X obj 599 333 s 7_1_loop_open;
#X obj 814 329 s 8_1_loop_open;
#X obj 263 98 inlet;
#X connect 0 0 1 0;
#X connect 1 0 3 0;
#X connect 1 0 10 0;
#X connect 1 0 9 0;
#X connect 1 0 8 0;
#X connect 1 0 7 0;
#X connect 1 0 4 0;
#X connect 1 0 5 0;
#X connect 1 0 6 0;
#X connect 3 0 11 0;
#X connect 4 0 12 0;
#X connect 5 0 13 0;
#X connect 6 0 14 0;
#X connect 7 0 18 0;
#X connect 8 0 17 0;
#X connect 9 0 16 0;
#X connect 10 0 15 0;
#X connect 19 0 0 1;
#X restore 890 112 pd filesManagement;
#N canvas 1 123 728 500 init 0;
#X obj 77 104 extra/sv \$1_sampler8_recmode;
#X obj 149 4 loadbang;
#X obj 271 103 extra/sv \$1_sampler8_bank;
#X floatatom 259 207 5 0 0 0 - - -;
#X obj 278 129 bng 15 250 50 0 empty empty empty 17 7 0 10 -262144
-1 -1;
#X msg 155 47 0;
#X obj 635 104 s globalPitch;
#X floatatom 635 79 5 0 0 0 - - -;
#X msg 641 49 44;
#X msg 457 55 123;
#X obj 440 104 extra/svsave \$1_sampler_volume;
#X obj 72 148 extra/svsave \$1_sampler_sendB;
#X obj 66 193 extra/svsave \$1_sampler_sendA;
#X msg 297 43 1;
#X connect 1 0 13 0;
#X connect 1 0 9 0;
#X connect 1 0 5 0;
#X connect 1 0 8 0;
#X connect 4 0 11 2;
#X connect 5 0 0 1;
#X connect 7 0 6 0;
#X connect 8 0 7 0;
#X connect 11 1 3 0;
#X connect 13 0 2 1;
#X restore 35 -22 pd init;
#X obj 703 -133 extra/sv \$1_sampler8_recmode;
#X obj 764 -287 extra/sv module_selected;
#X obj 764 -264 == \$1;
#X obj 746 -238 spigot;
#X obj 746 -308 extra/sv global_rec;
#X obj 935 -289 extra/sv module_selected;
#X obj 935 -266 == \$1;
#X obj 917 -240 spigot;
#X obj 917 -214 sel 0;
#X obj 917 -310 extra/sv global_play;
#X msg 767 -168 1;
#X msg 827 -168 0;
#X text 806 -262 Force play when switch;
#X obj 533 302 mixer \$1_sampler;
#X obj 522 349 outlet~;
#X obj 572 349 outlet~;
#X obj 622 349 outlet~;
#X obj 828 -228 tgl 15 0 empty empty empty 17 7 0 10 -262144 -1 -1
0 1;
#X obj 745 -214 sel 1;
#X obj -8 142 loop 1 \$1 3;
#X obj 108 142 loop 2 \$1 3;
#X obj 212 142 loop 3 \$1 3;
#X obj 328 142 loop 4 \$1 3;
#X obj 432 142 loop 5 \$1 3;
#X obj 548 142 loop 6 \$1 3;
#X obj 666 142 loop 7 \$1 3;
#X obj 772 142 loop 8 \$1 3;
#X msg 879 50 1;
#X connect 0 0 35 2;
#X connect 1 0 36 2;
#X connect 2 0 37 2;
#X connect 3 0 38 2;
#X connect 4 0 16 0;
#X connect 5 0 6 0;
#X connect 6 0 16 1;
#X connect 7 0 35 0;
#X connect 7 0 36 0;
#X connect 7 0 37 0;
#X connect 7 0 38 0;
#X connect 7 0 39 0;
#X connect 7 0 40 0;
#X connect 7 0 41 0;
#X connect 7 0 42 0;
#X connect 16 0 9 0;
#X connect 17 0 18 0;
#X connect 18 0 19 1;
#X connect 18 0 27 0;
#X connect 18 0 33 0;
#X connect 19 0 34 0;
#X connect 20 0 19 0;
#X connect 21 0 22 0;
#X connect 22 0 23 1;
#X connect 23 0 24 0;
#X connect 24 0 27 0;
#X connect 25 0 23 0;
#X connect 26 0 16 1;
#X connect 27 0 16 1;
#X connect 29 1 30 0;
#X connect 29 2 31 0;
#X connect 29 3 32 0;
#X connect 34 0 26 0;
#X connect 35 0 29 0;
#X connect 36 0 29 0;
#X connect 37 0 29 0;
#X connect 38 0 29 0;
#X connect 39 0 29 0;
#X connect 40 0 29 0;
#X connect 41 0 29 0;
#X connect 42 0 29 0;
#X connect 43 0 14 0;
