#N canvas 535 237 844 577 10;
#X floatatom 227 -393 5 0 0 0 - - -;
#X obj 318 -368 pow -1;
#X obj 319 -395 / 60;
#X obj 227 -308 * 1;
#X obj 318 -342 * 1;
#X obj 227 -357 t b f;
#X obj 227 -243 * 1000;
#X floatatom 252 -206 5 0 0 0 - - -;
#X obj 227 3 phasor~;
#X obj 227 -25 sig~;
#X obj 227 -51 pow -1;
#X obj 226 -129 / 1000;
#X obj 227 -152 f 0;
#X text 235 -273 duration in msec of reading;
#X text 206 -101 set phasor frequency;
#X obj 319 -419 extra/sv tempo;
#X obj 282 -51 r \$0_loop_phase;
#X obj 682 -337 s \$0_loop_start;
#X obj 590 -413 sel 0 1;
#X obj 511 -205 timer;
#X obj 437 -255 r tempo_click_bang;
#X floatatom 512 -152 5 0 0 0 - - -;
#X obj 670 -294 extra/sv tempo;
#X obj 670 -254 pow -1;
#X obj 670 -274 / 60;
#X obj 670 -234 * 1000;
#X obj 670 -213 / 1;
#X obj 630 -307 bang;
#X obj 630 -351 bng 35 250 50 0 empty empty empty 17 7 0 10 -4034 -1
-1;
#X obj 512 -178 % 500;
#X obj 512 -118 / 500;
#X obj 512 -95 s \$0_loop_phase;
#X obj 438 -318 extra/sv \$1_\$2_is_loop_playing;
#X obj 630 -382 t b b b;
#X msg 593 -352 1;
#X msg 556 -353 0;
#X obj 590 -434 extra/sv \$1_\$2_loop_playsampler;
#X floatatom 396 -39 10 0 0 0 - - -;
#X obj 396 -19 * 44.1;
#X obj 396 2 - 2;
#X obj 227 26 *~ 1;
#X obj 307 248 line~;
#X obj 344 135 sel 0 1;
#X msg 331 190 0 1;
#X obj 372 188 1 1;
#X obj 227 263 *~;
#X obj 522 227 r tempoStopIn;
#X obj 431 227 r tempoGoIn;
#X obj 227 299 *~;
#X msg 432 254 1 1;
#X msg 523 249 0 1;
#X obj 309 291 line~;
#X obj 344 114 extra/sv \$1_\$2_loop_playsampler;
#X obj 227 366 outlet~;
#X obj 396 -59 r \$1_\$2_timer;
#X obj 227 -435 r \$1_\$2_loop_size;
#X obj 634 -468 tgl 15 0 empty empty empty 17 7 0 10 -262144 -1 -1
0 1;
#X text 725 -357 why ???;
#X connect 0 0 5 0;
#X connect 1 0 4 0;
#X connect 2 0 1 0;
#X connect 3 0 6 0;
#X connect 4 0 3 0;
#X connect 5 0 3 0;
#X connect 5 1 3 1;
#X connect 6 0 7 0;
#X connect 6 0 12 0;
#X connect 7 0 30 1;
#X connect 8 0 40 0;
#X connect 9 0 8 0;
#X connect 10 0 9 0;
#X connect 11 0 10 0;
#X connect 12 0 11 0;
#X connect 15 0 2 0;
#X connect 16 0 8 1;
#X connect 18 0 35 0;
#X connect 18 1 33 0;
#X connect 18 2 33 0;
#X connect 19 0 29 0;
#X connect 20 0 19 0;
#X connect 21 0 30 0;
#X connect 22 0 24 0;
#X connect 23 0 25 0;
#X connect 24 0 23 0;
#X connect 25 0 26 0;
#X connect 26 0 29 1;
#X connect 27 0 19 1;
#X connect 28 0 27 0;
#X connect 29 0 21 0;
#X connect 30 0 31 0;
#X connect 33 0 28 0;
#X connect 33 1 17 0;
#X connect 33 2 34 0;
#X connect 34 0 32 1;
#X connect 35 0 32 1;
#X connect 36 0 18 0;
#X connect 37 0 38 0;
#X connect 38 0 39 0;
#X connect 39 0 40 1;
#X connect 40 0 45 0;
#X connect 41 0 45 1;
#X connect 42 0 43 0;
#X connect 42 1 44 0;
#X connect 42 2 44 0;
#X connect 43 0 41 0;
#X connect 44 0 41 0;
#X connect 45 0 48 0;
#X connect 46 0 50 0;
#X connect 47 0 49 0;
#X connect 48 0 53 0;
#X connect 49 0 51 0;
#X connect 50 0 51 0;
#X connect 51 0 48 1;
#X connect 52 0 42 0;
#X connect 54 0 37 0;
#X connect 55 0 0 0;
#X connect 56 0 36 1;
