#N canvas 0 59 656 357 10;
#X obj 56 219 symbol \$1;
#X msg 56 246 label \$1;
#X obj 56 193 makefilename %d;
#X text 871 -408 STYLE MANAGEMENT;
#X floatatom 823 -198 5 0 0 0 - - -, f 5;
#X obj 56 168 r tempo_valueOUT;
#X obj 55 276 s tempo_valueIN;
#X text 57 145 Write tempo value on slider;
#X obj 367 -251 r tempoValue;
#X obj 73 -231 s tempoGoOutBang;
#X obj 181 -286 tgl 15 0 empty empty empty 17 7 0 10 -262144 -1 -1
1 1;
#X obj 181 -371 r tempoGoIn;
#X obj 260 -372 r tempoStopIn;
#X msg 260 -346 0;
#X msg 181 -346 1;
#X obj 218 -231 s tempoStopOut;
#X obj 181 -255 sel 1;
#X obj 27 35 bng 15 250 50 0 empty empty empty 17 7 0 10 -262144 -1
-1;
#X obj 27 59 s tempo_click_bang;
#X floatatom 408 -93 10 0 0 0 - - -, f 10;
#X obj 408 -46 / 1000;
#X obj 408 -15 pow -1;
#X obj 408 11 * 60;
#X floatatom 408 42 10 0 0 0 - - -, f 10;
#X obj 377 70 s tempo_valueOUT;
#X obj 230 217 ../extra/save_int tempoStyle;
#X obj 230 188 r tempoSave;
#X obj 230 244 s tempoValue;
#X obj 96 -30 s tempo_quantif_bang;
#X obj 42 -31 bng 15 250 50 0 empty empty empty 17 7 0 10 -262144 -1
-1;
#N canvas 0 59 641 356 quantif 0;
#X msg 157 73 0;
#X obj 260 23 r tempoStopOut;
#X floatatom 157 139 5 0 0 0 - - -, f 5;
#X obj 157 105 i 0;
#X obj 214 105 + 1;
#X obj 157 198 % 8;
#X floatatom 157 222 5 0 0 0 - - -, f 5;
#X obj 86 59 inlet;
#X obj 157 264 outlet;
#X obj 157 242 sel 1;
#X obj 157 23 r tempoGoIn;
#X msg 260 135 8;
#X obj 306 147 extra/sv quantif_global;
#X obj 351 91 loadbang;
#X msg 351 116 4;
#X msg 270 300 0;
#X obj 233 273 t b b;
#X obj 233 300 f 0;
#X msg 233 328 1 \$1;
#X obj 502 77 inlet;
#X obj 366 223 *;
#X floatatom 286 208 5 0 0 0 - - -, f 5;
#X floatatom 506 222 5 0 0 0 - - -, f 5;
#X obj 276 382 line 0 50;
#X obj 275 413 s global_tempo_slider;
#X obj 353 270 r tempoStopOut;
#X obj 94 109 bng 15 250 50 0 empty empty empty 17 7 0 10 -262144 -1
-1;
#X connect 0 0 3 0;
#X connect 1 0 0 0;
#X connect 1 0 11 0;
#X connect 2 0 5 0;
#X connect 3 0 2 0;
#X connect 3 0 4 0;
#X connect 4 0 3 1;
#X connect 5 0 6 0;
#X connect 6 0 9 0;
#X connect 7 0 3 0;
#X connect 7 0 26 0;
#X connect 9 0 8 0;
#X connect 9 0 16 0;
#X connect 10 0 0 0;
#X connect 12 0 5 1;
#X connect 12 0 21 0;
#X connect 12 0 20 1;
#X connect 13 0 14 0;
#X connect 14 0 12 1;
#X connect 15 0 23 0;
#X connect 16 0 17 0;
#X connect 16 1 15 0;
#X connect 17 0 18 0;
#X connect 18 0 23 0;
#X connect 19 0 22 0;
#X connect 19 0 20 0;
#X connect 20 0 17 1;
#X connect 23 0 24 0;
#X connect 25 0 15 0;
#X restore 235 37 pd quantif;
#X obj 635 -344 r tempo_fromUI;
#X obj 613 -262 / 60;
#X obj 613 -237 pow -1;
#X obj 613 -213 * 1000;
#X obj 369 -220 t b b f;
#X obj 335 -178 s tempoGoIn;
#X obj 181 -314 change -1;
#X obj 355 -369 loadbang;
#X obj 891 -240 r tempo_changestyle_fromUI;
#X obj 823 -164 s tempo_style;
#X obj 876 -61 loadbang;
#X msg 876 -30 \; pd dsp 1;
#X obj 432 -219 bng 15 250 50 0 empty empty empty 17 7 0 10 -262144
-1 -1;
#X obj 577 -408 inlet;
#X obj 577 -382 / 255;
#X obj 577 -356 * 80;
#X obj 577 -332 + 80;
#X text 627 -392 tempo from potar;
#X obj 577 -290 change;
#X obj 106 -372 inlet;
#X text 956 -36 DSP PURE DATA;
#X obj 819 -408 inlet;
#X obj 819 -382 / 255;
#X obj 819 -356 * 4;
#X obj 823 -255 + 1;
#X obj 889 -205 s tempo_style_toUI;
#X obj 819 -309 change;
#X floatatom 819 -287 5 0 0 0 - - -, f 5;
#X obj 577 -310 i 0;
#X obj 819 -334 i 0;
#X obj 1075 -405 inlet;
#X obj 1075 -275 s transpose;
#X text 1121 -397 PITCH GLOBAL;
#X obj 1075 -373 / 255;
#X obj 1075 -351 * 200;
#X obj 1075 -298 - 100;
#X obj 1075 -328 i 0;
#N canvas 904 352 470 409 changeTempoFromStyle 0;
#X msg 140 193 rewind;
#X msg 80 193 bang;
#X obj 160 243 textfile;
#X obj 160 266 unpack f;
#X obj 160 288 i 0;
#X obj 146 29 i 0;
#X obj 146 61 t b b f;
#X msg 193 194 read ../samples/\$1/tempo.txt;
#X obj 160 328 s tempo_fromStyle;
#X obj 146 -1 inlet;
#X connect 0 0 2 0;
#X connect 1 0 2 0;
#X connect 2 0 3 0;
#X connect 3 0 4 0;
#X connect 4 0 8 0;
#X connect 5 0 6 0;
#X connect 6 0 1 0;
#X connect 6 1 0 0;
#X connect 6 2 7 0;
#X connect 7 0 2 0;
#X connect 9 0 5 0;
#X restore 911 -165 pd changeTempoFromStyle;
#X obj 654 -320 r tempo_fromStyle;
#X obj 722 -165 extra/sv song;
#X floatatom 722 -133 5 0 0 0 - - -, f 5;
#X obj 417 200 bng 15 250 50 0 empty empty empty 17 7 0 10 -262144
-1 -1;
#N canvas 292 295 697 443 saveTempoToFile 0;
#X obj 165 103 i 0;
#X msg 211 214 add2 \$1;
#X msg 267 215 clear;
#X obj 165 125 t b b f b;
#X obj 150 321 textfile;
#X obj 46 86 extra/sv song;
#X obj 165 30 inlet;
#X obj 11 232 pack 0 s f;
#X obj 96 168 s get_samples_location;
#X msg 11 257 write \$2/\$3/tempo.txt;
#X obj 88 203 r samples_location;
#X obj 42 335 print finalTempoTexte;
#X connect 0 0 3 0;
#X connect 1 0 4 0;
#X connect 2 0 4 0;
#X connect 3 0 7 0;
#X connect 3 1 8 0;
#X connect 3 2 1 0;
#X connect 3 3 2 0;
#X connect 5 0 7 2;
#X connect 6 0 0 0;
#X connect 7 0 9 0;
#X connect 9 0 4 0;
#X connect 9 0 11 0;
#X connect 10 0 7 1;
#X restore 416 283 pd saveTempoToFile;
#X obj 431 232 r tempo_valueOUT;
#X obj 416 257 f 0;
#X obj 583 170 r loadsong;
#X text 420 145 save a song;
#X text 581 143 load a song;
#X obj 652 172 extra/sv song;
#N canvas 610 173 470 409 changeTempoFromSong 0;
#X msg 140 193 rewind;
#X msg 80 193 bang;
#X obj 160 243 textfile;
#X obj 160 266 unpack f;
#X obj 160 288 i 0;
#X obj 146 29 i 0;
#X obj 160 328 s tempo_fromStyle;
#X obj 146 -1 inlet;
#X obj 248 98 s get_samples_location;
#X obj 208 135 r samples_location;
#X obj 180 160 pack 0 s f;
#X obj 146 61 t b b b b f;
#X msg 193 194 read \$2/\$3/tempo.txt;
#X connect 0 0 2 0;
#X connect 1 0 2 0;
#X connect 2 0 3 0;
#X connect 3 0 4 0;
#X connect 4 0 6 0;
#X connect 5 0 11 0;
#X connect 7 0 5 0;
#X connect 9 0 10 1;
#X connect 10 0 12 0;
#X connect 11 0 1 0;
#X connect 11 1 0 0;
#X connect 11 2 10 0;
#X connect 11 3 8 0;
#X connect 11 4 10 2;
#X connect 12 0 2 0;
#X restore 629 264 pd changeTempoFromSong;
#X obj 511 70 extra/sv tempo;
#X obj 875 -354 loadbang;
#X msg 875 -330 0;
#X obj 23 -309 extra/sv tempo_isplaying;
#X text 213 -280 Change on tempo;
#X obj 583 196 t b b;
#X obj 610 308 s tempoStopIn;
#X obj 629 222 i 1;
#X msg 571 285 4;
#X obj 573 334 extra/sv quantif_global;
#X obj 417 171 r save_song;
#X text 905 -330 auto-load;
#X obj 884 228 symbol \$1;
#X obj 884 312 makefilename;
#X obj 850 295 i \$2;
#X text 871 132 Location for saving preset;
#X obj 857 207 t b b;
#X obj 857 184 bng 15 250 50 0 empty empty empty 17 7 0 10 -262144
-1 -1;
#X obj 884 336 s preset_location;
#X obj 857 160 r get_preset_location;
#X msg 884 284 set \$1%d/preset;
#X obj 884 256 makefilename ../../%s/;
#X obj 1104 228 symbol \$1;
#X obj 1104 312 makefilename;
#X obj 1070 295 i \$2;
#X obj 1077 207 t b b;
#X obj 1077 184 bng 15 250 50 0 empty empty empty 17 7 0 10 -262144
-1 -1;
#X obj 1104 256 makefilename ../../%s/;
#X text 1071 132 Location for saving wav file;
#X msg 1104 284 set \$1%d/samples;
#X obj 1077 160 r get_samples_location;
#X obj 1104 336 s samples_location;
#X msg -36 -307 tempo \$1;
#X msg -222 -307 resolution \$1;
#X obj -126 -328 pack f f;
#X floatatom -192 -181 5 0 0 1 beat_time - -, f 5;
#X floatatom -220 -160 5 0 0 1 phase - -, f 5;
#X floatatom -247 -132 5 0 0 1 step - -, f 5;
#X floatatom -164 -203 10 0 0 1 tempo - -, f 10;
#X obj -365 -327 tgl 15 0 empty empty empty 17 7 0 10 -262144 -1 -1
1 1;
#X floatatom -36 -326 5 0 0 2 tempo - -, f 5;
#X floatatom -81 -351 5 0 0 2 quantum - -, f 5;
#X floatatom -126 -347 5 0 0 2 beat - -, f 5;
#X floatatom -222 -327 5 0 0 2 resolution - -, f 5;
#X msg -365 -306 connect \$1;
#X floatatom -277 101 5 0 0 0 - - -, f 5;
#X obj -277 79 r #abl_link_num_peers;
#X floatatom -136 -222 5 0 0 1 is_playing - -, f 5;
#X msg -38 -281 play \$1;
#X obj 60 -79 spigot;
#X obj 93 -110 tgl 15 0 empty empty empty 17 7 0 10 -262144 -1 -1 1
1;
#X obj -42 -159 extra/sv tempo;
#X obj 60 -58 sel 0;
#X msg 60 -32 1;
#X obj 27 9 spigot;
#X obj 105 -82 sel 1;
#X obj -127 -393 extra/sv quantif_global;
#X obj -82 -445 loadbang;
#X msg -82 -420 4;
#X msg -126 -307 reset \$1 4;
#X obj -213 39 s global_tempo_slider;
#X obj -198 -40 extra/sv quantif_global;
#X obj -213 -11 / 4;
#X floatatom -213 20 5 0 0 1 phase - -, f 5;
#X obj -35 -364 extra/sv tempo;
#X obj -245 -254 externals/abl_link~ 1 0 4 134;
#X obj -362 -445 loadbang;
#X msg -362 -420 1;
#X obj -71 -159 bng 15 250 50 0 empty empty empty 17 7 0 10 -262144
-1 -1;
#X obj -36 -189 change;
#X obj 62 -13 change;
#X connect 0 0 1 0;
#X connect 1 0 6 0;
#X connect 2 0 0 0;
#X connect 4 0 40 0;
#X connect 4 0 68 0;
#X connect 5 0 2 0;
#X connect 8 0 35 0;
#X connect 8 0 43 0;
#X connect 11 0 14 0;
#X connect 12 0 13 0;
#X connect 13 0 37 0;
#X connect 13 0 84 1;
#X connect 14 0 37 0;
#X connect 14 0 84 1;
#X connect 16 0 9 0;
#X connect 16 1 15 0;
#X connect 17 0 18 0;
#X connect 19 0 20 0;
#X connect 20 0 21 0;
#X connect 21 0 22 0;
#X connect 22 0 23 0;
#X connect 23 0 24 0;
#X connect 23 0 81 1;
#X connect 25 0 27 0;
#X connect 26 0 25 0;
#X connect 31 0 32 0;
#X connect 32 0 33 0;
#X connect 33 0 34 0;
#X connect 34 0 19 0;
#X connect 35 0 36 0;
#X connect 35 2 19 0;
#X connect 37 0 10 0;
#X connect 38 0 13 0;
#X connect 39 0 4 0;
#X connect 41 0 42 0;
#X connect 44 0 45 0;
#X connect 45 0 46 0;
#X connect 46 0 47 0;
#X connect 47 0 59 0;
#X connect 49 0 32 0;
#X connect 50 0 37 0;
#X connect 52 0 53 0;
#X connect 53 0 54 0;
#X connect 54 0 60 0;
#X connect 55 0 56 0;
#X connect 55 0 70 1;
#X connect 55 0 4 0;
#X connect 57 0 58 0;
#X connect 58 0 55 0;
#X connect 59 0 49 0;
#X connect 60 0 57 0;
#X connect 61 0 64 0;
#X connect 64 0 65 0;
#X connect 65 0 67 0;
#X connect 66 0 62 0;
#X connect 67 0 66 0;
#X connect 69 0 32 0;
#X connect 70 0 71 0;
#X connect 72 0 75 0;
#X connect 74 0 75 1;
#X connect 75 0 73 0;
#X connect 76 0 86 0;
#X connect 79 0 88 1;
#X connect 82 0 83 0;
#X connect 84 0 16 0;
#X connect 84 0 131 0;
#X connect 84 0 129 0;
#X connect 86 0 88 0;
#X connect 86 0 89 0;
#X connect 86 1 87 0;
#X connect 88 0 80 0;
#X connect 89 0 90 1;
#X connect 91 0 72 0;
#X connect 93 0 102 0;
#X connect 94 0 99 0;
#X connect 95 0 94 0;
#X connect 97 0 95 0;
#X connect 97 1 93 0;
#X connect 98 0 97 0;
#X connect 100 0 98 0;
#X connect 101 0 94 0;
#X connect 102 0 101 0;
#X connect 103 0 108 0;
#X connect 104 0 112 0;
#X connect 105 0 104 0;
#X connect 106 0 105 0;
#X connect 106 1 103 0;
#X connect 107 0 106 0;
#X connect 108 0 110 0;
#X connect 110 0 104 0;
#X connect 111 0 107 0;
#X connect 113 0 146 0;
#X connect 114 0 146 0;
#X connect 115 0 140 0;
#X connect 117 0 143 0;
#X connect 118 0 130 0;
#X connect 118 0 135 0;
#X connect 119 0 150 0;
#X connect 120 0 125 0;
#X connect 121 0 113 0;
#X connect 122 0 115 1;
#X connect 123 0 115 0;
#X connect 124 0 114 0;
#X connect 125 0 146 0;
#X connect 127 0 126 0;
#X connect 129 0 146 0;
#X connect 130 0 133 0;
#X connect 131 0 130 1;
#X connect 131 0 136 0;
#X connect 133 0 134 0;
#X connect 133 0 28 0;
#X connect 133 0 29 0;
#X connect 134 0 151 0;
#X connect 135 0 17 0;
#X connect 136 1 151 0;
#X connect 137 0 123 0;
#X connect 138 0 139 0;
#X connect 139 0 137 1;
#X connect 140 0 146 0;
#X connect 142 0 143 1;
#X connect 143 0 144 0;
#X connect 144 0 141 0;
#X connect 145 0 121 0;
#X connect 146 0 118 0;
#X connect 146 1 117 0;
#X connect 146 2 116 0;
#X connect 146 3 119 0;
#X connect 146 4 128 0;
#X connect 147 0 148 0;
#X connect 148 0 120 0;
#X connect 150 0 132 1;
#X connect 150 0 149 0;
#X connect 151 0 135 1;
#X coords 0 357 1 356 1000 60 0;
