#N canvas 0 96 1280 624 10;
#X obj 56 486 symbol \$1;
#X msg 56 513 label \$1;
#X obj 56 460 makefilename %d;
#X text 871 -141 STYLE MANAGEMENT;
#X floatatom 823 69 5 0 0 0 - - -;
#X obj 56 435 r tempo_valueOUT;
#X obj 55 543 s tempo_valueIN;
#X text 57 412 Write tempo value on slider;
#X obj 367 -30 r tempoValue;
#X obj 73 36 s tempoGoOutBang;
#X obj 174 -110 r tempoGoIn;
#X obj 260 -111 r tempoStopIn;
#X msg 260 -79 0;
#X msg 181 -79 1;
#X obj 218 36 s tempoStopOut;
#X obj 181 12 sel 1;
#X obj 208 255 bng 15 250 50 0 empty empty empty 17 7 0 10 -262144
-1 -1;
#X obj 203 147 metro 600;
#X obj 459 181 / 1000;
#X obj 459 212 pow -1;
#X obj 459 238 * 60;
#X floatatom 459 269 5 0 0 0 - - -;
#X msg 209 78 stop;
#X obj 259 337 bng 15 250 50 0 empty empty empty 17 7 0 10 -262144
-1 -1;
#X obj 181 106 bang;
#N canvas 346 176 763 528 quantif 0;
#X msg 157 73 0;
#X obj 260 23 r tempoStopOut;
#X floatatom 157 139 5 0 0 0 - - -;
#X obj 157 105 i 0;
#X obj 214 105 + 1;
#X obj 157 198 % 8;
#X floatatom 157 222 5 0 0 0 - - -;
#X obj 86 59 inlet;
#X obj 157 463 outlet;
#X obj 157 242 sel 1;
#X obj 157 23 r tempoGoIn;
#X msg 260 135 8;
#X obj 306 147 extra/sv quantif_global;
#X obj 351 91 loadbang;
#X msg 351 116 4;
#X msg 276 358 0;
#X obj 233 303 t b b;
#X obj 233 330 f 0;
#X msg 233 358 1 \$1;
#X obj 502 77 inlet;
#X obj 366 223 *;
#X floatatom 286 208 7 0 0 0 - - -;
#X floatatom 506 222 5 0 0 0 - - -;
#X obj 276 412 line 0 50;
#X obj 353 300 r tempoStopOut;
#X obj 94 109 bng 15 250 50 0 empty empty empty 17 7 0 10 -262144 -1
-1;
#X obj 276 462 outlet;
#X obj 86 464 outlet;
#X obj 238 240 / 1;
#X floatatom 85 393 7 0 0 0 - - -;
#X obj 87 336 * 100;
#X connect 0 0 3 0;
#X connect 1 0 0 0;
#X connect 1 0 11 0;
#X connect 2 0 5 0;
#X connect 3 0 2 0;
#X connect 3 0 4 0;
#X connect 4 0 3 1;
#X connect 5 0 6 0;
#X connect 6 0 9 0;
#X connect 6 0 28 0;
#X connect 7 0 3 0;
#X connect 7 0 25 0;
#X connect 9 0 8 0;
#X connect 9 0 16 0;
#X connect 10 0 0 0;
#X connect 12 0 5 1;
#X connect 12 0 21 0;
#X connect 12 0 20 1;
#X connect 13 0 14 0;
#X connect 14 0 12 1;
#X connect 15 0 23 0;
#X connect 16 0 17 0;
#X connect 16 1 15 0;
#X connect 17 0 18 0;
#X connect 18 0 23 0;
#X connect 19 0 22 0;
#X connect 19 0 20 0;
#X connect 20 0 17 1;
#X connect 21 0 28 1;
#X connect 23 0 26 0;
#X connect 24 0 15 0;
#X connect 28 0 30 0;
#X connect 29 0 27 0;
#X connect 30 0 29 0;
#X restore 233 304 pd quantif;
#X obj 208 274 t b b;
#X obj 635 -77 r tempo_fromUI;
#X obj 613 5 / 60;
#X obj 613 30 pow -1;
#X obj 613 54 * 1000;
#X obj 369 1 t b b f;
#X obj 335 43 s tempoGoIn;
#X obj 382 -103 loadbang;
#X obj 891 27 r tempo_changestyle_fromUI;
#X obj 823 103 s tempo_style;
#X obj 876 206 loadbang;
#X msg 876 237 \; pd dsp 1;
#X obj 432 2 bng 15 250 50 0 empty empty empty 17 7 0 10 -262144 -1
-1;
#X obj 577 -141 inlet;
#X obj 577 -115 / 255;
#X obj 577 -89 * 80;
#X obj 577 -65 + 80;
#X text 627 -125 tempo from potar;
#X obj 577 -23 change;
#X text 956 231 DSP PURE DATA;
#X obj 819 -141 inlet;
#X obj 819 -115 / 255;
#X obj 819 -89 * 4;
#X obj 823 12 + 1;
#X obj 889 62 s tempo_style_toUI;
#X obj 819 -42 change;
#X floatatom 819 -20 5 0 0 0 - - -;
#X obj 577 -43 i 0;
#X obj 819 -67 i 0;
#X obj 1075 -138 inlet;
#X obj 1075 -8 s transpose;
#X text 1121 -130 PITCH GLOBAL;
#X obj 1075 -106 / 255;
#X obj 1075 -84 * 200;
#X obj 1075 -31 - 100;
#X obj 1075 -61 i 0;
#N canvas 904 352 470 409 changeTempoFromStyle 0;
#X msg 140 193 rewind;
#X msg 80 193 bang;
#X obj 160 243 textfile;
#X obj 160 266 unpack f;
#X obj 160 288 i 0;
#X obj 146 29 i 0;
#X obj 146 61 t b b f;
#X msg 193 194 read ../samples/\$1/tempo.txt;
#X obj 160 328 s tempo_fromStyle;
#X obj 146 -1 inlet;
#X connect 0 0 2 0;
#X connect 1 0 2 0;
#X connect 2 0 3 0;
#X connect 3 0 4 0;
#X connect 4 0 8 0;
#X connect 5 0 6 0;
#X connect 6 0 1 0;
#X connect 6 1 0 0;
#X connect 6 2 7 0;
#X connect 7 0 2 0;
#X connect 9 0 5 0;
#X restore 911 102 pd changeTempoFromStyle;
#X obj 722 102 extra/sv song;
#X floatatom 722 134 5 0 0 0 - - -;
#X obj 417 467 bng 15 250 50 0 empty empty empty 17 7 0 10 -262144
-1 -1;
#N canvas 31 176 697 443 saveTempoToFile 0;
#X obj 165 103 i 0;
#X msg 211 214 add2 \$1;
#X msg 267 215 clear;
#X obj 165 125 t b b f b;
#X obj 150 321 textfile;
#X obj 46 86 extra/sv song;
#X obj 165 30 inlet;
#X obj 11 262 pack 0 s f;
#X obj 171 174 s get_samples_location;
#X msg 11 287 write \$2/\$3/tempo.txt;
#X obj 42 335 print finalTempoTexte;
#X obj 171 152 i \$0;
#X obj 77 218 symbol;
#X obj 77 195 r samples_location-\$0;
#X connect 0 0 3 0;
#X connect 1 0 4 0;
#X connect 2 0 4 0;
#X connect 3 0 7 0;
#X connect 3 1 11 0;
#X connect 3 2 1 0;
#X connect 3 3 2 0;
#X connect 5 0 7 2;
#X connect 6 0 0 0;
#X connect 7 0 9 0;
#X connect 9 0 4 0;
#X connect 9 0 10 0;
#X connect 11 0 8 0;
#X connect 12 0 7 1;
#X connect 13 0 12 0;
#X restore 416 550 pd saveTempoToFile;
#X obj 416 524 f 0;
#X obj 583 437 r loadsong;
#X text 420 412 save a song;
#X text 581 410 load a song;
#X obj 660 437 extra/sv song;
#N canvas 384 240 470 409 changeTempoFromSong 0;
#X msg 140 193 rewind;
#X msg 80 193 bang;
#X obj 160 243 textfile;
#X obj 160 266 unpack f;
#X obj 160 288 i 0;
#X obj 146 21 i 0;
#X obj 146 -1 inlet;
#X obj 246 111 s get_samples_location;
#X obj 184 173 pack 0 s f;
#X obj 146 44 t b b b b f;
#X msg 193 194 read \$2/\$3/tempo.txt;
#X obj 246 88 i \$0;
#X obj 208 128 r samples_location-\$0;
#X obj 160 328 s tempo_fromSong;
#X floatatom 117 332 5 0 0 0 - - -;
#X obj 210 149 symbol;
#X connect 0 0 2 0;
#X connect 1 0 2 0;
#X connect 2 0 3 0;
#X connect 3 0 4 0;
#X connect 4 0 13 0;
#X connect 4 0 14 0;
#X connect 5 0 9 0;
#X connect 6 0 5 0;
#X connect 8 0 10 0;
#X connect 9 0 1 0;
#X connect 9 1 0 0;
#X connect 9 2 8 0;
#X connect 9 3 11 0;
#X connect 9 4 8 2;
#X connect 10 0 2 0;
#X connect 11 0 7 0;
#X connect 12 0 15 0;
#X connect 15 0 8 1;
#X restore 629 531 pd changeTempoFromSong;
#X obj 428 291 extra/sv tempo;
#X obj 875 -87 loadbang;
#X msg 875 -63 0;
#X obj 181 -31 extra/sv tempo_isplaying;
#X text 213 -13 Change on tempo;
#X obj 583 463 t b b;
#X obj 610 575 s tempoStopIn;
#X obj 629 489 i 1;
#X msg 571 552 4;
#X obj 573 601 extra/sv quantif_global;
#X obj 417 438 r save_song;
#X text 905 -63 auto-load;
#X obj 884 495 symbol \$1;
#X obj 884 579 makefilename;
#X obj 845 551 i \$2;
#X text 871 399 Location for saving preset;
#X obj 857 427 r get_preset_location;
#X msg 884 551 set \$1%d/preset;
#X obj 884 523 makefilename ../../%s/;
#X obj 1104 495 symbol \$1;
#X obj 1104 579 makefilename;
#X obj 1070 550 i \$2;
#X obj 1104 523 makefilename ../../%s/;
#X text 1071 399 Location for saving wav file;
#X msg 1104 551 set \$1%d/samples;
#X obj 1077 427 r get_samples_location;
#N canvas 152 203 663 436 final_tempo_sender 0;
#X obj 100 107 inlet;
#X obj 370 107 inlet;
#X obj 493 107 inlet;
#X text 494 71 tempo slider;
#X text 390 71 quantif bang;
#X text 295 70 click bang;
#X obj 51 261 s tempo_click_bang;
#X obj 341 260 s tempo_quantif_bang;
#X obj 490 261 s global_tempo_slider;
#X text 320 42 ------ Standard tempo bang ------;
#X connect 0 0 6 0;
#X connect 1 0 7 0;
#X connect 2 0 8 0;
#X restore 153 381 pd final_tempo_sender;
#X obj 857 474 t b b f;
#X obj 980 578 i 0;
#X obj 886 636 pack s f;
#X msg 886 665 \; preset_location-\$2 \$1;
#X obj 1220 571 i 0;
#X obj 1077 474 t b b f;
#X obj 1105 636 pack s f;
#X msg 1105 665 \; samples_location-\$2 \$1;
#X obj 654 -53 r tempo_fromSong;
#X floatatom 480 132 5 0 0 0 - - -;
#N canvas 246 83 446 374 metronome 0;
#X obj 80 110 i 0;
#X obj 85 356 dac~;
#N canvas 313 577 431 337 clickHigh~ 0;
#X obj 211 64 inlet bng;
#X obj 211 86 bng 15 250 50 0 empty empty empty 17 7 0 10 -262144 -1
-1;
#X obj 241 116 del 30;
#X msg 241 138 0;
#X obj 129 177 osc~ 4000;
#X obj 129 219 *~ 0;
#X obj 129 261 outlet~;
#X text 120 20 just generate click sound;
#X obj 211 178 f;
#X msg 211 138 0.1;
#X connect 0 0 1 0;
#X connect 1 0 9 0;
#X connect 1 0 2 0;
#X connect 2 0 3 0;
#X connect 3 0 8 0;
#X connect 4 0 5 0;
#X connect 5 0 6 0;
#X connect 8 0 5 1;
#X connect 9 0 8 0;
#X restore 30 280 pd clickHigh~;
#N canvas 307 594 431 337 clickLow~ 0;
#X obj 211 64 inlet bng;
#X obj 211 86 bng 15 250 50 0 empty empty empty 17 7 0 10 -262144 -1
-1;
#X msg 241 138 0;
#X obj 129 219 *~ 0;
#X obj 129 261 outlet~;
#X text 120 20 just generate click sound;
#X obj 211 178 f;
#X msg 211 138 0.1;
#X obj 129 177 osc~ 3200;
#X obj 241 116 del 15;
#X connect 0 0 1 0;
#X connect 1 0 7 0;
#X connect 1 0 9 0;
#X connect 2 0 6 0;
#X connect 3 0 4 0;
#X connect 6 0 3 1;
#X connect 7 0 6 0;
#X connect 8 0 3 0;
#X connect 9 0 2 0;
#X restore 127 281 pd clickLow~;
#X obj 80 138 sel 1;
#X obj 80 166 i 0;
#X obj 80 58 r tempo_click_bang;
#X obj 210 57 inlet;
#X obj 296 83 r tempo_quantif_bang;
#X msg 274 131 0;
#X obj 80 195 + 1;
#X obj 332 152 bng 15 250 50 0 empty empty empty 17 7 0 10 -262144
-1 -1;
#X obj 92 83 bng 15 250 50 0 empty empty empty 17 7 0 10 -262144 -1
-1;
#X obj 80 248 sel 1;
#X obj 95 327 *~ 0.1;
#X connect 0 0 4 0;
#X connect 2 0 14 0;
#X connect 3 0 14 0;
#X connect 4 0 5 0;
#X connect 5 0 10 0;
#X connect 6 0 0 0;
#X connect 6 0 12 0;
#X connect 7 0 0 1;
#X connect 8 0 9 0;
#X connect 8 0 11 0;
#X connect 9 0 5 1;
#X connect 10 0 5 1;
#X connect 10 0 13 0;
#X connect 13 0 2 0;
#X connect 13 1 3 0;
#X connect 14 0 1 1;
#X connect 14 0 1 0;
#X restore 638 246 pd metronome;
#X obj 639 200 tgl 15 0 empty empty empty 17 7 0 10 -262144 -1 -1 0
1;
#X obj 665 216 r metronome;
#X floatatom 618 -44 5 0 0 0 - - -;
#N canvas 681 194 509 363 init 0;
#X obj 63 48 extra/svosc tempo;
#X obj 64 77 extra/svosc song;
#X obj 62 108 extra/svosc global_transpose;
#X obj 298 29 r fromOSC;
#X obj 298 79 route /save_song /load_song;
#X obj 298 122 bang;
#X obj 377 121 bang;
#X obj 298 156 s save_song;
#X floatatom 19 108 5 0 0 0 - - -;
#X obj 375 155 s loadsong;
#X obj 332 209 r tempo_click_bang;
#X msg 359 263 1;
#X obj 332 238 t b b;
#X msg 288 288 0;
#X obj 288 262 delay 50;
#X msg 159 267 1;
#X obj 132 242 t b b;
#X msg 88 290 0;
#X obj 88 266 delay 50;
#X obj 132 213 r tempo_quantif_bang;
#X obj 63 332 extra/svosc osc_tempo_quantif_bang;
#X obj 285 331 extra/svosc osc_tempo_click_bang;
#X connect 1 0 8 0;
#X connect 3 0 4 0;
#X connect 4 0 5 0;
#X connect 4 1 6 0;
#X connect 5 0 7 0;
#X connect 6 0 9 0;
#X connect 10 0 12 0;
#X connect 12 0 14 0;
#X connect 12 1 11 0;
#X connect 14 0 13 0;
#X connect 16 0 18 0;
#X connect 16 1 15 0;
#X connect 18 0 17 0;
#X connect 19 0 16 0;
#X restore 44 -60 pd init;
#X obj 546 497 bng 15 250 50 0 empty empty empty 17 7 0 10 -262144
-1 -1;
#X obj 460 88 f 0;
#X text 462 59 Tempo is here;
#X obj 307 179 cnv 15 600 150 empty empty DEPRECATED 20 12 0 14 -258113
-66577 0;
#X connect 0 0 1 0;
#X connect 1 0 6 0;
#X connect 2 0 0 0;
#X connect 4 0 35 0;
#X connect 4 0 62 0;
#X connect 5 0 2 0;
#X connect 8 0 31 0;
#X connect 8 0 38 0;
#X connect 10 0 13 0;
#X connect 11 0 12 0;
#X connect 12 0 76 1;
#X connect 13 0 76 1;
#X connect 15 0 9 0;
#X connect 15 0 24 0;
#X connect 15 1 14 0;
#X connect 15 1 22 0;
#X connect 16 0 26 0;
#X connect 17 0 16 0;
#X connect 18 0 19 0;
#X connect 19 0 20 0;
#X connect 20 0 21 0;
#X connect 21 0 73 1;
#X connect 22 0 17 0;
#X connect 24 0 17 0;
#X connect 25 1 23 0;
#X connect 25 1 99 1;
#X connect 25 2 99 2;
#X connect 26 0 99 0;
#X connect 26 1 25 0;
#X connect 27 0 113 0;
#X connect 28 0 29 0;
#X connect 29 0 30 0;
#X connect 30 0 116 0;
#X connect 31 0 32 0;
#X connect 31 2 116 0;
#X connect 33 0 12 0;
#X connect 34 0 4 0;
#X connect 36 0 37 0;
#X connect 39 0 40 0;
#X connect 40 0 41 0;
#X connect 41 0 42 0;
#X connect 42 0 53 0;
#X connect 44 0 28 0;
#X connect 46 0 47 0;
#X connect 47 0 48 0;
#X connect 48 0 54 0;
#X connect 49 0 50 0;
#X connect 49 0 63 1;
#X connect 49 0 4 0;
#X connect 51 0 52 0;
#X connect 52 0 49 0;
#X connect 53 0 44 0;
#X connect 54 0 51 0;
#X connect 55 0 58 0;
#X connect 58 0 59 0;
#X connect 59 0 61 0;
#X connect 60 0 56 0;
#X connect 61 0 60 0;
#X connect 63 0 64 0;
#X connect 65 0 67 0;
#X connect 67 0 66 0;
#X connect 68 0 78 0;
#X connect 68 0 115 0;
#X connect 71 0 80 1;
#X connect 73 0 67 1;
#X connect 74 0 75 0;
#X connect 76 0 15 0;
#X connect 78 0 80 0;
#X connect 78 0 81 0;
#X connect 78 1 79 0;
#X connect 80 0 72 0;
#X connect 81 0 82 1;
#X connect 83 0 65 0;
#X connect 85 0 91 0;
#X connect 86 0 102 0;
#X connect 87 0 86 0;
#X connect 89 0 100 0;
#X connect 90 0 86 0;
#X connect 91 0 90 0;
#X connect 92 0 95 0;
#X connect 93 0 106 0;
#X connect 94 0 93 0;
#X connect 95 0 97 0;
#X connect 97 0 93 0;
#X connect 98 0 105 0;
#X connect 100 0 87 0;
#X connect 100 1 85 0;
#X connect 100 2 101 0;
#X connect 101 0 102 1;
#X connect 102 0 103 0;
#X connect 104 0 106 1;
#X connect 105 0 94 0;
#X connect 105 1 92 0;
#X connect 105 2 104 0;
#X connect 106 0 107 0;
#X connect 108 0 28 0;
#X connect 111 0 110 0;
#X connect 112 0 110 0;
#X connect 113 0 28 0;
#X connect 116 0 17 1;
#X connect 116 0 18 0;
#X connect 116 0 25 1;
#X connect 116 0 109 0;
#X coords 0 624 1 623 1000 60 0;
