#N canvas 419 52 656 648 10;
#X obj 56 510 symbol \$1;
#X msg 56 537 label \$1;
#X obj 56 484 makefilename %d;
#X text 871 -117 STYLE MANAGEMENT;
#X floatatom 823 93 5 0 0 0 - - -;
#X obj 56 459 r tempo_valueOUT;
#X obj 55 567 s tempo_valueIN;
#X text 57 436 Write tempo value on slider;
#X obj 367 -6 r tempoValue;
#X obj 73 60 s tempoGoOutBang;
#X obj 174 -86 r tempoGoIn;
#X obj 260 -87 r tempoStopIn;
#X msg 260 -55 0;
#X msg 181 -55 1;
#X obj 218 60 s tempoStopOut;
#X obj 181 36 sel 1;
#X obj 208 279 bng 15 250 50 0 empty empty empty 17 7 0 10 -262144
-1 -1;
#X floatatom 488 142 10 0 0 0 - - -;
#X obj 459 205 / 1000;
#X obj 459 236 pow -1;
#X obj 459 262 * 60;
#X floatatom 459 293 5 0 0 0 - - -;
#X msg 209 102 stop;
#X obj 230 508 ../extra/save_int tempoStyle;
#X obj 230 479 r tempoSave;
#X obj 230 535 s tempoValue;
#X obj 233 365 bng 15 250 50 0 empty empty empty 17 7 0 10 -262144
-1 -1;
#X obj 181 130 bang;
#N canvas 463 201 763 528 quantif 1;
#X msg 157 73 0;
#X obj 260 23 r tempoStopOut;
#X floatatom 157 139 5 0 0 0 - - -;
#X obj 157 105 i 0;
#X obj 214 105 + 1;
#X obj 157 198 % 8;
#X floatatom 157 222 5 0 0 0 - - -;
#X obj 86 59 inlet;
#X obj 157 264 outlet;
#X obj 157 242 sel 1;
#X obj 157 23 r tempoGoIn;
#X msg 260 135 8;
#X obj 306 147 extra/sv quantif_global;
#X obj 351 91 loadbang;
#X msg 351 116 4;
#X msg 270 300 0;
#X obj 233 273 t b b;
#X obj 233 300 f 0;
#X msg 233 328 1 \$1;
#X obj 502 77 inlet;
#X obj 366 223 *;
#X floatatom 286 208 7 0 0 0 - - -;
#X floatatom 506 222 5 0 0 0 - - -;
#X obj 276 382 line 0 50;
#X obj 353 270 r tempoStopOut;
#X obj 94 109 bng 15 250 50 0 empty empty empty 17 7 0 10 -262144 -1
-1;
#X obj 276 432 outlet;
#X obj 220 388 bng 15 250 50 0 empty empty empty 17 7 0 10 -262144
-1 -1;
#X obj 220 388 bng 15 250 50 0 empty empty empty 17 7 0 10 -262144
-1 -1;
#X floatatom 365 254 5 0 0 0 - - -;
#X connect 0 0 3 0;
#X connect 1 0 0 0;
#X connect 1 0 11 0;
#X connect 2 0 5 0;
#X connect 3 0 2 0;
#X connect 3 0 4 0;
#X connect 4 0 3 1;
#X connect 5 0 6 0;
#X connect 6 0 9 0;
#X connect 7 0 3 0;
#X connect 7 0 25 0;
#X connect 9 0 8 0;
#X connect 9 0 16 0;
#X connect 10 0 0 0;
#X connect 12 0 5 1;
#X connect 12 0 21 0;
#X connect 12 0 20 1;
#X connect 13 0 14 0;
#X connect 14 0 12 1;
#X connect 15 0 23 0;
#X connect 16 0 17 0;
#X connect 16 1 15 0;
#X connect 17 0 18 0;
#X connect 18 0 23 0;
#X connect 18 0 27 0;
#X connect 19 0 22 0;
#X connect 19 0 20 0;
#X connect 20 0 17 1;
#X connect 20 0 29 0;
#X connect 23 0 26 0;
#X connect 24 0 15 0;
#X restore 233 328 pd quantif;
#X obj 208 298 t b b;
#X obj 635 -53 r tempo_fromUI;
#X obj 613 29 / 60;
#X obj 613 54 pow -1;
#X obj 613 78 * 1000;
#X obj 369 25 t b b f;
#X obj 335 67 s tempoGoIn;
#X obj 382 -79 loadbang;
#X obj 891 51 r tempo_changestyle_fromUI;
#X obj 823 127 s tempo_style;
#X obj 876 230 loadbang;
#X msg 876 261 \; pd dsp 1;
#X obj 432 26 bng 15 250 50 0 empty empty empty 17 7 0 10 -262144 -1
-1;
#X obj 577 -117 inlet;
#X obj 577 -91 / 255;
#X obj 577 -65 * 80;
#X obj 577 -41 + 80;
#X text 627 -101 tempo from potar;
#X obj 577 1 change;
#X obj 106 -81 inlet;
#X text 956 255 DSP PURE DATA;
#X obj 819 -117 inlet;
#X obj 819 -91 / 255;
#X obj 819 -65 * 4;
#X obj 823 36 + 1;
#X obj 889 86 s tempo_style_toUI;
#X obj 819 -18 change;
#X floatatom 819 4 5 0 0 0 - - -;
#X obj 577 -19 i 0;
#X obj 819 -43 i 0;
#X obj 1075 -114 inlet;
#X obj 1075 16 s transpose;
#X text 1121 -106 PITCH GLOBAL;
#X obj 1075 -82 / 255;
#X obj 1075 -60 * 200;
#X obj 1075 -7 - 100;
#X obj 1075 -37 i 0;
#N canvas 904 352 470 409 changeTempoFromStyle 0;
#X msg 140 193 rewind;
#X msg 80 193 bang;
#X obj 160 243 textfile;
#X obj 160 266 unpack f;
#X obj 160 288 i 0;
#X obj 146 29 i 0;
#X obj 146 61 t b b f;
#X msg 193 194 read ../samples/\$1/tempo.txt;
#X obj 160 328 s tempo_fromStyle;
#X obj 146 -1 inlet;
#X connect 0 0 2 0;
#X connect 1 0 2 0;
#X connect 2 0 3 0;
#X connect 3 0 4 0;
#X connect 4 0 8 0;
#X connect 5 0 6 0;
#X connect 6 0 1 0;
#X connect 6 1 0 0;
#X connect 6 2 7 0;
#X connect 7 0 2 0;
#X connect 9 0 5 0;
#X restore 911 126 pd changeTempoFromStyle;
#X obj 722 126 extra/sv song;
#X floatatom 722 158 5 0 0 0 - - -;
#X obj 417 491 bng 15 250 50 0 empty empty empty 17 7 0 10 -262144
-1 -1;
#N canvas 31 176 697 443 saveTempoToFile 0;
#X obj 165 103 i 0;
#X msg 211 214 add2 \$1;
#X msg 267 215 clear;
#X obj 165 125 t b b f b;
#X obj 150 321 textfile;
#X obj 46 86 extra/sv song;
#X obj 165 30 inlet;
#X obj 11 262 pack 0 s f;
#X obj 171 174 s get_samples_location;
#X msg 11 287 write \$2/\$3/tempo.txt;
#X obj 42 335 print finalTempoTexte;
#X obj 171 152 i \$0;
#X obj 77 218 symbol;
#X obj 77 195 r samples_location-\$0;
#X connect 0 0 3 0;
#X connect 1 0 4 0;
#X connect 2 0 4 0;
#X connect 3 0 7 0;
#X connect 3 1 11 0;
#X connect 3 2 1 0;
#X connect 3 3 2 0;
#X connect 5 0 7 2;
#X connect 6 0 0 0;
#X connect 7 0 9 0;
#X connect 9 0 4 0;
#X connect 9 0 10 0;
#X connect 11 0 8 0;
#X connect 12 0 7 1;
#X connect 13 0 12 0;
#X restore 416 574 pd saveTempoToFile;
#X obj 416 548 f 0;
#X obj 583 461 r loadsong;
#X text 420 436 save a song;
#X text 581 434 load a song;
#X obj 660 461 extra/sv song;
#N canvas 384 240 470 409 changeTempoFromSong 0;
#X msg 140 193 rewind;
#X msg 80 193 bang;
#X obj 160 243 textfile;
#X obj 160 266 unpack f;
#X obj 160 288 i 0;
#X obj 146 21 i 0;
#X obj 146 -1 inlet;
#X obj 246 111 s get_samples_location;
#X obj 184 173 pack 0 s f;
#X obj 146 44 t b b b b f;
#X msg 193 194 read \$2/\$3/tempo.txt;
#X obj 246 88 i \$0;
#X obj 208 128 r samples_location-\$0;
#X obj 160 328 s tempo_fromSong;
#X floatatom 117 332 5 0 0 0 - - -;
#X obj 210 149 symbol;
#X connect 0 0 2 0;
#X connect 1 0 2 0;
#X connect 2 0 3 0;
#X connect 3 0 4 0;
#X connect 4 0 13 0;
#X connect 4 0 14 0;
#X connect 5 0 9 0;
#X connect 6 0 5 0;
#X connect 8 0 10 0;
#X connect 9 0 1 0;
#X connect 9 1 0 0;
#X connect 9 2 8 0;
#X connect 9 3 11 0;
#X connect 9 4 8 2;
#X connect 10 0 2 0;
#X connect 11 0 7 0;
#X connect 12 0 15 0;
#X connect 15 0 8 1;
#X restore 629 555 pd changeTempoFromSong;
#X obj 428 315 extra/sv tempo;
#X obj 875 -63 loadbang;
#X msg 875 -39 0;
#X obj 181 -7 extra/sv tempo_isplaying;
#X text 213 11 Change on tempo;
#X obj 583 487 t b b;
#X obj 610 599 s tempoStopIn;
#X obj 629 513 i 1;
#X msg 571 576 4;
#X obj 573 625 extra/sv quantif_global;
#X obj 417 462 r save_song;
#X text 905 -39 auto-load;
#X obj 884 519 symbol \$1;
#X obj 884 603 makefilename;
#X obj 845 575 i \$2;
#X text 871 423 Location for saving preset;
#X obj 857 451 r get_preset_location;
#X msg 884 575 set \$1%d/preset;
#X obj 884 547 makefilename ../../%s/;
#X obj 1104 519 symbol \$1;
#X obj 1104 603 makefilename;
#X obj 1070 574 i \$2;
#X obj 1104 547 makefilename ../../%s/;
#X text 1071 423 Location for saving wav file;
#X msg 1104 575 set \$1%d/samples;
#X obj 1077 451 r get_samples_location;
#N canvas 75 93 621 526 ableton 0;
#X floatatom -55 133 5 0 0 1 phase - -;
#X floatatom -187 89 5 0 0 1 step - -;
#X floatatom -13 88 10 0 0 1 tempo - -;
#X floatatom 37 71 5 0 0 1 is_playing - -;
#X obj 54 134 extra/sv tempo;
#X obj -163 40 externals/abl_link~ 1 0 4 134;
#X obj 25 134 bng 15 250 50 0 empty empty empty 17 7 0 10 -262144 -1
-1;
#X obj 60 104 change;
#X obj -161 -32 tgl 15 0 empty empty empty 17 7 0 10 -262144 -1 -1
1 1;
#X msg -161 -11 connect \$1;
#X obj -118 -54 tgl 15 0 empty empty empty 17 7 0 10 -262144 -1 -1
0 1;
#X msg -118 -34 play \$1;
#X msg 1 -10 tempo \$1;
#X floatatom 1 -29 5 0 0 2 tempo - -;
#X obj 2 -67 extra/sv tempo;
#X obj -64 211 bng 15 250 50 0 empty empty empty 17 7 0 10 -262144
-1 -1;
#X obj 92 235 extra/sv quantif_global;
#X obj 74 258 / 4;
#X floatatom 74 289 5 0 0 1 phase - -;
#X obj -187 326 outlet;
#X obj -65 327 outlet;
#X obj 74 408 outlet;
#X obj -187 287 bng 15 250 50 0 empty empty empty 17 7 0 10 -262144
-1 -1;
#X obj -156 171 spigot;
#X obj -148 194 sel 0;
#X msg -148 220 1;
#X obj -187 261 spigot;
#X obj -105 171 sel 1;
#X obj -148 241 change;
#X obj -126 140 tgl 15 0 empty empty empty 17 7 0 10 -262144 -1 -1
1 1;
#X obj -131 107 extra/sv tempo_isplaying;
#X obj -163 -80 loadbang;
#X msg -161 -54 1;
#X obj -194 126 t f f;
#X obj 74 332 i 0;
#X obj 75 355 change;
#X obj 74 310 * 25;
#X obj 77 384 / 25;
#X connect 0 0 17 0;
#X connect 1 0 33 0;
#X connect 2 0 7 0;
#X connect 5 0 1 0;
#X connect 5 1 0 0;
#X connect 5 3 2 0;
#X connect 5 4 3 0;
#X connect 7 0 4 1;
#X connect 7 0 6 0;
#X connect 8 0 9 0;
#X connect 9 0 5 0;
#X connect 10 0 11 0;
#X connect 11 0 5 0;
#X connect 12 0 5 0;
#X connect 13 0 12 0;
#X connect 14 0 13 0;
#X connect 15 0 20 0;
#X connect 16 0 17 1;
#X connect 17 0 18 0;
#X connect 18 0 36 0;
#X connect 22 0 19 0;
#X connect 23 0 24 0;
#X connect 24 0 25 0;
#X connect 24 0 15 0;
#X connect 25 0 28 0;
#X connect 26 0 22 0;
#X connect 27 1 28 0;
#X connect 28 0 26 1;
#X connect 29 0 27 0;
#X connect 29 0 23 1;
#X connect 30 0 29 0;
#X connect 31 0 32 0;
#X connect 32 0 8 0;
#X connect 33 0 26 0;
#X connect 33 1 23 0;
#X connect 34 0 35 0;
#X connect 35 0 37 0;
#X connect 36 0 34 0;
#X connect 37 0 21 0;
#X restore 50 175 pd ableton link;
#N canvas 286 174 663 436 final_tempo_sender 0;
#X obj 252 107 inlet;
#X obj 370 107 inlet;
#X obj 493 107 inlet;
#X text 494 71 tempo slider;
#X text 390 71 quantif bang;
#X text 295 70 click bang;
#X obj 203 261 s tempo_click_bang;
#X obj 341 260 s tempo_quantif_bang;
#X obj 490 261 s global_tempo_slider;
#X floatatom 148 65 5 0 0 0 - - -;
#X obj 148 43 r #abl_link_num_peers;
#X obj 252 166 spigot 1;
#X obj -137 107 inlet;
#X obj -41 107 inlet;
#X obj 45 107 inlet;
#X text 15 73 tempo slider;
#X text -89 73 quantif bang;
#X text -184 72 click bang;
#X text 320 42 ------ Standard tempo bang ------;
#X text -150 38 ------ Ableton Link tempo ------;
#X obj 106 146 tgl 15 0 empty empty empty 17 7 0 10 -262144 -1 -1 0
1;
#X obj 194 120 == 0;
#X obj 193 151 tgl 15 0 empty empty empty 17 7 0 10 -262144 -1 -1 1
1;
#X obj 370 166 spigot 1;
#X obj 490 185 spigot 1;
#X obj -137 161 spigot 1;
#X obj -41 161 spigot 1;
#X obj 45 161 spigot 1;
#X obj 117 118 >= 1;
#X obj 665 216 r metronome;
#X connect 0 0 11 0;
#X connect 1 0 23 0;
#X connect 2 0 24 0;
#X connect 9 0 21 0;
#X connect 9 0 28 0;
#X connect 10 0 9 0;
#X connect 11 0 6 0;
#X connect 12 0 25 0;
#X connect 13 0 26 0;
#X connect 14 0 27 0;
#X connect 20 0 27 1;
#X connect 20 0 26 1;
#X connect 20 0 25 1;
#X connect 21 0 22 0;
#X connect 22 0 11 1;
#X connect 22 0 23 1;
#X connect 22 0 24 1;
#X connect 23 0 7 0;
#X connect 24 0 8 0;
#X connect 25 0 6 0;
#X connect 26 0 7 0;
#X connect 27 0 8 0;
#X connect 28 0 20 0;
#X restore 110 406 pd final_tempo_sender;
#X obj 857 498 t b b f;
#X obj 980 602 i 0;
#X obj 886 660 pack s f;
#X msg 886 689 \; preset_location-\$2 \$1;
#X obj 1220 595 i 0;
#X obj 1077 498 t b b f;
#X obj 1105 660 pack s f;
#X msg 1105 689 \; samples_location-\$2 \$1;
#X obj 654 -29 r tempo_fromSong;
#X obj 203 171 metro 750;
#X floatatom 442 63 5 0 0 0 - - -;
#X obj 444 95 f 0;
#N canvas 246 83 446 374 metronome 0;
#X obj 80 110 i 0;
#X obj 85 356 dac~;
#N canvas 313 577 431 337 clickHigh~ 0;
#X obj 211 64 inlet bng;
#X obj 211 86 bng 15 250 50 0 empty empty empty 17 7 0 10 -262144 -1
-1;
#X obj 241 116 del 30;
#X msg 241 138 0;
#X obj 129 177 osc~ 4000;
#X obj 129 219 *~ 0;
#X obj 129 261 outlet~;
#X text 120 20 just generate click sound;
#X obj 211 178 f;
#X msg 211 138 0.1;
#X connect 0 0 1 0;
#X connect 1 0 9 0;
#X connect 1 0 2 0;
#X connect 2 0 3 0;
#X connect 3 0 8 0;
#X connect 4 0 5 0;
#X connect 5 0 6 0;
#X connect 8 0 5 1;
#X connect 9 0 8 0;
#X restore 30 280 pd clickHigh~;
#N canvas 307 594 431 337 clickLow~ 0;
#X obj 211 64 inlet bng;
#X obj 211 86 bng 15 250 50 0 empty empty empty 17 7 0 10 -262144 -1
-1;
#X msg 241 138 0;
#X obj 129 219 *~ 0;
#X obj 129 261 outlet~;
#X text 120 20 just generate click sound;
#X obj 211 178 f;
#X msg 211 138 0.1;
#X obj 129 177 osc~ 3200;
#X obj 241 116 del 15;
#X connect 0 0 1 0;
#X connect 1 0 7 0;
#X connect 1 0 9 0;
#X connect 2 0 6 0;
#X connect 3 0 4 0;
#X connect 6 0 3 1;
#X connect 7 0 6 0;
#X connect 8 0 3 0;
#X connect 9 0 2 0;
#X restore 127 281 pd clickLow~;
#X obj 80 138 sel 1;
#X obj 80 166 i 0;
#X obj 80 58 r tempo_click_bang;
#X obj 210 57 inlet;
#X obj 296 83 r tempo_quantif_bang;
#X msg 274 131 0;
#X obj 80 195 + 1;
#X obj 332 152 bng 15 250 50 0 empty empty empty 17 7 0 10 -262144
-1 -1;
#X obj 92 83 bng 15 250 50 0 empty empty empty 17 7 0 10 -262144 -1
-1;
#X obj 80 248 sel 1;
#X obj 95 327 *~ 0.1;
#X connect 0 0 4 0;
#X connect 2 0 14 0;
#X connect 3 0 14 0;
#X connect 4 0 5 0;
#X connect 5 0 10 0;
#X connect 6 0 0 0;
#X connect 6 0 12 0;
#X connect 7 0 0 1;
#X connect 8 0 9 0;
#X connect 8 0 11 0;
#X connect 9 0 5 1;
#X connect 10 0 5 1;
#X connect 10 0 13 0;
#X connect 13 0 2 0;
#X connect 13 1 3 0;
#X connect 14 0 1 1;
#X connect 14 0 1 0;
#X restore 598 307 pd metronome;
#X obj 599 261 tgl 15 0 empty empty empty 17 7 0 10 -262144 -1 -1 0
1;
#X obj 625 277 r metronome;
#X connect 0 0 1 0;
#X connect 1 0 6 0;
#X connect 2 0 0 0;
#X connect 4 0 38 0;
#X connect 4 0 66 0;
#X connect 5 0 2 0;
#X connect 8 0 34 0;
#X connect 8 0 41 0;
#X connect 10 0 13 0;
#X connect 11 0 12 0;
#X connect 12 0 80 1;
#X connect 13 0 80 1;
#X connect 15 0 9 0;
#X connect 15 0 27 0;
#X connect 15 1 14 0;
#X connect 15 1 22 0;
#X connect 16 0 29 0;
#X connect 18 0 19 0;
#X connect 19 0 20 0;
#X connect 20 0 21 0;
#X connect 21 0 77 1;
#X connect 22 0 114 0;
#X connect 23 0 25 0;
#X connect 24 0 23 0;
#X connect 27 0 114 0;
#X connect 28 0 26 0;
#X connect 28 0 104 4;
#X connect 28 1 104 5;
#X connect 29 0 104 3;
#X connect 29 1 28 0;
#X connect 30 0 31 0;
#X connect 31 0 32 0;
#X connect 32 0 33 0;
#X connect 33 0 116 0;
#X connect 34 0 35 0;
#X connect 34 2 115 0;
#X connect 34 2 116 0;
#X connect 36 0 12 0;
#X connect 37 0 4 0;
#X connect 39 0 40 0;
#X connect 42 0 43 0;
#X connect 43 0 44 0;
#X connect 44 0 45 0;
#X connect 45 0 57 0;
#X connect 47 0 31 0;
#X connect 50 0 51 0;
#X connect 51 0 52 0;
#X connect 52 0 58 0;
#X connect 53 0 54 0;
#X connect 53 0 67 1;
#X connect 53 0 4 0;
#X connect 55 0 56 0;
#X connect 56 0 53 0;
#X connect 57 0 47 0;
#X connect 58 0 55 0;
#X connect 59 0 62 0;
#X connect 62 0 63 0;
#X connect 63 0 65 0;
#X connect 64 0 60 0;
#X connect 65 0 64 0;
#X connect 67 0 68 0;
#X connect 69 0 71 0;
#X connect 71 0 70 0;
#X connect 72 0 82 0;
#X connect 75 0 84 1;
#X connect 77 0 71 1;
#X connect 78 0 79 0;
#X connect 80 0 15 0;
#X connect 82 0 84 0;
#X connect 82 0 85 0;
#X connect 82 1 83 0;
#X connect 84 0 76 0;
#X connect 85 0 86 1;
#X connect 87 0 69 0;
#X connect 89 0 95 0;
#X connect 90 0 107 0;
#X connect 91 0 90 0;
#X connect 93 0 105 0;
#X connect 94 0 90 0;
#X connect 95 0 94 0;
#X connect 96 0 99 0;
#X connect 97 0 111 0;
#X connect 98 0 97 0;
#X connect 99 0 101 0;
#X connect 101 0 97 0;
#X connect 102 0 110 0;
#X connect 103 0 104 0;
#X connect 103 1 104 1;
#X connect 103 2 104 2;
#X connect 105 0 91 0;
#X connect 105 1 89 0;
#X connect 105 2 106 0;
#X connect 106 0 107 1;
#X connect 107 0 108 0;
#X connect 109 0 111 1;
#X connect 110 0 98 0;
#X connect 110 1 96 0;
#X connect 110 2 109 0;
#X connect 111 0 112 0;
#X connect 113 0 31 0;
#X connect 114 0 16 0;
#X connect 116 0 114 1;
#X connect 116 0 18 0;
#X connect 116 0 17 0;
#X connect 116 0 28 1;
#X connect 118 0 117 0;
#X connect 119 0 117 0;
#X coords 0 648 1 647 1000 60 0;
