#N canvas 843 139 890 607 12;
#X obj 23 352 outlet~;
#X obj 15 -117 inlet~;
#X obj 424 -101 inlet;
#X obj 132 -65 t f b;
#X floatatom 134 0 12 0 0 1 cents - -;
#X obj 133 -35 * 10;
#X floatatom 199 -32 10 0 0 0 - - -;
#X obj 132 -94 extra/sv global_transpose;
#X obj 98 -117 r \$0_loop_transpose;
#X floatatom 577 162 10 0 0 0 - - -;
#X obj 480 -35 / 1000;
#X obj 480 -4 pow -1;
#X obj 480 22 * 60;
#X floatatom 386 73 10 0 0 0 - - -;
#X obj 474 184 t b f;
#X obj 576 138 extra/sv tempo;
#X obj 464 73 s \$1_\$2_realtempo_toUI;
#X floatatom 381 258 10 0 0 0 - - -;
#X obj 386 160 t f f;
#X text -8 258 by pass timecompression =if transpose=0;
#X obj 383 351 s \$0_loop_transpose;
#X obj 425 -61 f 0;
#X obj 199 74 hsl 128 15 0.25 2 0 0 empty empty empty -2 -8 0 10 -262144
-1 -1 0 1;
#X floatatom 250 111 12 0 0 0 - - -;
#X msg 266 46 1;
#X msg 299 47 2;
#X floatatom 916 156 10 0 0 0 - - -;
#X obj 813 178 t b f;
#X obj 915 132 extra/sv tempo;
#X floatatom 754 311 10 0 0 0 - - -;
#X floatatom 757 496 10 0 0 0 - - -;
#X obj 725 223 - 1;
#X obj 754 282 / 1;
#X obj 725 154 t f f;
#X obj 742 404 f 0;
#X obj 780 403 f 0;
#X obj 754 331 t f f;
#X obj 753 353 > 0;
#X obj 752 374 sel 1 0;
#X floatatom 752 252 10 0 0 0 - - -;
#X obj 754 522 s \$0_loop_transpose;
#X obj 810 436 * 150;
#X obj 742 440 * 205;
#X obj 386 229 / 1;
#X floatatom 534 106 10 0 0 0 - - -;
#X msg 681 71 430;
#X msg 719 68 215;
#X obj 381 308 pow -1;
#X obj 59 16 == 0;
#X msg 59 62 bypass \$1;
#X obj 113 31 tgl 15 0 empty empty empty 17 7 0 10 -262144 -1 -1 0
1;
#X obj 55 127 externals/soundtouch~ 40;
#X connect 1 0 51 0;
#X connect 2 0 21 0;
#X connect 3 0 5 0;
#X connect 4 0 48 0;
#X connect 4 0 51 1;
#X connect 5 0 4 0;
#X connect 8 0 51 1;
#X connect 9 0 14 0;
#X connect 10 0 11 0;
#X connect 11 0 12 0;
#X connect 12 0 16 0;
#X connect 13 0 18 0;
#X connect 14 0 43 0;
#X connect 14 1 43 1;
#X connect 15 0 9 0;
#X connect 17 0 47 0;
#X connect 18 0 43 0;
#X connect 21 0 10 0;
#X connect 21 0 13 0;
#X connect 22 0 23 0;
#X connect 22 0 51 1;
#X connect 24 0 51 1;
#X connect 25 0 51 1;
#X connect 26 0 27 0;
#X connect 27 0 31 0;
#X connect 27 1 31 1;
#X connect 28 0 26 0;
#X connect 29 0 36 0;
#X connect 30 0 40 0;
#X connect 31 0 39 0;
#X connect 32 0 29 0;
#X connect 33 0 31 0;
#X connect 33 1 32 1;
#X connect 34 0 42 0;
#X connect 35 0 41 0;
#X connect 36 0 37 0;
#X connect 36 1 35 1;
#X connect 36 1 34 1;
#X connect 37 0 38 0;
#X connect 38 0 34 0;
#X connect 38 1 35 0;
#X connect 39 0 32 0;
#X connect 41 0 30 0;
#X connect 42 0 30 0;
#X connect 43 0 17 0;
#X connect 44 0 15 1;
#X connect 45 0 15 1;
#X connect 46 0 15 1;
#X connect 47 0 20 0;
#X connect 49 0 51 0;
#X connect 50 0 49 0;
#X connect 51 0 0 0;
