#N canvas 0 23 450 300 12;
#N canvas 161 136 979 612 timecompression 0;
#X obj 43 208 hip~ 5;
#X obj 44 155 *~;
#X obj 44 57 +~;
#X obj 43 9 samphold~;
#X obj 44 33 *~;
#X obj 209 88 -~ 0.5;
#X obj 209 112 *~ 0.5;
#X obj 209 135 cos~;
#X obj 43 184 +~;
#X obj 44 81 *~ 44100;
#X obj 43 107 +~ 1;
#X obj 295 164 *~;
#X obj 295 66 +~;
#X obj 294 18 samphold~;
#X obj 295 42 *~;
#X obj 460 97 -~ 0.5;
#X obj 460 121 *~ 0.5;
#X obj 460 144 cos~;
#X obj 295 90 *~ 44100;
#X obj 294 116 +~ 1;
#X text 229 -50 TIME COMPRESSION/EXPANSION BY LOOPED SAMPLING;
#X obj 43 249 outlet~;
#X obj 185 -91 inlet~;
#X floatatom 646 0 0 0 0 0 - - -;
#X obj 677 23 t b f;
#X obj 665 103 phasor~;
#X obj 802 123 +~ 0.5;
#X obj 803 149 wrap~;
#X text 699 -38 <-- transposition \, halftones/10;
#X floatatom 673 80 5 0 0 0 - - -;
#X obj 790 22 t b f;
#X obj 665 55 expr (pow(2 \, $f1/120)-$f3)/$f2;
#X obj 186 -53 *~ 1;
#X obj 790 -63 r \$0_loop_precession;
#X obj 79 34 r~ \$0_phase;
#X obj 131 10 r~ \$0_phase;
#X obj 209 64 r~ \$0_phase;
#X obj 330 43 r~ \$0_phase2;
#X obj 382 19 r~ \$0_phase2;
#X obj 460 74 r~ \$0_phase2;
#X obj 665 129 s~ \$0_phase;
#X obj 803 174 s~ \$0_phase2;
#X obj 43 -16 r \$0_chunk-size;
#X obj 294 -7 r \$0_chunk-size;
#X obj 677 -2 r \$0_chunk-size;
#X obj 44 131 tabread4~ \$0_loop;
#X obj 295 140 tabread4~ \$0_loop;
#X floatatom 817 -4 5 0 0 0 - - -;
#X obj 289 322 snapshot~;
#X obj 383 300 metro 200;
#X msg 371 267 1;
#X floatatom 293 353 5 0 0 0 - - -;
#X obj 646 -155 r transpose;
#X obj 686 -80 * 0.001;
#X obj 646 -128 t f b;
#X msg 686 -106 40;
#X text 699 -127 force chunck size with transpose;
#X obj 686 -58 s \$0_chunk-size;
#X connect 0 0 21 0;
#X connect 0 0 48 0;
#X connect 1 0 8 0;
#X connect 2 0 9 0;
#X connect 3 0 4 0;
#X connect 4 0 2 0;
#X connect 5 0 6 0;
#X connect 6 0 7 0;
#X connect 7 0 1 1;
#X connect 8 0 0 0;
#X connect 9 0 10 0;
#X connect 10 0 45 0;
#X connect 11 0 8 1;
#X connect 12 0 18 0;
#X connect 13 0 14 0;
#X connect 14 0 12 0;
#X connect 15 0 16 0;
#X connect 16 0 17 0;
#X connect 17 0 11 1;
#X connect 18 0 19 0;
#X connect 19 0 46 0;
#X connect 22 0 32 0;
#X connect 23 0 31 0;
#X connect 24 0 31 0;
#X connect 24 1 31 1;
#X connect 25 0 26 0;
#X connect 25 0 40 0;
#X connect 26 0 27 0;
#X connect 27 0 41 0;
#X connect 30 0 31 0;
#X connect 30 1 31 2;
#X connect 31 0 25 0;
#X connect 31 0 29 0;
#X connect 32 0 2 1;
#X connect 32 0 12 1;
#X connect 33 0 30 0;
#X connect 33 0 47 0;
#X connect 34 0 4 1;
#X connect 35 0 3 1;
#X connect 36 0 5 0;
#X connect 37 0 14 1;
#X connect 38 0 13 1;
#X connect 39 0 15 0;
#X connect 42 0 3 0;
#X connect 43 0 13 0;
#X connect 44 0 24 0;
#X connect 45 0 1 0;
#X connect 46 0 11 0;
#X connect 48 0 51 0;
#X connect 49 0 48 0;
#X connect 50 0 49 0;
#X connect 52 0 54 0;
#X connect 53 0 57 0;
#X connect 54 0 23 0;
#X connect 54 1 55 0;
#X connect 55 0 53 0;
#X restore 61 92 pd timecompression;
#N canvas 185 62 847 721 rampgenerator 0;
#X obj 137 651 outlet~;
#X text 217 585 2 = nbbar*1/tempofinal;
#X obj 81 169 f;
#X obj 115 170 + 1;
#X obj 81 40 bng 15 250 50 0 empty empty empty 17 7 0 10 -262144 -1
-1;
#X floatatom 81 198 5 0 0 0 - - -;
#X obj 209 170 r \$0_loop_size;
#X obj 81 221 mod 1;
#X floatatom 209 197 5 0 0 0 - - -;
#X obj 80 283 bng 15 250 50 0 empty empty empty 17 7 0 10 -262144 -1
-1;
#X obj 418 142 pow -1;
#X obj 419 115 / 60;
#X obj 419 85 r tempo_valueOUT;
#X obj 206 282 * 1;
#X floatatom 494 121 5 0 0 0 - - -;
#X text 218 602 1 = nbbar*1/tempo;
#X obj 27 324 s \$0_loop_start;
#X obj 136 577 *~;
#X obj 576 334 s \$0_loop_precession;
#X obj -128 471 r tempoStopOut;
#X obj 418 168 * 1;
#X msg 112 387 0;
#X obj 578 124 / 1000;
#X obj 578 155 pow -1;
#X obj 578 181 * 60;
#X floatatom 577 218 5 0 0 0 - - -;
#X obj 576 297 / 1;
#X obj 578 85 r \$0_loop_tempo;
#X obj 494 151 i 0;
#X obj 576 264 t b f;
#X obj 212 233 t b f;
#N canvas 154 399 673 546 slider_ui 0;
#X obj 196 169 inlet~;
#X obj 200 227 snapshot~;
#X obj 311 139 loadbang;
#X obj 284 138 bng 15 250 50 0 empty empty empty 17 7 0 10 -262144
-1 -1;
#X floatatom -22 194 5 0 0 0 - - -;
#X obj -22 251 change;
#X obj 316 172 metro 100;
#X obj -22 153 r \$1_recloop_slider_ui;
#X obj 211 287 s \$1_recloop_slider_ui;
#X obj 1 354 s \$1_recloop_ui_play;
#X obj -22 280 sel 1 0;
#X obj -17 399 s \$1_recloop_ui_stop;
#X obj -22 226 >= 1;
#X connect 0 0 1 0;
#X connect 1 0 8 0;
#X connect 2 0 6 0;
#X connect 3 0 6 0;
#X connect 4 0 12 0;
#X connect 5 0 10 0;
#X connect 6 0 1 0;
#X connect 7 0 4 0;
#X connect 10 0 11 0;
#X connect 10 1 9 0;
#X connect 12 0 5 0;
#X restore 21 582 pd slider_ui;
#X obj 80 1 inlet;
#X obj 136 543 line~;
#X obj 75 360 t b b;
#X obj 76 419 f 0;
#X msg 75 455 1 \$1;
#X obj 205 319 * 1000;
#X floatatom 215 361 10 0 0 0 - - -;
#X obj -24 6 inlet;
#X obj 156 80 sel 1;
#X obj 268 126 bng 15 250 50 0 empty empty empty 17 7 0 10 -262144
-1 -1;
#X obj 155 56 r \$1_looper_play;
#X obj 222 499 r \$0_timer;
#X floatatom 241 571 10 0 0 0 - - -;
#X obj 222 521 / 1000;
#X msg -128 518 300;
#X obj 191 133 bng 15 250 50 0 empty empty empty 17 7 0 10 -262144
-1 -1;
#X msg 214 134 0;
#X obj 81 244 select 0;
#X obj -262 473 r \$0_is_loop_deleted;
#X obj 214 87 r tempoStopOut;
#X connect 2 0 3 0;
#X connect 2 0 5 0;
#X connect 3 0 2 1;
#X connect 4 0 2 0;
#X connect 5 0 7 0;
#X connect 6 0 7 1;
#X connect 6 0 8 0;
#X connect 7 0 49 0;
#X connect 8 0 30 0;
#X connect 9 0 16 0;
#X connect 9 0 34 0;
#X connect 10 0 20 0;
#X connect 11 0 10 0;
#X connect 12 0 11 0;
#X connect 12 0 14 0;
#X connect 13 0 37 0;
#X connect 14 0 28 0;
#X connect 17 0 0 0;
#X connect 19 0 46 0;
#X connect 20 0 13 0;
#X connect 21 0 33 0;
#X connect 22 0 23 0;
#X connect 23 0 24 0;
#X connect 24 0 25 0;
#X connect 25 0 29 0;
#X connect 26 0 18 0;
#X connect 27 0 22 0;
#X connect 28 0 26 0;
#X connect 29 0 26 0;
#X connect 29 1 26 1;
#X connect 30 0 13 0;
#X connect 30 1 13 1;
#X connect 32 0 4 0;
#X connect 33 0 17 0;
#X connect 33 0 31 0;
#X connect 34 0 35 0;
#X connect 34 1 21 0;
#X connect 35 0 36 0;
#X connect 36 0 33 0;
#X connect 37 0 38 0;
#X connect 37 0 35 1;
#X connect 39 0 9 0;
#X connect 40 0 48 0;
#X connect 40 0 47 0;
#X connect 42 0 40 0;
#X connect 43 0 45 0;
#X connect 45 0 17 1;
#X connect 45 0 44 0;
#X connect 46 0 33 0;
#X connect 48 0 2 1;
#X connect 49 0 9 0;
#X connect 50 0 46 0;
#X connect 51 0 41 0;
#X connect 51 0 48 0;
#X restore 61 35 pd rampgenerator;
#X connect 1 0 0 0;
