#N canvas 963 171 768 522 12;
#X obj 23 352 outlet~;
#X obj 15 -117 inlet~;
#X obj 93 79 t f b;
#X floatatom 53 52 5 0 0 0 - - -;
#X floatatom 93 123 6 0 0 1 cents - -;
#X obj 252 106 loadbang;
#X obj 155 172 harmv2~ \$0-harm;
#X msg 256 150 1;
#X obj 68 -95 delwrite~ \$0-harm-del 500;
#X msg 168 146 64;
#X msg 194 147 0;
#X floatatom 604 146 10 0 0 0 - - -;
#X obj 472 25 / 1000;
#X obj 472 56 pow -1;
#X obj 472 82 * 60;
#X floatatom 378 133 10 0 0 0 - - -;
#X obj 473 166 t b f;
#X obj 603 103 extra/sv tempo;
#X obj 456 133 s \$1_\$2_realtempo_toUI;
#X floatatom 415 317 10 0 0 0 - - -;
#X floatatom 418 502 10 0 0 0 - - -;
#X obj 386 229 - 1;
#X obj 415 288 / 1;
#X obj 386 160 t f f;
#X obj 403 410 f 0;
#X obj 441 409 f 0;
#X obj 415 337 t f f;
#X obj 414 359 > 0;
#X obj 413 380 sel 1 0;
#X floatatom 413 258 10 0 0 0 - - -;
#X obj 15 311 *~ 1;
#X obj 77 311 *~ 0;
#X obj 51 193 tgl 30 0 empty empty empty 17 7 0 10 -262144 -1 -1 0
1;
#X obj 72 252 == 0;
#X text 122 312 by pass timecompression =if transpose=0;
#X obj 52 123 == 0;
#X obj 93 104 * 10;
#X obj 386 188 i 0;
#X floatatom 136 80 10 0 0 0 - - -;
#X obj 128 -8 extra/sv global_transpose;
#X obj 93 51 + 0;
#X obj 415 528 s \$0_loop_transpose;
#X obj 94 -31 r \$0_loop_transpose;
#X obj 441 432 * 150;
#X obj 402 432 * 205;
#X obj 416 -41 inlet;
#X obj 417 -1 f 0;
#X obj 114 15 t b f;
#X connect 1 0 8 0;
#X connect 1 0 30 0;
#X connect 2 0 36 0;
#X connect 3 0 2 0;
#X connect 4 0 6 0;
#X connect 5 0 7 0;
#X connect 5 0 9 0;
#X connect 5 0 10 0;
#X connect 6 0 31 0;
#X connect 7 0 6 3;
#X connect 9 0 6 1;
#X connect 10 0 6 2;
#X connect 11 0 16 0;
#X connect 12 0 13 0;
#X connect 13 0 14 0;
#X connect 14 0 15 0;
#X connect 14 0 18 0;
#X connect 15 0 23 0;
#X connect 16 0 21 0;
#X connect 16 1 21 1;
#X connect 17 0 11 0;
#X connect 19 0 26 0;
#X connect 20 0 41 0;
#X connect 21 0 29 0;
#X connect 22 0 19 0;
#X connect 23 0 37 0;
#X connect 23 1 22 1;
#X connect 24 0 44 0;
#X connect 25 0 43 0;
#X connect 26 0 27 0;
#X connect 26 1 25 1;
#X connect 26 1 24 1;
#X connect 27 0 28 0;
#X connect 28 0 24 0;
#X connect 28 1 25 0;
#X connect 29 0 22 0;
#X connect 30 0 0 0;
#X connect 31 0 0 0;
#X connect 32 0 33 0;
#X connect 32 0 30 1;
#X connect 33 0 31 1;
#X connect 35 0 32 0;
#X connect 36 0 4 0;
#X connect 37 0 21 0;
#X connect 39 0 47 0;
#X connect 40 0 2 0;
#X connect 40 0 35 0;
#X connect 40 0 38 0;
#X connect 42 0 40 0;
#X connect 43 0 20 0;
#X connect 44 0 20 0;
#X connect 45 0 46 0;
#X connect 46 0 12 0;
#X connect 47 0 40 0;
#X connect 47 1 40 1;
