#N canvas 0 63 656 357 10;
#X declare -path ../../patches;
#X obj 5 87 cnv 15 680 230 empty empty empty 20 12 0 14 -233017 -66577
0;
#X obj 7 263 UI/ui_tempo_small;
#X obj 5 3 cnv 15 680 81 empty empty LUCIBOX 20 36 0 45 -21525 -88297
0;
#N canvas 0 71 641 356 patch 1;
#X obj 101 101 cnv 15 138 40 empty empty PATCH 20 12 0 14 -66577 -262144
0;
#X obj 250 -2 audio/mic;
#X obj 250 -29 adc~;
#X obj 267 503 *~ 1;
#X obj 267 552 dac~;
#X obj 38 100 bng 35 250 50 0 empty empty CLOSE 4 20 0 10 -262144 -1
-1;
#X msg 38 164 \; pd-patch vis 0;
#X obj 320 878 arduino/arduino_out;
#N canvas 447 412 1038 529 open 0;
#X text 462 314 label-color;
#X text 477 339 label-color;
#X obj 377 311 t b f;
#X msg 400 277 2;
#X obj 466 220 loadbang;
#X obj 104 101 hradio 15 1 0 2 empty empty empty 0 -8 0 10 -262144
-1 -1 0;
#X obj 104 166 bang;
#X msg 363 277 43;
#X obj 101 101 cnv 15 38 15 empty \$0_opencnv open 6 8 0 10 -66577
-262144 0;
#X msg 405 398 \; \$4_opencnv color \$1 \$2 \$3;
#X obj 363 197 bang;
#X obj 404 365 pack 43 0 0 \$0;
#X obj 400 220 delay 200;
#X msg 101 247 \; pd-patch vis 1;
#X msg 614 289 \; pd-patch vis 0;
#X connect 2 1 11 0;
#X connect 3 0 2 0;
#X connect 4 0 3 0;
#X connect 4 0 14 0;
#X connect 5 0 6 0;
#X connect 6 0 10 0;
#X connect 6 0 13 0;
#X connect 7 0 2 0;
#X connect 10 0 7 0;
#X connect 10 0 12 0;
#X connect 11 0 9 0;
#X connect 12 0 3 0;
#X coords 0 -1 1 1 40 17 2 100 100;
#X restore 177 107 pd open;
#X obj 339 77 effect/reverb;
#X obj 20 336 extra/selectionManager;
#X obj 399 356 s ledrec1;
#X obj 478 358 s ledplay1;
#X obj 660 379 s ledrec2;
#X obj 693 355 s ledplay2;
#X text 22 368 Manage Reset when;
#X text 27 433 no module selected and long press;
#X obj 267 478 *~ 1;
#X obj 331 290 *~ 1;
#X obj 561 282 *~ 1;
#X obj 334 363 *~ 1;
#X obj 561 363 *~ 1;
#X obj 427 79 effect/delay;
#X obj 292 117 *~ 1;
#X obj 766 282 *~ 1;
#X obj 990 282 *~ 1;
#X obj 1124 351 s ledplay4;
#X obj 1058 352 s ledrec4;
#X obj 893 351 s ledplay3;
#X obj 768 363 *~ 1;
#X obj 992 363 *~ 1;
#X obj 817 351 s ledrec3;
#N canvas 147 187 784 449 autostop_from_loop 0;
#X obj 155 39 extra/sv 1_1_is_loop_playing;
#X obj 188 62 extra/sv 2_1_is_loop_playing;
#X obj 215 85 extra/sv 3_1_is_loop_playing;
#X obj 232 107 extra/sv 4_1_is_loop_playing;
#X obj 162 195 extra/sv 1_1_is_loop_playing;
#X obj 142 220 extra/sv 2_1_is_loop_playing;
#X obj 122 241 extra/sv 3_1_is_loop_playing;
#X obj 102 264 extra/sv 4_1_is_loop_playing;
#X obj 217 151 bng 15 250 50 0 empty empty empty 17 7 0 10 -262144
-1 -1;
#X obj 230 171 t b b b b;
#X obj 337 241 +;
#X obj 319 266 +;
#X obj 301 289 +;
#X floatatom 301 309 5 0 0 0 - - -, f 5;
#X obj 300 326 sel 0;
#X obj 300 352 s tempoStopIn;
#X obj 280 353 bng 15 250 50 0 empty empty empty 17 7 0 10 -262144
-1 -1;
#X obj 469 239 print loop1;
#X obj 468 269 print loop2;
#X obj 469 299 print loop3;
#X obj 469 329 print loop4;
#X obj 469 109 print playloop1;
#X obj 468 139 print playloop2;
#X obj 469 169 print playloop3;
#X obj 469 199 print playloop4;
#X text 454 40 This patch stop the global player \, if all looper are
stop;
#X connect 0 0 8 0;
#X connect 1 0 8 0;
#X connect 2 0 8 0;
#X connect 3 0 8 0;
#X connect 4 1 10 1;
#X connect 5 1 10 0;
#X connect 6 1 11 0;
#X connect 7 1 12 0;
#X connect 8 0 9 0;
#X connect 9 0 7 2;
#X connect 9 1 6 2;
#X connect 9 2 5 2;
#X connect 9 3 4 2;
#X connect 10 0 11 1;
#X connect 11 0 12 1;
#X connect 12 0 13 0;
#X connect 13 0 14 0;
#X connect 14 0 15 0;
#X connect 14 0 16 0;
#X restore 22 383 pd autostop_from_loop;
#X obj 35 283 declare -path ../../patches;
#X obj 368 721 r ledrec1;
#X obj 416 741 r ledplay1;
#X obj 440 721 r ledrec2;
#X obj 488 741 r ledplay2;
#X obj 512 721 r ledrec3;
#X obj 561 742 r ledplay3;
#X obj 584 721 r ledrec4;
#X obj 633 741 r ledplay4;
#X obj 267 94 *~ 1;
#X obj 392 633 extra/sv 1_1_is_loop_recorded;
#X obj 464 654 extra/sv 2_1_is_loop_recorded;
#X obj 536 673 extra/sv 3_1_is_loop_recorded;
#X obj 608 694 extra/sv 4_1_is_loop_recorded;
#X obj 207 716 bang;
#N canvas 212 66 499 535 song_led 0;
#X obj 234 116 inlet;
#X obj 129 203 extra/sv song_mode;
#X obj 234 157 delay 300;
#X obj 234 228 tgl 15 0 empty empty empty 17 7 0 10 -262144 -1 -1 0
1;
#X obj 234 251 sel 1;
#X obj 129 231 tgl 15 0 empty empty empty 17 7 0 10 -262144 -1 -1 0
1;
#X obj 79 267 spigot;
#X obj 23 203 extra/sv song;
#X obj 79 287 - 1;
#X obj 248 494 outlet;
#X obj 279 92 r load_song;
#X obj 386 156 r save_song;
#X obj 407 201 delay 2000;
#X obj 365 271 metro 200;
#X msg 406 226 stop;
#X obj 363 299 tgl 15 0 empty empty empty 17 7 0 10 -262144 -1 -1 0
1;
#X obj 346 224 bng 15 250 50 0 empty empty empty 17 7 0 10 -262144
-1 -1;
#X obj 206 435 i 0;
#X obj 81 335 t b f;
#X floatatom 108 495 5 0 0 0 - - -, f 5;
#X obj 281 379 sel 1 0;
#X msg 279 432 -1;
#X obj 406 248 t b a;
#X msg 406 301 1;
#X msg 234 277 0;
#X connect 0 0 2 0;
#X connect 1 0 5 0;
#X connect 1 1 3 0;
#X connect 2 0 1 2;
#X connect 3 0 4 0;
#X connect 4 0 24 0;
#X connect 5 0 6 1;
#X connect 6 0 8 0;
#X connect 7 0 6 0;
#X connect 8 0 18 0;
#X connect 11 0 12 0;
#X connect 11 0 13 0;
#X connect 12 0 14 0;
#X connect 13 0 15 0;
#X connect 14 0 22 0;
#X connect 15 0 20 0;
#X connect 16 0 13 0;
#X connect 17 0 19 0;
#X connect 17 0 9 0;
#X connect 18 0 17 0;
#X connect 18 1 17 1;
#X connect 20 0 17 0;
#X connect 20 1 21 0;
#X connect 21 0 9 0;
#X connect 22 0 23 0;
#X connect 22 1 13 0;
#X connect 23 0 20 0;
#X connect 24 0 1 1;
#X restore 212 769 pd song_led;
#N canvas 0 50 450 300 global_play_delete 0;
#N canvas 293 165 623 468 longORshort 0;
#X obj 153 75 inlet;
#X obj 152 180 timer;
#X obj 153 119 sel 0;
#X obj 187 149 bang;
#X obj 151 224 > 500;
#X obj 151 298 bng 15 250 50 0 empty empty empty 17 7 0 10 -262144
-1 -1;
#X obj 151 419 outlet;
#X obj 223 417 outlet;
#X obj 380 102 sel 0;
#X obj 398 239 i 0;
#X obj 398 270 sel 0;
#X obj 431 312 bng 15 250 50 0 empty empty empty 17 7 0 10 -262144
-1 -1;
#X obj 182 296 bng 15 250 50 0 empty empty empty 17 7 0 10 -262144
-1 -1;
#X obj 398 310 bng 15 250 50 0 empty empty empty 17 7 0 10 -262144
-1 -1;
#X obj 151 256 sel 0 1;
#X obj 451 234 bng 15 250 50 0 empty empty empty 17 7 0 10 -262144
-1 -1;
#X obj 458 160 bng 15 250 50 0 empty empty empty 17 7 0 10 -262144
-1 -1;
#X obj 444 196 delay 1000;
#X connect 0 0 2 0;
#X connect 0 0 8 0;
#X connect 0 0 9 1;
#X connect 1 0 4 0;
#X connect 2 0 1 1;
#X connect 2 1 3 0;
#X connect 3 0 1 0;
#X connect 4 0 14 0;
#X connect 5 0 6 0;
#X connect 8 1 16 0;
#X connect 9 0 10 0;
#X connect 10 0 13 0;
#X connect 10 1 11 0;
#X connect 11 0 7 0;
#X connect 14 0 5 0;
#X connect 14 1 12 0;
#X connect 16 0 17 0;
#X connect 17 0 9 0;
#X connect 17 0 15 0;
#X restore 143 115 pd longORshort;
#X obj 176 35 extra/sv module_selected;
#X obj 143 85 spigot;
#X obj 143 15 extra/sv global_play;
#X obj 176 58 == 0;
#X obj 215 178 extra/sv tempo_isplaying;
#X msg 262 153 0;
#X obj 173 168 bang;
#X obj 173 214 s bigReset;
#X obj 217 137 t b b;
#X obj 280 132 bng 15 250 50 0 empty empty empty 17 7 0 10 -262144
-1 -1;
#X obj 25 178 extra/sv tempo_isplaying;
#X obj 307 203 s 1_1_loop_clear;
#X obj 307 224 s 2_1_loop_clear;
#X obj 307 244 s 3_1_loop_clear;
#X obj 307 264 s 4_1_loop_clear;
#X connect 0 0 11 0;
#X connect 0 1 9 0;
#X connect 0 1 10 0;
#X connect 1 0 4 0;
#X connect 2 0 0 0;
#X connect 3 0 2 0;
#X connect 4 0 2 1;
#X connect 6 0 5 1;
#X connect 6 0 12 0;
#X connect 6 0 13 0;
#X connect 6 0 14 0;
#X connect 6 0 15 0;
#X connect 7 0 8 0;
#X connect 9 0 7 0;
#X connect 9 1 6 0;
#X restore 26 456 pd global_play_delete;
#X obj 21 309 audio/tempo machines 1;
#X obj 561 314 audio/recloopsave 2 1;
#X obj 334 318 audio/recloopsave 1 1;
#X obj 765 314 audio/recloopsave 3 1;
#X obj 992 310 audio/recloopsave 4 1;
#X connect 1 1 42 0;
#X connect 1 2 9 0;
#X connect 1 3 22 0;
#X connect 2 0 1 0;
#X connect 2 1 1 0;
#X connect 3 0 4 1;
#X connect 3 0 4 0;
#X connect 5 0 6 0;
#X connect 9 0 42 0;
#X connect 17 0 3 0;
#X connect 18 0 52 0;
#X connect 19 0 51 0;
#X connect 20 0 17 0;
#X connect 21 0 17 0;
#X connect 22 0 42 0;
#X connect 23 0 19 0;
#X connect 23 0 18 0;
#X connect 23 0 24 0;
#X connect 23 0 25 0;
#X connect 24 0 53 0;
#X connect 25 0 54 0;
#X connect 29 0 17 0;
#X connect 30 0 17 0;
#X connect 34 0 7 2;
#X connect 34 0 47 0;
#X connect 35 0 7 4;
#X connect 35 0 47 0;
#X connect 36 0 7 5;
#X connect 36 0 47 0;
#X connect 37 0 7 7;
#X connect 37 0 47 0;
#X connect 38 0 7 8;
#X connect 38 0 47 0;
#X connect 39 0 7 10;
#X connect 39 0 47 0;
#X connect 40 0 7 11;
#X connect 40 0 47 0;
#X connect 41 0 7 13;
#X connect 41 0 47 0;
#X connect 42 0 23 0;
#X connect 42 0 17 0;
#X connect 43 0 7 3;
#X connect 43 0 47 0;
#X connect 44 0 7 6;
#X connect 44 0 47 0;
#X connect 45 0 7 9;
#X connect 45 0 47 0;
#X connect 46 0 7 12;
#X connect 46 0 47 0;
#X connect 47 0 48 0;
#X connect 48 0 7 0;
#X connect 51 0 21 0;
#X connect 51 3 13 0;
#X connect 51 4 14 0;
#X connect 52 0 20 0;
#X connect 52 3 11 0;
#X connect 52 4 12 0;
#X connect 53 0 29 0;
#X connect 53 3 31 0;
#X connect 53 4 28 0;
#X connect 54 0 30 0;
#X connect 54 3 27 0;
#X connect 54 4 26 0;
#X coords 0 -1 1 1 140 42 2 100 100;
#X restore 221 20 pd patch;
#N canvas 0 59 641 356 connect 0;
#X obj 625 97 connect/connect_global_recplay;
#X obj 40 6 cnv 15 996 83 empty empty CONNECT 330 30 0 45 -21525 -88297
0;
#X obj 648 509 s effect_rev_drywet;
#X obj 44 26 cnv 15 138 40 empty empty CONNECT 20 12 0 14 -66577 -262144
0;
#N canvas 402 288 1038 552 open 0;
#X obj 103 102 hradio 15 0 0 3 empty empty empty 0 -8 0 10 -262144
-1 -1 1;
#X text 462 314 label-color;
#X text 477 339 label-color;
#X obj 377 311 t b f;
#X msg 400 277 2;
#X obj 466 220 loadbang;
#X obj 104 166 bang;
#X msg 363 277 43;
#X obj 363 197 bang;
#X obj 404 365 pack 43 0 0 \$0;
#X obj 400 220 delay 200;
#X msg 104 202 \; pd-connect vis 1;
#X msg 405 398 \; \$4_connectcnv color \$1 \$2 \$3;
#X obj 101 101 cnv 15 47 15 empty \$0_connectcnv open 14 6 0 10 -66577
-262144 0;
#X obj 594 296 bang;
#X msg 594 332 \; pd-connect vis 0;
#X connect 0 0 6 0;
#X connect 3 1 9 0;
#X connect 4 0 3 0;
#X connect 5 0 4 0;
#X connect 5 0 14 0;
#X connect 6 0 8 0;
#X connect 6 0 11 0;
#X connect 7 0 3 0;
#X connect 8 0 7 0;
#X connect 8 0 10 0;
#X connect 9 0 12 0;
#X connect 10 0 4 0;
#X connect 14 0 15 0;
#X coords 0 -1 1 1 49 17 2 100 100;
#X restore 127 47 pd open;
#X obj 585 14 arduino/arduino;
#X obj 37 98 connect/connect_recloopsave 1 1;
#X obj 182 98 connect/connect_recloopsave 2 1;
#X obj 623 304 connect/connect_mic;
#X obj 330 98 connect/connect_recloopsave 3 1;
#X obj 475 98 connect/connect_recloopsave 4 1;
#X obj 783 11 hardware/midi;
#X obj 647 488 extra/midiLearn effect_rev_drywet;
#X obj 913 98 connect/connect_song;
#X connect 12 0 2 0;
#X coords 0 -1 1 1 140 42 1 43 25;
#X restore 364 20 pd connect;
#N canvas 349 212 1175 592 volumes 0;
#X obj 24 -13 cnv 15 996 83 empty empty VOLUMES 330 30 0 45 -21525
-88297 0;
#X obj 188 80 volumes/volume_recloopsave 1 1;
#X obj 28 80 volumes/volume_mic;
#X obj 44 26 cnv 15 138 40 empty empty VOLUMES 20 12 0 14 -66577 -262144
0;
#N canvas 285 163 1038 575 open 0;
#X obj 103 102 hradio 15 0 0 3 empty empty empty 0 -8 0 10 -262144
-1 -1 0;
#X text 462 314 label-color;
#X text 477 339 label-color;
#X obj 377 311 t b f;
#X msg 400 277 2;
#X obj 466 220 loadbang;
#X obj 104 166 bang;
#X msg 363 277 43;
#X obj 363 197 bang;
#X obj 404 365 pack 43 0 0 \$0;
#X obj 400 220 delay 200;
#X obj 101 101 cnv 15 47 15 empty \$0_volumescnv open 14 6 0 10 -66577
-262144 0;
#X msg 104 202 \; pd-volumes vis 1;
#X msg 405 398 \; \$4_volumescnv color \$1 \$2 \$3;
#X msg 552 270 \; pd-volumes vis 0;
#X connect 0 0 6 0;
#X connect 3 1 9 0;
#X connect 4 0 3 0;
#X connect 5 0 4 0;
#X connect 5 0 14 0;
#X connect 6 0 8 0;
#X connect 6 0 12 0;
#X connect 7 0 3 0;
#X connect 8 0 7 0;
#X connect 8 0 10 0;
#X connect 9 0 13 0;
#X connect 10 0 4 0;
#X coords 0 -1 1 1 49 17 2 100 100;
#X restore 127 47 pd open;
#X obj 963 80 UI/delay;
#X obj 815 80 UI/reverb;
#X obj 30 292 volumes/volume_sampler 5;
#X obj 184 291 volumes/volume_synth 6;
#X obj 337 81 volumes/volume_recloopsave 2 1;
#X obj 482 80 volumes/volume_recloopsave 3 1;
#X obj 634 80 volumes/volume_recloopsave 4 1;
#X obj 242 9 bng 55 250 50 0 save_all empty SAVE 10 25 0 15 -258113
-1 -1;
#X coords 0 -1 1 1 140 42 1 43 25;
#X restore 507 20 pd volumes;
#X obj 42 90 UI/ui_recloopsave 1 1;
#X obj 186 90 UI/ui_recloopsave 2 1;
#X obj 329 90 UI/ui_recloopsave 3 1;
#X obj 472 90 UI/ui_recloopsave 4 1;
