#N canvas 521 194 635 372 10;
#X declare -path ../../patches;
#X obj 163 104 cnv 15 444 200 empty empty empty 20 12 0 14 -233017
-66577 0;
#X obj 6 308 UI/ui_tempo_small;
#X obj 7 20 cnv 15 600 81 empty empty LUCIBOX 214 36 0 45 -21525 -88297
0;
#X obj 7 103 cnv 15 144 200 empty empty empty 20 12 0 14 -233017 -66577
0;
#N canvas 261 167 1061 560 patch 0;
#X obj 101 101 cnv 15 138 40 empty empty PATCH 20 12 0 14 -66577 -262144
0;
#X obj 247 141 audio/mic;
#X obj 277 108 adc~;
#X obj 252 404 *~ 1;
#X obj 251 436 dac~;
#X obj 38 100 bng 35 250 50 0 empty empty CLOSE 4 20 0 10 -262144 -1
-1;
#X msg 38 164 \; pd-patch vis 0;
#X obj 450 628 arduino/arduino_out;
#N canvas 447 412 1038 529 open 0;
#X text 462 314 label-color;
#X text 477 339 label-color;
#X obj 377 311 t b f;
#X msg 400 277 2;
#X obj 466 220 loadbang;
#X obj 104 101 hradio 15 1 0 2 empty empty empty 0 -8 0 10 -262144
-1 -1 0;
#X obj 104 166 bang;
#X msg 363 277 43;
#X obj 101 101 cnv 15 38 15 empty \$0_opencnv open 6 8 0 10 -66577
-262144 0;
#X msg 405 398 \; \$4_opencnv color \$1 \$2 \$3;
#X obj 363 197 bang;
#X obj 404 365 pack 43 0 0 \$0;
#X obj 400 220 delay 200;
#X msg 101 247 \; pd-patch vis 1;
#X msg 614 289 \; pd-patch vis 0;
#X connect 2 1 11 0;
#X connect 3 0 2 0;
#X connect 4 0 3 0;
#X connect 4 0 14 0;
#X connect 5 0 6 0;
#X connect 6 0 10 0;
#X connect 6 0 13 0;
#X connect 7 0 2 0;
#X connect 10 0 7 0;
#X connect 10 0 12 0;
#X connect 11 0 9 0;
#X connect 12 0 3 0;
#X coords 0 -1 1 1 40 17 2 100 100;
#X restore 177 107 pd open;
#X obj 407 270 s ledrec1;
#X obj 432 247 s ledplay1;
#X obj 634 269 s ledrec2;
#X obj 659 246 s ledplay2;
#N canvas 188 130 612 371 ledmodule0 0;
#X floatatom 68 137 5 -1 11 0 - - -, f 5;
#X obj 68 93 i 0;
#X obj 68 115 moses 13;
#X obj 68 46 r global_tempo_slider;
#X obj 140 116 s to13;
#X obj 251 75 == 0;
#X obj 210 148 tgl 15 0 empty empty empty 17 7 0 10 -262144 -1 -1 1
1;
#X obj 251 37 extra/sv module_selected;
#X obj 423 39 r bigReset;
#X obj 459 71 del 2000;
#X msg 424 135 2;
#X msg 459 135 0;
#X obj 430 187 s to3;
#X msg 271 170 0;
#X obj 271 201 s to1;
#X obj 271 226 extra/sv tempo_isplaying;
#X obj 479 188 s to1;
#X obj 521 188 s to2;
#X obj 269 125 sel 1;
#X obj 410 257 s to2;
#X obj 13 328 outlet;
#X obj 63 328 outlet;
#X obj 113 328 outlet;
#X obj 163 328 outlet;
#X obj 211 328 outlet;
#X obj 261 328 outlet;
#X obj 203 237 == 5;
#X obj 163 237 == 4;
#X obj 133 237 == 3;
#X obj 93 237 == 2;
#X obj 63 237 == 1;
#X obj 23 237 == 0;
#X obj 68 69 * 6;
#X connect 0 0 26 0;
#X connect 0 0 27 0;
#X connect 0 0 28 0;
#X connect 0 0 29 0;
#X connect 0 0 30 0;
#X connect 0 0 31 0;
#X connect 1 0 2 0;
#X connect 2 0 0 0;
#X connect 3 0 32 0;
#X connect 5 0 6 0;
#X connect 5 0 18 0;
#X connect 7 0 5 0;
#X connect 8 0 9 0;
#X connect 8 0 10 0;
#X connect 9 0 11 0;
#X connect 10 0 12 0;
#X connect 11 0 12 0;
#X connect 11 0 16 0;
#X connect 11 0 17 0;
#X connect 13 0 14 0;
#X connect 15 1 19 0;
#X connect 18 0 13 0;
#X connect 18 0 15 2;
#X connect 26 0 25 0;
#X connect 27 0 24 0;
#X connect 28 0 23 0;
#X connect 29 0 22 0;
#X connect 30 0 21 0;
#X connect 31 0 20 0;
#X connect 32 0 1 0;
#X restore 575 473 pd ledmodule0;
#N canvas 294 159 623 468 longORshort 0;
#X obj 153 75 inlet;
#X obj 152 180 timer;
#X obj 153 119 sel 0;
#X obj 187 149 bang;
#X obj 151 224 > 500;
#X obj 151 298 bng 15 250 50 0 empty empty empty 17 7 0 10 -262144
-1 -1;
#X obj 151 419 outlet;
#X obj 223 417 outlet;
#X obj 380 102 sel 0;
#X obj 398 239 i 0;
#X obj 398 270 sel 0;
#X obj 431 312 bng 15 250 50 0 empty empty empty 17 7 0 10 -262144
-1 -1;
#X obj 444 196 delay 1000;
#X obj 182 296 bng 15 250 50 0 empty empty empty 17 7 0 10 -262144
-1 -1;
#X obj 398 310 bng 15 250 50 0 empty empty empty 17 7 0 10 -262144
-1 -1;
#X obj 151 256 sel 0 1;
#X connect 0 0 2 0;
#X connect 0 0 8 0;
#X connect 0 0 9 1;
#X connect 1 0 4 0;
#X connect 2 0 1 1;
#X connect 2 1 3 0;
#X connect 3 0 1 0;
#X connect 4 0 15 0;
#X connect 5 0 6 0;
#X connect 8 1 12 0;
#X connect 9 0 10 0;
#X connect 10 0 14 0;
#X connect 10 1 11 0;
#X connect 12 0 9 0;
#X connect 13 0 7 0;
#X connect 15 0 5 0;
#X connect 15 1 13 0;
#X restore 24 527 pd longORshort;
#X obj 24 503 extra/sv global_play;
#X text 19 370 Manage Reset when;
#X text 6 483 no module selected and long press;
#X obj 96 590 extra/sv tempo_isplaying;
#X msg 143 565 0;
#X obj 54 580 bang;
#X obj 18 627 s bigReset;
#X obj 98 549 t b b;
#X obj 252 380 *~ 1;
#X obj 334 183 *~ 1;
#X obj 561 172 *~ 1;
#X obj 333 323 *~ 1;
#X obj 561 321 *~ 1;
#X obj 161 544 bng 15 250 50 0 empty empty empty 17 7 0 10 -262144
-1 -1;
#X obj -113 570 extra/sv tempo_isplaying;
#X obj 765 172 *~ 1;
#X obj 863 242 s ledplay3;
#X obj 766 328 *~ 1;
#X obj 838 267 s ledrec3;
#X obj 85 687 extra/sv nbLoopPlaying;
#X obj 450 556 r ledrec1;
#X obj 513 556 r ledplay1;
#X obj 580 556 r ledrec2;
#X obj 643 556 r ledplay2;
#X obj 710 556 r ledrec3;
#X obj 773 556 r ledplay3;
#X obj -53 250 extra/sv module_selected;
#X obj -51 198 loadbang;
#X floatatom -53 275 5 0 0 0 - - -, f 5;
#X msg -51 223 0;
#X obj 20 293 declare -path ../../patches;
#X obj 22 316 audio/tempo machines 3;
#N canvas 75 368 784 449 autostop_from_loop 0;
#X obj 155 39 extra/sv 1_1_is_loop_playing;
#X obj 188 62 extra/sv 2_1_is_loop_playing;
#X obj 215 85 extra/sv 3_1_is_loop_playing;
#X obj 162 195 extra/sv 1_1_is_loop_playing;
#X obj 142 220 extra/sv 2_1_is_loop_playing;
#X obj 122 241 extra/sv 3_1_is_loop_playing;
#X obj 217 151 bng 15 250 50 0 empty empty empty 17 7 0 10 -262144
-1 -1;
#X obj 230 171 t b b b b;
#X obj 337 241 +;
#X obj 319 266 +;
#X floatatom 301 309 5 0 0 0 - - -, f 5;
#X obj 300 326 sel 0;
#X obj 300 352 s tempoStopIn;
#X obj 280 353 bng 15 250 50 0 empty empty empty 17 7 0 10 -262144
-1 -1;
#X obj 469 239 print loop1;
#X obj 468 269 print loop2;
#X obj 469 299 print loop3;
#X obj 469 109 print playloop1;
#X obj 468 139 print playloop2;
#X obj 469 169 print playloop3;
#X connect 0 0 6 0;
#X connect 1 0 6 0;
#X connect 2 0 6 0;
#X connect 3 1 8 1;
#X connect 4 1 8 0;
#X connect 5 1 9 0;
#X connect 6 0 7 0;
#X connect 7 1 5 2;
#X connect 7 2 4 2;
#X connect 7 3 3 2;
#X connect 8 0 9 1;
#X connect 9 0 10 0;
#X connect 10 0 11 0;
#X connect 11 0 12 0;
#X connect 11 0 13 0;
#X restore 23 341 pd autostop_from_loop;
#X obj 334 208 audio/recloopsave 1 1;
#X obj 92 614 s 1_1_loop_clear;
#X obj 89 636 s 2_1_loop_clear;
#X obj 90 659 s 3_1_loop_clear;
#X obj 58 556 bng 15 250 50 0 empty empty empty 17 7 0 10 -262144 -1
-1;
#X obj 765 204 audio/recloopsave 3 1;
#X obj 561 204 audio/recloopsave 2 1;
#X connect 1 1 23 0;
#X connect 1 1 25 0;
#X connect 1 1 24 0;
#X connect 1 1 30 0;
#X connect 2 0 1 0;
#X connect 2 1 1 0;
#X connect 3 0 4 1;
#X connect 3 0 4 0;
#X connect 5 0 6 0;
#X connect 14 0 29 0;
#X connect 14 1 22 0;
#X connect 14 1 28 0;
#X connect 15 0 14 0;
#X connect 19 0 18 1;
#X connect 19 0 34 1;
#X connect 19 0 49 0;
#X connect 19 0 50 0;
#X connect 19 0 51 0;
#X connect 20 0 21 0;
#X connect 22 0 20 0;
#X connect 22 1 19 0;
#X connect 23 0 3 0;
#X connect 24 0 48 0;
#X connect 25 0 54 0;
#X connect 26 0 23 0;
#X connect 27 0 23 0;
#X connect 30 0 53 0;
#X connect 32 0 23 0;
#X connect 35 0 7 0;
#X connect 36 0 7 2;
#X connect 37 0 7 4;
#X connect 38 0 7 6;
#X connect 39 0 7 8;
#X connect 40 0 7 10;
#X connect 41 0 43 0;
#X connect 42 0 44 0;
#X connect 44 0 41 1;
#X connect 48 0 26 0;
#X connect 48 3 9 0;
#X connect 48 4 10 0;
#X connect 52 0 20 0;
#X connect 53 0 32 0;
#X connect 53 3 33 0;
#X connect 53 4 31 0;
#X connect 54 0 27 0;
#X connect 54 3 11 0;
#X connect 54 4 12 0;
#X coords 0 -1 1 1 140 42 2 100 100;
#X restore 7 135 pd patch;
#N canvas 0 93 656 323 connect 0;
#X obj 625 97 connect/connect_global_recplay;
#X obj 40 6 cnv 15 996 83 empty empty CONNECT 330 30 0 45 -21525 -88297
0;
#X obj 648 509 s effect_rev_drywet;
#X obj 44 26 cnv 15 138 40 empty empty CONNECT 20 12 0 14 -66577 -262144
0;
#N canvas 402 288 1038 552 open 0;
#X obj 103 102 hradio 15 0 0 3 empty empty empty 0 -8 0 10 -262144
-1 -1 1;
#X text 462 314 label-color;
#X text 477 339 label-color;
#X obj 377 311 t b f;
#X msg 400 277 2;
#X obj 466 220 loadbang;
#X obj 104 166 bang;
#X msg 363 277 43;
#X obj 363 197 bang;
#X obj 404 365 pack 43 0 0 \$0;
#X obj 400 220 delay 200;
#X msg 104 202 \; pd-connect vis 1;
#X msg 405 398 \; \$4_connectcnv color \$1 \$2 \$3;
#X obj 101 101 cnv 15 47 15 empty \$0_connectcnv open 14 6 0 10 -66577
-262144 0;
#X obj 594 296 bang;
#X msg 594 332 \; pd-connect vis 0;
#X connect 0 0 6 0;
#X connect 3 1 9 0;
#X connect 4 0 3 0;
#X connect 5 0 4 0;
#X connect 5 0 14 0;
#X connect 6 0 8 0;
#X connect 6 0 11 0;
#X connect 7 0 3 0;
#X connect 8 0 7 0;
#X connect 8 0 10 0;
#X connect 9 0 12 0;
#X connect 10 0 4 0;
#X connect 14 0 15 0;
#X coords 0 -1 1 1 49 17 2 100 100;
#X restore 127 47 pd open;
#X obj 585 14 arduino/arduino;
#X obj 37 98 connect/connect_recloopsave 1 1;
#X obj 647 488 extra/midiLearn effect_rev_drywet;
#X obj 479 161 connect/connect_mic;
#X obj 222 19 bng 55 250 50 0 save_all empty SAVE 10 25 0 15 -258113
-1 -1;
#X obj 182 98 connect/connect_recloopsave 2 1;
#X obj 330 98 connect/connect_recloopsave 3 1;
#X connect 7 0 2 0;
#X coords 0 -1 1 1 140 42 1 43 25;
#X restore 8 187 pd connect;
#X obj 13 74 hsl 580 25 0 1 0 0 empty global_tempo_slider empty -2
-8 0 10 -33289 -4032 -1 0 1;
#N canvas 48 192 670 313 volumes 0;
#X obj 24 -13 cnv 15 625 83 empty empty VOLUMES 330 30 0 45 -21525
-88297 0;
#X obj 188 80 volumes/volume_recloopsave 1 1;
#X obj 28 80 volumes/volume_mic;
#X obj 44 26 cnv 15 138 40 empty empty VOLUMES 20 12 0 14 -66577 -262144
0;
#N canvas 285 163 1038 575 open 0;
#X obj 103 102 hradio 15 0 0 3 empty empty empty 0 -8 0 10 -262144
-1 -1 0;
#X text 462 314 label-color;
#X text 477 339 label-color;
#X obj 377 311 t b f;
#X msg 400 277 2;
#X obj 466 220 loadbang;
#X obj 104 166 bang;
#X msg 363 277 43;
#X obj 363 197 bang;
#X obj 404 365 pack 43 0 0 \$0;
#X obj 400 220 delay 200;
#X obj 101 101 cnv 15 47 15 empty \$0_volumescnv open 14 6 0 10 -66577
-262144 0;
#X msg 104 202 \; pd-volumes vis 1;
#X msg 405 398 \; \$4_volumescnv color \$1 \$2 \$3;
#X msg 552 270 \; pd-volumes vis 0;
#X connect 0 0 6 0;
#X connect 3 1 9 0;
#X connect 4 0 3 0;
#X connect 5 0 4 0;
#X connect 5 0 14 0;
#X connect 6 0 8 0;
#X connect 6 0 12 0;
#X connect 7 0 3 0;
#X connect 8 0 7 0;
#X connect 8 0 10 0;
#X connect 9 0 13 0;
#X connect 10 0 4 0;
#X coords 0 -1 1 1 49 17 2 100 100;
#X restore 127 47 pd open;
#X obj 337 81 volumes/volume_recloopsave 2 1;
#X obj 482 80 volumes/volume_recloopsave 3 1;
#X obj 227 5 bng 55 250 50 0 save_all empty SAVE 10 25 0 15 -258113
-1 -1;
#X coords 0 -1 1 1 140 42 1 43 25;
#X restore 9 238 pd volumes;
#X obj 173 124 UI/ui_recloopsave 1 1;
#X obj 317 125 UI/ui_recloopsave 2 1;
#X obj 459 125 UI/ui_recloopsave 3 1;
